<svg width="62" height="81" viewBox="0 0 62 81" fill="none" xmlns="http://www.w3.org/2000/svg">
<path d="M61.2014 17.4675L44.8689 1.13358C44.5729 0.837015 44.1632 0.664062 43.7389 0.664062H5.12074C2.4784 0.664062 0.328125 2.81374 0.328125 5.45668V75.7443C0.328125 78.3867 2.47781 80.537 5.12074 80.537H56.8771C59.0621 80.537 61.6697 79.1644 61.6697 72.6232V18.5966C61.6697 18.1724 61.4968 17.7615 61.2008 17.4667L61.2014 17.4675ZM45.3369 6.11919L56.218 17.0003H46.9346C46.0525 17.0003 45.3369 16.2829 45.3369 15.4025V6.11919ZM56.8785 77.3414H5.12067C4.23853 77.3414 3.52293 76.6241 3.52293 75.7436L3.52351 5.45597C3.52351 4.57556 4.23909 3.85823 5.12125 3.85823H42.1423V15.4015C42.1423 18.0438 44.292 20.1941 46.9349 20.1941H58.4782V72.622C58.4758 74.3839 58.2681 77.3409 56.8786 77.3409L56.8785 77.3414Z" fill="white"/>
<path d="M50.8563 41.8604H11.1446C10.2613 41.8604 9.54688 42.5759 9.54688 43.4581C9.54688 44.3402 10.2607 45.0558 11.1446 45.0558H50.8548C51.7381 45.0558 52.4525 44.3402 52.4525 43.4581C52.4537 42.5759 51.7381 41.8604 50.856 41.8604H50.8563Z" fill="white"/>
<path d="M50.8563 50.2041H11.1446C10.2613 50.2041 9.54688 50.9197 9.54688 51.8018C9.54688 52.684 10.2607 53.3996 11.1446 53.3996H50.8548C51.7381 53.3996 52.4525 52.684 52.4525 51.8018C52.4537 50.9197 51.7381 50.2041 50.856 50.2041H50.8563Z" fill="white"/>
<path d="M50.8563 58.4297H11.1446C10.2613 58.4297 9.54688 59.1453 9.54688 60.0274C9.54688 60.9096 10.2607 61.6252 11.1446 61.6252H50.8548C51.7381 61.6252 52.4525 60.9096 52.4525 60.0274C52.4537 59.1453 51.7381 58.4297 50.856 58.4297H50.8563Z" fill="white"/>
<path d="M50.8562 66.8887H39.1016C38.2183 66.8887 37.5039 67.6043 37.5039 68.4864C37.5039 69.3686 38.2177 70.0841 39.1016 70.0841H50.8562C51.7395 70.0841 52.4539 69.3686 52.4539 68.4864C52.4539 67.6043 51.7383 66.8887 50.8562 66.8887Z" fill="white"/>
<path d="M23.7006 66.7705H11.1475C10.2642 66.7705 9.5498 67.4861 9.5498 68.3682C9.5498 69.2504 10.2636 69.966 11.1475 69.966H23.7006C24.5839 69.966 25.2984 69.2504 25.2984 68.3682C25.2978 67.4861 24.5822 66.7705 23.7006 66.7705Z" fill="white"/>
<path d="M23.3545 38.7182C25.5576 38.7182 27.348 36.9261 27.348 34.7247V20.9935C27.348 18.7922 25.5576 17 23.3545 17H12.3255C10.1225 17 8.33203 18.7921 8.33203 20.9935V34.7247C8.33203 36.926 10.1225 38.7182 12.3255 38.7182H23.3545ZM11.5269 34.7247V20.9935C11.5269 20.5524 11.8862 20.1949 12.3255 20.1949H23.3545C23.7939 20.1949 24.1531 20.5524 24.1531 20.9935V34.7247C24.1531 35.1658 23.7939 35.5233 23.3545 35.5233H12.3255C11.8862 35.5233 11.5269 35.1658 11.5269 34.7247Z" fill="white"/>
</svg>
