<svg width="74" height="83" viewBox="0 0 74 83" fill="none" xmlns="http://www.w3.org/2000/svg">
<path d="M36.9998 0.28418C41.7071 0.28418 45.628 3.64024 46.4876 8.08313H73.8093V82.8581H0.1875V8.08313H27.5093C28.3689 3.64024 32.2897 0.28418 36.997 0.28418H36.9998ZM36.9998 3.03666C33.6782 3.03666 30.8435 5.39435 30.2227 8.60374L29.7913 10.8356H2.95073V80.1057H71.051V10.8356H44.2104L43.7791 8.60374C43.1582 5.39435 40.3236 3.03666 37.002 3.03666H36.9998ZM43.4419 60.3806V63.1331H16.7531V60.3806H43.4419ZM57.2457 43.8657V46.6182H16.7531V43.8657H57.2457ZM57.2457 27.3509V30.1034H16.7531V27.3509H57.2457ZM36.9994 6.24723C39.2865 6.24723 41.1406 8.09577 41.1406 10.3759C41.1406 12.6562 39.2864 14.5047 36.9994 14.5047C34.7124 14.5047 32.8582 12.6561 32.8582 10.3759C32.8582 8.09571 34.7124 6.24723 36.9994 6.24723ZM36.9994 8.99971C36.2368 8.99971 35.619 9.6164 35.619 10.3759C35.619 11.1363 36.2368 11.7522 36.9994 11.7522C37.762 11.7522 38.3798 11.1363 38.3798 10.3759C38.3798 9.6164 37.762 8.99971 36.9994 8.99971Z" fill="white"/>
</svg>
