<svg width="25" height="24" viewBox="0 0 25 24" fill="none" xmlns="http://www.w3.org/2000/svg">
<circle cx="12.1428" cy="12" r="11.5" stroke="white"/>
<path d="M14.634 8.30892H18.2068V9.17571H14.634V8.30892ZM11.054 11.7384C11.8438 11.3606 12.2575 10.7857 12.2575 9.89743C12.2575 8.14058 10.9502 7.71436 9.44047 7.71436H5.28564V16.5326H9.55687C11.1579 16.5326 12.6605 15.7625 12.6605 13.9717C12.6605 12.8649 12.1375 12.0465 11.054 11.7384ZM7.22337 9.21869H9.0411C9.74133 9.21869 10.3699 9.41389 10.3699 10.2269C10.3699 10.9755 9.88102 11.2764 9.18795 11.2764H7.22337V9.21869ZM9.29183 15.0354H7.22158V12.607H9.33301C10.1855 12.607 10.7245 12.9634 10.7245 13.866C10.7245 14.7543 10.0816 15.0354 9.29183 15.0354ZM19.6037 13.4326C19.6037 11.5432 18.4987 9.96906 16.5001 9.96906C14.557 9.96906 13.2353 11.4322 13.2353 13.3502C13.2353 15.3381 14.4871 16.7027 16.5001 16.7027C18.0241 16.7027 19.0109 16.0168 19.4855 14.5537H17.9399C17.7716 15.0999 17.0875 15.3864 16.5556 15.3864C15.5276 15.3864 14.9904 14.7847 14.9904 13.7621H19.5911C19.5965 13.6565 19.6037 13.5454 19.6037 13.4326ZM14.9904 12.6554C15.0459 11.8155 15.6064 11.2907 16.4446 11.2907C17.3257 11.2907 17.7662 11.8083 17.8432 12.6554H14.9904Z" fill="white"/>
</svg>
