<svg width="250" height="362" viewBox="0 0 250 362" fill="none" xmlns="http://www.w3.org/2000/svg">
<g opacity="0.06">
<path d="M98.6046 3.34375L-107.657 209.761C-106.703 215.658 -105.464 221.466 -103.957 227.155L116.002 7.06149C110.317 5.55349 104.513 4.31424 98.6195 3.35868L98.6046 3.34375Z" stroke="#8F9294" stroke-width="1.08" stroke-miterlimit="10"/>
<path d="M116.002 7.06186L-103.942 227.155C-102.495 232.605 -100.809 237.965 -98.8693 243.191L132.027 12.1234C126.79 10.1824 121.448 8.51014 116.002 7.04694V7.06186Z" stroke="#8F9294" stroke-width="1.08" stroke-miterlimit="10"/>
<path d="M185.338 43.2236L-67.8046 296.538C-64.5967 300.345 -61.2545 304.048 -57.7332 307.572L196.364 53.3018C192.828 49.7931 189.143 46.4337 185.338 43.2236Z" stroke="#8F9294" stroke-width="1.08" stroke-miterlimit="10"/>
<path d="M173.431 34.0413L-76.9957 284.623C-74.0862 288.729 -71.0424 292.701 -67.8046 296.538L185.338 43.2237C181.503 39.9986 177.52 36.9379 173.431 34.0264V34.0413Z" stroke="#8F9294" stroke-width="1.08" stroke-miterlimit="10"/>
<path d="M146.858 18.3945L-92.6175 258.032C-90.3794 262.75 -87.9175 267.334 -85.2766 271.798L160.615 25.7404C156.138 23.1126 151.558 20.6491 146.858 18.3945Z" stroke="#8F9294" stroke-width="1.08" stroke-miterlimit="10"/>
<path d="M160.615 25.7402L-85.2766 271.813C-82.6954 276.217 -79.9201 280.473 -76.9808 284.623L173.431 34.0416C169.283 31.1003 165.016 28.3381 160.629 25.7402H160.615Z" stroke="#8F9294" stroke-width="1.08" stroke-miterlimit="10"/>
<path d="M132.027 12.123L-98.8842 243.19C-97.0191 248.252 -94.9153 253.194 -92.6175 258.032L146.858 18.3939C142.024 16.0946 137.085 13.9894 132.027 12.123V12.123Z" stroke="#8F9294" stroke-width="1.08" stroke-miterlimit="10"/>
<path d="M-97.6458 115.294L4.21704 13.3623C-42.3352 31.6076 -79.4128 68.6954 -97.6458 115.294V115.294Z" stroke="#8F9294" stroke-width="1.08" stroke-miterlimit="10"/>
<path d="M4.21702 13.3621L-97.6458 115.294C-101.406 124.909 -104.405 134.898 -106.479 145.23L34.1328 4.53809C23.8077 6.61345 13.811 9.59959 4.21702 13.3771V13.3621Z" stroke="#8F9294" stroke-width="1.08" stroke-miterlimit="10"/>
<path d="M79.5809 1.2832L-109.716 190.709C-109.373 197.159 -108.657 203.504 -107.657 209.746L98.6046 3.34364C92.3678 2.32835 86.0117 1.62661 79.5809 1.2832V1.2832Z" stroke="#8F9294" stroke-width="1.08" stroke-miterlimit="10"/>
<path d="M69.6885 1C65.8838 1 62.1238 1.16424 58.3787 1.3882L-109.612 169.493C-109.851 173.24 -110 177.003 -110 180.81C-110 184.125 -109.896 187.425 -109.717 190.709L79.5809 1.28368C76.3133 1.10451 73.0158 1 69.6885 1V1Z" stroke="#8F9294" stroke-width="1.08" stroke-miterlimit="10"/>
<path d="M34.1328 4.53905L-106.479 145.246C-108.06 153.159 -109.105 161.252 -109.627 169.493L58.3787 1.38867C50.1426 1.89632 42.0407 2.94146 34.1477 4.53905H34.1328Z" stroke="#8F9294" stroke-width="1.08" stroke-miterlimit="10"/>
<path d="M246.811 150.591L39.4893 358.053C45.6962 359.098 51.9927 359.844 58.3936 360.248L248.989 169.523C248.586 163.118 247.855 156.802 246.796 150.606L246.811 150.591Z" stroke="#8F9294" stroke-width="1.08" stroke-miterlimit="10"/>
<path d="M249.377 180.81C249.377 177.018 249.213 173.255 248.989 169.508L58.3936 360.232C62.1238 360.471 65.8838 360.621 69.6885 360.621C72.9412 360.621 76.164 360.531 79.372 360.352L249.108 190.5C249.273 187.29 249.377 184.065 249.377 180.81Z" stroke="#8F9294" stroke-width="1.08" stroke-miterlimit="10"/>
<path d="M249.108 190.5L79.3719 360.352C87.5484 359.919 95.5608 358.904 103.409 357.411L246.184 214.539C247.676 206.685 248.691 198.667 249.123 190.485L249.108 190.5Z" stroke="#8F9294" stroke-width="1.08" stroke-miterlimit="10"/>
<path d="M246.184 214.554L103.409 357.425C113.48 355.514 123.268 352.767 132.683 349.243L238.008 243.848C241.529 234.441 244.259 224.647 246.184 214.554V214.554Z" stroke="#8F9294" stroke-width="1.08" stroke-miterlimit="10"/>
<path d="M238.008 243.848L132.683 349.244C181.25 331.043 219.834 292.447 238.008 243.848Z" stroke="#8F9294" stroke-width="1.08" stroke-miterlimit="10"/>
<path d="M242.991 133.301L22.1964 354.245C27.8512 355.798 33.6106 357.067 39.4744 358.052L246.796 150.591C245.796 144.723 244.528 138.96 242.991 133.301V133.301Z" stroke="#8F9294" stroke-width="1.08" stroke-miterlimit="10"/>
<path d="M215.746 76.1309L-34.9196 326.967C-30.8015 329.923 -26.5641 332.73 -22.1924 335.343L224.116 88.8667C221.505 84.492 218.7 80.2517 215.746 76.1309Z" stroke="#8F9294" stroke-width="1.08" stroke-miterlimit="10"/>
<path d="M206.48 64.2762L-46.7666 317.71C-42.9619 320.965 -39.0079 324.04 -34.9346 326.982L215.746 76.1312C212.822 72.0551 209.733 68.0985 206.48 64.2912V64.2762Z" stroke="#8F9294" stroke-width="1.08" stroke-miterlimit="10"/>
<path d="M237.829 117.354L6.26117 349.079C11.4685 351.05 16.7802 352.767 22.1963 354.245L242.991 133.3C241.514 127.881 239.798 122.55 237.829 117.354V117.354Z" stroke="#8F9294" stroke-width="1.08" stroke-miterlimit="10"/>
<path d="M196.364 53.302L-57.7481 307.572C-54.2418 311.11 -50.5564 314.47 -46.7666 317.695L206.48 64.2761C203.258 60.4837 199.885 56.8108 196.364 53.2871V53.302Z" stroke="#8F9294" stroke-width="1.08" stroke-miterlimit="10"/>
<path d="M231.517 102.573L-8.4953 342.748C-3.69087 345.078 1.24783 347.168 6.27606 349.079L237.829 117.355C235.934 112.323 233.83 107.381 231.502 102.573H231.517Z" stroke="#8F9294" stroke-width="1.08" stroke-miterlimit="10"/>
<path d="M224.117 88.8671L-22.1924 335.343C-17.7461 338.001 -13.1803 340.479 -8.49528 342.749L231.517 102.573C229.249 97.8852 226.772 93.3164 224.117 88.8671Z" stroke="#8F9294" stroke-width="1.08" stroke-miterlimit="10"/>
</g>
</svg>
