<svg width="466" height="370" viewBox="0 0 466 370" fill="none" xmlns="http://www.w3.org/2000/svg">
<g clip-path="url(#clip0_1248_4996)">
<g opacity="0.4">
<path opacity="0.4" d="M460.413 206.296C467.335 160.858 472.905 111.481 444.485 71.7568C435.961 59.8408 425.023 47.8894 411.417 42.1378C394.336 34.917 376.173 33.0786 357.755 33.2768C323.596 33.6461 289.508 39.7318 257.302 51.2106C233.992 59.5176 211.145 70.7493 186.476 72.4601C144.693 75.3577 101.989 50.6295 62.3188 64.1558C41.2458 71.3413 24.637 88.7917 14.8599 108.925C5.0828 129.059 1.5408 151.731 0.670221 174.127C-1.97407 242.188 15.6708 314.262 54.9148 369.66H400.446C408.081 356.183 414.289 341.931 419.667 330.214C437.469 291.43 453.967 248.615 460.413 206.293V206.296Z" fill="#E5E5FF"/>
</g>
<path d="M229.562 247.081H201.654C200.559 247.081 199.672 247.97 199.672 249.066V258.033C199.672 259.129 200.559 260.018 201.654 260.018H229.562C230.657 260.018 231.544 259.129 231.544 258.033V249.066C231.544 247.97 230.657 247.081 229.562 247.081Z" fill="#E0E0FF"/>
<path d="M266.345 247.081H238.438C237.343 247.081 236.455 247.97 236.455 249.066V258.033C236.455 259.129 237.343 260.018 238.438 260.018H266.345C267.44 260.018 268.328 259.129 268.328 258.033V249.066C268.328 247.97 267.44 247.081 266.345 247.081Z" fill="#E0E0FF"/>
<path d="M283.015 263.828H255.108C254.013 263.828 253.125 264.717 253.125 265.813V274.78C253.125 275.876 254.013 276.765 255.108 276.765H283.015C284.11 276.765 284.998 275.876 284.998 274.78V265.813C284.998 264.717 284.11 263.828 283.015 263.828Z" fill="#E0E0FF"/>
<path d="M246.173 263.6H218.266C217.171 263.6 216.283 264.489 216.283 265.585V274.552C216.283 275.648 217.171 276.537 218.266 276.537H246.173C247.268 276.537 248.156 275.648 248.156 274.552V265.585C248.156 264.489 247.268 263.6 246.173 263.6Z" fill="#E0E0FF"/>
<path d="M229.675 280.122H201.768C200.673 280.122 199.785 281.01 199.785 282.107V291.074C199.785 292.17 200.673 293.059 201.768 293.059H229.675C230.77 293.059 231.658 292.17 231.658 291.074V282.107C231.658 281.01 230.77 280.122 229.675 280.122Z" fill="#E0E0FF"/>
<path d="M328.049 8.54297H94.1855V178.691H328.049V8.54297Z" fill="white"/>
<path d="M328.388 179.031H93.8457V8.20361H328.388V179.031ZM94.5237 178.352H327.709V8.88251H94.5237V178.352Z" fill="#5254CF"/>
<path opacity="0.6" d="M327.736 8.54346H94.4961V16.1797H327.736V8.54346Z" fill="#E0E0FF"/>
<path d="M338.247 0.339355H83.9883V9.52893H338.247V0.339355Z" fill="white"/>
<path d="M338.585 9.86848H83.6484V0H338.585V9.86848ZM84.3265 9.18958H337.907V0.678899H84.3265V9.18958Z" fill="#5254CF"/>
<path d="M224.993 100.738H198.599V91.7001C194.379 87.9308 191.963 82.5377 191.963 76.8838C191.963 65.9345 200.859 57.0273 211.794 57.0273C222.729 57.0273 231.625 65.9345 231.625 76.8838C231.625 82.5377 229.208 87.9308 224.988 91.7001V100.738H224.993ZM199.277 100.059H224.315V91.3932L224.429 91.2927C228.573 87.6457 230.949 82.3964 230.949 76.8838C230.949 66.3093 222.357 57.7062 211.796 57.7062C201.236 57.7062 192.644 66.3093 192.644 76.8838C192.644 82.3964 195.019 87.6457 199.163 91.2927L199.277 91.3932V100.059Z" fill="#5254CF"/>
<path d="M224.994 108.863H198.6V104.55H224.994V108.863ZM199.278 108.184H224.316V105.229H199.278V108.184Z" fill="#5254CF"/>
<path d="M224.994 115.141H198.6V110.829H224.994V115.141ZM199.278 114.462H224.316V111.508H199.278V114.462Z" fill="#5254CF"/>
<path d="M213.814 100.737H209.778L208.387 73.1279H215.202L213.811 100.737H213.814ZM210.424 100.058H213.168L214.489 73.8068H209.1L210.421 100.058H210.424Z" fill="#5254CF"/>
<path d="M212.221 51.428C212.97 51.428 213.577 50.8201 213.577 50.0702C213.577 49.3203 212.97 48.7124 212.221 48.7124C211.472 48.7124 210.865 49.3203 210.865 50.0702C210.865 50.8201 211.472 51.428 212.221 51.428Z" fill="#CBCBFF"/>
<path d="M180.694 83.844C181.443 83.844 182.05 83.2361 182.05 82.4862C182.05 81.7363 181.443 81.1284 180.694 81.1284C179.945 81.1284 179.338 81.7363 179.338 82.4862C179.338 83.2361 179.945 83.844 180.694 83.844Z" fill="#CBCBFF"/>
<path d="M242.733 83.844C243.482 83.844 244.089 83.2361 244.089 82.4862C244.089 81.7363 243.482 81.1284 242.733 81.1284C241.984 81.1284 241.377 81.7363 241.377 82.4862C241.377 83.2361 241.984 83.844 242.733 83.844Z" fill="#CBCBFF"/>
<path d="M212.053 129.33C212.802 129.33 213.409 128.722 213.409 127.973C213.409 127.223 212.802 126.615 212.053 126.615C211.304 126.615 210.697 127.223 210.697 127.973C210.697 128.722 211.304 129.33 212.053 129.33Z" fill="#CBCBFF"/>
<path d="M185.268 61.1009C186.017 61.1009 186.624 60.4929 186.624 59.7431C186.624 58.9932 186.017 58.3853 185.268 58.3853C184.519 58.3853 183.912 58.9932 183.912 59.7431C183.912 60.4929 184.519 61.1009 185.268 61.1009Z" fill="#CBCBFF"/>
<path d="M184.964 59.8926L178.786 47.3547H153.797V46.6758H179.209L185.574 59.5939L184.964 59.8926Z" fill="#CBCBFF"/>
<path d="M115.532 47.1914H110.35V57.3667H115.532V47.1914Z" fill="#CBCBFF"/>
<path d="M124.025 42.2222H118.842V57.367H124.025V42.2222Z" fill="#CBCBFF"/>
<path d="M132.519 45.1982H127.336V57.3668H132.519V45.1982Z" fill="#CBCBFF"/>
<path d="M141.009 38.689H135.826V57.3668H141.009V38.689Z" fill="#CBCBFF"/>
<path d="M149.505 30.1865H144.322V57.3669H149.505V30.1865Z" fill="#CBCBFF"/>
<path d="M238.155 59.5745C238.904 59.5745 239.511 58.9666 239.511 58.2167C239.511 57.4668 238.904 56.8589 238.155 56.8589C237.406 56.8589 236.799 57.4668 236.799 58.2167C236.799 58.9666 237.406 59.5745 238.155 59.5745Z" fill="#CBCBFF"/>
<path d="M238.462 58.3608L237.852 58.0703L245.063 42.939H267.988V43.6179H245.489L238.462 58.3608Z" fill="#CBCBFF"/>
<path d="M306.175 53.0981H274.539C272.589 53.0981 271.002 51.5095 271.002 49.557V31.1588C271.002 29.2063 272.589 27.6177 274.539 27.6177H306.175C308.125 27.6177 309.712 29.2063 309.712 31.1588V49.5543C309.712 51.5068 308.125 53.0954 306.175 53.0954V53.0981ZM274.539 28.2966C272.963 28.2966 271.68 29.5811 271.68 31.1588V49.5543C271.68 51.132 272.963 52.4165 274.539 52.4165H306.175C307.751 52.4165 309.034 51.132 309.034 49.5543V31.1588C309.034 29.5811 307.751 28.2966 306.175 28.2966H274.539Z" fill="#CBCBFF"/>
<path d="M303.918 33.0596H276.797V33.7385H303.918V33.0596Z" fill="#CBCBFF"/>
<path d="M296.346 37.6978H276.797V38.3767H296.346V37.6978Z" fill="#CBCBFF"/>
<path d="M300.642 42.3389H276.797V43.0178H300.642V42.3389Z" fill="#CBCBFF"/>
<path d="M303.918 46.9771H276.797V47.6559H303.918V46.9771Z" fill="#CBCBFF"/>
<path d="M237.704 118.865C238.453 118.865 239.06 118.257 239.06 117.507C239.06 116.757 238.453 116.149 237.704 116.149C236.955 116.149 236.348 116.757 236.348 117.507C236.348 118.257 236.955 118.865 237.704 118.865Z" fill="#CBCBFF"/>
<path d="M267.536 132.782H244.608L237.396 117.653L238.009 117.36L245.036 132.103H267.536V132.782Z" fill="#CBCBFF"/>
<path d="M294.845 145.407C292.252 145.407 289.638 144.894 287.145 143.834C277.165 139.587 272.492 128.003 276.726 118.015C280.965 108.024 292.532 103.348 302.512 107.589C307.719 109.8 311.725 114.156 313.499 119.543C314.999 124.084 314.795 129.005 312.927 133.401C311.909 135.807 310.453 137.95 308.601 139.769C304.839 143.457 299.889 145.407 294.845 145.407ZM294.856 106.704C287.463 106.704 280.419 111.052 277.349 118.281C273.262 127.927 277.775 139.109 287.408 143.21C294.495 146.216 302.626 144.676 308.123 139.286C309.911 137.529 311.316 135.46 312.3 133.138C314.104 128.893 314.299 124.141 312.853 119.758C311.139 114.558 307.275 110.351 302.246 108.217C299.835 107.193 297.324 106.707 294.856 106.707V106.704Z" fill="#CBCBFF"/>
<path d="M312.611 133.268C311.586 135.69 310.13 137.79 308.362 139.528L294.988 125.901L313.176 119.649C314.597 123.954 314.523 128.774 312.611 133.268Z" fill="#CBCBFF"/>
<path d="M184.987 118.694C185.736 118.694 186.343 118.086 186.343 117.336C186.343 116.586 185.736 115.978 184.987 115.978C184.238 115.978 183.631 116.586 183.631 117.336C183.631 118.086 184.238 118.694 184.987 118.694Z" fill="#CBCBFF"/>
<path d="M178.082 132.611H155.154V131.932H177.657L184.684 117.192L185.294 117.482L178.082 132.611Z" fill="#CBCBFF"/>
<path d="M148.149 116.317H113.795V95.2715H148.149V116.317ZM114.473 115.638H147.471V95.9504H114.473V115.638Z" fill="#CBCBFF"/>
<path d="M144.394 100.646H117.555V101.324H144.394V100.646Z" fill="#F5F5FF"/>
<path d="M144.394 105.455H117.555V106.133H144.394V105.455Z" fill="#F5F5FF"/>
<path d="M144.394 110.264H117.555V110.943H144.394V110.264Z" fill="#F5F5FF"/>
<path d="M120.516 112.41L118.127 107.79L116.69 112.043L116.047 111.826L117.997 106.063L120.525 110.949L125.821 100.939L129.176 109.507L131.853 103.174L136.982 108.651L142.433 99.2036L143.019 99.5431L137.112 109.784L132.073 104.399L129.154 111.304L125.729 102.563L120.516 112.41Z" fill="#CBCBFF"/>
<path d="M148.149 146.189H113.795V125.143H148.149V146.189ZM114.473 145.51H147.471V125.822H114.473V145.51Z" fill="#CBCBFF"/>
<path d="M144.394 130.517H117.555V131.196H144.394V130.517Z" fill="#F5F5FF"/>
<path d="M144.394 135.326H117.555V136.005H144.394V135.326Z" fill="#F5F5FF"/>
<path d="M144.394 140.136H117.555V140.815H144.394V140.136Z" fill="#F5F5FF"/>
<path d="M137.3 140.858L132.725 137.07L128.296 140.809L125.535 135.522L123.092 140.668L117.174 130.433L117.762 130.093L123.032 139.21L125.505 134.001L128.505 139.745L132.722 136.187L136.961 139.699L140.178 129.768L143.638 140.255L142.996 140.47L140.186 131.948L137.3 140.858Z" fill="#CBCBFF"/>
<path d="M23.0776 182.04C23.0776 182.04 17.29 171.422 63.0566 173.798L88.4825 256.285L45.428 255.606L23.0776 182.04Z" fill="#E0E0FF"/>
<path d="M38.4223 369.685H31.8672L47.4617 257.441H56.0509L38.4223 369.685Z" fill="#E0E0FF"/>
<path d="M114.812 369.685H121.367L105.773 257.441H97.1836L114.812 369.685Z" fill="#E0E0FF"/>
<path d="M114.358 252.665H48.9102V259.454H114.358V252.665Z" fill="#CBCBFF"/>
<path d="M48.9099 252.664L29.4289 180.386C28.9191 178.499 26.8904 177.472 25.0706 178.178C23.5301 178.779 22.6758 180.432 23.0772 182.037L40.7926 252.988C41.7283 256.732 45.0587 259.383 48.9126 259.451V252.662L48.9099 252.664Z" fill="#CBCBFF"/>
<path d="M415.335 369.66H421.462L406.884 257.417H398.854L415.335 369.66Z" fill="#E0E0FF"/>
<path d="M343.92 369.66H337.791L352.371 257.417H360.399L343.92 369.66Z" fill="#E0E0FF"/>
<path d="M334.082 259.429H425.176V252.64H334.082V259.429Z" fill="#CBCBFF"/>
<path d="M425.178 252.637H334.041C343.409 234.853 348.003 210.907 350.151 184.215C350.644 178.097 355.757 173.385 361.886 173.385H397.309C403.46 173.385 408.586 178.127 409.049 184.267C411.116 211.754 415.813 235.638 425.178 252.637Z" fill="#E0E0FF"/>
<path d="M82.2972 117.534C82.2972 117.534 56.5052 132.725 72.0997 142.908L85.8853 148.114L90.4064 126.615C88.9798 121.059 86.7234 117.151 82.2972 117.534Z" fill="#1B1B43"/>
<path d="M81.6566 119.274C80.3412 119.747 79.0503 120.312 77.7946 120.931C76.5362 121.545 75.3022 122.213 74.1197 122.957C71.7629 124.442 69.5281 126.185 67.8602 128.393C67.0276 129.49 66.3278 130.691 65.8776 131.986C65.4084 133.276 65.262 134.664 65.3325 136.03C65.4057 137.398 65.7122 138.767 66.2465 140.049C66.4662 140.711 66.8025 141.322 67.1035 141.952C67.4208 142.574 67.8114 143.158 68.1639 143.764L67.947 143.916C66.3089 141.629 64.9501 138.979 64.7413 136.068C64.6247 134.628 64.7874 133.148 65.2647 131.777C65.7312 130.403 66.4445 129.121 67.3232 127.983C69.0915 125.705 71.3778 123.91 73.8187 122.465C76.265 121.015 78.8659 119.861 81.5752 119.019L81.6539 119.272L81.6566 119.274Z" fill="#1B1B43"/>
<path d="M174.127 353.033C172.535 351.673 170.973 350.307 169.484 348.829C168.209 347.564 166.97 346.26 165.758 344.93C165.375 344.509 164.491 343.841 164.296 343.29L150.139 348.055L155.083 369.661L157.806 369.682L158.055 359.567C162.395 361.709 166.929 363.703 171.713 364.591C174.659 365.137 178.507 365.37 181.314 364.159C188.338 361.128 176.009 354.641 174.13 353.036L174.127 353.033Z" fill="#1B1B43"/>
<path d="M161.213 334.488L148.162 339.412L150.139 348.055L164.296 343.292L161.213 334.488Z" fill="#FFBC96"/>
<path d="M104.417 211.138L137.051 221.94C142.446 223.727 146.975 227.472 149.747 232.436C151.154 234.959 152.071 237.729 152.442 240.596L165.1 338.092L145.437 341.486L118.655 242.367L82.3809 225.734L88.8221 207.743L104.417 211.138Z" fill="#393A8F"/>
<path d="M95.4855 364.192C90.5278 362.185 86.7281 348.876 86.7281 348.876L72.3079 344.87L64.0469 365.142L66.2627 366.725L72.2754 358.592L86.9397 369.683H98.5447C98.5447 369.683 100.443 366.196 95.4855 364.189V364.192Z" fill="#1B1B43"/>
<path d="M89.2619 339.895L75.7584 336.408L72.3086 344.867L86.7288 348.873L89.2619 339.895Z" fill="#FFBC96"/>
<path d="M123.935 253.683L92.4339 342.958L88.7047 341.845L75.1849 337.812L73.4492 337.296L90.3998 253.343C71.1927 258.096 60.5532 252.909 56.7292 244.287C55.6497 241.856 55.1616 239.04 55.0666 236.094C54.7005 224.208 60.7973 210.119 60.7973 210.119L78.9873 211.477L112.446 226.684C115.763 228.191 118.584 230.473 120.726 233.283C122.869 236.094 124.32 239.426 124.898 243.024C125.473 246.603 125.142 250.269 123.935 253.683Z" fill="#5254CF"/>
<path opacity="0.6" d="M90.3996 253.344C71.1925 258.096 60.553 252.909 56.7289 244.287C55.6495 241.857 55.1613 239.041 55.0664 236.094C65.0605 253.699 90.3996 253.344 90.3996 253.344Z" fill="#393A8F"/>
<path d="M78.122 137.441L57.6321 184.829L63.0563 193.486C63.0563 193.486 57.5453 205.988 54.4102 214.7C54.4102 214.7 90.6275 224.941 121.817 217.133L116.617 190.431L114.415 149.529L101.416 137.743L78.1193 137.444L78.122 137.441Z" fill="#FFB147"/>
<path d="M109.387 198.124L106.393 198.521L100.383 175.259L102.748 174.591L109.387 198.124Z" fill="#1B1B43"/>
<path d="M142.191 187.169C136.948 186.384 132.216 184.66 132.216 184.66L124.418 153.607C122.94 147.72 118.552 143.008 112.789 141.129L102.809 138.286C102.32 138.15 101.859 137.965 101.42 137.743L110.603 199.683C110.603 199.683 126.339 201.263 137.64 201.551C137.371 196.144 139.419 189.926 142.191 187.172V187.169Z" fill="#FFB147"/>
<path d="M159.112 186.132C153.604 185.453 149.506 187.376 149.506 187.376C147.252 187.702 144.665 187.539 142.192 187.169C140.098 190.262 136.268 196.565 136.537 201.972C138.899 202.032 144.971 201.82 146.452 201.717C155.012 201.122 162.893 192.296 162.893 192.296C162.893 192.296 169.163 198.491 169.673 195.607C170.183 192.723 164.615 186.808 159.107 186.129L159.112 186.132Z" fill="#FFBC96"/>
<path d="M131.485 197.853H94.4707V200.967H131.485V197.853Z" fill="white"/>
<path d="M82.3795 200.786C82.3795 200.786 98.229 202.991 101.448 200.023C101.448 200.023 105.261 200.107 106.194 197.902C106.194 197.902 107.635 196.967 108.313 195.102C108.313 195.102 109.669 192.897 109.246 191.452L103.905 188.736C103.905 188.736 103.884 188.552 103.835 188.278C103.621 187.066 102.582 186.176 101.353 186.159L92.1214 186.037C91.2806 186.026 90.448 186.17 89.6588 186.466L80.1719 190.01L82.3741 200.788L82.3795 200.786Z" fill="#FFBC96"/>
<path d="M70.5149 162.425L61.0226 183.639L90.8556 186.015C82.0413 190.257 82.3803 200.783 82.3803 200.783L55.3217 201.489C51.8286 201.576 48.4656 200.177 46.0681 197.638C43.8767 195.316 42.7051 192.275 42.7051 189.179C42.7051 187.884 42.9085 186.58 43.3289 185.315L54.4295 151.744C56.2194 146.34 60.6185 142.213 66.124 140.787L76.9588 137.985C77.3656 137.816 77.7589 137.631 78.125 137.441L70.5176 162.425H70.5149Z" fill="#FFB147"/>
<path d="M108.251 195.213C106.954 194.67 105.712 194.026 104.486 193.355C103.263 192.677 102.059 191.968 100.92 191.14L101.047 190.909C102.352 191.438 103.591 192.087 104.812 192.766C106.03 193.456 107.231 194.167 108.378 194.982L108.251 195.213Z" fill="#D28572"/>
<path d="M106.146 198.021C104.931 197.698 103.756 197.269 102.596 196.81C101.437 196.345 100.293 195.843 99.1973 195.218L99.2949 194.971C100.515 195.281 101.69 195.713 102.845 196.182C104 196.66 105.142 197.163 106.243 197.774L106.146 198.021Z" fill="#D28572"/>
<path d="M101.392 200.139C100.76 200.001 100.177 199.762 99.6075 199.496C99.0407 199.221 98.4928 198.912 98.002 198.483L98.1186 198.244C98.7586 198.366 99.339 198.61 99.9031 198.887C100.465 199.172 101.01 199.485 101.509 199.9L101.392 200.139Z" fill="#D28572"/>
<path d="M59.8918 201.519C59.7074 201.519 59.5555 201.372 59.5528 201.185C59.5501 200.997 59.6992 200.843 59.8864 200.84L82.036 200.449C82.0008 191.949 87.3165 187.734 89.6272 186.303L89.6434 185.893L89.6109 186.23L63.4148 183.596L70.073 158.77C70.1218 158.588 70.3089 158.482 70.4879 158.531C70.6696 158.58 70.7754 158.764 70.7266 158.946L64.2745 183.001L89.676 185.554C89.9879 185.584 90.2347 185.801 90.3025 186.105C90.373 186.409 90.2455 186.713 89.9797 186.879C87.7368 188.264 82.5405 192.394 82.7141 200.772L82.7222 201.111L59.8945 201.513H59.8891L59.8918 201.519Z" fill="#1B1B43"/>
<path d="M118.484 197.899C118.31 197.899 118.161 197.765 118.147 197.586L114.757 157.702C114.741 157.515 114.879 157.352 115.066 157.336C115.256 157.317 115.416 157.458 115.432 157.645L118.823 197.532C118.839 197.719 118.701 197.882 118.513 197.899C118.503 197.899 118.494 197.899 118.484 197.899Z" fill="#1B1B43"/>
<path d="M137.64 202.822C137.48 202.822 137.336 202.708 137.306 202.542C135.985 195.319 141.673 187.308 141.917 186.971C142.025 186.819 142.237 186.784 142.389 186.895C142.54 187.004 142.576 187.216 142.465 187.368C142.408 187.449 136.704 195.485 137.971 202.42C138.003 202.605 137.884 202.781 137.699 202.817C137.678 202.819 137.659 202.822 137.637 202.822H137.64Z" fill="#1B1B43"/>
<path d="M95.4335 156.823C96.4625 156.823 97.2967 155.987 97.2967 154.957C97.2967 153.927 96.4625 153.091 95.4335 153.091C94.4045 153.091 93.5703 153.927 93.5703 154.957C93.5703 155.987 94.4045 156.823 95.4335 156.823Z" fill="#1B1B43"/>
<path d="M101.419 137.743C100.605 142.677 97.2747 149.195 92.0946 146.642C88.2841 144.768 81.9649 139.859 78.1191 137.442C88.6366 131.935 83.4511 117.55 83.3101 117.107L96.1627 121.86C96.1627 121.86 96.1627 121.941 96.1708 122.082C96.198 123.101 96.3607 127.364 97.1065 131.22C97.2014 131.704 97.3045 132.171 97.413 132.632C97.9554 134.865 99.4281 136.719 101.419 137.738V137.743Z" fill="#FFBC96"/>
<path d="M97.1065 131.223C89.5533 129.477 87.7227 121.659 87.7227 121.441L96.1708 122.085C96.1979 123.103 96.3607 127.367 97.1065 131.223Z" fill="#D28572"/>
<path d="M102.636 109.134C102.636 109.134 103.992 124.493 96.9565 125.767C90.0434 127.019 82.2949 117.536 82.2949 117.536L83.4828 103.363L91.3642 98.1875C96.9592 100.458 100.604 103.627 102.636 109.134Z" fill="#FFBC96"/>
<path d="M82.6354 114.479C86.3645 113.205 87.7205 109.981 88.6535 105.569C90.0882 98.7824 99.8409 104.211 102.637 109.132C102.637 109.132 104.161 95.3852 90.0936 95.6377C90.0936 95.6377 73.737 96.2324 78.6513 113.544L82.6354 114.479Z" fill="#1B1B43"/>
<path d="M84.4574 119.492C86.1427 118.349 86.2963 115.63 84.8003 113.418C83.3043 111.206 80.7253 110.34 79.0399 111.483C77.3546 112.626 77.201 115.346 78.697 117.557C80.193 119.769 82.772 120.635 84.4574 119.492Z" fill="#FFBC96"/>
<path d="M99.9512 112.415C99.9512 112.914 100.355 113.319 100.854 113.319C101.353 113.319 101.757 112.914 101.757 112.415C101.757 111.915 101.353 111.51 100.854 111.51C100.355 111.51 99.9512 111.915 99.9512 112.415Z" fill="#1B1B43"/>
<path d="M92.8457 112.602C92.8457 113.102 93.2498 113.506 93.7488 113.506C94.2479 113.506 94.652 113.102 94.652 112.602C94.652 112.102 94.2479 111.698 93.7488 111.698C93.2498 111.698 92.8457 112.102 92.8457 112.602Z" fill="#1B1B43"/>
<path d="M97.7337 118.196C97.5574 118.196 97.411 118.06 97.3974 117.884C97.3838 117.696 97.5222 117.534 97.7093 117.52C97.9778 117.498 98.767 117.376 99.1874 117.069C99.3393 116.958 99.4044 116.83 99.4016 116.651C99.3881 116.092 98.6884 115.209 97.7744 114.601C97.6198 114.497 97.5764 114.286 97.6795 114.131C97.7825 113.973 97.9941 113.933 98.1487 114.036C99.0952 114.666 100.058 115.714 100.08 116.637C100.088 117.039 99.9197 117.379 99.5888 117.62C98.9243 118.106 97.8096 118.196 97.7608 118.199C97.7527 118.199 97.7445 118.199 97.7337 118.199V118.196Z" fill="#D28572"/>
<path d="M102.488 110.429C102.203 110.356 101.915 110.283 101.65 110.25C101.381 110.22 101.126 110.207 100.871 110.237C100.616 110.269 100.359 110.31 100.09 110.389C99.8189 110.459 99.5422 110.56 99.2141 110.639H99.1978C99.0839 110.668 98.97 110.598 98.9429 110.484C98.9293 110.427 98.9429 110.37 98.9673 110.326C99.1517 110.022 99.4094 109.761 99.724 109.574C100.033 109.376 100.407 109.264 100.787 109.229C101.169 109.202 101.563 109.267 101.904 109.425C102.252 109.582 102.545 109.805 102.753 110.139C102.813 110.234 102.783 110.362 102.688 110.421C102.639 110.451 102.583 110.459 102.528 110.446L102.485 110.435L102.488 110.429Z" fill="#1B1B43"/>
<path d="M91.4354 110.402C91.6904 110.063 92.0131 109.824 92.3847 109.639C92.7535 109.454 93.1766 109.351 93.6132 109.349C94.0499 109.34 94.4974 109.46 94.8662 109.691C95.2459 109.905 95.5253 110.242 95.7097 110.6C95.7612 110.701 95.7232 110.826 95.6202 110.88C95.5632 110.91 95.5008 110.91 95.4466 110.888L95.4222 110.877C95.0723 110.733 94.7876 110.579 94.4865 110.5C94.1936 110.408 93.9061 110.359 93.6051 110.361C93.0084 110.345 92.363 110.519 91.6741 110.717L91.6497 110.725C91.5412 110.758 91.4273 110.693 91.3947 110.584C91.3758 110.519 91.392 110.454 91.4273 110.405L91.4354 110.402Z" fill="#1B1B43"/>
<path opacity="0.4" d="M91.0423 118.611C92.2436 118.611 93.2174 117.644 93.2174 116.45C93.2174 115.256 92.2436 114.288 91.0423 114.288C89.841 114.288 88.8672 115.256 88.8672 116.45C88.8672 117.644 89.841 118.611 91.0423 118.611Z" fill="#FE5B52"/>
<path d="M96.6068 120.868C95.267 120.868 94.5185 120.197 94.4805 120.159C94.3422 120.032 94.3341 119.817 94.4615 119.679C94.589 119.54 94.8005 119.532 94.9389 119.657C94.985 119.698 95.964 120.551 97.7486 120.007C97.9276 119.953 98.1174 120.054 98.1717 120.233C98.2259 120.412 98.1256 120.602 97.9466 120.656C97.453 120.806 97.0055 120.866 96.6095 120.866L96.6068 120.868Z" fill="#1B1B43"/>
<path d="M83.9059 116.77C83.7757 116.77 83.651 116.694 83.594 116.567C83.5371 116.436 82.1702 113.379 79.9381 114.31C79.7673 114.381 79.5666 114.302 79.4933 114.128C79.4201 113.954 79.5042 113.756 79.675 113.683C81.9505 112.732 83.6401 114.975 84.2124 116.292C84.2856 116.464 84.2097 116.664 84.0361 116.738C83.9927 116.757 83.9466 116.765 83.9005 116.765L83.9059 116.77Z" fill="#1B1B43"/>
<path d="M94.3677 147.557C93.5812 147.557 92.7729 147.353 91.9485 146.946C89.532 145.759 86.2097 143.427 82.9931 141.17C81.1272 139.861 79.3671 138.626 77.9432 137.729C77.7859 137.629 77.7371 137.42 77.8375 137.262C77.9378 137.105 78.1466 137.056 78.3039 137.156C79.7413 138.061 81.5096 139.302 83.3837 140.616C86.5785 142.856 89.8791 145.176 92.2495 146.341C93.6435 147.028 94.9752 147.055 96.2065 146.422C98.8046 145.083 100.532 141.072 101.088 137.691C101.118 137.507 101.289 137.376 101.479 137.412C101.663 137.442 101.788 137.618 101.758 137.803C101.172 141.352 99.3254 145.58 96.5156 147.028C95.8241 147.383 95.1081 147.563 94.3704 147.563L94.3677 147.557Z" fill="#1B1B43"/>
<path d="M344.603 222C344.21 226.027 343.757 230.125 343.253 234.288C339.144 268.727 331.645 307.528 322.907 347.936C310.192 353.652 303.412 351.162 303.412 351.162C312.565 305.336 316.295 225.226 316.295 225.226L344.603 222Z" fill="#FFBC96"/>
<path d="M303.416 351.159C303.416 351.159 284.431 362.19 284.77 369.489H310.025L315.617 365.247L316.974 369.66H324.432C324.432 369.66 326.127 362.871 322.908 347.936C310.193 353.649 303.413 351.162 303.413 351.162L303.416 351.159Z" fill="#1B1B43"/>
<path d="M344.604 222C344.21 226.027 343.758 230.125 343.253 234.288C328.581 233.278 316.295 225.226 316.295 225.226L344.604 222Z" fill="#D28572"/>
<path d="M390.428 347.936L379.694 356.083L372.276 351.162C372.276 351.162 361.17 260.29 353.069 229.183C352.432 226.733 351.816 224.656 351.217 223.019L377.321 227.092C377.966 230.038 378.582 232.985 379.16 235.937C386.501 273.005 389.194 310.42 390.428 347.936Z" fill="#FFBC96"/>
<path d="M372.28 351.159C372.28 351.159 354.608 362.19 354.922 369.489H378.433L383.64 365.247L384.902 369.66H391.845C391.845 369.66 393.423 362.871 390.423 347.936C378.588 353.649 372.277 351.162 372.277 351.162L372.28 351.159Z" fill="#1B1B43"/>
<path d="M379.16 235.936C366.291 235.76 353.251 229.297 353.251 229.297L353.069 229.18C352.432 226.731 351.816 224.653 351.217 223.016L377.321 227.089C377.966 230.035 378.582 232.982 379.16 235.934V235.936Z" fill="#D28572"/>
<path d="M312.816 278.172C315.696 278.626 318.579 279.076 321.46 279.53C321.885 279.598 322.07 278.943 321.639 278.875C318.758 278.422 315.875 277.971 312.995 277.518C312.569 277.45 312.385 278.104 312.816 278.172Z" fill="#D28572"/>
<path d="M363.759 282.791C366.414 282.848 369.069 282.905 371.725 282.96C372.161 282.968 372.161 282.289 371.725 282.281C369.069 282.224 366.414 282.167 363.759 282.112C363.322 282.104 363.322 282.783 363.759 282.791Z" fill="#D28572"/>
<path d="M276.465 98.6087C276.465 98.6087 278.613 87.9147 295.167 83.8413L286.974 98.9455L276.465 98.606V98.6087Z" fill="#1B1B43"/>
<path d="M288.43 74.0274C288.175 76.0505 287.47 78.2691 286.345 78.2691C285.219 78.2691 284.861 76.4443 284.953 73.9405C285.105 69.8101 285.775 69.104 286.901 69.104C288.026 69.104 288.94 69.9947 288.43 74.0274Z" fill="#FFBC96"/>
<path d="M276.527 64.099L278.819 66.7304L302.167 76.1508C302.992 76.4848 303.93 76.0829 304.264 75.2574C304.598 74.4318 304.196 73.4922 303.372 73.1582L280.023 63.7378L276.527 64.0962V64.099Z" fill="#1B1B43"/>
<path d="M295.164 83.844L291.774 91.6514L282.173 97.0282C281.183 94.5027 280.478 92.0098 279.976 89.7233C278.601 83.4991 278.723 78.7523 278.723 78.7523L288.275 74.9016L288.501 69.9266C289.01 63.0561 291.782 65.8125 292.487 70.687C293.789 79.7652 295.167 83.844 295.167 83.844H295.164Z" fill="#FFBC96"/>
<path d="M295.164 83.8442L291.774 91.6516L282.173 97.0285C281.183 94.503 280.478 92.01 279.977 89.7235L295.164 83.8442Z" fill="#D28572"/>
<path d="M285.441 74.9341C285.148 76.9572 284.348 79.1759 283.063 79.1759C281.777 79.1759 281.373 77.351 281.479 74.8472C281.653 70.7168 282.415 70.0107 283.697 70.0107C284.98 70.0107 286.022 70.9015 285.441 74.9314V74.9341Z" fill="#FFBC96"/>
<path d="M282.385 76.8838C282.065 78.9069 281.183 81.1256 279.776 81.1256C278.368 81.1256 277.921 79.3007 278.035 76.7969C278.227 72.6665 279.06 71.9604 280.47 71.9604C281.88 71.9604 283.022 72.8512 282.385 76.8811V76.8838Z" fill="#FFBC96"/>
<path d="M285.441 79.3821C284.983 79.336 284.467 78.7956 284.231 76.8159C284.21 76.6312 284.313 76.4547 284.459 76.4194C284.608 76.3841 284.744 76.5036 284.766 76.6882C284.923 78.0298 285.238 78.7738 285.593 78.7005C286.431 78.5158 287.727 75.0861 287.48 72.3487C287.464 72.1641 287.57 71.9903 287.719 71.9604C287.868 71.9305 288.001 72.0582 288.017 72.2428C288.275 75.0888 286.954 79.0861 285.663 79.3685C285.593 79.3848 285.517 79.3903 285.441 79.3821Z" fill="#D28572"/>
<path d="M282.275 80.3434C282.117 80.3271 281.74 80.2457 281.418 79.8248C280.832 79.0617 280.748 77.6278 281.174 75.5613C281.212 75.3766 281.38 75.2571 281.551 75.2979C281.721 75.3359 281.83 75.5151 281.792 75.6998C281.301 78.0976 281.645 79.0291 281.895 79.3685C282.107 79.6591 282.348 79.6672 282.359 79.6672C282.752 79.6672 283.08 79.5152 283.357 79.1975C284.556 77.8397 284.377 74.1845 284.374 74.1464C284.363 73.9591 284.499 73.7961 284.672 73.7853C284.846 73.7744 284.995 73.9129 285.006 74.1003C285.014 74.2632 285.201 78.0895 283.815 79.6618C283.414 80.118 282.92 80.3461 282.351 80.3461C282.342 80.3461 282.315 80.3461 282.277 80.3434H282.275Z" fill="#D28572"/>
<path d="M278.751 80.77C278.702 80.7645 278.653 80.7591 278.604 80.751C278.311 80.7048 278.062 80.5337 277.88 80.2567C277.167 79.1678 277.62 76.5744 277.674 76.2811C277.707 76.0964 277.888 75.9797 278.046 76.0095C278.216 76.0448 278.328 76.2214 278.295 76.4033C278.162 77.1202 277.926 79.1352 278.401 79.8602C278.485 79.9906 278.583 80.0585 278.707 80.0775C279.673 80.2296 280.356 79.5941 280.942 78.0136C281.007 77.8398 281.192 77.7502 281.354 77.8181C281.517 77.886 281.596 78.0815 281.531 78.2553C281.281 78.9288 280.538 80.9411 278.751 80.7645V80.77Z" fill="#D28572"/>
<path d="M382.067 114.395L359.182 91.312L342.4 91.6515L324.514 155.962L382.775 158.816C383.502 142.153 383.428 127.15 382.064 114.395H382.067Z" fill="white"/>
<path d="M324.516 155.962L320.028 172.101C320.028 192.468 316.299 225.055 316.299 225.055C339.691 233.542 377.321 227.092 377.321 227.092C379.756 202.519 381.88 179.401 382.778 158.816L324.516 155.962Z" fill="#FFB147"/>
<path d="M351.472 104.108C348.592 104.108 345.747 103.264 342.959 101.574C342.766 101.458 342.565 101.335 342.506 101.316C342.319 101.316 342.199 101.17 342.199 100.982C342.199 100.795 342.384 100.648 342.571 100.648C342.733 100.648 342.88 100.735 343.308 100.996C348.809 104.328 354.547 104.23 360.362 100.697C360.522 100.602 360.731 100.651 360.829 100.811C360.926 100.972 360.875 101.181 360.715 101.278C357.607 103.166 354.518 104.111 351.469 104.111L351.472 104.108Z" fill="#1B1B43"/>
<path d="M350.327 229.685C329.251 229.685 316.366 225.435 316.189 225.376C316.013 225.316 315.915 225.123 315.978 224.946C316.038 224.77 316.233 224.675 316.406 224.735C316.648 224.816 340.832 232.781 377.266 226.758C377.447 226.725 377.626 226.853 377.656 227.037C377.686 227.222 377.561 227.396 377.377 227.429C367.361 229.085 358.265 229.688 350.329 229.688L350.327 229.685Z" fill="#1B1B43"/>
<path d="M342.402 91.6516L333.146 91.7303C330.61 91.7521 328.112 92.3495 325.842 93.4765L302.399 105.115L295.165 83.8442L276.463 98.6117L287.691 121.901C289.551 125.759 293.338 128.32 297.609 128.605C299.743 128.747 301.878 128.309 303.787 127.34L321.551 118.3C321.551 118.3 322.739 157.507 314.093 180.419C314.093 180.419 332.061 185.85 344.604 180.251C344.604 180.251 353.08 115.755 342.402 91.6543V91.6516Z" fill="#5254CF"/>
<path d="M407.039 165.312C404.666 142.227 396.953 119.017 393.245 108.855C391.995 105.428 389.85 102.397 387.043 100.067C384.588 98.0304 381.694 96.5911 378.589 95.8634L359.184 91.312C356.521 117.985 359.615 149.097 363.42 180.758C363.42 180.758 392.575 179.401 401.899 173.63L407.042 165.315L407.039 165.312Z" fill="#5254CF"/>
<path d="M386.248 135.78C386.085 135.78 385.939 135.661 385.914 135.492L382.299 112.41C382.269 112.225 382.397 112.051 382.581 112.021C382.763 111.994 382.939 112.119 382.969 112.304L386.584 135.386C386.614 135.571 386.487 135.745 386.302 135.775C386.283 135.775 386.267 135.777 386.248 135.777V135.78Z" fill="#1B1B43"/>
<path d="M397.789 173.04L370.445 163.699L382.354 129.341L409.7 138.685L397.789 173.04Z" fill="white"/>
<path d="M397.998 173.472L370.012 163.908L370.123 163.585L382.143 128.909L410.129 138.471L410.018 138.794L397.998 173.469V173.472ZM370.877 163.487L397.577 172.611L409.267 138.897L382.566 129.773L370.877 163.487Z" fill="#1B1B43"/>
<path d="M401.166 146.077C401.13 146.077 401.095 146.072 401.06 146.061L386.932 141.423C386.756 141.366 386.659 141.173 386.715 140.994C386.772 140.814 386.965 140.717 387.144 140.776L401.271 145.415C401.448 145.472 401.545 145.664 401.488 145.844C401.442 145.988 401.309 146.077 401.166 146.077Z" fill="#1B1B43"/>
<path d="M396.927 149.358C396.894 149.358 396.859 149.352 396.823 149.341L387.556 146.4C387.377 146.343 387.28 146.153 387.337 145.974C387.393 145.795 387.581 145.694 387.762 145.754L397.03 148.695C397.209 148.752 397.306 148.942 397.249 149.121C397.203 149.265 397.07 149.358 396.927 149.358Z" fill="#1B1B43"/>
<path d="M402.112 133.383L393.881 130.56L392.322 135.115L400.553 137.938L402.112 133.383Z" fill="#1B1B43"/>
<path d="M313.586 122.541C313.466 122.541 313.353 122.479 313.29 122.367C313.201 122.205 313.258 121.998 313.423 121.906L329.018 113.249C329.18 113.156 329.386 113.216 329.479 113.382C329.568 113.545 329.511 113.751 329.346 113.843L313.751 122.501C313.7 122.53 313.643 122.544 313.586 122.544V122.541Z" fill="#1B1B43"/>
<path d="M408.055 172.894C408.055 172.894 412.124 162.371 397.66 154.45C397.66 154.45 394.156 153.092 396.757 158.409C396.757 158.409 391.219 152.073 392.575 159.427C392.575 159.427 388.168 155.014 390.427 163.387C390.427 163.387 386.02 161.01 388.732 170.969C391.444 180.927 402.292 184.886 408.055 172.891V172.894Z" fill="#FFBC96"/>
<path d="M401.841 164.973C401.732 164.973 401.624 164.918 401.559 164.821C399.785 162.159 396.541 158.675 396.509 158.64C396.381 158.504 396.389 158.287 396.525 158.159C396.663 158.032 396.878 158.04 397.005 158.175C397.038 158.211 400.322 161.736 402.125 164.443C402.228 164.598 402.188 164.81 402.031 164.913C401.974 164.951 401.908 164.97 401.843 164.97L401.841 164.973Z" fill="#D28572"/>
<path d="M396.755 166.331C396.619 166.331 396.492 166.249 396.44 166.113C395.125 162.711 392.464 159.8 392.44 159.772C392.313 159.634 392.321 159.419 392.459 159.292C392.597 159.164 392.812 159.175 392.939 159.311C393.053 159.433 395.711 162.341 397.075 165.869C397.143 166.043 397.056 166.241 396.882 166.309C396.842 166.325 396.801 166.331 396.76 166.331H396.755Z" fill="#D28572"/>
<path d="M392.46 168.481C392.281 168.481 392.132 168.343 392.121 168.164C392.015 166.464 390.16 163.604 390.141 163.577C390.038 163.42 390.084 163.21 390.239 163.107C390.393 163.004 390.605 163.047 390.708 163.205C390.789 163.327 392.68 166.244 392.796 168.123C392.807 168.31 392.666 168.471 392.479 168.484C392.471 168.484 392.465 168.484 392.457 168.484L392.46 168.481Z" fill="#D28572"/>
<path d="M366.246 137.591C366.075 137.591 365.929 137.463 365.91 137.29C365.698 135.353 365.443 133.295 365.186 131.185C364.293 123.91 363.368 116.388 363.648 110.87L363.664 110.78L366.441 102.329L361.21 93.6364C361.115 93.4762 361.166 93.2671 361.326 93.1693C361.486 93.0743 361.692 93.1231 361.793 93.2861L367.184 102.245L364.326 110.948C364.057 116.404 364.974 123.875 365.861 131.101C366.121 133.213 366.373 135.275 366.588 137.214C366.609 137.401 366.474 137.567 366.287 137.588C366.273 137.588 366.262 137.588 366.249 137.588L366.246 137.591Z" fill="#1B1B43"/>
<path d="M340.482 137.931C340.458 137.931 340.434 137.931 340.409 137.923C340.228 137.882 340.111 137.703 340.152 137.518C342.05 128.852 342.373 120.046 341.066 112.708L335.688 104.116L340.971 93.4221C341.055 93.2537 341.258 93.1858 341.424 93.2673C341.592 93.3515 341.66 93.5552 341.578 93.7208L336.466 104.073L341.722 112.518C343.059 119.953 342.739 128.88 340.816 137.656C340.781 137.814 340.643 137.923 340.485 137.923L340.482 137.931Z" fill="#1B1B43"/>
<path d="M359.185 91.3122C356.134 97.4223 348.336 100.138 342.402 91.6516C342.831 90.0087 343.338 88.3169 343.832 86.587C344.767 83.2821 345.635 79.8198 345.711 76.1944C345.725 75.5644 345.717 74.9235 345.679 74.2881L358.336 75.4775L359.182 91.3149L359.185 91.3122Z" fill="#FFBC96"/>
<path d="M355.51 77.5633C355.51 77.5633 352.58 84.1079 343.834 86.5845C344.77 83.2796 345.638 79.8172 345.713 76.1919L355.51 77.5633Z" fill="#D28572"/>
<path d="M362.064 62.342L357.771 76.5989C357.771 76.5989 350.538 83.301 343.419 79.8848C341.493 78.9533 340.734 76.1916 340.576 72.9519C340.53 72.0557 340.53 71.1188 340.571 70.1765C340.78 64.5743 342.176 58.7221 342.176 58.7221L352.794 53.4077L362.062 62.342H362.064Z" fill="#FFBC96"/>
<path d="M361.047 70.8311C361.047 70.8311 350.313 64.3815 349.296 58.046C349.296 58.046 347.007 58.5837 341.811 60.5064C341.811 60.5064 342.573 51.0452 352.998 49.9834C362.718 48.995 374.383 56.8566 376.984 77.9025L358.902 87.5754L357.999 71.7354L361.05 70.8311H361.047Z" fill="#1B1B43"/>
<path d="M361.358 72.4198C360.244 75.0023 357.786 76.4226 355.866 75.5916C353.946 74.7606 353.292 71.9961 354.407 69.4136C355.522 66.8311 357.979 65.4108 359.899 66.2418C361.819 67.0728 362.473 69.8372 361.358 72.4198Z" fill="#FFBC96"/>
<path d="M356.379 71.6324C356.319 71.6324 356.257 71.6161 356.202 71.5835C356.042 71.4857 355.991 71.2766 356.089 71.1164C356.105 71.0893 357.781 68.3927 360.412 69.1395C360.591 69.1911 360.696 69.3784 360.645 69.5577C360.593 69.7369 360.409 69.8428 360.227 69.7912C358.087 69.1829 356.682 71.445 356.669 71.4667C356.607 71.5726 356.493 71.6297 356.379 71.6297V71.6324Z" fill="#1B1B43"/>
<path d="M343.361 67.5234C343.361 68.0231 342.957 68.4277 342.458 68.4277C341.959 68.4277 341.555 68.0231 341.555 67.5234C341.555 67.0238 341.959 66.6191 342.458 66.6191C342.957 66.6191 343.361 67.0238 343.361 67.5234Z" fill="#1B1B43"/>
<path d="M349.859 67.665C349.859 68.1647 349.455 68.5693 348.956 68.5693C348.457 68.5693 348.053 68.1647 348.053 67.665C348.053 67.1654 348.457 66.7607 348.956 66.7607C349.455 66.7607 349.859 67.1654 349.859 67.665Z" fill="#1B1B43"/>
<path d="M345.426 73.3782C345.426 73.3782 345.407 73.3782 345.396 73.3782C345.347 73.3755 344.224 73.2696 343.557 72.7184C343.237 72.4522 343.072 72.0829 343.083 71.6511C343.107 70.6355 344.091 69.4379 344.997 68.7536C345.146 68.6422 345.358 68.6694 345.472 68.8215C345.586 68.9708 345.556 69.1827 345.404 69.2967C344.482 69.9919 343.774 71.0103 343.761 71.6674C343.755 71.8955 343.828 72.0639 343.991 72.197C344.493 72.6152 345.447 72.7021 345.458 72.7048C345.645 72.7211 345.781 72.8867 345.768 73.0714C345.751 73.2479 345.605 73.381 345.431 73.381L345.426 73.3782Z" fill="#D28572"/>
<path d="M345.171 76.1782C345 76.1782 344.853 76.0506 344.834 75.8768C344.813 75.6921 344.946 75.5238 345.133 75.502C345.152 75.502 347.05 75.2658 348.241 73.8129C348.36 73.669 348.574 73.6473 348.718 73.7668C348.862 73.8863 348.884 74.1008 348.764 74.2447C347.392 75.9175 345.293 76.1674 345.206 76.1782C345.192 76.1782 345.179 76.1782 345.168 76.1782H345.171Z" fill="#1B1B43"/>
<path d="M340.913 65.028C341.122 64.694 341.415 64.4686 341.762 64.3138C342.104 64.1563 342.497 64.0911 342.879 64.1183C343.259 64.1536 343.633 64.2677 343.942 64.4632C344.257 64.6506 344.515 64.9112 344.699 65.2154C344.759 65.3159 344.729 65.4462 344.629 65.506C344.58 65.5358 344.523 65.544 344.471 65.5304H344.455C344.127 65.4489 343.85 65.3485 343.579 65.2779C343.311 65.2018 343.053 65.1584 342.798 65.1258C342.543 65.0959 342.288 65.1122 342.02 65.1394C341.754 65.1692 341.466 65.2453 341.182 65.3186L341.138 65.3295C341.03 65.3566 340.918 65.2914 340.889 65.1828C340.875 65.1258 340.886 65.0688 340.913 65.0226V65.028Z" fill="#1B1B43"/>
<path d="M351.304 65.7151C350.637 65.4571 350.008 65.229 349.414 65.1937C349.116 65.1665 348.826 65.191 348.525 65.2561C348.218 65.3077 347.92 65.4381 347.559 65.5494L347.535 65.5576C347.426 65.5929 347.31 65.5304 347.277 65.4218C347.258 65.3621 347.269 65.2996 347.299 65.2507C347.516 64.9085 347.819 64.5963 348.218 64.417C348.603 64.2188 349.062 64.1373 349.496 64.1835C349.929 64.2269 350.344 64.3654 350.694 64.58C351.047 64.7972 351.351 65.0633 351.576 65.4245C351.635 65.5196 351.606 65.6472 351.511 65.7069C351.454 65.7422 351.386 65.7477 351.329 65.7259L351.304 65.7178V65.7151Z" fill="#1B1B43"/>
<path opacity="0.4" d="M353.036 70.9995C353.036 71.7653 352.409 72.3872 351.639 72.3872C350.869 72.3872 350.242 71.7653 350.242 70.9995C350.242 70.2337 350.869 69.6118 351.639 69.6118C352.409 69.6118 353.036 70.2337 353.036 70.9995Z" fill="#FE5B52"/>
<path opacity="0.4" d="M341.959 71.5617C341.959 72.3221 341.344 72.9467 340.576 72.9521C340.53 72.056 340.53 71.1191 340.571 70.1768C341.344 70.1822 341.959 70.7932 341.959 71.5617Z" fill="#FE5B52"/>
<path d="M349.27 55.9743C349.303 57.2234 349.401 58.4781 349.588 59.7082C349.791 60.933 350.035 62.1604 350.51 63.2901C350.957 64.4171 351.6 65.4924 352.568 66.1795C353.517 66.8991 354.765 67.1137 355.996 67.024H355.999C356.072 67.0186 356.135 67.0729 356.14 67.1462C356.145 67.2141 356.099 67.2739 356.034 67.2874C355.402 67.4096 354.749 67.4612 354.09 67.3771C353.436 67.2712 352.796 67.0349 352.232 66.671C351.096 65.9269 350.366 64.7402 349.886 63.5426C349.417 62.3261 349.151 61.0579 349.021 59.7843C348.893 58.5106 348.874 57.2343 349.007 55.9607C349.015 55.8874 349.08 55.8358 349.154 55.8412C349.222 55.8494 349.27 55.9037 349.273 55.9688V55.9743H349.27Z" fill="#1B1B43"/>
<path d="M357.762 50.2767C360.776 50.8768 363.555 52.2509 366.089 53.9454C368.627 55.6481 370.848 57.7826 372.828 60.1017L374.233 61.9076C374.705 62.5077 375.079 63.1758 375.508 63.8058C376.384 65.0577 377.062 66.4263 377.783 67.7651C378.165 68.425 378.426 69.1446 378.738 69.8371L379.641 71.9308C380.145 73.3647 380.606 74.8121 381.089 76.2486C381.114 76.3192 381.076 76.3926 381.005 76.417C380.937 76.4387 380.864 76.4061 380.84 76.341V76.3301C380.289 74.9207 379.763 73.5059 379.201 72.1101L378.252 70.0598C377.927 69.3809 377.65 68.6803 377.257 68.0367C376.508 66.7332 375.847 65.3808 374.968 64.1588C374.542 63.5424 374.168 62.8879 373.696 62.3013L372.31 60.5308C370.393 58.2307 368.207 56.1505 365.763 54.418C365.15 53.9889 364.537 53.5544 363.884 53.1905C363.561 53.0031 363.244 52.7995 362.913 52.6257L361.912 52.1151C360.572 51.4552 359.167 50.8768 357.719 50.5374H357.705C357.635 50.5184 357.589 50.4478 357.608 50.3744C357.624 50.3038 357.692 50.2604 357.762 50.274V50.2767Z" fill="#1B1B43"/>
<path d="M143.807 200.954H169.572V195.183H143.807V200.954Z" fill="#1B1B43"/>
<path d="M207.951 167.004L204.046 176.631L195.001 198.939C194.494 200.197 193.387 201.003 192.167 201.003H155.906L169.385 167.742C170.809 164.234 173.909 161.98 177.318 161.98H205.109C207.387 161.98 208.898 164.655 207.951 167.004Z" fill="#CBCBFF"/>
<path opacity="0.1" d="M204.044 176.628L194.999 198.937C194.492 200.194 193.386 201 192.165 201H168.467C186.285 195.059 197.359 185.217 204.044 176.628Z" fill="#1B1B43"/>
<path d="M304.517 195.184H278.752V200.954H304.517V195.184Z" fill="#1B1B43"/>
<path d="M292.417 201H256.157C254.936 201 253.83 200.194 253.322 198.936L245.051 178.537L240.372 167.001C239.423 164.652 240.934 161.977 243.215 161.977H271.013C274.417 161.977 277.514 164.231 278.938 167.74L292.417 201Z" fill="#CBCBFF"/>
<path opacity="0.1" d="M274.672 201H256.157C254.936 201 253.83 200.194 253.323 198.936L245.051 178.537C251.451 186.059 261.988 196.37 274.675 201H274.672Z" fill="#1B1B43"/>
<path d="M126.885 205.603H119.123V369.66H126.885V205.603Z" fill="white"/>
<path d="M127.223 370H118.783V205.264H127.223V370ZM119.461 369.321H126.545V205.943H119.461V369.321Z" fill="#1B1B43"/>
<path d="M303.623 205.603H295.861V369.66H303.623V205.603Z" fill="white"/>
<path d="M303.962 370H295.521V205.264H303.962V370ZM296.2 369.321H303.283V205.943H296.2V369.321Z" fill="#1B1B43"/>
<path d="M350.199 200.886H72.5488V207.336H350.199V200.886Z" fill="white"/>
<path d="M350.538 207.675H72.209V200.547H350.538V207.675ZM72.887 206.996H349.86V201.226H72.887V206.996Z" fill="#1B1B43"/>
<path d="M451.564 369.321H0V370H451.564V369.321Z" fill="#1B1B43"/>
</g>
<defs>
<clipPath id="clip0_1248_4996">
<rect width="466" height="370" fill="white"/>
</clipPath>
</defs>
</svg>
