<svg width="62" height="68" viewBox="0 0 62 68" fill="none" xmlns="http://www.w3.org/2000/svg">
<path d="M26.6547 13.0315C26.6547 16.0452 28.1809 18.8386 30.7976 21.0735C30.3808 22.0896 29.7091 23.3511 28.9099 24.417L28.9099 24.417L28.9086 24.4188C28.3142 25.2359 28.3153 26.3461 28.834 27.1607L28.8339 27.1607L28.8357 27.1633C29.2828 27.834 30.0271 28.2037 30.8384 28.2037H30.8474C31.0494 28.2037 31.2774 28.2038 31.508 28.1279C34.4874 27.296 37.258 25.9158 39.1416 24.8045C40.5256 25.0771 41.9765 25.2134 43.4264 25.2134C48.0449 25.2134 52.2319 23.8491 55.268 21.6467C58.3036 19.4445 60.1981 16.3957 60.1981 13.032C60.1978 9.66803 58.3033 6.61908 55.2676 4.41682C52.2316 2.21432 48.0447 0.85 43.4264 0.85C38.8078 0.85 34.6208 2.21432 31.5848 4.41676C28.5491 6.61896 26.6547 9.66778 26.6547 13.0315ZM33.4342 6.3059C35.9883 4.58597 39.5225 3.51479 43.4261 3.51473V3.51476C47.3296 3.51476 50.8637 4.58586 53.4176 6.31428C55.9723 8.04322 57.5332 10.4188 57.5332 13.0318C57.5332 15.6448 55.9723 18.0203 53.4176 19.7493C50.8636 21.4777 47.3295 22.5488 43.4261 22.5488C41.9759 22.5488 40.5267 22.4106 39.147 22.1351C38.8285 22.057 38.4398 22.1341 38.1974 22.2955C36.8787 23.1528 34.3008 24.5762 31.4886 25.4252C32.5498 23.8766 33.3016 22.0558 33.6895 21.0872C33.9301 20.5233 33.6823 19.9011 33.2298 19.5238L33.2301 19.5234L33.22 19.5163C30.676 17.7287 29.3193 15.4053 29.3193 12.9623C29.3191 10.3849 30.8791 8.02659 33.4342 6.3059Z" fill="white" stroke="white" stroke-width="0.3"/>
<path d="M61.1693 57.8905C61.2391 53.7274 58.7697 49.8492 54.8923 48.0863L54.8923 48.086L52.3192 46.9038L52.3193 46.9037L52.3157 46.9022C51.8944 46.7218 51.4717 46.4871 51.0951 46.2457C52.7892 44.3477 53.7974 41.723 53.7974 38.8333C53.7974 33.0676 49.7154 28.3207 44.6062 28.3207C39.4971 28.3207 35.415 33.0677 35.415 38.8333C35.415 41.7225 36.4233 44.3477 38.1173 46.2457C37.7406 46.4871 37.3176 46.7218 36.8967 46.9022L36.8967 46.9022L36.8932 46.9038L34.3237 48.0844C34.3231 48.0847 34.3225 48.0849 34.3219 48.0852C33.8738 48.2773 33.4274 48.5267 32.9878 48.7772C31.9197 46.5864 30.1128 44.8087 27.7675 43.7738C27.7672 43.7736 27.7668 43.7735 27.7665 43.7733L25.1955 42.592L25.1955 42.592L25.1919 42.5904C24.7706 42.41 24.348 42.1754 23.9714 41.934C25.6655 40.036 26.6737 37.4112 26.6737 34.5215C26.6737 28.7558 22.5917 24.0089 17.4825 24.0089C12.3733 24.0089 8.29126 28.756 8.29126 34.5215C8.29126 37.4107 9.29951 40.0359 10.9935 41.934C10.6168 42.1753 10.1939 42.41 9.77296 42.5905L9.77294 42.5904L9.76945 42.592L7.19634 43.7743L7.19594 43.7744C3.38975 45.5367 0.85 49.3438 0.85 53.5776V58.0979C0.85 60.7553 3.00517 62.8381 5.59021 62.8381H27.9841C28.1981 65.2169 30.2477 67.1499 32.7136 67.1499H56.4291C59.0865 67.1499 61.1693 64.9947 61.1693 62.4096V57.8905ZM30.9357 50.6239C29.13 52.4665 28.0399 54.951 27.9769 57.6427L27.9738 57.6411V57.8897V60.3133H5.59059C4.42182 60.3133 3.44554 59.3374 3.44554 58.1683V53.648C3.44554 50.4379 5.28911 47.5712 8.22432 46.2741L8.22433 46.2741L8.22632 46.2732L10.797 45.0921C11.6127 44.7517 12.3611 44.2822 13.0422 43.7471C14.3648 44.5608 15.889 45.0354 17.4828 45.0354C19.0767 45.0354 20.6011 44.5608 21.9237 43.7469C22.6096 44.2809 23.3582 44.687 24.1618 45.0888L24.1618 45.0889L24.1663 45.091L26.7394 46.2732L26.7406 46.2738C28.686 47.1461 30.1076 48.7458 30.9357 50.6239ZM58.6439 62.3299H58.5743V62.4799C58.5743 63.6487 57.5985 64.6249 56.4293 64.6249H32.7138C31.5451 64.6249 30.5688 63.6491 30.5688 62.4799V57.9596C30.5688 54.7495 32.4124 51.8828 35.3476 50.5858L35.3496 50.5849L37.9202 49.4038C38.7359 49.0634 39.4843 48.5939 40.1655 48.0587C41.488 48.8725 43.0123 49.347 44.6061 49.347C46.2 49.347 47.7243 48.8725 49.047 48.0586C49.7329 48.5925 50.4815 48.9987 51.285 49.4005L51.285 49.4006L51.2895 49.4026L53.8626 50.5849L53.8634 50.5852C56.7313 51.8827 58.6434 54.8199 58.6434 57.9596L58.6439 62.3299ZM38.0103 38.8337C38.0103 34.4406 40.9563 30.9861 44.6063 30.9861C48.1867 30.9861 51.2024 34.5107 51.2024 38.8337C51.2024 43.2269 48.2563 46.6814 44.6063 46.6814C41.026 46.6814 38.0103 43.1573 38.0103 38.8337ZM10.887 34.522C10.887 30.1289 13.8331 26.6743 17.4831 26.6743C21.0634 26.6743 24.0791 30.1989 24.0791 34.522C24.0791 38.9151 21.1331 42.3696 17.4831 42.3696C13.9027 42.3696 10.887 38.845 10.887 34.522Z" fill="white" stroke="white" stroke-width="0.3"/>
<path d="M50.7942 15.5469C52.183 15.5469 53.3086 14.4207 53.3086 13.0319C53.3086 11.6432 52.183 10.5175 50.7942 10.5175C49.4054 10.5175 48.2797 11.6432 48.2797 13.0319C48.2797 14.4207 49.4053 15.5469 50.7942 15.5469Z" fill="white" stroke="white" stroke-width="0.3"/>
<path d="M43.425 15.5469C44.8138 15.5469 45.9395 14.4207 45.9395 13.0319C45.9395 11.6432 44.8138 10.5175 43.425 10.5175C42.0362 10.5175 40.9105 11.6432 40.9105 13.0319C40.9105 14.4207 42.0361 15.5469 43.425 15.5469Z" fill="white" stroke="white" stroke-width="0.3"/>
<path d="M36.1223 15.5469C37.5111 15.5469 38.6372 14.4208 38.6372 13.0319C38.6372 11.6431 37.511 10.5175 36.1223 10.5175C34.7335 10.5175 33.6078 11.6432 33.6078 13.0319C33.6078 14.4207 34.7334 15.5469 36.1223 15.5469Z" fill="white" stroke="white" stroke-width="0.3"/>
</svg>
