<svg width="452" height="295" viewBox="0 0 452 295" fill="none" xmlns="http://www.w3.org/2000/svg">
<g clip-path="url(#clip0_1815_944)">
<path d="M132.413 253.797C132.413 253.797 132.637 267.74 131.944 278.099C131.547 284.007 129.104 284.161 112.815 284.879C96.2587 285.61 95.9653 285.105 94.4252 276.595C92.885 268.085 92.543 253.797 92.543 253.797H132.413Z" fill="#95574B"/>
<path d="M114.521 41.5988V120.764C114.521 126.49 119.159 131.132 124.88 131.132H297.274C302.995 131.132 307.633 126.49 307.633 120.764V41.5988C307.633 35.8727 302.995 31.2308 297.274 31.2308L124.88 31.2308C119.159 31.2308 114.521 35.8727 114.521 41.5988Z" fill="#3C3E50"/>
<path d="M132.047 41.1572V121.205C132.047 123.279 133.726 124.96 135.798 124.96L286.358 124.96C288.429 124.96 290.109 123.279 290.109 121.205V41.1572C290.109 39.0835 288.429 37.4025 286.358 37.4025L135.798 37.4025C133.726 37.4025 132.047 39.0835 132.047 41.1572Z" fill="#FFF3EC"/>
<path opacity="0.11" d="M181.068 37.1071H177.661L183.842 46.4069L170.597 37.1071H152.34C147.878 37.1071 144.26 33.4871 144.26 29.0196C144.26 24.554 147.876 20.9321 152.34 20.9321H181.068C185.529 20.9321 189.148 24.5521 189.148 29.0196C189.148 33.4852 185.531 37.1071 181.068 37.1071Z" fill="#282A3E"/>
<path d="M143.027 83.116L143.93 51.4283L175.245 51.2188L175.731 82.9289L143.027 83.116Z" fill="#F8E8DB"/>
<path d="M245.689 111.801L246.592 82.8895L277.905 82.6968L278.391 111.631L245.689 111.801Z" fill="#F8E8DB"/>
<path d="M182.557 79.754L182.209 50.8482L243.097 50.6499L244.011 79.5838L182.557 79.754Z" fill="#F8E8DB"/>
<path d="M247.762 63.2218L247.771 62.9263C248.001 55.6376 254.722 49.8194 262.971 49.7689C271.378 49.7184 278.258 55.6694 278.385 63.1002L278.391 63.3958C278.518 70.9202 271.683 77.092 263.171 77.135H263.156C254.498 77.1799 247.521 70.8734 247.762 63.2218Z" fill="#F8E8DB"/>
<path d="M165.244 106.961L165.831 88.2045L186.144 88.0811L186.46 106.851L165.244 106.961Z" fill="#F8E8DB"/>
<path d="M143.523 97.2535C143.643 92.2042 147.035 88.1782 151.194 88.1446L151.603 88.1408C155.842 88.1072 159.311 92.2285 159.379 97.3751C159.446 102.593 155.994 106.873 151.698 106.903H151.289C146.917 106.935 143.398 102.559 143.525 97.2535H143.523Z" fill="#F8E8DB"/>
<path d="M257.057 100.24C253.272 79.3109 246.747 64.2191 242.181 62.6251C235.651 59.7684 230.299 61.5419 222.3 58.7844C221.515 58.5131 210.378 57.2578 209.554 57.2671C208.73 57.2578 198.867 58.6946 198.057 58.8835C189.689 60.8385 183.718 60.165 176.894 62.627C172.329 64.2209 165.111 78.7608 161.371 98.8608C157.307 120.699 158.023 124.996 158.023 124.996H260.205C260.205 124.996 261.081 122.51 257.055 100.241L257.057 100.24Z" fill="#6A96C1"/>
<path d="M241.559 90.5058L240.848 90.582L244.553 125.224L245.264 125.148L241.559 90.5058Z" fill="#557FB8"/>
<path d="M178.342 92.1175L173.721 124.946L174.43 125.046L179.051 92.2175L178.342 92.1175Z" fill="#557FB8"/>
<path d="M217.203 39.5825C217.203 39.5825 218.856 51.262 219.102 55.8436C219.261 58.8144 214.82 61.8994 208.363 61.8994C202.817 61.8994 199.137 59.3513 199.253 56.0419C199.415 51.3967 200.4 39.5844 200.4 39.5844H217.202L217.203 39.5825Z" fill="#8F4D40"/>
<path d="M199.723 48.1323L218.556 49.788L219.1 55.8438C219.1 55.8438 214.973 57.9821 208.652 56.6482C203.052 55.4659 199.516 51.2996 199.516 51.2996L199.723 48.1323Z" fill="#854437"/>
<path d="M226.61 33.2515C226.61 33.2515 228.223 29.9701 228.771 22.8667C228.771 22.8667 232.208 18.4441 228.771 14.5566C228.771 14.5566 230.605 10.2593 226.61 6.40733C223.139 3.06233 221.104 2.20737 214.76 0.806132C208.185 -0.645614 203.426 -0.217199 199.08 2.73119C194.733 5.67958 195.131 7.86469 195.131 7.86469C195.131 7.86469 190.619 8.13408 189.32 13.9317C187.995 19.8472 190.486 21.2559 191.137 25.1435C191.787 29.031 192.475 32.2469 192.475 32.2469L226.612 33.2497L226.61 33.2515Z" fill="#3A1C1B"/>
<path d="M209.089 8.82812C190.888 8.82812 190.127 31.5191 197.237 44.6017C199.974 49.6379 206.174 54.4945 209.82 54.4945C213.771 54.4945 218.614 50.6276 221.876 45.6886C230.842 32.1047 227.352 8.83 209.091 8.83L209.089 8.82812Z" fill="#95574B"/>
<path d="M222.3 28.2155C222.3 27.6786 220.564 26.5636 218.284 26.5467C215.701 26.528 213.858 27.3175 214.157 27.8694C214.456 28.4213 216.026 28.1575 218.108 28.1219C220.19 28.0864 222.302 28.8385 222.302 28.2155H222.3Z" fill="#3A1C1B"/>
<path d="M198.078 28.2155C198.078 27.6786 199.826 26.5636 202.106 26.5467C204.689 26.528 206.532 27.3175 206.233 27.8694C205.934 28.4213 204.364 28.1575 202.282 28.1219C200.201 28.0864 198.076 28.8385 198.076 28.2155H198.078Z" fill="#3A1C1B"/>
<path opacity="0.82" d="M210.213 39.9808C209.367 39.9808 208.598 39.7283 208.09 39.2531C207.569 38.7667 207.37 38.0876 207.535 37.343C207.793 36.1681 208.148 33.9587 208.152 33.9362C208.191 33.6856 208.426 33.5172 208.677 33.5565C208.927 33.5976 209.098 33.8315 209.056 34.0822C209.041 34.1738 208.692 36.3384 208.428 37.5394C208.335 37.9678 208.43 38.3177 208.714 38.5833C209.23 39.0641 210.277 39.1988 211.26 38.9088C211.503 38.8378 211.757 38.9762 211.828 39.2194C211.899 39.4626 211.761 39.717 211.518 39.7881C211.079 39.9172 210.636 39.9808 210.213 39.9808Z" fill="#79423A"/>
<path d="M217.156 30.9072C215.726 30.7762 215.567 33.0998 216.939 33.2457C218.311 33.3916 218.584 31.0381 217.156 30.9072Z" fill="#351D14"/>
<path d="M202.281 30.9072C200.851 30.7762 200.692 33.0998 202.064 33.2457C203.436 33.3916 203.709 31.0381 202.281 30.9072Z" fill="#351D14"/>
<path d="M215.594 42.9872C215.594 42.9872 214.361 46.6933 210.275 46.6933C206.189 46.6933 204.787 43.2192 204.785 43.2117C204.785 43.2117 207.359 43.8179 210.189 43.7281C213.019 43.6383 215.592 42.9854 215.592 42.9854L215.594 42.9872Z" fill="#FBFBFB"/>
<path d="M225.813 31.4967C225.813 31.4967 221.058 38.8358 223.524 39.4682C225.989 40.1005 229.402 34.8267 228.675 32.6547C227.948 30.4827 225.813 31.4948 225.813 31.4948V31.4967Z" fill="#95574B"/>
<path d="M194.098 31.4967C194.098 31.4967 198.853 38.8358 196.387 39.4682C193.922 40.1005 190.509 34.8267 191.236 32.6547C191.963 30.4827 194.098 31.4948 194.098 31.4948V31.4967Z" fill="#95574B"/>
<path d="M193.237 31.3248L194.323 31.8917C194.323 31.8917 193.987 22.4628 195.224 20.4536C196.462 18.4424 196.562 16.566 201.117 15.6288C205.672 14.6896 208.699 18.9794 212.136 18.3096C215.573 17.6399 216.672 15.7634 219.973 17.1029C223.272 18.4424 224.511 22.1972 224.786 22.8669C225.061 23.5366 225.812 31.5418 225.812 31.5418L227.304 31.3529C227.304 31.3529 229.274 23.7387 227.304 19.1141C225.333 14.4894 213.44 0.884924 206.704 3.63314C199.968 6.38135 191.168 12.2108 190.755 16.8354C190.342 21.4601 193.237 31.3248 193.237 31.3248Z" fill="#3A1C1B"/>
<path d="M220.901 54.6272C221.454 54.5336 221.97 54.9228 222.034 55.4803C222.112 56.1743 222.217 57.1303 222.306 58.0788C222.433 59.4015 222.331 60.3294 222.219 60.885C222.142 61.2648 221.848 61.5585 221.471 61.6408C220.013 61.9551 215.804 62.7222 209.129 62.7876C202.778 62.8512 199.036 62.1665 197.578 61.826C197.152 61.7269 196.846 61.3546 196.829 60.9168C196.801 60.2115 196.782 59.0629 196.885 57.8132C196.969 56.788 197.081 56.0041 197.18 55.4541C197.277 54.9078 197.812 54.5542 198.354 54.6777C200.268 55.108 204.791 55.9854 209.385 55.8526C213.996 55.7197 218.847 54.9751 220.901 54.6272Z" fill="#6A96C1"/>
<path d="M220.355 60.3967L219.641 60.3424C219.674 59.8972 219.452 57.6952 219.293 56.3221L220.005 56.2397C220.046 56.5971 220.405 59.7419 220.355 60.3967Z" fill="#557FB8"/>
<path d="M217.103 60.8138H216.387C216.387 60.0019 216.096 56.7673 216.094 56.7355L216.808 56.6719C216.819 56.8066 217.105 59.972 217.105 60.8157L217.103 60.8138Z" fill="#557FB8"/>
<path d="M212.891 61.0961L212.175 61.0774C212.196 60.2655 211.988 57.0253 211.984 56.9916L212.698 56.9448C212.708 57.0795 212.911 60.2505 212.889 61.0943L212.891 61.0961Z" fill="#557FB8"/>
<path d="M198.987 60.3967C198.937 59.74 199.296 56.5952 199.337 56.2397L200.049 56.3221C199.89 57.6952 199.668 59.8972 199.701 60.3424L198.987 60.3967Z" fill="#557FB8"/>
<path d="M203.546 60.8138H202.83C202.83 59.97 203.114 56.8046 203.127 56.6699L203.841 56.7335C203.838 56.7653 203.548 60 203.548 60.8119L203.546 60.8138Z" fill="#557FB8"/>
<path d="M207.282 61.2235C207.23 60.3816 207.319 57.205 207.323 57.0703L208.039 57.0909C208.039 57.1227 207.945 60.3704 207.996 61.1805L207.282 61.2254V61.2235Z" fill="#557FB8"/>
<path d="M209.279 63.1449C209.229 63.1449 209.18 63.1449 209.13 63.1449C204.904 63.1374 199.766 62.8063 197.82 62.086C195.981 61.4051 196.474 58.1611 196.496 58.0226L197.203 58.1349C197.087 58.8589 196.999 61.0178 198.068 61.4125C199.657 62 204.206 62.419 209.132 62.4284C214.206 62.4284 217.419 61.9308 220.137 61.3807C220.875 61.2311 221.41 60.8906 221.729 60.3686C222.382 59.2948 221.961 57.7738 221.957 57.7589L222.645 57.5605C222.666 57.6354 223.157 59.3921 222.342 60.7372C221.916 61.4406 221.223 61.8933 220.279 62.0842C217.552 62.636 214.331 63.1449 209.281 63.1449H209.279Z" fill="#557FB8"/>
<path d="M298.656 73.2606C294.964 73.1203 293.904 76.9367 293.904 81.6025C293.904 86.2683 295.947 89.1849 298.659 89.1063C301.594 89.0203 303.115 86.1897 303.115 80.8935C303.115 77.1537 302.065 73.3878 298.656 73.2587V73.2606Z" fill="#2A293E"/>
<path d="M123.231 68.4229C121.592 68.4229 121.966 75.3467 122.012 81.902C122.055 88.0963 121.682 93.9425 123.231 93.9425C124.781 93.9425 124.446 87.6566 124.545 81.7224C124.657 74.952 124.932 68.4229 123.231 68.4229Z" fill="#2A293E"/>
<path d="M415.338 45.6924H336.245C330.524 45.6924 325.887 50.3343 325.887 56.0604V207.315C325.887 213.041 330.524 217.683 336.245 217.683H415.338C421.059 217.683 425.697 213.041 425.697 207.315V56.0604C425.697 50.3343 421.059 45.6924 415.338 45.6924Z" fill="#3C3E50"/>
<path d="M415.969 52.6763H336.536C334.315 52.6763 332.514 54.4788 332.514 56.7022V205.978C332.514 208.201 334.315 210.004 336.536 210.004H415.969C418.19 210.004 419.991 208.201 419.991 205.978V56.7022C419.991 54.4788 418.19 52.6763 415.969 52.6763Z" fill="#FFC86B"/>
<path d="M358.188 49.1719H396.16V51.9781C396.16 54.7936 393.876 57.0798 391.063 57.0798H363.285C360.472 57.0798 358.188 54.7936 358.188 51.9781V49.1719Z" fill="#3C3E50"/>
<path opacity="0.11" d="M415.193 97.1584H418.601L413.991 108.359L425.662 97.1584H443.919C448.381 97.1584 452 93.5384 452 89.0709C452 84.6053 448.383 80.9834 443.919 80.9834H415.191C410.73 80.9834 407.111 84.6034 407.111 89.0709C407.111 93.5365 410.728 97.1584 415.191 97.1584H415.193Z" fill="#282A3E"/>
<path d="M338.67 114.557L338.917 85.6453L368.136 85.4526L368.59 114.387L338.67 114.557Z" fill="#FCBD55"/>
<path d="M388.195 144.903L388.904 120.594L413.471 120.433L413.852 144.759L388.195 144.903Z" fill="#FCBD55"/>
<path d="M386.15 83.8774L386.859 66.4827L411.426 66.3667L411.807 83.7746L386.15 83.8774Z" fill="#FCBD55"/>
<path d="M387.862 102.307L387.87 102.058C388.051 95.9292 393.324 91.037 399.794 90.9959C406.39 90.9529 411.788 95.9573 411.887 102.206L411.891 102.453C411.992 108.778 406.628 113.968 399.95 114.005H399.938C393.146 114.042 387.671 108.74 387.86 102.307H387.862Z" fill="#FCBD55"/>
<path d="M356.435 138.823L356.346 120.433L376.532 119.943L376.827 138.713L356.435 138.823Z" fill="#FCBD55"/>
<path d="M338.423 128.696C338.535 123.647 341.7 119.621 345.582 119.587L345.963 119.584C349.918 119.55 353.157 123.671 353.219 128.818C353.28 134.036 350.06 138.316 346.051 138.346H345.669C341.591 138.378 338.305 134.002 338.423 128.696Z" fill="#FCBD55"/>
<path d="M353.609 65.3228C360.892 65.4425 366.703 68.838 366.75 73.0005L366.756 73.4103C366.804 77.6532 360.859 81.1255 353.433 81.1928C345.906 81.2602 339.729 77.8048 339.688 73.5057L339.684 73.096C339.641 68.7201 345.955 65.1974 353.61 65.3246L353.609 65.3228Z" fill="#FCBD55"/>
<path d="M325.851 174.479L312.453 210.241H332.054L342.073 182.031L325.851 174.479Z" fill="#FD907E"/>
<path d="M423.769 199.64L431.561 176.253C431.561 176.253 430.345 172.633 428.511 167.49C424.141 155.236 416.265 134.337 412.981 133.132C406.172 130.006 390.32 127.685 381.531 127.685C380.664 127.685 379.802 127.69 378.943 127.7C378.083 127.688 377.221 127.685 376.354 127.685C367.565 127.685 351.714 130.004 344.905 133.132C340.363 134.797 324.621 173.905 324.621 173.905L343.243 182.574L346.058 176.38L344.189 210.24H413.695L411.826 176.38C411.826 176.38 414.317 184.956 417.19 191.677C420.063 198.399 423.769 199.638 423.769 199.638V199.64Z" fill="#C64E6B"/>
<path d="M377.868 148.533C377.868 148.533 374.803 140.571 369.833 133.976C368.797 132.603 366.601 132.668 364.67 130.292C364.095 129.583 364.218 128.601 364.218 128.601C364.218 128.601 368.504 127.741 377.823 127.686C387.143 127.632 393.66 128.601 393.66 128.601C393.66 128.601 393.892 129.585 392.096 130.642C389.774 132.008 387.26 133.823 384.688 135.504C381.397 137.66 377.866 148.533 377.866 148.533H377.868Z" fill="#F59D7B"/>
<path d="M386.585 112.821L388.528 131.935C388.528 131.935 384.332 135.154 378.232 134.975C372.131 134.795 369.609 132.328 369.609 132.328L370.815 112.821H386.585Z" fill="#F59D7B"/>
<path d="M390.694 137.549L390.459 136.939C395.111 135.147 398.862 129.319 398.9 129.261L399.451 129.613C399.294 129.86 395.549 135.68 390.694 137.551V137.549Z" fill="#B53959"/>
<path d="M364.028 136.239C359.873 133.951 358.74 129.647 358.693 129.465L359.327 129.304C359.338 129.345 360.443 133.519 364.344 135.667L364.028 136.239Z" fill="#B53959"/>
<path d="M378.024 173.334C377.138 164.311 377.669 147.788 377.675 147.622L378.327 147.642C378.321 147.807 377.79 164.289 378.673 173.268L378.022 173.332L378.024 173.334Z" fill="#B53959"/>
<path d="M425.509 140.756C425.554 142.845 418.229 182.847 417.908 185.045C416.839 192.388 419.297 200.245 426.842 200.217C434.918 200.186 437.692 182.624 438.754 166.932C439.573 154.834 439.373 143.844 439.799 142.862C440.148 142.058 442.303 138.892 443.27 134.82C445.01 127.479 446.726 115.352 443.946 114.553C441.472 113.842 440.941 125.52 440.264 125.265C439.587 125.011 442.686 109.457 439.948 109.017C437.434 108.613 437.006 123.288 436.283 123.164C435.56 123.041 437.93 106.995 434.739 106.331C431.763 105.712 432.765 122.699 431.913 122.626C431.061 122.553 431.769 107.762 429.246 107.656C425.898 107.515 428.7 128.363 427.526 128.352C426.352 128.341 421.618 118.777 418.984 121.428C417.945 122.476 420.435 124.536 421.08 127C421.594 128.964 421.863 131.903 422.652 133.843C424.558 138.526 425.444 137.776 425.508 140.758L425.509 140.756Z" fill="#FBA687"/>
<path d="M432.631 135.302C432.459 135.302 432.317 135.166 432.313 134.992C432.201 131.061 427.435 128.659 427.386 128.637C427.229 128.558 427.164 128.367 427.242 128.21C427.321 128.053 427.511 127.988 427.668 128.064C427.88 128.167 432.827 130.657 432.95 134.975C432.956 135.151 432.818 135.299 432.64 135.302C432.636 135.302 432.635 135.302 432.631 135.302Z" fill="#F28171"/>
<path d="M441.249 128.669C441.206 128.669 441.165 128.659 441.124 128.642C436.418 126.616 430.407 125.224 430.347 125.211C430.175 125.172 430.068 125 430.108 124.83C430.147 124.658 430.317 124.549 430.489 124.59C430.549 124.603 436.616 126.008 441.377 128.057C441.537 128.126 441.612 128.315 441.543 128.476C441.491 128.598 441.373 128.669 441.249 128.669Z" fill="#F28171"/>
<path d="M370.43 119.621C370.43 119.621 372.123 121.288 377.269 122.317C382.667 123.398 387.579 122.609 387.579 122.609L386.771 114.662L370.54 115.833L370.432 119.621H370.43Z" fill="#E88E6B"/>
<path d="M377.671 64.4435C377.671 64.4435 383.306 61.5475 389.863 63.6764C396.939 65.9757 399.905 71.7265 400.399 75.919C401.274 81.5595 400.646 87.8117 402.294 91.7947C406.137 101.072 407.199 109.399 402.709 113.756C402.709 113.756 393.67 114.66 376.979 114.952C361.594 115.219 353.154 114.662 353.154 114.662C353.154 114.662 347.503 109.683 349.576 101.983C351.086 96.3688 351.903 90.5768 352.156 85.8941C352.391 81.5427 352.412 75.3615 355.757 70.5386C359.183 65.5959 363.508 64.1591 367.669 63.6802C372.117 63.1676 377.671 64.4472 377.671 64.4472V64.4435Z" fill="#BA4740"/>
<path d="M377.054 66.3667C355.625 66.3667 354.731 93.0818 363.099 108.482C366.322 114.411 373.62 120.13 377.914 120.13C382.564 120.13 388.269 115.578 392.108 109.762C402.662 93.7703 398.554 66.3667 377.056 66.3667H377.054Z" fill="#FBA687"/>
<path d="M392.616 89.2541C392.616 88.6218 390.565 88.1391 387.879 88.1186C384.838 88.0961 382.668 89.0259 383.02 89.6751C383.371 90.3242 385.222 90.0137 387.672 89.9707C390.122 89.9276 392.616 89.9838 392.616 89.2523V89.2541Z" fill="#BA4740"/>
<path d="M364.098 89.2541C364.098 88.6218 366.148 88.1391 368.834 88.1186C371.875 88.0961 374.045 89.0259 373.694 89.6751C373.342 90.3242 371.492 90.0137 369.041 89.9707C366.591 89.9276 364.098 89.9838 364.098 89.2523V89.2541Z" fill="#BA4740"/>
<path opacity="0.82" d="M378.397 102.917C377.424 102.917 376.532 102.632 375.96 102.099C375.379 101.557 375.16 100.799 375.341 99.9645C375.644 98.5783 376.065 95.9741 376.068 95.9479C376.104 95.7197 376.317 95.5662 376.547 95.6018C376.775 95.6392 376.93 95.8525 376.893 96.0807C376.876 96.1892 376.465 98.7335 376.156 100.144C376.037 100.694 376.162 101.145 376.528 101.487C377.164 102.08 378.444 102.251 379.642 101.899C379.863 101.833 380.096 101.961 380.162 102.183C380.227 102.404 380.1 102.638 379.878 102.702C379.382 102.847 378.88 102.917 378.395 102.917H378.397Z" fill="#D16257"/>
<path d="M386.553 93.2538C384.871 93.1004 384.682 95.8355 386.299 96.0057C387.914 96.1778 388.236 93.4072 386.553 93.2538Z" fill="#351D14"/>
<path d="M369.04 93.2538C367.358 93.1004 367.169 95.8355 368.785 96.0057C370.402 96.176 370.722 93.4072 369.04 93.2538Z" fill="#351D14"/>
<path d="M384.711 107.218C384.711 107.218 383.259 111.582 378.45 111.582C373.64 111.582 371.99 107.491 371.986 107.483L384.711 107.218Z" fill="#FBFBFB"/>
<path d="M396.167 96.5916C396.167 96.5916 390.569 105.233 393.472 105.977C396.374 106.722 400.393 100.513 399.537 97.9573C398.681 95.4017 396.169 96.5934 396.169 96.5934L396.167 96.5916Z" fill="#FBA687"/>
<path d="M359.977 96.5916C359.977 96.5916 365.575 105.233 362.673 105.977C359.77 106.722 355.751 100.513 356.607 97.9573C357.463 95.4017 359.976 96.5934 359.976 96.5934L359.977 96.5916Z" fill="#FBA687"/>
<path d="M397.216 96.3258C397.216 96.3258 395.42 94.3222 395.618 91.4486C395.816 88.5751 394.855 84.7792 394.855 84.7792C394.855 84.7792 390.949 84.7025 384.039 85.0186L381.973 79.7916L380.53 85.3329C370.06 85.5125 361.533 84.7436 361.533 84.7436C361.533 84.7436 360.768 86.1411 359.813 88.966C359.178 90.8462 360.679 93.7983 358.892 96.3688L356.492 92.7918C355.729 87.8099 358.408 67.4911 371.207 65.6072C384.007 63.7233 392.937 68.6528 395.616 76.0276C398.294 83.4041 399.111 91.2821 397.214 96.3277L397.216 96.3258Z" fill="#BA4740"/>
<path d="M396.155 103.513C394.961 103.676 395.28 107.309 396.161 107.363C397.039 107.418 397.349 103.349 396.155 103.513Z" fill="#FED383"/>
<path d="M359.881 103.517C361.083 103.611 360.973 107.257 360.098 107.362C359.223 107.466 358.679 103.424 359.881 103.517Z" fill="#FED383"/>
<path d="M369.062 51.3422C369.062 52.4048 373.539 52.1616 377.778 52.1316C381.784 52.1036 385.563 52.3449 385.563 51.3422C385.563 50.3394 381.498 50.5546 377.662 50.491C373.285 50.418 369.064 50.2403 369.064 51.3422H369.062Z" fill="#2A293E"/>
<path d="M389.77 128.169C389.77 128.169 387.221 134.739 378.786 134.784C370.351 134.829 368.111 128.107 368.111 128.107L369.887 127.789C369.887 127.789 371.347 133.581 378.657 133.613C386.184 133.647 388.12 127.944 388.12 127.944L389.772 128.169H389.77Z" fill="#FED383"/>
<path d="M408.726 248.735C408.726 248.735 408.726 266.672 404.055 275.407C400.859 281.384 396.313 285.117 384.196 285.117C372.078 285.117 364.368 280.651 363.006 270.842C361.643 261.032 361.307 248.23 361.307 248.23L408.726 248.735Z" fill="#C64E6B"/>
<path d="M405.939 256.43C405.939 256.43 410.571 253.741 414.602 254.856C418.843 256.029 417.95 264.579 414.602 268.107C411.661 271.209 403.719 270.691 403.719 270.691L404.765 267.275C404.765 267.275 409.051 268.515 411.573 266.674C414.288 264.691 415.051 260.472 413.93 258.45C412.808 256.428 406.076 259.573 406.076 259.573L405.939 256.43Z" fill="#C64E6B"/>
<path opacity="0.44" d="M382.989 243.428C382.989 243.428 386.805 240.462 387.074 229.679C387.344 218.896 378.493 217.219 378.335 209.514C378.093 197.729 387.08 178.729 387.08 178.729C387.08 178.729 372.069 195.129 371.993 208.112C371.935 217.796 376.694 218.419 380.396 226.443C383.875 234.74 382.989 243.426 382.989 243.426V243.428Z" fill="#E2E8E5"/>
<path opacity="0.44" d="M386.447 243.428C386.447 243.428 393.387 233.724 391.443 228.332C389.499 222.94 384.651 216.471 386.447 211.079C388.243 205.688 391.787 199.757 391.787 199.757C391.787 199.757 388.781 210.181 390.037 215.212C391.293 220.243 398.656 220.065 397.218 228.151C395.783 236.238 386.445 243.426 386.445 243.426L386.447 243.428Z" fill="#E2E8E5"/>
<path d="M396.444 287.027L395.879 295L93.1825 294.935L92.9414 287.09L396.444 287.027Z" fill="#DEE2E2"/>
<path d="M348.834 147.549L348.987 269.959L146.99 268.919L147.155 147.549C147.16 143.184 150.697 139.648 155.059 139.648H340.93C345.29 139.648 348.828 143.184 348.834 147.549Z" fill="#3C3E50"/>
<path d="M348.996 269.179L396.444 287.027L92.9414 287.09L146.999 268.919L348.996 269.179Z" fill="#BEC6C6"/>
<path d="M338.509 272.283L364.73 282.213H128.342L159.216 272.26L338.509 272.283Z" fill="#3C3E50"/>
<path d="M350.342 273.983H146.459V274.941H350.342V273.983Z" fill="#BEC6C6"/>
<path d="M356.976 277.989H136.1V278.947H356.976V277.989Z" fill="#BEC6C6"/>
<path d="M323.295 271.271L322.914 272.15L349.874 283.844L350.254 282.965L323.295 271.271Z" fill="#BEC6C6"/>
<path d="M307.835 271.277L307.361 272.109L327.858 283.801L328.332 282.969L307.835 271.277Z" fill="#BEC6C6"/>
<path d="M293.486 271.326L292.902 272.086L308.1 283.779L308.684 283.02L293.486 271.326Z" fill="#BEC6C6"/>
<path d="M278.357 271.398L277.633 272.025L287.735 283.718L288.459 283.091L278.357 271.398Z" fill="#BEC6C6"/>
<path d="M262.276 271.518L261.408 271.922L267.284 284.535L268.152 284.131L262.276 271.518Z" fill="#BEC6C6"/>
<path d="M180.725 271.245L153.766 282.939L154.146 283.818L181.106 272.124L180.725 271.245Z" fill="#BEC6C6"/>
<path d="M199.706 271.267L179.211 282.963L179.685 283.795L200.18 272.099L199.706 271.267Z" fill="#BEC6C6"/>
<path d="M215.679 271.323L200.48 283.013L201.064 283.772L216.262 272.083L215.679 271.323Z" fill="#BEC6C6"/>
<path d="M230.807 271.415L220.703 283.107L221.427 283.733L231.531 272.042L230.807 271.415Z" fill="#BEC6C6"/>
<path d="M246.885 271.516L241.438 283.209L242.305 283.614L247.752 271.921L246.885 271.516Z" fill="#BEC6C6"/>
<path d="M339.547 259.66H156.237C155.044 259.66 154.078 258.693 154.076 257.5L153.943 151.287C153.943 150.091 154.91 149.12 156.104 149.12H338.32C339.504 149.12 340.468 150.072 340.481 151.258L341.707 257.472C341.72 258.676 340.75 259.659 339.547 259.659V259.66Z" fill="#FFEBC1"/>
<path d="M328.617 200.285L327.52 234.036L289.53 234.261L288.941 200.483L328.617 200.285Z" fill="#F9DCA6"/>
<path d="M206.48 169.426L205.385 203.177L167.395 203.402L166.805 169.624L206.48 169.426Z" fill="#F9DCA6"/>
<path d="M203.964 227.131L203.953 227.475C203.675 235.986 195.52 242.777 185.513 242.837C175.313 242.896 166.966 235.948 166.812 227.273L166.807 226.929C166.652 218.146 174.947 210.941 185.272 210.891H185.288C195.793 210.838 204.258 218.2 203.964 227.133V227.131Z" fill="#F9DCA6"/>
<path d="M301.81 172.447L301.098 194.343L276.453 194.489L276.07 172.576L301.81 172.447Z" fill="#F9DCA6"/>
<path d="M328.16 183.779C328.014 189.672 323.9 194.373 318.854 194.412L318.356 194.416C313.213 194.455 309.003 189.646 308.923 183.637C308.841 177.545 313.029 172.548 318.241 172.515L318.738 172.511C324.04 172.475 328.311 177.585 328.158 183.779H328.16Z" fill="#F9DCA6"/>
<path d="M283.249 199.164L261.294 199.737L254.696 153.184L242.16 155.936C242.16 155.936 238.261 200.964 237.721 200.244C237.181 199.524 215.621 200.964 215.621 200.964C215.621 200.964 216.339 191.417 218.135 180.34C219.931 169.263 223.124 170.657 222.739 153.62C222.354 136.58 226.004 127.159 226.004 127.159L256.766 121.715L270.208 126.362C270.208 126.362 273.329 130.828 274.679 144.385C276.028 157.943 276.813 160.631 277.741 167.974C279.899 185.085 283.249 199.164 283.249 199.164Z" fill="#BA4740"/>
<path opacity="0.5" d="M269.431 149.386C269.431 149.386 267.438 160.395 264.016 164.526C260.934 168.247 264.997 172.271 262.917 178.756C260.836 185.24 264.733 189.515 264.95 193.965C265.074 196.508 265.894 199.705 265.894 199.705L261.294 199.739C258.67 184.308 257.943 175.442 257.502 165.316L265.894 149.386H269.431Z" fill="#A0322A"/>
<path opacity="0.5" d="M231.791 153.184C231.791 153.184 232.864 161.43 234.213 164.942C235.563 168.453 237.452 170.885 237.542 175.478C237.632 180.071 237.092 193.67 237.092 196.822C237.092 199.974 237.722 200.244 237.722 200.244C239.312 189.885 240.265 181.554 240.979 167.054L231.789 153.184H231.791Z" fill="#A0322A"/>
<path d="M196.312 223.898L182.914 259.661H202.515L212.534 231.451L196.312 223.898Z" fill="#FD907E"/>
<path d="M284.988 233.09L302.023 225.672C302.023 225.672 288.103 184.26 283.442 182.552C276.633 179.425 260.781 177.104 251.992 177.104C251.125 177.104 250.263 177.109 249.404 177.119C248.544 177.108 247.682 177.104 246.815 177.104C238.026 177.104 222.175 179.424 215.366 182.552C210.824 184.217 195.084 223.324 195.084 223.324L213.706 231.993L216.521 225.799L214.652 259.659H284.158L282.289 225.799L284.989 233.09H284.988Z" fill="#967ABF"/>
<path d="M275.381 200.249L274.727 200.24C274.82 193.258 277.132 188.75 279.054 186.198C281.147 183.416 283.201 182.308 283.287 182.263L283.594 182.842C283.513 182.885 275.555 187.275 275.381 200.251V200.249Z" fill="#8564B4"/>
<path d="M221.431 200.61C221.422 200.472 220.422 186.727 215.17 182.813L215.561 182.29C217.878 184.016 219.682 187.625 220.919 193.015C221.833 196.996 222.082 200.53 222.086 200.565L221.433 200.61H221.431Z" fill="#8564B4"/>
<path d="M248.852 255.378L248.248 255.126C248.278 255.055 251.214 247.968 253.457 238.404C255.046 231.626 258.508 209.869 260.797 195.469C261.769 189.357 262.472 184.94 262.696 183.784C263.412 180.099 262.715 178.009 262.709 177.989L263.326 177.773C263.358 177.863 264.091 180.033 263.339 183.91C263.117 185.056 262.414 189.468 261.444 195.574C259.152 209.981 255.689 231.754 254.095 238.556C251.84 248.176 248.884 255.309 248.854 255.38L248.852 255.378Z" fill="#8564B4"/>
<path d="M246.216 259.728C246.115 259.247 236.052 211.469 235.368 193.024C234.985 182.664 236.022 178.002 236.065 177.807L236.703 177.953C236.691 178 235.641 182.74 236.02 193C236.703 211.388 246.753 259.112 246.855 259.593L246.216 259.728Z" fill="#8564B4"/>
<path d="M300.315 220.828L287.395 226.605L287.661 227.203L300.582 221.426L300.315 220.828Z" fill="#8564B4"/>
<path d="M197.222 217.983L196.938 218.573L210.733 225.236L211.017 224.646L197.222 217.983Z" fill="#8564B4"/>
<path d="M300.791 226.209L285.588 232.83L293.464 259.661H310.387L300.791 226.209Z" fill="#FD907E"/>
<path d="M255.226 160.47C255.226 160.47 257.893 174.024 258.714 178.952C259.534 183.881 255.635 189.015 250.097 188.809C244.557 188.603 238.813 183.88 239.428 179.158C240.043 174.434 241.89 160.47 241.89 160.47H255.226Z" fill="#FA926D"/>
<path d="M264.254 147.738C263.843 151.844 259.555 167.839 250.098 168.889C240.64 169.94 234.504 162.523 232.042 153.281C229.581 144.039 231.222 132.951 232.042 125.967C232.863 118.985 242.096 115.494 250.713 115.904C259.329 116.315 264.049 122.064 264.254 132.128C264.46 142.191 264.254 147.736 264.254 147.736V147.738Z" fill="#FBA687"/>
<path d="M260.425 138.702C260.425 138.702 259.36 137.744 256.644 137.811C253.928 137.88 252.491 139.523 251.876 138.702C251.261 137.88 252.33 136.032 255.626 135.826C258.921 135.62 261.246 137.126 261.588 138.017C261.93 138.907 260.425 138.702 260.425 138.702Z" fill="#C38A5F"/>
<path d="M243.875 139.113C243.875 139.113 242.809 138.155 240.093 138.223C237.378 138.292 235.94 139.935 235.325 139.113C234.71 138.292 235.78 136.444 239.075 136.238C242.37 136.032 244.695 137.538 245.037 138.429C245.379 139.319 243.875 139.113 243.875 139.113Z" fill="#C38A5F"/>
<path d="M249.347 152.606C248.367 152.606 247.067 152.488 246.495 151.921C246.257 151.685 246.149 151.388 246.179 151.058C246.315 149.547 247.386 144.649 247.431 144.441L248.143 144.597C248.132 144.647 247.037 149.657 246.904 151.124C246.895 151.236 246.924 151.32 247.009 151.403C247.521 151.912 249.405 151.93 250.472 151.824L250.545 152.549C250.425 152.563 249.947 152.606 249.349 152.606H249.347Z" fill="#E28B66"/>
<path d="M254.662 156.525C254.662 156.525 253.819 160.47 248.274 160.47C242.728 160.47 242.373 156.525 242.373 156.525C242.373 156.525 244.683 157.077 248.274 157.013C252.053 156.947 254.662 156.525 254.662 156.525Z" fill="#E2E8E5"/>
<path d="M255.636 142.192C253.79 142.192 254.58 144.78 255.556 144.78C256.859 144.78 257.483 142.192 255.636 142.192Z" fill="#59423E"/>
<path d="M240.591 142.467C239.222 142.467 239.155 144.795 240.591 144.795C242.026 144.795 241.959 142.467 240.591 142.467Z" fill="#59423E"/>
<path d="M247.988 242.934L240.07 181.747C240.07 181.747 242.592 183.796 249.728 183.365C255.066 183.044 258.989 181.354 258.989 181.354L247.988 242.934Z" fill="#E8EAFA"/>
<path d="M257.045 162.24L258.989 181.354C258.989 181.354 254.793 184.574 248.692 184.394C242.592 184.215 240.07 181.747 240.07 181.747L241.276 162.24H257.045Z" fill="#F28171"/>
<path d="M240.871 168.82C240.871 168.82 242.565 170.487 247.71 171.516C253.108 172.597 258.02 171.808 258.02 171.808L257.213 163.86L240.981 165.031L240.873 168.82H240.871Z" fill="#EB7766"/>
<path d="M249.116 116.192C227.56 116.192 225.05 143.123 233.468 158.615C236.709 164.579 242.761 169.267 247.081 169.267C251.759 169.267 258.673 165.675 262.647 159.902C273.17 144.612 270.743 116.194 249.116 116.194V116.192Z" fill="#FD907E"/>
<path d="M261.297 140.021C261.297 139.63 259.676 138.401 256.977 138.309C254.278 138.219 251.669 138.623 251.953 139.209C252.237 139.794 254.157 139.433 256.613 139.615C259.069 139.794 261.295 140.41 261.295 140.021H261.297Z" fill="#BA4740"/>
<path d="M234.807 140.021C234.807 139.63 236.427 138.401 239.126 138.309C241.825 138.219 244.434 138.623 244.15 139.209C243.866 139.794 241.947 139.433 239.491 139.615C237.035 139.794 234.809 140.41 234.809 140.021H234.807Z" fill="#BA4740"/>
<path opacity="0.82" d="M247.951 153.605C247.058 153.605 246.359 153.376 245.888 152.92C245.492 152.536 245.08 151.801 245.372 150.475C245.678 149.079 246.121 146.34 246.125 146.314C246.163 146.086 246.381 145.931 246.604 145.968C246.832 146.005 246.987 146.221 246.949 146.447C246.931 146.561 246.497 149.236 246.187 150.654C246.02 151.418 246.114 151.977 246.467 152.319C246.994 152.83 248.146 152.905 249.626 152.529C249.85 152.471 250.078 152.607 250.134 152.83C250.192 153.055 250.056 153.281 249.833 153.339C249.136 153.517 248.506 153.605 247.951 153.605Z" fill="#D16257"/>
<path d="M227.178 138.919C227.178 138.919 217.552 119.779 244.761 112.449C247.779 111.635 258.463 111.648 264.429 117.592C271.792 124.929 274.483 134.006 268.119 143.381C266.695 138.466 264.312 138.038 260.127 134.322C255.482 130.201 255.392 127.325 255.392 127.325C255.392 127.325 250.454 131.593 242.331 135.143C236.299 137.779 227.18 138.917 227.18 138.917L227.178 138.919Z" fill="#BA4740"/>
<path d="M268.119 143.38C268.119 143.38 270.534 141.768 270.173 146.51C269.812 151.253 265.895 153.183 265.895 153.183L268.117 143.38H268.119Z" fill="#FD907E"/>
<path d="M229.567 143.38C229.567 143.38 226.982 141.783 227.513 146.51C228.164 152.312 231.792 153.184 231.792 153.184L229.569 143.38H229.567Z" fill="#FD907E"/>
<path d="M256.38 142.427C254.688 142.271 254.498 145.023 256.124 145.196C257.75 145.368 258.073 142.582 256.38 142.427Z" fill="#351D14"/>
<path d="M239.294 142.427C237.602 142.271 237.412 145.023 239.038 145.196C240.664 145.368 240.987 142.582 239.294 142.427Z" fill="#351D14"/>
<path d="M254.31 157.767C254.503 158.07 252.4 161.135 247.838 161.135C243.275 161.135 241.714 158.269 241.929 157.872C242.034 157.677 244.881 158.31 247.866 158.291C250.966 158.272 254.211 157.612 254.308 157.765L254.31 157.767Z" fill="#D94253"/>
<path d="M266.864 153.67C266.864 153.67 270.942 154.184 272.921 151.386C274.901 148.587 275.493 144.464 274.742 142.267C273.992 140.071 270.959 137.734 270.959 137.734C270.959 137.734 271.684 129.467 267.6 122.549C263.918 116.314 256.238 113.693 246.283 114.104C236.328 114.516 230.833 119.206 228.028 125.645C225.676 131.041 225.616 138.127 225.616 138.127C225.616 138.127 221.237 140.801 222.416 146.666C223.82 153.64 225.646 156.145 230.863 154.772L227.829 138.724C227.829 138.724 228.334 128.079 231.076 124.302C234.534 119.539 236.758 116.304 248.632 116.304C259.608 116.304 266.477 121.211 267.779 126.908C269.082 132.603 268.574 138.148 268.574 138.148L266.862 153.672L266.864 153.67Z" fill="#525061"/>
<path d="M268.723 138.146C267.667 137.426 267.489 142.05 267.194 146.002C266.835 150.81 265.334 154.19 266.596 154.188C268.676 154.184 268.794 150.05 269.227 146.204C269.693 142.062 269.937 138.975 268.724 138.146H268.723Z" fill="#333548"/>
<path d="M228.119 138.148C228.666 138.148 229.332 141.961 229.864 146.031C230.427 150.34 232.26 154.358 230.862 154.77C229.461 155.183 228.048 150.495 227.616 146.505C227.15 142.209 226.752 138.146 228.119 138.146V138.148Z" fill="#333548"/>
<path d="M227.002 152.306C227.002 152.306 229.462 160.953 230.914 163.862C231.719 165.475 242.828 164.928 243.856 164.768C245.067 164.579 244.798 162.833 242.585 162.833C240.545 162.833 233.688 162.899 232.819 162.24C231.568 161.29 228.811 152.306 228.811 152.306H227H227.002Z" fill="#525061"/>
<path opacity="0.11" d="M226.572 177.377H223.165L230.235 168.109L216.103 177.377H197.846C193.384 177.377 189.766 180.997 189.766 185.464C189.766 189.93 193.382 193.552 197.846 193.552H226.574C231.035 193.552 234.654 189.932 234.654 185.464C234.654 180.998 231.037 177.377 226.574 177.377H226.572Z" fill="#282A3E"/>
<path d="M226.572 173.794H223.165L230.235 164.526L216.103 173.794H197.846C193.384 173.794 189.766 177.414 189.766 181.882C189.766 186.347 193.382 189.969 197.846 189.969H226.574C231.035 189.969 234.654 186.349 234.654 181.882C234.654 177.416 231.037 173.794 226.574 173.794H226.572Z" fill="#6EA06E"/>
<path d="M228.02 183.169H216.409C215.792 183.169 215.293 182.669 215.293 182.052C215.293 181.435 215.792 180.935 216.409 180.935H228.02C228.636 180.935 229.136 181.435 229.136 182.052C229.136 182.669 228.636 183.169 228.02 183.169Z" fill="#FFFFBA"/>
<path d="M211.683 183.169H209.133C208.517 183.169 208.018 182.669 208.018 182.052C208.018 181.435 208.517 180.935 209.133 180.935H211.683C212.3 180.935 212.799 181.435 212.799 182.052C212.799 182.669 212.3 183.169 211.683 183.169Z" fill="#FFFFBA"/>
<path d="M203.86 183.169H198.354C197.737 183.169 197.238 182.669 197.238 182.052C197.238 181.435 197.737 180.935 198.354 180.935H203.86C204.477 180.935 204.976 181.435 204.976 182.052C204.976 182.669 204.477 183.169 203.86 183.169Z" fill="#FFFFBA"/>
<path d="M66.4819 252.696C103.199 252.696 132.964 222.904 132.964 186.153C132.964 149.403 103.199 119.61 66.4819 119.61C29.765 119.61 0 149.403 0 186.153C0 222.904 29.765 252.696 66.4819 252.696Z" fill="#FFC86B"/>
<path d="M66.4819 239.911C96.1443 239.911 120.19 215.843 120.19 186.153C120.19 156.464 96.1443 132.396 66.4819 132.396C36.8196 132.396 12.7734 156.464 12.7734 186.153C12.7734 215.843 36.8196 239.911 66.4819 239.911Z" fill="#FCB85C"/>
<path d="M66.4824 223.898C87.3095 223.898 104.193 206.999 104.193 186.153C104.193 165.307 87.3095 148.408 66.4824 148.408C45.6552 148.408 28.7715 165.307 28.7715 186.153C28.7715 206.999 45.6552 223.898 66.4824 223.898Z" fill="#F9A54A"/>
<path d="M122.822 223.399C116.428 201.129 107.985 180.83 103.011 179.092C95.8957 175.979 79.3336 173.669 70.1526 173.669C69.248 173.669 68.3471 173.675 67.4481 173.684C66.549 173.673 65.6481 173.669 64.7435 173.669C55.5606 173.669 38.9985 175.979 31.8847 179.092C26.9111 180.83 16.8609 200.607 9.68735 222.725C2.12872 245.716 0.560547 255.878 0.560547 255.878H19.9879C19.9879 255.878 31.5184 221.915 32.4212 222.16C32.7726 222.256 32.167 226.426 31.8941 232.639C31.4642 242.421 31.1352 255.878 31.1352 255.878H103.757C103.757 255.878 103.454 243.686 103.036 234.141C102.738 227.372 102.206 222.325 102.471 222.158C103.109 221.76 112.484 255.876 112.484 255.876H130.833C130.833 255.876 129.941 248.193 122.822 223.397V223.399Z" fill="#4F5375"/>
<path d="M69.0051 231.499L68.4238 231.202L87.5877 193.717L80.0272 187.296L86.655 184.508L84.8326 175.431L85.4737 175.302L87.4008 184.903L81.2608 187.487L88.4045 193.554L69.0051 231.499Z" fill="#41456A"/>
<path d="M67.0757 257.747L46.9399 193.038L53.6668 189.694L45.6035 187.131L47.7642 176.823L48.4034 176.956L46.3642 186.686L55.4051 189.562L47.7287 193.374L66.2982 253.049L65.4627 221.412L66.115 221.395L67.0757 257.747Z" fill="#41456A"/>
<path d="M75.7952 157.223C75.7952 157.223 77.597 169.946 77.8643 174.939C78.0381 178.176 71.272 188.25 66.6965 188.25C60.6555 188.25 56.1136 178.761 56.2389 175.154C56.4164 170.094 57.4893 157.225 57.4893 157.225H75.7933L75.7952 157.223Z" fill="#DF7F61"/>
<path opacity="0.62" d="M56.5795 169.185L77.4704 170.464L78.1564 177.755C78.1564 177.755 72.7902 177.39 66.4802 175.817C60.4299 174.307 56.4375 171.342 56.4375 171.342L56.5777 169.185H56.5795Z" fill="#C8604D"/>
<path d="M66.5192 218.791C60.6502 204.605 53.1233 187.24 53.3794 174.423L56.2765 173.948C56.2765 173.948 60.3474 178.795 65.551 184.134C66.3715 184.976 66.7453 188.252 66.7453 188.252C66.7453 188.252 69.02 184.939 69.8686 183.824C73.076 179.611 77.7693 173.626 77.7693 173.626L81.1953 174.387C80.7411 188.473 72.7115 206.44 66.521 218.791H66.5192Z" fill="#E8EAFA"/>
<path d="M66.8456 215.141H66.1914V192.276C66.1914 186.198 69.2474 184.005 69.81 183.856L69.9726 183.813L70.1016 183.921C70.152 183.964 71.3669 184.982 72.0641 186.241C72.5239 187.073 72.8435 187.962 73.0099 188.475C77.3443 185.47 79.3125 181.412 79.333 181.371L79.9237 181.652C79.8377 181.833 77.7536 186.14 73.0061 189.266L72.6304 189.513L72.5127 189.079C72.5089 189.066 72.1407 187.726 71.494 186.555C70.995 185.653 70.1744 184.86 69.838 184.555C69.1483 184.971 66.8456 187.154 66.8456 192.274V215.139V215.141Z" fill="#CDD1E9"/>
<path d="M66.2303 191.238C66.2303 188.525 65.9369 185.532 65.4397 184.782C64.7911 185.403 62.6753 188.149 62.165 189.9L62.079 190.194L61.78 190.128C61.7052 190.111 59.9427 189.696 57.8904 187.341C56.012 185.184 54.812 183.382 54.8008 183.364L55.3447 183.002C55.3559 183.019 56.5353 184.789 58.382 186.912C59.8156 188.561 61.0959 189.189 61.6417 189.399C62.3874 187.375 64.8154 184.224 65.3537 184.058C65.4677 184.022 65.5836 184.041 65.6752 184.104C66.8209 184.888 66.8808 190.184 66.8808 191.241H66.2266L66.2303 191.238Z" fill="#CDD1E9"/>
<path d="M82.322 118.707C85.5873 122.714 88.8975 127.007 88.1087 137.877C87.8433 141.547 86.8097 142.026 86.6808 143.313C86.4023 146.08 86.8097 147.347 86.0509 150.495C85.6714 152.074 87.1181 172.335 68.5954 172.805C50.0726 173.274 51.3586 156.155 49.9231 150.452C49.067 147.047 49.4016 145.515 48.9998 143.313C48.6895 141.609 47.355 140.462 46.998 134.451C46.3176 123.015 51.452 118.458 58.7396 115.605C67.1786 112.301 79.0567 114.699 82.322 118.707Z" fill="#443942"/>
<path d="M83.9984 140.501C83.9984 140.501 82.8545 148.022 82.5686 150.112C82.2826 152.201 81.4247 154.987 78.279 155.404C75.1333 155.821 70.3895 153.176 67.9709 153.315C65.5523 153.453 61.5487 156.328 58.4011 155.449C55.2554 154.568 53.3957 153.176 52.5378 143.845C51.6799 134.513 51.9658 131.031 55.9694 129.22C59.9731 127.41 65.6944 125.599 71.5558 126.714C77.4192 127.829 83.9966 131.031 83.9966 140.503L83.9984 140.501Z" fill="#DF7F61"/>
<path d="M64.8013 138.638C64.8368 139.182 62.4967 139.396 60.3117 139.676C58.0482 139.966 55.9343 140.299 55.8259 139.461C55.7268 138.698 57.6763 137.882 59.7603 137.708C62.1659 137.506 64.762 138.045 64.8013 138.638Z" fill="#453940"/>
<path d="M71.2084 138.602C71.0775 139.184 73.4195 139.399 75.6774 139.605C77.7184 139.79 79.6847 140.03 79.7875 139.461C79.8922 138.876 77.8717 137.877 75.7839 137.665C73.5971 137.443 71.3336 138.036 71.2065 138.602H71.2084Z" fill="#453940"/>
<path d="M68.0249 151.543C67.4735 151.543 66.8959 151.47 66.3371 151.384C66.0754 151.345 65.8978 151.1 65.9371 150.838C65.9763 150.576 66.223 150.398 66.4829 150.438C68.5239 150.752 69.4248 150.559 69.8117 149.725C70.0098 149.298 69.6098 148.282 69.2902 147.467C69.1407 147.087 69.0005 146.73 68.8959 146.391C68.4248 144.861 68.8043 139.781 68.8491 139.209C68.8697 138.945 69.0958 138.747 69.3631 138.769C69.6267 138.79 69.8229 139.02 69.8024 139.284C69.6846 140.794 69.4566 144.962 69.8098 146.11C69.9033 146.413 70.0379 146.756 70.1799 147.119C70.6079 148.208 71.0491 149.332 70.679 150.131C70.1631 151.242 69.15 151.545 68.0267 151.545L68.0249 151.543Z" fill="#C8604D"/>
<path d="M75.434 142.61C74.0303 142.481 73.8733 144.763 75.2209 144.905C76.5685 145.049 76.8358 142.737 75.434 142.61Z" fill="#351D14"/>
<path d="M61.2679 142.61C59.8642 142.481 59.7072 144.763 61.0549 144.905C62.4025 145.049 62.6698 142.737 61.2679 142.61Z" fill="#351D14"/>
<path d="M74.4991 157.638C74.4991 157.638 73.0992 161.144 68.4601 161.144C63.821 161.144 62.2304 157.857 62.2285 157.85L74.4991 157.636V157.638Z" fill="#FBFBFB"/>
<path d="M86.7667 142.144C86.7667 142.144 89.6077 139.897 89.8694 144.187C90.1311 148.477 86.191 151.349 85.8639 151.133C85.5368 150.918 86.7667 142.142 86.7667 142.142V142.144Z" fill="#DF7F61"/>
<path d="M49.246 142.144C49.246 142.144 46.405 139.897 46.1433 144.187C45.8816 148.477 49.8236 151.322 50.1488 151.133C50.474 150.945 49.246 142.142 49.246 142.142V142.144Z" fill="#DF7F61"/>
<path d="M49.2128 126.371C49.2128 126.371 50.9492 118.346 62.8441 115.797C74.7391 113.249 78.995 112.941 81.7463 115.797C83.9089 118.044 82.0379 119.691 84.5369 120.693C87.0359 121.696 88.3592 121.546 88.8676 123.7C89.5404 126.545 85.6415 134.148 85.6415 134.148C85.6415 134.148 82.0846 125.131 70.9037 125.275C59.7227 125.419 49.2109 126.373 49.2109 126.373L49.2128 126.371Z" fill="#443942"/>
<path opacity="0.11" d="M92.1266 177.676H96.1975L87.7511 166.605L104.635 177.676H126.447C131.778 177.676 136.099 182.001 136.099 187.337C136.099 192.673 131.778 196.998 126.447 196.998H92.1266C86.796 196.998 82.4746 192.673 82.4746 187.337C82.4746 182.001 86.796 177.676 92.1266 177.676Z" fill="#282A3E"/>
<path d="M92.1266 172.318H96.1975L87.7511 161.247L104.635 172.318H126.447C131.778 172.318 136.099 176.644 136.099 181.979C136.099 187.315 131.778 191.64 126.447 191.64H92.1266C86.796 191.64 82.4746 187.315 82.4746 181.979C82.4746 176.644 86.796 172.318 92.1266 172.318Z" fill="#6EA06E"/>
<path d="M127.561 183.206H113.69C113.073 183.206 112.574 182.707 112.574 182.09C112.574 181.472 113.073 180.973 113.69 180.973H127.561C128.177 180.973 128.676 181.472 128.676 182.09C128.676 182.707 128.177 183.206 127.561 183.206Z" fill="#FFFFBA"/>
<path d="M108.041 183.206H104.995C104.378 183.206 103.879 182.707 103.879 182.09C103.879 181.472 104.378 180.973 104.995 180.973H108.041C108.658 180.973 109.157 181.472 109.157 182.09C109.157 182.707 108.658 183.206 108.041 183.206Z" fill="#FFFFBA"/>
<path d="M99.2479 183.206H92.6705C92.0537 183.206 91.5547 182.707 91.5547 182.09C91.5547 181.472 92.0537 180.973 92.6705 180.973H99.2479C99.8647 180.973 100.364 181.472 100.364 182.09C100.364 182.707 99.8647 183.206 99.2479 183.206Z" fill="#FFFFBA"/>
<path opacity="0.11" d="M365.638 217.685L348.667 146.375L348.156 217.685H365.638Z" fill="black"/>
<path d="M414.414 94.2829H417.821L413.212 105.483L424.883 94.2829H443.14C447.602 94.2829 451.22 90.6629 451.22 86.1954C451.22 81.7298 447.604 78.1079 443.14 78.1079H414.412C409.951 78.1079 406.332 81.7279 406.332 86.1954C406.332 90.661 409.949 94.2829 414.412 94.2829H414.414Z" fill="#6EA06E"/>
<path d="M444.626 87.2787H426.602C425.985 87.2787 425.486 86.7792 425.486 86.1618C425.486 85.5444 425.985 85.0449 426.602 85.0449H444.626C445.243 85.0449 445.742 85.5444 445.742 86.1618C445.742 86.7792 445.243 87.2787 444.626 87.2787Z" fill="#FFFFBA"/>
<path d="M421.423 87.2787H414.96C414.343 87.2787 413.844 86.7792 413.844 86.1618C413.844 85.5444 414.343 85.0449 414.96 85.0449H421.423C422.04 85.0449 422.539 85.5444 422.539 86.1618C422.539 86.7792 422.04 87.2787 421.423 87.2787Z" fill="#FFFFBA"/>
<path d="M180.128 34.2731H176.721L182.902 43.5729L169.658 34.2731H151.4C146.939 34.2731 143.32 30.6531 143.32 26.1856C143.32 21.72 146.937 18.0981 151.4 18.0981H180.128C184.59 18.0981 188.209 21.7182 188.209 26.1856C188.209 30.6513 184.592 34.2731 180.128 34.2731Z" fill="#6EA06E"/>
<path d="M180.688 27.3065H169.077C168.46 27.3065 167.961 26.807 167.961 26.1896C167.961 25.5723 168.46 25.0728 169.077 25.0728H180.688C181.304 25.0728 181.803 25.5723 181.803 26.1896C181.803 26.807 181.304 27.3065 180.688 27.3065Z" fill="#FFFFBA"/>
<path d="M164.349 27.3065H161.799C161.183 27.3065 160.684 26.807 160.684 26.1896C160.684 25.5723 161.183 25.0728 161.799 25.0728H164.349C164.966 25.0728 165.465 25.5723 165.465 26.1896C165.465 26.807 164.966 27.3065 164.349 27.3065Z" fill="#FFFFBA"/>
<path d="M156.987 27.3065H151.481C150.864 27.3065 150.365 26.807 150.365 26.1896C150.365 25.5723 150.864 25.0728 151.481 25.0728H156.987C157.604 25.0728 158.103 25.5723 158.103 26.1896C158.103 26.807 157.604 27.3065 156.987 27.3065Z" fill="#FFFFBA"/>
<path d="M123.611 253.797H102.589C102.589 253.797 84.2811 206.12 111.527 205.68C139.847 205.223 123.609 253.797 123.609 253.797H123.611Z" fill="#6EA06E"/>
<path d="M120.185 253.904L119.253 253.693C119.286 253.545 122.597 238.801 123.303 226.051C123.662 219.59 121.841 213.741 118.311 210.005C116.27 207.847 113.829 206.608 111.612 206.608C109.53 206.608 107.427 207.603 105.694 209.412C103.775 211.414 100.612 216.217 101.009 225.879C101.416 235.796 105.326 253.517 105.367 253.694L104.433 253.902C104.393 253.724 100.463 235.92 100.053 225.919C99.7487 218.495 101.508 212.398 105.005 208.75C106.92 206.752 109.268 205.652 111.614 205.652C114.092 205.652 116.787 206.999 119.008 209.349C122.72 213.276 124.634 219.384 124.26 226.106C123.548 238.937 120.221 253.756 120.187 253.904H120.185Z" fill="#628F62"/>
<path d="M109.842 253.844C109.825 253.666 108.077 235.89 107.234 225.939C106.731 219.997 106.146 206.129 111.569 205.654C112.404 205.581 113.176 205.867 113.864 206.505C114.774 207.349 117.727 211.175 117.555 224.946C117.438 234.438 115.811 253.646 115.796 253.838L114.843 253.758C114.86 253.565 116.482 234.391 116.6 224.934C116.71 216.177 115.38 209.218 113.215 207.207C112.727 206.754 112.215 206.558 111.655 206.606C108.582 206.876 107.223 214.432 108.189 225.857C109.032 235.802 110.778 253.571 110.795 253.75L109.843 253.844H109.842Z" fill="#628F62"/>
<path d="M127.393 229.08C127.135 229.08 126.924 228.874 126.914 228.616C126.907 228.352 127.114 228.132 127.378 228.124L129.589 228.057C129.856 228.034 130.073 228.257 130.082 228.521C130.09 228.784 129.882 229.005 129.619 229.013L127.408 229.08C127.408 229.08 127.398 229.08 127.393 229.08Z" fill="#628F62"/>
<path d="M128.544 239.138C128.524 239.138 128.503 239.137 128.482 239.134L126.288 238.848C126.026 238.814 125.841 238.573 125.875 238.311C125.909 238.049 126.148 237.862 126.411 237.897L128.606 238.183C128.867 238.217 129.053 238.458 129.019 238.72C128.987 238.962 128.781 239.138 128.546 239.138H128.544Z" fill="#628F62"/>
<path d="M126.352 249.367C126.326 249.367 126.3 249.367 126.273 249.361L124.09 249.002C123.83 248.959 123.653 248.712 123.696 248.452C123.739 248.192 123.986 248.014 124.245 248.057L126.428 248.417C126.688 248.46 126.866 248.707 126.823 248.967C126.784 249.201 126.582 249.367 126.352 249.367Z" fill="#628F62"/>
<path d="M123.038 211.199C122.913 211.199 122.79 211.15 122.696 211.055C122.511 210.866 122.517 210.563 122.705 210.378L124.29 208.832C124.479 208.649 124.782 208.653 124.967 208.842C125.152 209.031 125.146 209.334 124.958 209.519L123.373 211.064C123.279 211.154 123.16 211.201 123.04 211.201L123.038 211.199Z" fill="#628F62"/>
<path d="M126.924 219.083C126.728 219.083 126.545 218.961 126.474 218.764C126.384 218.516 126.515 218.241 126.763 218.153L128.846 217.406C129.094 217.318 129.369 217.447 129.457 217.696C129.545 217.945 129.416 218.22 129.167 218.308L127.085 219.054C127.032 219.073 126.976 219.083 126.924 219.083Z" fill="#628F62"/>
<path d="M97.973 229.08C97.973 229.08 97.9637 229.08 97.9581 229.08L95.7469 229.013C95.4834 229.005 95.2759 228.785 95.2834 228.521C95.2909 228.257 95.517 228.042 95.7768 228.057L97.988 228.124C98.2515 228.132 98.459 228.352 98.4515 228.616C98.444 228.876 98.231 229.08 97.973 229.08Z" fill="#628F62"/>
<path d="M96.8206 239.137C96.5832 239.137 96.3776 238.962 96.3477 238.72C96.3141 238.458 96.4991 238.217 96.7608 238.183L98.9551 237.897C99.2186 237.86 99.4579 238.047 99.4915 238.311C99.5252 238.572 99.3401 238.814 99.0785 238.847L96.8841 239.134C96.8636 239.136 96.843 239.137 96.8225 239.137H96.8206Z" fill="#628F62"/>
<path d="M99.0145 249.367C98.7846 249.367 98.5809 249.201 98.5435 248.967C98.5005 248.707 98.6781 248.46 98.9379 248.417L101.121 248.057C101.383 248.014 101.628 248.192 101.671 248.452C101.714 248.712 101.536 248.959 101.276 249.002L99.093 249.361C99.0669 249.365 99.0407 249.367 99.0145 249.367Z" fill="#628F62"/>
<path d="M101.902 210.933C101.786 210.933 101.672 210.892 101.58 210.808L99.9467 209.315C99.7523 209.137 99.7373 208.834 99.9168 208.64C100.094 208.445 100.397 208.432 100.591 208.61L102.225 210.103C102.419 210.28 102.434 210.583 102.255 210.778C102.162 210.881 102.031 210.933 101.902 210.933Z" fill="#628F62"/>
<path d="M97.9734 218.996C97.9323 218.996 97.8912 218.991 97.85 218.98L95.7137 218.405C95.4595 218.336 95.3081 218.074 95.3754 217.818C95.4445 217.563 95.7062 217.414 95.9604 217.479L98.0968 218.054C98.351 218.123 98.5024 218.385 98.4351 218.641C98.3771 218.854 98.1846 218.996 97.9734 218.996Z" fill="#628F62"/>
<path d="M117.592 224.974C117.334 224.974 117.123 224.768 117.113 224.51C117.106 224.246 117.313 224.025 117.577 224.018L119.788 223.95C120.055 223.932 120.272 224.151 120.282 224.414C120.289 224.678 120.082 224.899 119.818 224.906L117.607 224.974C117.607 224.974 117.598 224.974 117.592 224.974Z" fill="#628F62"/>
<path d="M119.019 233.198C118.998 233.198 118.978 233.198 118.957 233.194L116.763 232.908C116.501 232.874 116.316 232.633 116.35 232.371C116.383 232.109 116.624 231.924 116.886 231.958L119.08 232.244C119.342 232.277 119.527 232.519 119.493 232.781C119.462 233.022 119.256 233.198 119.021 233.198H119.019Z" fill="#628F62"/>
<path d="M118.875 243.985C118.849 243.985 118.823 243.985 118.797 243.979L116.614 243.62C116.354 243.577 116.176 243.33 116.219 243.07C116.262 242.808 116.511 242.632 116.769 242.675L118.952 243.035C119.212 243.078 119.389 243.325 119.346 243.585C119.307 243.818 119.105 243.985 118.875 243.985Z" fill="#628F62"/>
<path d="M117.123 215.446C116.927 215.446 116.744 215.324 116.673 215.128C116.583 214.879 116.714 214.604 116.963 214.516L119.045 213.77C119.293 213.682 119.568 213.811 119.656 214.059C119.746 214.308 119.615 214.583 119.366 214.671L117.284 215.418C117.232 215.436 117.176 215.446 117.123 215.446Z" fill="#628F62"/>
<path d="M107.227 224.964H107.218L105.006 224.925C104.743 224.921 104.532 224.703 104.537 224.439C104.543 224.175 104.767 223.977 105.023 223.969L107.234 224.009C107.498 224.012 107.709 224.231 107.703 224.495C107.7 224.757 107.485 224.964 107.225 224.964H107.227Z" fill="#628F62"/>
<path d="M105.902 233.207C105.668 233.207 105.462 233.035 105.429 232.796C105.391 232.534 105.573 232.291 105.834 232.253L108.025 231.941C108.283 231.903 108.528 232.085 108.565 232.347C108.602 232.609 108.421 232.852 108.159 232.889L105.969 233.202C105.946 233.205 105.924 233.205 105.902 233.205V233.207Z" fill="#628F62"/>
<path d="M106.178 243.992C105.95 243.992 105.748 243.83 105.707 243.598C105.66 243.338 105.834 243.089 106.094 243.042L108.273 242.657C108.533 242.612 108.781 242.784 108.826 243.046C108.873 243.306 108.699 243.555 108.439 243.601L106.26 243.987C106.232 243.992 106.204 243.994 106.176 243.994L106.178 243.992Z" fill="#628F62"/>
<path d="M107.578 215.435C107.525 215.435 107.473 215.427 107.423 215.408L105.331 214.688C105.081 214.602 104.948 214.329 105.034 214.08C105.12 213.831 105.391 213.697 105.641 213.783L107.733 214.503C107.983 214.589 108.116 214.862 108.03 215.111C107.963 215.309 107.776 215.435 107.578 215.435Z" fill="#628F62"/>
</g>
<defs>
<clipPath id="clip0_1815_944">
<rect width="452" height="295" fill="white"/>
</clipPath>
</defs>
</svg>
