<svg width="561" height="414" viewBox="0 0 561 414" fill="none" xmlns="http://www.w3.org/2000/svg">
<g clip-path="url(#clip0_534_8953)">
<path d="M61.8125 107.647H497.486" stroke="white" stroke-width="1.97" stroke-miterlimit="10"/>
<path d="M491.797 79.0884H67.5008C64.3593 79.0884 61.8125 81.6355 61.8125 84.7774V342.983C61.8125 346.125 64.3593 348.672 67.5008 348.672H491.797C494.939 348.672 497.486 346.125 497.486 342.983V84.7774C497.486 81.6355 494.939 79.0884 491.797 79.0884Z" stroke="white" stroke-width="1.97" stroke-miterlimit="10"/>
<path d="M90.5249 93.6599C90.5249 95.8588 88.7364 97.6475 86.5379 97.6475C84.3393 97.6475 82.5508 95.8588 82.5508 93.6599C82.5508 91.4611 84.3306 89.6724 86.5379 89.6724C88.7452 89.6724 90.5249 91.4611 90.5249 93.6599Z" fill="#FFB1A5"/>
<path d="M106.011 93.6599C106.011 95.8588 104.223 97.6475 102.024 97.6475C99.8256 97.6475 98.0371 95.8588 98.0371 93.6599C98.0371 91.4611 99.8256 89.6724 102.024 89.6724C104.223 89.6724 106.011 91.4611 106.011 93.6599Z" fill="#EAD254"/>
<path d="M121.505 93.6599C121.505 95.8588 119.717 97.6475 117.518 97.6475C115.32 97.6475 113.531 95.8588 113.531 93.6599C113.531 91.4611 115.311 89.6724 117.518 89.6724C119.726 89.6724 121.505 91.4611 121.505 93.6599Z" fill="#00857B"/>
<path d="M554.081 98.6948H451.691C448.805 98.6948 446.465 101.035 446.465 103.921V198.628C446.465 201.515 448.805 203.855 451.691 203.855H554.081C556.967 203.855 559.307 201.515 559.307 198.628V103.921C559.307 101.035 556.967 98.6948 554.081 98.6948Z" fill="#FA9794"/>
<path d="M554.081 98.6948H451.691C448.805 98.6948 446.465 101.035 446.465 103.921V198.628C446.465 201.515 448.805 203.855 451.691 203.855H554.081C556.967 203.855 559.307 201.515 559.307 198.628V103.921C559.307 101.035 556.967 98.6948 554.081 98.6948Z" stroke="white" stroke-width="1.97" stroke-miterlimit="10"/>
<path d="M476.451 176.5H529.67C532.57 176.5 534.922 174.149 534.922 171.248V127.629C534.922 124.728 532.57 122.376 529.67 122.376H476.451C473.55 122.376 471.198 124.728 471.198 127.629V171.248C471.198 174.149 473.55 176.5 476.451 176.5Z" fill="#0093D1"/>
<path d="M517.587 158.438H492.679H488.186V138.71H517.587V143.64V158.438Z" stroke="white" stroke-width="1.65" stroke-linecap="round" stroke-linejoin="round"/>
<path d="M488.186 138.71L502.886 150.297L517.587 138.71" stroke="white" stroke-width="1.65" stroke-linecap="round" stroke-linejoin="round"/>
<path d="M103.49 188.044H5.83713C3.08584 188.044 0.855469 190.275 0.855469 193.026V278.179C0.855469 280.93 3.08584 283.161 5.83713 283.161H103.49C106.241 283.161 108.472 280.93 108.472 278.179V193.026C108.472 190.275 106.241 188.044 103.49 188.044Z" fill="#FA9794"/>
<path d="M103.49 188.044H5.83713C3.08584 188.044 0.855469 190.275 0.855469 193.026V278.179C0.855469 280.93 3.08584 283.161 5.83713 283.161H103.49C106.241 283.161 108.472 280.93 108.472 278.179V193.026C108.472 190.275 106.241 188.044 103.49 188.044Z" stroke="white" stroke-width="1.97" stroke-miterlimit="10"/>
<path d="M79.7432 204.334H29.0977C25.8983 204.334 23.3047 206.928 23.3047 210.128V259.044C23.3047 262.243 25.8983 264.837 29.0977 264.837H79.7432C82.9426 264.837 85.5362 262.243 85.5362 259.044V210.128C85.5362 206.928 82.9426 204.334 79.7432 204.334Z" fill="#004C70"/>
<path d="M42.3578 222.71C35.5266 229.543 35.5266 240.764 42.3578 247.596C49.1891 254.428 60.4087 254.428 67.24 247.596C74.0712 240.764 74.0712 229.543 67.24 222.71C60.4087 215.878 49.1891 215.878 42.3578 222.71ZM67.1963 225.241H61.5865C61.0281 223.478 60.304 221.716 59.4054 219.953C62.5113 220.896 65.2159 222.763 67.1963 225.241ZM48.3341 234.123C48.3341 231.846 48.6045 229.577 49.1716 227.3H60.4262C60.9845 229.577 61.255 231.846 61.2637 234.123H48.3428H48.3341ZM61.1852 236.183C61.0281 238.46 60.6181 240.729 59.9725 243.006H49.6078C48.9622 240.729 48.5522 238.46 48.3951 236.183H61.1765H61.1852ZM54.7902 219.281C55.6364 219.281 56.4653 219.351 57.2766 219.473C58.3585 221.402 59.196 223.321 59.8242 225.25H49.7474C50.3756 223.321 51.2219 221.402 52.295 219.473C53.1063 219.342 53.9352 219.281 54.7814 219.281H54.7902ZM50.1749 219.962C49.285 221.724 48.5609 223.487 47.9938 225.25H42.384C44.3644 222.772 47.069 220.904 50.1749 219.962ZM40.9881 227.3H47.4093C46.8422 229.577 46.5543 231.846 46.5107 234.123H38.9465C39.1036 231.654 39.8277 229.333 40.9881 227.3ZM40.9881 243.006C39.8277 240.973 39.1036 238.652 38.9465 236.183H46.5368C46.6502 238.46 47.0079 240.729 47.6099 243.006H40.9881ZM42.384 245.065H48.2206C48.8052 246.845 49.5293 248.634 50.393 250.414C47.1999 249.498 44.4168 247.596 42.3927 245.065H42.384ZM54.7814 251.034C54.0748 251.034 53.3855 250.99 52.705 250.894C51.7366 248.948 50.9078 247.011 50.2447 245.065H59.3269C58.6638 247.011 57.835 248.957 56.8666 250.894C56.1861 250.981 55.4881 251.034 54.7902 251.034H54.7814ZM59.1786 250.414C60.0423 248.634 60.7664 246.845 61.3509 245.065H67.1876C65.1635 247.596 62.3804 249.498 59.1873 250.414H59.1786ZM68.5835 243.006H61.9617C62.5636 240.729 62.9214 238.46 63.0348 236.183H70.625C70.468 238.652 69.7439 240.973 68.5835 243.006ZM70.625 234.123H63.0609C63.0173 231.846 62.7207 229.577 62.1623 227.3H68.5835C69.7439 229.333 70.468 231.654 70.625 234.123Z" fill="white"/>
<path d="M97.671 54.2116H9.20501C7.3816 54.2116 5.89844 52.7283 5.89844 50.9046C5.89844 49.081 7.3816 47.5977 9.20501 47.5977H97.671C99.4944 47.5977 100.978 49.081 100.978 50.9046C100.978 52.7283 99.4944 54.2116 97.671 54.2116Z" fill="#FF918E"/>
<path d="M557.686 270.325H514.744C512.921 270.325 511.438 268.842 511.438 267.018C511.438 265.195 512.921 263.711 514.744 263.711H557.686C559.509 263.711 560.992 265.195 560.992 267.018C560.992 268.842 559.509 270.325 557.686 270.325Z" fill="#282828"/>
<path d="M527.622 298.692H522.37C520.992 298.692 519.875 299.81 519.875 301.188V306.118C519.875 307.496 520.992 308.613 522.37 308.613H527.622C529 308.613 530.118 307.496 530.118 306.118V301.188C530.118 299.81 529 298.692 527.622 298.692Z" fill="#FFB1A5"/>
<path d="M30.2825 321.623H25.0304C23.6523 321.623 22.5352 322.74 22.5352 324.119V329.048C22.5352 330.427 23.6523 331.544 25.0304 331.544H30.2825C31.6605 331.544 32.7777 330.427 32.7777 329.048V324.119C32.7777 322.74 31.6605 321.623 30.2825 321.623Z" fill="#FFB1A5"/>
<path d="M431.851 24.2134H344.528C343.078 24.2134 341.902 25.3893 341.902 26.8398V48.1649C341.902 49.6155 343.078 50.7913 344.528 50.7913H431.851C433.302 50.7913 434.478 49.6155 434.478 48.1649V26.8398C434.478 25.3893 433.302 24.2134 431.851 24.2134Z" fill="#FFB1A5"/>
<path d="M354.508 33.6807H416.608" stroke="white" stroke-width="1.18" stroke-miterlimit="10"/>
<path d="M354.508 40.0591H379.8" stroke="white" stroke-width="1.18" stroke-miterlimit="10"/>
<path d="M351.98 47.7812V58.1385L365.006 47.7812H351.98Z" fill="#FFB1A5"/>
<path d="M173.251 0H217.318C220.433 0 222.954 2.52168 222.954 5.63669V46.7339C222.954 49.8489 220.433 52.3706 217.318 52.3706H175.048C170.948 52.3706 167.615 49.0375 167.615 44.9365V5.63669C167.615 2.52168 170.137 0 173.251 0Z" fill="#F4D00C"/>
<path d="M208.203 30.0594L205.053 26.9095C204.495 26.29 203.762 25.9497 203.029 25.9497C202.296 25.9497 201.563 26.29 201.005 26.8484L199.208 28.6459C199.094 28.5935 198.981 28.5324 198.867 28.4801C198.641 28.3667 198.475 28.3143 198.309 28.2009C196.625 27.1276 195.098 25.7228 193.641 23.9254C192.97 23.079 192.464 22.2937 192.176 21.6218C192.629 21.2292 193.022 20.7754 193.415 20.3828C193.58 20.217 193.755 20.0425 193.921 19.8767C194.54 19.2572 194.88 18.5243 194.88 17.7913C194.88 17.0584 194.54 16.3254 193.921 15.7059L192.342 14.1266C192.176 13.9608 192.001 13.7863 191.836 13.5682L190.762 12.4949C190.204 11.9365 189.471 11.5962 188.738 11.5962C188.005 11.5962 187.334 11.8754 186.714 12.4949L184.743 14.4669C184.01 15.1998 183.565 16.1509 183.451 17.2242C183.338 18.9082 183.792 20.4875 184.184 21.4997C185.083 24.0911 186.487 26.3947 188.573 28.8727C191.103 31.8569 194.086 34.2215 197.576 35.9055C198.867 36.525 200.673 37.258 202.636 37.4237H203.029C204.381 37.4237 205.507 36.9177 206.405 35.9579L206.458 35.9055C206.737 35.5652 207.077 35.2336 207.47 34.8933L208.203 34.1604C209.38 32.9214 209.38 31.2373 208.203 30.0507V30.0594ZM206.911 32.9825C206.685 33.2093 206.458 33.4362 206.24 33.6543C205.847 33.9946 205.507 34.3873 205.114 34.7799C204.556 35.3471 203.936 35.6263 203.09 35.6263H202.811C201.127 35.5129 199.548 34.841 198.422 34.2738C195.212 32.6945 192.403 30.5044 190.038 27.6861C188.128 25.3825 186.828 23.1837 185.929 20.8802C185.371 19.5277 185.144 18.4632 185.257 17.3899C185.31 16.7704 185.536 16.212 186.042 15.7583L187.953 13.8474C188.119 13.6816 188.407 13.4547 188.738 13.4547C189.07 13.4547 189.297 13.6205 189.524 13.8474C189.864 14.1877 190.195 14.5192 190.536 14.8595C190.701 15.0253 190.876 15.2522 191.094 15.418L192.673 16.9973C192.839 17.1631 193.066 17.5034 193.066 17.7826C193.066 18.1229 192.839 18.4021 192.673 18.5679L192.167 19.074L190.762 20.4788L190.71 20.5311C190.152 21.0896 190.256 21.6044 190.37 21.9359V21.9883C190.762 23.0005 191.382 23.8992 192.228 25.0248C193.807 26.9967 195.491 28.515 197.349 29.6929C197.576 29.8587 197.855 29.9721 198.082 30.0856C198.309 30.199 198.475 30.2514 198.641 30.3648L198.693 30.4172C199.251 30.6964 199.818 30.5829 200.272 30.1379L202.244 28.166C202.41 28.0002 202.697 27.7733 203.029 27.7733C203.308 27.7733 203.587 28.0002 203.762 28.166L206.911 31.3159C207.417 31.822 207.417 32.3891 206.911 32.9476V32.9825Z" fill="white"/>
<path d="M401.185 250.667L369.34 246.426L369.593 249.585L342.364 253.215C342.364 253.215 324.811 297.252 340.279 394.097H362.431L370.405 295.891H373.232L380.953 394.097H403.104C418.573 297.244 401.193 250.658 401.193 250.658L401.185 250.667Z" fill="#282828"/>
<path d="M360.266 295.891H383.377" stroke="#F2635F" stroke-width="1.23" stroke-linecap="round" stroke-linejoin="round"/>
<path d="M419.776 204.212C417.054 199.867 401.751 200.015 400.94 199.919C396.805 199.431 403.592 232.361 412.203 261.146C413.852 266.661 419.924 269.54 425.229 267.289L425.403 267.219C429.6 265.439 431.982 260.989 431.144 256.513C427.052 234.795 422.943 209.247 419.785 204.212H419.776Z" fill="#FFCEC7"/>
<path d="M423.423 216.114L403.889 223.697L402.057 214.43L422.289 209.378L423.423 216.114Z" fill="#FFAC9F"/>
<path d="M427.112 234.665C427.112 234.665 417.856 247.099 418.301 246.523C418.746 245.947 425.559 226.428 425.559 226.428L427.112 234.656V234.665Z" fill="#FFAC9F"/>
<path d="M440.35 217.955L413.819 252.334C410.338 256.845 411.446 263.371 416.227 266.478C420.999 269.575 427.403 267.944 430.116 262.944L452.198 222.196L440.341 217.955H440.35Z" fill="#FFCEC7"/>
<path d="M447.225 226.786C441.475 224.927 438.317 218.758 440.175 213.008C442.034 207.258 448.202 204.099 453.951 205.958C459.701 207.816 462.859 213.985 461.001 219.735C459.142 225.485 452.974 228.644 447.225 226.786Z" fill="#FFCEC7"/>
<path d="M458.568 209.788C458.568 209.788 461.56 206.682 456.247 204.5C450.934 202.319 444.364 202.816 440.168 213.008L458.559 209.797L458.568 209.788Z" fill="#FFCEC7"/>
<path d="M464.072 188.061L475.179 192.878C475.798 193.148 476.025 193.881 475.684 194.518L461.071 221.821C460.731 222.458 459.954 222.754 459.335 222.484L448.229 217.667C447.609 217.397 447.382 216.664 447.723 216.027L462.336 188.725C462.676 188.088 463.453 187.791 464.072 188.061Z" fill="#372F5F"/>
<path d="M463.008 187.573L474.114 192.389C474.733 192.66 474.96 193.393 474.62 194.03L460.007 221.332C459.666 221.969 458.89 222.265 458.27 221.995L447.164 217.178C446.545 216.908 446.318 216.175 446.658 215.538L461.272 188.236C461.612 187.599 462.388 187.302 463.008 187.573Z" fill="#261B43"/>
<path d="M461.761 190.356L471.515 194.588L459.606 216.838L449.844 212.606L461.761 190.356Z" fill="#E6E6E6"/>
<path d="M471.515 194.588L449.844 212.606L461.761 190.356L471.515 194.588Z" fill="white"/>
<path d="M453.062 203.593C453.062 203.593 455.54 204.073 457.764 205.338C458.75 205.896 459.248 207.031 458.977 208.13C458.733 209.133 457.886 209.875 456.866 210.006L451.09 210.73C451.09 210.73 448.08 215.922 444.137 216.507L447.749 207.388L453.053 203.593H453.062Z" fill="#FFCEC7"/>
<path d="M379.296 160.916C378.659 160.916 420.257 166.675 427.114 214.098L405.53 217.405L401.177 253.215H340.96L329.008 187.058C329.008 187.058 342.348 167.94 367.116 160.916H379.287H379.296Z" fill="#F4D00C"/>
<path d="M405.531 217.405L407.407 196.699" stroke="#282828" stroke-width="1.23" stroke-linecap="round" stroke-linejoin="round"/>
<path d="M383.247 161.588V145.114H363.94V161.78C362.954 162.077 361.305 162.67 358.758 163.883L373.816 172.853L389.206 163.883C389.206 163.883 386.763 162.461 383.247 161.588Z" fill="#FFCEC7"/>
<path d="M363.766 147.13C363.766 147.13 367.229 156.335 376.486 155.541C384.992 154.808 383.64 142.051 383.64 142.051L363.766 147.13Z" fill="#282828"/>
<path d="M355.347 134.888C352.319 137.636 345.558 127.218 348.481 124.295C351.403 121.372 353.637 125.962 353.637 125.962L354.945 129.068L355.931 133.274L356.167 134.373L355.355 134.879L355.347 134.888Z" fill="#FFA496"/>
<path d="M349.895 127.986C349.895 127.986 352.189 126.956 354.222 130.272" stroke="#282828" stroke-width="0.99" stroke-linecap="round" stroke-linejoin="round"/>
<path d="M391.126 134.574C393.909 137.566 401.534 127.759 398.865 124.6C396.195 121.442 393.587 125.822 393.587 125.822L392.025 128.806L390.69 132.916L390.367 133.998L391.135 134.574H391.126Z" fill="#FFA496"/>
<path d="M397.146 128.151C397.146 128.151 394.948 126.93 392.645 130.071" stroke="#282828" stroke-width="0.99" stroke-linecap="round" stroke-linejoin="round"/>
<path d="M350.043 114.366C350.043 128.143 360.547 134.679 373.512 134.679C386.476 134.679 396.981 128.143 396.981 114.366C396.981 100.588 386.476 91.208 373.512 91.208C360.547 91.208 350.043 100.579 350.043 114.366Z" fill="#282828"/>
<path d="M353.227 115.325C353.227 123.789 354.422 131.084 355.617 136.267C356.786 141.336 360.075 144.887 364.717 147.741L365.563 148.264C370.475 151.283 376.826 151.353 381.817 148.447C386.851 145.516 390.375 141.642 391.457 136.197C393.429 126.293 393.647 115.334 393.647 115.334C393.647 115.334 395.523 93.974 373.729 94.3928C351.936 94.8116 353.235 115.334 353.235 115.334L353.227 115.325Z" fill="#FFCEC7"/>
<path d="M372.113 127.515V130.473C372.113 130.647 372.148 130.813 372.209 130.97C372.454 131.572 373.151 131.86 373.78 131.694L375.132 131.336" stroke="#282828" stroke-width="1.23" stroke-linecap="round" stroke-linejoin="round"/>
<path d="M368.65 116.049L357.814 118.589C357.814 118.589 358.303 115.831 362.735 114.828C367.167 113.824 368.642 116.049 368.642 116.049H368.65Z" fill="#282828"/>
<path d="M378.266 116.049L388.726 118.589C388.726 118.589 388.255 115.831 383.971 114.828C379.696 113.824 378.266 116.049 378.266 116.049Z" fill="#282828"/>
<path d="M364.532 125.83C365.539 125.83 366.356 125.014 366.356 124.007C366.356 123 365.539 122.183 364.532 122.183C363.525 122.183 362.709 123 362.709 124.007C362.709 125.014 363.525 125.83 364.532 125.83Z" fill="#282828"/>
<path d="M383.682 124.007C383.682 125.01 382.862 125.83 381.859 125.83C380.855 125.83 380.035 125.019 380.035 124.007C380.035 122.995 380.855 122.183 381.859 122.183C382.862 122.183 383.682 122.995 383.682 124.007Z" fill="#282828"/>
<path d="M366.365 135.132H380.455C380.455 135.132 374.209 142.732 366.365 135.132Z" fill="white"/>
<path d="M369.257 130.21C372.289 127.177 372.289 122.26 369.257 119.228C366.224 116.195 361.308 116.195 358.276 119.228C355.243 122.26 355.243 127.177 358.276 130.21C361.308 133.243 366.224 133.243 369.257 130.21Z" stroke="#C98BD2" stroke-width="1.34" stroke-miterlimit="10"/>
<path d="M388.347 130.208C391.379 127.176 391.379 122.259 388.347 119.226C385.314 116.193 380.398 116.193 377.366 119.226C374.333 122.259 374.333 127.176 377.366 130.208C380.398 133.241 385.314 133.241 388.347 130.208Z" stroke="#C98BD2" stroke-width="1.34" stroke-miterlimit="10"/>
<path d="M371.539 124.722C371.539 124.722 373.38 123.004 375.09 124.722" stroke="#C98BD2" stroke-width="1.34" stroke-miterlimit="10"/>
<path d="M355.998 124.722L353.547 124.652" stroke="#C98BD2" stroke-width="1.34" stroke-miterlimit="10"/>
<path d="M390.617 124.722L393.077 124.652" stroke="#C98BD2" stroke-width="1.34" stroke-miterlimit="10"/>
<path d="M393.368 122.401C393.368 122.401 384.653 110.622 386.659 98.6768C386.659 98.6768 393.124 101.931 394.817 110.334C396.501 118.737 393.368 122.393 393.368 122.393V122.401Z" fill="#282828"/>
<path d="M353.218 123.204C353.218 123.204 363.338 109.819 361.331 97.8828C361.331 97.8828 354.308 101.94 352.624 110.343C350.941 118.746 353.218 123.204 353.218 123.204Z" fill="#282828"/>
<path d="M392.636 103.389C392.636 103.389 381.442 115.639 350.828 113.545C350.828 113.545 355.513 95.5618 370.353 93.6509C370.353 93.6509 387.488 91.6092 392.636 103.389Z" fill="#282828"/>
<path d="M406.287 91.3973C407.574 83.424 402.154 75.9168 394.182 74.6297C386.209 73.3426 378.703 78.7629 377.416 86.7363C376.129 94.7096 381.549 102.217 389.521 103.504C397.494 104.791 405 99.3707 406.287 91.3973Z" fill="#282828"/>
<path d="M213.402 250.632L186.173 247.002L186.417 243.843L154.573 248.084C154.573 248.084 137.194 294.669 152.662 391.514H174.814L182.535 293.308H185.361L193.336 391.514H215.487C230.955 294.661 213.402 250.632 213.402 250.632Z" fill="#282828"/>
<path d="M211.229 118.143C207.547 113.807 204.589 108.746 202.085 101.652C199.39 94.0349 190.578 97.1324 190.578 97.1324C190.578 97.1324 183.232 87.6827 172.178 90.9722C161.124 94.2617 157.285 102.132 157.058 111.486C156.832 120.84 149.477 122.297 143.815 133.117C133.817 152.217 150.646 168.307 181.295 163.839L181.339 163.542C184.357 164.459 188.056 164.86 192.567 164.589C229.384 162.399 225.825 135.324 211.229 118.143Z" fill="#282828"/>
<path d="M199.172 132.305C202.199 135.053 208.96 124.635 206.038 121.712C203.115 118.789 200.882 123.379 200.882 123.379L199.573 126.485L198.587 130.691L198.352 131.79L199.163 132.296L199.172 132.305Z" fill="#FFA496"/>
<path d="M204.632 125.403C204.632 125.403 202.337 124.373 200.305 127.689" stroke="#282828" stroke-width="0.99" stroke-linecap="round" stroke-linejoin="round"/>
<path d="M163.392 131.991C160.609 134.984 152.984 125.176 155.654 122.018C158.324 118.859 160.932 123.239 160.932 123.239L162.494 126.223L163.829 130.333L164.151 131.415L163.384 131.991H163.392Z" fill="#FFA496"/>
<path d="M157.371 125.569C157.371 125.569 159.57 124.347 161.873 127.488" stroke="#282828" stroke-width="0.99" stroke-linecap="round" stroke-linejoin="round"/>
<path d="M204.484 111.783C204.484 125.56 193.98 132.096 181.016 132.096C168.051 132.096 157.547 125.56 157.547 111.783C157.547 98.0049 168.051 88.625 181.016 88.625C193.98 88.625 204.484 97.9962 204.484 111.783Z" fill="#282828"/>
<path d="M190.577 142.531H171.27V167.53H190.577V142.531Z" fill="#FFCEC7"/>
<path d="M168.461 140.978C168.461 140.978 173.835 151.702 180.448 153.377C182.211 153.822 184.104 153.674 185.805 153.072C188.292 152.19 191.45 148.482 191.982 144.372L192.235 142.025C192.235 142.025 180.475 148.43 168.47 140.978H168.461Z" fill="#282828"/>
<path d="M201.293 112.742C201.293 121.206 200.098 128.501 198.902 133.684C197.733 138.753 194.444 142.304 189.803 145.158L188.957 145.681C184.045 148.7 177.693 148.77 172.703 145.864C167.669 142.933 164.144 139.059 163.062 133.614C161.091 123.71 160.872 112.751 160.872 112.751C160.872 112.751 158.997 91.391 180.79 91.8098C202.584 92.2286 201.284 112.751 201.284 112.751L201.293 112.742Z" fill="#FFCEC7"/>
<path d="M179.559 126.084V127.838C179.559 128.012 179.593 128.178 179.655 128.335C179.899 128.937 180.597 129.225 181.225 129.059L182.577 128.702" stroke="#282828" stroke-width="1.23" stroke-linecap="round" stroke-linejoin="round"/>
<path d="M184.105 114.514L195.7 117.262C195.7 117.262 195.177 114.278 190.431 113.196C185.685 112.114 184.105 114.514 184.105 114.514Z" fill="#282828"/>
<path d="M178.015 114.514L166.271 117.262C166.271 117.262 166.804 114.278 171.611 113.196C176.418 112.114 178.015 114.514 178.015 114.514Z" fill="#282828"/>
<path d="M173.809 121.712C173.809 122.716 172.989 123.527 171.986 123.527C170.982 123.527 170.162 122.716 170.162 121.712C170.162 120.709 170.982 119.897 171.986 119.897C172.989 119.897 173.809 120.709 173.809 121.712Z" fill="#282828"/>
<path d="M191.127 121.712C191.127 122.716 190.307 123.527 189.304 123.527C188.301 123.527 187.48 122.716 187.48 121.712C187.48 120.709 188.301 119.897 189.304 119.897C190.307 119.897 191.127 120.709 191.127 121.712Z" fill="#282828"/>
<path d="M172.598 132.096H188.633C188.633 132.096 187.499 136.502 180.232 136.502C174.692 136.502 172.598 132.096 172.598 132.096Z" fill="white"/>
<path d="M161.151 119.819C161.151 119.819 169.866 108.039 167.86 96.0942C167.86 96.0942 161.395 99.3489 159.702 107.752C158.019 116.154 161.151 119.81 161.151 119.81V119.819Z" fill="#282828"/>
<path d="M201.309 119.435C201.309 119.435 191.188 107.245 193.195 95.3086C193.195 95.3086 200.218 99.366 201.902 107.769C203.586 116.171 201.309 119.435 201.309 119.435Z" fill="#282828"/>
<path d="M161.883 100.806C161.883 100.806 171.881 114.252 202.504 112.149C202.504 112.149 199.005 92.9788 184.165 91.0679C184.165 91.0679 167.03 89.0261 161.883 100.806Z" fill="#282828"/>
<path d="M133.972 309.765C133.527 310.463 159.456 196.935 151.761 198.654C151.055 198.811 137.575 200.059 135.578 204.134C129.767 215.948 125.605 308.901 125.605 308.901L133.981 309.765H133.972Z" fill="#FFCEC7"/>
<path d="M125.598 308.901C125.598 308.901 121.419 328.289 137.219 330.41C138.257 330.549 139.269 329.939 139.609 328.944L139.653 328.813C140.028 327.714 139.478 326.544 138.423 326.073C135.849 324.921 131.853 322.007 133.834 315.402C133.834 315.402 136.12 315.123 137.376 319.381C137.699 320.48 138.929 321.03 139.95 320.515C140.648 320.166 141.04 319.416 140.944 318.639C140.569 315.655 139.068 308.474 133.31 306.545L125.607 308.901H125.598Z" fill="#FFB1A5"/>
<path d="M130.91 231.418C130.91 231.418 145.846 252.456 145.925 252.054C146.003 251.644 151.151 222.51 151.151 222.51L133.021 214.657L130.91 231.418Z" fill="#FFAC9F"/>
<path d="M172.421 163.42C173.058 163.42 135.499 164.092 128.633 211.515L150.217 214.822L154.571 250.632H214.787L226.739 184.475C226.739 184.475 218.242 170.139 193.473 163.124L172.421 163.42Z" fill="#004C70"/>
<path d="M154.064 169.153C154.064 169.153 159.369 176.203 181.119 176.203C202.869 176.203 208.174 168.787 208.174 168.787C208.174 168.787 195.471 161.693 180.735 159.389C180.735 159.389 167.579 161.736 154.064 169.153Z" fill="#FFCEC7"/>
<path d="M227.961 319.406L228.013 414H274.803L278.397 319.406H227.961Z" fill="#282828"/>
<path d="M329.549 319.406L329.497 414H282.708L279.113 319.406H329.549Z" fill="#282828"/>
<path d="M303.994 319.406H255.617V352.267H303.994V319.406Z" fill="#282828"/>
<path d="M262.379 352.267H295.741" stroke="#F2635F" stroke-width="1.4" stroke-linecap="round" stroke-linejoin="round"/>
<path d="M359.106 236.863C362.012 268.912 358.949 292.27 359.796 351.246L331.869 352.415L327.707 242.02L359.106 236.863Z" fill="#FFCEC7"/>
<path d="M331.154 261.87C331.154 261.87 348.446 260.291 360.268 252.49L359.954 245.623L331.137 249.55V261.87H331.154Z" fill="#FFAC9F"/>
<path d="M303.41 163.062C303.41 163.062 358.339 176.875 368.294 246.609C368.294 246.609 341.414 258.267 314.473 253.25L320.536 229.926L303.419 163.062H303.41Z" fill="#0093D1"/>
<path d="M139.339 192.058L180.24 240.362L167.729 275.613C167.729 275.613 136.644 232.387 122.676 198.977L139.348 192.058H139.339Z" fill="#FFCEC7"/>
<path d="M140.682 193.802C140.682 193.802 126.321 201.917 122.666 198.985C116.279 193.855 111.01 175.077 111.01 175.077C111.01 175.077 137.864 164.956 137.611 165.349C137.358 165.741 140.682 193.802 140.682 193.802Z" fill="#FFCEC7"/>
<path d="M140.682 193.802C140.429 192.354 146.004 176.762 147.923 170.907C148.385 169.493 147.408 167.949 145.882 167.652C144.887 167.46 143.308 167.582 142.558 169.013L135.822 180.531L140.682 193.802Z" fill="#FFCEC7"/>
<path d="M140.185 176.936L135.561 153.927C135.291 152.4 133.746 151.344 132.211 151.632C130.885 151.885 130.004 153.063 130.161 154.398L132.176 171.535L140.176 176.945L140.185 176.936Z" fill="#FFCEC7"/>
<path d="M130.988 168.455L124.706 152.025C124.183 150.585 122.569 149.791 121.138 150.271C119.899 150.69 119.201 151.938 119.498 153.22L124.156 172.207L130.988 168.464V168.455Z" fill="#FFCEC7"/>
<path d="M124.246 173.298L116.298 157.155C115.566 155.654 113.751 154.965 112.268 155.611C110.872 156.222 110.252 157.801 110.846 159.249L117.18 174.493L124.246 173.306V173.298Z" fill="#FFCEC7"/>
<path d="M111.01 175.078L104.772 165.183C104.257 164.022 104.729 162.713 105.863 162.199C106.945 161.701 108.279 162.094 108.977 163.106L117.178 174.484L111.01 175.078Z" fill="#FFCEC7"/>
<path d="M138.927 175.209C138.927 175.209 129.566 174.223 128.598 186.709" stroke="#282828" stroke-width="1.53" stroke-linecap="round" stroke-linejoin="round"/>
<path d="M159.422 259.131C159.422 259.131 167.117 285.752 182.446 282.218C197.775 278.676 221.662 245.938 221.662 245.938L216.314 190.033L173.294 242.988L159.422 259.139V259.131Z" fill="#FFCEC7"/>
<path d="M186.643 226.532C186.643 226.532 201.169 248.442 213.558 256.173L221.671 245.938L190.385 221.733L186.643 226.541V226.532Z" fill="#FFAC9F"/>
<path d="M250.191 161.858C250.191 161.858 207.546 171.474 184.818 221.044C184.818 221.044 198.551 241.732 220.562 250.929L235.298 232.875L250.191 161.858Z" fill="#0093D1"/>
<path d="M250.192 161.702C233.537 170.244 223.059 181.578 223.059 181.578L226.348 326.474H331.329L330.989 182.329C330.989 182.329 317.754 169.38 303.411 163.063C291.231 157.697 262.031 155.629 250.192 161.702Z" fill="#0093D1"/>
<path d="M285.263 203.104H314.463V217.711C314.463 225.773 307.92 232.317 299.859 232.317C291.797 232.317 285.254 225.773 285.254 217.711V203.104H285.263Z" stroke="#77D7FF" stroke-width="1.4" stroke-linecap="round" stroke-linejoin="round"/>
<path d="M331.154 253.791L332.515 206.394" stroke="#282828" stroke-width="1.4" stroke-linecap="round" stroke-linejoin="round"/>
<path d="M224.673 245.894L222.404 204.806" stroke="#282828" stroke-width="1.4" stroke-linecap="round" stroke-linejoin="round"/>
<path d="M251.422 108.781L247.042 87.1328C246.798 85.3703 246.108 82.6479 246.946 80.0913C248.333 75.8594 253.428 67.736 262.135 71.4531L264.02 80.0215C264.02 80.0215 254.981 81.8452 251.352 93.677L251.422 108.781Z" fill="#282828"/>
<path d="M261.499 75.9209C261.342 78.7654 258.829 91.2167 250 95.7453C250 95.7453 242.27 79.1581 261.499 75.9209Z" fill="#282828"/>
<path d="M292.46 157.714V120.944H258.574V157.714L248.488 162.312C248.488 162.312 250.853 177.547 275.874 177.887C300.896 178.227 303.409 163.062 303.409 163.062L292.46 157.714Z" fill="#FFCEC7"/>
<path d="M262.134 71.4532C262.134 71.4532 268.354 55.0405 287.531 63.7661C299.143 69.045 302.388 76.1214 303.776 81.1386C304.238 82.8052 304.421 85.4315 304.29 86.9934L299.649 108.781L281.537 78.6344L264.009 80.0217L262.125 71.4532H262.134Z" fill="#282828"/>
<path d="M299.659 108.781C299.659 108.781 301.945 105.142 306.656 106.931C311.367 108.72 309.238 120.168 302.172 121.625C302.172 121.625 299.642 122.175 297.652 120.438C297.652 120.438 299.389 111.983 299.668 108.772L299.659 108.781Z" fill="#FFA496"/>
<path d="M305.721 110.971C305.721 110.971 301.778 109.653 298.969 115.465" stroke="#282828" stroke-width="1.4" stroke-linecap="round" stroke-linejoin="round"/>
<path d="M251.421 108.781C251.421 108.781 249.135 105.142 244.424 106.931C239.713 108.72 241.841 120.168 248.908 121.625C248.908 121.625 251.438 122.175 253.427 120.438C253.427 120.438 251.691 111.983 251.412 108.772L251.421 108.781Z" fill="#FFA496"/>
<path d="M245.357 110.971C245.357 110.971 249.301 109.653 252.11 115.465" stroke="#282828" stroke-width="1.4" stroke-linecap="round" stroke-linejoin="round"/>
<path d="M300.129 97.9176C300.129 104.819 299.457 119.251 295.209 127.82C291.23 135.865 284.643 140.193 276.006 140.455C267.369 140.716 260.939 137.383 255.783 126.939C250.627 116.494 250.871 98.0397 250.871 98.0397C250.871 98.0397 250.871 73.3901 275.23 73.3901C300.888 73.3901 300.121 97.9089 300.121 97.9089L300.129 97.9176Z" fill="#FFCEC7"/>
<path d="M258.828 132.087C258.828 132.087 261.664 146.493 274.201 148.142C288.622 150.044 292.461 132.453 292.461 132.453C292.461 132.453 286.092 140.437 276.007 140.455C264.769 140.472 258.828 132.087 258.828 132.087Z" fill="#282828"/>
<path d="M273.764 108.153V113.859C273.764 114.104 273.807 114.339 273.895 114.557C274.235 115.404 275.203 115.805 276.084 115.57L277.978 115.063" stroke="#282828" stroke-width="1.4" stroke-linecap="round" stroke-linejoin="round"/>
<path d="M266.575 105.431C266.575 106.652 265.58 107.647 264.359 107.647C263.137 107.647 262.143 106.652 262.143 105.431C262.143 104.209 263.137 103.214 264.359 103.214C265.58 103.214 266.575 104.209 266.575 105.431Z" fill="#282828"/>
<path d="M287.366 105.431C287.366 106.652 286.371 107.647 285.15 107.647C283.928 107.647 282.934 106.652 282.934 105.431C282.934 104.209 283.928 103.214 285.15 103.214C286.371 103.214 287.366 104.209 287.366 105.431Z" fill="#282828"/>
<path d="M279.469 94.3928L294.379 98.2408C294.379 98.2408 293.698 94.0613 287.6 92.5343C281.502 91.0161 279.469 94.3841 279.469 94.3841V94.3928Z" fill="#282828"/>
<path d="M270.203 94.3928L255.293 98.2408C255.293 98.2408 255.973 94.0613 262.072 92.5343C268.17 91.0161 270.203 94.3841 270.203 94.3841V94.3928Z" fill="#282828"/>
<path d="M267.238 119.609C267.238 119.609 269.437 121.293 275.221 121.293C280.482 121.293 283.762 119.609 283.762 119.609" stroke="#282828" stroke-width="1.4" stroke-linecap="round" stroke-linejoin="round"/>
<path d="M263.756 115.5C268.96 115.5 273.179 111.281 273.179 106.076C273.179 100.872 268.96 96.6528 263.756 96.6528C258.553 96.6528 254.334 100.872 254.334 106.076C254.334 111.281 258.553 115.5 263.756 115.5Z" stroke="white" stroke-width="1.95" stroke-miterlimit="10"/>
<path d="M286.903 115.5C292.107 115.5 296.325 111.281 296.325 106.076C296.325 100.872 292.107 96.6528 286.903 96.6528C281.699 96.6528 277.48 100.872 277.48 106.076C277.48 111.281 281.699 115.5 286.903 115.5Z" stroke="white" stroke-width="1.95" stroke-miterlimit="10"/>
<path d="M273.18 106.076C273.18 106.076 275.413 103.991 277.481 106.076" stroke="white" stroke-width="1.95" stroke-miterlimit="10"/>
<path d="M254.334 106.077L251.176 105.998" stroke="white" stroke-width="1.95" stroke-miterlimit="10"/>
<path d="M296.324 106.076L299.849 106.024" stroke="white" stroke-width="1.95" stroke-miterlimit="10"/>
<path d="M258.829 76.4793C258.829 76.4793 263.357 89.3407 283.772 88.9393C297.644 88.6688 300.959 98.7119 300.959 98.7119C300.959 98.7119 298.543 76.2611 297.906 76.4793C297.269 76.6887 276.793 71.0171 276.793 71.0171L258.82 76.4793H258.829Z" fill="#282828"/>
</g>
<defs>
<clipPath id="clip0_534_8953">
<rect width="561" height="414" fill="white"/>
</clipPath>
</defs>
</svg>
