<svg width="215" height="362" viewBox="0 0 215 362" fill="none" xmlns="http://www.w3.org/2000/svg">
<g opacity="0.06">
<path d="M209.473 3.34375L3.21069 209.761C4.16561 215.658 5.40401 221.466 6.91099 227.155L226.87 7.06149C221.185 5.55349 215.381 4.31424 209.488 3.35868L209.473 3.34375Z" stroke="#8F9294" stroke-width="1.08" stroke-miterlimit="10"/>
<path d="M226.87 7.0618L6.92603 227.155C8.37332 232.605 10.0593 237.965 11.999 243.191L242.895 12.1233C237.658 10.1823 232.316 8.51008 226.87 7.04688V7.0618Z" stroke="#8F9294" stroke-width="1.08" stroke-miterlimit="10"/>
<path d="M296.206 43.2236L43.0635 296.538C46.2714 300.345 49.6136 304.048 53.1349 307.572L307.232 53.3018C303.696 49.7931 300.011 46.4337 296.206 43.2236Z" stroke="#8F9294" stroke-width="1.08" stroke-miterlimit="10"/>
<path d="M284.3 34.0413L33.8726 284.623C36.7821 288.729 39.8259 292.701 43.0636 296.538L296.206 43.2237C292.372 39.9986 288.388 36.9379 284.3 34.0264V34.0413Z" stroke="#8F9294" stroke-width="1.08" stroke-miterlimit="10"/>
<path d="M257.726 18.3945L18.2505 258.032C20.4886 262.75 22.9505 267.334 25.5914 271.798L271.483 25.7404C267.006 23.1126 262.426 20.6491 257.726 18.3945Z" stroke="#8F9294" stroke-width="1.08" stroke-miterlimit="10"/>
<path d="M271.483 25.7402L25.5916 271.813C28.1728 276.217 30.948 280.473 33.8874 284.623L284.299 34.0417C280.152 31.1003 275.884 28.3382 271.498 25.7402H271.483Z" stroke="#8F9294" stroke-width="1.08" stroke-miterlimit="10"/>
<path d="M242.895 12.123L11.9839 243.19C13.849 248.252 15.9528 253.194 18.2505 258.032L257.726 18.3939C252.892 16.0946 247.953 13.9894 242.895 12.123V12.123Z" stroke="#8F9294" stroke-width="1.08" stroke-miterlimit="10"/>
<path d="M13.2224 115.294L115.085 13.3623C68.533 31.6076 31.4554 68.6954 13.2224 115.294V115.294Z" stroke="#8F9294" stroke-width="1.08" stroke-miterlimit="10"/>
<path d="M115.085 13.3621L13.2224 115.294C9.4624 124.909 6.46336 134.898 4.3894 145.23L145.001 4.53809C134.676 6.61345 124.679 9.59959 115.085 13.3771V13.3621Z" stroke="#8F9294" stroke-width="1.08" stroke-miterlimit="10"/>
<path d="M190.449 1.2832L1.15161 190.709C1.49478 197.159 2.21097 203.504 3.21065 209.746L209.473 3.34364C203.236 2.32835 196.88 1.62661 190.449 1.2832V1.2832Z" stroke="#8F9294" stroke-width="1.08" stroke-miterlimit="10"/>
<path d="M180.557 1C176.752 1 172.992 1.16424 169.247 1.3882L1.2561 169.493C1.01737 173.24 0.868164 177.003 0.868164 180.81C0.868164 184.125 0.972612 187.425 1.15166 190.709L190.449 1.28368C187.181 1.10451 183.884 1 180.557 1V1Z" stroke="#8F9294" stroke-width="1.08" stroke-miterlimit="10"/>
<path d="M145.001 4.53905L4.38945 145.246C2.80787 153.159 1.76343 161.252 1.24121 169.493L169.247 1.38867C161.011 1.89632 152.909 2.94146 145.016 4.53905H145.001Z" stroke="#8F9294" stroke-width="1.08" stroke-miterlimit="10"/>
<path d="M357.679 150.591L150.357 358.053C156.564 359.098 162.861 359.844 169.262 360.248L359.857 169.523C359.454 163.118 358.723 156.802 357.664 150.606L357.679 150.591Z" stroke="#8F9294" stroke-width="1.08" stroke-miterlimit="10"/>
<path d="M360.245 180.81C360.245 177.018 360.081 173.255 359.857 169.508L169.262 360.232C172.992 360.471 176.752 360.621 180.557 360.621C183.809 360.621 187.032 360.531 190.24 360.352L359.977 190.5C360.141 187.29 360.245 184.065 360.245 180.81Z" stroke="#8F9294" stroke-width="1.08" stroke-miterlimit="10"/>
<path d="M359.977 190.5L190.24 360.352C198.417 359.919 206.429 358.904 214.277 357.411L357.052 214.539C358.544 206.685 359.559 198.667 359.992 190.485L359.977 190.5Z" stroke="#8F9294" stroke-width="1.08" stroke-miterlimit="10"/>
<path d="M357.052 214.554L214.277 357.425C224.348 355.514 234.136 352.767 243.551 349.243L348.876 243.848C352.397 234.441 355.127 224.647 357.052 214.554V214.554Z" stroke="#8F9294" stroke-width="1.08" stroke-miterlimit="10"/>
<path d="M353.859 133.301L133.064 354.245C138.719 355.798 144.479 357.067 150.342 358.052L357.664 150.591C356.664 144.723 355.396 138.96 353.859 133.301V133.301Z" stroke="#8F9294" stroke-width="1.08" stroke-miterlimit="10"/>
<path d="M326.614 76.1309L75.9485 326.967C80.0666 329.923 84.304 332.73 88.6757 335.343L334.985 88.8667C332.373 84.492 329.568 80.2517 326.614 76.1309Z" stroke="#8F9294" stroke-width="1.08" stroke-miterlimit="10"/>
<path d="M317.349 64.2764L64.1016 317.71C67.9063 320.965 71.8603 324.041 75.9336 326.982L326.614 76.1313C323.69 72.0553 320.601 68.0986 317.349 64.2913V64.2764Z" stroke="#8F9294" stroke-width="1.08" stroke-miterlimit="10"/>
<path d="M348.697 117.354L117.129 349.079C122.337 351.05 127.648 352.767 133.065 354.245L353.859 133.3C352.382 127.881 350.666 122.55 348.697 117.354V117.354Z" stroke="#8F9294" stroke-width="1.08" stroke-miterlimit="10"/>
<path d="M307.232 53.302L53.1201 307.572C56.6265 311.11 60.3118 314.47 64.1017 317.695L317.349 64.2761C314.126 60.4837 310.754 56.8108 307.232 53.2871V53.302Z" stroke="#8F9294" stroke-width="1.08" stroke-miterlimit="10"/>
<path d="M342.385 102.573L102.373 342.748C107.177 345.078 112.116 347.168 117.144 349.079L348.697 117.355C346.802 112.323 344.698 107.381 342.371 102.573H342.385Z" stroke="#8F9294" stroke-width="1.08" stroke-miterlimit="10"/>
<path d="M334.985 88.8672L88.6758 335.343C93.1221 338.001 97.6878 340.479 102.373 342.749L342.385 102.574C340.117 97.8853 337.641 93.3165 334.985 88.8672Z" stroke="#8F9294" stroke-width="1.08" stroke-miterlimit="10"/>
</g>
</svg>
