<svg width="18" height="18" viewBox="0 0 18 18" fill="none" xmlns="http://www.w3.org/2000/svg">
<path d="M11.5817 9.52829L9.83336 8.51913V4.83329C9.83336 4.61228 9.74556 4.40032 9.58928 4.24404C9.433 4.08776 9.22104 3.99996 9.00003 3.99996C8.77901 3.99996 8.56705 4.08776 8.41077 4.24404C8.25449 4.40032 8.16669 4.61228 8.16669 4.83329V8.99996C8.1667 9.14624 8.2052 9.28994 8.27834 9.41662C8.35148 9.54329 8.45668 9.64849 8.58336 9.72163L10.7484 10.9716C10.8432 11.0272 10.948 11.0635 11.0569 11.0784C11.1658 11.0933 11.2766 11.0865 11.3828 11.0584C11.4891 11.0303 11.5887 10.9815 11.676 10.9147C11.7633 10.8479 11.8365 10.7646 11.8915 10.6694C11.9464 10.5742 11.982 10.4691 11.9962 10.3601C12.0104 10.2512 12.0028 10.1404 11.974 10.0344C11.9452 9.92832 11.8957 9.82901 11.8284 9.74215C11.7611 9.65529 11.6772 9.58261 11.5817 9.52829ZM9.00003 0.666626C7.35185 0.666626 5.74068 1.15537 4.37027 2.07105C2.99986 2.98672 1.93176 4.28821 1.30103 5.81093C0.670298 7.33365 0.50527 9.00921 0.826813 10.6257C1.14836 12.2422 1.94203 13.7271 3.10747 14.8925C4.27291 16.058 5.75776 16.8516 7.37427 17.1732C8.99078 17.4947 10.6663 17.3297 12.1891 16.699C13.7118 16.0682 15.0133 15.0001 15.9289 13.6297C16.8446 12.2593 17.3334 10.6481 17.3334 8.99996C17.3309 6.79057 16.4522 4.67236 14.8899 3.11008C13.3276 1.54781 11.2094 0.669052 9.00003 0.666626ZM9.00003 15.6666C7.68148 15.6666 6.39255 15.2756 5.29622 14.5431C4.19989 13.8106 3.34541 12.7694 2.84083 11.5512C2.33624 10.333 2.20422 8.99257 2.46146 7.69936C2.71869 6.40615 3.35363 5.21827 4.28598 4.28592C5.21833 3.35356 6.40622 2.71863 7.69942 2.46139C8.99263 2.20416 10.3331 2.33618 11.5512 2.84076C12.7694 3.34535 13.8106 4.19983 14.5432 5.29616C15.2757 6.39249 15.6667 7.68142 15.6667 8.99996C15.6645 10.7674 14.9614 12.4618 13.7116 13.7116C12.4619 14.9613 10.7675 15.6644 9.00003 15.6666Z" fill="#616161"/>
</svg>
