<svg width="82" height="81" viewBox="0 0 82 81" fill="none" xmlns="http://www.w3.org/2000/svg">
<g clip-path="url(#clip0_1052_7813)">
<path d="M49.6323 31.9697H75.5297C78.9357 31.9697 81.696 34.7225 81.696 38.1178V75.004C81.696 78.3999 78.9357 81.1521 75.5297 81.1521H38.5338C35.1284 81.1521 32.3675 78.3999 32.3675 75.004V49.1834H6.47007C3.06408 49.1834 0.303711 46.4306 0.303711 43.0353V6.14907C0.303711 2.75317 3.06408 0.000976562 6.47007 0.000976562H43.4659C46.8713 0.000976562 49.6323 2.75317 49.6323 6.14907V31.9697ZM6.46949 2.45958C4.4261 2.45958 2.76947 4.1113 2.76947 6.14863V43.0349C2.76947 45.0722 4.4261 46.7239 6.46949 46.7239H43.4653C45.5087 46.7239 47.1654 45.0722 47.1654 43.0349V6.14863C47.1654 4.1113 45.5087 2.45958 43.4653 2.45958H6.46949ZM49.6323 34.4289V43.036C49.6323 46.4313 46.8713 49.1841 43.4659 49.1841H34.8332V75.0047C34.8332 77.0421 36.4898 78.6938 38.5332 78.6938H75.5291C77.5725 78.6938 79.2291 77.0421 79.2291 75.0047V38.1185C79.2291 36.0812 77.5725 34.4295 75.5291 34.4295L49.6323 34.4289ZM23.2233 24.5923L17.929 19.3143C17.4475 18.8337 17.4475 18.0554 17.929 17.5753C18.4104 17.0953 19.1911 17.0953 19.6731 17.5753L24.9668 22.8539L30.2611 17.5753C30.7426 17.0953 31.5238 17.0953 32.0053 17.5753C32.4867 18.0554 32.4867 18.8337 32.0053 19.3143L26.711 24.5923L32.0053 29.8709C32.4867 30.351 32.4867 31.1299 32.0053 31.6099C31.5238 32.0899 30.7426 32.0899 30.2611 31.6099L24.9668 26.3313L19.6731 31.6099C19.1911 32.0899 18.4104 32.0899 17.929 31.6099C17.4475 31.1299 17.4475 30.351 17.929 29.8709L23.2233 24.5923ZM54.5638 60.9699L66.0245 49.5438C66.5059 49.0638 67.2866 49.0638 67.768 49.5438C68.25 50.0238 68.25 50.8027 67.768 51.2827L55.4359 63.5783C54.9544 64.0584 54.1738 64.0584 53.6917 63.5783L47.526 57.4302C47.0445 56.9502 47.0445 56.1719 47.526 55.6919C48.0074 55.2113 48.7881 55.2113 49.2701 55.6919L54.5638 60.9699Z" fill="white"/>
</g>
<defs>
<clipPath id="clip0_1052_7813">
<rect width="82" height="81" fill="white"/>
</clipPath>
</defs>
</svg>
