<svg width="320" height="69" viewBox="0 0 320 69" fill="none" xmlns="http://www.w3.org/2000/svg">
<path d="M30.8125 42.8438C31.1875 42.4479 31.75 41.5938 32.5 40.2812C33.25 38.9688 33.8125 37.9167 34.1875 37.125C35.5833 34.1458 36.3229 31.8542 36.4062 30.25C36.1771 30.5417 35.6562 31.5417 34.8438 33.25C34.7188 33.4792 34.4896 33.9583 34.1562 34.6875C33.8229 35.3958 33.5625 35.9375 33.375 36.3125C32.9167 37.2292 32.3958 38.3854 31.8125 39.7812C31.25 41.1562 30.9167 42.1771 30.8125 42.8438ZM3 19.125C3.20833 19.1667 3.59375 19.1875 4.15625 19.1875C7.36458 19.1875 13.3021 18.0208 21.9688 15.6875C21.1146 15.3958 19.3333 15.25 16.625 15.25H16.5938C12.5312 15.25 9.13542 15.7292 6.40625 16.6875C5.65625 16.9375 4.89583 17.3021 4.125 17.7812C3.35417 18.2604 2.97917 18.7083 3 19.125ZM29.9062 15.9375C30.3021 16.2292 30.7604 16.5 31.2812 16.75C31.8229 17 32.3958 17.3438 33 17.7812C33.625 18.2188 34.3958 18.8958 35.3125 19.8125C35.4792 19.9792 35.6354 20.1667 35.7812 20.375C35.9479 20.5833 36.0729 20.7396 36.1562 20.8438L37.25 22.5312L37.4062 22.8438L37.625 23.1875L42.1875 15.3438C42.25 15.2396 42.4792 14.8646 42.875 14.2188C43.2917 13.5521 43.5833 13.0625 43.75 12.75C43.0208 12.8333 40.7708 13.3229 37 14.2188C33.2292 15.0938 30.8646 15.6667 29.9062 15.9375ZM69.625 17.3125C69.5625 17.4583 69.4688 17.8958 69.3438 18.625C69.2396 19.3542 69.1562 19.8229 69.0938 20.0312C68.8646 20.8646 68.5729 21.6979 68.2188 22.5312C67.6354 23.9688 66.7812 25.625 65.6562 27.5C64.5521 29.375 63.5312 30.8646 62.5938 31.9688C62.4062 32.1979 62.1042 32.5729 61.6875 33.0938C61.2708 33.6146 60.8958 34.0729 60.5625 34.4688C60.2292 34.8438 59.8854 35.1979 59.5312 35.5312C59.4062 35.6354 59.2604 35.8021 59.0938 36.0312C58.9271 36.2396 58.8125 36.375 58.75 36.4375C57.9167 37.375 56.9375 38.3542 55.8125 39.375C54.7083 40.375 53.7917 41.1667 53.0625 41.75C52.3542 42.3125 51.2812 43.1562 49.8438 44.2812L45.875 47.0625C35.8958 53.2708 25.875 56.625 15.8125 57.125C14.5 57.1875 13.7292 57.2188 13.5 57.2188C13.1042 57.2188 12.8229 57.2083 12.6562 57.1875C12.3021 57.1667 12.0104 57.0208 11.7812 56.75C11.5521 56.4792 11.4375 56.1979 11.4375 55.9062C11.4375 55.6354 11.5417 55.4271 11.75 55.2812C11.8333 55.2188 12.3229 55.1562 13.2188 55.0938C14.1354 55.0521 15.1146 55.0104 16.1562 54.9688C17.1979 54.9271 17.8229 54.8958 18.0312 54.875C28.1562 53.7917 37.7812 50.0417 46.9062 43.625C47.0312 43.5417 47.3125 43.3438 47.75 43.0312C48.1875 42.6979 48.5417 42.4375 48.8125 42.25C51.3333 40.4167 54.2708 37.7708 57.625 34.3125L60.7188 30.6875C63.0521 27.6667 64.7604 24.9167 65.8438 22.4375C67.0104 19.8125 67.5938 17.5521 67.5938 15.6562C67.5938 14.0312 67.125 12.8542 66.1875 12.125C64.9167 11.1667 62.6875 10.6875 59.5 10.6875C56.7917 10.6875 53.125 11.0729 48.5 11.8438C47.75 11.9688 47.2708 12.0521 47.0625 12.0938C46.75 12.1771 46.0625 13.1667 45 15.0625C44.7292 15.5417 43.9896 16.7917 42.7812 18.8125C41.5729 20.8125 40.6667 22.375 40.0625 23.5C39.8125 23.9792 39.4167 24.6771 38.875 25.5938C38.625 26.0312 38.5 26.3438 38.5 26.5312C38.5 26.5521 38.5208 26.7812 38.5625 27.2188C38.625 27.6562 38.6562 28.1042 38.6562 28.5625C38.6562 33.2292 36.4167 38.7708 31.9375 45.1875C31.9167 45.2292 31.8542 45.3229 31.75 45.4688C31.6667 45.6146 31.6042 45.7188 31.5625 45.7812C31.5208 45.8229 31.4479 45.9062 31.3438 46.0312C31.2604 46.1354 31.1771 46.2083 31.0938 46.25C31.0104 46.2917 30.9062 46.3333 30.7812 46.375C30.6771 46.4167 30.5521 46.4375 30.4062 46.4375C30.1771 46.4375 29.9896 46.4167 29.8438 46.375C29.4271 46.2708 29.0833 46.0208 28.8125 45.625C28.5417 45.2083 28.4062 44.7396 28.4062 44.2188C28.4062 41.7396 30.6562 36.2708 35.1562 27.8125C35.2812 27.5833 35.4271 27.3125 35.5938 27C35.7812 26.6875 35.9062 26.4688 35.9688 26.3438C36.0521 26.1979 36.125 26.0312 36.1875 25.8438C36.25 25.6562 36.2812 25.4792 36.2812 25.3125C36.2812 24.8542 36.0104 24.1146 35.4688 23.0938C34.1146 20.4896 31.6146 18.5104 27.9688 17.1562C27.2396 16.9062 26.8125 16.7812 26.6875 16.7812C26.6042 16.7812 26.1979 16.8646 25.4688 17.0312C25.3021 17.0729 24.3438 17.3125 22.5938 17.75C20.8438 18.1875 19.6562 18.4896 19.0312 18.6562C18.4271 18.8021 17.3333 19.0625 15.75 19.4375C14.1875 19.8125 12.9688 20.0833 12.0938 20.25C11.2188 20.4167 10.2083 20.6042 9.0625 20.8125C7.9375 21 6.96875 21.125 6.15625 21.1875C5.57292 21.2292 5.15625 21.25 4.90625 21.25C3.53125 21.25 2.51042 21.0312 1.84375 20.5938C1.15625 20.1562 0.8125 19.5938 0.8125 18.9062C0.8125 18.3438 1.04167 17.7604 1.5 17.1562C1.95833 16.5521 2.5625 16.0521 3.3125 15.6562C6.33333 14.0312 10.4583 13.2188 15.6875 13.2188C18.5208 13.2188 21.1354 13.4583 23.5312 13.9375C24.0521 14.0417 24.5312 14.1562 24.9688 14.2812C25.4062 14.3854 25.7188 14.4583 25.9062 14.5C26.1146 14.5417 26.2917 14.5625 26.4375 14.5625C26.625 14.5625 26.8542 14.5312 27.125 14.4688C27.4167 14.4062 27.9896 14.2604 28.8438 14.0312C29.6979 13.7812 30.6042 13.5417 31.5625 13.3125C37.0417 12 40.6667 11.1667 42.4375 10.8125C42.5208 10.7917 42.7917 10.7396 43.25 10.6562C43.7292 10.5729 44.1562 10.5 44.5312 10.4375C44.9271 10.3542 45.1667 10.2917 45.25 10.25C45.4375 10.1667 45.8958 9.51042 46.625 8.28125C47 7.69792 47.3646 7.14583 47.7188 6.625C48.0938 6.10417 48.5208 5.52083 49 4.875C49.4792 4.22917 49.8542 3.71875 50.125 3.34375C50.7708 2.40625 51.6146 1.57292 52.6562 0.84375H53.5312C53.5729 0.885417 53.6562 0.958333 53.7812 1.0625C53.9062 1.14583 53.9896 1.20833 54.0312 1.25C54.0938 1.29167 54.1667 1.35417 54.25 1.4375C54.3333 1.52083 54.3854 1.59375 54.4062 1.65625C54.4479 1.71875 54.4896 1.80208 54.5312 1.90625C54.5938 2.01042 54.625 2.125 54.625 2.25C54.6458 2.35417 54.6562 2.47917 54.6562 2.625C54.6562 2.66667 54.6458 2.72917 54.625 2.8125C54.625 2.875 54.625 2.9375 54.625 3C54.5625 3.75 54.3125 4.125 53.875 4.125C53.7292 4.125 53.5729 4.09375 53.4062 4.03125C53.2604 3.96875 53.1146 3.89583 52.9688 3.8125C52.8229 3.70833 52.7396 3.65625 52.7188 3.65625L50.5 6.59375C49.3125 8.17708 48.625 9.20833 48.4375 9.6875C49.125 9.64583 50.1875 9.52083 51.625 9.3125C53.0625 9.08333 54.1042 8.9375 54.75 8.875C56.2917 8.72917 57.7396 8.65625 59.0938 8.65625C65.1562 8.65625 68.5938 10.5521 69.4062 14.3438L69.625 15.0625V17.3125Z" fill="#0E0E0E"/>
<path d="M79.1875 36.625C78.9167 36.6667 78.2604 36.7917 77.2188 37C76.1979 37.2083 75.5938 37.3333 75.4062 37.375C73.4688 37.7292 71.9167 37.9062 70.75 37.9062C68.3542 37.9062 66.9688 37.2812 66.5938 36.0312C66.5521 35.9062 66.5312 35.7917 66.5312 35.6875C66.5104 35.5833 66.5104 35.4896 66.5312 35.4062C66.5312 35.3021 66.5417 35.2188 66.5625 35.1562C66.5625 35.0938 66.5938 35.0208 66.6562 34.9375C66.7188 34.8333 66.7604 34.7708 66.7812 34.75C66.8021 34.7083 66.8438 34.6354 66.9062 34.5312C66.9896 34.4271 67.0417 34.3646 67.0625 34.3438C67.6458 33.5312 68.4583 32.8125 69.5 32.1875C70.5625 31.5417 71.5729 31.2188 72.5312 31.2188H72.9375C73.4167 31.2604 73.8438 31.4479 74.2188 31.7812C74.5938 32.0938 74.7812 32.4688 74.7812 32.9062C74.7812 33.5729 74.3229 34.2188 73.4062 34.8438C73.3438 34.8854 73.2292 34.9583 73.0625 35.0625C72.9167 35.1667 72.7917 35.25 72.6875 35.3125C72.5625 35.3958 72.4375 35.4583 72.3125 35.5L72.0625 35.6562L72.0312 35.6875L71.9688 35.75C72.7188 35.7083 73.5 35.6146 74.3125 35.4688C75.125 35.3229 76.0938 35.125 77.2188 34.875C78.3646 34.6042 79.1354 34.4271 79.5312 34.3438C79.6146 34.3229 79.6771 34.3021 79.7188 34.2812C79.7812 34.2604 79.8229 34.25 79.8438 34.25C79.8646 34.2292 79.8958 34.1979 79.9375 34.1562C79.9792 34.1146 80.0312 34.0729 80.0938 34.0312C80.7812 33.5312 81.7396 33.0208 82.9688 32.5C84.4271 31.9375 85.5729 31.6562 86.4062 31.6562C87.3229 31.6562 87.9896 31.9375 88.4062 32.5C88.5938 32.7917 88.6875 33.0521 88.6875 33.2812C88.6875 33.9688 87.9271 34.6458 86.4062 35.3125C85.6354 35.625 85.2396 35.7917 85.2188 35.8125C85.2396 35.8125 85.2812 35.8229 85.3438 35.8438C85.4271 35.8438 85.4896 35.8438 85.5312 35.8438C86.5521 35.8438 88.0417 35.6875 90 35.375C91.9792 35.0417 93.5625 34.7188 94.75 34.4062C94.9583 34.3646 95.1146 34.3438 95.2188 34.3438C95.6146 34.3438 95.9271 34.4688 96.1562 34.7188C96.4062 34.9688 96.5312 35.25 96.5312 35.5625C96.5312 35.9583 96.3438 36.2188 95.9688 36.3438C95.6146 36.4479 95.0417 36.5729 94.25 36.7188C90.5 37.5104 87.2396 37.9062 84.4688 37.9062C82.7604 37.9062 81.4583 37.7396 80.5625 37.4062C80.4375 37.3646 80.2917 37.3125 80.125 37.25C79.9792 37.1875 79.8854 37.1562 79.8438 37.1562C79.8229 37.1354 79.7708 37.1042 79.6875 37.0625C79.6042 37 79.5312 36.9479 79.4688 36.9062C79.4062 36.8438 79.3125 36.75 79.1875 36.625Z" fill="#0E0E0E"/>
<path d="M76.5625 67.2188C76.6667 67.0521 76.9167 66.5833 77.3125 65.8125C77.6875 65.0417 77.9271 64.5521 78.0312 64.3438L82.5312 55.9688C85.6979 50.1979 89.8229 42.8542 94.9062 33.9375C95.0104 33.7708 95.0833 33.6562 95.125 33.5938C95.1667 33.5312 95.25 33.4479 95.375 33.3438C95.5208 33.2188 95.6458 33.1771 95.75 33.2188C95.8542 33.2396 96.0208 33.2708 96.25 33.3125C96.4792 33.4167 96.6771 33.5938 96.8438 33.8438C97.0104 34.0938 97.0729 34.3542 97.0312 34.625C97.0312 34.7083 96.7188 35.3021 96.0938 36.4062C95.4688 37.5104 94.75 38.7708 93.9375 40.1875C93.125 41.6042 92.6458 42.4479 92.5 42.7188C92.5 42.7396 92.4896 42.7708 92.4688 42.8125C92.4479 42.8333 92.4375 42.8542 92.4375 42.875L95.6562 39.5938C95.9896 39.3229 96.1875 39.1458 96.25 39.0625L97.4062 38.0312C97.5521 37.9062 97.8333 37.6667 98.25 37.3125C98.6667 36.9583 98.9792 36.6979 99.1875 36.5312C99.3333 36.4271 99.5417 36.2708 99.8125 36.0625C100.083 35.8542 100.292 35.6979 100.438 35.5938C100.562 35.5104 100.688 35.4271 100.812 35.3438C100.958 35.2396 101.115 35.1354 101.281 35.0312C101.469 34.9271 101.615 34.8333 101.719 34.75C103.969 33.2708 105.844 32.5312 107.344 32.5312C107.677 32.5312 107.917 32.5521 108.062 32.5938C108.542 32.7188 108.948 32.9688 109.281 33.3438C109.615 33.6979 109.781 34.1354 109.781 34.6562C109.781 34.7812 109.76 34.9688 109.719 35.2188C109.635 35.5729 109.396 36.0521 109 36.6562C108.625 37.2396 108.312 37.6354 108.062 37.8438L108.094 37.875H108.125C108.521 37.875 109.25 37.7188 110.312 37.4062C111.375 37.0938 112.156 36.8438 112.656 36.6562C114.365 35.9896 115.979 35.1562 117.5 34.1562C117.667 34.0312 117.885 33.9688 118.156 33.9688C118.469 33.9688 118.74 34.0938 118.969 34.3438C119.219 34.5938 119.344 34.875 119.344 35.1875C119.344 35.4792 119.229 35.7083 119 35.875L117.188 36.9688C116.333 37.4062 115.688 37.7292 115.25 37.9375C112.333 39.25 109.198 40.0104 105.844 40.2188C105.156 40.2604 104.719 40.2292 104.531 40.125C104.198 39.9375 103.969 39.6771 103.844 39.3438C103.802 39.1771 103.781 39.0625 103.781 39C103.781 38.875 103.812 38.75 103.875 38.625C103.958 38.4792 104.031 38.375 104.094 38.3125C104.177 38.25 104.312 38.1458 104.5 38C104.708 37.8333 104.854 37.7188 104.938 37.6562C106.688 36.0938 107.573 35.0625 107.594 34.5625C106.885 34.625 105.969 34.9479 104.844 35.5312C103.74 36.0938 102.865 36.625 102.219 37.125L101.062 37.9688C100.938 38.0729 100.75 38.2188 100.5 38.4062C100.25 38.5938 100.062 38.7396 99.9375 38.8438C99.875 38.9062 99.7812 38.9792 99.6562 39.0625C99.5521 39.1458 99.4688 39.2188 99.4062 39.2812L97.8125 40.6875C97.6667 40.8125 97.4792 40.9896 97.25 41.2188C97.0208 41.4479 96.8646 41.5938 96.7812 41.6562C96.3021 42.0938 95.0208 43.4583 92.9375 45.75L89.7812 49.5938C89.5938 49.8229 89.3021 50.2083 88.9062 50.75C88.4896 51.2917 88.2083 51.6562 88.0625 51.8438C88.0208 51.9062 87.9479 52 87.8438 52.125C87.7396 52.25 87.6667 52.3438 87.625 52.4062C87.5208 52.5521 87.375 52.7708 87.1875 53.0625C86.9792 53.3542 86.8542 53.5312 86.8125 53.5938C86.4375 54.0938 86.1667 54.4792 86 54.75C84.9375 56.3542 84.1771 57.5938 83.7188 58.4688C83.4062 59.0521 82.9375 59.9062 82.3125 61.0312C82.125 61.3438 81.875 61.8021 81.5625 62.4062C81.25 63.0312 81.0417 63.4375 80.9375 63.625L78.9062 67.5312C78.8854 67.5938 78.8542 67.6667 78.8125 67.75C78.7708 67.8333 78.7396 67.8958 78.7188 67.9375C78.6979 67.9792 78.6771 68.0208 78.6562 68.0625C78.6146 68.125 78.5833 68.1667 78.5625 68.1875C78.5208 68.2292 78.4896 68.2708 78.4688 68.3125C78.4271 68.375 78.3854 68.4167 78.3438 68.4375C78.3021 68.4792 78.2604 68.5208 78.2188 68.5625C78.1562 68.6042 78.0938 68.6458 78.0312 68.6875H77.625C77.5833 68.6667 77.4792 68.6146 77.3125 68.5312C77.1458 68.4479 77.0208 68.3646 76.9375 68.2812C76.875 68.2188 76.8333 68.1458 76.8125 68.0625C76.7708 68 76.7292 67.9167 76.6875 67.8125C76.6458 67.7292 76.6042 67.6562 76.5625 67.5938V67.2188ZM76.5625 68.6875V67.5938C76.5833 67.6354 76.6354 67.7396 76.7188 67.9062C76.7812 68.0729 76.8542 68.1979 76.9375 68.2812C77.0208 68.3646 77.1458 68.4479 77.3125 68.5312C77.4792 68.6146 77.5833 68.6667 77.625 68.6875H76.5625Z" fill="#0E0E0E"/>
<path d="M158.531 4.1875C158.344 4.52083 158.24 4.69792 158.219 4.71875L150.656 16.0312C150.094 16.8854 149.24 18.2188 148.094 20.0312C146.969 21.8229 146.115 23.1667 145.531 24.0625C144.677 25.3958 143.333 27.625 141.5 30.75C139.667 33.875 138.615 35.8125 138.344 36.5625C138.406 36.5208 138.542 36.3854 138.75 36.1562C138.979 35.9062 139.219 35.6458 139.469 35.375C139.719 35.0833 139.875 34.9062 139.938 34.8438C140.646 34.0938 141.146 33.4896 141.438 33.0312L143.562 30.25C143.604 30.2083 143.656 30.1354 143.719 30.0312C143.802 29.9062 143.865 29.8125 143.906 29.75C143.969 29.6875 144.031 29.6146 144.094 29.5312C144.177 29.4479 144.26 29.3958 144.344 29.375C144.469 29.3333 144.573 29.3125 144.656 29.3125C144.969 29.3125 145.25 29.4479 145.5 29.7188C145.771 29.9688 145.906 30.25 145.906 30.5625C145.906 30.7292 145.885 30.8542 145.844 30.9375C145.823 30.9792 145.604 31.3125 145.188 31.9375L143.031 34.7188C142.865 34.9062 142.635 35.2188 142.344 35.6562C141.99 36.1771 141.802 36.5312 141.781 36.7188H141.844C143.594 36.7188 147.104 35.9479 152.375 34.4062C153.083 34.1771 153.615 34.25 153.969 34.625C154.177 34.8333 154.292 35.0938 154.312 35.4062C154.354 35.6979 154.25 35.9479 154 36.1562C153.708 36.3646 151.469 36.9792 147.281 38C145.698 38.375 144.49 38.6042 143.656 38.6875C143.198 38.7292 142.823 38.75 142.531 38.75C141.635 38.75 140.948 38.5625 140.469 38.1875C140.365 38.1042 140.25 38.0312 140.125 37.9688C139.979 38.0938 139.792 38.2917 139.562 38.5625C139.333 38.8125 139.167 38.9896 139.062 39.0938L137.406 40.6562C137.365 40.6979 137.271 40.7917 137.125 40.9375C137 41.0625 136.906 41.1458 136.844 41.1875C136.365 41.5 135.865 41.3646 135.344 40.7812C135.073 40.4479 134.938 40.0417 134.938 39.5625C134.938 39.125 135.125 38.4167 135.5 37.4375C136.25 35.5208 137.604 32.9062 139.562 29.5938L139.062 30.0938L136.906 32.25C136.844 32.3333 136.583 32.5729 136.125 32.9688C136.021 33.0729 135.604 33.4792 134.875 34.1875C134.146 34.875 133.594 35.375 133.219 35.6875C132.865 36 132.375 36.3646 131.75 36.7812C131.125 37.1771 130.583 37.4271 130.125 37.5312C129.875 37.5729 129.677 37.5938 129.531 37.5938C128.844 37.5938 128.302 37.3958 127.906 37C127.448 36.5417 127.219 35.8021 127.219 34.7812C127.198 34.7812 125.896 35.125 123.312 35.8125C120.75 36.5 118.948 36.8438 117.906 36.8438C117.323 36.8438 116.906 36.7604 116.656 36.5938C116.469 36.4896 116.323 36.3854 116.219 36.2812C116.135 36.1771 116.062 36.0417 116 35.875C115.938 35.7083 115.896 35.6042 115.875 35.5625V35.0938C115.938 35.0104 116.021 34.8854 116.125 34.7188C116.229 34.5312 116.323 34.3958 116.406 34.3125C117.24 33.4792 118.875 32.9583 121.312 32.75C121.354 32.75 121.406 32.75 121.469 32.75C121.531 32.7292 121.573 32.7188 121.594 32.7188C121.969 32.7188 122.24 32.7917 122.406 32.9375C122.573 33.0833 122.75 33.3333 122.938 33.6875C123.854 33.5 125.427 33.0729 127.656 32.4062C128.24 32.2396 128.656 32.2083 128.906 32.3125C129.427 32.5417 129.688 32.9062 129.688 33.4062C129.688 33.6354 129.615 34 129.469 34.5C129.344 34.9792 129.281 35.3125 129.281 35.5C129.49 35.4583 129.719 35.375 129.969 35.25C130.24 35.1042 130.542 34.9167 130.875 34.6875C131.208 34.4375 131.5 34.2083 131.75 34C132 33.7917 132.312 33.5104 132.688 33.1562C133.062 32.8021 133.333 32.5521 133.5 32.4062C133.688 32.2396 133.958 31.9792 134.312 31.625C134.688 31.25 134.896 31.0417 134.938 31C135.062 30.875 135.229 30.7188 135.438 30.5312C135.646 30.3438 135.812 30.1875 135.938 30.0625L142.844 22.5312C143.115 22.2396 143.5 21.7812 144 21.1562C144.5 20.5312 144.844 20.1146 145.031 19.9062L146.75 17.75C146.875 17.5833 147.01 17.4062 147.156 17.2188C147.323 17.0104 147.438 16.8646 147.5 16.7812L149.969 12.9688C151.01 11.3229 152.156 9.58333 153.406 7.75L156.5 3.25C156.583 3.125 156.771 2.95833 157.062 2.75H157.5C157.604 2.8125 157.708 2.875 157.812 2.9375C157.938 3 158.01 3.04167 158.031 3.0625C158.073 3.0625 158.125 3.09375 158.188 3.15625C158.25 3.21875 158.302 3.29167 158.344 3.375C158.385 3.45833 158.448 3.58333 158.531 3.75V3.78125V4.1875Z" fill="#0E0E0E"/>
<path d="M214.875 37.5C214.875 36.1458 215.438 34.9271 216.562 33.8438C218 32.5104 221.208 30.4062 226.188 27.5312C227.854 26.5729 230.188 25.1979 233.188 23.4062C236.188 21.6146 238.302 20.3646 239.531 19.6562L247.781 14.5938C247.927 14.5312 248.062 14.5 248.188 14.5C248.479 14.5 248.74 14.6042 248.969 14.8125C249.219 15.0208 249.365 15.2396 249.406 15.4688C249.427 15.5312 249.438 15.625 249.438 15.75C249.438 15.9167 249.396 16.0625 249.312 16.1875C249.229 16.3125 249.146 16.4062 249.062 16.4688C248.979 16.5312 248.844 16.6146 248.656 16.7188C248.469 16.8229 248.333 16.8958 248.25 16.9375C245.542 18.6875 240.594 21.6771 233.406 25.9062C232.969 26.1771 231.479 27.0417 228.938 28.5C226.417 29.9583 224.542 31.0729 223.312 31.8438C223.292 31.8646 223 32.0417 222.438 32.375C221.875 32.7083 221.469 32.9479 221.219 33.0938C220.99 33.2396 220.604 33.5 220.062 33.875C219.521 34.2292 219.104 34.5521 218.812 34.8438C218.542 35.1146 218.229 35.4375 217.875 35.8125C217.521 36.1667 217.26 36.5208 217.094 36.875C216.948 37.2292 216.875 37.5833 216.875 37.9375C216.875 38.1042 216.917 38.3333 217 38.625C217.167 39.0833 217.688 39.4271 218.562 39.6562C219.562 39.9271 220.76 40.0625 222.156 40.0625C223.427 40.0625 225.479 39.8854 228.312 39.5312C229.479 39.3854 230.635 39.2188 231.781 39.0312C232.948 38.8229 234.427 38.5521 236.219 38.2188C238.031 37.8646 239.177 37.6458 239.656 37.5625C240.969 37.2917 241.698 37.1562 241.844 37.1562H241.938C242.271 37.1562 242.573 37.2812 242.844 37.5312C243.115 37.7604 243.25 38.0417 243.25 38.375C243.25 38.5208 243.219 38.6458 243.156 38.75C243.115 38.8542 243.052 38.9375 242.969 39C242.906 39.0625 242.802 39.1146 242.656 39.1562C242.51 39.1979 242.396 39.2292 242.312 39.25C242.229 39.2708 242.094 39.3021 241.906 39.3438C241.719 39.3646 241.594 39.375 241.531 39.375C235.802 40.4375 232.812 40.9896 232.562 41.0312C228.479 41.7396 225.188 42.0938 222.688 42.0938C220.229 42.0938 218.396 41.7708 217.188 41.125C215.646 40.2917 214.875 39.0833 214.875 37.5ZM166.062 38.0312C166.083 37.9896 166.146 37.7708 166.25 37.375C166.375 36.9792 166.573 36.5417 166.844 36.0625C167.531 34.8333 168.74 33.5104 170.469 32.0938C172.198 30.6771 174.031 29.3854 175.969 28.2188C177.906 27.0521 180.052 25.875 182.406 24.6875C184.781 23.5 186.76 22.5625 188.344 21.875C189.927 21.1667 191.427 20.5208 192.844 19.9375C199.406 17.25 205.167 15.5208 210.125 14.75C211.583 14.5208 212.896 14.4062 214.062 14.4062C218.854 14.4062 221.396 16.0521 221.688 19.3438C221.688 19.3854 221.688 19.4688 221.688 19.5938C221.708 19.7188 221.719 19.8125 221.719 19.875C221.719 22.8125 220.021 26.5833 216.625 31.1875C216.271 31.6875 215.875 32.2188 215.438 32.7812C215.312 32.9688 215.104 33.2292 214.812 33.5625C214.521 33.8958 214.312 34.1562 214.188 34.3438L212.281 36.6562C211.906 37.0729 211.354 37.6875 210.625 38.5C209.896 39.2917 209.333 39.9062 208.938 40.3438C208.542 40.7604 208.01 41.2917 207.344 41.9375C206.698 42.5625 206.042 43.1667 205.375 43.75C205.292 43.8333 205.177 43.9479 205.031 44.0938C204.885 44.2396 204.76 44.3542 204.656 44.4375C204.531 44.5417 204.104 44.9167 203.375 45.5625C202.646 46.1875 202.062 46.6771 201.625 47.0312C201.146 47.4271 200.771 47.625 200.5 47.625C200.25 47.625 199.979 47.4792 199.688 47.1875C199.438 46.9375 199.312 46.6771 199.312 46.4062C199.312 46.2396 199.365 46.0729 199.469 45.9062C199.594 45.7396 199.719 45.6146 199.844 45.5312C199.969 45.4271 200.146 45.2917 200.375 45.125C200.625 44.9375 200.781 44.8229 200.844 44.7812L203.094 42.8125C203.365 42.5417 203.854 42.0938 204.562 41.4688L213.219 31.9062L215.094 29.4688C216.99 26.8229 218.333 24.4062 219.125 22.2188C219.521 21.1562 219.719 20.2292 219.719 19.4375C219.719 18.3542 219.312 17.5833 218.5 17.125C217.688 16.6667 216.438 16.4375 214.75 16.4375C212.062 16.4375 208.823 16.9688 205.031 18.0312C199.865 19.4688 194.042 21.6667 187.562 24.625C181.083 27.5833 176.073 30.4688 172.531 33.2812C169.552 35.6771 168.062 37.625 168.062 39.125C168.062 40.0208 168.635 40.7188 169.781 41.2188C171.573 42.0104 173.938 42.4062 176.875 42.4062C181.958 42.4062 187.698 41.4583 194.094 39.5625C196.927 38.7292 199.688 37.7604 202.375 36.6562C203.396 36.2188 204.031 36 204.281 36H204.406C204.656 36.0417 204.885 36.1979 205.094 36.4688C205.323 36.7188 205.438 36.9792 205.438 37.25C205.438 37.3958 205.385 37.5521 205.281 37.7188C205.156 37.9062 203.833 38.4792 201.312 39.4375C197.562 40.8333 193.594 42.0208 189.406 43C185.219 43.9583 181.302 44.4375 177.656 44.4375C175.969 44.4375 174.354 44.3125 172.812 44.0625C169.5 43.5 167.385 42.3333 166.469 40.5625C166.427 40.4583 166.365 40.2812 166.281 40.0312C166.198 39.7812 166.125 39.6042 166.062 39.5V38.0312Z" fill="#0E0E0E"/>
<path d="M255.25 35.3125C256.104 35.1875 257.771 34.4271 260.25 33.0312C260.375 32.9479 260.562 32.8333 260.812 32.6875C261.062 32.5417 261.25 32.4271 261.375 32.3438C261.5 32.2604 261.646 32.1875 261.812 32.125C262 32.0625 262.167 32.0312 262.312 32.0312C262.458 32.0312 262.604 32.0729 262.75 32.1562C263.229 32.4062 263.469 32.75 263.469 33.1875C263.469 33.3542 263.438 33.5312 263.375 33.7188C263.312 33.8854 263.229 34.0417 263.125 34.1875C263.042 34.3333 263 34.4167 263 34.4375L265.062 33.2812C265.875 32.8229 266.646 32.5104 267.375 32.3438C267.625 32.2812 267.865 32.25 268.094 32.25C268.823 32.25 269.354 32.5312 269.688 33.0938C269.896 33.4479 270 33.7708 270 34.0625C270 34.2708 269.938 34.5729 269.812 34.9688C269.688 35.3646 269.615 35.6146 269.594 35.7188C269.948 35.5521 270.573 35.1875 271.469 34.625C272.385 34.0625 272.938 33.7396 273.125 33.6562C273.375 33.5729 273.552 33.5312 273.656 33.5312C274.281 33.5312 274.771 33.8021 275.125 34.3438C275.312 34.6146 275.448 35 275.531 35.5C275.635 35.9792 275.729 36.2917 275.812 36.4375C275.979 36.5417 276.24 36.5938 276.594 36.5938C277.573 36.5938 279.385 36.0729 282.031 35.0312C282.198 34.9688 282.417 34.875 282.688 34.75C282.958 34.625 283.177 34.5312 283.344 34.4688C283.51 34.3854 283.698 34.3125 283.906 34.25C284.115 34.1875 284.292 34.1562 284.438 34.1562C284.604 34.1562 284.75 34.1875 284.875 34.25C285.458 34.5417 285.708 34.9583 285.625 35.5C285.604 35.6042 285.573 35.6979 285.531 35.7812C285.49 35.8438 285.427 35.9062 285.344 35.9688C285.26 36.0312 285.177 36.0833 285.094 36.125C285.031 36.1667 284.938 36.2188 284.812 36.2812C284.688 36.3229 284.594 36.3542 284.531 36.375C281.26 37.8333 278.781 38.5625 277.094 38.5625C275.156 38.5625 274.021 37.6979 273.688 35.9688C273.458 36.0521 273 36.3125 272.312 36.75C272.146 36.8333 271.917 36.9583 271.625 37.125C271.333 37.2917 271.104 37.4271 270.938 37.5312C269.646 38.3021 268.708 38.8021 268.125 39.0312C267.938 39.1146 267.708 39.1562 267.438 39.1562C267.021 39.1562 266.667 39.0312 266.375 38.7812C266.104 38.5312 265.969 38.2188 265.969 37.8438C265.969 37.5938 266 37.4062 266.062 37.2812C266.188 37.0104 266.458 36.5729 266.875 35.9688C267.292 35.3646 267.552 34.8958 267.656 34.5625C267.156 34.6875 266.25 35.1354 264.938 35.9062C263.625 36.6771 262.688 37.2708 262.125 37.6875C262.042 37.75 261.927 37.8333 261.781 37.9375C261.635 38.0208 261.521 38.0938 261.438 38.1562C260.688 38.7188 260.167 39 259.875 39C259.646 39 259.448 38.9271 259.281 38.7812C258.906 38.4688 258.719 38.1458 258.719 37.8125C258.719 37.5833 258.844 37.25 259.094 36.8125C259.344 36.3542 259.49 36.0729 259.531 35.9688C259.427 35.9896 258.875 36.2396 257.875 36.7188C256.729 37.2188 255.802 37.4688 255.094 37.4688C254.656 37.4688 254.271 37.375 253.938 37.1875C253.708 37.0625 253.542 36.9479 253.438 36.8438C253.354 36.7396 253.271 36.5833 253.188 36.375C253.104 36.1458 253.021 35.9583 252.938 35.8125C252.729 35.8542 252.375 35.9688 251.875 36.1562C251.396 36.3229 251.083 36.4271 250.938 36.4688C250.188 36.7188 249.521 36.9271 248.938 37.0938C247.896 37.3854 247.167 37.5312 246.75 37.5312C246.021 37.5312 245.479 37.2396 245.125 36.6562C244.938 36.3438 244.844 35.9896 244.844 35.5938C244.844 35.0312 244.969 34.4479 245.219 33.8438C245.49 33.2188 245.708 32.8333 245.875 32.6875C246.042 32.5625 246.198 32.5 246.344 32.5C246.594 32.5 246.844 32.6042 247.094 32.8125C247.344 33.0208 247.5 33.2188 247.562 33.4062C247.583 33.4688 247.594 33.5625 247.594 33.6875C247.594 33.8542 247.562 34.0312 247.5 34.2188C247.438 34.4062 247.354 34.6146 247.25 34.8438C247.146 35.0729 247.073 35.2396 247.031 35.3438C247.573 35.3229 249.302 34.7917 252.219 33.75C252.26 33.7292 252.458 33.6458 252.812 33.5C253.188 33.3542 253.51 33.25 253.781 33.1875C254.052 33.1042 254.292 33.0625 254.5 33.0625C254.625 33.0625 254.75 33.0833 254.875 33.125C255.396 33.3542 255.656 33.7083 255.656 34.1875C255.656 34.6667 255.521 35.0417 255.25 35.3125Z" fill="#0E0E0E"/>
<path d="M283.062 35.1562L283.125 35.0938C283.312 34.7188 283.469 34.4688 283.594 34.3438C283.802 34.1354 284.052 33.9583 284.344 33.8125C285.406 33.3125 286.802 32.9583 288.531 32.75C288.531 32.75 288.594 32.75 288.719 32.75C289.073 32.75 289.385 32.8438 289.656 33.0312C289.927 33.2188 290.083 33.4479 290.125 33.7188C290.312 33.6771 291.99 33.2188 295.156 32.3438C295.677 32.1979 296.094 32.25 296.406 32.5C297.052 33.0208 297.135 33.5625 296.656 34.125C296.115 34.7292 295.812 35.2083 295.75 35.5625H296.188C297.583 35.5625 299.375 35.2604 301.562 34.6562C301.562 34.6562 302 34.5312 302.875 34.2812C302.938 34.2604 303.042 34.25 303.188 34.25C303.542 34.25 303.833 34.3854 304.062 34.6562C304.312 34.9271 304.438 35.2188 304.438 35.5312C304.438 35.6562 304.406 35.7812 304.344 35.9062C304.26 36.0729 303.885 36.25 303.219 36.4375C301.865 36.8125 300.969 37.0521 300.531 37.1562C299.719 37.3438 298.76 37.5 297.656 37.625C297.49 37.6458 297.24 37.6562 296.906 37.6562C295.969 37.6562 295.188 37.4583 294.562 37.0625C293.938 36.6458 293.635 35.9792 293.656 35.0625C293.427 35.0625 292.51 35.2917 290.906 35.75C290.677 35.8125 289.76 36.0312 288.156 36.4062C286.656 36.7188 285.667 36.875 285.188 36.875C284.542 36.875 284.073 36.7708 283.781 36.5625C283.656 36.4792 283.542 36.3854 283.438 36.2812C283.354 36.1771 283.292 36.0938 283.25 36.0312C283.229 35.9479 283.198 35.8542 283.156 35.75C283.115 35.6458 283.083 35.5729 283.062 35.5312V35.1562Z" fill="#0E0E0E"/>
<path d="M319.062 35.75L319.031 35.8125C318.948 36 318.844 36.125 318.719 36.1875C318.594 36.25 318.427 36.3229 318.219 36.4062C313.99 38.1562 310.979 39.0312 309.188 39.0312C308.667 39.0312 308.219 38.9688 307.844 38.8438C307.135 38.6354 306.604 38.2083 306.25 37.5625C306.021 37.1042 305.906 36.7188 305.906 36.4062C305.906 36.0312 305.99 35.6771 306.156 35.3438C306.344 34.9896 306.531 34.6979 306.719 34.4688C306.906 34.2188 307.01 34.0625 307.031 34C305.802 34.2708 304.51 34.4062 303.156 34.4062C303.094 34.4062 303.021 34.4062 302.938 34.4062C302.854 34.3854 302.802 34.375 302.781 34.375C302.406 34.3542 302.104 34.2083 301.875 33.9375C301.625 33.6667 301.5 33.3646 301.5 33.0312C301.5 32.6979 301.635 32.4375 301.906 32.25C302.094 32.1667 302.229 32.125 302.312 32.125C302.396 32.125 302.51 32.1562 302.656 32.2188C302.802 32.2604 302.906 32.2812 302.969 32.2812C303.115 32.2812 303.75 32.1771 304.875 31.9688C306 31.7604 306.896 31.6562 307.562 31.6562C308.396 31.6562 309 31.8021 309.375 32.0938C309.792 32.4271 310 32.8229 310 33.2812C310 33.4688 309.948 33.6667 309.844 33.875C309.844 33.8958 309.552 34.2812 308.969 35.0312C308.385 35.7812 308.094 36.3021 308.094 36.5938C308.094 36.8646 308.271 37 308.625 37H308.719C309.448 37 310.51 36.8021 311.906 36.4062C313.156 36.0312 314.417 35.5833 315.688 35.0625C315.854 35 316.062 34.9167 316.312 34.8125C316.562 34.6875 316.75 34.5938 316.875 34.5312C317.021 34.4688 317.177 34.4167 317.344 34.375C317.531 34.3125 317.698 34.2812 317.844 34.2812C318.073 34.2812 318.302 34.3646 318.531 34.5312C318.656 34.6146 318.833 34.8542 319.062 35.25V35.75Z" fill="#0E0E0E"/>
</svg>
