<svg width="140" height="28" viewBox="0 0 140 28" fill="none" xmlns="http://www.w3.org/2000/svg">
<path d="M0.550781 19.3906C0.550781 19.1562 0.628906 18.8984 0.785156 18.6172C0.941406 18.3203 1.12109 18.0469 1.32422 17.7969C1.54297 17.5312 1.74609 17.2969 1.93359 17.0938C2.13672 16.8906 2.28516 16.75 2.37891 16.6719L7.53516 7.22656C7.69141 7.10156 7.83203 6.94531 7.95703 6.75781C8.08203 6.55469 8.20703 6.36719 8.33203 6.19531C8.47266 6.00781 8.62109 5.85156 8.77734 5.72656C8.94922 5.60156 9.15234 5.53906 9.38672 5.53906C9.38672 5.78906 9.35547 6.09375 9.29297 6.45312C9.24609 6.79687 9.16797 7.05469 9.05859 7.22656L4.62891 15.125C5.09766 14.9375 5.52734 14.8828 5.91797 14.9609C6.32422 15.0234 6.69922 15.1562 7.04297 15.3594C7.38672 15.5625 7.70703 15.8125 8.00391 16.1094C8.31641 16.3906 8.60547 16.6641 8.87109 16.9297C9.15234 17.1953 9.41797 17.4219 9.66797 17.6094C9.91797 17.7969 10.168 17.8906 10.418 17.8906C10.9648 17.8906 11.4961 17.6172 12.0117 17.0703C12.5273 16.5234 13.0195 15.8203 13.4883 14.9609C13.957 14.1016 14.3867 13.1484 14.7773 12.1016C15.168 11.0547 15.5039 10.0391 15.7852 9.05469C16.0664 8.05469 16.2852 7.14844 16.4414 6.33594C16.5977 5.50781 16.6758 4.89063 16.6758 4.48438C16.6758 4.26562 16.6523 4.03125 16.6055 3.78125C16.5742 3.51562 16.5039 3.28125 16.3945 3.07812C16.2852 2.85937 16.1367 2.67969 15.9492 2.53906C15.7773 2.39844 15.5508 2.32812 15.2695 2.32812C14.8477 2.32812 14.4648 2.50781 14.1211 2.86719C13.7773 3.22656 13.4648 3.6875 13.1836 4.25C12.9023 4.8125 12.6523 5.44531 12.4336 6.14844C12.2305 6.83594 12.0508 7.50781 11.8945 8.16406C11.7539 8.82031 11.6445 9.42188 11.5664 9.96875C11.5039 10.5156 11.4727 10.9297 11.4727 11.2109C11.4727 11.5234 11.5039 11.8203 11.5664 12.1016C11.6445 12.3828 11.7305 12.6562 11.8242 12.9219C11.918 13.1875 11.9961 13.4609 12.0586 13.7422C12.1367 14.0078 12.1758 14.2891 12.1758 14.5859C11.7383 14.5859 11.3867 14.4766 11.1211 14.2578C10.8711 14.0391 10.6836 13.7656 10.5586 13.4375C10.4336 13.1094 10.3477 12.7578 10.3008 12.3828C10.2695 11.9922 10.2539 11.6328 10.2539 11.3047C10.2539 10.9297 10.3008 10.4062 10.3945 9.73438C10.5039 9.0625 10.6523 8.34375 10.8398 7.57812C11.043 6.79687 11.2852 6.00781 11.5664 5.21094C11.8633 4.41406 12.1992 3.69531 12.5742 3.05469C12.9648 2.39844 13.3945 1.86719 13.8633 1.46094C14.3477 1.03906 14.8711 0.828125 15.4336 0.828125C15.4805 0.828125 15.582 0.835938 15.7383 0.851562C15.9102 0.867187 16.0195 0.875 16.0664 0.875C16.3164 1.1875 16.5352 1.48438 16.7227 1.76562C16.9102 2.04688 17.0664 2.32812 17.1914 2.60938C17.332 2.89062 17.4336 3.1875 17.4961 3.5C17.5586 3.8125 17.5898 4.16406 17.5898 4.55469C17.5898 5.03906 17.5117 5.74219 17.3555 6.66406C17.2148 7.58594 17.0039 8.60156 16.7227 9.71094C16.4414 10.8047 16.0977 11.9297 15.6914 13.0859C15.2852 14.2266 14.8164 15.2656 14.2852 16.2031C13.7539 17.1406 13.168 17.9141 12.5273 18.5234C11.8867 19.1172 11.1992 19.4141 10.4648 19.4141C9.96484 19.4141 9.53516 19.3359 9.17578 19.1797C8.83203 19.0234 8.52734 18.8359 8.26172 18.6172C7.99609 18.3828 7.75391 18.1328 7.53516 17.8672C7.31641 17.5859 7.08984 17.3359 6.85547 17.1172C6.62109 16.8828 6.36328 16.6875 6.08203 16.5312C5.80078 16.375 5.45703 16.2969 5.05078 16.2969C4.62891 16.2969 4.26172 16.4297 3.94922 16.6953C3.63672 16.9609 3.36328 17.2891 3.12891 17.6797C2.89453 18.0703 2.69141 18.4766 2.51953 18.8984C2.34766 19.3203 2.19922 19.6875 2.07422 20C2.04297 20 1.98828 20 1.91016 20C1.84766 20.0156 1.80078 20.0234 1.76953 20.0234C1.69141 20.0234 1.58203 20.0078 1.44141 19.9766C1.31641 19.9453 1.18359 19.9062 1.04297 19.8594C0.917969 19.7969 0.800781 19.7266 0.691406 19.6484C0.597656 19.5703 0.550781 19.4844 0.550781 19.3906ZM18.4102 18.7812C18.1445 18.1875 18.0273 17.6094 18.0586 17.0469C18.0898 16.4688 18.2148 15.9297 18.4336 15.4297C18.668 14.9141 18.9648 14.4531 19.3242 14.0469C19.6992 13.625 20.0977 13.2656 20.5195 12.9688C20.9414 12.6562 21.3633 12.4219 21.7852 12.2656C22.2227 12.1094 22.6055 12.0469 22.9336 12.0781C23.2617 12.0938 23.5195 12.2109 23.707 12.4297C23.8945 12.6484 23.957 12.9844 23.8945 13.4375C23.8945 14.0469 23.6992 14.5781 23.3086 15.0312C22.9336 15.4844 22.5117 15.8906 22.043 16.25C21.5898 16.6094 21.168 16.9375 20.7773 17.2344C20.4023 17.5156 20.2148 17.7812 20.2148 18.0312C20.2148 18.1719 20.293 18.2812 20.4492 18.3594C20.6211 18.4375 20.8164 18.5 21.0352 18.5469C21.2539 18.5781 21.4727 18.6016 21.6914 18.6172C21.9102 18.6328 22.0664 18.6484 22.1602 18.6641C23.6289 18.3516 24.7305 18.1641 25.4648 18.1016C26.1992 18.0234 26.6602 18.0312 26.8477 18.125C27.0352 18.2031 26.9961 18.3359 26.7305 18.5234C26.4805 18.6953 26.0898 18.8828 25.5586 19.0859C25.0273 19.2734 24.4102 19.4453 23.707 19.6016C23.0039 19.7578 22.3086 19.8516 21.6211 19.8828C20.9336 19.8984 20.293 19.8281 19.6992 19.6719C19.1211 19.5156 18.6914 19.2188 18.4102 18.7812ZM22.5117 13.4375C22.1992 13.4375 21.9023 13.5234 21.6211 13.6953C21.3398 13.8672 21.082 14.0859 20.8477 14.3516C20.6289 14.6016 20.4414 14.8828 20.2852 15.1953C20.1289 15.4922 20.0117 15.7734 19.9336 16.0391C19.9648 16.0547 19.9883 16.0625 20.0039 16.0625H20.0742C20.293 16.0625 20.543 15.9688 20.8242 15.7812C21.1055 15.5938 21.3711 15.3672 21.6211 15.1016C21.8711 14.8203 22.082 14.5312 22.2539 14.2344C22.4258 13.9375 22.5117 13.6719 22.5117 13.4375ZM26.4492 18.7812C26.1836 18.1875 26.0664 17.6094 26.0977 17.0469C26.1289 16.4688 26.2539 15.9297 26.4727 15.4297C26.707 14.9141 27.0039 14.4531 27.3633 14.0469C27.7383 13.625 28.1367 13.2656 28.5586 12.9688C28.9805 12.6562 29.4023 12.4219 29.8242 12.2656C30.2617 12.1094 30.6445 12.0469 30.9727 12.0781C31.3008 12.0938 31.5586 12.2109 31.7461 12.4297C31.9336 12.6484 31.9961 12.9844 31.9336 13.4375C31.9336 14.0469 31.7383 14.5781 31.3477 15.0312C30.9727 15.4844 30.5508 15.8906 30.082 16.25C29.6289 16.6094 29.207 16.9375 28.8164 17.2344C28.4414 17.5156 28.2539 17.7812 28.2539 18.0312C28.2539 18.1719 28.332 18.2812 28.4883 18.3594C28.6602 18.4375 28.8555 18.5 29.0742 18.5469C29.293 18.5781 29.5117 18.6016 29.7305 18.6172C29.9492 18.6328 30.1055 18.6484 30.1992 18.6641C31.668 18.3516 32.7695 18.1641 33.5039 18.1016C34.2383 18.0234 34.6992 18.0312 34.8867 18.125C35.0742 18.2031 35.0352 18.3359 34.7695 18.5234C34.5195 18.6953 34.1289 18.8828 33.5977 19.0859C33.0664 19.2734 32.4492 19.4453 31.7461 19.6016C31.043 19.7578 30.3477 19.8516 29.6602 19.8828C28.9727 19.8984 28.332 19.8281 27.7383 19.6719C27.1602 19.5156 26.7305 19.2188 26.4492 18.7812ZM30.5508 13.4375C30.2383 13.4375 29.9414 13.5234 29.6602 13.6953C29.3789 13.8672 29.1211 14.0859 28.8867 14.3516C28.668 14.6016 28.4805 14.8828 28.3242 15.1953C28.168 15.4922 28.0508 15.7734 27.9727 16.0391C28.0039 16.0547 28.0273 16.0625 28.043 16.0625H28.1133C28.332 16.0625 28.582 15.9688 28.8633 15.7812C29.1445 15.5938 29.4102 15.3672 29.6602 15.1016C29.9102 14.8203 30.1211 14.5312 30.293 14.2344C30.4648 13.9375 30.5508 13.6719 30.5508 13.4375ZM31.4883 26.5625C31.4883 26.5469 31.4961 26.5156 31.5117 26.4688C31.5117 26.4219 31.5117 26.3906 31.5117 26.375C31.5273 26.3281 31.5508 26.2578 31.582 26.1641C31.6133 26.0859 31.6445 26 31.6758 25.9062C31.707 25.8125 31.7383 25.7188 31.7695 25.625C31.8008 25.5469 31.8242 25.4922 31.8398 25.4609C31.9336 25.2422 32.0898 24.8906 32.3086 24.4062C32.5273 23.9375 32.7773 23.3984 33.0586 22.7891C33.3398 22.1953 33.6367 21.5703 33.9492 20.9141C34.2461 20.2578 34.5352 19.6328 34.8164 19.0391C35.0977 18.4297 35.3477 17.8906 35.5664 17.4219C35.8008 16.9375 35.9727 16.5781 36.082 16.3438C36.2852 16.0156 36.5664 15.6328 36.9258 15.1953C37.3008 14.7578 37.7148 14.3125 38.168 13.8594C38.6211 13.4062 39.1055 12.9688 39.6211 12.5469C40.1523 12.1094 40.668 11.7266 41.168 11.3984C41.6836 11.0547 42.1836 10.7812 42.668 10.5781C43.1523 10.3594 43.582 10.25 43.957 10.25C44.5195 10.25 44.918 10.3516 45.1523 10.5547C45.3867 10.7578 45.5039 11.1719 45.5039 11.7969C45.5039 12.4688 45.3711 13.1406 45.1055 13.8125C44.8555 14.4688 44.5117 15.0938 44.0742 15.6875C43.6367 16.2812 43.1211 16.8203 42.5273 17.3047C41.9492 17.7891 41.332 18.1875 40.6758 18.5C40.0352 18.8125 39.3711 19.0312 38.6836 19.1562C37.9961 19.2656 37.332 19.2422 36.6914 19.0859L36.3867 19.3906L33.3398 26.9844C33.293 27.125 33.1602 27.2109 32.9414 27.2422C32.7227 27.2891 32.543 27.3125 32.4023 27.3125C32.1992 27.3125 31.9961 27.2422 31.793 27.1016C31.5898 26.9766 31.4883 26.7969 31.4883 26.5625ZM42.457 15.1484C43.1914 14.3672 43.668 13.75 43.8867 13.2969C44.1055 12.8281 44.1523 12.5 44.0273 12.3125C43.9023 12.125 43.6523 12.0547 43.2773 12.1016C42.9023 12.1484 42.4805 12.2812 42.0117 12.5C41.543 12.7188 41.0664 13.0078 40.582 13.3672C40.1133 13.7266 39.7227 14.1172 39.4102 14.5391C39.2695 14.6953 39.0977 14.9062 38.8945 15.1719C38.6914 15.4219 38.4883 15.6797 38.2852 15.9453C38.0977 16.1953 37.9336 16.4219 37.793 16.625C37.6523 16.8281 37.582 16.9453 37.582 16.9766V17.4688C38.6602 17.4688 39.582 17.3125 40.3477 17C41.1133 16.6719 41.8164 16.0547 42.457 15.1484ZM46.5352 18.4766C46.6758 17.5859 46.9414 16.7656 47.332 16.0156C47.7227 15.2656 48.168 14.6172 48.668 14.0703C49.1836 13.5078 49.7383 13.0469 50.332 12.6875C50.9258 12.3281 51.5039 12.1016 52.0664 12.0078C52.6289 11.8984 53.1445 11.9219 53.6133 12.0781C54.0977 12.2344 54.4883 12.5469 54.7852 13.0156C54.7852 13.375 54.6992 13.7188 54.5273 14.0469C54.3711 14.375 54.1914 14.7031 53.9883 15.0312C53.8008 15.3594 53.6211 15.6953 53.4492 16.0391C53.293 16.3828 53.2148 16.75 53.2148 17.1406C53.2148 17.5469 53.3008 17.875 53.4727 18.125C53.6602 18.3594 53.9805 18.4766 54.4336 18.4766C54.8086 18.4766 55.168 18.4219 55.5117 18.3125C55.8711 18.2031 56.2305 18.1484 56.5898 18.1484C56.6523 18.1484 56.7539 18.1562 56.8945 18.1719C57.0508 18.1719 57.1523 18.1719 57.1992 18.1719C57.0117 18.4375 56.7695 18.6641 56.4727 18.8516C56.1758 19.0391 55.8633 19.2031 55.5352 19.3438C55.207 19.4688 54.8633 19.5625 54.5039 19.625C54.1602 19.6875 53.8398 19.7188 53.543 19.7188C53.2617 19.7188 53.0117 19.6562 52.793 19.5312C52.5742 19.4062 52.3867 19.2422 52.2305 19.0391C52.0742 18.8359 51.9492 18.6094 51.8555 18.3594C51.7773 18.0938 51.7383 17.8359 51.7383 17.5859C51.5039 17.8516 51.2461 18.1328 50.9648 18.4297C50.6992 18.7109 50.4102 18.9688 50.0977 19.2031C49.8008 19.4375 49.4727 19.6328 49.1133 19.7891C48.7695 19.9453 48.4102 20.0234 48.0352 20.0234C47.6289 20.0234 47.2773 19.875 46.9805 19.5781C46.6836 19.2656 46.5352 18.8984 46.5352 18.4766ZM48.082 17.75C48.082 17.875 48.082 18.0156 48.082 18.1719C48.0977 18.3281 48.1992 18.4297 48.3867 18.4766C48.7773 18.3828 49.2227 18.1797 49.7227 17.8672C50.2227 17.5391 50.6914 17.1641 51.1289 16.7422C51.5664 16.3047 51.9336 15.8438 52.2305 15.3594C52.5273 14.8594 52.6758 14.3828 52.6758 13.9297C52.6758 13.8984 52.668 13.8516 52.6523 13.7891C52.6523 13.7109 52.6523 13.6562 52.6523 13.625C52.1211 13.625 51.582 13.7344 51.0352 13.9531C50.4883 14.1719 49.9961 14.4766 49.5586 14.8672C49.1211 15.2422 48.7617 15.6797 48.4805 16.1797C48.2148 16.6797 48.082 17.2031 48.082 17.75ZM59.7539 16.6719C59.5664 16.9219 59.4102 17.2031 59.2852 17.5156C59.1602 17.8281 59.0195 18.125 58.8633 18.4062C58.707 18.6875 58.5195 18.9219 58.3008 19.1094C58.082 19.2969 57.793 19.3906 57.4336 19.3906C57.1367 19.3906 56.9336 19.3438 56.8242 19.25C56.7148 19.1406 56.6602 18.9297 56.6602 18.6172C56.6602 18.2422 56.7617 17.8281 56.9648 17.375C57.1836 16.9219 57.4414 16.4844 57.7383 16.0625C58.0352 15.625 58.3398 15.2188 58.6523 14.8438C58.9648 14.4688 59.2227 14.1641 59.4258 13.9297L63.7617 4.55469C63.8711 4.28906 64.0664 4.03906 64.3477 3.80469C64.6445 3.57031 64.9492 3.45312 65.2617 3.45312V4.22656L62.7773 9.96875V10.5312C63.043 10.5312 63.293 10.4922 63.5273 10.4141C63.7617 10.3203 63.9961 10.2188 64.2305 10.1094C64.4648 10 64.707 9.90625 64.957 9.82812C65.2227 9.73438 65.5117 9.6875 65.8242 9.6875C66.1055 9.875 66.2539 10.1094 66.2695 10.3906C66.2852 10.6562 66.2148 10.9531 66.0586 11.2812C65.9023 11.5938 65.6836 11.9141 65.4023 12.2422C65.1367 12.5703 64.8555 12.8906 64.5586 13.2031C64.2617 13.5 63.9727 13.7656 63.6914 14C63.4258 14.2344 63.2227 14.4141 63.082 14.5391C62.8477 14.7266 62.6289 14.8594 62.4258 14.9375C62.2383 15 62.0742 15.0625 61.9336 15.125C61.793 15.1875 61.6836 15.2812 61.6055 15.4062C61.543 15.5312 61.5117 15.7422 61.5117 16.0391C61.5117 16.4766 61.6289 16.8359 61.8633 17.1172C62.0977 17.3828 62.4023 17.5938 62.7773 17.75C63.168 17.9062 63.5977 18.0156 64.0664 18.0781C64.5508 18.125 65.0352 18.1484 65.5195 18.1484C66.0039 18.1484 66.4648 18.1328 66.9023 18.1016C67.3398 18.0547 67.7148 18.0078 68.0273 17.9609L68.3086 18.2422C68.1367 18.4766 67.8711 18.7031 67.5117 18.9219C67.168 19.125 66.7852 19.3125 66.3633 19.4844C65.957 19.6406 65.5508 19.7734 65.1445 19.8828C64.7383 19.9766 64.4023 20.0234 64.1367 20.0234C63.6367 20.0234 63.1523 19.9453 62.6836 19.7891C62.2148 19.6172 61.7852 19.3828 61.3945 19.0859C61.0039 18.7891 60.6602 18.4375 60.3633 18.0312C60.082 17.6094 59.8789 17.1562 59.7539 16.6719ZM64.3711 11.3984C64.2305 11.3984 64.0195 11.4531 63.7383 11.5625C63.457 11.6719 63.1758 11.8125 62.8945 11.9844C62.6133 12.1562 62.3711 12.3438 62.168 12.5469C61.9648 12.75 61.8633 12.9531 61.8633 13.1562V13.3203C61.9727 13.2734 62.1602 13.1953 62.4258 13.0859C62.707 12.9766 62.9883 12.8438 63.2695 12.6875C63.5664 12.5156 63.8242 12.3203 64.043 12.1016C64.2617 11.8828 64.3711 11.6484 64.3711 11.3984ZM86.7305 25.7656C86.7305 24.5469 86.7461 23.3906 86.7773 22.2969C86.8242 21.2031 86.918 20.0312 87.0586 18.7812C87.0117 18.3125 86.957 17.8047 86.8945 17.2578C86.832 16.6953 86.7305 16.1484 86.5898 15.6172C86.4648 15.0703 86.2852 14.5703 86.0508 14.1172C85.832 13.6641 85.543 13.3125 85.1836 13.0625C84.4648 13.9219 83.8711 14.7109 83.4023 15.4297C82.9492 16.1328 82.5742 16.7578 82.2773 17.3047C81.9961 17.8359 81.7695 18.2812 81.5977 18.6406C81.4258 18.9844 81.2695 19.2266 81.1289 19.3672C80.9883 19.5078 80.8398 19.5312 80.6836 19.4375C80.5273 19.3438 80.3242 19.125 80.0742 18.7812C80.3555 18.3281 80.7148 17.7422 81.1523 17.0234C81.5898 16.2891 82.0664 15.4766 82.582 14.5859C83.1133 13.6953 83.668 12.7578 84.2461 11.7734C84.8242 10.7734 85.3945 9.79688 85.957 8.84375C86.5352 7.875 87.082 6.95313 87.5977 6.07812C88.1133 5.20312 88.5742 4.4375 88.9805 3.78125C89.1211 3.71875 89.2305 3.6875 89.3086 3.6875C89.4023 3.6875 89.4648 3.70312 89.4961 3.73438C89.543 3.76563 89.5664 3.80469 89.5664 3.85156C89.582 3.88281 89.5898 3.90625 89.5898 3.92188C89.5898 4.34375 89.4805 4.85156 89.2617 5.44531C89.0586 6.03906 88.8008 6.64844 88.4883 7.27344C88.1914 7.88281 87.8789 8.46094 87.5508 9.00781C87.2383 9.53906 86.9648 9.95312 86.7305 10.25C87.1992 10.1406 87.6992 9.9375 88.2305 9.64062C88.7773 9.34375 89.3164 9.00781 89.8477 8.63281C90.3945 8.25781 90.9258 7.85938 91.4414 7.4375C91.9727 7.01562 92.4648 6.63281 92.918 6.28906C93.3867 5.94531 93.8086 5.66406 94.1836 5.44531C94.5586 5.21094 94.8711 5.09375 95.1211 5.09375C95.1992 5.09375 95.2773 5.13281 95.3555 5.21094C95.4336 5.28906 95.5039 5.39062 95.5664 5.51562C95.6289 5.625 95.6758 5.74219 95.707 5.86719C95.7539 5.97656 95.7773 6.0625 95.7773 6.125C95.5117 6.125 95.1523 6.26562 94.6992 6.54688C94.2461 6.8125 93.6523 7.20312 92.918 7.71875C92.1836 8.23438 91.2852 8.85938 90.2227 9.59375C89.1758 10.3125 87.9258 11.1172 86.4727 12.0078C86.6445 12.2422 86.832 12.5234 87.0352 12.8516C87.2539 13.1797 87.4492 13.5234 87.6211 13.8828C87.8086 14.2422 87.9648 14.6094 88.0898 14.9844C88.2148 15.3594 88.2773 15.7109 88.2773 16.0391C88.3555 17.6328 88.332 19.2188 88.207 20.7969C88.082 22.375 87.9961 23.9219 87.9492 25.4375C88.5898 25.5781 89.0352 25.7266 89.2852 25.8828C89.5508 26.0547 89.6758 26.2031 89.6602 26.3281C89.6445 26.4688 89.5195 26.5781 89.2852 26.6562C89.0664 26.7344 88.8008 26.7578 88.4883 26.7266C88.1914 26.7109 87.8789 26.625 87.5508 26.4688C87.2227 26.3281 86.9492 26.0938 86.7305 25.7656ZM91.3711 18.8281C91.3711 18.5938 91.4414 18.2656 91.582 17.8438C91.7227 17.4062 91.9023 16.9375 92.1211 16.4375C92.3555 15.9375 92.6133 15.4297 92.8945 14.9141C93.1914 14.3984 93.4883 13.9297 93.7852 13.5078C94.082 13.0859 94.3633 12.7422 94.6289 12.4766C94.8945 12.2109 95.1289 12.0781 95.332 12.0781C95.7695 12.0781 95.9883 12.2891 95.9883 12.7109C95.9883 12.8984 95.9492 13.0547 95.8711 13.1797C95.8086 13.3047 95.7305 13.4219 95.6367 13.5312C95.543 13.6406 95.4414 13.75 95.332 13.8594C95.2227 13.9531 95.1289 14.0703 95.0508 14.2109C94.9102 14.4453 94.7383 14.7656 94.5352 15.1719C94.332 15.5781 94.1289 15.9766 93.9258 16.3672C93.7383 16.7422 93.5742 17.0781 93.4336 17.375C93.293 17.6719 93.2227 17.8359 93.2227 17.8672V18.1719C93.832 18.0625 94.418 17.8047 94.9805 17.3984C95.543 16.9766 96.0742 16.4844 96.5742 15.9219C97.0898 15.3594 97.5742 14.7734 98.0273 14.1641C98.4961 13.5391 98.9336 12.9688 99.3398 12.4531C99.7461 11.9219 100.129 11.4844 100.488 11.1406C100.848 10.7969 101.184 10.625 101.496 10.625C101.496 11.2031 101.379 11.7266 101.145 12.1953C100.91 12.6641 100.652 13.125 100.371 13.5781C100.105 14.0312 99.8555 14.5 99.6211 14.9844C99.3867 15.4531 99.2695 15.9844 99.2695 16.5781C99.2695 16.8281 99.418 17.0547 99.7148 17.2578C100.027 17.4453 100.379 17.6094 100.77 17.75C101.176 17.875 101.566 17.9766 101.941 18.0547C102.316 18.1328 102.574 18.1797 102.715 18.1953V18.8047C102.355 18.8203 101.91 18.8281 101.379 18.8281C100.848 18.8125 100.316 18.75 99.7852 18.6406C99.2539 18.5312 98.7695 18.3516 98.332 18.1016C97.9102 17.8359 97.6289 17.4531 97.4883 16.9531C97.082 17.2188 96.6914 17.5312 96.3164 17.8906C95.9414 18.25 95.5508 18.5859 95.1445 18.8984C94.7539 19.2109 94.3398 19.4766 93.9023 19.6953C93.4648 19.9141 92.9883 20.0234 92.4727 20.0234C92.1602 20.0234 91.8945 19.8906 91.6758 19.625C91.4727 19.3594 91.3711 19.0938 91.3711 18.8281ZM113.895 20.0234C113.598 20.0234 113.324 19.9688 113.074 19.8594C112.84 19.75 112.645 19.5938 112.488 19.3906C112.332 19.1875 112.223 18.9609 112.16 18.7109C112.098 18.4453 112.105 18.1641 112.184 17.8672C112.184 17.3672 112.27 16.9062 112.441 16.4844C112.629 16.0469 112.832 15.6328 113.051 15.2422C113.285 14.8359 113.488 14.4375 113.66 14.0469C113.848 13.6406 113.941 13.2109 113.941 12.7578C113.598 12.7578 113.23 12.8672 112.84 13.0859C112.449 13.3047 112.051 13.5938 111.645 13.9531C111.254 14.3125 110.863 14.7188 110.473 15.1719C110.098 15.6094 109.738 16.0547 109.395 16.5078C109.066 16.9453 108.777 17.3672 108.527 17.7734C108.293 18.1797 108.113 18.5156 107.988 18.7812C107.957 18.7969 107.879 18.8125 107.754 18.8281C107.629 18.8281 107.551 18.8281 107.52 18.8281C107.27 18.9531 107.113 18.9531 107.051 18.8281C107.004 18.6875 107.004 18.4766 107.051 18.1953C107.113 17.9141 107.207 17.6016 107.332 17.2578C107.457 16.8984 107.574 16.5625 107.684 16.25C107.809 15.9219 107.902 15.6562 107.965 15.4531C108.027 15.2344 108.035 15.125 107.988 15.125C108.035 15.0625 108.09 14.9609 108.152 14.8203C108.215 14.6797 108.277 14.5312 108.34 14.375C108.402 14.2188 108.457 14.0781 108.504 13.9531C108.551 13.8125 108.574 13.7031 108.574 13.625C108.574 13.4844 108.52 13.3984 108.41 13.3672C108.316 13.3203 108.223 13.2969 108.129 13.2969C107.848 13.1406 107.543 13.2344 107.215 13.5781C106.902 13.9062 106.559 14.3828 106.184 15.0078C105.824 15.6172 105.426 16.3203 104.988 17.1172C104.566 17.8984 104.098 18.6562 103.582 19.3906C103.223 19.3906 102.949 19.3438 102.762 19.25C102.574 19.1562 102.48 18.9219 102.48 18.5469C102.605 18.375 102.793 18.0547 103.043 17.5859C103.293 17.1016 103.574 16.5703 103.887 15.9922C104.199 15.4141 104.527 14.8281 104.871 14.2344C105.23 13.6406 105.566 13.1406 105.879 12.7344C106.207 12.3125 106.496 12.0312 106.746 11.8906C107.012 11.7344 107.223 11.8047 107.379 12.1016C107.645 11.9297 107.934 11.7812 108.246 11.6562C108.574 11.5312 108.902 11.4688 109.23 11.4688C109.449 11.4688 109.629 11.5391 109.77 11.6797C109.926 11.8047 110.043 11.9688 110.121 12.1719C110.215 12.3594 110.285 12.5625 110.332 12.7812C110.379 12.9844 110.402 13.1641 110.402 13.3203C110.574 13.2109 110.855 13.0234 111.246 12.7578C111.652 12.4766 112.082 12.1953 112.535 11.9141C113.004 11.6328 113.457 11.3906 113.895 11.1875C114.348 10.9688 114.715 10.8594 114.996 10.8594C115.246 10.8594 115.457 10.9531 115.629 11.1406C115.816 11.3125 115.91 11.5312 115.91 11.7969C115.348 13.1719 114.902 14.2734 114.574 15.1016C114.262 15.9297 114.051 16.5781 113.941 17.0469C113.848 17.5 113.848 17.8281 113.941 18.0312C114.051 18.2188 114.238 18.3672 114.504 18.4766C114.926 18.4766 115.332 18.4062 115.723 18.2656C116.113 18.125 116.496 17.9688 116.871 17.7969C117.262 17.625 117.652 17.4688 118.043 17.3281C118.434 17.1875 118.848 17.1172 119.285 17.1172C119.285 17.2891 119.238 17.4531 119.145 17.6094C119.066 17.75 118.941 17.8594 118.77 17.9375C118.645 18.0156 118.418 18.1406 118.09 18.3125C117.777 18.4688 117.434 18.6406 117.059 18.8281C116.684 19 116.324 19.1719 115.98 19.3438C115.652 19.5156 115.418 19.6328 115.277 19.6953C114.965 19.8359 114.723 19.9297 114.551 19.9766C114.395 20.0078 114.176 20.0234 113.895 20.0234ZM118.77 18.4766C118.91 17.5859 119.176 16.7656 119.566 16.0156C119.957 15.2656 120.402 14.6172 120.902 14.0703C121.418 13.5078 121.973 13.0469 122.566 12.6875C123.16 12.3281 123.738 12.1016 124.301 12.0078C124.863 11.8984 125.379 11.9219 125.848 12.0781C126.332 12.2344 126.723 12.5469 127.02 13.0156C127.02 13.375 126.934 13.7188 126.762 14.0469C126.605 14.375 126.426 14.7031 126.223 15.0312C126.035 15.3594 125.855 15.6953 125.684 16.0391C125.527 16.3828 125.449 16.75 125.449 17.1406C125.449 17.5469 125.535 17.875 125.707 18.125C125.895 18.3594 126.215 18.4766 126.668 18.4766C127.043 18.4766 127.402 18.4219 127.746 18.3125C128.105 18.2031 128.465 18.1484 128.824 18.1484C128.887 18.1484 128.988 18.1562 129.129 18.1719C129.285 18.1719 129.387 18.1719 129.434 18.1719C129.246 18.4375 129.004 18.6641 128.707 18.8516C128.41 19.0391 128.098 19.2031 127.77 19.3438C127.441 19.4688 127.098 19.5625 126.738 19.625C126.395 19.6875 126.074 19.7188 125.777 19.7188C125.496 19.7188 125.246 19.6562 125.027 19.5312C124.809 19.4062 124.621 19.2422 124.465 19.0391C124.309 18.8359 124.184 18.6094 124.09 18.3594C124.012 18.0938 123.973 17.8359 123.973 17.5859C123.738 17.8516 123.48 18.1328 123.199 18.4297C122.934 18.7109 122.645 18.9688 122.332 19.2031C122.035 19.4375 121.707 19.6328 121.348 19.7891C121.004 19.9453 120.645 20.0234 120.27 20.0234C119.863 20.0234 119.512 19.875 119.215 19.5781C118.918 19.2656 118.77 18.8984 118.77 18.4766ZM120.316 17.75C120.316 17.875 120.316 18.0156 120.316 18.1719C120.332 18.3281 120.434 18.4297 120.621 18.4766C121.012 18.3828 121.457 18.1797 121.957 17.8672C122.457 17.5391 122.926 17.1641 123.363 16.7422C123.801 16.3047 124.168 15.8438 124.465 15.3594C124.762 14.8594 124.91 14.3828 124.91 13.9297C124.91 13.8984 124.902 13.8516 124.887 13.7891C124.887 13.7109 124.887 13.6562 124.887 13.625C124.355 13.625 123.816 13.7344 123.27 13.9531C122.723 14.1719 122.23 14.4766 121.793 14.8672C121.355 15.2422 120.996 15.6797 120.715 16.1797C120.449 16.6797 120.316 17.2031 120.316 17.75ZM133.91 18.1953C133.91 17.7266 134.004 17.2969 134.191 16.9062C134.395 16.5 134.613 16.1172 134.848 15.7578C135.082 15.3984 135.293 15.0391 135.48 14.6797C135.684 14.3203 135.785 13.9375 135.785 13.5312C135.785 13.4375 135.777 13.3281 135.762 13.2031C135.762 13.0625 135.746 12.9297 135.715 12.8047C135.699 12.6797 135.652 12.5781 135.574 12.5C135.512 12.4062 135.426 12.3594 135.316 12.3594C135.301 12.3594 135.27 12.3672 135.223 12.3828C135.191 12.3828 135.176 12.3906 135.176 12.4062C134.957 12.7031 134.691 13.0391 134.379 13.4141C134.082 13.7734 133.762 14.1328 133.418 14.4922C133.074 14.8516 132.738 15.1953 132.41 15.5234C132.082 15.8516 131.785 16.125 131.52 16.3438C131.332 16.5156 131.074 16.75 130.746 17.0469C130.434 17.3438 130.113 17.6406 129.785 17.9375C129.473 18.2188 129.191 18.4688 128.941 18.6875C128.707 18.9062 128.574 19.0156 128.543 19.0156L127.465 18.1016C127.605 18.1016 127.746 18.0703 127.887 18.0078C128.012 17.9453 128.137 17.875 128.262 17.7969C129.199 17.1719 130.043 16.4531 130.793 15.6406C131.559 14.8281 132.309 13.9531 133.043 13.0156C133.074 12.9688 133.152 12.8359 133.277 12.6172C133.418 12.3828 133.566 12.125 133.723 11.8438C133.879 11.5469 134.035 11.2578 134.191 10.9766C134.348 10.6797 134.465 10.4453 134.543 10.2734C134.637 10.0703 134.691 9.90625 134.707 9.78125C134.738 9.65625 134.762 9.5625 134.777 9.5C134.809 9.42188 134.855 9.36719 134.918 9.33594C134.98 9.30469 135.113 9.28906 135.316 9.28906C135.348 9.28906 135.418 9.29688 135.527 9.3125C135.652 9.32812 135.73 9.34375 135.762 9.35938C135.965 9.78125 136.145 10.1562 136.301 10.4844C136.457 10.8125 136.59 11.125 136.699 11.4219C136.809 11.7031 136.887 11.9922 136.934 12.2891C136.996 12.5859 137.027 12.9141 137.027 13.2734C136.824 13.7891 136.598 14.3203 136.348 14.8672C136.098 15.3984 135.887 15.9062 135.715 16.3906C135.543 16.875 135.434 17.3125 135.387 17.7031C135.355 18.0938 135.441 18.4062 135.645 18.6406C135.863 18.8594 136.223 18.9766 136.723 18.9922C137.238 19.0078 137.965 18.875 138.902 18.5938C139.152 18.7188 139.176 18.875 138.973 19.0625C138.77 19.2344 138.457 19.3984 138.035 19.5547C137.629 19.7109 137.176 19.8438 136.676 19.9531C136.191 20.0469 135.785 20.0703 135.457 20.0234C135.16 20.0234 134.91 19.9766 134.707 19.8828C134.52 19.7734 134.363 19.6328 134.238 19.4609C134.129 19.2891 134.043 19.0938 133.98 18.875C133.934 18.6562 133.91 18.4297 133.91 18.1953Z" fill="#222222"/>
</svg>
