<svg width="450" height="279" viewBox="0 0 450 279" fill="none" xmlns="http://www.w3.org/2000/svg">
<g clip-path="url(#clip0_1248_5389)">
<g opacity="0.4">
<path opacity="0.4" d="M415.676 223.786C434.08 189.015 436.02 143.799 413.267 111.706C398.45 90.8073 374.823 77.3384 350.073 70.7315C298.542 56.9761 240.941 72.1186 200.77 107.202C188.262 118.126 176.694 131.212 160.953 136.504C148.932 140.544 135.902 139.517 123.225 139.814C106.533 140.207 89.6811 143.063 74.6281 150.291C59.5768 157.518 46.4105 169.393 39.5819 184.632C29.4744 207.192 34.5037 234.308 47.0551 255.605C52.0145 264.02 58.1077 271.757 65.0761 278.6H367.726C387.261 263.56 404.194 245.479 415.676 223.784V223.786Z" fill="#E5E5FF"/>
</g>
<path opacity="0.4" d="M69.2572 105.773C83.1028 105.773 94.3269 94.5491 94.3269 80.7031C94.3269 66.8572 83.1028 55.6328 69.2572 55.6328C55.4116 55.6328 44.1875 66.8572 44.1875 80.7031C44.1875 94.5491 55.4116 105.773 69.2572 105.773Z" fill="#E5E5FF"/>
<path d="M396.039 123.402C394.935 123.402 393.819 123.325 392.724 123.175L392.804 122.582C394.102 122.761 395.416 122.831 396.726 122.794L396.743 123.391C396.509 123.398 396.273 123.402 396.039 123.402ZM400.747 122.944L400.632 122.357C401.916 122.104 403.188 121.742 404.409 121.281L404.62 121.84C403.366 122.313 402.063 122.684 400.747 122.944ZM388.793 122.299C387.513 121.899 386.257 121.389 385.062 120.783L385.333 120.25C386.498 120.842 387.722 121.339 388.97 121.728L388.792 122.299H388.793ZM408.255 120.107L407.955 119.592C409.08 118.935 410.163 118.177 411.171 117.335L411.554 117.792C410.519 118.655 409.41 119.433 408.255 120.105V120.107ZM381.638 118.666C380.674 117.951 379.75 117.155 378.892 116.299L378.609 116.012L379.037 115.596L379.313 115.876C380.15 116.713 381.051 117.49 381.993 118.185L381.638 118.666ZM414.424 114.969L413.971 114.58C414.825 113.589 415.603 112.52 416.281 111.402L416.791 111.711C416.095 112.855 415.299 113.953 414.424 114.969ZM376.057 112.896C375.295 111.79 374.621 110.614 374.055 109.4L374.596 109.147C375.148 110.331 375.805 111.477 376.548 112.555L376.057 112.894V112.896ZM418.585 108.106L418.029 107.885C418.511 106.67 418.894 105.405 419.168 104.126L419.752 104.252C419.47 105.562 419.077 106.858 418.583 108.106H418.585ZM372.666 105.62C372.31 104.327 372.058 102.996 371.92 101.661L372.514 101.6C372.648 102.901 372.893 104.199 373.241 105.461L372.664 105.62H372.666ZM420.269 100.258L419.673 100.23C419.689 99.8705 419.698 99.5089 419.698 99.1473C419.698 98.1987 419.64 97.2431 419.526 96.305L420.12 96.2334C420.236 97.1942 420.295 98.1742 420.295 99.1473C420.295 99.5176 420.286 99.888 420.269 100.258ZM372.434 97.6729L371.838 97.6362C371.922 96.2963 372.116 94.9546 372.42 93.6514L373.001 93.7859C372.706 95.0577 372.516 96.3661 372.435 97.6729H372.434ZM418.735 92.4583C418.366 91.2005 417.889 89.9689 417.317 88.7949L417.855 88.5329C418.44 89.7365 418.929 90.9995 419.308 92.2888L418.735 92.4565V92.4583ZM374.201 90.0475L373.649 89.8186C374.165 88.5818 374.788 87.3782 375.503 86.2444L376.008 86.5623C375.311 87.6681 374.703 88.8421 374.201 90.0475ZM415.309 85.4181C414.553 84.3594 413.699 83.3497 412.769 82.4203L413.19 81.9976C414.144 82.9514 415.019 83.9839 415.795 85.0704L415.309 85.4181ZM378.371 83.4231L377.926 83.0248C378.238 82.6754 378.56 82.333 378.895 81.9993C379.512 81.3827 380.167 80.7939 380.841 80.2489L381.217 80.7136C380.558 81.2447 379.919 81.8194 379.316 82.4221C378.991 82.7488 378.675 83.0824 378.371 83.4231ZM410.404 80.3467C409.365 79.5501 408.252 78.8374 407.097 78.2277L407.377 77.7001C408.559 78.3255 409.7 79.0575 410.766 79.8733L410.402 80.3467H410.404ZM384.47 78.5089L384.178 77.9884C385.347 77.3315 386.58 76.769 387.843 76.3165L388.046 76.8791C386.814 77.321 385.612 77.8696 384.471 78.5089H384.47ZM403.486 76.6869C402.246 76.2781 400.962 75.9689 399.668 75.768L399.758 75.1775C401.086 75.3819 402.403 75.6981 403.673 76.1191L403.486 76.6869ZM391.838 75.8658L391.733 75.2771C393.052 75.0395 394.401 74.912 395.742 74.8945L395.749 75.492C394.441 75.5077 393.126 75.6335 391.838 75.8641V75.8658Z" fill="#9192FF"/>
<path d="M343.251 149.786L343.169 149.194C344.46 149.014 345.706 148.633 346.871 148.062L347.135 148.598C345.912 149.197 344.607 149.595 343.251 149.786ZM339.193 149.707C337.848 149.466 336.557 149.017 335.361 148.369L335.644 147.843C336.784 148.46 338.014 148.888 339.296 149.119L339.191 149.707H339.193ZM350.452 146.257L350.033 145.831L350.148 145.717C351.034 144.832 351.773 143.825 352.349 142.727L352.878 143.004C352.276 144.159 351.498 145.212 350.571 146.142L350.452 146.259V146.257ZM332.139 145.902C331.196 144.91 330.422 143.785 329.84 142.555L330.38 142.3C330.936 143.471 331.673 144.545 332.572 145.49L332.139 145.902ZM354.166 139.154L353.575 139.056C353.685 138.392 353.741 137.715 353.741 137.04C353.741 136.42 353.694 135.796 353.602 135.183L354.192 135.092C354.29 135.734 354.339 136.389 354.339 137.04C354.339 137.746 354.279 138.457 354.164 139.152L354.166 139.154ZM328.705 138.658C328.637 138.125 328.604 137.582 328.604 137.04C328.604 136.224 328.682 135.403 328.836 134.6L329.423 134.712C329.276 135.477 329.201 136.261 329.201 137.038C329.201 137.554 329.232 138.073 329.297 138.581L328.705 138.656V138.658ZM352.422 131.497C351.839 130.342 351.074 129.289 350.15 128.365L350.571 127.942C351.54 128.912 352.342 130.018 352.955 131.228L352.422 131.497ZM330.743 131.076L330.223 130.786C330.799 129.749 331.524 128.791 332.373 127.942C332.49 127.823 332.611 127.708 332.731 127.596L333.138 128.035C333.023 128.143 332.908 128.253 332.796 128.365C331.986 129.176 331.295 130.087 330.745 131.078L330.743 131.076ZM347.575 126.391C346.448 125.745 345.23 125.283 343.955 125.021L344.076 124.436C345.414 124.71 346.691 125.194 347.872 125.872L347.575 126.389V126.391ZM336.358 125.883L336.11 125.339C337.348 124.771 338.664 124.406 340.021 124.254L340.088 124.848C338.793 124.995 337.537 125.343 336.356 125.883H336.358Z" fill="#9192FF"/>
<path d="M388.673 164.305C384.519 164.305 381.139 160.925 381.139 156.77C381.139 152.616 384.519 149.236 388.673 149.236C392.827 149.236 396.207 152.616 396.207 156.77C396.207 160.925 392.827 164.305 388.673 164.305ZM388.673 149.833C384.849 149.833 381.736 152.945 381.736 156.77C381.736 160.596 384.847 163.707 388.673 163.707C392.499 163.707 395.61 160.596 395.61 156.77C395.61 152.945 392.499 149.833 388.673 149.833Z" fill="#9192FF"/>
<path d="M187.435 16.6902C183.281 16.6902 179.9 13.3099 179.9 9.15564C179.9 5.00142 183.281 1.62109 187.435 1.62109C191.589 1.62109 194.969 5.00142 194.969 9.15564C194.969 13.3099 191.589 16.6902 187.435 16.6902ZM187.435 2.21855C183.611 2.21855 180.498 5.32984 180.498 9.15564C180.498 12.9814 183.609 16.0927 187.435 16.0927C191.26 16.0927 194.372 12.9814 194.372 9.15564C194.372 5.32984 191.26 2.21855 187.435 2.21855Z" fill="#9192FF"/>
<path d="M23.0304 133.309C18.8763 133.309 15.4961 129.929 15.4961 125.774C15.4961 121.62 18.8763 118.24 23.0304 118.24C27.1846 118.24 30.5648 121.62 30.5648 125.774C30.5648 129.929 27.1846 133.309 23.0304 133.309ZM23.0304 118.837C19.2048 118.837 16.0935 121.948 16.0935 125.774C16.0935 129.6 19.2048 132.711 23.0304 132.711C26.8561 132.711 29.9674 129.6 29.9674 125.774C29.9674 121.948 26.8561 118.837 23.0304 118.837Z" fill="#9192FF"/>
<path d="M368.761 53.0337L357.074 41.3467L368.761 29.6597L380.446 41.3467L368.761 53.0337ZM357.92 41.3467L368.761 52.1882L379.602 41.3467L368.761 30.5052L357.92 41.3467Z" fill="#9192FF"/>
<path d="M51.0466 77.6844L48.2306 74.8684L48.6533 74.4456L51.4693 77.2617L51.0466 77.6844ZM54.2853 75.8921L53.8626 75.4693L56.6786 72.6533L57.1013 73.076L54.2853 75.8921ZM45.4146 72.0523L42.5986 69.2362L43.0213 68.8135L45.8373 71.6296L45.4146 72.0523ZM59.9156 70.26L59.4928 69.8372L62.3088 67.0211L62.7316 67.4439L59.9156 70.26ZM39.7826 66.4219L36.9666 63.6059L37.3894 63.1831L40.2054 65.9992L39.7826 66.4219ZM65.5476 64.6296L65.1248 64.2068L67.9408 61.3907L68.3635 61.8135L65.5476 64.6296ZM34.1506 60.7898L31.3346 57.9737L31.7574 57.551L34.5734 60.367L34.1506 60.7898ZM71.1795 58.9974L70.7568 58.5747L73.5728 55.7586L73.9955 56.1814L71.1795 58.9974ZM72.8024 55.411L69.9864 52.5949L70.4092 52.1722L73.2252 54.9882L72.8024 55.411ZM30.9852 55.1577L30.5625 54.7349L33.3785 51.9188L33.8012 52.3416L30.9852 55.1577ZM67.1704 49.7789L64.3544 46.9628L64.7772 46.54L67.5932 49.3561L67.1704 49.7789ZM36.6172 49.5255L36.1945 49.1028L39.0105 46.2867L39.4332 46.7095L36.6172 49.5255ZM61.5384 44.1467L58.7224 41.3307L59.1452 40.9079L61.9612 43.724L61.5384 44.1467ZM42.2492 43.8934L41.8265 43.4707L44.6425 40.6546L45.0652 41.0773L42.2492 43.8934ZM55.9064 38.5146L53.0905 35.6985L53.5132 35.2758L56.3292 38.0918L55.9064 38.5146ZM47.8812 38.2613L47.4585 37.8385L50.2745 35.0225L50.6972 35.4452L47.8812 38.2613Z" fill="#9192FF"/>
<path d="M51.1914 226.665H86.0472L86.2918 224.986H51.436L51.1914 226.665Z" fill="#D1D1FF"/>
<path d="M53.3418 211.943H88.1976L88.4421 210.265H53.5864L53.3418 211.943Z" fill="#D1D1FF"/>
<path d="M55.4902 197.224H90.346L90.5923 195.545H55.7365L55.4902 197.224Z" fill="#D1D1FF"/>
<path d="M57.6406 182.504H92.4964L92.741 180.825H57.8852L57.6406 182.504Z" fill="#D1D1FF"/>
<path d="M60.0354 166.104L59.7891 167.783H94.6448L94.8912 166.104H60.0354Z" fill="#D1D1FF"/>
<path d="M49.043 241.385H83.8988L84.1433 239.706H49.2875L49.043 241.385Z" fill="#D1D1FF"/>
<path d="M46.8926 256.105H81.7484L81.9929 254.426H47.1371L46.8926 256.105Z" fill="#D1D1FF"/>
<path d="M62.184 151.384L61.9395 153.063H96.7952L97.0398 151.384H62.184Z" fill="#D1D1FF"/>
<path d="M96.618 151.334L78.0918 278.641L78.8801 278.755L97.4063 151.448L96.618 151.334Z" fill="#D1D1FF"/>
<path d="M61.7762 151.226L43.25 278.533L44.0383 278.647L62.5645 151.34L61.7762 151.226Z" fill="#D1D1FF"/>
<path d="M99.4365 116.348L88.5516 129.357L84.2734 131.41L88.1236 136.757L90.2775 135.596C92.5607 134.158 94.6657 132.24 95.9846 129.887L101.03 120.86L99.4365 116.346V116.348Z" fill="#FFBC96"/>
<path d="M71.957 137.322L78.4625 141.968L88.9491 137.853L84.2726 131.412L71.957 137.322Z" fill="#FFA121"/>
<path d="M179.714 58.8158C177.602 60.016 175.93 61.7157 174.725 63.7387L159.518 36.9634L77.6309 83.4721L124.142 165.369L154.566 148.09C154.403 150.738 154.955 153.372 156.306 155.748C160.526 163.18 170.971 165.217 179.643 160.292C188.307 155.371 191.914 145.354 187.694 137.922C186.345 135.547 184.364 133.723 182.008 132.505L206.033 118.86L190.76 91.9675C193.115 91.9675 195.431 91.4032 197.543 90.2031C204.974 85.9825 207.011 75.5375 202.087 66.8675C197.166 58.2027 187.149 54.5952 179.718 58.8158H179.714Z" fill="#3335CF"/>
<g opacity="0.6">
<path opacity="0.6" d="M196.168 69.0757C186.911 71.7293 176.154 81.3462 166.282 75.5289C161.733 72.8474 159.871 67.8179 162.594 63.0977C164.371 60.0179 167.01 57.3381 169.62 54.7491L169.351 54.2739C167.702 55.9859 166.07 57.7119 164.509 59.5008C162.007 62.3675 159.808 65.9609 160.919 69.9055C161.911 73.4291 165.096 76.046 168.472 77.1798C172.843 78.6472 177.598 77.5449 181.758 75.9202C186.895 73.9148 191.619 70.8506 196.994 69.4618C198.937 68.9604 201.042 68.7403 203.096 68.8993C203.003 68.6862 202.907 68.4713 202.806 68.2599C200.594 68.1324 198.348 68.4503 196.169 69.074L196.168 69.0757Z" fill="white"/>
<path opacity="0.6" d="M191.671 91.6568C182.22 93.0648 171.131 96.9378 168.138 107.131C165.466 116.236 172.452 124.606 180.5 127.901C182.673 128.79 184.907 129.31 187.169 129.574L188.058 129.069C185.936 128.882 183.834 128.473 181.778 127.749C173.15 124.711 165.48 115.733 169.073 106.223C172.572 96.9622 182.018 94.0186 191.033 92.4516L190.759 91.9677C192.356 91.9677 193.933 91.7004 195.442 91.1606C194.169 91.3214 192.904 91.4733 191.671 91.6568Z" fill="white"/>
<path opacity="0.6" d="M134.583 159.44L135.443 158.952C140.301 147.11 143.91 134.731 142.458 121.812C141.56 113.82 138.676 105.699 133.151 99.7118C130.806 97.1717 127.891 94.9968 124.491 94.1495C120.767 93.2201 116.985 94.1583 113.673 95.9489C106.348 99.9109 101.331 108.452 93.1172 110.74L93.381 111.207C96.9604 110.064 100.262 107.687 103.099 105.178C109.44 99.5703 117.205 91.3579 126.52 95.4807C134.316 98.9309 138.879 108.064 140.811 115.922C144.486 130.874 140.324 145.571 134.583 159.441V159.44Z" fill="white"/>
<path opacity="0.6" d="M121.33 70.2271C119.204 73.9376 115.502 76.8236 112.091 79.2885C108.329 82.005 104.223 84.2428 99.9025 85.9356C94.3578 88.1088 87.8 89.4766 83.3262 93.4998L83.6162 94.0117C86.4723 91.3895 90.2526 89.9273 93.8931 88.6713C98.4438 87.1008 102.905 85.5408 107.117 83.1684C111.049 80.9533 114.755 78.277 118.025 75.1605C120.311 72.9803 122.526 70.3791 123.148 67.1892C123.753 64.0779 122.871 61.2112 121.176 58.7393L120.572 59.0834C122.823 62.3449 123.617 66.2389 121.332 70.2271H121.33Z" fill="white"/>
</g>
<path d="M80.2227 129.041C80.2227 129.041 81.6831 130.589 81.6097 130.968C81.5363 131.347 79.9746 131.698 79.9746 131.698L80.2227 129.041Z" fill="#D28572"/>
<path d="M78.1671 132.074H72.1211V139.257H78.1671V132.074Z" fill="#FFBC96"/>
<path d="M78.1651 132.074V137.044C76.1107 136.71 74.6014 135.332 73.6074 132.743L76.0705 132.074H78.1651Z" fill="#1B1B43"/>
<path d="M79.7701 125.713C79.7701 125.713 82.3974 135.113 77.2004 134.939C73.3957 134.811 71.4199 130.91 71.4199 130.91L74.2813 125.655L79.7701 125.713Z" fill="#FFBC96"/>
<path d="M76.8807 130.412C76.5016 129.128 76.706 127.741 77.6685 126.91C80.219 127.675 82.0323 127.077 82.8935 124.721C82.8935 124.721 80.3692 125.357 78.6014 123.729C76.7339 122.006 73.055 123.467 72.7336 124.546C69.0476 125.914 69.4354 129.275 72.0907 133.363C72.7615 131.875 74.3564 131.279 75.9443 130.853L76.8789 130.414L76.8807 130.412Z" fill="#1B1B43"/>
<path d="M77.1288 129.843C77.5306 130.606 77.3542 131.488 76.7358 131.813C76.1174 132.138 75.2911 131.782 74.8893 131.019C74.4875 130.255 74.664 129.373 75.2824 129.048C75.9008 128.723 76.727 129.079 77.1288 129.843Z" fill="#FFBC96"/>
<path d="M72.529 225.332H65.5781L66.1878 218.032H72.1639L72.529 225.332Z" fill="#1B1B43"/>
<path d="M65.4517 159.225C63.4882 162.201 63.1947 168.915 64.2568 172.234V220.156H73.6813L76.3366 164.403L65.4517 159.225Z" fill="#3335CF"/>
<path d="M73.8237 167.64C73.525 169.977 74.3216 172.767 75.8815 174.46L76.0807 169.282L73.8237 167.64Z" fill="#1B1B43"/>
<path d="M78.9315 200.79L76.6641 204.829L86.4047 210.298L83.7809 203.95L85.2815 201.167L80.0758 198.306L78.9315 200.79Z" fill="#1B1B43"/>
<path d="M79.2573 158.03L90.3081 171.67C92.9966 175.155 94.057 178.686 92.7975 182.821L86.1278 202.135L77.7986 199.181L82.6445 178.638C77.5366 174.219 71.8225 167.13 65.9844 159.49L79.259 158.03H79.2573Z" fill="#3335CF"/>
<path d="M83.4857 147C83.4857 147.031 83.4857 147.056 83.477 147.087C83.4141 148.17 83.318 149.238 83.1975 150.273C82.8551 153.245 82.3205 156.031 81.5798 158.613C81.4121 159.186 81.0855 159.553 80.6645 159.768C80.3221 159.967 79.9081 160.055 79.4696 160.095C77.6057 160.231 75.7574 159.672 73.8778 159.752C72.061 159.833 70.4609 160.374 68.7804 160.811C68.4222 160.907 68.0641 160.994 67.6973 161.073C67.5628 161.104 67.4108 161.129 67.2588 161.16C66.4378 161.304 65.3879 161.391 64.5756 161.097C64.1371 160.945 63.7633 160.69 63.5327 160.269C62.944 159.218 63.9222 157.761 64.2175 156.756C64.607 155.427 64.918 154.08 65.1573 152.717C65.6517 149.907 65.8176 147.047 65.7233 144.196C65.5958 140.484 68.3436 137.234 72.0401 136.852C72.0645 136.852 72.096 136.843 72.1204 136.843C74.1992 136.635 76.2536 136.731 78.1664 137.051C78.9875 137.194 79.784 137.378 80.5404 137.601H80.5562C81.6707 137.928 82.7066 138.333 83.6377 138.812C83.718 141.663 83.6691 144.395 83.4857 147Z" fill="#FFA121"/>
<path d="M83.477 146.968V147.087C83.4141 148.17 83.318 149.238 83.1975 150.274C81.8349 149.543 81.337 148.05 81.1641 146.855C81.1554 146.815 83.477 146.967 83.477 146.967V146.968Z" fill="#1B1B43"/>
<path d="M91.8674 139.91L99.3669 138.782L106.828 131.307L110.252 134.467L103.086 142.831C101.957 144.15 100.357 144.973 98.6279 145.128L87.2207 146.149L91.8674 139.91Z" fill="#FFBC96"/>
<path d="M106.83 131.307L107.709 128.41C107.709 128.41 107.994 124.855 108.455 125.25C108.916 125.645 109.201 128.344 109.201 128.344C109.201 128.344 111.044 123.538 111.769 123.538C112.494 123.538 111.22 128.236 111.22 128.236C111.22 128.236 113.196 128.851 113.327 130.255C113.402 131.055 110.254 134.469 110.254 134.469L106.436 134.732L106.83 131.308V131.307Z" fill="#FFBC96"/>
<path d="M80.5398 137.598C84.6415 138.597 88.593 139.505 91.8492 139.909L91.1033 147.276L78.9082 146.828L80.5398 137.598Z" fill="#FFA121"/>
<path d="M91.8292 140.067C87.4165 139.456 82.8047 138.492 78.123 137.206L78.2069 136.898C82.8763 138.181 87.4724 139.141 91.8711 139.751L91.8274 140.066L91.8292 140.067Z" fill="#1B1B43"/>
<path d="M366.628 198.936C365.552 199.436 364.552 200.161 363.901 201.153C363.249 202.143 362.982 203.426 363.365 204.549C363.63 205.33 364.196 206.041 364.165 206.865C364.138 207.564 363.682 208.17 363.202 208.677C362.722 209.185 362.18 209.668 361.906 210.31C361.632 210.953 361.728 211.827 362.329 212.185C362.552 212.318 362.846 212.391 362.951 212.629C363.099 212.961 362.771 213.292 362.523 213.558C361.75 214.393 361.593 215.738 362.152 216.729C362.711 217.719 363.945 218.28 365.059 218.049L381.705 211.596C382.511 210.69 382.201 209.267 381.7 208.163C381.578 207.896 381.447 207.629 381.251 207.411C381.027 207.161 380.732 206.986 380.442 206.815C379.855 206.469 379.268 206.125 378.68 205.779C378.418 205.625 378.142 205.457 377.997 205.188C377.658 204.563 378.155 203.655 377.675 203.131C377.341 202.765 376.72 202.828 376.353 202.496C375.975 202.156 376.019 201.567 375.926 201.066C375.588 199.251 373.058 198.466 371.617 198.255C369.786 197.984 368.259 198.18 366.629 198.938L366.628 198.936Z" fill="#FFA121"/>
<path d="M377.802 210.234L373.915 213.579L372.871 212.36L369.957 208.967L371.582 207.573L373.844 205.63L377.802 210.234Z" fill="#FFBC96"/>
<path d="M372.871 212.36L369.955 208.967L371.58 207.573L373.842 207.287C374.128 209.126 373.746 210.807 372.871 212.36Z" fill="#1B1B43"/>
<path d="M373.684 203.162C374.826 205.917 373.846 209.385 372.18 210.076C370.456 210.791 368.092 209.886 366.054 206.327C364.572 203.74 365.774 201.228 367.883 200.355C369.991 199.481 372.542 200.407 373.684 203.162Z" fill="#FFBC96"/>
<path d="M372.154 203.222C371.962 203.061 371.748 202.909 371.514 202.907C371.261 202.905 371.034 203.078 370.805 203.206C370.576 203.333 370.292 203.415 370.082 203.248C369.972 203.159 369.9 203.017 369.818 202.891C369.664 202.657 369.449 202.465 369.203 202.434C368.959 202.4 368.688 202.561 368.606 202.844C368.545 203.057 368.594 203.295 368.56 203.517C368.506 203.882 368.206 204.167 367.902 204.14C367.621 204.116 367.325 203.868 367.079 204.036C366.852 204.191 366.85 204.582 366.897 204.893C366.944 205.204 367.002 205.566 366.829 205.802C366.688 205.994 366.448 206.017 366.239 205.99C366.029 205.964 365.811 205.903 365.608 205.98C365.405 206.057 365.238 206.342 365.336 206.57C365.124 206.289 364.976 205.942 364.909 205.569C364.85 205.241 364.855 204.9 364.885 204.567C365.067 202.538 366.246 200.688 367.816 199.972C368.099 199.843 368.394 199.749 368.691 199.68C370.045 199.37 371.483 199.616 372.713 200.372C373.251 200.702 373.757 201.137 374.121 201.723C374.498 202.329 374.708 203.087 374.699 203.847C374.692 204.401 374.533 205.007 374.131 205.271C373.937 205.398 373.42 205.559 373.211 205.414C372.962 205.243 373.092 205.12 373.076 204.82C373.043 204.139 372.589 203.592 372.152 203.227L372.154 203.222Z" fill="#FFA121"/>
<path d="M373.647 205.87C374.467 205.87 375.132 205.205 375.132 204.385C375.132 203.565 374.467 202.9 373.647 202.9C372.827 202.9 372.162 203.565 372.162 204.385C372.162 205.205 372.827 205.87 373.647 205.87Z" fill="#FFBC96"/>
<path d="M381.707 273.28L382.068 278.973L371.051 279L375.998 274.234L375.738 271.084L381.654 270.548L381.707 273.28Z" fill="#1B1B43"/>
<path d="M390.594 236.699L389.057 238.396L387.24 240.403L385.305 242.538L378.375 250.191L383.065 272.492H374.112L368.274 255.257C366.69 250.605 367.63 245.469 370.76 241.676L376.757 234.397L379.657 230.877L381.807 229.865L384.77 228.464L386.945 231.539L390.592 236.699H390.594Z" fill="#3335CF"/>
<path d="M389.056 238.396L385.306 242.538C384.228 240.468 384.873 237.51 386.419 236.418L389.058 238.396H389.056Z" fill="#1B1B43"/>
<path d="M414.311 268.351L417.667 272.964L408.378 278.89L410.001 272.215L408.094 269.694L412.802 266.073L414.311 268.351Z" fill="#1B1B43"/>
<path d="M414.758 266.059L413.42 267.007L408.625 270.4L406.593 271.834L397.004 255.697C394.057 252.439 390.737 246.905 387.239 240.405C385.997 238.087 384.731 235.643 383.448 233.132C382.907 232.058 382.357 230.966 381.808 229.867C381.562 229.389 381.322 228.903 381.076 228.417L384.469 226.976L390.434 224.436L391.383 226.054L392.204 227.472L414.76 266.062L414.758 266.059Z" fill="#3335CF"/>
<path opacity="0.6" d="M392.204 227.469C390.548 229.149 385.826 233.497 383.281 234.266C381.113 234.921 379.006 234.843 376.76 234.397L379.66 230.877L381.81 229.866C381.564 229.387 381.324 228.901 381.078 228.416L384.471 226.974L391.383 226.05L392.204 227.469Z" fill="#1B1B43"/>
<path d="M354.759 218.83C354.759 218.83 351.174 213.918 351.108 215.046C351.061 215.853 351.052 219.211 351.183 221.19C351.234 221.94 351.849 222.521 352.6 222.535L354.857 222.577L354.757 218.828L354.759 218.83Z" fill="#D28572"/>
<path d="M375.135 211.196L367.567 220.121L354.226 218.13L353.828 224.003L366.044 226.726C367.622 227.078 369.269 226.63 370.453 225.531L382.701 214.147L375.135 211.194V211.196Z" fill="#D1D1FF"/>
<path d="M380.542 232.432C379.164 232.933 377.642 232.201 377.141 230.751C376.814 229.803 376.4 228.769 375.955 227.693C375.239 225.94 374.442 224.052 373.82 222.156C372.491 218.111 371.949 214.016 374.624 211.077C375.548 210.05 376.926 209.484 378.296 209.692C380.334 210.01 383.409 211.708 386.642 217.904C387.479 219.505 388.625 220.907 390.012 222.006C391.127 222.883 392.33 223.982 392.673 224.835C393.509 226.938 385.067 230.776 380.542 232.434V232.432Z" fill="#D1D1FF"/>
<path d="M379.164 218.214C378.893 222.092 377.691 225.35 375.955 227.693C375.239 225.941 374.442 224.052 373.82 222.157L379.164 218.214Z" fill="#1B1B43"/>
<path d="M373.954 223.058C373.868 222.776 373.777 222.49 373.685 222.197C372.886 219.667 371.894 216.517 373.192 212.803L373.493 212.908C372.23 216.522 373.164 219.485 373.989 222.099C374.081 222.394 374.172 222.682 374.258 222.963L373.954 223.056V223.058Z" fill="#9192FF"/>
<path d="M354.725 222.976C354.725 222.976 350.941 217.466 350.875 218.594C350.828 219.401 350.709 223.21 351.182 224.972C351.376 225.697 351.848 226.304 352.599 226.317L354.856 226.359L354.723 222.974L354.725 222.976Z" fill="#FFBC96"/>
<path d="M378.218 211.56L367.566 223.905L354.224 221.914L353.826 227.787L366.042 230.51C367.62 230.861 369.267 230.414 370.451 229.315L382.699 217.931L378.218 211.56Z" fill="#D1D1FF"/>
<path d="M367.632 224.077L354.203 222.073L354.25 221.757L367.504 223.736L377.072 212.554L377.313 212.762L367.632 224.077Z" fill="#9192FF"/>
<path d="M351.116 184.817V279.002H256.934V248.146C258.981 249.3 261.275 249.954 263.703 249.954C272.249 249.954 279.179 241.878 279.179 231.913C279.179 221.949 272.249 213.866 263.703 213.866C261.273 213.866 258.979 214.519 256.934 215.682V184.819H290.783C289.931 183.02 289.461 181.06 289.461 178.997C289.461 170.451 297.537 163.521 307.508 163.521C317.479 163.521 325.555 170.451 325.555 178.997C325.555 181.06 325.085 183.018 324.233 184.819H351.114L351.116 184.817Z" fill="#9192FF"/>
<g opacity="0.6">
<path opacity="0.6" d="M278.969 228.945C278.998 229.156 279.025 229.368 279.047 229.581C286.47 231.506 295.62 236.415 301.996 229.509C304.475 226.824 305.768 223.185 306.514 219.669C307.534 214.852 307.799 209.839 307.45 204.935C307.104 200.082 305.927 195.484 304.702 190.795C303.329 185.537 302.575 180.134 305.35 175.188C308.013 170.442 312.212 167.603 316.992 165.83C316.752 165.702 316.508 165.58 316.261 165.463C313.597 166.53 311.094 167.966 308.869 169.954C306.129 172.4 303.976 175.576 303.168 179.192C302.092 184.012 303.572 188.888 304.819 193.519C306.292 198.988 307.116 204.545 306.977 210.219C306.854 215.144 306.278 220.388 304.231 224.927C302.108 229.637 298.157 232.786 292.808 232.542C288.002 232.322 283.584 230.112 278.969 228.947V228.945Z" fill="white"/>
<path opacity="0.6" d="M351.116 252.338C345.73 258.452 336.641 259.983 328.826 259.755C314.281 259.334 296.95 252.799 283.695 261.817C277.893 265.763 274.801 272.222 273.912 279.001H274.52C275.369 272.629 278.178 266.52 283.525 262.664C296.714 253.152 314.496 260.023 329.154 260.363C336.343 260.529 344.01 259.313 349.682 254.551C350.197 254.118 350.669 253.66 351.116 253.19V252.341V252.338Z" fill="white"/>
<path opacity="0.6" d="M344.964 184.817H344.191C344.067 185.018 343.937 185.217 343.817 185.424C335.977 198.699 337.479 215.754 346.591 227.953C348.07 229.934 349.705 232.013 351.115 234.177V232.96C349.833 231.151 348.429 229.42 347.106 227.651C344.725 224.466 342.774 221.068 341.458 217.303C338.857 209.863 338.613 201.619 340.777 194.039C341.724 190.724 343.155 187.635 344.964 184.819V184.817Z" fill="white"/>
</g>
<path d="M269.505 184.824L260.611 184.85L264.86 181.163L264.727 176.781L268.71 176.397L269.505 184.824Z" fill="#1B1B43"/>
<path d="M274.283 129.923C274.275 129.97 274.275 130.011 274.268 130.06C273.957 132.767 273.679 135.659 273.408 138.709C273.146 141.752 272.891 144.952 272.636 148.282C271.92 157.728 271.226 168.193 270.302 179.033H263.135C263.397 164.242 263.39 150.184 264.855 137.281C265.126 134.829 265.462 132.423 265.858 130.058C265.961 129.436 266.073 128.816 266.185 128.194L269.897 128.982L274.285 129.922L274.283 129.923Z" fill="#FE5B52"/>
<path d="M286.806 184.824L277.902 184.851L281.452 180.897L280.524 176.383L284.771 176.151L286.806 184.824Z" fill="#1B1B43"/>
<path d="M286.63 179.035H279.199C276.912 169.612 274.556 159.363 272.636 148.291V148.282C272.07 145.096 271.553 141.839 271.083 138.517C270.693 135.744 270.327 132.925 270.016 130.058C269.968 129.7 269.928 129.342 269.897 128.982C269.865 128.702 269.834 128.416 269.801 128.129L279.597 128.854C279.622 129.261 279.653 129.658 279.685 130.056C279.893 132.963 280.155 135.814 280.457 138.627C281.954 152.517 284.471 165.437 286.629 179.032L286.63 179.035Z" fill="#FE5B52"/>
<path d="M280.457 138.63C278.266 138.805 275.821 138.838 273.408 138.711C272.627 138.663 271.847 138.608 271.083 138.52C268.805 138.29 266.646 137.883 264.855 137.285C265.126 134.832 265.462 132.427 265.858 130.062H279.685C279.893 132.968 280.155 135.819 280.457 138.632V138.63Z" fill="#BE443D"/>
<path d="M271.652 141.866L271.338 141.923L273.031 151.182L273.345 151.125L271.652 141.866Z" fill="#1B1B43"/>
<path d="M246.244 97.451C245.843 96.0499 245.583 94.7135 245.646 93.5273H250.564L250.052 97.5069L248.672 97.7514L246.242 97.451H246.244Z" fill="#D28572"/>
<path d="M250.06 97.5317L246.248 97.4653L246.639 101.349C247.677 101.076 249.403 99.794 250.57 99.4761L250.062 97.5317H250.06Z" fill="#D28572"/>
<path d="M265.257 112.793L253.107 109.17L250.569 99.4761C249.402 99.794 246.618 100.718 245.58 100.991L247.095 110.405C247.234 111.233 247.502 112.047 247.973 112.742C248.62 113.696 249.43 114.285 250.243 114.639L265.987 120.162L265.257 112.795V112.793Z" fill="#3335CF"/>
<path d="M262.402 118.918L264.991 119.81L264.927 118.025L262.402 118.918Z" fill="#1B1B43"/>
<path d="M300.217 98.1028C300.617 96.7018 300.877 95.3654 300.814 94.1792H295.896L296.408 98.1587L297.788 98.4033L300.218 98.1028H300.217Z" fill="#D28572"/>
<path d="M296.401 98.1831L300.212 98.1167L299.926 101.956C298.888 101.684 297.059 100.445 295.891 100.127L296.399 98.1831H296.401Z" fill="#D28572"/>
<path d="M300.879 101.64L299.366 111.054C299.232 111.882 298.959 112.695 298.489 113.395C297.845 114.344 297.033 114.933 296.22 115.291L282.911 119.878L280.322 120.771L279.59 121.026L280.187 112.791L293.354 109.819L295.894 100.125C296.793 100.372 298.682 100.985 299.964 101.376C300.331 101.488 300.649 101.575 300.879 101.638V101.64Z" fill="#3335CF"/>
<path d="M282.911 119.88L280.322 120.773L280.387 118.987L282.911 119.88Z" fill="#1B1B43"/>
<path d="M280.329 112.798C275.929 112.101 269.245 111.612 265.133 112.732L264.77 128.453C264.763 129.024 264.674 129.59 264.504 130.135C263.933 131.967 263.461 133.239 265.619 133.931C268.066 134.715 270.905 134.942 273.461 134.956C275.139 134.965 279.831 135.255 280.605 133.307C280.991 132.338 280.216 129.957 280.179 128.769C280.12 126.889 280.356 122.298 280.378 120.418C280.385 119.882 280.331 112.798 280.331 112.798H280.329Z" fill="#3335CF"/>
<path d="M270.154 108.299H275.192V112.293C275.192 113.683 274.064 114.812 272.673 114.812C271.283 114.812 270.154 113.683 270.154 112.293V108.299Z" fill="#D28572"/>
<path d="M275.188 109.807C273.957 113.166 271.53 112.632 270.148 109.831L272.351 109.197L275.188 109.807Z" fill="#1B1B43"/>
<path d="M276.472 106.119C276.458 109.437 274.299 111.046 272.675 111.046C271.157 111.046 268.966 109.667 268.877 106.119C268.809 103.399 270.577 101.193 272.675 101.193C274.773 101.193 276.483 103.399 276.472 106.119Z" fill="#D28572"/>
<path d="M268.869 105.501C269.039 104.556 269.521 103.668 270.221 103.012C270.415 103.258 270.747 103.385 271.056 103.336C271.365 103.286 271.64 103.059 271.744 102.765C271.837 103.109 272.159 103.377 272.513 103.406C272.868 103.434 273.229 103.221 273.374 102.896C273.476 103.162 273.736 103.357 274.019 103.38C274.302 103.403 274.59 103.249 274.732 103.005C275.532 103.665 276.03 104.682 276.061 105.719L276.804 106.102C277.083 105.637 277.251 105.089 277.282 104.547C277.298 104.276 277.286 103.993 277.211 103.73C277.162 103.555 276.957 103.286 277.064 103.111C277.251 102.802 277.56 102.397 277.445 101.958C277.411 101.836 276.826 101.216 276.683 101.396C276.915 100.933 276.617 100.576 276.388 100.417C276.161 100.258 275.878 100.274 275.614 100.297C275.651 99.7849 275.216 99.3656 274.788 99.3237C274.36 99.2818 273.947 99.5089 273.56 99.7308C273.465 99.3691 273.205 99.0757 272.897 98.9848C272.59 98.894 272.246 99.011 272.022 99.2783C271.813 99.0005 271.465 98.88 271.165 98.9813C270.862 99.0826 270.619 99.4006 270.562 99.7709C270.237 99.5473 269.812 99.5491 269.488 99.7727C269.163 99.9963 268.951 100.437 268.949 100.885C268.567 100.95 268.228 101.305 268.123 101.75C268.02 102.196 268.156 102.709 268.457 103.001C267.935 103.817 267.856 105.003 268.263 105.906L268.869 105.501Z" fill="#1B1B43"/>
<path d="M269.725 106.042C269.725 106.685 269.288 107.206 268.75 107.206C268.212 107.206 267.775 106.685 267.775 106.042C267.775 105.399 268.212 104.879 268.75 104.879C269.288 104.879 269.725 105.399 269.725 106.042Z" fill="#D28572"/>
<path d="M277.542 106.013C277.542 106.64 277.085 107.146 276.522 107.146C275.96 107.146 275.502 106.638 275.502 106.013C275.502 105.387 275.96 104.879 276.522 104.879C277.085 104.879 277.542 105.387 277.542 106.013Z" fill="#D28572"/>
<path d="M318.454 0V94.1844H291.573C292.425 92.3851 292.895 90.425 292.895 88.3619C292.895 79.8159 284.81 72.8857 274.848 72.8857C264.885 72.8857 256.801 79.8159 256.801 88.3619C256.801 90.425 257.271 92.3833 258.123 94.1844H224.273V63.2566C226.321 64.4201 228.614 65.0734 231.043 65.0734C239.588 65.0734 246.518 56.9973 246.518 47.0258C246.518 37.0543 239.588 28.9782 231.043 28.9782C228.613 28.9782 226.319 29.6316 224.273 30.795V0H318.456H318.454Z" fill="#FFA121"/>
<path opacity="0.6" d="M318.454 9.58718C313.803 7.98174 308.973 7.05237 303.949 7.33712C297.814 7.68476 291.841 9.94181 286.945 13.6436C281.853 17.4921 278.408 22.684 276.076 28.5747C273.38 35.3842 271.997 42.6567 268.885 49.3108C266.186 55.0862 262.413 60.334 257.899 64.8306C248.873 73.8203 236.905 79.746 224.271 81.1942V81.7881C234.522 80.6264 244.35 76.563 252.562 70.2776C262.576 62.6137 269.099 52.3592 272.832 40.4154C275.021 33.4119 276.848 26.0398 281.334 20.0723C285.568 14.4384 291.829 10.3855 298.666 8.71895C305.46 7.06111 312.107 8.04463 318.454 10.2598V9.58718Z" fill="white"/>
<path d="M250.017 97.6399C250.017 97.6399 252.326 91.8226 251.615 91.3684C250.904 90.9142 249.568 94.1827 249.199 96.5131L250.017 97.6399Z" fill="#D28572"/>
<path d="M296.441 98.2917C296.441 98.2917 294.132 92.4744 294.843 92.0202C295.554 91.566 296.89 94.8345 297.259 97.165L296.441 98.2917Z" fill="#D28572"/>
<path d="M231.994 231.913C231.994 241.878 225.065 249.954 216.519 249.954C214.089 249.954 211.795 249.3 209.749 248.146V279.002H115.576V184.817H150.565C149.115 187.039 148.295 189.604 148.295 192.336C148.295 200.882 156.371 207.812 166.343 207.812C176.314 207.812 184.39 200.882 184.39 192.336C184.39 189.604 183.569 187.039 182.121 184.817H209.749V215.681C211.797 214.517 214.091 213.864 216.519 213.864C225.065 213.864 231.994 221.94 231.994 231.911V231.913Z" fill="#D1D1FF"/>
<path d="M157.862 266.12C157.591 258.302 156.248 250.251 148.827 246.088C136.001 238.894 122.27 248.084 115.578 259.445V260.545C117.963 256.064 121.28 252.09 125.48 249.049C131.859 244.426 140.183 242.575 147.517 246.075C155.612 249.941 157.007 258.32 157.278 266.45C157.416 270.632 157.467 274.814 157.469 278.998H158.068C158.066 274.704 158.012 270.41 157.863 266.118L157.862 266.12Z" fill="#9192FF"/>
<path d="M192.469 221.643C196.537 225.657 202.452 223.402 206.716 220.995C210.294 218.975 213.629 216.571 216.707 213.871C216.644 213.871 216.583 213.865 216.52 213.865C216.27 213.865 216.024 213.876 215.777 213.89C212.878 216.376 209.752 218.594 206.414 220.479C203.221 222.282 199.154 224.193 195.437 222.839C192.158 221.645 190.605 218.297 190.016 215.08C188.86 208.735 190.456 201.677 193.007 195.851C194.785 191.789 197.234 188.065 200.22 184.817H199.432C193.697 191.243 190.026 199.431 189.246 208.081C188.839 212.588 189.013 218.236 192.467 221.643H192.469Z" fill="#9192FF"/>
<path d="M222.359 248.619C222.585 248.513 222.807 248.399 223.025 248.28C219.596 244.8 215.519 242.129 210.269 240.954C203.285 239.39 196.54 242.009 192.292 247.723C187.549 254.103 186.934 262.271 188.849 269.799C189.637 272.898 190.79 276.05 192.248 278.998H192.992C191.394 275.793 190.07 272.437 189.256 268.947C187.525 261.529 188.368 253.49 193.277 247.419C198.135 241.411 205.729 239.715 212.897 242.353C216.562 243.702 219.662 245.929 222.358 248.617L222.359 248.619Z" fill="#9192FF"/>
<path d="M115.576 232.743V233.426C123.724 228.912 130.241 221.583 133.559 212.805C136.96 203.803 136.698 193.716 133.269 184.817H132.624C136.018 193.468 136.364 203.265 133.185 212.099C130.037 220.848 123.621 228.201 115.578 232.743H115.576Z" fill="#9192FF"/>
<path d="M450 278.204H0V279H450V278.204Z" fill="#D1D1FF"/>
</g>
<defs>
<clipPath id="clip0_1248_5389">
<rect width="450" height="279" fill="white"/>
</clipPath>
</defs>
</svg>
