<svg width="8" height="6" viewBox="0 0 8 6" fill="none" xmlns="http://www.w3.org/2000/svg">
<path d="M7.74978 0.877274C7.60926 0.737586 7.41917 0.65918 7.22103 0.65918C7.02289 0.65918 6.8328 0.737586 6.69228 0.877274L3.99978 3.53227L1.34478 0.877274C1.20426 0.737586 1.01417 0.65918 0.816028 0.65918C0.617889 0.65918 0.4278 0.737586 0.287278 0.877274C0.216982 0.946996 0.161186 1.02995 0.12311 1.12134C0.0850332 1.21274 0.0654297 1.31077 0.0654297 1.40977C0.0654297 1.50878 0.0850332 1.60681 0.12311 1.69821C0.161186 1.7896 0.216982 1.87255 0.287278 1.94227L3.46728 5.12227C3.537 5.19257 3.61995 5.24837 3.71135 5.28644C3.80274 5.32452 3.90077 5.34412 3.99978 5.34412C4.09879 5.34412 4.19682 5.32452 4.28821 5.28644C4.37961 5.24837 4.46256 5.19257 4.53228 5.12227L7.74978 1.94227C7.82007 1.87255 7.87587 1.7896 7.91395 1.69821C7.95202 1.60681 7.97163 1.50878 7.97163 1.40977C7.97163 1.31077 7.95202 1.21274 7.91395 1.12134C7.87587 1.02995 7.82007 0.946996 7.74978 0.877274Z" fill="white"/>
</svg>
