<svg width="25" height="24" viewBox="0 0 25 24" fill="none" xmlns="http://www.w3.org/2000/svg">
<circle cx="12.4287" cy="12" r="11.5" stroke="white"/>
<path d="M18.8158 12.1935C18.8168 13.0093 18.6562 13.8172 18.3432 14.5706C18.0302 15.3239 17.571 16.0078 16.9921 16.5826C16.418 17.1557 15.7366 17.6101 14.9868 17.9197C14.2369 18.2293 13.4335 18.3881 12.6223 18.3871C9.20157 18.3871 6.42872 15.6142 6.42872 12.1935C6.42655 10.6055 7.03657 9.07762 8.13194 7.92775C8.7099 7.31787 9.40624 6.83234 10.1783 6.50087C10.9504 6.16941 11.782 5.99897 12.6223 6.00001C13.4335 5.99895 14.2369 6.15778 14.9868 6.4674C15.7366 6.77703 16.418 7.23138 16.9921 7.80449C17.571 8.37932 18.0302 9.06317 18.3432 9.81651C18.6562 10.5699 18.8168 11.3778 18.8158 12.1935V12.1935Z" stroke="white" stroke-linecap="round" stroke-linejoin="round"/>
<path d="M18.8157 12.1936C17.9121 12.1936 15.4192 11.8529 13.1879 12.8324C10.7641 13.8968 9.00917 15.5477 8.24426 16.5746" stroke="white" stroke-linecap="round" stroke-linejoin="round"/>
<path d="M10.2993 6.45068C11.2686 7.34534 13.3837 9.62333 14.1703 11.8843C14.9569 14.1455 15.248 16.9258 15.4276 17.717" stroke="white" stroke-linecap="round" stroke-linejoin="round"/>
<path d="M6.8929 14.5511C7.43865 15.8722 8.42292 16.9648 9.67999 17.6451M6.47607 11.4193C7.64603 11.49 10.7431 11.5534 12.725 10.7071C14.707 9.86074 16.4124 8.30399 16.9974 7.81006L6.47607 11.4193Z" stroke="white" stroke-linecap="round" stroke-linejoin="round"/>
<path d="M12.6223 18.3871C13.4335 18.3881 14.2369 18.2293 14.9868 17.9197C15.7366 17.6101 16.418 17.1557 16.9921 16.5826M6.42872 12.1935C6.42655 10.6055 7.03657 9.07762 8.13194 7.92775L6.42872 12.1935ZM12.6223 6C11.782 5.99897 10.9504 6.1694 10.1783 6.50087C9.40624 6.83234 8.7099 7.31787 8.13194 7.92775L12.6223 6ZM15.0997 6.51531C15.805 6.82391 16.4467 7.26108 16.9921 7.80449C17.571 8.37932 18.0302 9.06317 18.3432 9.81651C18.6562 10.5699 18.8168 11.3778 18.8158 12.1935C18.8158 12.9563 18.678 13.6865 18.4256 14.3613L15.0997 6.51531Z" stroke="white" stroke-linecap="round" stroke-linejoin="round"/>
</svg>
