<svg width="487" height="296" viewBox="0 0 487 296" fill="none" xmlns="http://www.w3.org/2000/svg">
<g clip-path="url(#clip0_1815_1195)">
<path d="M475.721 215.721C477.725 211.56 479.505 207.281 481.044 202.899C492.425 170.49 487.51 130.046 466.157 102.257C455.327 88.1623 440.191 77.9499 422.646 74.3331C396.322 68.9078 370.608 80.5212 344.279 79.0049C327.087 78.0152 310.784 71.264 295.299 63.7555C253.477 43.4806 213.883 17.2982 168.485 5.28312C132.905 -4.13174 90.7836 -2.11386 60.5735 20.7612C9.58735 59.3642 12.4865 131.38 34.1922 184.821C40.5015 200.356 48.7996 215.256 59.5685 228.176C96.8075 272.858 151.956 289.566 208.503 293.246C257.792 296.454 308.71 294.703 358.09 292.919C407.625 291.128 454.364 260.061 475.721 215.721Z" fill="#2F2C50"/>
<path d="M86.8112 163.387H4.24932C1.90249 163.387 0 165.282 0 167.62V200.06C0 202.398 1.90249 204.294 4.24932 204.294H86.8112C89.1581 204.294 91.0605 202.398 91.0605 200.06V167.62C91.0605 165.282 89.1581 163.387 86.8112 163.387Z" fill="#D4DFFF"/>
<path d="M22.4171 167.738H6.35341C6.09135 167.738 5.87891 167.949 5.87891 168.21V171.218C5.87891 171.479 6.09135 171.691 6.35341 171.691H22.4171C22.6792 171.691 22.8916 171.479 22.8916 171.218V168.21C22.8916 167.949 22.6792 167.738 22.4171 167.738Z" fill="white"/>
<path d="M83.1406 167.738H26.2116C25.7258 167.738 25.332 168.13 25.332 168.614V170.814C25.332 171.298 25.7258 171.691 26.2116 171.691H83.1406C83.6264 171.691 84.0202 171.298 84.0202 170.814V168.614C84.0202 168.13 83.6264 167.738 83.1406 167.738Z" fill="#B7C9F7"/>
<path d="M44.8057 174.324H6.60224C6.20275 174.324 5.87891 174.646 5.87891 175.044V177.556C5.87891 177.954 6.20275 178.277 6.60224 178.277H44.8057C45.2051 178.277 45.529 177.954 45.529 177.556V175.044C45.529 174.646 45.2051 174.324 44.8057 174.324Z" fill="white"/>
<path d="M83.3281 174.324H48.589C48.2076 174.324 47.8984 174.632 47.8984 175.012V177.589C47.8984 177.969 48.2076 178.277 48.589 178.277H83.3281C83.7095 178.277 84.0187 177.969 84.0187 177.589V175.012C84.0187 174.632 83.7095 174.324 83.3281 174.324Z" fill="white"/>
<path d="M33.2304 180.912H6.4865C6.15094 180.912 5.87891 181.183 5.87891 181.517V184.259C5.87891 184.594 6.15094 184.865 6.4865 184.865H33.2304C33.566 184.865 33.838 184.594 33.838 184.259V181.517C33.838 181.183 33.566 180.912 33.2304 180.912Z" fill="#B7C9F7"/>
<path opacity="0.2" d="M63.2636 180.912H36.5197C36.1841 180.912 35.9121 181.183 35.9121 181.517V184.259C35.9121 184.594 36.1841 184.865 36.5197 184.865H63.2636C63.5992 184.865 63.8712 184.594 63.8712 184.259V181.517C63.8712 181.183 63.5992 180.912 63.2636 180.912Z" fill="#6880E4"/>
<path d="M83.542 180.912H67.1639C66.8997 180.912 66.6855 181.125 66.6855 181.388V184.388C66.6855 184.651 66.8997 184.865 67.1639 184.865H83.542C83.8062 184.865 84.0204 184.651 84.0204 184.388V181.388C84.0204 181.125 83.8062 180.912 83.542 180.912Z" fill="white"/>
<path opacity="0.2" d="M83.0052 187.498H6.8935C6.33315 187.498 5.87891 187.95 5.87891 188.508V190.44C5.87891 190.998 6.33315 191.451 6.8935 191.451H83.0052C83.5656 191.451 84.0198 190.998 84.0198 190.44V188.508C84.0198 187.95 83.5656 187.498 83.0052 187.498Z" fill="#6880E4"/>
<path d="M44.8057 194.085H6.60224C6.20275 194.085 5.87891 194.408 5.87891 194.806V197.318C5.87891 197.716 6.20275 198.039 6.60224 198.039H44.8057C45.2051 198.039 45.529 197.716 45.529 197.318V194.806C45.529 194.408 45.2051 194.085 44.8057 194.085Z" fill="white"/>
<path d="M83.3442 194.085H50.0247C49.6519 194.085 49.3496 194.387 49.3496 194.758V197.366C49.3496 197.737 49.6519 198.039 50.0247 198.039H83.3442C83.7171 198.039 84.0193 197.737 84.0193 197.366V194.758C84.0193 194.387 83.7171 194.085 83.3442 194.085Z" fill="#B7C9F7"/>
<path d="M65.1306 43.2229H4.18953C1.87572 43.2229 0 45.0917 0 47.397V153.086C0 155.391 1.87572 157.26 4.18953 157.26H65.1306C67.4444 157.26 69.3201 155.391 69.3201 153.086V47.397C69.3201 45.0917 67.4444 43.2229 65.1306 43.2229Z" fill="#D4DFFF"/>
<path d="M62.867 48.9805H6.45686C6.02009 48.9805 5.66602 49.3332 5.66602 49.7684V52.3609C5.66602 52.7961 6.02009 53.1488 6.45686 53.1488H62.867C63.3038 53.1488 63.6578 52.7961 63.6578 52.3609V49.7684C63.6578 49.3332 63.3038 48.9805 62.867 48.9805Z" fill="#B7C9F7"/>
<path d="M62.867 55.657H6.45686C6.02009 55.657 5.66602 56.0098 5.66602 56.4449V59.0374C5.66602 59.4726 6.02009 59.8253 6.45686 59.8253H62.867C63.3038 59.8253 63.6578 59.4726 63.6578 59.0374V56.4449C63.6578 56.0098 63.3038 55.657 62.867 55.657Z" fill="#F6F9FF"/>
<path opacity="0.2" d="M44.9303 62.3333H6.32184C5.95964 62.3333 5.66602 62.6258 5.66602 62.9867V65.8482C5.66602 66.2091 5.95964 66.5016 6.32184 66.5016H44.9303C45.2925 66.5016 45.5861 66.2091 45.5861 65.8482V62.9867C45.5861 62.6258 45.2925 62.3333 44.9303 62.3333Z" fill="#6880E4"/>
<path d="M62.867 69.0095H6.45686C6.02009 69.0095 5.66602 69.3623 5.66602 69.7975V72.39C5.66602 72.8251 6.02009 73.1779 6.45686 73.1779H62.867C63.3038 73.1779 63.6578 72.8251 63.6578 72.39V69.7975C63.6578 69.3623 63.3038 69.0095 62.867 69.0095Z" fill="#F6F9FF"/>
<path d="M63.0788 75.6838H33.2525C32.934 75.6838 32.6758 75.9411 32.6758 76.2585V79.2776C32.6758 79.5949 32.934 79.8522 33.2525 79.8522H63.0788C63.3973 79.8522 63.6555 79.5949 63.6555 79.2776V76.2585C63.6555 75.9411 63.3973 75.6838 63.0788 75.6838Z" fill="#F6F9FF"/>
<path opacity="0.2" d="M29.0653 75.6838H6.17331C5.89314 75.6838 5.66602 75.9101 5.66602 76.1893V79.3468C5.66602 79.6259 5.89314 79.8522 6.17331 79.8522H29.0653C29.3454 79.8522 29.5726 79.6259 29.5726 79.3468V76.1893C29.5726 75.9101 29.3454 75.6838 29.0653 75.6838Z" fill="#6880E4"/>
<path d="M62.867 82.3601H6.45686C6.02009 82.3601 5.66602 82.7129 5.66602 83.148V85.7405C5.66602 86.1757 6.02009 86.5285 6.45686 86.5285H62.867C63.3038 86.5285 63.6578 86.1757 63.6578 85.7405V83.148C63.6578 82.7129 63.3038 82.3601 62.867 82.3601Z" fill="#F6F9FF"/>
<path d="M62.867 89.0364H6.45686C6.02009 89.0364 5.66602 89.3891 5.66602 89.8243V92.4168C5.66602 92.852 6.02009 93.2047 6.45686 93.2047H62.867C63.3038 93.2047 63.6578 92.852 63.6578 92.4168V89.8243C63.6578 89.3891 63.3038 89.0364 62.867 89.0364Z" fill="#F6F9FF"/>
<path opacity="0.2" d="M62.867 95.7109H6.45686C6.02009 95.7109 5.66602 96.0637 5.66602 96.4989V99.0914C5.66602 99.5265 6.02009 99.8793 6.45686 99.8793H62.867C63.3038 99.8793 63.6578 99.5265 63.6578 99.0914V96.4989C63.6578 96.0637 63.3038 95.7109 62.867 95.7109Z" fill="#6880E4"/>
<path d="M62.867 102.387H6.45686C6.02009 102.387 5.66602 102.74 5.66602 103.175V105.768C5.66602 106.203 6.02009 106.556 6.45686 106.556H62.867C63.3038 106.556 63.6578 106.203 63.6578 105.768V103.175C63.6578 102.74 63.3038 102.387 62.867 102.387Z" fill="#F6F9FF"/>
<path d="M23.622 109.063H6.11159C5.8655 109.063 5.66602 109.262 5.66602 109.507V112.788C5.66602 113.033 5.8655 113.232 6.11159 113.232H23.622C23.868 113.232 24.0675 113.033 24.0675 112.788V109.507C24.0675 109.262 23.868 109.063 23.622 109.063Z" fill="#F6F9FF"/>
<path opacity="0.2" d="M50.0892 109.063H28.7731C28.5026 109.063 28.2832 109.282 28.2832 109.552V112.744C28.2832 113.013 28.5026 113.232 28.7731 113.232H50.0892C50.3598 113.232 50.5791 113.013 50.5791 112.744V109.552C50.5791 109.282 50.3598 109.063 50.0892 109.063Z" fill="#6880E4"/>
<path d="M62.867 115.74H6.45686C6.02009 115.74 5.66602 116.093 5.66602 116.528V119.12C5.66602 119.555 6.02009 119.908 6.45686 119.908H62.867C63.3038 119.908 63.6578 119.555 63.6578 119.12V116.528C63.6578 116.093 63.3038 115.74 62.867 115.74Z" fill="#F6F9FF"/>
<path d="M55.2518 122.414H6.40285C5.99591 122.414 5.66602 122.743 5.66602 123.148V125.848C5.66602 126.254 5.99591 126.582 6.40285 126.582H55.2518C55.6587 126.582 55.9886 126.254 55.9886 125.848V123.148C55.9886 122.743 55.6587 122.414 55.2518 122.414Z" fill="#B7C9F7"/>
<path d="M62.867 129.09H6.45686C6.02009 129.09 5.66602 129.443 5.66602 129.878V132.471C5.66602 132.906 6.02009 133.259 6.45686 133.259H62.867C63.3038 133.259 63.6578 132.906 63.6578 132.471V129.878C63.6578 129.443 63.3038 129.09 62.867 129.09Z" fill="#F6F9FF"/>
<path opacity="0.2" d="M27.7903 135.767H6.15981C5.88709 135.767 5.66602 135.987 5.66602 136.259V139.443C5.66602 139.715 5.88709 139.935 6.15981 139.935H27.7903C28.063 139.935 28.2841 139.715 28.2841 139.443V136.259C28.2841 135.987 28.063 135.767 27.7903 135.767Z" fill="#6880E4"/>
<path d="M63.0604 135.767H31.1663C30.8372 135.767 30.5703 136.033 30.5703 136.361V139.341C30.5703 139.669 30.8372 139.935 31.1663 139.935H63.0604C63.3896 139.935 63.6564 139.669 63.6564 139.341V136.361C63.6564 136.033 63.3896 135.767 63.0604 135.767Z" fill="#B7C9F7"/>
<path d="M62.867 142.441H6.45686C6.02009 142.441 5.66602 142.794 5.66602 143.229V145.822C5.66602 146.257 6.02009 146.61 6.45686 146.61H62.867C63.3038 146.61 63.6578 146.257 63.6578 145.822V143.229C63.6578 142.794 63.3038 142.441 62.867 142.441Z" fill="#F6F9FF"/>
<path d="M62.867 149.117H6.45686C6.02009 149.117 5.66602 149.47 5.66602 149.905V152.498C5.66602 152.933 6.02009 153.286 6.45686 153.286H62.867C63.3038 153.286 63.6578 152.933 63.6578 152.498V149.905C63.6578 149.47 63.3038 149.117 62.867 149.117Z" fill="#F6F9FF"/>
<path d="M430.002 237.645C430.445 236.88 430.873 236.107 431.284 235.329C443.785 211.647 450.97 185.195 452.164 158.463C439.295 170.226 426.35 182.353 415.448 195.948C407.121 206.335 399.975 217.866 395.434 230.317C403.431 200.887 407.63 170.33 406.774 139.887C376.383 181.907 355.936 230.905 347.148 281.953L418.174 281.154C444.298 265.66 464.608 240.67 474.385 211.987C458.132 217.45 442.792 226.197 430 237.647L430.002 237.645Z" fill="#39E45F"/>
<path d="M388.303 280.013L388.474 279.67C391.013 274.599 450.735 155.375 456.984 149.15C457.067 149.067 457.202 149.067 457.285 149.15C457.368 149.233 457.368 149.367 457.285 149.45C451.25 155.463 392.703 272.185 389.032 279.511C399.54 278.106 421.908 260.02 438.93 244.99C457.623 228.484 474.072 212.002 474.236 211.837C474.319 211.754 474.454 211.754 474.537 211.837C474.62 211.92 474.62 212.054 474.537 212.137C474.373 212.302 457.916 228.791 439.214 245.305C428.227 255.006 418.625 262.82 410.674 268.526C400.713 275.677 393.314 279.528 388.687 279.976L388.305 280.013H388.303Z" fill="#2F2C50"/>
<path d="M371.807 285.641C371.691 285.641 371.597 285.549 371.595 285.434C371.439 277.533 377.277 250.632 388.945 205.478C397.635 171.854 406.483 140.145 406.571 139.829C406.602 139.716 406.72 139.651 406.834 139.681C406.947 139.712 407.013 139.829 406.982 139.943C406.893 140.26 398.046 171.966 389.36 205.585C381.345 236.603 371.83 275.633 372.023 285.426C372.025 285.543 371.932 285.639 371.815 285.641H371.811H371.807Z" fill="#2F2C50"/>
<path d="M128.354 185.199L115.229 172.321L108.418 179.212L121.543 192.089L128.354 185.199Z" fill="#1C056D"/>
<path d="M180.485 192.118C220.611 192.118 253.138 159.709 253.138 119.731C253.138 79.7536 220.611 47.3452 180.485 47.3452C140.36 47.3452 107.832 79.7536 107.832 119.731C107.832 159.709 140.36 192.118 180.485 192.118Z" fill="#EAF2FC"/>
<path opacity="0.2" d="M124.559 151.41C110.527 149.502 97.7978 151.468 97.7785 151.41C97.7361 151.274 97.4062 100.671 97.4062 100.671L204.54 105.303L107.564 90.3415L127.647 48.2043L263.442 74.2734L254.172 147.146H198.717L253.86 153.691L235.798 188.351L132.498 189.268L106.04 158.473L167.176 154.183C167.176 154.183 143.755 154.016 124.557 151.406L124.559 151.41Z" fill="#6880E4"/>
<path d="M120.679 180.241C112.483 172.198 106.11 162.795 101.739 152.289C97.519 142.145 95.3374 131.41 95.2526 120.383C95.1677 109.358 97.1853 98.5899 101.248 88.3832C105.456 77.8115 111.683 68.3101 119.753 60.1444C127.826 51.9788 137.264 45.6292 147.809 41.2744C157.989 37.0695 168.764 34.896 179.83 34.8114C190.898 34.7268 201.704 36.737 211.948 40.7843C222.559 44.9777 232.095 51.1812 240.291 59.222C248.487 67.2647 254.86 76.668 259.231 87.1744C263.451 97.3176 265.633 108.053 265.719 119.078C265.804 130.105 263.787 140.871 259.724 151.078C255.516 161.65 249.289 171.151 241.219 179.317C233.146 187.482 223.708 193.832 213.163 198.187C202.982 202.392 192.208 204.565 181.142 204.65C170.074 204.734 159.268 202.724 149.024 198.677C138.413 194.483 128.877 188.28 120.681 180.239L120.679 180.241ZM230.859 68.7694C217.196 55.365 199.111 48.0621 179.936 48.2082C160.761 48.3543 142.792 55.9319 129.336 69.5439C115.882 83.156 108.552 101.175 108.699 120.279C108.845 139.384 116.451 157.287 130.113 170.694C143.775 184.098 161.861 191.401 181.036 191.255C200.211 191.109 218.18 183.531 231.636 169.919C245.09 156.307 252.42 138.288 252.273 119.184C252.127 100.079 244.521 82.1759 230.859 68.7694Z" fill="#1B3D9E"/>
<path d="M65.8447 248.342L53.1758 235.911C50.8573 233.636 50.8284 229.917 53.1122 227.607L101.757 178.392C104.04 176.082 107.773 176.053 110.091 178.329L122.76 190.759C125.079 193.034 125.108 196.753 122.824 199.063L74.1794 248.278C71.8956 250.588 68.1632 250.617 65.8447 248.342Z" fill="#1B3D9E"/>
<path d="M180.471 198.573C170.41 198.573 160.592 196.709 151.273 193.025C141.427 189.133 132.575 183.375 124.964 175.907C117.352 168.439 111.436 159.709 107.38 149.959C103.462 140.543 101.437 130.576 101.358 120.337C101.279 110.098 103.152 100.102 106.923 90.626C110.829 80.8152 116.61 71.9961 124.103 64.4127C131.599 56.8294 140.362 50.9352 150.147 46.8937C159.598 42.9905 169.602 40.9727 179.879 40.8939C190.156 40.8132 200.188 42.6811 209.699 46.4382C219.546 50.3299 228.398 56.0895 236.009 63.5556C243.621 71.0237 249.536 79.7544 253.593 89.5037C257.51 98.9204 259.536 108.887 259.615 119.126C259.694 129.365 257.821 139.361 254.05 148.837C250.144 158.648 244.363 167.467 236.869 175.05L236.52 174.706L236.869 175.05C229.374 182.634 220.611 188.528 210.826 192.569C201.374 196.472 191.371 198.49 181.094 198.569C180.888 198.569 180.679 198.571 180.471 198.571V198.573ZM180.502 41.8701C180.295 41.8701 180.093 41.8701 179.886 41.8721C169.737 41.9489 159.857 43.9438 150.523 47.7969C140.859 51.7885 132.206 57.6077 124.803 65.0988C117.4 72.588 111.691 81.2976 107.835 90.9873C104.11 100.344 102.261 110.217 102.338 120.329C102.415 130.442 104.417 140.285 108.286 149.585C112.293 159.213 118.133 167.834 125.652 175.21C133.169 182.586 141.911 188.274 151.636 192.116C161.028 195.827 170.936 197.664 181.088 197.593C191.238 197.516 201.118 195.521 210.452 191.668C220.115 187.676 228.768 181.857 236.171 174.366C243.574 166.877 249.284 158.167 253.14 148.478C256.864 139.12 258.714 129.248 258.637 119.136C258.56 109.023 256.558 99.1799 252.69 89.8803C248.684 80.2521 242.843 71.631 235.324 64.2552C227.808 56.8793 219.066 51.1908 209.34 47.3492C200.138 43.7131 190.439 41.8701 180.504 41.8701H180.502Z" fill="#1C056D"/>
<path d="M74.2991 246.285L55.1106 227.459C54.1789 226.547 54.1674 225.053 55.0855 224.125L56.6055 222.588C57.5217 221.659 59.0204 221.648 59.9521 222.563L79.1406 241.389C80.0722 242.301 80.0838 243.795 79.1657 244.723L77.6457 246.26C76.7295 247.189 75.2307 247.2 74.2991 246.285Z" fill="#1C056D"/>
<path d="M269.286 296.002C369.069 296.002 449.96 289.425 449.96 281.312C449.96 273.199 369.069 266.622 269.286 266.622C169.502 266.622 88.6113 273.199 88.6113 281.312C88.6113 289.425 169.502 296.002 269.286 296.002Z" fill="#37345B"/>
<path d="M296.775 131.66C296.775 131.66 288.77 141.155 284.372 157.026C280.312 171.677 268.475 225.774 268.475 225.774H298.847L296.775 131.662V131.66Z" fill="#D40221"/>
<path d="M179.348 253.504C179.348 253.504 173.899 253.306 171.093 256.396C168.39 259.369 167.688 267.531 171.843 273.477C171.843 273.477 174.752 276.565 179.092 277.841C179.092 277.841 175.39 269.276 175.535 263.466C175.682 257.657 179.346 253.502 179.346 253.502L179.348 253.504Z" fill="#1B3D9E"/>
<path d="M175.719 274.224C171.105 266.798 172.395 252.796 179.349 253.503C189.371 254.522 215.569 262.714 215.569 262.714L217.112 279.496C217.112 279.496 193.75 280.693 179.756 278.037C177.867 277.678 176.716 275.825 175.723 274.224H175.719Z" fill="#1C056D"/>
<path d="M215.102 264.29C215.102 264.29 203.749 260.745 202.563 264.29C201.376 267.836 202.289 274.195 205.338 276.052C208.388 277.908 215.943 276.749 215.943 276.749L215.1 264.29H215.102Z" fill="#FE8E9C"/>
<path d="M242.813 231.038C242.813 231.038 229.046 229.277 222.388 242.021C216.245 253.774 222.031 273.434 246.613 275.564C271.194 277.693 338.883 272.191 338.883 272.191V235.775L242.813 231.038Z" fill="#1C056D"/>
<path d="M371.53 233.653C371.53 233.653 393.862 243.139 383.166 271.703C373.09 298.612 216.519 285.939 215.676 283.637C214.661 280.864 211.542 258.846 214.794 257.556C218.047 256.267 334.823 232.704 334.823 232.704L371.53 233.653Z" fill="#3356BB"/>
<path opacity="0.47" d="M291.564 238.037C291.564 238.037 320.529 245.263 345.643 243.752C370.757 242.242 382.463 237.089 382.463 237.089L376.269 231.038L295.617 232.704L291.562 238.037H291.564Z" fill="#1C056D"/>
<path d="M213.473 271C213.216 271 213.006 270.796 213 270.539C212.994 270.278 213.201 270.062 213.463 270.057C213.814 270.049 248.935 269.251 287.872 266.759C339.367 263.464 374.112 258.718 388.351 253.034C388.594 252.936 388.87 253.055 388.966 253.298C389.063 253.54 388.945 253.814 388.702 253.911C380.697 257.108 366.494 259.994 346.495 262.49C330.517 264.484 310.812 266.237 287.93 267.701C248.974 270.193 213.835 270.99 213.484 271H213.473Z" fill="#201E3A"/>
<path d="M344.824 109.313C344.824 109.313 369.998 119.802 377.406 134.915C384.815 150.028 358.357 228.409 353.417 229.815C348.479 231.222 297.325 232.275 293.444 229.815C289.563 227.355 291.483 139.041 296.773 131.66C302.064 124.278 322.046 109.313 322.046 109.313H344.822H344.824Z" fill="#FC476A"/>
<path d="M330.514 156.486C330.514 156.211 330.734 155.986 331.009 155.982C333.968 155.928 349.185 155.694 350.179 156.493C351.278 157.379 349.88 182.209 348.099 182.336C346.319 182.462 331.571 183.221 331.061 181.955C330.595 180.794 330.525 159.976 330.516 156.486H330.514Z" fill="#FE8E9C"/>
<path d="M334.616 56.9618C331.314 53.4583 319.721 50.0203 310.615 52.1938C305.482 53.418 301.64 57.6786 300.779 62.8674C299.709 69.3266 298.741 75.8184 298.318 82.3582C297.965 87.818 297.34 94.8922 300.168 99.8658C302.027 103.135 306.682 103.388 310.026 103.442C310.584 103.452 315.863 102.918 315.738 102.187C316.94 109.215 321.116 125.145 321.831 127.269C322.838 130.251 342.557 119.005 345.716 115.084C348.874 111.162 331.275 88.2946 331.275 88.2946C333.011 83.4114 339.21 61.8393 334.616 56.9637V56.9618Z" fill="#FE8E9C"/>
<path d="M310.357 69.8206C310.357 69.8206 302.721 80.5653 304.476 81.653C306.231 82.7408 311.674 80.0637 311.674 80.0637C311.632 80.8209 311.148 81.4801 310.436 81.7491C308.378 82.5274 304.378 83.865 303.477 82.2353C301.893 79.3719 310.357 69.8206 310.357 69.8206Z" fill="#E57492"/>
<path d="M315.738 102.185C315.738 102.185 320.445 99.2681 323.062 95.7666C323.062 95.7666 324.549 106.581 317.615 111.016L315.736 102.185H315.738Z" fill="#E57492"/>
<path d="M339.657 53.7812C343.665 55.849 349.244 64.6182 345.54 71.8038C341.399 79.8388 332.472 88.1005 331.272 88.2908C330.074 88.4811 328.464 78.949 328.464 78.949C337.105 77.2328 333.178 68.7692 331.826 68.8211C330.474 68.873 327.785 74.4212 326.977 73.3835C326.357 72.5878 327.291 63.9321 327.762 59.929C327.762 59.929 309.563 71.1388 297.746 66.736C297.746 66.736 291.989 47.3336 309.217 43.4093C326.446 39.485 339.655 53.7831 339.655 53.7831L339.657 53.7812Z" fill="#1B3D9E"/>
<path opacity="0.5" d="M295.351 62.6945C296.995 62.656 317.715 58.3666 319.377 57.9995C321.04 57.6306 317.252 61.9584 319.655 61.0379C322.059 60.1174 330.283 57.3557 330.559 57.815C330.837 58.2763 326.979 73.3816 326.979 73.3816C326.979 73.3816 325.291 62.4177 325.016 62.51C324.738 62.6022 309.49 70.889 303.946 70.9812C298.401 71.0735 296.185 70.2452 295.722 67.2068C295.259 64.1685 295.351 62.6945 295.351 62.6945Z" fill="#1C056D"/>
<path d="M316.168 85.9193L313.572 85.091C313.41 85.0391 313.24 85.1276 313.188 85.2871C313.136 85.4466 313.225 85.6176 313.385 85.6695L314.292 85.9578C313.319 91.579 303.39 91.3196 303.291 91.3157C303.125 91.3003 302.981 91.4426 302.977 91.6098C302.971 91.7769 303.104 91.9172 303.272 91.923C303.293 91.923 303.413 91.9268 303.613 91.9268C304.408 91.9268 306.47 91.8692 308.638 91.3388C312.251 90.4548 314.402 88.6598 314.876 86.1442L315.983 86.4978C316.014 86.5074 316.045 86.5132 316.076 86.5132C316.205 86.5132 316.325 86.4305 316.367 86.3018C316.419 86.1423 316.33 85.9712 316.17 85.9193H316.168Z" fill="#1C056D"/>
<path d="M329.334 70.1088L323.447 70.5104C323.192 67.7066 320.829 65.5099 317.949 65.5099C315.664 65.5099 313.704 66.8936 312.863 68.8635C310.859 67.7027 309.289 68.1121 308.432 68.5445C308.041 65.8866 305.751 63.8438 302.974 63.8438C299.924 63.8438 297.451 66.3075 297.451 69.3458C297.451 72.3842 299.924 74.8479 302.974 74.8479C306.023 74.8479 308.371 72.4995 308.486 69.563C308.93 69.2363 310.407 68.4042 312.576 69.7533C312.481 70.1568 312.425 70.5777 312.425 71.0101C312.425 74.0485 314.898 76.5122 317.947 76.5122C320.997 76.5122 323.238 74.2675 323.451 71.4214L329.395 71.0159C329.648 70.9986 329.837 70.7814 329.82 70.5297C329.802 70.2779 329.579 70.0876 329.332 70.1069L329.334 70.1088Z" fill="white"/>
<path d="M323.197 127.745L326.905 133.33C328.837 136.241 332.938 136.728 335.492 134.337C341.394 128.81 350.14 118.997 348.209 110.862L344.824 109.311C344.824 109.311 334.049 125.18 323.197 127.743V127.745Z" fill="white"/>
<path d="M321.834 127.267L317.276 130.862C315.046 132.621 311.728 131.316 311.329 128.51C310.708 124.163 310.54 118.342 312.915 114.137L317.741 111.533L321.834 127.269V127.267Z" fill="white"/>
<path d="M322.506 145.193C323.433 144.269 323.433 142.771 322.506 141.847C321.578 140.924 320.075 140.924 319.148 141.847C318.22 142.771 318.22 144.269 319.148 145.193C320.075 146.117 321.578 146.117 322.506 145.193Z" fill="#D40221"/>
<path d="M320.201 163.327C321.512 163.327 322.575 162.268 322.575 160.961C322.575 159.655 321.512 158.596 320.201 158.596C318.889 158.596 317.826 159.655 317.826 160.961C317.826 162.268 318.889 163.327 320.201 163.327Z" fill="#D40221"/>
<path d="M319.289 180.767C320.6 180.767 321.663 179.708 321.663 178.402C321.663 177.095 320.6 176.036 319.289 176.036C317.977 176.036 316.914 177.095 316.914 178.402C316.914 179.708 317.977 180.767 319.289 180.767Z" fill="#D40221"/>
<path d="M318.451 198.209C319.762 198.209 320.825 197.15 320.825 195.844C320.825 194.537 319.762 193.478 318.451 193.478C317.139 193.478 316.076 194.537 316.076 195.844C316.076 197.15 317.139 198.209 318.451 198.209Z" fill="#D40221"/>
<path d="M318.451 215.65C319.762 215.65 320.825 214.591 320.825 213.284C320.825 211.978 319.762 210.918 318.451 210.918C317.139 210.918 316.076 211.978 316.076 213.284C316.076 214.591 317.139 215.65 318.451 215.65Z" fill="#D40221"/>
<path d="M377.407 134.915C377.407 134.915 397.197 180.767 395.089 204.92C393.563 222.395 316.381 233.653 316.381 233.653L307.824 219.912L365.054 192.002C365.054 192.002 342.932 142.495 377.407 134.915Z" fill="#FC476A"/>
<path d="M326.266 210.92L365.053 192.004C365.053 192.004 355.272 171.906 357.332 158.598C357.332 158.598 352.061 178.217 360.561 189.969C360.561 189.969 326.981 209.208 326.266 210.92Z" fill="#D40221"/>
<path d="M377.407 134.915C377.407 134.915 361.318 131.527 357.335 158.596C357.335 158.596 355.797 132.876 375.501 131.658L377.407 134.913V134.915Z" fill="#D40221"/>
<path d="M356.389 225.522L332.807 230.432C332.807 230.432 350.585 230.857 353.419 229.815C353.419 229.815 355.845 227.73 356.389 225.522Z" fill="#D40221"/>
<path d="M239.106 230.248C239.106 230.248 373.308 227.336 374.032 228.67C374.755 230.002 374.508 234.727 373.225 234.95C371.943 235.173 242.264 237.941 240.482 236.83C238.699 235.719 239.106 230.25 239.106 230.25V230.248Z" fill="#1B3D9E"/>
<path d="M324.636 226.886C324.636 226.886 325.317 236.826 324.636 237.089C323.955 237.353 241.312 239 239.065 237.941C236.818 236.882 236.035 229.66 237.622 229.166C239.21 228.672 324.634 226.886 324.634 226.886" fill="#1C056D"/>
<path d="M204.798 177.533C204.547 176.999 204.937 176.387 205.527 176.38C216.202 176.266 292.188 175.498 294.618 176.722C297.232 178.038 325.912 228.287 324.591 229.166C323.27 230.044 241.929 231.333 239.105 230.248C234.051 228.303 210.155 188.962 204.798 177.533Z" fill="#6880E4"/>
<path d="M270.332 212.215C272.977 210.217 273.266 206.159 270.977 203.152C268.688 200.144 264.688 199.326 262.043 201.324C259.398 203.323 259.109 207.38 261.398 210.388C263.687 213.395 267.686 214.214 270.332 212.215Z" fill="white"/>
<path d="M176.762 103.725V75.8647C176.762 69.5198 171.599 64.3762 165.231 64.3762H95.7101C89.3418 64.3762 84.1793 69.5198 84.1793 75.8647V103.725C84.1793 110.07 89.3418 115.213 95.7101 115.213H165.231C171.599 115.213 176.762 110.07 176.762 103.725Z" fill="white"/>
<path d="M165.232 68.2698H95.7128C91.5027 68.2698 88.0898 71.6701 88.0898 75.8647V103.721C88.0898 107.916 91.5027 111.316 95.7128 111.316H165.232C169.442 111.316 172.855 107.916 172.855 103.721V75.8647C172.855 71.6701 169.442 68.2698 165.232 68.2698Z" fill="#68A9FD"/>
<path d="M109.761 81.6628C109.832 81.3323 109.981 81.0805 110.206 80.9076C110.432 80.7365 110.679 80.6481 110.947 80.6404C111.215 80.6347 111.466 80.7096 111.705 80.8634C111.942 81.0171 112.108 81.2535 112.205 81.5744C112.525 84.3918 112.749 87.1803 112.874 89.94C112.999 92.6997 113.067 95.4997 113.079 98.3401C113.067 98.6015 112.996 98.8168 112.864 98.9878C112.733 99.1588 112.571 99.2876 112.375 99.3702C112.178 99.4529 111.964 99.4951 111.732 99.4951C111.501 99.4951 111.283 99.4509 111.082 99.3625C110.88 99.2741 110.708 99.1473 110.565 98.9801C110.423 98.8148 110.334 98.6015 110.297 98.3401C110.286 97.0026 110.309 95.6919 110.368 94.4062C110.428 93.1225 110.428 91.8099 110.368 90.4723C110.309 90.4954 110.243 90.5204 110.172 90.5434C110.1 90.5665 110.023 90.5915 109.94 90.6145C109.275 90.603 108.633 90.5723 108.015 90.5261C107.398 90.4781 106.785 90.4435 106.179 90.4204C105.573 90.3974 104.964 90.4031 104.352 90.4377C103.741 90.4743 103.114 90.5627 102.472 90.7049L102.294 97.8097C102.271 98.1999 102.142 98.49 101.91 98.6803C101.679 98.8706 101.422 98.9647 101.145 98.9647C100.867 98.9647 100.601 98.8706 100.352 98.6803C100.103 98.492 99.9545 98.2075 99.9062 97.827V81.6648C99.9776 81.3342 100.126 81.0901 100.352 80.9364C100.578 80.7827 100.824 80.7077 101.093 80.7135C101.361 80.7192 101.615 80.8076 101.858 80.9806C102.101 81.1516 102.271 81.3976 102.366 81.7186L102.472 88.2719C103.126 88.1527 103.758 88.0835 104.37 88.0586C104.981 88.0355 105.591 88.0374 106.196 88.0682C106.802 88.097 107.413 88.1374 108.033 88.1835C108.65 88.2315 109.292 88.2604 109.958 88.2719C110.006 88.2949 110.046 88.3103 110.083 88.3161C110.118 88.3218 110.16 88.3372 110.208 88.3603C110.137 87.188 110.075 86.0714 110.021 85.0125C109.967 83.9536 109.88 82.8371 109.763 81.6648L109.761 81.6628Z" fill="white"/>
<path d="M116.017 83.2253C115.683 83.1772 115.423 83.0658 115.232 82.887C115.041 82.7102 114.931 82.5104 114.902 82.2913C114.873 82.0722 114.925 81.8531 115.062 81.634C115.199 81.415 115.427 81.2458 115.749 81.1286C116.985 80.9749 118.102 80.8749 119.1 80.8269C120.099 80.7788 121.073 80.7596 122.024 80.7654C122.975 80.7712 123.953 80.7942 124.956 80.8365C125.961 80.8788 127.079 80.9057 128.316 80.9172C128.636 81.0114 128.873 81.1632 129.029 81.3708C129.184 81.5783 129.259 81.7936 129.251 82.0184C129.245 82.2433 129.157 82.4508 128.983 82.6391C128.811 82.8294 128.559 82.9582 128.225 83.0293C127.725 83.0293 127.28 83.0331 126.888 83.0389C126.497 83.0446 126.113 83.0504 125.739 83.0562C125.365 83.0619 124.981 83.0715 124.589 83.0831C124.198 83.0946 123.752 83.1004 123.252 83.1004C123.264 84.3438 123.274 85.5776 123.279 86.8037C123.285 88.0298 123.301 89.2482 123.324 90.4628C123.347 91.6773 123.384 92.8957 123.43 94.1218C123.478 95.3479 123.555 96.5817 123.661 97.8251C123.65 98.1576 123.54 98.4343 123.331 98.6592C123.123 98.884 122.886 99.0378 122.618 99.1204C122.35 99.2031 122.08 99.1973 121.806 99.1031C121.532 99.009 121.324 98.8072 121.183 98.4997C121.063 97.2217 120.996 95.9399 120.978 94.6542C120.961 93.3704 120.963 92.0847 120.988 90.801C121.011 89.5172 121.044 88.2316 121.086 86.9478C121.129 85.664 121.148 84.3822 121.148 83.1023C120.614 83.1138 120.143 83.1138 119.74 83.1023C119.335 83.0908 118.947 83.0812 118.573 83.0754C118.199 83.0696 117.813 83.0754 117.414 83.0927C117.016 83.11 116.55 83.1542 116.015 83.2253H116.017Z" fill="white"/>
<path d="M141.471 97.6292C141.222 98.0558 140.971 98.3133 140.723 98.4017C140.474 98.4901 140.244 98.4901 140.036 98.4017C139.828 98.3133 139.652 98.1769 139.509 97.9924C139.367 97.8098 139.272 97.658 139.224 97.5388C139.01 97.0411 138.805 96.4588 138.608 95.79C138.412 95.1212 138.223 94.414 138.038 93.6683C137.852 92.9227 137.663 92.1559 137.467 91.368C137.27 90.58 137.069 89.8209 136.861 89.0849C136.653 88.3507 136.433 87.6608 136.201 87.0151C135.97 86.3694 135.717 85.8101 135.443 85.3374C135.158 86.3675 134.936 87.4033 134.774 88.4449C134.614 89.4865 134.483 90.532 134.382 91.5794C134.282 92.6267 134.191 93.6722 134.114 94.7138C134.037 95.7554 133.933 96.7913 133.802 97.8213C133.742 98.248 133.609 98.5612 133.401 98.763C133.192 98.9648 132.955 99.0686 132.687 99.0743C132.419 99.0801 132.153 98.9917 131.884 98.8072C131.616 98.6246 131.4 98.3537 131.234 97.9981C131.283 96.5414 131.389 95.0616 131.555 93.5588C131.72 92.056 131.913 90.5992 132.133 89.1906C132.353 87.7819 132.583 86.452 132.82 85.2029C133.057 83.9537 133.265 82.8679 133.443 81.9435C133.549 81.6841 133.73 81.4784 133.987 81.3304C134.242 81.1825 134.519 81.096 134.816 81.0729C135.113 81.0499 135.401 81.0825 135.68 81.1709C135.96 81.2593 136.165 81.4112 136.296 81.6245C136.973 82.5354 137.54 83.5136 137.999 84.5552C138.456 85.5968 138.84 86.6327 139.149 87.6627C139.457 88.6928 139.716 89.6787 139.924 90.6204C140.132 91.5621 140.337 92.3884 140.539 93.0976C140.8 91.9733 141.112 90.8606 141.475 89.7594C141.837 88.6582 142.196 87.6185 142.553 86.6423C142.91 85.666 143.24 84.7781 143.543 83.9787C143.845 83.1792 144.061 82.52 144.193 81.9992C144.264 81.7263 144.412 81.49 144.638 81.2882C144.864 81.0864 145.111 80.9595 145.377 80.9057C145.645 80.8519 145.9 80.8846 146.143 81.0037C146.386 81.1229 146.561 81.3593 146.669 81.7148C146.883 83.16 147.13 84.5706 147.41 85.9504C147.69 87.3303 147.965 88.689 148.239 90.0266C148.513 91.3641 148.768 92.6959 149.005 94.0219C149.242 95.348 149.416 96.674 149.522 98.0001C149.557 98.3902 149.472 98.69 149.264 98.8975C149.055 99.1051 148.814 99.2146 148.542 99.2262C148.268 99.2377 147.998 99.1531 147.73 98.9686C147.462 98.7861 147.287 98.492 147.204 98.0904C146.966 97.0488 146.743 96.0341 146.534 95.0443C146.326 94.0565 146.133 93.0726 145.956 92.0963C145.778 91.12 145.614 90.1342 145.466 89.1387C145.317 88.1432 145.184 87.1208 145.064 86.0657C144.802 87.0016 144.553 87.9395 144.316 88.8812C144.079 89.8228 143.826 90.7703 143.558 91.7235C143.29 92.6767 142.987 93.6453 142.649 94.6273C142.31 95.6094 141.917 96.6106 141.463 97.6292H141.471Z" fill="white"/>
<path d="M152.936 81.9646C153.007 81.6341 153.167 81.39 153.418 81.2363C153.667 81.0825 153.941 81.0114 154.238 81.0229C154.535 81.0345 154.817 81.1286 155.085 81.3074C155.353 81.4861 155.532 81.734 155.629 82.053C155.629 83.379 155.617 84.657 155.592 85.8889C155.569 87.1208 155.542 88.343 155.511 89.5557C155.482 90.7703 155.455 91.9944 155.43 93.2321C155.407 94.4697 155.388 95.7515 155.376 97.0776C156.041 97.1717 156.751 97.2313 157.505 97.2544C158.26 97.2774 159.027 97.2871 159.805 97.2813C160.582 97.2755 161.35 97.2601 162.104 97.2371C162.858 97.214 163.574 97.2025 164.253 97.2025C164.573 97.2967 164.812 97.4485 164.966 97.656C165.121 97.8636 165.196 98.0788 165.19 98.3037C165.184 98.5285 165.096 98.7361 164.922 98.9244C164.75 99.1147 164.498 99.2434 164.164 99.3145C163.416 99.3145 162.607 99.3376 161.739 99.3857C160.871 99.4337 159.992 99.4683 159.101 99.4913C158.209 99.5144 157.334 99.5183 156.472 99.501C155.609 99.4837 154.811 99.4202 154.074 99.3145C153.8 99.3741 153.536 99.3126 153.281 99.1281C153.025 98.9456 152.868 98.64 152.809 98.2134C152.809 96.8162 152.814 95.446 152.826 94.1026C152.838 92.7593 152.853 91.4217 152.87 90.088C152.888 88.7562 152.903 87.4187 152.915 86.0734C152.926 84.7301 152.932 83.3598 152.932 81.9627L152.936 81.9646Z" fill="white"/>
<path d="M246.197 117.246V138.892C246.197 142.97 242.874 146.281 238.781 146.281H189.733C185.64 146.281 182.317 142.97 182.317 138.892V117.246C182.317 113.168 185.64 109.857 189.733 109.857H238.781C242.874 109.857 246.197 113.168 246.197 117.246Z" fill="white"/>
<path d="M238.78 112.946H189.733C187.348 112.946 185.414 114.872 185.414 117.248V138.894C185.414 141.27 187.348 143.196 189.733 143.196H238.78C241.166 143.196 243.099 141.27 243.099 138.894V117.248C243.099 114.872 241.166 112.946 238.78 112.946Z" fill="#68A9FD"/>
<path d="M196.003 123.175C195.738 123.139 195.532 123.048 195.382 122.908C195.231 122.768 195.144 122.61 195.121 122.437C195.098 122.264 195.14 122.091 195.249 121.916C195.357 121.743 195.538 121.609 195.792 121.515C196.178 121.486 196.605 121.449 197.071 121.401C197.538 121.355 198.003 121.325 198.47 121.311C198.937 121.298 199.386 121.313 199.818 121.361C200.252 121.407 200.628 121.507 200.948 121.657C201.203 121.836 201.359 122.043 201.421 122.283C201.483 122.522 201.475 122.739 201.4 122.931C201.324 123.123 201.188 123.262 200.991 123.346C200.792 123.431 200.553 123.408 200.271 123.275C200.046 123.171 199.735 123.121 199.34 123.121C199.386 123.646 199.45 124.224 199.531 124.851C199.61 125.479 199.689 126.133 199.764 126.813C199.839 127.493 199.897 128.18 199.94 128.875C199.982 129.571 199.99 130.245 199.961 130.901C199.932 131.558 199.855 132.179 199.727 132.765C199.6 133.351 199.405 133.874 199.141 134.333C198.942 134.671 198.67 134.94 198.321 135.142C197.972 135.344 197.588 135.484 197.17 135.565C196.751 135.646 196.313 135.669 195.856 135.636C195.399 135.603 194.959 135.523 194.537 135.398C194.112 135.271 193.725 135.102 193.372 134.89C193.019 134.679 192.739 134.433 192.531 134.152C192.371 133.937 192.249 133.697 192.164 133.436C192.079 133.172 192.016 132.901 191.973 132.619C191.931 132.338 191.906 132.058 191.896 131.781C191.886 131.504 191.877 131.239 191.867 130.985C191.923 130.722 192.045 130.528 192.228 130.401C192.411 130.274 192.612 130.211 192.828 130.211C193.044 130.211 193.252 130.276 193.449 130.409C193.648 130.54 193.783 130.732 193.858 130.985C193.867 131.36 193.866 131.681 193.85 131.95C193.837 132.217 193.858 132.45 193.914 132.646C193.97 132.842 194.083 133.017 194.253 133.167C194.423 133.316 194.701 133.463 195.086 133.603C195.887 133.876 196.502 133.876 196.936 133.603C197.37 133.33 197.671 132.778 197.841 131.942C197.972 131.295 198.038 130.607 198.038 129.875C198.038 129.142 198.005 128.402 197.939 127.651C197.874 126.902 197.791 126.15 197.692 125.401C197.594 124.651 197.517 123.929 197.459 123.235C197.185 123.273 196.917 123.267 196.655 123.221C196.39 123.175 196.174 123.16 196.005 123.179L196.003 123.175Z" fill="white"/>
<path d="M202.327 134.965C202.497 134.571 202.657 134.078 202.807 133.482C202.958 132.886 203.108 132.233 203.259 131.52C203.409 130.807 203.569 130.061 203.739 129.283C203.909 128.504 204.09 127.738 204.283 126.982C204.476 126.227 204.69 125.51 204.925 124.83C205.16 124.15 205.425 123.552 205.716 123.037C206.007 122.522 206.333 122.111 206.69 121.805C207.047 121.499 207.448 121.348 207.89 121.348C208.144 121.348 208.395 121.499 208.646 121.805C208.895 122.111 209.14 122.518 209.381 123.029C209.62 123.54 209.861 124.134 210.1 124.809C210.34 125.483 210.579 126.192 210.814 126.932C211.049 127.674 211.285 128.428 211.52 129.198C211.755 129.967 211.989 130.699 212.218 131.393C212.45 132.087 212.679 132.725 212.911 133.307C213.14 133.889 213.374 134.362 213.609 134.727C213.684 134.981 213.675 135.204 213.58 135.396C213.486 135.588 213.352 135.732 213.177 135.825C213.003 135.919 212.803 135.949 212.577 135.917C212.351 135.884 212.143 135.775 211.956 135.586C211.73 135.24 211.522 134.869 211.335 134.475C211.146 134.081 210.984 133.701 210.847 133.336C210.71 132.971 210.6 132.64 210.515 132.344C210.43 132.048 210.374 131.821 210.345 131.662C209.875 131.662 209.423 131.66 208.989 131.654C208.555 131.65 208.127 131.647 207.705 131.647C207.282 131.647 206.856 131.645 206.428 131.639C206 131.635 205.544 131.627 205.066 131.618C204.952 132.05 204.865 132.427 204.806 132.75C204.744 133.073 204.686 133.386 204.628 133.686C204.572 133.985 204.501 134.295 204.416 134.614C204.331 134.933 204.21 135.298 204.049 135.711C203.88 135.917 203.685 136.044 203.463 136.092C203.241 136.138 203.039 136.122 202.855 136.042C202.672 135.961 202.524 135.828 202.41 135.64C202.296 135.452 202.269 135.227 202.325 134.965H202.327ZM207.722 123.527C207.591 123.49 207.458 123.573 207.327 123.781C207.194 123.986 207.066 124.269 206.939 124.624C206.812 124.98 206.686 125.389 206.565 125.848C206.441 126.308 206.322 126.773 206.204 127.242C206.086 127.711 205.974 128.158 205.872 128.585C205.768 129.012 205.67 129.375 205.575 129.675C205.98 129.684 206.354 129.694 206.698 129.704C207.041 129.713 207.381 129.725 207.714 129.738C208.048 129.752 208.387 129.767 208.731 129.78C209.074 129.794 209.445 129.805 209.84 129.815C209.614 129.262 209.423 128.725 209.269 128.205C209.113 127.684 208.962 127.167 208.818 126.65C208.671 126.135 208.515 125.618 208.345 125.103C208.175 124.588 207.969 124.061 207.724 123.527H207.722Z" fill="white"/>
<path d="M220.036 135.669C219.895 135.828 219.749 135.934 219.598 135.986C219.448 136.038 219.303 136.049 219.168 136.02C219.031 135.992 218.908 135.928 218.794 135.83C218.68 135.732 218.582 135.611 218.497 135.471C217.716 133.257 216.925 131.101 216.124 128.998C215.324 126.896 214.5 124.763 213.653 122.597C213.624 122.333 213.686 122.118 213.837 121.949C213.987 121.78 214.176 121.669 214.402 121.611C214.628 121.555 214.861 121.565 215.1 121.64C215.339 121.715 215.54 121.861 215.7 122.076C216.049 123.033 216.387 123.927 216.716 124.757C217.046 125.587 217.365 126.413 217.669 127.234C217.976 128.055 218.271 128.894 218.559 129.752C218.846 130.611 219.126 131.545 219.4 132.559C219.766 131.66 220.119 130.768 220.458 129.886C220.798 129.004 221.124 128.124 221.44 127.242C221.755 126.36 222.063 125.476 222.364 124.59C222.665 123.704 222.966 122.804 223.267 121.895C223.398 121.67 223.574 121.53 223.79 121.473C224.006 121.417 224.214 121.43 224.411 121.515C224.608 121.599 224.775 121.74 224.912 121.938C225.049 122.134 225.113 122.364 225.103 122.628C224.793 123.725 224.44 124.815 224.044 125.898C223.649 126.982 223.228 128.064 222.781 129.148C222.333 130.232 221.878 131.314 221.411 132.398C220.945 133.482 220.487 134.571 220.034 135.669H220.036Z" fill="white"/>
<path d="M226.446 134.965C226.616 134.571 226.776 134.078 226.926 133.482C227.077 132.886 227.227 132.233 227.378 131.52C227.528 130.807 227.688 130.061 227.858 129.283C228.028 128.504 228.209 127.738 228.402 126.982C228.595 126.227 228.809 125.51 229.044 124.83C229.28 124.15 229.544 123.552 229.835 123.037C230.126 122.522 230.452 122.111 230.809 121.805C231.166 121.499 231.567 121.348 232.009 121.348C232.264 121.348 232.514 121.499 232.765 121.805C233.014 122.111 233.259 122.518 233.5 123.029C233.739 123.54 233.98 124.134 234.219 124.809C234.459 125.483 234.698 126.192 234.933 126.932C235.168 127.674 235.404 128.428 235.639 129.198C235.874 129.967 236.108 130.699 236.337 131.393C236.569 132.087 236.798 132.725 237.03 133.307C237.259 133.889 237.493 134.362 237.728 134.727C237.803 134.981 237.794 135.204 237.699 135.396C237.605 135.588 237.472 135.732 237.296 135.825C237.122 135.919 236.922 135.949 236.696 135.917C236.47 135.884 236.262 135.775 236.075 135.586C235.849 135.24 235.641 134.869 235.454 134.475C235.265 134.081 235.103 133.701 234.966 133.336C234.829 132.971 234.719 132.64 234.634 132.344C234.549 132.048 234.493 131.821 234.464 131.662C233.994 131.662 233.542 131.66 233.108 131.654C232.674 131.65 232.246 131.647 231.824 131.647C231.401 131.647 230.975 131.645 230.547 131.639C230.119 131.635 229.663 131.627 229.183 131.618C229.069 132.05 228.983 132.427 228.923 132.75C228.861 133.073 228.803 133.386 228.745 133.686C228.689 133.985 228.618 134.295 228.533 134.614C228.448 134.933 228.327 135.298 228.167 135.711C227.997 135.917 227.802 136.044 227.58 136.092C227.358 136.138 227.156 136.122 226.973 136.042C226.789 135.961 226.641 135.828 226.527 135.64C226.413 135.452 226.386 135.227 226.442 134.965H226.446ZM231.841 123.527C231.71 123.49 231.577 123.573 231.446 123.781C231.313 123.986 231.185 124.269 231.058 124.624C230.931 124.98 230.805 125.389 230.684 125.848C230.56 126.308 230.441 126.773 230.323 127.242C230.205 127.711 230.094 128.158 229.991 128.585C229.887 129.012 229.789 129.375 229.694 129.675C230.099 129.684 230.474 129.694 230.817 129.704C231.16 129.713 231.5 129.725 231.833 129.738C232.167 129.752 232.507 129.767 232.85 129.78C233.193 129.794 233.564 129.805 233.959 129.815C233.733 129.262 233.542 128.725 233.388 128.205C233.232 127.684 233.081 127.167 232.937 126.65C232.79 126.135 232.634 125.618 232.464 125.103C232.294 124.588 232.088 124.061 231.843 123.527H231.841Z" fill="white"/>
<path d="M262.08 64.1974V87.2532C262.08 91.9654 258.24 95.7936 253.508 95.7936H198.969C194.237 95.7936 190.397 91.9673 190.397 87.2532V64.1974C190.397 59.4852 194.237 55.657 198.969 55.657L253.508 55.657C258.238 55.657 262.08 59.4833 262.08 64.1974Z" fill="white"/>
<path d="M253.509 59.4775H198.968C196.353 59.4775 194.232 61.5899 194.232 64.1955V87.2532C194.232 89.8589 196.353 91.9712 198.968 91.9712H253.509C256.124 91.9712 258.244 89.8589 258.244 87.2532V64.1955C258.244 61.5899 256.124 59.4775 253.509 59.4775Z" fill="#68A9FD"/>
<path d="M206.759 68.9807C206.735 68.6329 206.797 68.3485 206.942 68.1274C207.087 67.9064 207.266 67.7623 207.476 67.6912C207.686 67.622 207.904 67.6297 208.132 67.7181C208.36 67.8046 208.543 67.9872 208.684 68.2677C209.033 68.0006 209.523 67.8084 210.153 67.6931C210.782 67.5778 211.471 67.5432 212.217 67.5893C212.964 67.6355 213.724 67.7719 214.499 67.9987C215.275 68.2255 215.981 68.556 216.615 68.9923C217.25 69.4285 217.774 69.9704 218.189 70.6219C218.602 71.2734 218.822 72.0441 218.845 72.9396C218.868 74.0312 218.723 75.0017 218.407 75.8492C218.093 76.6967 217.666 77.4174 217.13 78.0093C216.594 78.6012 215.977 79.072 215.277 79.4199C214.576 79.7677 213.867 79.983 213.143 80.0637C212.42 80.1444 211.71 80.0925 211.01 79.9061C210.31 79.7197 209.687 79.4007 209.139 78.9471C209.116 79.4468 209.11 79.9253 209.122 80.3846C209.133 80.8439 209.145 81.2975 209.156 81.7433C209.168 82.1911 209.179 82.6447 209.191 83.102C209.203 83.5614 209.203 84.0399 209.191 84.5395C209.168 84.9239 209.056 85.2141 208.859 85.4101C208.661 85.6081 208.439 85.7099 208.196 85.7157C207.951 85.7214 207.721 85.635 207.505 85.4543C207.289 85.2737 207.158 84.9988 207.112 84.626C207.112 83.2327 207.108 81.874 207.102 80.5499C207.096 79.2258 207.081 77.919 207.058 76.6294C207.034 75.3399 207 74.0619 206.953 72.7955C206.907 71.529 206.844 70.2568 206.761 68.9807H206.759ZM209.068 70.5489C209.114 71.1178 209.149 71.6578 209.172 72.169C209.195 72.6802 209.21 73.1875 209.216 73.693C209.222 74.1984 209.222 74.7057 209.216 75.2169C209.21 75.7281 209.201 76.2682 209.189 76.837C209.353 76.8139 209.538 76.8312 209.748 76.8889C210.098 77.2252 210.506 77.4558 210.973 77.5769C211.44 77.6999 211.915 77.7345 212.399 77.6807C212.883 77.6288 213.361 77.4943 213.832 77.279C214.304 77.0638 214.723 76.7832 215.091 76.4334C215.458 76.0856 215.757 75.6782 215.983 75.2131C216.21 74.748 216.324 74.2368 216.324 73.6795C216.324 73.0876 216.195 72.561 215.938 72.1036C215.682 71.6443 215.346 71.2523 214.933 70.9275C214.519 70.6027 214.05 70.349 213.525 70.1703C213 69.9897 212.47 69.882 211.934 69.8475C211.398 69.8129 210.879 69.8532 210.377 69.9685C209.876 70.0838 209.438 70.276 209.066 70.5431L209.068 70.5489Z" fill="white"/>
<path d="M231.082 68.337C231.151 68.0122 231.298 67.7643 231.519 67.5971C231.741 67.4299 231.982 67.3415 232.245 67.3358C232.507 67.33 232.754 67.403 232.987 67.5529C233.221 67.7048 233.383 67.9354 233.477 68.2505C233.792 71.0141 234.01 73.7507 234.133 76.4566C234.255 79.1625 234.322 81.9106 234.334 84.6972C234.322 84.9528 234.253 85.1642 234.123 85.3333C233.994 85.5025 233.834 85.6274 233.643 85.7081C233.45 85.7888 233.24 85.8292 233.014 85.8292C232.789 85.8292 232.575 85.785 232.376 85.6985C232.177 85.612 232.009 85.4871 231.869 85.3237C231.728 85.1604 231.641 84.9528 231.606 84.6972C231.595 83.3846 231.618 82.099 231.676 80.8383C231.734 79.5776 231.734 78.2919 231.676 76.9793C231.618 77.0024 231.554 77.0254 231.483 77.0485C231.413 77.0716 231.336 77.0946 231.255 77.1177C230.601 77.1061 229.972 77.0773 229.367 77.0312C228.761 76.9851 228.159 76.9505 227.565 76.9274C226.971 76.9044 226.373 76.9101 225.773 76.9447C225.173 76.9793 224.558 77.0658 223.929 77.2061L223.754 84.1745C223.731 84.5589 223.605 84.8433 223.378 85.0278C223.15 85.2142 222.899 85.3064 222.625 85.3064C222.351 85.3064 222.091 85.2142 221.848 85.0278C221.603 84.8414 221.456 84.5627 221.41 84.1918V68.337C221.48 68.0122 221.626 67.7739 221.848 67.6221C222.07 67.4722 222.311 67.3992 222.573 67.4049C222.836 67.4107 223.086 67.4972 223.326 67.6663C223.565 67.8354 223.731 68.0757 223.823 68.3889L223.927 74.8173C224.568 74.702 225.189 74.6309 225.791 74.6078C226.391 74.5848 226.988 74.5886 227.583 74.6174C228.177 74.6463 228.777 74.6847 229.384 74.7308C229.99 74.7769 230.621 74.8058 231.273 74.8173C231.319 74.8404 231.359 74.8557 231.396 74.8615C231.431 74.8673 231.471 74.8826 231.517 74.9057C231.448 73.7565 231.386 72.661 231.334 71.6214C231.282 70.5817 231.197 69.4862 231.082 68.337Z" fill="white"/>
<path d="M236.888 68.9807C236.864 68.6329 236.926 68.3485 237.071 68.1274C237.215 67.9064 237.395 67.7623 237.603 67.6912C237.813 67.622 238.031 67.6297 238.259 67.7181C238.487 67.8046 238.67 67.9872 238.811 68.2677C239.16 68.0006 239.65 67.8084 240.28 67.6931C240.909 67.5778 241.598 67.5432 242.344 67.5893C243.091 67.6355 243.851 67.7719 244.626 67.9987C245.402 68.2255 246.108 68.556 246.742 68.9923C247.377 69.4285 247.901 69.9704 248.316 70.6219C248.729 71.2734 248.949 72.0441 248.972 72.9396C248.995 74.0312 248.849 75.0017 248.534 75.8492C248.22 76.6967 247.793 77.4174 247.257 78.0093C246.721 78.6012 246.104 79.072 245.404 79.4199C244.703 79.7677 243.994 79.983 243.27 80.0637C242.547 80.1444 241.837 80.0925 241.137 79.9061C240.437 79.7197 239.814 79.4007 239.266 78.9471C239.243 79.4468 239.237 79.9253 239.248 80.3846C239.26 80.8439 239.272 81.2975 239.283 81.7433C239.295 82.1911 239.306 82.6447 239.318 83.102C239.33 83.5614 239.33 84.0399 239.318 84.5395C239.295 84.9239 239.183 85.2141 238.986 85.4101C238.789 85.6061 238.566 85.7099 238.323 85.7157C238.078 85.7214 237.848 85.635 237.632 85.4543C237.416 85.2737 237.285 84.9988 237.239 84.626C237.239 83.2327 237.235 81.874 237.229 80.5499C237.223 79.2258 237.208 77.919 237.185 76.6294C237.161 75.3399 237.127 74.0619 237.08 72.7955C237.034 71.529 236.97 70.2568 236.888 68.9807ZM239.196 70.5489C239.243 71.1178 239.277 71.6578 239.301 72.169C239.324 72.6802 239.339 73.1875 239.345 73.693C239.351 74.1984 239.351 74.7057 239.345 75.2169C239.339 75.7281 239.33 76.2682 239.318 76.837C239.482 76.8139 239.667 76.8312 239.877 76.8889C240.226 77.2252 240.635 77.4558 241.102 77.5769C241.569 77.6999 242.043 77.7345 242.528 77.6807C243.012 77.6288 243.49 77.4943 243.961 77.279C244.433 77.0638 244.852 76.7832 245.22 76.4334C245.587 76.0856 245.886 75.6782 246.111 75.2131C246.339 74.748 246.453 74.2368 246.453 73.6795C246.453 73.0876 246.324 72.561 246.069 72.1036C245.812 71.6443 245.477 71.2523 245.064 70.9275C244.649 70.6027 244.181 70.349 243.656 70.1703C243.131 69.9897 242.601 69.882 242.065 69.8475C241.528 69.8129 241.01 69.8532 240.508 69.9685C240.007 70.0838 239.569 70.276 239.196 70.5431V70.5489Z" fill="white"/>
<path d="M166.992 132.26V151.996C166.992 155.788 163.902 158.867 160.096 158.867H119.277C115.472 158.867 112.382 155.788 112.382 151.996V132.26C112.382 128.468 115.472 125.389 119.277 125.389H160.098C163.904 125.389 166.992 128.468 166.992 132.258V132.26Z" fill="white"/>
<path d="M160.857 128.737H118.405C116.619 128.737 115.172 130.179 115.172 131.958V152.298C115.172 154.077 116.619 155.519 118.405 155.519H160.857C162.643 155.519 164.09 154.077 164.09 152.298V131.958C164.09 130.179 162.643 128.737 160.857 128.737Z" fill="#68A9FD"/>
<path d="M130.589 134.752C130.548 134.429 130.602 134.17 130.749 133.974C130.895 133.778 131.073 133.657 131.279 133.61C131.488 133.564 131.696 133.605 131.91 133.732C132.122 133.858 132.275 134.077 132.365 134.389C132.456 134.913 132.521 135.438 132.562 135.961C132.602 136.485 132.624 137.02 132.624 137.564C132.602 137.896 132.494 138.154 132.298 138.334C132.101 138.515 131.881 138.619 131.638 138.644C131.395 138.669 131.167 138.611 130.955 138.471C130.743 138.33 130.616 138.098 130.575 137.775V137.654C130.089 137.02 129.536 136.57 128.913 136.309C128.289 136.047 127.653 135.938 126.999 135.984C126.347 136.03 125.701 136.211 125.064 136.528C124.428 136.845 123.849 137.262 123.334 137.775C123.01 138.098 122.744 138.486 122.538 138.94C122.329 139.393 122.173 139.876 122.067 140.383C121.961 140.892 121.903 141.411 121.893 141.941C121.884 142.47 121.911 142.979 121.976 143.469C122.042 143.959 122.144 144.409 122.279 144.822C122.416 145.235 122.58 145.574 122.773 145.835C123.066 146.248 123.433 146.59 123.872 146.863C124.312 147.136 124.785 147.34 125.292 147.476C125.797 147.613 126.322 147.684 126.862 147.688C127.404 147.693 127.929 147.636 128.44 147.515C128.951 147.394 129.424 147.209 129.86 146.963C130.294 146.715 130.664 146.406 130.967 146.033C131.108 145.852 131.21 145.647 131.27 145.42C131.329 145.193 131.407 144.974 131.497 144.763C131.659 144.48 131.839 144.301 132.035 144.226C132.232 144.152 132.412 144.155 132.574 144.242C132.736 144.328 132.869 144.486 132.975 144.718C133.081 144.951 133.129 145.233 133.119 145.566C133.098 146.283 132.857 146.923 132.39 147.486C131.925 148.051 131.326 148.516 130.593 148.885C129.86 149.254 129.042 149.515 128.141 149.671C127.24 149.827 126.343 149.852 125.446 149.746C124.551 149.64 123.708 149.396 122.919 149.012C122.131 148.629 121.482 148.08 120.977 147.363C120.694 146.959 120.451 146.473 120.248 145.904C120.045 145.335 119.897 144.72 119.8 144.059C119.704 143.4 119.662 142.714 119.671 142.003C119.681 141.292 119.754 140.596 119.891 139.916C120.028 139.236 120.233 138.592 120.506 137.988C120.78 137.383 121.129 136.854 121.554 136.401C121.888 136.047 122.287 135.721 122.754 135.419C123.218 135.117 123.72 134.86 124.256 134.648C124.792 134.437 125.352 134.275 125.932 134.164C126.515 134.053 127.086 134.008 127.647 134.028C128.208 134.049 128.747 134.143 129.264 134.314C129.781 134.485 130.24 134.748 130.645 135.1C130.635 135.038 130.623 134.981 130.614 134.927C130.604 134.871 130.593 134.814 130.583 134.754L130.589 134.752Z" fill="white"/>
<path d="M145.253 137.913C145.334 138.186 145.307 138.409 145.17 138.586C145.033 138.763 144.846 138.88 144.608 138.942C144.371 139.003 144.111 138.999 143.827 138.934C143.544 138.868 143.301 138.734 143.098 138.532C143.077 138.219 143.002 137.9 142.87 137.571C142.739 137.245 142.562 136.949 142.34 136.687C142.118 136.426 141.854 136.209 141.551 136.038C141.248 135.867 140.924 135.786 140.579 135.796C140.102 135.817 139.678 135.94 139.304 136.166C138.93 136.393 138.637 136.691 138.424 137.058C138.212 137.427 138.091 137.842 138.06 138.305C138.029 138.769 138.125 139.243 138.347 139.728C138.428 139.92 138.648 140.066 139.007 140.166C139.366 140.266 139.794 140.375 140.29 140.49C140.785 140.606 141.316 140.75 141.883 140.921C142.45 141.092 142.988 141.344 143.499 141.678C144.01 142.011 144.456 142.447 144.834 142.987C145.214 143.527 145.469 144.219 145.6 145.066C145.7 145.783 145.633 146.412 145.395 146.957C145.158 147.501 144.805 147.962 144.34 148.341C143.875 148.72 143.328 149.012 142.701 149.217C142.074 149.425 141.42 149.54 140.743 149.565C140.064 149.59 139.396 149.525 138.739 149.369C138.081 149.213 137.491 148.964 136.97 148.62C136.449 148.278 136.027 147.836 135.703 147.296C135.379 146.756 135.213 146.119 135.201 145.383C135.201 145.182 135.211 144.987 135.232 144.801C135.251 144.615 135.298 144.446 135.369 144.294C135.44 144.142 135.541 144.013 135.672 143.907C135.803 143.802 135.98 143.734 136.202 143.704C136.405 143.694 136.576 143.729 136.719 143.809C136.86 143.89 136.974 143.998 137.061 144.134C137.145 144.271 137.201 144.432 137.228 144.618C137.254 144.805 137.255 145.005 137.236 145.216C137.186 145.66 137.248 146.041 137.425 146.358C137.603 146.675 137.842 146.938 138.147 147.144C138.451 147.349 138.795 147.501 139.179 147.597C139.562 147.693 139.937 147.732 140.301 147.711C140.666 147.691 141.034 147.638 141.408 147.551C141.783 147.467 142.122 147.33 142.425 147.144C142.728 146.957 142.971 146.713 143.154 146.41C143.335 146.108 143.407 145.729 143.366 145.276C143.345 145.034 143.277 144.782 143.162 144.52C143.046 144.259 142.892 144.013 142.699 143.786C142.506 143.56 142.29 143.356 142.047 143.173C141.804 142.993 141.545 142.86 141.273 142.779C140.868 142.658 140.448 142.543 140.014 142.431C139.578 142.32 139.155 142.195 138.746 142.053C138.336 141.913 137.95 141.745 137.585 141.553C137.221 141.361 136.901 141.125 136.621 140.842C136.343 140.56 136.123 140.22 135.961 139.822C135.799 139.424 135.712 138.947 135.703 138.392C135.693 137.717 135.816 137.106 136.075 136.562C136.333 136.018 136.675 135.553 137.099 135.171C137.524 134.789 138 134.493 138.527 134.287C139.053 134.081 139.574 133.978 140.089 133.978C140.797 133.978 141.445 134.068 142.031 134.25C142.618 134.431 143.135 134.694 143.58 135.036C144.026 135.379 144.39 135.796 144.674 136.284C144.957 136.774 145.148 137.316 145.251 137.91L145.253 137.913Z" fill="white"/>
<path d="M156.68 137.913C156.761 138.186 156.734 138.409 156.597 138.586C156.46 138.763 156.273 138.88 156.036 138.942C155.799 139.003 155.538 138.999 155.255 138.934C154.971 138.868 154.728 138.734 154.526 138.532C154.505 138.219 154.429 137.9 154.298 137.571C154.167 137.245 153.99 136.949 153.768 136.687C153.546 136.426 153.282 136.209 152.979 136.038C152.676 135.867 152.352 135.786 152.007 135.796C151.53 135.817 151.106 135.94 150.732 136.166C150.357 136.393 150.064 136.691 149.852 137.058C149.64 137.427 149.518 137.842 149.488 138.305C149.457 138.769 149.553 139.243 149.775 139.728C149.856 139.92 150.076 140.066 150.435 140.166C150.793 140.266 151.222 140.375 151.717 140.49C152.213 140.606 152.743 140.75 153.311 140.921C153.878 141.092 154.416 141.344 154.927 141.678C155.438 142.011 155.884 142.447 156.262 142.987C156.642 143.527 156.896 144.219 157.028 145.066C157.128 145.783 157.06 146.412 156.823 146.957C156.586 147.501 156.233 147.962 155.768 148.341C155.303 148.72 154.755 149.012 154.128 149.217C153.502 149.425 152.848 149.54 152.171 149.565C151.492 149.59 150.824 149.525 150.166 149.369C149.509 149.213 148.918 148.964 148.398 148.62C147.877 148.278 147.454 147.836 147.13 147.296C146.806 146.756 146.64 146.119 146.629 145.383C146.629 145.182 146.639 144.987 146.66 144.801C146.679 144.615 146.725 144.446 146.797 144.294C146.868 144.142 146.968 144.013 147.1 143.907C147.231 143.802 147.408 143.734 147.63 143.704C147.833 143.694 148.004 143.729 148.147 143.809C148.288 143.89 148.402 143.998 148.488 144.134C148.573 144.271 148.629 144.432 148.656 144.618C148.681 144.805 148.683 145.005 148.664 145.216C148.614 145.66 148.675 146.041 148.853 146.358C149.03 146.675 149.27 146.938 149.574 147.144C149.879 147.349 150.222 147.501 150.606 147.597C150.99 147.693 151.364 147.732 151.729 147.711C152.093 147.691 152.462 147.638 152.836 147.551C153.21 147.467 153.55 147.33 153.853 147.144C154.155 146.957 154.398 146.713 154.582 146.41C154.763 146.108 154.834 145.729 154.794 145.276C154.773 145.034 154.705 144.782 154.589 144.52C154.474 144.259 154.319 144.013 154.126 143.786C153.934 143.56 153.718 143.356 153.475 143.173C153.231 142.993 152.973 142.86 152.701 142.779C152.296 142.658 151.875 142.543 151.441 142.431C151.006 142.32 150.583 142.195 150.174 142.053C149.763 141.913 149.378 141.745 149.013 141.553C148.648 141.361 148.328 141.125 148.049 140.842C147.771 140.56 147.551 140.22 147.389 139.822C147.227 139.424 147.14 138.947 147.13 138.392C147.121 137.717 147.244 137.106 147.503 136.562C147.761 136.018 148.103 135.553 148.527 135.171C148.951 134.789 149.428 134.493 149.954 134.287C150.481 134.081 151.002 133.978 151.517 133.978C152.225 133.978 152.873 134.068 153.459 134.25C154.045 134.431 154.562 134.694 155.008 135.036C155.454 135.379 155.818 135.796 156.102 136.284C156.385 136.774 156.576 137.316 156.678 137.91L156.68 137.913Z" fill="white"/>
<path d="M349.719 26.1536C352.952 24.3952 405.639 15.5972 406.706 21.5548C406.706 21.5548 413.059 54.9709 409.873 56.1259C407.869 56.8523 386.113 59.785 369.665 61.0822C366.242 66.4113 361.994 71.8788 360.717 72.586C359.329 73.3547 360.116 67.3895 361.161 61.6107C355.681 61.8317 351.825 61.6702 351.243 60.8727C348.943 57.7248 346.488 27.9121 349.721 26.1536H349.719Z" fill="#6880E4"/>
<path d="M397.813 41.2336C399.165 40.2913 399.494 38.4353 398.549 37.0881C397.603 35.7408 395.74 35.4126 394.388 36.3549C393.036 37.2972 392.706 39.1532 393.652 40.5004C394.598 41.8477 396.461 42.1759 397.813 41.2336Z" fill="white"/>
<path d="M377.441 41.1685C377.908 42.7444 379.571 43.6457 381.153 43.1806C382.734 42.7156 383.639 41.059 383.172 39.4831C382.705 37.9073 381.043 37.0059 379.461 37.471C377.877 37.9361 376.975 39.5927 377.441 41.1685Z" fill="white"/>
<path d="M361.082 42.877C361.549 44.4529 363.211 45.3542 364.793 44.8891C366.375 44.4241 367.279 42.7675 366.813 41.1916C366.346 39.6157 364.683 38.7144 363.101 39.1795C361.518 39.6446 360.615 41.3012 361.082 42.877Z" fill="white"/>
<path d="M66.4529 107.428H56.3764C56.01 107.428 55.7129 107.724 55.7129 108.089V110.935C55.7129 111.301 56.01 111.597 56.3764 111.597H66.4529C66.8194 111.597 67.1164 111.301 67.1164 110.935V108.089C67.1164 107.724 66.8194 107.428 66.4529 107.428Z" fill="#F6F9FF"/>
</g>
<defs>
<clipPath id="clip0_1815_1195">
<rect width="487" height="296" fill="white"/>
</clipPath>
</defs>
</svg>
