<svg width="18" height="15" viewBox="0 0 18 15" fill="none" xmlns="http://www.w3.org/2000/svg">
<path d="M17.6 3.7103V11.55C17.6 12.2793 17.3103 12.9788 16.7945 13.4945C16.2788 14.0103 15.5793 14.3 14.85 14.3H2.75C2.02065 14.3 1.32118 14.0103 0.805456 13.4945C0.289731 12.9788 0 12.2793 0 11.55V3.7103L8.5206 8.7241C8.60525 8.77402 8.70173 8.80035 8.8 8.80035C8.89827 8.80035 8.99475 8.77402 9.0794 8.7241L17.6 3.7103ZM14.85 3.4048e-08C15.5267 -0.000106388 16.1796 0.249267 16.6839 0.700414C17.1882 1.15156 17.5085 1.77281 17.5835 2.4453L8.8 7.612L0.0165001 2.4453C0.0914741 1.77281 0.411756 1.15156 0.916074 0.700414C1.42039 0.249267 2.07334 -0.000106388 2.75 3.4048e-08H14.85Z" fill="#A654C6"/>
</svg>
