<svg width="428" height="280" viewBox="0 0 428 280" fill="none" xmlns="http://www.w3.org/2000/svg">
<g clip-path="url(#clip0_1811_837)">
<path d="M16.1527 170.908C13.8486 216.886 44.55 240.492 88.8297 246.1C138.502 252.39 189.504 243.905 238.966 239.59C257.598 237.963 276.293 236.743 295.009 236.845C312.646 236.942 331.739 241.802 349.065 239.113C392.374 232.387 414.694 187.637 407.944 148.61C403.76 124.41 388.043 101.282 360.229 102.821C340.687 103.904 323.361 112.395 304.692 116.994C280.108 123.051 253.98 122.073 229.871 114.195C217.83 110.252 206.346 104.659 194.627 99.7623C171.288 90.0219 146.605 82.9948 121.472 82.6075C96.3452 82.2128 70.6541 88.8215 50.3369 104.281C28.9106 120.582 17.4373 145.246 16.1509 170.91L16.1527 170.908Z" stroke="#403E59" stroke-width="4.26" stroke-miterlimit="10"/>
<path d="M399.919 184.778C402.212 230.198 371.671 253.518 327.622 259.058C278.209 265.272 227.474 256.889 178.27 252.626C159.734 251.02 141.138 249.814 122.519 249.915C104.975 250.01 85.9811 254.813 68.7465 252.155C25.6636 245.51 3.46071 201.304 10.174 162.748C13.3114 144.735 20.2367 124.808 35.8048 113.871C51.4643 102.87 69.6784 105.684 86.8435 110.46C118.106 119.159 152.169 135.482 185.294 129.095C204.279 125.433 220.823 114.684 238.852 108.251C256.829 101.838 276.035 97.842 295.146 97.5442C320.141 97.155 345.697 103.683 365.908 118.954C387.223 135.059 398.636 159.423 399.917 184.776L399.919 184.778Z" fill="#2F2D49"/>
<path d="M368.287 222.868C368.287 222.868 351.069 235.009 331.291 224.489L349.79 214.167L368.289 222.868H368.287Z" fill="#6F3428"/>
<path d="M241.521 141.72C241.521 141.72 224.768 173.136 230.013 182.416L249.087 171.827L241.521 141.722V141.72Z" fill="#6F3428"/>
<path d="M234.307 173.613C232.211 172.047 230.192 170.285 228.253 168.369C224.434 164.583 220.921 160.187 217.719 155.497V155.489C215.569 152.341 213.559 149.054 211.697 145.727C206.312 136.128 202.106 126.193 199.112 118.238C195.988 109.939 194.172 103.786 193.689 102.375C193.634 102.211 193.596 102.11 193.572 102.079L202.634 76.0629C207.013 69.0504 209.467 91.809 209.467 91.809C210.675 91.1001 212.141 89.019 213.005 87.8971C213.979 86.6273 214.726 88.6371 214.86 89.3534C215.616 93.5374 212.249 101.493 212.249 101.493L233.856 133.157C235.181 135.097 236.661 136.928 238.267 138.618C239.295 139.709 240.386 140.745 241.523 141.718C243.44 149.86 243.244 165.561 234.307 173.609V173.613Z" fill="#F9B384"/>
<path opacity="0.6" d="M234.308 173.612C232.212 172.047 230.193 170.285 228.254 168.369C235.035 160.6 240.222 147.698 241.523 141.722C242.552 142.813 240.385 140.748 241.523 141.722C243.44 149.864 243.245 165.564 234.308 173.612Z" fill="#E28B6D"/>
<path d="M368.292 222.87C356.488 220.571 347.184 220.719 339.329 222.278C336.476 222.846 333.819 223.595 331.294 224.49L328.917 233.007L324.226 249.843L321.18 260.782L318.407 270.716L316.848 276.318H233.114L246.36 189.958L230.012 182.416C231.064 180.864 232.029 179.043 232.926 177.024C237.889 165.844 240.555 148.897 241.522 141.72C246.197 145.74 251.705 148.747 257.713 150.463C264.843 152.497 273.436 154.258 281.478 154.07C281.759 154.062 282.032 154.053 282.304 154.046C300.903 153.321 309.201 158.97 309.201 158.97C313.409 159.803 324.38 164.018 333.957 168.233C338.179 170.081 342.13 171.935 345.123 173.492C353.165 177.691 359.001 185.156 361.166 193.968L368.289 222.866L368.292 222.87Z" fill="#EE6F57"/>
<path opacity="0.6" d="M339.327 222.278C336.475 222.846 333.818 223.595 331.293 224.491L336.334 206.406L339.326 222.276L339.327 222.278Z" fill="#AE5140"/>
<path opacity="0.3" d="M217.719 155.489C215.568 152.341 213.884 149.498 209.842 142.325C216.182 140.154 219.972 149.498 217.719 155.489Z" fill="#EE6F57"/>
<path opacity="0.6" d="M329.829 229.747L324.229 249.843L321.183 260.782L246.044 266.509L237.504 251.565C292.438 250.434 315.423 242.604 329.829 229.745V229.747Z" fill="#AE5140"/>
<path opacity="0.6" d="M199.111 118.24C195.986 109.941 194.17 103.788 193.688 102.377L207.746 93.6709C208.284 101.595 202.016 112.889 199.111 118.24Z" fill="#E28B6D"/>
<path d="M288.027 173.545C288.848 176.461 290.613 179.008 292.926 180.848C295.249 182.684 298.046 183.892 300.964 184.413C303.882 184.942 306.921 184.804 309.799 184.034C311.241 183.656 312.642 183.104 313.965 182.395C315.306 181.714 316.554 180.852 317.746 179.9L318.162 180.344C317.088 181.491 315.844 182.481 314.51 183.34C313.157 184.171 311.703 184.846 310.185 185.341C307.142 186.324 303.844 186.521 300.686 185.94C297.538 185.354 294.49 184.002 292.078 181.856C290.878 180.789 289.823 179.547 289.021 178.158C288.237 176.762 287.669 175.242 287.432 173.678L288.027 173.549V173.545Z" fill="#AE5140"/>
<path d="M322.177 143.779L319.848 161.988C318.983 168.791 313.092 173.839 306.235 173.653C298.887 173.457 293.223 167.42 293.223 160.322C293.223 159.628 293.277 158.919 293.387 158.21L293.807 155.546L295.452 145.161L304.709 144.686L322.179 143.781L322.177 143.779Z" fill="#F9B384"/>
<path d="M289.758 113.78C290.017 111.096 291.273 107.897 292.703 104.995C295.439 99.45 300.734 95.6002 306.854 94.7177C316.048 93.3931 327.935 94.6848 334.408 103.513C341.706 113.468 335.642 133.37 327.818 135.068C319.993 136.765 289.758 113.78 289.758 113.78Z" fill="#102048"/>
<path d="M313.724 148.455C310.599 151.415 303.4 158.342 293.387 158.21L295.452 145.159L304.708 144.684L313.724 148.455Z" fill="#E28B6D"/>
<path d="M327.049 118.474L325.655 125.727L325.311 127.503L323.939 134.64L323.151 138.731L322.177 143.779L317.416 146.639C317.416 146.639 316.115 147.512 313.723 148.455C313.723 148.455 313.723 148.462 313.715 148.462C310.108 149.896 304.022 151.486 296.214 150.457C295.67 150.388 295.154 150.262 294.672 150.092C290.994 148.837 289.108 144.965 288.282 140.142C287.674 136.597 287.628 132.537 287.853 128.618C288.203 122.47 289.225 116.665 289.753 113.784C297.943 106.468 309.124 105.136 317.414 103.515L327.045 118.476L327.049 118.474Z" fill="#F9B384"/>
<path d="M289.758 113.78C302.803 103.514 320.375 113.914 320.375 113.914C320.375 113.914 317.687 130.084 322.882 128.75C328.077 127.414 333.349 116.605 333.349 116.605L321.459 99.4629L295.448 103.943L289.758 113.78Z" fill="#102048"/>
<path d="M322.211 129.281C324.767 124.794 329.743 123.354 332.416 126.758C335.091 130.162 335.194 140.873 322.041 138.56L322.211 129.281Z" fill="#F9B384"/>
<path d="M300.341 125.736C299.495 128.024 298.185 130.061 297.33 132.206C297.231 132.466 297.105 132.764 297.043 132.992C296.974 133.219 296.937 133.44 296.976 133.608C296.981 133.789 297.085 133.915 297.211 134.064C297.369 134.194 297.564 134.326 297.811 134.419C298.792 134.795 300.007 134.889 301.189 135.005L301.2 135.462C300.002 135.619 298.77 135.764 297.465 135.385C297.138 135.3 296.806 135.128 296.495 134.889C296.201 134.627 295.912 134.249 295.856 133.823C295.766 133.405 295.837 133.014 295.93 132.67C296.026 132.323 296.13 132.066 296.252 131.77C297.211 129.467 298.637 127.529 299.932 125.534L300.341 125.738V125.736Z" fill="#E28B6D"/>
<path d="M309.086 126.219C308.767 127.297 307.888 127.989 307.122 127.763C306.356 127.536 305.995 126.478 306.313 125.398C306.632 124.32 307.511 123.628 308.277 123.854C309.043 124.081 309.404 125.139 309.086 126.219Z" fill="#102048"/>
<path d="M295.235 125.563C295.554 124.484 295.192 123.426 294.427 123.2C293.661 122.973 292.782 123.664 292.463 124.743C292.144 125.822 292.505 126.88 293.271 127.107C294.036 127.333 294.915 126.642 295.235 125.563Z" fill="#102048"/>
<path d="M304.215 122.057C304.873 121.432 305.651 120.913 306.53 120.566C307.405 120.215 308.394 120.067 309.364 120.186C310.336 120.301 311.257 120.692 312.021 121.246C312.788 121.797 313.415 122.494 313.897 123.263L313.554 123.564C312.861 123.023 312.187 122.51 311.469 122.112C310.753 121.715 309.998 121.441 309.22 121.341C308.441 121.235 307.639 121.311 306.844 121.514C306.048 121.721 305.267 122.061 304.476 122.433L304.217 122.057H304.215Z" fill="#102048"/>
<path d="M297.347 122.119C296.711 121.105 295.672 120.621 294.606 120.624C294.075 120.624 293.543 120.75 293.03 120.975C292.516 121.202 292.03 121.525 291.518 121.896L291.162 121.611C291.465 121.006 291.935 120.465 292.538 120.074C293.136 119.681 293.868 119.453 294.61 119.462C295.35 119.469 296.098 119.702 296.686 120.158C297.276 120.602 297.702 121.275 297.78 121.978L297.346 122.121L297.347 122.119Z" fill="#102048"/>
<path d="M295.373 138.83L303.853 139.009C303.853 139.009 299.152 145.385 295.7 139.451L295.375 138.83H295.373Z" fill="white"/>
<path d="M324.242 132.703C324.248 131.972 324.377 131.236 324.639 130.527C324.898 129.818 325.309 129.131 325.921 128.587C326.526 128.042 327.378 127.697 328.211 127.737C329.046 127.764 329.786 128.139 330.342 128.631L330.113 129.025C329.452 128.826 328.816 128.691 328.233 128.764C327.654 128.833 327.137 129.076 326.689 129.462C326.236 129.846 325.867 130.372 325.547 130.942C325.229 131.517 324.969 132.142 324.692 132.791L324.242 132.705V132.703Z" fill="#E28B6D"/>
<path opacity="0.3" d="M313.674 141.218C316.973 141.218 319.648 138.544 319.648 135.245C319.648 131.946 316.973 129.272 313.674 129.272C310.376 129.272 307.701 131.946 307.701 135.245C307.701 138.544 310.376 141.218 313.674 141.218Z" fill="#EE6F57"/>
<path opacity="0.3" d="M292.476 134.437C292.476 137.11 290.707 139.378 288.284 140.141C287.675 136.597 287.63 132.537 287.855 128.618C290.504 129.233 292.476 131.601 292.476 134.437Z" fill="#EE6F57"/>
<path d="M172.291 109.585C172.291 109.585 189.297 117.909 186.145 131.719L174.897 134.867L172.291 109.583V109.585Z" fill="#102048"/>
<path d="M172.291 109.585C174.116 107.787 183.476 97.4474 183.149 84.5223C182.9 74.7217 187.247 79.1488 187.806 85.911C187.806 85.911 190.196 72.0797 196.785 73.4811L194.848 76.1322C194.848 76.1322 197.346 71.4475 199.364 72.7009C201.379 73.9543 199.554 77.9612 199.554 77.9612C199.554 77.9612 200.495 74.486 202.223 74.2211C203.952 73.9561 205.538 79.4009 201.671 93.6068C201.671 93.6068 205.861 89.4537 207.515 88.7521C209.17 88.0505 209.059 98.92 197.317 110.487C185.577 122.055 177.27 131.002 177.27 131.002L172.291 109.581V109.585Z" fill="#F9B384"/>
<path d="M103.766 166.249C104.179 166.887 172.291 109.585 172.291 109.585L186.145 131.719L116.622 213.583L103.766 166.249Z" fill="#708CD5"/>
<path d="M196.907 73.5759C196.095 74.8275 195.344 76.1284 194.654 77.4494C193.974 78.7777 193.329 80.1243 192.792 81.5129C192.222 82.8887 191.765 84.3065 191.383 85.7445L191.103 86.8261L190.888 87.9206C190.703 88.6478 190.665 89.3932 190.526 90.1314L190.223 90.1149C190.241 88.5984 190.382 87.071 190.721 85.5855C191.058 84.1001 191.5 82.6347 192.075 81.226C192.662 79.8228 193.305 78.4415 194.078 77.1315C194.846 75.8196 195.684 74.5552 196.667 73.3877L196.909 73.5741L196.907 73.5759Z" fill="#E28B6D"/>
<path d="M199.701 78.003C199.474 79.2381 199.207 80.4641 198.935 81.6865C198.67 82.9125 198.356 84.1238 198.076 85.3462L197.148 88.9876C196.821 90.1972 196.497 91.4067 196.134 92.609L195.836 92.545C195.999 91.2953 196.236 90.062 196.485 88.8305C196.744 87.6027 197.029 86.3803 197.325 85.1616C197.645 83.9484 197.943 82.7298 198.295 81.5257C198.641 80.3198 198.997 79.1157 199.405 77.9263L199.699 78.003H199.701Z" fill="#E28B6D"/>
<path d="M203.833 74.7856C204.277 79.0465 204.084 83.3457 203.455 87.5846C203.281 88.6425 203.099 89.7004 202.845 90.7437C202.724 91.2662 202.594 91.787 202.444 92.304L202.337 92.6932L202.287 92.8741C202.295 92.8576 202.291 92.812 202.273 92.7846C202.249 92.7279 202.147 92.7115 202.095 92.7498L202.37 92.5087C203.168 91.8016 203.974 91.1018 204.791 90.413L206.03 89.3916C206.249 89.218 206.43 89.07 206.689 88.8818C207.055 88.6315 207.583 88.6754 207.904 88.986C208.069 89.1212 208.175 89.3898 208.195 89.5341L208.273 89.9489C208.303 90.2266 208.35 90.5043 208.354 90.7802C208.37 91.0579 208.379 91.3338 208.363 91.6097C208.357 91.8856 208.346 92.1615 208.31 92.4319C208.213 93.5264 207.954 94.5916 207.627 95.6239C206.956 97.6885 205.986 99.6289 204.855 101.454C203.716 103.278 202.419 104.986 201.059 106.638C200.372 107.456 199.638 108.235 198.931 109.035L196.696 111.328L196.479 111.114L198.616 108.752C199.291 107.931 199.989 107.133 200.639 106.296C201.951 104.633 203.197 102.918 204.277 101.105C205.339 99.2854 206.296 97.3999 206.919 95.4046C207.228 94.4089 207.468 93.3912 207.55 92.3625C207.583 92.1067 207.59 91.8491 207.594 91.5933C207.608 91.3357 207.597 91.0817 207.581 90.8277C207.577 90.5719 207.53 90.3234 207.504 90.0713L207.433 89.7022C207.409 89.5835 207.405 89.5962 207.369 89.5506C207.307 89.4884 207.188 89.472 207.109 89.5268L206.505 89.9909L205.273 90.9922C204.458 91.67 203.652 92.3625 202.852 93.0605L202.523 93.3437C202.258 93.5574 201.81 93.4606 201.651 93.1701C201.562 93.0294 201.542 92.8412 201.582 92.6969L201.639 92.4922L201.746 92.1122C201.896 91.6079 202.028 91.0963 202.15 90.5829C202.402 89.5579 202.609 88.5219 202.799 87.4823C203.157 85.3975 203.387 83.289 203.515 81.1751C203.643 79.0611 203.691 76.9325 203.53 74.8222L203.833 74.7911V74.7856Z" fill="#E28B6D"/>
<path d="M76.2601 216.008C76.2601 216.008 52.727 206.726 43.1175 224.484C31.0339 246.813 49.1913 273.05 49.1913 273.05H81.1316L76.2601 216.008Z" fill="#FBC343"/>
<path d="M53.2217 223.329C52.6223 223.95 52.1107 224.651 51.6502 225.382C51.1861 226.111 50.8042 226.892 50.4552 227.684C49.7663 229.274 49.2401 230.935 48.8746 232.632C48.1401 236.025 47.9062 239.521 48.0688 242.992C48.2205 246.467 48.8034 249.915 49.6713 253.288C50.5575 256.659 51.7873 259.937 53.2491 263.114L52.9768 263.251C52.5785 262.467 52.1564 261.693 51.8001 260.889C51.6173 260.489 51.42 260.094 51.2519 259.686L50.7348 258.47C50.0879 256.831 49.505 255.164 49.0135 253.467C48.0579 250.068 47.4439 246.564 47.2922 243.027C47.1388 239.495 47.3927 235.928 48.2314 232.482C48.6462 230.761 49.2163 229.071 49.9728 227.465C50.3602 226.667 50.7841 225.883 51.2903 225.15C51.7891 224.414 52.3519 223.718 53.006 223.109L53.218 223.329H53.2217Z" fill="#102048"/>
<path d="M136.962 138.132C144.679 142.84 150.014 140.041 151.573 134.958C153.132 129.875 158.829 110.729 135.014 113.815C135.014 113.815 105.831 102.048 93.4811 119.408C82.5871 134.721 92.5821 145.307 75.9359 158.006C64.3292 166.86 51.1694 182.416 77.2716 209.019L105.583 201.22L136.962 138.132Z" fill="#AE5140"/>
<path d="M128.17 160.335C128.747 163.03 134.991 170.006 137.49 172.622C145.044 180.534 146.713 195.374 125.173 199.91L113.055 171.685L128.17 160.337V160.335Z" fill="#6F3428"/>
<path d="M129.245 163.863L126.698 175.59L122.738 193.837L100.648 189.171L105.845 153.385L128.371 163.474L129.245 163.863Z" fill="#F9B384"/>
<path d="M142.836 140.681C142.836 140.681 149.211 147.828 148.986 149.646C148.762 151.466 142.836 154.726 142.836 154.726V140.681Z" fill="#E28B6D"/>
<path d="M129.245 163.863L126.698 175.59C119.905 171.974 114.947 163.03 114.947 163.03L128.372 163.474L129.245 163.863Z" fill="#E28B6D"/>
<path d="M144.331 156.946C143.435 163.741 141.175 168.961 136.344 169.427C122.988 170.72 103.766 155.76 103.766 155.76L104.802 128.366L119.326 119.406L142.836 123.769C143.117 126.862 144.557 136.321 144.791 145.835C144.884 149.668 144.784 153.509 144.331 156.946Z" fill="#F9B384"/>
<path d="M146.527 128.366L143.629 130.597C128.52 118.809 131.652 135.792 130.25 141.229C128.847 146.667 121.686 145.234 116.1 141.721L115.102 149.332L98.3099 149.862L97.3359 128.584L114.081 115.494L145.078 121.54L146.527 128.366Z" fill="#AE5140"/>
<path d="M124.836 207.376C133.084 202.953 130.745 191.403 127.535 187.451C124.324 183.499 110.68 176.869 109.027 164.424C108.106 157.503 115.104 149.332 115.104 149.332L100.91 141.717L86.3652 164.583L97.3397 203.853L124.838 207.374L124.836 207.376Z" fill="#AE5140"/>
<path d="M135.112 270.755L65.8797 270.802C62.8556 226.477 73.905 203.811 83.4579 192.679C89.4732 185.673 98.5582 182.207 107.722 183.329C115.692 184.31 122.612 188.098 129.625 204.601L96.8516 219.841L117.891 256.882C120.003 260.605 123.065 263.708 126.758 265.873L135.111 270.759L135.112 270.755Z" fill="#708CD5"/>
<path d="M96.8535 219.837C96.8535 219.837 107.156 261.066 110.973 266.492C114.947 272.142 123.48 270.722 138.354 270.755C184.412 270.854 138.354 270.755 138.354 270.755L119.564 228.899L96.8535 219.839" fill="#1F3C88"/>
<path d="M180.901 259.548L177.925 270.503L138.354 270.755H135.112L126.76 265.869C123.067 263.703 120.005 260.602 117.892 256.878L96.8535 219.837L129.627 204.597C133.148 212.863 136.686 224.334 140.388 240.228C140.887 242.371 142.374 244.162 144.393 245.042L180.901 259.548Z" fill="#708CD5"/>
<path d="M119.564 144.733C118.375 138.132 110.541 137.259 109.178 141.719C107.815 146.179 108.148 153.842 117.986 153.389L119.564 144.735V144.733Z" fill="#F9B384"/>
<path d="M116.422 145.252L115.196 143.852C114.788 143.416 114.366 142.997 113.927 142.747C113.48 142.497 113.125 142.425 112.714 142.645C112.292 142.859 111.888 143.315 111.47 143.783L111.061 143.578C111.234 142.937 111.519 142.276 112.159 141.781C112.466 141.523 112.919 141.386 113.354 141.38C113.792 141.402 114.196 141.541 114.516 141.744C115.168 142.146 115.618 142.683 115.983 143.242C116.347 143.805 116.63 144.402 116.82 145.031L116.42 145.252H116.422Z" fill="#E28B6D"/>
<path opacity="0.2" d="M143.984 159.12C143.649 159.19 137.367 157.388 137.367 151.472C137.367 148.316 140.13 145.625 143.286 145.625C143.808 145.625 144.314 145.694 144.789 145.835C144.883 149.668 144.802 155.411 143.984 159.12Z" fill="#EE6F57"/>
<path d="M258.108 271.177H175.752L191.309 204.175H273.667L258.108 271.177Z" fill="#1F3C88"/>
<path opacity="0.6" d="M258.108 271.177L273.665 204.173C250.124 258.643 215.145 264.68 175.75 271.177" fill="#102048"/>
<path d="M229.266 239.587C230.52 236.598 229.496 233.318 226.98 232.263C224.464 231.208 221.407 232.776 220.153 235.766C218.899 238.756 219.923 242.036 222.439 243.091C224.956 244.146 228.012 242.577 229.266 239.587Z" fill="white"/>
<path d="M360.186 221.624L359.938 228.433L358.816 258.952V258.99C358.723 261.296 358.114 263.525 357.078 265.535C356.042 267.53 354.562 269.306 352.722 270.717H318.406L246.736 270.958C245.459 270.958 244.149 267.981 246.042 266.509C250.226 263.236 256.779 259.637 261.338 256.723C263.854 255.119 266.854 254.417 269.816 254.799C274.748 255.429 281.863 257.93 290.714 255.321C292.249 254.87 293.808 254.519 295.381 254.278L324.228 249.845L335.581 248.101L335.9 228.872L336.001 223.053C337.085 222.764 338.19 222.508 339.328 222.282C345.289 221.098 352.092 220.73 360.188 221.627L360.186 221.624Z" fill="#F9B384"/>
<path opacity="0.6" d="M360.185 221.624L359.937 228.433C355.745 226.961 339.552 222.356 336 223.049C337.084 222.76 338.189 222.504 339.327 222.278C345.288 221.094 352.091 220.726 360.187 221.624H360.185Z" fill="#E28B6D"/>
<path opacity="0.3" d="M358.815 258.953V258.992C358.722 261.297 358.113 263.527 357.077 265.536C356.041 267.532 354.561 269.307 352.721 270.718H342.295C344.119 260.691 351.716 257.574 358.813 258.953H358.815Z" fill="#EE6F57"/>
<path d="M331.221 248.541C332.439 248.049 333.718 247.633 335.045 247.479C336.364 247.273 337.715 247.282 339.043 247.424C340.373 247.563 341.685 247.876 342.931 248.343C344.183 248.804 345.367 249.421 346.434 250.244L346.182 250.624C345.036 250.088 343.821 249.668 342.612 249.317C341.397 248.97 340.159 248.714 338.911 248.577C337.663 248.429 336.403 248.382 335.144 248.468C333.879 248.517 332.631 248.744 331.359 248.972L331.219 248.537L331.221 248.541Z" fill="#E28B6D"/>
<path d="M416.571 270.786H0.666016V280.002H416.571V270.786Z" fill="#5D5989"/>
<path d="M0.666016 270.801H416.57" stroke="#484472" stroke-width="6" stroke-miterlimit="10"/>
<path d="M62.9062 108.366C59.714 91.1438 43.1646 79.77 25.941 82.962C8.71915 86.154 -2.65547 102.704 0.536734 119.925C3.72894 137.147 20.2783 148.521 37.502 145.329C41.8124 144.53 45.7556 142.895 49.1963 140.622L60.169 145.405L54.89 135.804C61.5211 128.7 64.8157 118.657 62.908 108.368L62.9062 108.366Z" fill="#C6EAE9"/>
<path d="M19.8491 125.216V115.567L19.2863 115.847C18.7089 116.133 18.0821 116.278 17.4261 116.278C15.1001 116.278 13.207 114.385 13.207 112.059C13.207 109.733 15.1001 107.835 17.4261 107.835C18.0785 107.835 18.7052 107.979 19.2881 108.262L19.8491 108.536V98.8965H28.2069C28.0753 99.3441 28.0096 99.81 28.0096 100.285C28.0096 103.044 30.2534 105.288 33.0126 105.288C35.7717 105.288 38.0156 103.044 38.0156 100.285C38.0156 99.81 37.9498 99.3441 37.8182 98.8965H46.1761V107.33C45.6553 107.148 45.1053 107.056 44.5334 107.056C41.7742 107.056 39.5304 109.3 39.5304 112.059C39.5304 114.818 41.7742 117.058 44.5334 117.058C45.0925 117.058 45.6516 116.961 46.1761 116.778V125.218H19.8491V125.216Z" fill="white"/>
<path d="M45.7877 99.2857V106.81C45.382 106.713 44.9636 106.665 44.5342 106.665C41.5594 106.665 39.1401 109.084 39.1401 112.059C39.1401 115.034 41.5594 117.447 44.5342 117.447C44.9562 117.447 45.3783 117.396 45.7877 117.297V124.827H20.2409V114.94L19.1153 115.498C18.5909 115.757 18.0244 115.889 17.4288 115.889C15.3165 115.889 13.5988 114.171 13.5988 112.059C13.5988 109.947 15.3165 108.224 17.4288 108.224C18.0226 108.224 18.5909 108.355 19.1208 108.613L20.2409 109.159V99.2857H27.7143C27.6522 99.6127 27.6211 99.9471 27.6211 100.285C27.6211 103.26 30.0404 105.679 33.0152 105.679C35.9899 105.679 38.4092 103.26 38.4092 100.285C38.4092 99.9471 38.3782 99.6127 38.316 99.2857H45.7895H45.7877ZM46.5679 98.5073H37.269C37.5029 99.0555 37.629 99.6566 37.629 100.285C37.629 102.83 35.5605 104.899 33.0152 104.899C30.4698 104.899 28.4014 102.83 28.4014 100.285C28.4014 99.6547 28.5293 99.0555 28.7614 98.5073H19.4625V107.913C18.8467 107.614 18.1615 107.446 17.4306 107.446C14.8852 107.446 12.8223 109.508 12.8223 112.059C12.8223 114.61 14.8852 116.667 17.4306 116.667C18.1615 116.667 18.8485 116.499 19.4625 116.194V125.605H46.5661V116.19C45.9558 116.495 45.2651 116.667 44.5342 116.667C41.9833 116.667 39.9204 114.604 39.9204 112.059C39.9204 109.514 41.9833 107.446 44.5342 107.446C45.2651 107.446 45.9576 107.614 46.5661 107.919V98.5073H46.5679Z" fill="#8CBFBE"/>
<path d="M364.625 108.75C365.681 91.2664 380.712 77.9504 398.195 79.0065C415.68 80.0625 428.997 95.0924 427.941 112.574C426.885 130.058 411.854 143.374 394.371 142.318C389.995 142.053 385.881 140.915 382.187 139.08L371.885 145.172L375.947 134.997C368.495 128.759 363.995 119.194 364.625 108.75Z" fill="#D3DFFF"/>
<path d="M401.68 124.036C400.856 122.309 399.116 121.206 397.185 121.206C395.253 121.206 393.519 122.309 392.699 124.036H384.003V114.394L383.475 114.659C382.892 114.95 382.264 115.098 381.606 115.098C379.263 115.098 377.357 113.194 377.357 110.855C377.357 108.516 379.263 106.607 381.606 106.607C382.271 106.607 382.899 106.753 383.475 107.042L384.003 107.307V97.6705H393.351L393.181 97.1845C393.022 96.7332 392.942 96.2618 392.942 95.7812C392.942 93.4389 394.846 91.5332 397.185 91.5332C399.524 91.5332 401.433 93.4389 401.433 95.7812C401.433 96.2618 401.353 96.7332 401.194 97.1845L401.022 97.6705H410.37V124.038H401.678L401.68 124.036Z" fill="white"/>
<path d="M397.185 91.8951C399.327 91.8951 401.068 93.6364 401.068 95.7778C401.068 96.2163 400.995 96.6475 400.851 97.0604L400.509 98.0324H410.007V123.669H401.905C400.982 121.935 399.18 120.838 397.185 120.838C395.19 120.838 393.392 121.935 392.474 123.669H384.369V113.802L383.311 114.33C382.779 114.595 382.205 114.73 381.604 114.73C379.463 114.73 377.721 112.991 377.721 110.853C377.721 108.716 379.463 106.971 381.604 106.971C382.211 106.971 382.785 107.104 383.311 107.365L384.369 107.893V98.0306H393.867L393.525 97.0568C393.381 96.6456 393.308 96.2126 393.308 95.7741C393.308 93.6327 395.047 91.8915 397.185 91.8915V91.8951ZM397.185 91.1606C394.64 91.1606 392.577 93.2289 392.577 95.7741C392.577 96.3076 392.668 96.8211 392.836 97.2979H383.638V106.709C383.028 106.404 382.337 106.236 381.606 106.236C379.055 106.236 376.992 108.299 376.992 110.85C376.992 113.4 379.055 115.458 381.606 115.458C382.337 115.458 383.029 115.284 383.638 114.981V124.396H392.937C393.627 122.735 395.27 121.566 397.185 121.566C399.1 121.566 400.748 122.735 401.444 124.396H410.74V97.2979H401.541C401.709 96.8211 401.801 96.3076 401.801 95.7741C401.801 93.2289 399.738 91.1606 397.187 91.1606H397.185Z" fill="#708CD5"/>
<path opacity="0.8" d="M215.593 35.6966C215.593 43.6938 210.124 51.2636 202.868 53.5201H193.054C185.5 51.4518 179.945 43.9076 179.945 35.6966C179.945 25.8539 187.925 17.873 197.77 17.873C207.615 17.873 215.595 25.8521 215.595 35.6966H215.593Z" fill="#FBC343"/>
<path d="M197.768 0V13.3069" stroke="#FBC343" stroke-width="8.53" stroke-miterlimit="10"/>
<path d="M185.284 17.0874L173.619 8.37939" stroke="#FBC343" stroke-width="8.53" stroke-miterlimit="10"/>
<path d="M210.254 17.0874L221.919 8.37939" stroke="#FBC343" stroke-width="8.53" stroke-miterlimit="10"/>
<path d="M191.418 14.6226L188.984 8.37939" stroke="#FBC343" stroke-width="8.53" stroke-miterlimit="10"/>
<path d="M204.119 14.6226L206.551 8.37939" stroke="#FBC343" stroke-width="8.53" stroke-miterlimit="10"/>
<path d="M209.167 37.9547C209.167 31.9161 203.753 27.056 197.199 27.3538C191.384 27.6187 186.628 32.0824 186.383 37.4998C186.248 40.5218 187.47 43.2735 189.53 45.2778C191.713 47.4028 193.054 50.1562 193.054 53.096V53.5181H202.869V52.6429C202.869 49.8328 204.115 47.1926 206.16 45.1262C208.025 43.2388 209.167 40.7228 209.167 37.9547Z" fill="#FBC343"/>
<path d="M192.863 57.0845H202.677V57.3275C202.677 60.0353 200.479 62.2351 197.769 62.2351C195.061 62.2351 192.861 60.0371 192.861 57.3275V57.0845H192.863Z" fill="#FBC343"/>
<path opacity="0.8" d="M194.113 39.0873C195.602 39.0873 196.808 37.8807 196.808 36.3923C196.808 34.9039 195.602 33.6973 194.113 33.6973C192.625 33.6973 191.418 34.9039 191.418 36.3923C191.418 37.8807 192.625 39.0873 194.113 39.0873Z" fill="white"/>
<path d="M296.196 65.0159V58.981H293.317C292.944 57.2836 292.264 55.7013 291.336 54.2944L293.399 52.2316L289.132 47.9653L287.018 50.0793C285.617 49.2041 284.052 48.5682 282.381 48.2302V45.168H276.345V48.3344C274.735 48.7162 273.233 49.3758 271.89 50.2601L269.593 47.9635L265.327 52.2298L267.675 54.5776C266.842 55.9132 266.226 57.3969 265.877 58.981H262.529V65.0159H265.877C266.226 66.6 266.84 68.0837 267.675 69.4193L265.327 71.7671L269.593 76.0334L271.89 73.7368C273.233 74.6211 274.735 75.2807 276.345 75.6625V78.8289H282.381V75.7667C284.052 75.4287 285.617 74.7928 287.018 73.9176L289.132 76.0316L293.399 71.7653L291.336 69.7025C292.262 68.2956 292.944 66.7115 293.317 65.0159H296.196Z" fill="#F0F0F0"/>
<path d="M286.025 68.6581C289.703 64.9799 289.703 59.0162 286.025 55.338C282.346 51.6597 276.382 51.6597 272.704 55.338C269.025 59.0162 269.025 64.9799 272.704 68.6581C276.382 72.3364 282.346 72.3364 286.025 68.6581Z" fill="white"/>
<path d="M326.858 55.493L328.214 51.3382L326.231 50.6914C326.356 49.4398 326.244 48.1974 325.921 47.0189L327.805 46.0615L325.826 42.1642L323.894 43.1454C323.127 42.2282 322.193 41.4389 321.117 40.8304L321.806 38.7219L317.651 37.3662L316.938 39.546C315.745 39.4473 314.561 39.5642 313.439 39.8712L312.374 37.7737L308.476 39.7524L309.565 41.8975C308.69 42.6283 307.933 43.5126 307.338 44.5249L305.034 43.7721L303.678 47.9269L305.982 48.6797C305.865 49.8491 305.956 51.0093 306.23 52.1147L304.085 53.2037L306.064 57.1009L308.162 56.0357C308.887 56.9456 309.773 57.7367 310.795 58.3634L310.082 60.5432L314.237 61.8989L314.926 59.7904C316.152 59.9329 317.373 59.847 318.535 59.5584L319.516 61.4896L323.414 59.5109L322.456 57.6271C323.41 56.867 324.234 55.9297 324.874 54.8444L326.856 55.4912L326.858 55.493Z" fill="#F0F0F0"/>
<path d="M322.221 52.3439C323.714 48.8855 322.12 44.8715 318.662 43.3785C315.203 41.8855 311.189 43.4788 309.696 46.9372C308.203 50.3956 309.796 54.4095 313.255 55.9026C316.713 57.3956 320.728 55.8023 322.221 52.3439Z" fill="white"/>
<path d="M134.362 67.6505L137.404 63.4956L135.422 62.0431C136.021 60.6855 136.35 59.2531 136.421 57.8169L138.882 57.4369L138.097 52.3466L135.575 52.7357C135.052 51.4275 134.296 50.1997 133.315 49.1254L134.859 47.0169L130.704 43.9747L129.107 46.1563C127.806 45.6082 126.439 45.3049 125.068 45.2373L124.644 42.4966L119.554 43.2822L119.987 46.0832C118.739 46.582 117.567 47.2928 116.528 48.2081L114.224 46.5199L111.181 50.6748L113.485 52.363C112.926 53.6292 112.601 54.9612 112.502 56.3004L109.701 56.7335L110.487 61.8238L113.228 61.3999C113.706 62.6862 114.408 63.8976 115.324 64.9719L113.727 67.1535L117.882 70.1957L119.426 68.0872C120.747 68.6974 122.145 69.0482 123.552 69.1524L123.941 71.6738L129.032 70.8881L128.652 68.427C130 67.9246 131.266 67.1791 132.379 66.1979L134.362 67.6505Z" fill="#F0F0F0"/>
<path d="M132.333 57.4577C132.536 53.0234 129.105 49.2641 124.671 49.0612C120.236 48.8583 116.477 52.2885 116.274 56.7229C116.071 61.1572 119.501 64.9164 123.936 65.1194C128.371 65.3223 132.13 61.892 132.333 57.4577Z" fill="white"/>
<path d="M97.1437 58.5826L100.173 56.4065L99.1335 54.9613C99.8517 54.161 100.4 53.2493 100.773 52.2773L102.552 52.5678L103.155 48.8861L101.332 48.5883C101.266 47.5688 101.021 46.5547 100.588 45.5937L102.125 44.4901L99.9485 41.4607L98.3588 42.6027C97.5859 41.934 96.7143 41.4169 95.786 41.0624L96.1113 39.08L92.4294 38.4771L92.0986 40.5033C91.1284 40.5654 90.1599 40.792 89.2408 41.1885L88.033 39.5094L85.0034 41.6855L86.2112 43.3646C85.5425 44.11 85.018 44.9542 84.6489 45.8549L82.6225 45.5242L82.0195 49.2059L84.0021 49.5311C84.0423 50.5232 84.2543 51.5154 84.6416 52.4618L83.0519 53.6037L85.2282 56.6331L86.7649 55.5295C87.5378 56.2476 88.4204 56.803 89.3651 57.1904L89.0672 59.0138L92.7491 59.6168L93.0397 57.8372C94.0812 57.7951 95.1209 57.5649 96.1076 57.141L97.1473 58.5863L97.1437 58.5826Z" fill="#F0F0F0"/>
<path d="M93.9544 54.7123C97.0791 53.9552 98.9985 50.8085 98.2414 47.684C97.4843 44.5594 94.3374 42.6402 91.2126 43.3973C88.0878 44.1543 86.1685 47.301 86.9256 50.4256C87.6827 53.5501 90.8296 55.4693 93.9544 54.7123Z" fill="white"/>
</g>
<defs>
<clipPath id="clip0_1811_837">
<rect width="428" height="280" fill="white"/>
</clipPath>
</defs>
</svg>
