<svg width="466" height="346" viewBox="0 0 466 346" fill="none" xmlns="http://www.w3.org/2000/svg">
<g clip-path="url(#clip0_1355_991)">
<path d="M262.51 137.269C261.862 135.023 261.22 132.777 260.553 130.535C261.578 130.261 262.603 129.986 263.628 129.716C264.448 131.163 265.272 132.61 266.091 134.052C265.86 133.645 267.759 132.801 268.205 133.144C268.74 133.556 267.523 134.827 267.567 135.572C267.626 136.582 268.489 138.265 267.67 139.192C267.175 139.751 265.743 140.04 265.051 140.359C264.207 139.324 263.393 138.26 262.5 137.264L262.51 137.269Z" fill="#EFBFA5"/>
<path d="M305.401 173.63C307.696 172.272 309.86 170.737 311.748 168.902C312.911 167.774 313.98 166.504 314.529 165.013C316.801 158.838 313.328 149.52 305.886 150.859C302.708 151.433 299.72 153.051 297.508 155.405C295.992 157.019 294.746 159.03 292.726 159.942C288.272 161.953 283.067 153.777 280.404 151.291C279.241 150.207 266.84 139.177 268.935 137.617C267.65 138.574 264.658 138.917 263.765 140.148C262.887 141.354 263.868 142.448 264.501 143.988C267.586 151.497 270.858 158.162 276.568 164.228C281.654 169.638 287.796 174.16 294.599 177.456C295.114 177.706 295.654 177.956 296.233 177.966C296.861 177.975 297.454 177.706 298.018 177.441C300.52 176.259 303.031 175.038 305.401 173.63Z" fill="#D34E4E"/>
<path d="M324.684 323.822L324.704 331.459L320.27 331.473L320.25 323.003L324.684 323.822Z" fill="#EFBFA5"/>
<path d="M303.627 321.365L304.775 329.585L300.007 330.252L298.736 321.14L303.627 321.365Z" fill="#EFBFA5"/>
<path d="M299.943 330.252L304.304 329.585L306.026 330.237L307.286 333.239L297.603 339.247C296.117 338.418 295.813 336.412 296.985 335.176L297.373 334.769L299.943 330.252Z" fill="#FEA200"/>
<path d="M320.27 331.473L324.704 331.463L326.259 333.504L325.95 336.741L314.575 337.447L314.246 336.706C313.604 335.254 314.536 333.592 316.11 333.386L316.361 333.352L320.27 331.468V331.473Z" fill="#FEA200"/>
<path d="M338.203 250.345L330.301 286.441L325.484 327.299L318.155 327.314L312.348 224.969L336.903 225.366L338.203 250.345Z" fill="#E5E5E5"/>
<path d="M291.192 248.251L290.24 283.273L296.651 324.622L306.035 324.568L307.953 280.708L314.698 248.913L316.935 228.103L296.49 225.7L291.192 248.251Z" fill="#E5E5E5"/>
<path d="M305.75 151.33C306.638 150.683 307.634 150.143 308.752 149.721C310.685 148.995 312.809 148.976 314.874 149.044C319.617 149.197 324.709 149.903 328.177 153.145C334.716 159.26 333.994 172.948 335.226 181.413C336.182 188.015 337.144 194.616 338.1 201.217L340.744 232.949L303.832 233.518L291.682 231.576C291.682 231.576 294.806 198.265 294.806 198.26C295.488 190.972 296.582 183.704 297.47 176.436C298.431 168.569 298.569 156.563 305.75 151.335V151.33Z" fill="#D34E4E"/>
<path d="M308.508 124.027C310.342 122.178 312.937 121.114 315.542 121.139C324.572 121.232 325.264 130.02 323.581 136.857C322.841 139.868 321.354 142.826 318.838 144.64C318.156 145.136 317.386 145.518 316.582 145.793C316.95 147.034 316.704 148.647 316.783 149.932C316.832 150.712 317.062 151.384 316.567 152.012C315.949 152.796 314.58 152.89 313.673 152.865C312.947 152.845 312.191 152.747 311.583 152.345C310.587 151.683 310.828 150.776 310.867 149.78C310.926 148.348 310.744 146.921 310.872 145.489C310.622 145.356 310.372 145.214 310.141 145.043C307.723 143.287 306.938 140.079 306.487 137.122C305.898 133.287 305.545 127.019 308.508 124.032V124.027Z" fill="#EFBFA5"/>
<path d="M307.885 132.443C307.596 132.786 307.1 132.87 306.752 133.149C305.575 134.071 306.718 136.107 306.002 137.421C305.089 139.108 305.251 142.066 307.007 143.468C307.601 143.944 308.405 144.277 308.65 144.998C308.94 145.837 308.356 146.921 308.955 147.578C308.003 148.559 306.369 148.348 305.109 147.823C303.848 147.299 302.612 146.514 301.248 146.568C300.817 146.582 300.297 146.651 300.027 146.313C299.865 146.107 299.865 145.827 299.836 145.567C299.522 142.433 295.823 143.233 295.333 140.692C295.2 140.011 296.034 138.323 296.019 137.426C295.995 135.999 295.181 134.729 295.666 133.267C295.867 132.664 296.27 132.144 296.476 131.541C296.897 130.319 296.456 128.99 296.206 127.725C295.956 126.455 295.995 124.92 297.035 124.15C297.849 123.547 299.021 123.62 299.821 123.002C301.592 121.629 300.292 118.049 302.288 117.029C303.309 116.504 304.555 117.078 305.693 116.911C306.894 116.734 307.802 115.778 308.802 115.096C309.808 114.415 311.314 114.052 312.133 114.944C312.825 115.699 312.638 116.955 313.271 117.759C313.811 118.446 314.772 118.593 315.567 118.966C319.285 120.722 312.285 121.864 311.28 123.095C310.431 124.13 309.528 126.082 308.915 127.274C308.199 128.662 308.655 131.546 307.895 132.443H307.885Z" fill="#3B455A"/>
<path d="M318.72 123.62C323.267 124.586 320.511 127.98 321.962 130.751C322.536 131.84 324.096 132.252 324.41 133.444C324.66 134.405 323.959 135.317 323.4 136.136C322.84 136.955 322.409 138.137 323.086 138.863C323.292 139.079 323.576 139.226 323.719 139.491C324.091 140.177 323.248 140.874 322.531 141.183C321.815 141.492 320.937 142.105 321.222 142.831C322.056 144.954 322.59 144.057 321.236 145.861C320.908 146.298 320.344 146.219 320.025 146.666C320.618 147.303 321.496 147.529 322.35 147.2C324.464 146.381 323.88 147.411 325.534 147.671C327.275 147.946 327.329 147.411 328.854 146.44C330.277 145.533 333.254 144.9 333.755 143.061C334.034 142.031 333.24 140.977 333.475 139.942C333.696 138.971 334.765 138.235 335.261 137.323C336.266 135.474 334.746 133.453 334.432 131.472C333.995 128.73 335.619 125.317 332.725 123.591C332.102 123.218 331.341 122.997 330.709 122.634C328.84 121.575 328.467 119.643 327.731 117.98C327 116.317 325.107 114.537 322.806 114.92C320.717 115.268 319.613 117.249 317.494 117.46C316.748 117.534 315.939 117.377 315.281 117.646C314.771 117.857 314.492 118.274 314.276 118.676C313.771 119.613 312.299 122.752 313.413 123.615C314.855 124.738 316.797 123.213 318.725 123.625L318.72 123.62Z" fill="#3B455A"/>
<path d="M301.475 134.331C301.254 133.998 301.033 133.635 300.989 133.228C300.915 132.595 301.239 132.115 301.764 131.801C302.073 131.614 302.421 131.516 302.75 131.374C303.451 131.08 304.015 130.751 303.697 129.731C303.648 129.569 303.505 129.407 303.437 129.25C303.182 128.667 303.123 127.956 303.319 127.343C303.471 126.867 303.8 126.455 304.285 126.298C304.683 126.17 305.065 126.308 305.462 126.278C306.954 126.175 306.394 124.797 306.296 123.959C306.12 122.463 307.145 121.188 308.631 120.996C308.862 120.967 308.862 121.33 308.631 121.359C307.881 121.457 307.243 121.894 306.88 122.556C306.512 123.223 306.664 123.88 306.782 124.591C306.885 125.19 306.914 125.925 306.409 126.367C305.619 127.058 304.457 126.112 303.805 127.132C303.177 128.117 303.873 128.946 304.158 129.849C304.884 132.144 300.204 131.418 301.627 133.895C301.994 134.537 302.696 135.16 302.578 135.979C302.49 136.568 302.044 137.029 301.435 136.965C301.205 136.94 301.2 136.578 301.435 136.602C302.431 136.705 302.21 135.474 301.96 135.028C301.818 134.778 301.632 134.557 301.475 134.322V134.331Z" fill="#4B5668"/>
<path d="M322.003 122.649C323.273 122.492 325.25 122.526 325.427 124.199C325.52 125.062 325.005 125.837 324.868 126.665C324.593 128.323 326.261 128.671 327.428 129.172C328.674 129.706 329.758 131.138 328.434 132.227C328.272 132.34 328.115 132.453 327.963 132.575C328.056 132.943 328.154 133.316 328.247 133.684C328.36 133.831 328.684 133.944 328.831 134.071C329.027 134.243 329.209 134.444 329.248 134.714C329.312 135.18 329.022 135.542 328.566 135.567C328.331 135.577 328.331 135.214 328.566 135.204C328.532 134.885 328.498 134.571 328.463 134.253C328.365 134.189 328.267 134.125 328.164 134.066C328.071 133.988 327.948 133.934 327.855 133.855C327.708 133.733 327.561 133.59 327.477 133.414C327.271 133.002 327.394 132.634 327.708 132.325C328.012 132.021 328.331 131.918 328.537 131.487C328.885 130.761 328.39 130.113 327.732 129.726C327.051 129.324 326.236 129.206 325.554 128.789C324.465 128.122 324.318 127.126 324.676 125.974C324.946 125.101 325.451 123.944 324.495 123.306C323.789 122.835 322.807 122.923 322.003 123.022C321.772 123.051 321.772 122.688 322.003 122.659V122.649Z" fill="#4B5668"/>
<path d="M330.489 129.191C330.264 129.128 330.362 128.774 330.587 128.838C331.578 129.132 332.863 129.628 332.829 130.874C332.819 131.227 332.677 131.545 332.412 131.771C332.005 132.119 331.51 132.095 331.156 132.546C330.479 133.419 331.348 134.478 332.378 134.169C332.603 134.101 332.702 134.454 332.476 134.518C331.47 134.822 330.357 134.125 330.514 132.992C330.602 132.374 330.97 132.085 331.47 131.8C332.186 131.398 332.814 130.785 332.137 129.996C331.735 129.525 331.058 129.353 330.489 129.182V129.191Z" fill="#4B5668"/>
<path d="M302.409 213.277C300.388 214.091 298.377 214.935 296.405 215.862C294.428 215.984 292.466 216.112 290.479 216.229C290.092 215.778 289.42 215.195 289.091 214.768C288.768 214.341 288.782 213.919 289.332 213.728C291.353 213.032 293.589 212.409 295.664 211.737C295.125 211.629 294.57 211.516 294.026 211.408C294.055 210.972 294.09 210.535 294.119 210.094C296.273 209.962 298.431 209.888 300.584 209.819C301.188 210.972 301.796 212.124 302.409 213.272V213.277Z" fill="#967756"/>
<path d="M318.866 188.922C315.84 194.734 311.989 199.236 306.623 203.601C305.333 204.65 300.796 206.318 300.163 208.152C299.236 210.84 302.243 212.522 303.572 214.292C303.798 214.591 304.185 214.896 304.514 214.94C304.847 214.979 305.078 214.861 305.338 214.729C313.152 210.81 320.024 205.685 326.097 199.579C329.143 196.519 330.904 193.807 332.219 189.78C335.451 179.912 337.011 174.469 334.73 164.106C333.906 160.364 333.156 157.338 330.291 154.954C323.831 149.584 317.238 157.47 317.439 163.036C317.719 170.781 323.281 174.9 321.456 182.335C320.887 184.65 320.093 186.568 318.866 188.917V188.922Z" fill="#D34E4E"/>
<path d="M270.918 202.885L268.059 206.465L273.425 211.87L277.967 210.379L278.929 206.377L275.358 205.715L275.892 205.043L277.109 204.92L276.967 203.699L270.918 202.885Z" fill="#B97262"/>
<path d="M243.257 154.827C243.743 155.641 244.209 156.47 244.641 157.313C245.533 159.045 246.308 160.835 247.088 162.625C249.879 169.05 252.052 176.848 255.339 182.821C256.526 184.979 259.003 186.916 260.651 188.721C264.782 193.238 268.917 197.755 273.047 202.277L268.926 207.941L240.363 189.3C240.363 189.3 227.855 156.063 227.855 156.058C224.912 148.235 234.408 143.223 239.593 149.599C240.937 151.252 242.163 153.002 243.257 154.832V154.827Z" fill="#8EC3CB"/>
<path d="M234.604 333.415L235.33 337.128L243.105 339.619L245.915 335.299L241.663 332.199L233.883 329.708L234.604 333.415Z" fill="#333333"/>
<path d="M212.933 329.242L212.604 333.092L205.05 336.309L201.764 332.135L205.707 328.604L212.933 329.242Z" fill="#3B455A"/>
<path d="M245.916 220.08L249.207 232.046L247.5 237.515L247.662 237.495L245.616 269.04L241.29 332.547L234.006 332.282L220.918 258.054L219.962 261.492L212.898 330.095L206.217 329.506L195.867 239.977V221.821L245.916 220.08Z" fill="#3B455A"/>
<path d="M216.238 144.498L224.774 143.787C243.845 142.198 245.204 168.785 247.681 182.012C251.267 201.168 252.841 220.801 251.012 240.247C245.013 236.97 236.698 237.652 229.88 237.417C217.318 236.98 204.319 236.637 192.212 238.569C189.951 238.932 190.942 222.64 191.398 219.614C192.33 213.449 193.262 207.284 194.199 201.119C195.886 189.976 197.574 178.834 199.256 167.691C199.305 167.362 199.354 167.039 199.404 166.71C199.585 165.508 199.987 164.356 200.586 163.302L208.493 149.442C210.102 146.617 213.001 144.768 216.238 144.498Z" fill="#8EC3CB"/>
<path d="M219.25 116.445C224.307 119.604 231.459 117.794 236.08 121.61C239.087 124.086 240.2 128.52 239.489 132.483C239.155 134.327 238.444 136.156 237.169 137.495C236.34 138.363 235.31 138.996 234.23 139.476C233.436 139.829 230.355 140.094 229.963 140.634C229.453 141.335 230.242 144.832 230.282 145.774C228.884 146.367 227.491 146.965 226.093 147.559C225.774 147.696 225.445 147.833 225.102 147.829C224.611 147.819 224.18 147.529 223.777 147.25C223.002 146.705 222.227 146.166 221.447 145.622C221.354 145.558 221.261 145.489 221.207 145.391C221.119 145.234 221.163 145.038 221.207 144.866C221.766 142.713 221.987 140.894 222.227 138.667C221.521 138.24 220.844 137.755 220.231 137.191C216.503 133.792 214.879 128.079 216.218 123.052C216.846 120.697 218.043 118.554 219.25 116.445Z" fill="#B97262"/>
<path d="M232.528 120.638C232.318 120.56 232.111 120.486 231.901 120.423C228.854 119.432 225.587 119.138 222.404 119.505C220.226 119.756 217.778 120.584 217.028 122.894C216.689 123.939 216.699 125.057 216.709 126.151C216.724 127.524 216.743 128.897 216.758 130.271C216.758 130.516 216.758 130.776 216.645 130.992C216.287 131.649 215.223 131.359 214.771 130.761C213.128 128.574 211.092 125.111 210.563 122.448C210.131 120.275 210.916 117.73 210.003 115.68C209.4 114.326 209.116 112.345 207.997 111.398C206.462 110.099 204.897 108.721 204.053 106.896C203.205 105.072 203.273 102.664 204.75 101.295C206.153 99.9908 208.326 100.001 210.2 100.388C212.078 100.771 213.952 101.457 215.855 101.227C216.68 101.129 217.489 100.854 218.318 100.898C221.035 101.05 224.837 102.855 226.892 104.655C228.805 106.337 230.537 108.333 232.872 109.344C234.746 110.158 236.855 110.261 238.783 110.928C242.001 112.046 244.576 114.773 245.689 117.99C246.94 121.6 246.646 126.131 243.963 128.961C242.619 130.378 241.525 131.972 240.411 133.561C240.024 134.116 237.802 136.161 237.968 134.013C238.096 132.345 238.763 130.756 238.881 129.089C239.17 125.023 236.109 121.963 232.528 120.643V120.638Z" fill="#3B455A"/>
<path d="M70.1044 136.023L72.4786 128.201L69.2362 127.024L66.4451 132.012L65.1648 130.732L63.9336 137.676L67.1416 139.363L70.1044 136.023Z" fill="#B97262"/>
<path d="M40.2566 139.339L55.0117 154.057L63.5762 135.185L69.7765 138.863L59.5539 178.932L32.4082 158.873L40.2566 139.339Z" fill="#EBB044"/>
<path d="M14.2793 218.265L22.9027 273.768L19.8271 314.999L26.1059 316.961L31.742 278.775L43.7354 211.065L14.2793 218.265Z" fill="#EFBFA5"/>
<path d="M26.1065 316.961L26.7981 321.115L25.2235 329.011L20.0386 328.57L19.0625 316.873L19.8277 315L26.1065 316.961Z" fill="#FEA200"/>
<path d="M65.0841 216.612L62.3126 263.69L50.589 329.507L44.2318 329.428L47.0572 268.408L38.8164 212.149L65.0841 216.612Z" fill="#EFBFA5"/>
<path d="M50.4808 328.383L58.6039 333.709L57.5886 337.692L42.7207 334.519L43.9323 328.766L50.4808 328.383Z" fill="#FEA200"/>
<path d="M66.4807 223.67L66.2158 278.315L58.7451 315.161L41.7239 312.694L42.2193 270.11L38.6875 223.336L40.4338 216.25L65.0582 218.751L66.4807 223.67Z" fill="#CCD2D9"/>
<path d="M36.2792 270.914L31.011 309.674L16.2069 307.609L19.6013 270.718L14.1074 223.538L17.3351 210.762L42.2048 214.509L36.2792 270.914Z" fill="#CCD2D9"/>
<path d="M6.9704 154.969C8.60385 149.486 11.4881 140.148 16.3198 137.51C16.4228 137.456 16.5209 137.402 16.624 137.348C17.5805 136.843 18.6106 136.396 19.6848 136.004C21.6126 134.793 24.3841 134.268 27.1212 134.449C29.6327 134.282 32.1344 134.484 34.3859 135.146C35.4454 135.46 36.4461 135.979 37.437 136.494C40.336 138.005 42.5581 138.652 44.3583 141.619C45.9231 144.194 46.86 147.201 48.0422 149.977C57.9557 173.204 66.0052 204.214 72.436 228.761C69.3997 228.471 66.3535 227.971 63.3172 227.49C49.3666 229.065 33.4343 233.273 21.1319 237.456C17.4431 239.648 13.8132 241.958 10.2128 244.303C11.135 243.704 6.74476 224.273 6.39648 222.086C5.14074 214.16 4.04686 206.205 3.30126 198.221C1.91307 183.39 2.74206 169.118 6.96549 154.969H6.9704Z" fill="#EBB044"/>
<path d="M12.867 116.906C15.4324 107.166 28.9513 103.026 32.7774 113.939C33.9253 117.22 34.7052 120.726 34.2539 124.174C33.7977 127.627 31.9337 131.021 28.8876 132.605C28.8679 132.615 28.8532 132.62 28.8336 132.629C28.3087 132.899 31.2519 138.495 31.4579 138.941C31.7817 139.643 32.1103 140.354 32.2722 141.109C32.6254 142.791 32.1201 144.527 31.5217 146.141C30.9772 147.617 30.3493 149.059 29.643 150.467C29.5841 150.589 29.5154 150.717 29.4026 150.795C29.1328 150.982 28.7649 150.8 28.4951 150.619C26.3172 149.133 24.3894 147.279 22.8296 145.155C22.4715 144.67 22.1281 144.165 21.9319 143.596C21.7062 142.948 21.6768 142.247 21.6768 141.56C21.6768 139.648 23.3005 134.92 22.3341 133.419C21.9662 132.85 20.166 132.433 19.5479 132.051C18.5178 131.418 17.5907 130.619 16.7666 129.736C13.6763 126.44 11.675 121.418 12.8621 116.911L12.867 116.906Z" fill="#B97262"/>
<path d="M32.6259 116.94C34.1563 119.412 34.0681 122.438 33.6805 125.224C33.3028 127.946 33.6021 130.609 32.9693 133.306C33.2587 133.728 33.9062 133.449 34.3084 133.14C36.6727 131.325 39.0175 129.476 41.3328 127.598C41.5682 127.406 41.8037 127.21 41.941 126.941C42.1127 126.597 42.098 126.195 42.0685 125.813C41.5191 118.245 38.5613 112.718 34.3182 106.744C32.258 103.846 26.7592 100.638 23.6395 104.101C22.9282 104.89 22.6682 105.984 22.4867 107.039C22.3788 107.666 22.2856 108.319 22.4279 108.937C22.9969 111.413 25.3171 111.276 27.132 112.07C29.3737 113.046 31.3309 114.856 32.6259 116.945V116.94Z" fill="#3B455A"/>
<path d="M15.3683 121.928C15.3683 124.111 15.8784 126.587 16.5308 128.647C16.7565 129.363 18.1251 131.021 18.1692 131.507C18.2918 132.909 15.4124 136.195 14.6619 137.421C10.154 134.92 5.65097 132.424 1.14303 129.922C0.799664 129.731 0.436675 129.525 0.235559 129.182C0.0540643 128.868 0.0295379 128.49 0.0197274 128.127C-0.235346 120.996 1.59922 114.591 4.31674 108.142C7.03425 101.698 13.1217 96.4548 20.2981 96.906C26.0961 97.2689 30.1528 101.546 28.0337 107.514C26.4346 112.021 20.8229 112.978 17.7719 116.063C15.8539 117.995 15.3045 119.917 15.3634 121.933L15.3683 121.928Z" fill="#3B455A"/>
<path d="M96.0147 81.3837C96.1422 81.467 96.2599 81.5602 96.3728 81.6632C97.4127 82.6441 97.0203 84.0173 97.6678 85.1061C97.9572 85.5916 99.5563 86.1507 98.9775 86.8913C98.7616 87.161 98.1141 88.137 97.398 89.0737C96.358 90.4372 96.5248 92.2616 96.5346 93.8555L96.5935 100.285C96.6082 102.149 96.6278 104.022 96.9516 105.861C97.7266 110.295 100.16 113.772 102.328 117.539C104.628 121.536 107.12 125.68 108.827 129.967C109.431 131.482 109.921 133.105 109.73 134.729C109.249 138.79 105.477 139.3 102.696 136.985C101.528 136.014 100.621 134.768 99.777 133.503C97.501 130.099 95.5732 126.46 94.0379 122.664C93.3217 120.893 92.6889 119.094 92.061 117.289C90.4325 112.644 89.5986 108.289 89.3828 103.375C89.476 101.07 89.8193 98.7844 90.1087 96.4941C90.2853 95.0963 91.3056 92.0409 90.0155 91.0159C89.8046 90.8491 89.5544 90.7265 89.368 90.5303C89.1571 90.3096 89.0443 90.0154 88.9462 89.726C88.5881 88.6716 88.3036 87.5583 88.1957 86.445C88.0093 84.4538 90.4374 82.4675 91.7177 81.2561C92.0365 80.957 92.375 80.6529 92.7919 80.5205C93.4688 80.3047 94.1997 80.5744 94.8619 80.8344C95.2544 80.9913 95.6517 81.1531 96.0049 81.3837H96.0147Z" fill="#EFBFA5"/>
<path d="M98.2769 130.364C101.549 127.602 104.821 124.836 108.092 122.075C107.881 122.252 121.538 136.151 122.323 137.009C125.315 140.275 128.395 143.679 129.754 147.892C132.653 156.896 123.142 164.93 114.896 159.667C105.944 153.954 98.4192 144.336 94.7501 134.4C94.6716 134.184 94.5931 133.954 94.6274 133.728C94.6814 133.414 94.9365 133.184 95.1768 132.983C96.2118 132.11 97.2419 131.237 98.2769 130.364Z" fill="#7FC5A3"/>
<path d="M170.713 320.125C169.501 320.919 168.138 321.361 166.852 321.984C158.916 310.301 152.392 296.966 145.539 284.544C148.737 282.832 151.94 281.12 155.139 279.409C156.905 287.197 159.416 294.813 162.614 302.126C163.12 303.283 170.88 320.012 170.708 320.125H170.713Z" fill="#EFBFA5"/>
<path d="M165.063 319.875C164.214 320.203 163.969 320.816 163.743 321.591C163.611 322.043 163.64 322.548 163.4 322.955C163.16 323.367 162.831 323.617 162.434 323.916C160.334 325.495 155.125 328.521 160.138 330.601C164.69 332.489 170.488 327.124 173.755 323.887C173.971 323.676 174.211 323.475 174.28 323.171C174.348 322.866 174.304 322.513 174.206 322.175C173.676 320.311 173.063 317.957 170.689 318.477C169.679 318.698 169.242 319.723 168.168 319.953C167.29 320.14 165.911 319.551 165.063 319.875Z" fill="#FEA200"/>
<path d="M174.152 235.965C172.523 243.106 167.088 248.996 163.424 255.151C159.357 261.973 158.921 269.58 161.933 277.089C162.124 277.56 162.33 278.075 162.192 278.565C162.055 279.055 161.614 279.394 161.192 279.683C156.944 282.636 152.421 285.191 147.702 287.314C145.034 288.516 142.493 289.634 139.692 290.517C132.844 278.182 129.837 263.749 131.196 249.703C131.956 241.841 134.036 234.17 136.106 226.549C137.132 222.782 137.867 218.746 139.334 215.122C140.29 212.753 141.012 209.094 143.131 207.525C145.049 206.054 147.212 205.803 149.826 205.931C156.811 206.279 166.73 205.494 171.635 211.419C176.992 217.893 175.824 228.663 174.156 235.97L174.152 235.965Z" fill="#CCD2D9"/>
<path d="M124.166 325.318C122.812 325.843 121.394 325.995 120.006 326.338C114.66 313.263 111.035 298.869 106.904 285.299C110.387 284.283 113.875 283.273 117.357 282.258C117.475 290.242 118.353 298.212 119.972 306.029C120.227 307.27 124.357 325.24 124.166 325.313V325.318Z" fill="#EFBFA5"/>
<path d="M118.687 323.901C117.79 324.048 117.422 324.597 117.039 325.308C116.819 325.72 116.74 326.221 116.421 326.574C116.102 326.927 115.73 327.103 115.278 327.314C112.899 328.423 107.175 330.311 111.648 333.376C115.71 336.162 122.494 332.116 126.359 329.624C126.614 329.462 126.894 329.315 127.022 329.031C127.149 328.746 127.178 328.393 127.154 328.045C127.017 326.113 126.909 323.68 124.481 323.7C123.446 323.71 122.808 324.617 121.709 324.622C120.811 324.622 119.585 323.759 118.687 323.906V323.901Z" fill="#FEA200"/>
<path d="M144.95 243.69C141.88 250.335 135.341 254.979 130.485 260.237C125.094 266.073 123.092 273.42 124.486 281.39C124.574 281.89 124.672 282.434 124.436 282.885C124.201 283.342 123.696 283.572 123.225 283.773C118.457 285.784 113.503 287.348 108.445 288.447C105.586 289.07 102.868 289.639 99.9445 289.923C95.7995 276.436 95.8437 261.694 100.082 248.236C102.451 240.698 106.076 233.626 109.681 226.598C111.462 223.125 113.022 219.324 115.2 216.088C116.627 213.969 118.089 210.536 120.488 209.437C122.671 208.393 124.839 208.599 127.365 209.266C134.124 211.051 143.994 212.341 147.565 219.148C151.469 226.588 148.095 236.887 144.95 243.69Z" fill="#CCD2D9"/>
<path d="M152.4 144.175C158.728 149.359 163.692 156.249 166.915 163.532C172.625 176.431 173.767 190.57 174.847 204.43C175.205 209.045 175.563 213.655 175.921 218.27C176.274 222.807 175.945 223.817 170.967 223.587C161.74 223.16 152.096 221.983 143.507 218.535C139.421 216.897 135.555 214.729 131.307 213.513C125.132 211.747 119.039 213.209 112.986 212.213C114.154 207.539 116.101 203.209 116.793 198.344C117.484 193.479 117.617 188.545 117.583 183.631C117.524 175.043 117.955 166.465 117.96 157.902C117.96 151.772 116.788 146.833 122.978 142.35C126.348 139.908 132.495 135.705 137.552 136.342C142.918 137.019 148.863 141.276 152.4 144.175Z" fill="#7FC5A3"/>
<path d="M123.155 126.995C124.41 129.28 126.328 131.114 127.932 133.169C129.492 135.17 130.14 137.034 130.694 139.447C131.096 141.188 131.827 142.517 133.971 142.664C138.018 142.934 136.624 139.712 137.355 137.24C138.189 134.415 140.245 132.076 141.608 129.506C145.557 122.08 143.232 108.157 133.706 105.862C123.292 103.351 119.333 120.07 123.15 127L123.155 126.995Z" fill="#EFBFA5"/>
<path d="M138.856 118.927C140.014 118.888 141.289 118.883 142.207 119.594C143.124 120.305 143.153 122.002 142.035 122.272C141.024 122.512 139.617 121.546 139.048 122.37C138.714 122.855 139.087 123.498 139.406 124.008C140.622 125.974 141.118 128.324 140.784 130.545C141.235 130.903 141.863 130.452 142.202 130.016C143.889 127.858 145.15 125.391 145.9 122.777C146.317 123.365 146.896 123.851 147.563 124.16C147.107 123.233 147.274 122.169 147.436 121.173C148.039 117.519 148.314 113.272 145.591 110.53C144.134 109.064 142.03 108.309 139.95 108.083C137.87 107.858 135.791 108.103 133.73 108.353C132.847 108.461 131.773 108.731 131.621 109.564C133.618 110.197 135.737 111.56 136.845 113.326C137.184 113.865 138.734 118.932 138.851 118.927H138.856Z" fill="#3B455A"/>
<path d="M134.117 110.609C134.191 110.653 134.264 110.702 134.338 110.746C135.265 111.35 136.153 112.1 137.237 112.321C138.801 112.635 140.396 111.771 141.941 112.183C143.672 112.639 144.933 114.577 146.253 115.675C148.416 117.48 151.03 118.736 153.777 119.354C155.18 119.667 156.622 119.819 158.06 119.795C158.712 119.785 159.59 119.844 160.213 119.623C161.047 119.329 160.988 118.946 160.061 118.726C157.152 118.029 155.965 114.106 155.985 111.448C155.999 109.349 156.554 107.112 155.617 105.239C154.901 103.807 153.537 103.14 152.212 102.384C150.751 101.556 149.259 101.918 147.646 101.59C145.963 101.247 144.521 100.045 142.814 99.839C141.014 99.6232 139.297 100.54 137.546 101.021C136.099 101.413 134.568 101.511 133.087 101.3C131.758 101.109 130.438 100.678 129.099 100.786C127.122 100.952 125.4 102.321 124.365 104.013C122.903 106.406 122.138 110.369 122.933 113.311C122.81 112.855 124.243 111.055 124.537 110.673C125.16 109.859 125.925 109.084 126.95 108.883C129.271 108.427 132.135 109.388 134.122 110.614L134.117 110.609Z" fill="#3B455A"/>
<path d="M178.614 83.11C178.476 83.1786 178.344 83.2522 178.221 83.3454C177.068 84.1889 177.284 85.5965 176.504 86.597C176.156 87.0433 174.503 87.3964 174.984 88.2056C175.165 88.4999 175.685 89.5494 176.279 90.5646C177.137 92.0507 176.75 93.8359 176.534 95.4151C176.244 97.5387 175.96 99.6623 175.67 101.786C175.42 103.635 175.17 105.489 174.621 107.274C173.296 111.575 170.446 114.724 167.827 118.191C165.046 121.869 162.058 125.67 159.821 129.712C159.032 131.139 158.345 132.688 158.33 134.322C158.301 138.412 161.98 139.388 165.026 137.441C166.306 136.622 167.361 135.499 168.357 134.351C171.04 131.256 173.409 127.887 175.405 124.312C176.337 122.644 177.191 120.938 178.04 119.226C180.237 114.817 181.606 110.604 182.435 105.754C182.631 103.453 182.577 101.143 182.572 98.8383C182.572 97.4308 181.944 94.2724 183.347 93.4141C183.578 93.2719 183.838 93.1836 184.049 93.0119C184.284 92.8207 184.431 92.5411 184.564 92.2665C185.054 91.266 185.476 90.1968 185.716 89.1031C186.153 87.1512 183.99 84.8755 182.871 83.517C182.592 83.1786 182.292 82.8353 181.895 82.6538C181.248 82.3547 180.492 82.5312 179.801 82.7078C179.393 82.8157 178.977 82.9236 178.599 83.11H178.614Z" fill="#EFBFA5"/>
<path d="M170.251 131.428C167.352 128.279 164.448 125.131 161.549 121.982C161.735 122.183 146.45 134.267 145.567 135.018C142.188 137.882 138.71 140.874 136.836 144.89C132.838 153.458 141.266 162.625 150.11 158.426C159.709 153.875 168.372 145.273 173.253 135.871C173.361 135.665 173.469 135.449 173.459 135.219C173.444 134.905 173.218 134.64 173.008 134.41C172.09 133.414 171.173 132.418 170.261 131.428H170.251Z" fill="#7FC5A3"/>
<path d="M378.053 108.377C378.156 108.5 378.259 108.623 378.323 108.765C378.897 110.069 378.411 111.089 378.607 112.497C378.696 113.125 380.167 113.816 379.167 114.675C378.799 114.993 377.778 115.646 376.984 116.317C375.826 117.298 374.948 119.241 374.536 120.908C372.917 127.47 373.133 134.287 373.555 141.031C373.579 141.413 373.609 141.815 373.81 142.144C374.163 142.733 374.924 142.914 375.6 143.051C378.735 143.689 381.806 144.621 384.768 145.827C387.412 146.901 390.027 148.245 391.945 150.354C393.863 152.463 394.986 155.474 394.231 158.226C393.667 160.285 392.048 162.026 390.032 162.738C385.038 164.508 379.829 158.785 376.194 156.063C372.755 153.488 369.498 150.673 366.452 147.642C366.074 147.269 365.692 146.877 365.496 146.386C365.285 145.862 365.304 145.278 365.324 144.714C365.618 137.441 366.55 130.236 367.639 123.012C367.938 121.026 369.243 119.451 369.503 117.612C369.67 116.44 368.954 115.4 368.866 114.258C368.777 113.13 368.949 111.624 369.283 110.545C369.945 108.412 372.123 107.656 373.957 106.813C374.413 106.602 374.722 106.46 375.193 106.484C375.959 106.528 376.528 107.009 377.106 107.47C377.45 107.745 377.774 108.044 378.053 108.377Z" fill="#E2B09A"/>
<path d="M378.24 156.038C379.638 151.992 381.041 147.941 382.439 143.895C382.351 144.155 401.197 149.123 402.31 149.457C406.553 150.732 410.944 152.085 414.264 155.013C421.362 161.271 417.296 173.042 407.515 172.738C396.895 172.404 385.51 167.985 377.269 161.315C377.092 161.168 376.906 161.016 376.823 160.8C376.71 160.506 376.813 160.178 376.916 159.878C377.357 158.598 377.799 157.323 378.24 156.043V156.038Z" fill="#3F48A5"/>
<path d="M217.564 336.799H282.618C283.167 336.799 283.613 337.246 283.613 337.795V345.004C283.613 345.554 283.167 346 282.618 346H217.564C217.015 346 216.568 345.554 216.568 345.004V337.795C216.568 337.246 217.015 336.799 217.564 336.799Z" fill="#BEC2C6"/>
<g opacity="0.15">
<path opacity="0.4" d="M283.609 340.742V342.056C283.609 344.224 281.833 346 279.665 346H220.512C218.344 346 216.568 344.224 216.568 342.056V340.742C216.568 340.281 216.647 339.835 216.804 339.428C217.343 340.953 218.8 342.056 220.512 342.056H279.665C281.372 342.056 282.834 340.953 283.373 339.428C283.53 339.835 283.609 340.281 283.609 340.742Z" fill="#0C0C0C"/>
</g>
<path d="M244.858 190.908H255.321C255.698 190.908 256.002 191.212 256.002 191.59V338.741C256.002 339.119 255.698 339.423 255.321 339.423H244.858C244.48 339.423 244.176 339.119 244.176 338.741V191.595C244.176 191.217 244.48 190.913 244.858 190.913V190.908Z" fill="#CCD2D9"/>
<path opacity="0.15" d="M251.406 190.908H253.113C254.703 190.908 256.002 192.272 256.002 193.934V336.402C256.002 338.064 254.703 339.428 253.113 339.428H251.406V190.908Z" fill="#0C0C0C"/>
<path d="M174.506 209.319V218.501C174.506 219.232 175.099 219.825 175.83 219.825H324.357C325.088 219.825 325.681 219.232 325.681 218.501V209.319C325.681 208.588 325.088 207.995 324.357 207.995H175.83C175.099 207.995 174.506 208.588 174.506 209.319Z" fill="#CCD2D9"/>
<g opacity="0.2">
<path opacity="0.15" d="M174.506 215.224V216.931C174.506 218.52 175.889 219.824 177.586 219.824H322.601C324.293 219.824 325.681 218.525 325.681 216.931V215.224H174.506Z" fill="#0C0C0C"/>
</g>
<path d="M237.484 318.398H262.692C263.354 318.398 263.889 318.933 263.889 319.595V331.655C263.889 332.317 263.354 332.851 262.692 332.851H237.484C236.822 332.851 236.287 332.317 236.287 331.655V319.595C236.287 318.933 236.822 318.398 237.484 318.398Z" fill="#BEC2C6"/>
<path d="M273.372 327.599H228.126C227.552 327.599 227.086 328.064 227.086 328.638V338.388C227.086 338.963 227.552 339.428 228.126 339.428H273.372C273.946 339.428 274.412 338.963 274.412 338.388V328.638C274.412 328.064 273.946 327.599 273.372 327.599Z" fill="#474EBB"/>
<path d="M262.425 215.921C263.531 209.114 258.907 202.7 252.099 201.595C245.291 200.49 238.876 205.112 237.771 211.919C236.665 218.726 241.289 225.14 248.097 226.245C254.905 227.35 261.32 222.728 262.425 215.921Z" fill="#474EBB"/>
<path d="M321.967 283.601C321.462 283.601 321.055 283.194 321.055 282.689V218.765C321.055 218.26 321.462 217.853 321.967 217.853C322.472 217.853 322.879 218.26 322.879 218.765V282.689C322.879 283.194 322.472 283.601 321.967 283.601Z" fill="#AFAFAF"/>
<path d="M295.485 284.513C295.377 284.513 295.264 284.494 295.156 284.45C294.685 284.268 294.455 283.738 294.636 283.268L320.207 217.519C320.389 217.048 320.919 216.818 321.389 216.999C321.86 217.181 322.091 217.711 321.909 218.181L296.338 283.93C296.196 284.293 295.853 284.513 295.485 284.513Z" fill="#AFAFAF"/>
<path d="M348.456 284.513C348.088 284.513 347.745 284.293 347.603 283.93L322.027 218.181C321.845 217.711 322.076 217.181 322.547 216.999C323.018 216.818 323.547 217.048 323.729 217.519L349.305 283.268C349.486 283.738 349.256 284.268 348.785 284.45C348.677 284.494 348.564 284.513 348.456 284.513Z" fill="#AFAFAF"/>
<path d="M296.49 291.365C296.446 291.821 296.396 292.272 296.396 292.733C296.396 303.322 307.845 311.909 321.973 311.909C336.1 311.909 347.549 303.322 347.549 292.733C347.549 292.272 347.5 291.816 347.455 291.365H296.49Z" fill="#EBB044"/>
<g opacity="0.1">
<path opacity="0.1" d="M347.543 292.733C347.543 292.115 347.494 291.502 347.421 290.899C344.389 291.041 341.358 291.198 338.326 291.291C338.375 291.767 338.415 292.248 338.415 292.733C338.415 293.665 338.322 294.577 338.155 295.475H296.666L337.699 297.265C335.334 304.582 327.383 310.261 317.415 311.605C318.897 311.806 320.427 311.914 321.982 311.914C333.833 311.914 343.806 305.867 346.705 297.657L347.558 295.475H347.293C347.465 294.577 347.558 293.665 347.558 292.733H347.543Z" fill="#272525"/>
</g>
<path d="M353.626 282.689H290.309C289.635 282.689 289.088 283.236 289.088 283.91V294.254C289.088 294.928 289.635 295.475 290.309 295.475H353.626C354.301 295.475 354.848 294.928 354.848 294.254V283.91C354.848 283.236 354.301 282.689 353.626 282.689Z" fill="#EBB044"/>
<path d="M178.444 283.601C177.938 283.601 177.531 283.194 177.531 282.689V218.765C177.531 218.26 177.938 217.853 178.444 217.853C178.949 217.853 179.356 218.26 179.356 218.765V282.689C179.356 283.194 178.949 283.601 178.444 283.601Z" fill="#AFAFAF"/>
<path d="M151.961 284.513C151.853 284.513 151.741 284.494 151.633 284.45C151.162 284.268 150.931 283.738 151.113 283.268L176.684 217.519C176.865 217.048 177.395 216.818 177.866 216.999C178.337 217.181 178.567 217.711 178.386 218.181L152.815 283.93C152.673 284.293 152.329 284.513 151.961 284.513Z" fill="#AFAFAF"/>
<path d="M204.933 284.513C204.565 284.513 204.222 284.293 204.079 283.93L178.503 218.181C178.322 217.711 178.552 217.181 179.023 216.999C179.494 216.818 180.024 217.048 180.205 217.519L205.782 283.268C205.963 283.738 205.732 284.268 205.262 284.45C205.154 284.494 205.041 284.513 204.933 284.513Z" fill="#AFAFAF"/>
<path d="M152.966 291.365C152.922 291.821 152.873 292.272 152.873 292.733C152.873 303.322 164.322 311.909 178.449 311.909C192.576 311.909 204.025 303.322 204.025 292.733C204.025 292.272 203.976 291.816 203.932 291.365H152.966Z" fill="#EBB044"/>
<g opacity="0.1">
<path opacity="0.1" d="M204.02 292.733C204.02 292.115 203.971 291.502 203.897 290.899C200.866 291.041 197.834 291.198 194.803 291.291C194.852 291.767 194.891 292.248 194.891 292.733C194.891 293.665 194.798 294.577 194.631 295.475H153.143L194.175 297.265C191.811 304.582 183.859 310.261 173.892 311.605C175.373 311.806 176.904 311.914 178.459 311.914C190.31 311.914 200.282 305.867 203.176 297.657L204.03 295.475H203.765C203.937 294.577 204.03 293.665 204.03 292.733H204.02Z" fill="#272525"/>
</g>
<path d="M210.103 282.689H146.786C146.111 282.689 145.564 283.236 145.564 283.91V294.254C145.564 294.928 146.111 295.475 146.786 295.475H210.103C210.778 295.475 211.324 294.928 211.324 294.254V283.91C211.324 283.236 210.778 282.689 210.103 282.689Z" fill="#EBB044"/>
<path d="M326.379 217.899C328.946 215.333 328.946 211.172 326.379 208.605C323.812 206.039 319.65 206.039 317.083 208.605C314.516 211.172 314.516 215.333 317.083 217.899C319.65 220.466 323.812 220.466 326.379 217.899Z" fill="#474EBB"/>
<g opacity="0.3">
<path opacity="0.4" d="M324.228 207.176C325.131 208.299 325.675 209.727 325.675 211.281C325.675 214.91 322.732 217.853 319.102 217.853C318.219 217.853 317.376 217.677 316.605 217.358C317.812 218.859 319.657 219.825 321.731 219.825C325.361 219.825 328.305 216.882 328.305 213.253C328.305 210.506 326.622 208.157 324.228 207.176Z" fill="#0C0C0C"/>
</g>
<path d="M180.963 219.322C184.317 217.933 185.909 214.088 184.52 210.735C183.131 207.382 179.286 205.789 175.932 207.178C172.578 208.567 170.986 212.412 172.375 215.765C173.764 219.118 177.609 220.711 180.963 219.322Z" fill="#474EBB"/>
<g opacity="0.4">
<path opacity="0.3" d="M180.945 207.176C181.848 208.299 182.392 209.727 182.392 211.281C182.392 214.91 179.449 217.853 175.819 217.853C174.936 217.853 174.092 217.677 173.322 217.358C174.529 218.859 176.373 219.825 178.448 219.825C182.078 219.825 185.021 216.882 185.021 213.253C185.021 210.506 183.339 208.157 180.945 207.176Z" fill="#0C0C0C"/>
</g>
<g opacity="0.2">
<path opacity="0.2" d="M257.13 203.596C258.14 205.401 258.719 207.48 258.719 209.692C258.719 216.587 253.127 222.178 246.23 222.178C243.621 222.178 241.198 221.374 239.191 220.006C241.33 223.817 245.406 226.396 250.091 226.396C256.988 226.396 262.58 220.805 262.58 213.91C262.58 209.623 260.421 205.847 257.13 203.596Z" fill="#0C0C0C"/>
</g>
<path d="M110.304 28.0532C104.275 27.5284 96.6672 30.7604 94.8277 35.9836C93.0422 30.7457 83.8007 27.4794 77.7672 27.9502C61.8398 29.1959 56.3606 47.2 63.0465 59.3579C66.647 65.9004 71.8367 71.6336 77.5072 76.7833C82.2555 81.0942 94.5138 90.2556 94.5481 90.2213C94.5874 90.2507 106.934 81.207 111.726 76.9402C117.451 71.8445 122.699 66.1603 126.364 59.6522C133.177 47.558 126.212 29.4411 110.299 28.0532H110.304Z" fill="#D34E4E"/>
<g style="mix-blend-mode:multiply" opacity="0.12">
<g style="mix-blend-mode:multiply" opacity="0.12">
<path d="M122.925 60.9031C118.932 65.7535 114.316 70.2999 109.308 74.2038C104.466 77.9753 98.7958 81.2563 92.571 82.3304C89.5788 82.8453 86.6552 82.7619 83.8887 82.0998C88.946 86.1018 94.4448 90.197 94.4693 90.1774C94.5086 90.2068 106.855 81.1631 111.648 76.8963C117.372 71.8006 122.621 66.1164 126.285 59.6083C127.472 57.5043 128.237 55.214 128.615 52.8599C126.947 55.6799 125.019 58.3577 122.925 60.8982V60.9031Z" fill="#000100"/>
</g>
</g>
<path d="M83.8849 244.204C114.186 244.204 138.75 219.645 138.75 189.349C138.75 159.053 114.186 134.493 83.8849 134.493C53.5836 134.493 29.0195 159.053 29.0195 189.349C29.0195 219.645 53.5836 244.204 83.8849 244.204Z" fill="#474EBB"/>
<path d="M83.8852 141.673C57.593 141.673 36.2012 163.061 36.2012 189.349C36.2012 215.636 57.593 237.025 83.8852 237.025C110.177 237.025 131.569 215.636 131.569 189.349C131.569 163.061 110.177 141.673 83.8852 141.673ZM123.731 189.349C123.731 197.407 121.317 204.911 117.187 211.183L88.4569 188.123V149.785C108.279 152.061 123.731 168.932 123.731 189.354V189.349ZM80.6232 229.04C70.9893 228.255 62.3119 224.038 55.832 217.598L80.6232 198.074V229.04ZM80.6232 149.658V188.098L50.8287 211.561C46.5464 205.21 44.0447 197.569 44.0447 189.349C44.0447 168.486 60.1781 151.325 80.6232 149.658ZM88.4618 228.918V198.177L112.262 217.284C106.037 223.601 97.7279 227.853 88.4618 228.918Z" fill="white"/>
<path d="M47.9048 218.412L54.836 221.885L56.3958 218.976L52.1577 215.543L53.5312 214.523L47.2524 212.272L45.2266 215.072L47.9048 218.412Z" fill="#B97262"/>
<path d="M18.8026 150.653C19.3765 150.879 19.9554 151.207 20.5244 151.649C22.8838 153.478 24.272 156.357 24.8851 159.29C25.8564 163.929 25.3757 168.902 25.8171 173.62C26.3224 179.015 26.8276 184.41 27.3329 189.805L49.6224 212.321L45.3156 217.657L13.2302 195.621C12.9065 188.427 12.622 181.394 11.8519 174.273C11.1602 167.887 9.10491 161.153 11.3025 154.881C12.5435 151.34 15.6436 149.427 18.8075 150.658L18.8026 150.653Z" fill="#EBB044"/>
<path d="M396.66 320.154L396.812 330.905L390.44 330.993L390.273 319.07L396.66 320.154Z" fill="#EFBFA5"/>
<path d="M391.009 329.306L396.552 331.135L398.205 332.915L397.926 337.128L382.945 338.291C381.68 336.446 382.504 333.95 384.613 333.224L385.309 332.984L391.009 329.306Z" fill="#FEA200"/>
<path d="M457.675 306.53L463.841 315.333L458.617 318.987L451.779 309.222L457.675 306.53Z" fill="#EFBFA5"/>
<path d="M458.764 319.144C458.92 318.874 459.117 318.609 459.352 318.344C459.936 317.697 464.875 313.582 465.631 314.808C465.754 315.009 465.778 315.25 465.798 315.485C466.146 319.399 466.043 323.357 465.494 327.246C465.258 328.913 464.768 330.802 463.252 331.527C462.585 331.846 461.824 331.876 461.089 331.861C460 331.846 458.916 331.748 457.841 331.576C457.449 331.513 457.027 331.424 456.767 331.12C456.247 330.517 456.733 329.571 457.346 329.06C457.954 328.55 458.739 328.109 458.925 327.334C459.009 326.986 458.955 326.623 458.901 326.27C458.494 323.651 457.532 321.258 458.773 319.139L458.764 319.144Z" fill="#FEA200"/>
<path d="M410.354 276.113C414.371 285.034 421.631 290.522 429.327 296.083C438.132 302.449 446.599 309.286 454.668 316.559C457.135 314.862 459.608 313.16 462.075 311.463C457.042 298.795 448.267 288.055 440.816 276.642C435.636 268.712 430.995 260.149 428.881 250.845C427.831 246.22 428.062 241.738 427.709 237.093C427.277 231.345 426.11 225.602 425.599 219.84C425.428 217.907 425.089 215.651 423.382 214.734C422.622 214.322 421.724 214.273 420.861 214.288C388.835 214.813 402.716 259.148 410.354 276.113Z" fill="#0DB292"/>
<path d="M432.448 220.256C431.712 216.858 430.923 213.331 428.789 210.585C428.073 209.663 427.175 208.765 427.033 207.603C426.895 206.49 427.357 205.043 426.395 204.459C426.003 204.219 425.507 204.258 425.051 204.297C416.339 205.116 407.049 205.131 398.479 206.867C389.831 208.623 384.44 210.502 384.377 219.879C384.264 237.127 377.519 251.826 374.605 268.408C372.913 278.045 375.837 286.662 379.079 295.588C382.787 305.799 385.941 316.211 388.531 326.765C391.528 326.745 394.526 326.731 397.523 326.711C400.481 313.405 399.259 299.59 399.509 285.961C399.686 276.49 400.652 266.799 404.135 257.917C405.337 254.852 407.009 252.189 408.697 249.496C414.098 249.859 419.498 250.227 424.904 250.59C425.699 250.644 426.567 250.673 427.204 250.198C428.068 249.54 428.092 248.275 428.048 247.191C427.886 243.395 427.901 239.423 429.633 236.044C430.515 234.317 431.815 232.817 432.561 231.031C433.964 227.662 433.218 223.827 432.448 220.261V220.256Z" fill="#0CC19E"/>
<path d="M418.006 153.822C418.992 154.587 419.86 155.509 420.719 156.426C421.489 157.245 422.254 158.064 423.024 158.883C425.688 161.723 427.002 165.926 428.14 169.55C434.144 188.638 436.308 214.823 432.408 234.764C417.619 236.039 400.499 232.312 385.739 230.296C384.302 230.1 382.678 229.776 381.933 228.535C381.482 227.785 381.467 226.858 381.467 225.98C381.467 213.322 384.145 199.712 386.657 187.23C387.716 181.963 389.021 176.74 390.694 171.634C392.464 166.23 394.461 160.394 398.606 156.303C403.04 151.929 411.536 149.766 417.089 153.184C417.408 153.38 417.707 153.591 418.001 153.817L418.006 153.822Z" fill="#474EBB"/>
<path d="M416.393 156.485C416.658 154.763 416.927 153.042 417.192 151.32C417.55 151.149 417.894 150.957 418.208 150.756C424.379 146.818 434.724 125.675 418.281 120.942C403.35 116.646 404.13 137.181 407.043 145.744C407.544 147.21 408.211 148.593 409.197 149.795C409.874 150.614 410.026 150.462 409.928 151.413C409.834 152.335 408.917 153.375 408.706 154.346C408.486 155.381 408.569 156.529 409.167 157.402C409.535 157.936 410.075 158.333 410.649 158.638C411.561 159.118 412.621 159.388 413.636 159.197C414.843 158.966 416.201 157.725 416.393 156.489V156.485Z" fill="#EFBFA5"/>
<path d="M403.541 137.98C404.453 140.712 405.733 143.321 407.337 145.715C407.254 140.663 407.862 135.597 409.152 130.707C409.25 130.334 409.348 129.913 409.142 129.584C408.951 129.275 408.569 129.162 408.215 129.089C401.927 127.73 401.946 133.218 403.541 137.98Z" fill="#3B455A"/>
<path d="M420.057 145.597C421.067 147.014 423.274 146.632 424.829 145.852C431.221 142.639 434.983 134.91 433.566 127.897C432.379 122.031 424.986 117.632 423.49 124.9C422.961 127.475 424.53 131.045 424.172 133.905C423.657 137.99 421.754 141.894 420.062 145.597H420.057Z" fill="#3B455A"/>
<path d="M403.605 115.553C402.888 115.837 402.158 116.136 401.392 116.435C399.803 117.058 398.65 117.264 397.012 116.337C396.541 116.072 393.402 113.105 394.157 112.487C389.149 116.573 393.269 122.536 395.148 126.754C396.413 129.599 396.673 133.615 399.518 135.474C402.648 137.519 404.797 134.935 407.637 133.772C410.143 132.752 412.851 132.198 415.402 131.286C419.635 129.775 425.933 127.122 424.53 121.502C422.892 114.935 416.241 113.297 410.261 113.802C407.705 114.017 405.709 114.714 403.6 115.553H403.605Z" fill="#3B455A"/>
<path d="M314.264 50.2699C316.217 44.1933 321.76 40.2747 327.793 40.0981L319.346 66.42C314.539 62.7662 312.312 56.3513 314.264 50.2748V50.2699Z" fill="#474EBB"/>
<path d="M406.117 98.3228L382.231 90.6598L392.912 57.3776L416.798 65.0406C417.247 65.1844 417.494 65.6655 417.35 66.1138L407.19 97.7709C407.047 98.2192 406.565 98.4666 406.117 98.3228Z" fill="#CCD2D9"/>
<path d="M309.919 95.4787L336.932 11.3291C337.114 10.77 337.879 10.7063 338.149 11.2261C349.127 32.2267 367.973 49.1273 392.215 57.1165C392.563 57.2293 392.749 57.6021 392.641 57.9503L382.36 89.9809C382.247 90.3291 381.879 90.5203 381.531 90.4075C357.166 82.8008 332.002 85.5816 310.851 96.2683C310.326 96.5331 309.742 96.0378 309.919 95.4738V95.4787Z" fill="#EBB044"/>
<path d="M395.482 94.9635L382.365 127.798C381.938 128.863 380.874 129.525 379.731 129.432C376.042 129.147 372.535 127.847 369.077 126.621C367.743 126.146 366.192 125.856 365.349 124.606C364.638 123.546 364.588 122.163 365.211 121.055L382.243 90.7114L395.487 94.9586L395.482 94.9635Z" fill="#BEC2C6"/>
<g opacity="0.16">
<path opacity="0.16" d="M382.236 90.7163L395.481 94.9635L393.003 101.163L382.236 90.7163Z" fill="black"/>
</g>
<g opacity="0.16">
<path opacity="0.16" d="M327.794 40.0933L319.348 66.4151C319.348 66.4151 318.656 65.9247 317.008 64.1836L327.799 40.0933H327.794Z" fill="black"/>
</g>
<path d="M379.937 129.451C379.869 129.451 379.8 129.451 379.731 129.441C378.883 129.378 378.024 129.255 377.112 129.079C374.527 128.573 371.996 127.671 369.543 126.798C369.386 126.744 369.229 126.685 369.072 126.631C368.837 126.548 368.591 126.469 368.351 126.391C367.213 126.023 366.036 125.645 365.339 124.611C364.633 123.561 364.579 122.163 365.202 121.05L382.238 90.7017H382.243L395.497 94.9587V94.9685L382.38 127.803C382.169 128.328 381.806 128.76 381.326 129.059C380.904 129.319 380.433 129.456 379.942 129.456L379.937 129.451ZM382.243 90.7262L365.217 121.065C364.594 122.173 364.648 123.561 365.354 124.606C366.046 125.636 367.223 126.013 368.356 126.376C368.596 126.455 368.842 126.533 369.077 126.617C369.234 126.67 369.391 126.729 369.548 126.783C371.996 127.656 374.532 128.554 377.112 129.059C378.024 129.24 378.883 129.358 379.731 129.422C380.291 129.466 380.835 129.334 381.316 129.039C381.792 128.745 382.155 128.313 382.361 127.794L395.472 94.9685L382.243 90.7262Z" fill="#BEC2C6"/>
<path d="M253.166 66.1115L248.76 66.729L260.768 152.371L265.174 151.753L253.166 66.1115Z" fill="#CCD2D9"/>
<g opacity="0.3">
<path opacity="0.3" d="M250.266 77.45L257.03 93.6541L254.671 76.832L250.266 77.45Z" fill="#272525"/>
</g>
<path d="M279.144 0.0114337L205.607 10.3184L215.701 82.3074L289.238 72.0004L279.144 0.0114337Z" fill="#7FC5A3"/>
<path d="M212.211 13.7616C212.324 14.5806 211.755 15.3359 210.936 15.4487C210.117 15.5615 209.361 14.9926 209.249 14.1735C209.136 13.3545 209.705 12.5992 210.524 12.4864C211.343 12.3736 212.099 12.9425 212.211 13.7616Z" fill="#BABCBE"/>
<path d="M277.118 4.65902C277.23 5.47806 276.661 6.23333 275.842 6.34614C275.023 6.45894 274.268 5.89003 274.155 5.07099C274.042 4.25196 274.611 3.49668 275.43 3.38388C276.249 3.27108 277.005 3.83999 277.118 4.65902Z" fill="#BABCBE"/>
<path d="M221.084 77.0086C221.197 77.8277 220.628 78.5829 219.809 78.6957C218.99 78.8085 218.234 78.2396 218.122 77.4206C218.009 76.6016 218.578 75.8463 219.397 75.7335C220.216 75.6207 220.972 76.1896 221.084 77.0086Z" fill="#BABCBE"/>
<path d="M285.987 67.9061C286.1 68.7251 285.531 69.4804 284.711 69.5932C283.892 69.706 283.137 69.1371 283.024 68.3181C282.911 67.499 283.48 66.7438 284.299 66.631C285.119 66.5182 285.874 67.0871 285.987 67.9061Z" fill="#BABCBE"/>
<g opacity="0.05">
<path opacity="0.05" d="M279.143 -3.28626e-05C279.113 -0.201113 280.634 66.2436 215.703 82.2957L289.243 71.9866L279.143 -3.28626e-05Z" fill="#272525"/>
</g>
<path d="M218.808 34.5415C218.867 34.5317 218.93 34.5268 218.989 34.517C220.794 34.2619 222.58 33.8696 224.331 33.3497C224.763 35.3703 225.16 37.4008 225.508 39.4312C225.606 39.9903 226.126 40.3679 226.681 40.2895C226.691 40.2895 226.705 40.2894 226.715 40.2845C227.284 40.1865 227.667 39.647 227.569 39.0781C226.794 34.566 225.808 30.0344 224.645 25.6106C224.498 25.0515 223.924 24.7229 223.37 24.8651C222.81 25.0123 222.477 25.5812 222.624 26.1403C223.07 27.847 223.487 29.5734 223.88 31.3046C222.016 31.8637 220.103 32.2659 218.175 32.5062L216.723 27.8862C216.551 27.3369 215.958 27.028 215.413 27.2045C214.864 27.3762 214.56 27.9647 214.732 28.514L218.661 41.03C218.818 41.5254 219.303 41.8196 219.799 41.751C219.858 41.7411 219.911 41.7313 219.965 41.7117C220.515 41.5401 220.819 40.9515 220.647 40.4022L218.803 34.5366L218.808 34.5415Z" fill="white"/>
<path d="M237.663 24.3894C237.58 23.8204 237.055 23.4281 236.486 23.5066H236.481C235.912 23.5899 235.515 24.1196 235.598 24.6934C236.089 28.0382 236.594 31.4958 236.231 34.8602C236.113 35.9539 235.849 36.6013 235.427 36.8416C234.818 37.1849 233.837 36.67 233.185 35.9833C232.13 34.8799 231.341 33.3154 230.772 31.2065C230.517 30.2599 230.315 29.2594 230.119 28.2982C229.928 27.3565 229.732 26.3854 229.482 25.4242C229.334 24.8651 228.76 24.5365 228.206 24.6787C227.647 24.8258 227.313 25.3948 227.461 25.9539C227.696 26.8514 227.887 27.7979 228.069 28.7101C228.27 29.7057 228.476 30.7356 228.751 31.7509C229.413 34.208 230.369 36.0618 231.669 37.4252C232.636 38.4355 234.063 39.1957 235.422 39.0044C235.77 38.9554 236.118 38.8426 236.452 38.6562C238.017 37.7685 238.233 35.7479 238.306 35.0809C238.694 31.4566 238.169 27.8617 237.663 24.3894Z" fill="white"/>
<path d="M250.727 37.3515C251.296 37.2681 251.688 36.7384 251.605 36.1646L249.647 22.9277C249.579 22.4765 249.23 22.1185 248.779 22.0498C248.328 21.9811 247.881 22.2067 247.68 22.6187C246.763 24.4775 246.017 26.4147 245.453 28.4059L242.716 22.9326C242.505 22.5108 242.044 22.2803 241.573 22.3784C241.112 22.4716 240.769 22.8639 240.739 23.3347C240.45 27.9792 240.597 32.6727 241.186 37.2877C241.259 37.8616 241.779 38.2637 242.353 38.1901H242.368C242.932 38.1068 243.329 37.5918 243.261 37.0229C242.863 33.889 242.672 30.7109 242.692 27.5427L244.875 31.9174C245.076 32.3196 245.507 32.5452 245.949 32.4863C246.39 32.4226 246.743 32.0891 246.832 31.6477C247.141 30.0341 247.572 28.4451 248.127 26.9051L249.544 36.4736C249.628 37.0425 250.153 37.4349 250.722 37.3564H250.731L250.727 37.3515Z" fill="white"/>
<path d="M262.951 35.7824C263.505 35.6157 263.819 35.0369 263.652 34.4827C263.113 32.6828 262.5 30.9025 261.818 29.1468C261.96 29.1124 262.107 29.0879 262.25 29.0585C262.814 28.931 263.162 28.367 263.034 27.8079C262.907 27.2439 262.353 26.8907 261.784 27.0232C261.533 27.082 261.273 27.1262 261.023 27.185C260.145 25.1104 259.179 23.0751 258.11 21.0987C257.644 20.2355 256.873 20.0589 256.309 20.2698C255.74 20.4856 255.544 20.9957 255.475 21.1624C254.367 24.007 254.161 27.0183 253.965 29.9266C253.847 31.6823 253.724 33.5019 253.396 35.2184C253.288 35.7824 253.66 36.3317 254.225 36.4396C254.794 36.5475 255.338 36.1748 255.446 35.6058C255.784 33.8256 255.912 32.006 256.035 30.2453C257.271 30.0541 258.507 29.8285 259.743 29.5833C260.454 31.393 261.102 33.2272 261.656 35.0811C261.808 35.5813 262.299 35.8854 262.799 35.8167C262.853 35.8118 262.902 35.7971 262.956 35.7824H262.951ZM256.192 28.1021C256.329 26.4739 256.52 24.8947 256.942 23.3694C257.653 24.7622 258.306 26.1894 258.924 27.6264C258.016 27.803 257.104 27.9599 256.192 28.1021Z" fill="white"/>
<path d="M275.921 18.0136C275.371 17.837 274.783 18.1411 274.611 18.6904C273.679 21.6134 273.188 24.6394 272.909 27.636C271.53 24.6541 269.652 21.9175 267.346 19.5536C266.581 18.764 265.723 18.8228 265.217 19.225C264.756 19.5879 264.693 20.1127 264.668 20.3039C264.344 22.7905 264.688 25.2476 265.065 27.5526C265.438 29.8185 265.88 32.1137 266.38 34.3648C266.498 34.8994 267.008 35.2476 267.542 35.1741C267.567 35.1741 267.596 35.1643 267.626 35.1593C268.19 35.0367 268.543 34.4776 268.421 33.9136C267.93 31.6968 267.498 29.4457 267.13 27.2142C266.846 25.483 266.581 23.6684 266.64 21.8488C269.485 25.0318 271.545 28.8621 272.629 32.9965C272.762 33.4968 273.238 33.8254 273.753 33.7714C274.248 33.7322 274.66 33.2957 274.685 32.7758C274.861 28.3619 275.219 23.6782 276.607 19.328C276.784 18.7787 276.48 18.1901 275.93 18.0185L275.921 18.0136Z" fill="white"/>
<path d="M234.583 59.2838C233.96 59.1661 233.357 58.7051 232.724 58.2196C232.582 58.1117 232.439 58.0038 232.302 57.9008C231.478 57.2926 230.6 56.7728 229.673 56.3461C230.727 55.5074 231.709 54.5805 232.606 53.58C232.905 53.2465 233.465 52.6188 233.597 51.785C233.769 50.6913 233.19 49.578 232.047 48.7933C230.325 47.6114 227.995 47.3662 225.135 48.0577C225.013 48.0871 224.9 48.1411 224.797 48.2097C224.228 48.3176 223.86 48.8669 223.968 49.4309L226.514 62.7463C226.617 63.2956 227.137 63.6585 227.681 63.585C227.696 63.585 227.716 63.5801 227.735 63.5752C228.299 63.4673 228.672 62.9229 228.564 62.354L227.696 57.8027C228.898 58.2294 230.031 58.8179 231.061 59.5781C231.193 59.6762 231.326 59.7792 231.458 59.8773C232.219 60.4609 233.082 61.1181 234.191 61.3339C234.308 61.3584 234.421 61.3584 234.534 61.3437C234.966 61.2848 235.329 60.9562 235.412 60.505C235.52 59.941 235.147 59.3917 234.583 59.2838ZM227.259 55.532L226.195 49.9704C228.187 49.578 229.756 49.7595 230.865 50.5197C231.292 50.809 231.571 51.2063 231.527 51.4662C231.493 51.6918 231.203 52.0155 231.046 52.1921C229.918 53.4525 228.643 54.5707 227.255 55.5369L227.259 55.532Z" fill="white"/>
<path d="M235.456 46.7143C234.901 46.8663 234.573 47.4401 234.725 47.9992C235.902 52.266 236.957 56.626 237.849 60.9566C237.962 61.4961 238.477 61.8541 239.017 61.7806C239.041 61.7806 239.061 61.7757 239.085 61.7707C239.65 61.653 240.013 61.0988 239.895 60.5348C238.987 56.1601 237.928 51.756 236.736 47.445C236.584 46.8908 236.005 46.5573 235.451 46.7192L235.456 46.7143Z" fill="white"/>
<path d="M250.642 51.5938L247.115 52.0891C246.546 52.1676 246.144 52.6973 246.228 53.2662C246.306 53.8351 246.836 54.2372 247.405 54.1539L248.548 53.992C248.592 55.017 248.435 56.0617 248.072 57.018C247.89 57.4987 247.704 57.8126 247.493 57.9989C247.179 58.2687 246.654 58.3618 246.149 58.2392C245.639 58.1166 245.119 57.7929 244.604 57.278C243.456 56.1352 242.725 54.4236 242.588 52.5845C242.46 50.8728 242.907 49.3868 243.804 48.504C244.638 47.685 246.262 47.3956 247.096 48.249C247.395 48.5531 247.851 48.6462 248.249 48.4795C248.641 48.3127 248.896 47.9204 248.886 47.4937L248.837 45.429C248.822 44.8551 248.347 44.399 247.768 44.4088C247.189 44.4187 246.738 44.8993 246.747 45.478V45.7576C245.197 45.3897 243.432 45.939 242.343 47.0033C240.999 48.3176 240.331 50.402 240.503 52.7316C240.68 55.0955 241.612 57.2338 243.127 58.7493C243.917 59.534 244.766 60.0441 245.654 60.2598C246.149 60.3825 246.649 60.407 247.125 60.3383C247.778 60.2451 248.381 59.9852 248.862 59.5683C249.504 59.0141 249.833 58.2638 250.029 57.7488C250.515 56.4638 250.716 55.0661 250.628 53.6929L250.927 53.6487C251.496 53.5703 251.898 53.0406 251.815 52.4717C251.736 51.9028 251.206 51.5006 250.637 51.584L250.642 51.5938Z" fill="white"/>
<path d="M260.174 42.8692C259.61 42.9968 259.256 43.551 259.384 44.115C259.791 45.9394 260.154 47.7884 260.483 49.6422L254.979 50.6035L253.723 45.704C253.581 45.1449 253.012 44.8065 252.453 44.9536C251.894 45.0958 251.555 45.6648 251.702 46.2239L254.896 58.681C255.028 59.2009 255.528 59.5295 256.048 59.4559C256.088 59.451 256.127 59.4412 256.166 59.4314C256.725 59.2892 257.064 58.7202 256.917 58.1611L255.499 52.629L260.826 51.6972C261.096 53.399 261.341 55.1106 261.542 56.8124C261.611 57.3862 262.126 57.7933 262.7 57.7296C262.71 57.7296 262.715 57.7296 262.725 57.7296C263.284 57.6511 263.681 57.141 263.617 56.577C263.112 52.2563 262.376 47.911 261.425 43.6638C261.297 43.0998 260.733 42.7515 260.179 42.8742L260.174 42.8692Z" fill="white"/>
<path d="M272.57 41.9863C269.77 42.0697 266.959 42.3787 264.207 42.9084C263.643 43.0162 263.27 43.5655 263.378 44.1295C263.486 44.6936 264.035 45.0712 264.599 44.9584C265.517 44.7818 266.444 44.6396 267.376 44.5121C267.582 48.4797 268.009 52.4768 268.646 56.3954C268.739 56.9545 269.259 57.342 269.819 57.2635C269.828 57.2635 269.833 57.2635 269.843 57.2635C270.412 57.1703 270.8 56.6357 270.706 56.0668C270.074 52.1826 269.652 48.2149 269.451 44.2816C270.51 44.1835 271.57 44.105 272.629 44.0756C272.669 44.0756 272.708 44.0756 272.747 44.0658C273.267 43.9922 273.659 43.5361 273.645 43.0015C273.63 42.4228 273.144 41.9716 272.57 41.9912V41.9863Z" fill="white"/>
<path d="M372.119 118.544C372.237 118.647 372.359 118.76 372.443 118.887C373.198 120.094 372.87 121.178 373.267 122.541C373.443 123.149 375.003 123.62 374.135 124.616C373.816 124.983 372.904 125.778 372.217 126.558C371.212 127.696 370.628 129.741 370.461 131.457C369.814 138.186 371.01 144.9 372.408 151.506C372.487 151.884 372.575 152.276 372.82 152.571C373.257 153.105 374.032 153.169 374.724 153.208C377.917 153.385 381.091 153.861 384.196 154.626C386.967 155.307 389.749 156.259 391.951 158.064C394.153 159.868 395.704 162.693 395.355 165.523C395.095 167.642 393.746 169.599 391.858 170.599C387.173 173.071 381.189 168.167 377.196 165.999C373.419 163.949 369.789 161.634 366.336 159.079C365.909 158.765 365.472 158.431 365.208 157.975C364.923 157.49 364.854 156.906 364.795 156.342C364.03 149.103 363.913 141.84 363.937 134.537C363.942 132.531 365.006 130.78 364.997 128.927C364.992 127.74 364.133 126.818 363.878 125.699C363.628 124.596 363.579 123.081 363.756 121.962C364.099 119.755 366.144 118.696 367.842 117.593C368.264 117.318 368.548 117.132 369.019 117.087C369.784 117.019 370.417 117.416 371.055 117.784C371.432 118.005 371.795 118.255 372.124 118.544H372.119Z" fill="#EFBFA5"/>
<path d="M379.217 165.675C380.016 161.467 380.811 157.259 381.61 153.051C381.561 153.321 400.932 155.503 402.08 155.67C406.465 156.318 411.003 157.019 414.716 159.437C422.643 164.601 420.333 176.838 410.605 177.951C400.049 179.157 388.139 176.44 379.025 171.036C378.829 170.918 378.623 170.79 378.505 170.589C378.348 170.315 378.402 169.971 378.461 169.662C378.711 168.333 378.967 167.004 379.217 165.675Z" fill="#474EBB"/>
<path d="M203.607 207.402L199.438 209.29L201.758 216.549L206.481 217.279L209.155 214.155L206.28 211.943L207.06 211.59L208.203 212.032L208.625 210.879L203.607 207.402Z" fill="#B97262"/>
<path d="M200.325 151.521C201.262 150.585 202.219 149.667 203.2 148.775C205.859 146.347 208.875 143.988 212.451 143.527C213.491 143.395 214.585 143.434 215.527 143.895C216.439 144.341 217.131 145.141 217.666 146.004C220.256 150.158 219.51 155.68 217.263 160.026C215.012 164.371 211.47 167.877 208.306 171.61C204.912 175.612 199.354 180.972 199.614 186.392C199.933 193.017 203.995 201.35 205.78 207.829L199.536 211.002C199.536 211.002 182.985 182.125 182.583 181.423C181.524 179.574 183.628 174.788 184.418 173.262C188.563 165.259 193.954 157.897 200.325 151.521Z" fill="#8EC3CB"/>
</g>
<defs>
<clipPath id="clip0_1355_991">
<rect width="466" height="346" fill="white"/>
</clipPath>
</defs>
</svg>
