<svg width="533" height="370" viewBox="0 0 533 370" fill="none" xmlns="http://www.w3.org/2000/svg">
<g clip-path="url(#clip0_1350_82)">
<path d="M191.666 318.185C194.47 302.91 199.692 288.063 207.423 274.304C209.614 270.406 211.996 266.602 214.554 262.9C215.762 261.154 212.753 259.542 211.552 261.279C202.385 274.554 195.509 289.198 191.281 304.453C190.1 308.711 189.145 313.011 188.409 317.353C188.27 318.185 188.64 319.031 189.588 319.271C190.399 319.477 191.512 319.016 191.666 318.182V318.185Z" fill="#13375B"/>
<path d="M226.492 267.117C228.874 269.15 230.067 271.996 231.074 274.775C232.292 278.133 233.255 281.57 234.027 285.038C235.544 291.867 236.272 298.814 236.723 305.763C236.985 309.793 237.151 313.826 237.316 317.861C237.401 319.953 240.935 319.963 240.847 317.861C240.246 303.32 239.629 288.465 234.657 274.527C233.414 271.042 231.959 267.387 228.869 264.922C228.183 264.372 227.166 264.299 226.489 264.922C225.864 265.498 225.82 266.548 226.489 267.119L226.492 267.117Z" fill="#13375B"/>
<path d="M231.743 254.771H184.656C181.292 254.771 178.564 257.283 178.564 260.381C178.564 263.479 181.282 266.258 184.647 266.258L239.421 268.25C242.543 268.25 246.025 264.033 246.78 261.244L260.907 208.95C261.777 205.732 259.615 202.482 256.109 201.729C252.69 200.996 249.264 202.914 248.394 206.044L235.627 251.997C235.174 253.63 233.576 254.771 231.746 254.771H231.743Z" fill="#13375B"/>
<path d="M216.167 128.71L211.89 128.558L211.486 132.532L207.266 132.569L206.414 136.317L203.26 136.861L203.537 138.461L207.754 137.732L208.563 134.178L212.952 134.139L213.349 130.233L217.223 130.368L216.167 128.71Z" fill="#466EB6"/>
<path d="M164.471 201.692L163.817 203.981L167.378 205.44L166.834 208.901L169.319 210.43L168.547 211.688L165.221 209.645L165.736 206.365L162.033 204.847L163.016 201.405L164.471 201.692Z" fill="#F7CC7F"/>
<path d="M261.926 190.168L258.662 190.885L256.596 188.172L252.992 189.231L251.683 185.662L247.557 186.683L245.944 183.545L241.812 183.877L241.937 185.442L245.028 185.194L246.728 188.505L250.696 187.524L252.026 191.154L256.003 189.982L258.02 192.634L261.047 191.969L262.007 193.988L263.424 193.311L261.926 190.168Z" fill="#F7CC7F"/>
<path d="M175.202 200.203L177.202 198.893L176.349 197.579L173.114 199.693L175.148 203.306L173.021 205.87L174.347 208.673L172.6 210.064L173.575 211.293L176.297 209.127L174.866 206.103L177.045 203.478L175.202 200.203Z" fill="#F7CC7F"/>
<path d="M129.831 248.847H192.221V228.27H129.831V248.847Z" fill="#86B1F2"/>
<path d="M103.978 307.374H150.641V227.092H103.978V307.374Z" fill="#FAE0B2"/>
<path d="M189.415 317.672H196.012V224.232H189.415V317.672Z" fill="#184655"/>
<path d="M123.353 317.674H128.088V307.178H123.353V317.674Z" fill="#184655"/>
<path d="M97.1054 317.665H101.84V307.338H97.1054V317.665Z" fill="#184655"/>
<path d="M136.934 222.452C137.046 222.452 137.159 222.439 137.272 222.412C138.245 222.194 138.884 221.088 138.698 219.945C138.698 219.945 130.967 175.26 130.361 175.031C130.17 174.958 129.714 174.043 129.697 174.043C129.604 174.043 129.511 174.058 129.415 174.08C128.443 174.298 127.803 175.404 127.989 176.547L135.172 220.737C135.336 221.748 136.088 222.452 136.934 222.452Z" fill="#355389"/>
<path d="M152.662 178.23L159.815 221.304L137.625 221.613L129.695 174.043L149.878 175.166C151.402 175.235 152.47 177.05 152.662 178.23Z" fill="#466EB6"/>
<path d="M190.919 220.376C190.919 220.401 190.919 220.426 190.919 220.45C190.919 221.824 190.121 222.957 189.121 222.959L160.94 223.031C159.942 223.033 159.131 221.922 159.129 220.548C159.129 220.489 159.129 220.433 159.134 220.376H190.917H190.919Z" fill="#355389"/>
<path d="M182.769 220.374C182.769 220.399 182.769 220.423 182.769 220.45C182.771 221.843 181.561 222.974 180.066 222.979L137.853 223.067C136.359 223.07 135.143 221.944 135.141 220.551C135.141 220.492 135.143 220.433 135.148 220.376H182.766L182.769 220.374Z" fill="#355389"/>
<path d="M174.052 298.338C172.336 301.532 168.144 312.057 167.984 312.854C167.938 313.085 167.345 313.853 167.146 313.997C161.733 314.54 157.77 311.63 154.764 308.76C157.604 308.959 161.944 308.226 162.576 308.118C164.223 307.836 164.046 302.822 164.987 297.188C166.448 297.857 171.927 296.41 174.052 298.335V298.338Z" fill="#F7A491"/>
<path d="M168.006 312.786C167.557 314.547 165.692 317.797 165.332 317.704C164.903 317.593 148.921 311.849 147.546 309.558C146.698 308.145 151.068 308.076 154.584 308.255C157.591 311.125 167.082 313.242 168.006 312.786Z" fill="#355389"/>
<path d="M225.69 253.311L188.51 255.455L174.954 302.439L164.182 300.329C164.182 300.329 170.227 251.722 173.748 247.653C183.352 236.558 216.909 237.87 216.909 237.87L225.687 253.311H225.69Z" fill="#3C8F7C"/>
<path d="M197.002 300.864C196.865 303.03 196.37 305.65 196.465 308.176C196.531 309.871 197.159 311.934 197.235 312.253C197.289 312.481 197.068 313.428 196.948 313.641C192.253 316.393 187.44 315.403 183.512 314.048C186.175 313.045 188.03 311.046 188.699 310.32C189.832 309.089 189.025 305.399 187.533 299.888C189.141 299.888 194.265 300.001 196.999 300.864H197.002Z" fill="#F7A491"/>
<path d="M221.838 234.571C221.838 234.571 187.163 235.224 178.449 247.989C171.928 257.54 188.165 304.654 188.165 304.654L197.935 302.853C197.935 302.853 195.686 270.928 194.056 260.396C193.779 258.61 192.51 253.339 192.51 253.339C192.51 253.339 196.845 254.631 204.897 255.146C215.961 255.853 232.064 255.666 235.538 253.856C241.545 250.729 244.064 242.251 241.42 236.72C238.776 231.189 221.835 234.574 221.835 234.574L221.838 234.571Z" fill="#50BFA5"/>
<path d="M197.226 312.182C197.836 313.298 198.142 317.628 197.777 317.691C197.341 317.77 178.974 318.8 176.769 317.289C175.409 316.357 180.243 315.354 183.515 314.049C187.443 315.4 197.027 313.377 197.226 312.18V312.182Z" fill="#355389"/>
<path d="M195.203 211.465C195.203 211.465 185.105 213.991 180.057 215.6C175.008 217.21 168.581 217.668 168.581 217.668L163.15 220.541L174.778 220.884L201.859 218.473L204.155 212.157L195.206 211.467L195.203 211.465Z" fill="#F48C7F"/>
<path d="M202.777 191.017L197.957 191.706C197.957 191.706 196.236 192.05 194.859 199.632C193.482 207.214 191.531 211.234 191.531 211.234L203.35 215.944C211.988 204.003 217.909 189.857 202.777 191.019V191.017Z" fill="#B75742"/>
<path d="M202.485 184.144C199.407 184.684 199.219 187.171 199.219 187.171L196.067 200.323C196.067 200.323 195.778 205.894 196.415 208.026C197.658 212.174 200.17 213.807 204.286 215.218C209.741 217.087 211.898 221.794 214.25 224.541C218.333 229.307 215.01 235.01 215.01 235.01L243.539 239.018C243.539 239.018 243.926 233.445 237.464 217.783C231.852 204.184 218.404 181.357 202.488 184.144H202.485Z" fill="#F47458"/>
<path d="M212.646 185.733C209.147 181.885 200.254 186.653 203.008 199.401C203.025 199.485 204.032 212.87 203.182 214.572C202.665 215.605 190.273 215.09 182.772 216.67C182.772 216.67 174.661 213.658 171.813 213.454C169.703 213.304 164.68 214.909 164.68 214.909C164.68 214.909 158.208 219.689 159.114 220.479C160.352 221.561 163.398 216.841 165.961 216.841C165.961 216.841 161.288 220.457 162.729 220.536C164.17 220.617 166.162 219.535 167.204 219.216C168.245 218.895 172.08 220.823 175.467 221.225C176.025 221.291 178.238 221.171 180.802 221.512C183.404 221.858 186.345 222.807 189.79 222.966C199.053 223.398 209.536 224.421 212.131 221.809C214.067 219.859 218.532 192.207 212.646 185.733Z" fill="#F7A491"/>
<path d="M214.212 213.92C208.557 213.186 202.884 211.043 202.884 211.043C202.884 211.043 202.418 199.828 202.376 199.403C202.014 193.546 202.232 188.831 204.682 185.792C205.915 184.261 207.233 183.898 208.802 183.898C210.269 183.898 212.316 184.475 213.391 185.851C217.337 190.892 215.827 205.565 214.595 213.633L214.543 213.966L214.21 213.922L214.212 213.92Z" fill="#B75742"/>
<path d="M199.926 162.453C200.36 158.675 200.355 144.316 209.074 144.612C217.793 144.909 217.844 154.512 224.904 142.939C231.444 132.218 243.525 139.147 242.403 148.019C243.65 148.147 244.873 148.566 245.976 149.3C249.789 151.836 250.708 157.162 248.032 161.194C247.606 161.834 247.642 162.558 247.103 163.053C247.373 167.062 245.858 171.298 242.072 175.173C231.729 185.758 226.078 171.472 220.508 171.119C214.938 170.763 217.677 175.696 212.333 178.122C206.991 180.548 203.361 178.958 197.409 168.435L195.99 165.578C195.99 165.578 199.494 166.232 199.928 162.455L199.926 162.453Z" fill="#B75742"/>
<path d="M194.898 159.853C201.032 164.138 202.387 175.048 196.741 180.258C193.073 183.643 185.844 184.235 181.83 180.874C175.321 175.426 174.593 169.262 176.902 164.422C179.879 158.177 189.836 156.318 194.896 159.853H194.898Z" fill="#B75742"/>
<path d="M196.813 174.634C196.813 174.634 198.703 180.506 205.358 183.896C206.177 184.313 196.073 200.581 196.068 200.387C196.039 199.131 197.816 191.804 197.384 190.902C196.203 188.436 189.342 177.2 189.342 177.2L196.816 174.634H196.813Z" fill="#F7A491"/>
<path d="M192.998 175.946L189.342 177.202C189.342 177.202 192.356 182.14 194.73 186.182C195.571 185.49 196.318 184.49 196.911 183.116C197.865 180.918 198.007 178.63 197.642 176.456C197.046 175.365 196.813 174.636 196.813 174.636L192.996 175.946H192.998Z" fill="#F47458"/>
<path d="M183.197 163.613C183.197 163.613 186.471 162.227 190.031 163.561C193.592 164.896 199.99 173.562 196.692 181.164C193.394 188.765 185.513 184.988 182.013 180.165C178.514 175.345 175.032 168.075 183.195 163.611L183.197 163.613Z" fill="#F7A491"/>
<path d="M197.384 167.918C194.564 163.014 191.469 160.137 187.116 161.253C182.767 162.369 178.866 163.115 178.571 168.227L178.258 169.1C178.258 169.1 184.558 166.019 187.17 168.431C189.783 170.842 195.255 171.629 195.982 173.3C196.71 174.97 198.509 177.997 198.509 177.997L198.835 176.118C198.835 176.118 200.205 172.824 197.384 167.92V167.918Z" fill="#B75742"/>
<path d="M190.741 170.923C191.329 172.443 192.66 173.322 193.713 172.885C194.767 172.448 195.142 170.859 194.554 169.338C193.966 167.817 192.635 166.939 191.581 167.376C190.528 167.815 190.153 169.402 190.741 170.923Z" fill="#F7A491"/>
<path d="M78.3692 307.374H154.252V227.092H78.3692L78.3692 307.374Z" fill="#86B1F2"/>
<path d="M153.196 317.711H159.465V225.314H153.196V317.711Z" fill="#184655"/>
<path d="M76.7129 318.405H80.2539L80.2539 226.008H76.7129L76.7129 318.405Z" fill="#184655"/>
<path d="M201.026 228.65L64.3652 228.65C63.0272 228.65 61.9416 227.563 61.9416 226.224V225.388C61.9416 224.048 63.0272 222.962 64.3652 222.962L201.026 222.962C202.364 222.962 203.449 224.048 203.449 225.388V226.224C203.449 227.563 202.364 228.65 201.026 228.65Z" fill="#184655"/>
<path d="M509.944 319.026C509.944 318.084 509.478 317.318 508.905 317.318H42.451C41.755 317.318 41.1914 318.084 41.1914 319.026C41.1914 319.968 41.755 320.733 42.451 320.733H508.907C509.481 320.733 509.946 319.968 509.946 319.026H509.944Z" fill="#86B1F2"/>
<path d="M403.642 45.394L337.963 45.394C331.704 45.394 326.625 40.3091 326.625 34.0443V11.3474C326.625 5.08259 331.704 -0.00233841 337.963 -0.00233841L403.642 -0.00233841C409.898 -0.00233841 414.98 5.08259 414.98 11.3474V34.0443C414.98 40.3067 409.901 45.394 403.642 45.394Z" fill="#F7A491"/>
<path d="M391.416 39.8849L393.082 72.0477L370.41 39.1343L391.416 39.8849Z" fill="#F7A491"/>
<path d="M302.867 138.799L304.325 132.161C304.325 132.161 309.096 135.191 311.88 139.52C314.664 143.85 315.99 155.393 316.784 155.825C317.578 156.257 326.385 142.677 327.924 140.538C329.828 137.892 330.538 134.852 331.732 132.544C332.925 130.236 337.123 129.449 338.713 129.738C340.304 130.027 336.53 136.78 336.53 136.78C336.53 136.78 326.988 153.374 323.807 162.465C320.626 171.556 310.687 175.885 309.096 174.585C307.506 173.287 302.867 138.799 302.867 138.799Z" fill="#F48C7F"/>
<path d="M331.833 133.815C331.833 133.815 332.23 132.068 333.301 131.71C334.372 131.352 336.237 131.671 336.357 131.71C336.475 131.749 338.538 130.638 338.538 130.638L336.833 133.815C336.833 133.815 333.5 137.747 332.39 136.277C331.28 134.808 331.833 133.815 331.833 133.815Z" fill="#F7A491"/>
<path d="M339.133 130.783C339.133 130.783 340.337 136.911 340.033 138.196C339.726 139.484 338.959 138.794 338.817 138.515C338.224 137.362 337.812 133.432 337.812 133.432L339.136 130.786L339.133 130.783Z" fill="#F48C7F"/>
<path d="M336.541 135.88C336.541 135.88 337.114 139.682 337.705 140.129C338.087 140.421 338.577 140.249 338.737 139.481C338.896 138.713 337.97 134.028 337.97 134.028L336.541 135.88Z" fill="#F48C7F"/>
<path d="M333.034 146.666L331.037 145.692L339.518 128.273C340.621 128.811 341.079 130.143 340.543 131.246L333.034 146.666Z" fill="#184655"/>
<path d="M311.72 111.505C312.919 106.057 314.09 100.575 310.934 94.5924C308.38 89.7504 303.964 86.9638 298.855 86.3555C284.375 84.636 287.47 98.1664 267.234 101.095C260.946 102.005 255.104 102.881 249.855 106.011C240.373 111.662 236.796 120.731 243.084 135.502C258.478 171.673 296.265 140.968 300.933 133.844C304.406 128.546 310.951 115.013 311.723 111.505H311.72Z" fill="#13375B"/>
<path d="M253.815 339.986C253.815 339.986 252.783 350.465 250.134 352.388C247.483 354.311 243.949 361.429 245.716 365.278C246.267 366.48 247.372 367.177 248.629 367.564C252.354 368.712 256.314 366.779 257.9 363.218C258.784 361.228 259.564 358.572 259.718 355.228C260.115 346.714 262.767 342.385 262.767 342.385L253.815 339.988V339.986Z" fill="#F7A491"/>
<path d="M294.545 344.276C294.545 344.276 295.38 354.848 294.701 358.285C294.339 360.125 292.315 363.912 293.243 365.644C294.172 367.376 295.231 367.807 295.231 367.807L319.273 368.195C320.581 368.217 319.716 367.373 318.66 366.598C316.933 365.327 315.538 364.489 310.017 361.822C309.657 361.648 308.346 360.816 307.873 360.527C306.675 359.796 305.472 358.646 304.432 357.493C302.707 355.572 302.555 346.261 302.555 346.261L294.542 344.276H294.545Z" fill="#F7A491"/>
<path d="M313.334 203.733C313.334 203.733 316.361 220.901 314.373 232.155C312.386 243.409 302.844 347.73 302.844 347.73L292.24 348.328C292.24 348.328 290.018 304.752 290.415 298.691C290.812 292.63 293.958 282.489 293.958 282.489L292.902 247.307L306.282 201.086L313.329 203.736L313.334 203.733Z" fill="#3C8F7C"/>
<path d="M282.175 200.122C282.175 200.122 273.826 212.676 271.839 223.065C269.851 233.453 273.297 265.38 269.474 278.994C267.403 286.362 259.559 297.744 258.366 307.266C257.172 316.789 252.494 341.735 252.494 341.735L263.093 343.835L287.723 281.538L307.043 225.23L311.993 196.229L282.177 200.125L282.175 200.122Z" fill="#50BFA5"/>
<path d="M288.931 128.7C288.931 128.7 281.621 129.532 277.247 134.293C272.873 139.054 284.315 177.33 285.111 183.388C285.907 189.449 278.595 203.586 278.595 203.586C278.595 203.586 305.913 208.639 313.334 203.733C313.334 203.733 314.128 160.157 313.334 155.827C312.537 151.498 305.913 133.893 304.323 132.164C302.733 130.432 288.931 128.7 288.931 128.7Z" fill="#FAE0B2"/>
<path d="M278.594 137.884C279.299 135.753 281.713 134.725 283.774 135.615C286.597 136.837 290.493 139.155 292.397 143.129C295.578 149.766 306.711 172.564 310.156 173.43C313.602 174.296 327.648 149.766 327.648 149.766C327.648 149.766 327.251 145.437 328.444 142.984C329.638 140.531 333.216 137.933 333.745 138.799C334.274 139.665 331.758 141.829 331.758 142.263C331.758 142.697 332.819 142.984 334.277 142.118C335.735 141.252 336.524 139.501 336.524 139.501C336.524 139.501 338.915 143.85 336.396 147.745C333.877 151.64 332.819 153.227 332.819 153.227C332.819 153.227 316.518 189.445 310.556 189.879C305.003 190.281 273.016 154.77 278.596 137.884H278.594Z" fill="#F7A491"/>
<path d="M292.611 113.944C292.611 113.944 292.554 114.27 292.451 114.822C291.959 117.476 290.062 126.284 288.778 128.705C287.229 131.632 294.083 140.963 300.68 139.824C302.643 139.486 299.021 131.251 299.195 130.378C299.528 128.708 299.982 126.431 300.443 124.094C300.705 122.777 300.967 121.44 301.217 120.184C301.923 116.615 302.499 113.696 302.499 113.696L292.613 113.941L292.611 113.944Z" fill="#F7A491"/>
<path d="M292.452 114.824C292.555 114.27 292.611 113.946 292.611 113.946L302.497 113.701C302.497 113.701 301.921 116.62 301.215 120.189C300.967 121.437 300.705 122.764 300.445 124.077C298.919 123.851 297.323 123.11 295.726 121.712C293.983 120.189 292.839 118.356 292.15 116.401C292.273 115.778 292.373 115.239 292.449 114.827L292.452 114.824Z" fill="#F47458"/>
<path d="M298.558 90.4272C298.558 90.4272 294.527 90.9865 291.606 94.7616C288.685 98.5342 285.539 110.205 292.792 116.548C300.048 122.892 307.216 115.712 308.28 108.098C309.343 100.484 309.128 90.155 298.558 90.4297V90.4272Z" fill="#F7A491"/>
<path d="M310.601 105.493C309.736 107.176 308.283 108.106 307.354 107.574C306.428 107.041 306.376 105.246 307.244 103.563C308.109 101.88 309.565 100.951 310.491 101.483C311.417 102.015 311.466 103.811 310.601 105.493Z" fill="#F7A491"/>
<path d="M299.785 90.2506C299.785 90.2506 293.561 101.348 289.109 101.86C284.656 102.373 284.07 108.27 284.07 108.27C284.07 108.27 285.663 94.683 290.072 92.0633C294.48 89.4436 299.785 90.2506 299.785 90.2506Z" fill="#13375B"/>
<path d="M290.565 104.505C290.927 106.475 290.197 108.282 288.938 108.542C287.678 108.8 286.362 107.414 285.999 105.442C285.637 103.472 286.365 101.664 287.627 101.404C288.886 101.147 290.202 102.533 290.565 104.505Z" fill="#F7A491"/>
<path d="M258.622 361.344C252.846 362.396 249.003 359.021 247.004 356.494C245.536 359.357 244.637 362.928 245.715 365.281C246.666 367.351 249.256 367.917 251.444 367.998C253.757 368.084 255.921 366.872 257.071 364.861C257.607 363.922 258.159 362.752 258.622 361.344Z" fill="#3C8F7C"/>
<path d="M307.87 360.525C301.511 362.153 296.811 361.047 294.182 359.987C293.503 361.908 292.604 364.314 293.082 365.703C293.665 367.403 294.496 367.788 295.231 367.807C301.038 367.959 316.504 368.168 320.932 368.224C321.549 368.232 321.892 367.51 321.493 367.037C320.395 365.727 308.341 360.814 307.868 360.525H307.87Z" fill="#3C8F7C"/>
<path d="M45.3002 113.399C55.3669 99.199 77.772 105.766 78.4263 123.167C78.4336 123.37 78.441 123.576 78.4434 123.78C78.8894 144.355 63.2502 149.722 68.166 164.481C73.0817 179.241 88.0151 168.234 93.8253 192.386C99.6331 216.54 79.7863 229.928 81.5727 244.241C83.3592 258.554 91.8502 268.093 91.4042 286.73C91.0709 300.592 65.936 343.535 65.936 343.535C65.936 343.535 32.4227 306.859 31.5307 282.259C30.6828 258.926 47.3635 261.112 48.2555 239.195C49.1499 217.278 16.5188 214.354 32.4227 186.845C35.775 181.046 44.3837 175.392 44.3837 162.87C44.3837 150.348 33.0647 131.266 42.0018 118.148C43.0873 116.556 44.195 114.964 45.3051 113.399H45.3002Z" fill="#50BFA5"/>
<path d="M81.5712 244.243C79.7848 229.93 99.6315 216.54 93.8238 192.388C88.0161 168.237 73.0802 179.243 68.1644 164.484C63.2487 149.725 78.8879 144.358 78.4419 123.782C78.437 123.576 78.4321 123.373 78.4247 123.169C78.0229 112.484 69.4191 105.883 60.5066 105.67L60.4649 106.224C60.4649 106.224 47.955 156.909 56.2941 182.552C64.6332 208.193 71.1859 209.983 67.0176 244.567C62.8468 279.153 65.9345 343.54 65.9345 343.54C65.9345 343.54 91.0719 300.597 91.4027 286.735C91.8511 268.096 83.3601 258.556 81.5712 244.246V244.243Z" fill="#3C8F7C"/>
<path d="M87.2108 360.049H32.7725C25.84 353.507 21.6153 344.497 21.7697 334.614C21.8481 329.623 22.843 325.271 24.9162 321L95.1039 321.815C97.0447 326.157 98.0838 330.923 98.0078 335.914C97.8608 345.329 93.7684 353.818 87.2133 360.049H87.2108Z" fill="#F47458"/>
<path d="M297.052 29.71H350.037C355.085 29.71 359.182 33.8113 359.182 38.8643V57.1754C359.182 62.2285 355.085 66.3298 350.037 66.3298H297.052C292.004 66.3298 287.906 62.2285 287.906 57.1754V38.8643C287.906 33.8113 292.004 29.71 297.052 29.71Z" fill="#FAE0B2"/>
<path d="M310.613 61.2793L303.676 82.1169L323.861 61.2793H310.613Z" fill="#FAE0B2"/>
<path d="M308.828 49.4141C308.828 51.2563 307.231 52.7501 305.258 52.7501C303.285 52.7501 301.688 51.2563 301.688 49.4141C301.688 47.572 303.285 46.0781 305.258 46.0781C307.231 46.0781 308.828 47.572 308.828 49.4141Z" fill="white"/>
<path d="M327.074 49.4141C327.074 51.2563 325.477 52.7501 323.504 52.7501C321.531 52.7501 319.934 51.2563 319.934 49.4141C319.934 47.572 321.531 46.0781 323.504 46.0781C325.477 46.0781 327.074 47.572 327.074 49.4141Z" fill="white"/>
<path d="M345.324 49.4141C345.324 51.2563 343.727 52.7501 341.754 52.7501C339.781 52.7501 338.184 51.2563 338.184 49.4141C338.184 47.572 339.781 46.0781 341.754 46.0781C343.727 46.0781 345.324 47.572 345.324 49.4141Z" fill="white"/>
<path d="M80.266 250.408C80.266 250.408 109.885 241.511 111.079 241.734C112.25 241.952 107.597 251.84 108.18 255.034C108.366 256.059 82.8292 270.676 77.1538 269.599C70.9663 268.424 47.1791 247.942 44.6403 243.5C41.8051 238.535 36.8403 226.155 40.1461 221.492C41.6532 219.368 45.3044 216.538 47.8383 217.136C57.9148 219.515 68.7951 237.38 80.266 250.408Z" fill="#355389"/>
<path d="M81.8939 284.398C81.7003 283.517 75.5544 269.209 75.2408 267.75C71.1582 248.681 55.4455 220.796 48.1699 217.207C46.9936 216.618 38.5957 216.564 38.5957 216.564L42.9356 218.713C47.8807 223.234 53.4164 228.466 56.9452 234.302C67.1835 251.227 74.1576 290.214 75.0888 290.147C76.1303 290.071 82.3228 286.35 81.8915 284.395L81.8939 284.398Z" fill="#466EB6"/>
<path d="M72.1672 284.928C57.7851 276.556 55.5233 256.788 49.4436 246.171C41.9989 233.171 31.0181 231.755 12.1197 255.321C-11.0499 284.209 0.739508 342.326 32.7335 360.951L109.452 360.787C125.258 355.091 132.283 346.737 137.961 332.823C163.211 270.951 104.161 303.553 72.1697 284.93L72.1672 284.928Z" fill="#F7CC7F"/>
<path d="M106.195 349.104C106.195 349.104 105.661 358.567 105.656 358.587C105.46 359.788 104.686 362.757 104.686 363.848C104.686 367.952 122.925 360.365 118.837 358.547C118.467 358.383 115.955 356.21 115.833 354.811C115.644 352.66 115.745 349.236 115.745 349.236L106.195 349.104Z" fill="#F7A491"/>
<path d="M118.572 358.368C118.572 358.368 114.291 359.624 112.098 359.938C109.905 360.252 107.013 357.61 105.462 358.324C104.195 358.908 103.7 363.137 103.531 365.278C103.477 365.958 103.994 366.546 104.673 366.581C109.716 366.843 128.894 367.729 133.869 366.286C136.449 365.538 127.328 361.29 118.572 358.368Z" fill="#07345A"/>
<path d="M157.445 339.616C157.445 339.616 153.164 340.872 150.971 341.186C148.778 341.5 145.886 338.858 144.335 339.572C143.068 340.155 142.573 344.384 142.404 346.526C142.35 347.205 142.945 347.973 143.622 348.039C149.216 348.591 167.764 348.976 172.741 347.534C175.322 346.786 166.201 342.537 157.445 339.616Z" fill="#07345A"/>
<path d="M139.477 331.945C139.477 331.945 144.606 339.167 145.086 340.761C145.566 342.356 157.451 343.523 157.451 339.616C157.451 339.564 153.766 336.564 152.724 335.198C150.984 332.912 146.924 325.273 146.924 325.273L139.477 331.945Z" fill="#F7A491"/>
<path d="M29.0365 174.646C29.0365 174.646 23.2484 170.729 20.8004 177.592C20.8004 177.592 17.5314 176.601 16.1321 179.964C16.1321 179.964 10.5253 179.542 10.986 187.693C10.986 187.693 8.16793 187.782 8.52081 191.078C8.87368 194.375 10.9811 196.161 10.9811 196.161C10.9811 196.161 9.71421 197.638 11.0571 200.444C12.199 202.83 14.3628 202.754 14.3628 202.754C14.3628 202.754 15.8601 206.87 17.9798 207.741C20.0995 208.612 22.4643 207.447 22.4643 207.447C22.4643 207.447 23.6356 209.598 25.7332 208.921C27.8309 208.244 30.0339 205.612 32.6364 206.002C35.2388 206.392 41.2499 204.045 41.2499 204.045C41.2499 204.045 47.5551 199.382 43.8842 192.692C43.8842 192.692 46.8273 188.559 42.7325 185.285C42.7325 185.285 43.7054 178.532 38.248 175.88C32.7932 173.228 29.0365 174.649 29.0365 174.649V174.646Z" fill="#07345A"/>
<path d="M120.803 276.936C115.99 274.566 65.4993 282.438 65.4993 282.438L59.4465 272.778L39.737 277.255C39.737 277.255 34.1596 283.684 33.9293 286.561C33.1819 295.878 37.4482 311.542 42.2586 313.065C59.3926 318.489 96.2288 307.404 101.385 306.219C101.385 306.219 101.198 314.574 102.759 331.629C103.377 338.367 104.186 345.795 104.935 352.292C109.444 352.283 113.953 352.197 118.462 351.603C118.462 351.603 125.615 279.306 120.803 276.936Z" fill="#F47458"/>
<path d="M152.807 330.925C144.169 309.086 125.425 266.229 118.632 265.024C109.727 263.445 65.4902 282.453 65.4902 282.453L110.371 281.516C110.371 281.516 110.619 281.959 112.572 291.376C114.096 298.715 130.978 324.562 140.604 338.88C145.044 336.871 149.44 335.014 152.805 330.925H152.807Z" fill="#B75742"/>
<path d="M38.8078 216.726C38.8078 216.726 27.6335 216.599 26.4449 216.861C25.2564 217.124 27.3835 262.515 28.8367 279.453C30.2898 296.39 32.6203 298.931 32.6203 298.931C32.6203 298.931 48.5584 298.993 59.5711 295.514C71.0223 291.896 73.7449 278.579 73.7449 278.579C73.7449 278.579 63.3718 248.126 59.2133 238.69C56.5545 232.653 51.2393 225.861 45.858 220.327C42.8267 217.21 38.8078 216.724 38.8078 216.724V216.726Z" fill="white"/>
<path d="M35.6652 208.467L37.9074 214.592C37.9074 214.592 41.8184 223.266 39.7551 225.559C37.6918 227.855 26.8874 216.756 26.8874 216.756L24.1992 200.576L35.6627 208.467H35.6652Z" fill="#F7A491"/>
<path d="M25.0731 205.818C28.3004 210.827 33.8582 213.113 37.5683 213.658L35.6667 208.465L24.2031 200.574L25.0755 205.818H25.0731Z" fill="#F47458"/>
<path d="M26.1543 182.52C30.7466 179.709 36.7749 181.843 38.6667 186.803C39.4876 188.959 40.4065 191.697 41.1368 194.751C42.8963 202.095 40.6663 210.111 37.3238 210.852C33.9788 211.59 23.6842 208.862 21.0401 198.469C19.408 192.052 21.3366 185.471 26.1568 182.52H26.1543Z" fill="#F7A491"/>
<path d="M23.6845 198.751C24.0423 200.377 23.2581 201.935 21.9275 202.227C20.5993 202.521 19.2319 201.439 18.8717 199.813C18.5139 198.187 19.2981 196.629 20.6262 196.337C21.9544 196.043 23.3218 197.125 23.682 198.751H23.6845Z" fill="#F7A491"/>
<path d="M26.8669 216.707C26.8669 216.707 13.8914 216.192 10.9385 218.922C9.06141 220.658 12.8646 238.037 12.8646 238.037C12.8646 238.037 23.4484 258.318 24.9873 270.181C27.5432 289.885 29.8737 301.99 30.8833 302.643C36.7155 304.74 55.9937 300.751 56.7951 298.473C65.6439 273.296 26.8669 216.707 26.8669 216.707Z" fill="#466EB6"/>
<path d="M89.6178 258.438L98.2313 222.03C98.4543 221.088 99.2949 220.42 100.263 220.42H115.904C117.274 220.42 118.274 221.72 117.924 223.048L108.423 258.875C108.188 259.763 107.404 260.391 106.487 260.428L91.7326 261.009C90.3529 261.063 89.2992 259.785 89.6178 258.438Z" fill="#184655"/>
<path d="M103.892 257.497C103.231 257.624 102.135 257.862 101.378 258.139C100.56 258.438 99.7143 258.458 98.989 258.608C97.5481 258.905 96.5017 259.14 96.5237 259.076C96.5507 258.993 96.2272 258.855 96.9771 258.568C97.8813 258.225 99.9594 257.906 101.248 257.303C101.981 256.959 103.552 256.334 103.552 256.334C103.552 256.334 105.755 254.955 105.718 254.806C105.52 253.986 103.75 254.516 102.817 255.107C102.03 255.188 100.393 255.895 100.393 255.895C100.393 255.895 96.7712 256.601 96.6708 256.103C96.6291 255.892 98.8027 255.201 100.829 254.197C102.711 253.265 104.466 252.027 104.341 251.639C104.128 250.979 101.93 251.798 101.93 251.798C101.93 251.798 100.418 252.451 99.9006 252.632C99.2928 252.843 97.428 253.339 97.428 253.339C97.428 253.339 90.8557 254.771 90.8042 254.291C90.7503 253.812 91.1179 252.517 91.4953 252.291C91.8727 252.066 92.7818 252.002 93.1616 251.776C93.539 251.551 93.8404 250.942 93.6003 250.471C93.3601 250 91.1179 250.417 91.1179 250.417C91.1179 250.417 89.2972 250.768 88.3145 251.592C84.9156 254.448 85.5258 254.879 85.0798 255.235C84.553 255.654 75.5816 256.638 75.5816 256.638C75.5816 256.638 49.1577 259.709 47.7266 259.827L48.6529 268.633C50.2261 268.795 80.7228 263.474 83.8521 262.851C83.8521 262.851 87.8415 263.447 90.3607 263.739C92.8798 264.034 95.4235 263.212 96.1488 263.187C96.2566 263.185 98.6655 262.967 101.574 261.927C104.081 261.031 101.305 260.766 101.305 260.766C101.305 260.766 96.3718 261.617 96.3767 261.227C96.3816 260.926 99.0992 260.617 101.883 259.655C102.599 259.407 103.304 259.16 103.951 258.929C105.647 258.321 105.77 257.136 103.895 257.499L103.892 257.497Z" fill="#F8A492"/>
<path d="M43.7714 255.514C43.7714 255.514 74.5941 255.294 75.7875 255.514C76.9588 255.733 77.2896 263.648 77.8704 266.844C78.0566 267.87 45.3814 271.532 39.706 270.455C33.5185 269.28 17.9332 252.141 14.3236 246.36C11.2947 241.508 4.83271 229.165 6.4378 223.761C7.40821 220.496 12.4514 216.809 15.2058 217.666C26.189 221.073 43.7714 255.517 43.7714 255.517V255.514Z" fill="#86B1F2"/>
<path d="M113.603 240.986C114.196 240.755 114.862 241.109 114.985 241.734C115.11 242.374 115.112 243.14 114.625 243.628C113.654 244.599 107.111 245.325 107.111 244.356C107.111 243.611 111.549 241.791 113.605 240.986H113.603Z" fill="#F7A491"/>
<path d="M115.042 243.831C115.042 243.831 115.794 246.247 115.23 246.292C114.667 246.336 107.653 247.319 107.305 246.495C106.957 245.671 114.115 243.378 115.042 243.831Z" fill="#F7A491"/>
<path d="M115.33 246.542C115.33 246.542 115.6 247.612 115.058 248.276C114.517 248.941 107.942 248.956 107.636 247.928C107.33 246.903 115.049 245.757 115.33 246.54V246.542Z" fill="#F7A491"/>
<path d="M113.828 249.007C113.828 249.007 113.965 249.824 113.693 250.226C113.421 250.628 108.554 250.886 107.919 249.939C107.285 248.99 113.107 248.036 113.828 249.007Z" fill="#F7A491"/>
<path d="M476.1 133.353C482.817 132.973 486.64 141.058 482.101 146.069C481.285 146.969 480.846 148.147 480.817 149.361L480.719 153.541C480.692 154.691 479.785 155.631 478.636 155.695L476.09 155.839C474.941 155.903 473.936 155.074 473.779 153.933C473.208 149.768 473.299 148.191 471.566 146.665C466.494 142.199 469.381 133.736 476.1 133.356V133.353Z" fill="#F7CC7F"/>
<path d="M478.936 150.845C478.6 147.467 478.358 143.739 478.314 142.341C477.074 142.498 475.809 142.422 474.596 142.122C475.013 144.907 475.358 147.725 475.63 150.519L475.27 150.553C474.996 147.713 474.64 144.848 474.216 142.019C473.484 141.808 472.631 141.519 472.229 140.884C472.04 140.587 471.982 140.19 472.075 139.849C472.325 138.939 473.432 138.931 473.981 139.684C474.346 140.182 474.405 140.857 474.54 141.732C475.765 142.056 477.049 142.14 478.309 141.975C478.309 141.266 478.404 140.599 478.792 140.035C480.152 138.058 482.435 141.664 478.676 142.287C478.708 143.381 478.941 147.21 479.299 150.808L478.939 150.845H478.936ZM479.088 140.241C478.765 140.712 478.676 141.293 478.669 141.921C479.485 141.779 480.002 141.499 480.252 141.068C480.674 140.347 479.818 139.176 479.086 140.241H479.088ZM472.714 139.559C472.342 139.748 472.308 140.332 472.533 140.69C472.856 141.2 473.557 141.441 474.155 141.625C474.05 140.93 473.993 140.317 473.687 139.898C473.471 139.603 472.754 139.54 472.714 139.559Z" fill="white"/>
<path d="M480.825 149.258C480.825 149.293 480.82 149.327 480.817 149.361L480.719 153.541C480.692 154.694 479.786 155.631 478.636 155.695L476.09 155.84C474.941 155.903 473.936 155.074 473.78 153.934C473.525 152.082 473.402 150.742 473.191 149.69L480.822 149.258H480.825Z" fill="#3C8F7C"/>
<path d="M480.246 129.323L481.396 125.35C481.506 124.964 481.285 124.562 480.901 124.452C480.516 124.341 480.114 124.562 480.004 124.947L478.855 128.921C478.744 129.306 478.965 129.708 479.35 129.819C479.737 129.932 480.136 129.706 480.246 129.323Z" fill="#FAE0B2"/>
<path d="M486.389 136.942L490.53 135.63C490.913 135.51 491.124 135.102 491.001 134.72C490.881 134.337 490.474 134.126 490.092 134.249L485.95 135.561C485.571 135.681 485.357 136.088 485.48 136.471C485.6 136.851 486.007 137.065 486.389 136.942Z" fill="#FAE0B2"/>
<path d="M493.465 148.971C493.678 148.633 493.575 148.184 493.237 147.973C491.97 147.178 490.62 146.501 489.225 145.959C488.853 145.815 488.434 146.001 488.289 146.374C488.145 146.747 488.331 147.166 488.703 147.311C490.012 147.819 491.279 148.454 492.467 149.2C492.806 149.411 493.252 149.312 493.465 148.971Z" fill="#FAE0B2"/>
<path d="M469.769 131.462C470.124 131.278 470.261 130.839 470.075 130.483C469.198 128.798 468.492 127.015 467.98 125.185C467.872 124.8 467.473 124.574 467.088 124.682C466.703 124.79 466.478 125.19 466.586 125.575C467.125 127.503 467.867 129.38 468.791 131.153C468.977 131.511 469.416 131.644 469.769 131.46V131.462Z" fill="#FAE0B2"/>
<path d="M466.629 137.869C466.658 137.469 466.359 137.123 465.96 137.094L461.274 136.751C460.875 136.721 460.527 137.02 460.5 137.42C460.471 137.82 460.77 138.166 461.169 138.195L465.854 138.539C466.251 138.568 466.599 138.269 466.629 137.869Z" fill="#FAE0B2"/>
<path d="M462.023 151.174C462.086 151.159 462.148 151.137 462.209 151.105C463.635 150.337 464.983 149.413 466.213 148.36C466.517 148.1 466.551 147.642 466.291 147.337C466.032 147.033 465.573 146.999 465.27 147.259C464.118 148.245 462.856 149.111 461.52 149.83C461.167 150.018 461.035 150.458 461.226 150.811C461.383 151.103 461.711 151.245 462.02 151.176L462.023 151.174Z" fill="#FAE0B2"/>
<path d="M522.589 237.353C506.511 216.689 496.91 217.729 490.193 228.831C484.709 237.897 482.395 254.93 469.709 261.919C441.486 277.468 404.559 272.057 419.331 316.143C423.46 328.464 429.817 327.49 432.762 327.579L504.55 327.508C532.773 311.959 542.298 262.686 522.589 237.353Z" fill="#F7CC7F"/>
<path d="M507.487 198.95C509.138 190.865 505.338 182.851 498.077 179.842C498.126 175.242 496.315 170.626 493.185 167.476C487.013 161.263 474.297 158.577 469.756 166.498C463.762 169.902 464.139 174.131 465.928 180.85C460.118 186.891 462.24 196.782 470.714 201.945C470.579 208.725 470.403 218.946 476.309 221.843C477.725 222.537 479.943 223.509 480.225 223.808C479.855 223.457 484.596 236.715 499.331 230.647C514.365 224.455 517.289 207.025 507.489 198.95H507.487Z" fill="#355389"/>
<path d="M445.022 253.506C446.206 252.338 448.286 251.301 448.166 251.129C447.674 250.432 442.528 255.76 442.863 254.259C443.05 253.422 446.735 249.073 448.041 248.909C449.308 248.75 457.515 247.454 457.515 247.454L476.477 234.839C476.477 234.839 477.416 219.918 473.392 209.866C477.793 208.521 478.651 208.234 483.174 208.585C485.755 218.782 488.531 235.957 485.179 240.961C483.77 243.066 459.123 251.21 459.123 251.21C459.123 251.21 453.79 253.219 452.798 253.283C452.043 253.329 449.967 253.157 448.955 253.314C446.652 253.673 443.799 257.102 443.603 256.707C443.461 256.42 443.819 254.7 445.027 253.506H445.022Z" fill="#F48C7F"/>
<path d="M471.087 208.673C472.869 205.376 474.702 202.759 474.702 202.759C476.549 199.46 481.321 197.792 481.321 197.792C481.321 197.792 482.916 197.824 484.749 197.915C484.862 198.221 484.979 198.437 485.094 198.525C485.783 199.045 489.731 198.373 492.282 200.112C500.829 207.471 498.464 243.134 497.793 254.398L476.456 254.489C476.456 254.489 475.045 230.409 469.757 224.181C466.073 219.844 468.443 213.559 471.085 208.668L471.087 208.673Z" fill="#F47458"/>
<path d="M465.237 334.148C465.009 333.726 462.042 326.566 459.621 323.377C456.102 318.746 425.686 276.821 426.938 266.617C427.484 262.16 440.663 258.382 442.229 258.112C450.617 259.238 441.805 266.467 448.106 272.408C444.008 273.811 441.595 275.562 442.479 276.715C446.025 281.332 464.852 318.53 465.671 319.011C469.317 321.15 470.748 320.159 470.748 320.159C470.748 320.159 469.908 341.083 468.17 340.423C466.431 339.763 467.82 338.907 465.24 334.151L465.237 334.148Z" fill="#F79C8D"/>
<path d="M472.286 320.289L468.77 341.37C467.978 344.097 466.647 344.068 466.307 343.702C465.606 342.949 465.285 337.322 465.199 334.121C466.785 329.238 466.635 320.046 465.657 319.009C468.049 319.053 472.284 319.823 472.286 320.289Z" fill="#B75742"/>
<path d="M459.712 268.643C454.993 260.81 455.245 261.801 447.031 258.262C443.74 259.586 432.725 266.496 431.328 267.774L448.847 280.493C448.276 279.07 454.375 272.008 459.712 268.643Z" fill="#F7A491"/>
<path d="M482.819 185.729C482.819 185.729 484.25 195.992 485.25 198.484C486.25 200.978 479.756 206.311 474.352 207.93C468.949 209.549 476.004 202.421 475.781 199.754C475.558 197.088 474.576 184.465 474.576 184.465L482.822 185.726L482.819 185.729Z" fill="#F7A491"/>
<path d="M474.846 188.088C474.689 186.001 474.574 184.468 474.574 184.468L482.82 185.729C482.82 185.729 483.029 186.933 483.259 188.638C479.916 190.585 476.91 189.972 474.846 188.086V188.088Z" fill="#F47458"/>
<path d="M480.233 166.983C480.233 166.983 483.482 167.719 485.489 170.795C487.496 173.871 488.873 182.927 482.262 187.154C475.653 191.38 470.512 185.402 470.426 179.569C470.34 173.736 471.585 165.956 480.23 166.983H480.233Z" fill="#F7A491"/>
<path d="M468.916 177.745C469.479 179.153 470.599 180.026 471.415 179.695C472.231 179.364 472.437 177.956 471.871 176.55C471.307 175.142 470.187 174.269 469.371 174.6C468.555 174.931 468.349 176.339 468.916 177.745Z" fill="#F7A491"/>
<path d="M485.597 178.902C485.116 180.418 485.557 181.912 486.577 182.236C487.596 182.562 488.812 181.596 489.292 180.08C489.772 178.564 489.334 177.07 488.312 176.746C487.29 176.422 486.077 177.386 485.597 178.902Z" fill="#F7A491"/>
<path d="M460.674 255.095C464.326 254.759 476.402 253.533 476.402 253.533L497.829 250.65C497.829 250.65 501.615 259.707 501.765 265.388C502.024 275.327 492.887 283.704 485.069 283.223C480.418 282.936 454.083 282.359 448.941 280.451C447.88 272.354 446.657 263.577 441.205 257.752C449.934 256.552 455.72 255.551 460.672 255.095H460.674Z" fill="#466EB6"/>
<path d="M460.401 330.062C459.813 329.453 455.113 297.268 452.277 283.758C451.594 280.505 449.528 277.714 446.614 276.122L431.328 267.772C426.032 272.619 450.741 327.062 453 332.767C454.556 336.697 455.537 344.814 455.649 345.307C456.921 350.872 455.265 351.346 456.845 352.513C458.426 353.681 465.515 333.358 465.515 333.358C465.515 333.358 463.503 333.273 460.401 330.059V330.062Z" fill="#F7A491"/>
<path d="M465.004 256.496C465.004 257.305 464.262 257.965 463.343 257.967L437.382 258.029C436.463 258.029 435.539 257.234 435.24 256.25L435.713 256.567C435.713 255.757 436.456 255.097 437.375 255.095L463.335 255.034C464.254 255.034 465.002 255.686 465.004 256.498V256.496Z" fill="#355389"/>
<path d="M437.645 257.496C437.799 257.496 437.956 257.486 438.113 257.467C439.456 257.298 440.338 256.439 440.081 255.549L430.173 221.23C429.916 220.342 428.619 219.758 427.274 219.927C425.931 220.096 425.049 220.955 425.306 221.845L435.214 256.164C435.439 256.949 436.478 257.496 437.645 257.496Z" fill="#355389"/>
<path d="M445.291 252.846C446.776 252.102 449.077 251.764 449.015 251.56C448.763 250.746 442.161 254.958 442.946 253.636C443.382 252.9 448.293 249.161 449.586 249.412C450.841 249.654 459.043 250.967 459.043 250.967L480.154 243.328C480.154 243.328 484.18 230.186 483.465 219.38C488.064 219.469 491.28 220.234 495.47 221.968C494.767 232.464 492.088 249.654 487.351 253.373C485.359 254.938 459.406 255.034 459.406 255.034C459.406 255.034 453.713 255.291 452.75 255.041C452.02 254.852 450.099 254.043 449.087 253.878C446.785 253.506 443.012 255.88 442.948 255.443C442.901 255.124 443.774 253.601 445.291 252.841V252.846Z" fill="#F7A491"/>
<path d="M481.996 207.923C482.29 204.601 482.697 201.256 486.078 199.821C488.176 198.93 490.68 199.257 492.58 200.478C494.841 201.93 495.731 204.579 496.02 207.15C496.677 212.988 496.983 219.084 496.591 224.953C492.401 223.217 486.698 224.137 482.099 224.048C481.072 218.904 481.611 212.252 481.993 207.923H481.996Z" fill="#B75742"/>
<path d="M448.426 249.711C444.819 250.636 445.02 250.567 444.875 250.658C442.327 252.264 442.528 252.963 446.441 251.283C446.539 251.241 446.647 251.219 446.755 251.222L448.612 251.241C449.333 251.249 449.676 250.356 449.134 249.88C448.941 249.711 448.676 249.647 448.429 249.711H448.426Z" fill="#F7A491"/>
<path d="M455.492 344.119C455.492 344.119 455.647 346.673 454.789 348.718C453.931 350.764 450.655 351.534 451.447 352.592C452.238 353.649 458.568 352.592 458.568 352.592L465.892 334.661C466.191 333.996 466.022 333.213 465.473 332.733C464.594 331.96 462.981 330.863 460.437 330.101C460.437 330.101 460.832 341.347 455.49 344.119H455.492Z" fill="#F47458"/>
<path d="M333.484 211.237C337.956 209.947 338.076 210.746 338.642 210.565C339.314 210.351 344.722 203.017 344.722 203.017C344.722 203.017 360.822 181.52 361.648 180.325L366.725 152.509L381.98 152.389C381.98 152.389 375.608 182.43 374.983 183.916C374.361 185.403 348.846 211.661 346.685 214.05C346.685 214.05 345.288 217.931 344.325 220.332C343.362 222.734 341.301 224.488 340.919 225.113C340.862 225.206 339.453 227.203 336.998 229.148C334.881 230.826 336 228.214 336 228.214C336 228.214 339.277 224.365 338.892 224.137C338.596 223.96 336.946 226.178 334.626 228.057C334.03 228.54 333.44 229.016 332.891 229.447C331.455 230.581 330.239 229.977 331.523 228.54C331.977 228.032 332.751 227.208 333.398 226.705C334.096 226.163 334.535 225.427 335.04 224.875C336.045 223.781 336.792 222.999 336.718 222.977C336.623 222.95 336.65 222.582 335.998 223.075C335.214 223.666 333.873 225.312 332.643 226.089C331.945 226.531 330.553 227.544 330.553 227.544C330.553 227.544 328.115 228.665 327.985 228.54C327.284 227.873 328.678 226.629 329.72 226.158C330.19 225.513 331.69 224.49 331.69 224.49C331.69 224.49 334.175 221.713 333.739 221.326C333.552 221.161 331.8 222.665 329.815 223.855C327.973 224.959 325.894 225.763 325.578 225.42C325.042 224.836 326.931 223.386 326.931 223.386C326.931 223.386 328.318 222.444 328.749 222.094C329.257 221.684 330.666 220.332 330.666 220.332C330.666 220.332 335.322 215.387 334.881 215.054C334.439 214.718 332.996 214.266 332.587 214.465C332.178 214.664 331.668 215.429 331.259 215.628C330.849 215.826 330.107 215.728 329.766 215.233C329.426 214.74 330.945 213.005 330.945 213.005C330.945 213.005 332.19 211.607 333.481 211.234L333.484 211.237Z" fill="#F48C7F"/>
<path d="M358.809 350.786C358.809 350.786 359.351 360.384 359.355 360.404C359.554 361.623 360.341 364.633 360.341 365.742C360.341 369.902 341.844 362.209 345.988 360.365C346.363 360.198 348.328 358.935 348.453 357.519C348.644 355.336 349.125 350.924 349.125 350.924L358.809 350.789V350.786Z" fill="#F7A491"/>
<path d="M346.035 360.323C346.035 360.323 350.377 361.596 352.602 361.915C354.827 362.234 357.758 359.553 359.331 360.277C361.064 361.074 360.887 368.918 360.887 368.918C360.887 368.918 337.705 370.287 331.158 368.175C328.562 367.339 337.156 363.289 346.035 360.323Z" fill="#184655"/>
<path d="M399.563 351.708C399.563 351.708 400.105 361.307 400.109 361.326C400.308 362.546 401.095 365.555 401.095 366.664C401.095 370.827 382.598 363.132 386.742 361.287C387.117 361.12 389.665 358.915 389.79 357.5C389.981 355.317 389.881 351.846 389.881 351.846L399.565 351.711L399.563 351.708Z" fill="#F7A491"/>
<path d="M386.787 361.246C386.787 361.246 391.129 362.519 393.354 362.838C395.579 363.157 398.51 360.476 400.083 361.199C401.816 361.996 401.885 369.166 401.885 369.166C401.885 369.166 377.102 370.964 371.275 369.277C368.658 368.519 377.909 364.211 386.787 361.246Z" fill="#184655"/>
<path d="M370.248 213.165L362.429 216.542L345.979 295.178L346.645 354.13L359.831 354.436C359.831 354.436 365.965 302.871 365.965 298.875C365.965 294.879 394.374 228.942 394.374 228.942L370.248 213.169V213.165Z" fill="#355389"/>
<path d="M376.284 217.492C376.284 217.492 382.045 278.079 382.045 288.291C382.045 298.502 386.716 355.663 386.716 355.663L399.934 355.587C399.934 355.587 400.887 338.164 402.303 312.533C402.526 308.517 402.017 300.418 402.303 296.263C404.359 266.374 408.427 238.236 406.484 227.083C406.17 225.287 405.585 220.592 404.44 219.407C395.785 210.444 376.281 217.492 376.281 217.492H376.284Z" fill="#466EB6"/>
<path d="M360.162 169.677L376.157 168.605C376.157 168.605 376.946 154.295 376.946 147.466C376.946 139.182 379.467 126.971 378.482 127.202C375.716 127.847 370.937 130.396 368.719 133.489C361.042 144.191 360.162 169.677 360.162 169.677Z" fill="#3C8F7C"/>
<path d="M398.058 126.886C398.058 126.886 407.178 128.156 409.58 129.92C412.283 131.907 415.285 136.354 415.285 136.354C415.285 136.354 404.086 189.342 404.066 198.258C404.052 205.156 406.49 222.094 406.49 222.094C406.49 222.094 372.648 224.232 359.832 219.167C359.832 219.167 363.88 199.024 363.88 193.733C363.88 188.442 368.723 140.342 369.823 136.984C370.823 133.935 372.651 128.46 378.833 127.109C385.016 125.757 398.058 126.883 398.058 126.883V126.886Z" fill="#50BFA5"/>
<path d="M395.564 112.619L397.821 127.415C397.821 127.415 389.575 145.032 384.654 143.504C380.525 142.221 383.067 126.633 383.067 126.633C383.067 126.633 385.319 118.261 384.642 114.071C383.968 109.882 395.564 112.617 395.564 112.617V112.619Z" fill="#F7A491"/>
<path d="M384.643 114.074C383.969 109.884 395.565 112.619 395.565 112.619L395.751 113.846C395.413 114.667 394.996 115.369 394.494 115.909C391.904 118.68 387.853 120.346 384.354 120.471C384.704 118.212 384.92 115.791 384.643 114.074Z" fill="#F47458"/>
<path d="M397.469 91.6859C397.797 91.5682 400.096 108.538 395.732 113.208C391.367 117.878 382.864 119.407 379.815 115.727C376.441 111.66 376.613 93.4202 383.396 88.6173C390.181 83.8145 397.466 91.6859 397.466 91.6859H397.469Z" fill="#F7A491"/>
<path d="M385.979 79.5389C391.224 80.601 394.62 83.7898 395.87 85.1463C398.252 85.4259 401.489 86.7358 404.829 92.2377C408.938 99.0029 405.902 106.499 401.119 110.176C396.335 113.853 396.389 118.124 396.389 118.124L395.644 115.906C395.086 114.241 394.858 112.477 395.044 110.73C395.157 109.683 395.382 108.55 395.818 107.618C396.97 105.162 393.346 103.529 392.331 101.485C391.549 99.913 391.51 96.3121 390.278 93.7119L388.807 91.7275C388.807 91.7275 385.413 89.1004 382.09 89.8412C378.77 90.582 379.248 78.1751 385.974 79.5389H385.979Z" fill="#13375B"/>
<path d="M392.558 104.507C392.523 106.578 393.469 108.273 394.672 108.295C395.876 108.314 396.878 106.654 396.912 104.583C396.946 102.513 396.001 100.818 394.797 100.799C393.594 100.779 392.592 102.44 392.558 104.51V104.507Z" fill="#F7A491"/>
<path d="M374.798 180.784L374.58 182.047C374.467 182.697 373.85 183.134 373.2 183.021L347.043 178.485C346.394 178.373 345.958 177.754 346.07 177.104L346.289 175.841C346.401 175.191 347.019 174.755 347.668 174.867L373.825 179.403C374.474 179.516 374.911 180.134 374.798 180.784Z" fill="#13375B"/>
<path d="M411.878 133.709C408.81 133.621 406.095 153.882 408.041 155.882C409.987 157.881 410.357 182.837 410.357 182.837L381.406 182.116L381.401 182.125C380.838 181.748 374.773 177.668 373.905 176.778C372.996 175.843 368.575 176.31 367.406 177.595C366.238 178.88 370.006 177.828 371.045 178.529C372.085 179.231 370.266 180.982 370.266 180.982C370.266 180.982 362.929 182.047 361.498 180.529C360.067 179.01 356.247 176.437 355.727 177.958C355.46 178.743 357.43 181.117 358.54 182.113C357.156 181.076 355.497 179.972 354.928 180.166C353.889 180.516 354.321 181.841 354.884 182.231C355.448 182.621 361.273 187.073 362.182 187.384C363.071 187.689 376.618 188.025 378.958 188.542C378.958 188.542 417.137 197.245 419.308 196.701C421.212 196.225 423.117 183.992 423.117 174.622C423.117 165.252 421.47 133.984 411.878 133.707V133.709Z" fill="#F7A491"/>
<path d="M407.896 129.085C407.896 129.085 413.236 130.317 418.755 136.523C423.771 142.167 426.932 173.768 426.932 173.768L409.609 176.572L408.225 161.285L403.596 154.292L407.896 129.085Z" fill="#50BFA5"/>
<path d="M73.0396 164.344H114.921C118.911 164.344 122.15 167.587 122.15 171.58V186.052C122.15 190.046 118.911 193.288 114.921 193.288H73.0396C69.0501 193.288 65.8105 190.046 65.8105 186.052V171.58C65.8105 167.587 69.0501 164.344 73.0396 164.344Z" fill="#FAE0B2"/>
<path d="M83.7598 189.297L101.597 217.607L94.2308 189.297H83.7598Z" fill="#FAE0B2"/>
<path d="M434.284 40.8142L432.568 36.7545L428.255 35.8666C427.765 35.766 427.601 35.1454 427.981 34.8167L431.306 31.9296L430.816 27.5512C430.76 27.0532 431.301 26.7073 431.73 26.9649L435.501 29.2388L439.51 27.4187C439.966 27.2102 440.464 27.6174 440.349 28.108L439.354 32.4006L442.321 35.6556C442.659 36.026 442.427 36.6245 441.927 36.6662L437.54 37.044L435.364 40.8755C435.117 41.3121 434.477 41.2753 434.281 40.8117L434.284 40.8142Z" fill="#9BC1F9"/>
<path d="M209.693 24.4729L208.333 21.2571L204.914 20.5532C204.525 20.4722 204.397 19.9816 204.696 19.7192L207.333 17.4306L206.946 13.9597C206.902 13.5648 207.331 13.29 207.669 13.4961L210.656 15.299L213.834 13.8567C214.197 13.6923 214.589 14.0161 214.498 14.4012L213.709 17.8034L216.062 20.3839C216.329 20.6783 216.145 21.1517 215.748 21.186L212.271 21.4853L210.546 24.522C210.35 24.8679 209.842 24.8384 209.688 24.4729H209.693Z" fill="#F7CC7F"/>
<path d="M483.413 27.0166L482.247 31.7213L474.476 30.6764L471.923 37.3434L465.982 37.5151L466.068 40.5249L474.015 40.2968L476.434 33.978L484.516 35.0647L486.273 27.9855L483.413 27.0166Z" fill="#F48C7F"/>
<path d="M237.727 30.5928L236.561 35.2975L228.793 34.255L226.239 40.9221L220.297 41.0913L220.385 44.1035L228.33 43.8754L230.751 37.5566L238.833 38.6408L240.587 31.5641L237.727 30.5928Z" fill="#466EB6"/>
<path d="M293.559 16.4099L289.178 18.4728L285.085 11.7812L278.307 14.0036L274.425 9.49756L272.146 11.4624L277.337 17.4917L283.762 15.3846L288.018 22.346L294.613 19.243L293.559 16.4099Z" fill="#F48C7F"/>
<path d="M433.035 10.94L425.935 12.8803L424.406 4.26806L426.729 3.85352L427.808 9.91961L432.415 8.66126L433.035 10.94Z" fill="#50BFA5"/>
<path d="M270.336 52.2793L249.862 52.3382C248.265 52.3431 246.966 51.0504 246.961 49.4486L273.223 49.3726C273.228 50.9719 271.937 52.2744 270.339 52.2768L270.336 52.2793Z" fill="#FAE0B2"/>
<path d="M271.023 39.2271C268.732 39.2344 266.872 40.7111 266.877 42.5214C266.882 44.3316 268.752 45.7985 271.043 45.7911C273.334 45.7838 275.194 44.3071 275.189 42.4968C275.184 40.6866 273.314 39.2197 271.023 39.2271ZM271.038 44.312C269.587 44.3169 268.357 43.4952 268.355 42.5165C268.352 41.5377 269.575 40.7111 271.028 40.7062C272.479 40.7013 273.709 41.523 273.711 42.5017C273.714 43.478 272.491 44.3071 271.038 44.312Z" fill="#FAE0B2"/>
<path d="M270.228 36.3156C270.252 44.5624 265.518 51.2614 259.649 51.2785C253.782 51.2957 249.009 44.6262 248.984 36.3794C248.982 35.332 253.733 34.471 259.6 34.4539C265.467 34.4367 270.223 35.2707 270.228 36.3181V36.3156Z" fill="#FAE0B2"/>
<path d="M270.228 36.3157C270.23 37.3631 265.479 38.224 259.612 38.2412C253.746 38.2584 248.989 37.4244 248.984 36.377C248.982 35.3296 253.733 34.4686 259.6 34.4514C265.467 34.4343 270.223 35.2683 270.228 36.3157Z" fill="#F7CC7F"/>
</g>
<defs>
<clipPath id="clip0_1350_82">
<rect width="533" height="370" fill="white"/>
</clipPath>
</defs>
</svg>
