<svg width="105" height="70" viewBox="0 0 105 70" fill="none" xmlns="http://www.w3.org/2000/svg">
<path d="M16.5958 0L6.51222 10.0836L9.7233 13.2941L14.2185 8.79764L14.2263 20.0454C10.7712 20.4882 7.43075 22.0326 4.7771 24.6856C-1.59237 31.0534 -1.59237 41.3796 4.7771 47.7468C11.1449 54.1146 21.4695 54.1146 27.8382 47.7468C34.2071 41.3761 34.2071 31.0513 27.8382 24.6841C25.2807 22.1265 22.0858 20.5977 18.7667 20.0959L18.7583 8.58255L23.469 13.2938L26.68 10.0833L16.5958 0ZM7.98562 27.8946C12.5745 23.3063 20.0389 23.3063 24.6292 27.8946C29.2174 32.4828 29.2174 39.9479 24.6292 44.5366C20.0391 49.1267 12.574 49.1267 7.98409 44.5366C3.39936 39.9471 3.39936 32.4833 7.98588 27.8946H7.98562Z" fill="white"/>
<path d="M76.6393 24.8633C70.2687 31.2328 70.2687 41.5557 76.6393 47.9244C79.2113 50.4964 82.4318 52.0306 85.777 52.5234L85.7788 58.56L78.8848 58.5564L78.883 63.0964L85.7824 63.0999L85.7842 70L90.3241 69.9964L90.3224 63.1035L97.0302 63.1053L97.0326 58.5672L90.3182 58.563L90.3164 52.5551C93.7451 52.1016 97.0618 50.5585 99.6982 47.9221C106.067 41.5533 106.067 31.2282 99.7 24.861C93.3328 18.4926 83.0075 18.4938 76.6388 24.8634L76.6393 24.8633ZM79.8498 28.0707C84.4368 23.4825 91.9044 23.4837 96.4903 28.0707C101.081 32.6577 101.081 40.1234 96.4903 44.7127C91.9021 49.3028 84.437 49.301 79.8483 44.7127C75.2619 40.1257 75.2619 32.66 79.8501 28.0707H79.8498Z" fill="white"/>
<path d="M40.0527 38.3843H64.0748V43.4731H40.0527V38.3843Z" fill="white"/>
<path d="M40.0527 28.2058H64.0748V33.2942H40.0527V28.2058Z" fill="white"/>
</svg>
