<svg width="472" height="283" viewBox="0 0 472 283" fill="none" xmlns="http://www.w3.org/2000/svg">
<g clip-path="url(#clip0_1369_1618)">
<path opacity="0.1" d="M29.2516 283L174.876 282.236L213.693 282.224L226.553 282.218L265.444 282.206L443.122 282.156C443.122 282.156 483.762 229.483 440.352 179.457C395.343 127.589 373.458 169.831 359.623 96.8196C324.796 -86.9591 -19.5118 20.0045 70.7974 176.396C103.315 232.707 6.7902 202.776 29.2516 283.002V283Z" fill="#EBF3FA"/>
<path opacity="0.2" d="M421.457 226.776C423.063 212.559 399.842 207.989 399.842 207.989C399.842 207.989 376.266 224.631 371.781 223.472C367.296 222.313 389.164 205.302 389.164 205.302C381.202 201.215 356.082 203.01 356.082 203.01C356.082 203.01 347.05 229.754 342.989 227.524C338.927 225.294 352.192 204.253 352.192 204.253C343.227 203.482 332.045 209.879 332.045 209.879C316.667 221.418 332.256 240.598 332.256 240.598C332.256 240.598 328.927 249.799 319.193 258.006C319.193 258.006 317.164 259.431 314.584 262.194L316.768 263.061C317.179 262.545 317.6 262.056 318.032 261.599C318.032 261.595 318.035 261.592 318.041 261.59C318.048 261.583 318.053 261.578 318.06 261.57C318.343 261.292 318.748 260.897 319.248 260.417H319.249C319.249 260.417 319.251 260.415 319.251 260.413C320.435 259.369 321.269 258.582 321.83 257.997C321.832 257.997 321.833 257.994 321.835 257.992C325.46 254.677 330.456 250.469 332.822 250.108C332.822 250.108 332.714 249.672 332.752 248.918C332.775 249.298 332.798 249.693 332.822 250.108C333.389 259.615 351.556 268.37 362.818 270.362C374.082 272.354 370.705 267.611 366.984 260.61C363.264 253.608 351.013 250.207 348.282 246.956C345.55 243.707 351.365 243.847 358.098 247.137C364.83 250.427 365.553 258.759 376.347 264.279C387.141 269.798 404.045 252.057 404.045 252.057C395.348 251.393 383.15 241.603 383.674 238.716C384.198 235.828 404.658 244.255 408.182 244.723C411.704 245.193 419.852 240.997 421.457 226.78V226.776Z" fill="#DFEBFD"/>
<path opacity="0.2" d="M215.538 211.215C213.284 197.183 189.847 199.021 189.847 199.021C189.847 199.021 171.725 221.25 167.124 221.338C162.522 221.427 178.911 199.304 178.911 199.304C170.203 197.523 146.645 205.958 146.645 205.958C146.645 205.958 145.133 233.964 140.652 232.916C136.171 231.869 143.254 208.188 143.254 208.188C134.47 209.847 125.477 218.958 125.477 218.958C113.839 234.111 133.868 248.295 133.868 248.295C133.868 248.295 133.135 257.988 126.008 268.444C126.008 268.444 124.447 270.35 122.714 273.684L125.036 273.928C125.291 273.326 125.564 272.744 125.856 272.19C125.856 272.184 125.858 272.183 125.861 272.179C125.865 272.172 125.87 272.163 125.874 272.156C126.07 271.814 126.353 271.326 126.704 270.734C126.704 270.734 126.704 270.731 126.705 270.729C127.56 269.414 128.148 268.437 128.528 267.728C128.528 267.726 128.53 267.723 128.532 267.721C131.116 263.581 134.776 258.217 136.942 257.24C136.942 257.24 136.723 256.852 136.558 256.122C136.68 256.478 136.81 256.85 136.942 257.24C140.018 266.186 159.736 269.705 171.044 268.599C182.352 267.493 177.856 263.857 172.43 258.153C167.003 252.449 154.375 252.469 150.896 250.09C147.416 247.711 153.018 246.29 160.336 247.639C167.655 248.988 170.568 256.765 182.368 259.16C194.167 261.555 205.613 240.059 205.613 240.059C197.114 241.749 182.833 235.644 182.566 232.741C182.297 229.839 204.121 232.429 207.617 231.936C211.112 231.443 217.79 225.25 215.535 211.217L215.538 211.215Z" fill="#DFEBFD"/>
<path opacity="0.2" d="M269.704 175.946C274.393 167.975 288.164 174.652 288.164 174.652C288.164 174.652 293.888 192.429 296.656 193.574C299.424 194.72 294.725 177.419 294.725 177.419C300.426 178.406 312.709 189.112 312.709 189.112C312.709 189.112 306.997 206.447 309.96 206.874C312.925 207.303 314.236 191.268 314.236 191.268C319.167 194.359 322.462 202.016 322.462 202.016C325.93 213.964 310.433 217.807 310.433 217.807C310.433 217.807 308.583 223.857 310.427 231.888C310.427 231.888 310.923 233.414 311.183 235.846L309.718 235.444C309.705 235.017 309.679 234.602 309.633 234.196C309.633 234.192 309.633 234.191 309.633 234.189C309.633 234.183 309.633 234.176 309.631 234.171C309.592 233.918 309.537 233.554 309.465 233.113V233.109C309.257 232.11 309.132 231.378 309.07 230.856C309.07 230.856 309.07 230.853 309.07 230.851C308.484 227.728 307.535 223.609 306.452 222.501C306.452 222.501 306.677 222.317 306.95 221.914C306.79 222.102 306.626 222.297 306.452 222.501C302.47 227.193 289.684 224.646 283.092 221.29C276.499 217.935 280.085 216.799 284.724 214.629C289.362 212.46 297.014 215.469 299.686 214.854C302.358 214.239 299.298 212.047 294.545 211.127C289.789 210.205 286.182 214.23 278.462 212.88C270.742 211.531 268.892 195.782 268.892 195.782C273.644 198.824 283.745 198.514 284.594 196.817C285.444 195.121 271.602 191.51 269.6 190.383C267.598 189.254 265.016 183.915 269.703 175.944L269.704 175.946Z" fill="#DFEBFD"/>
<path d="M370.295 186.142C370.295 186.142 374.144 192.673 377.673 192.764C381.203 192.854 386.571 189.736 386.571 189.736C386.571 189.736 389.811 181.033 387.613 177.628C387.613 177.628 385.41 176.462 383.105 178.522C382.709 178.878 382.307 179.325 381.912 179.899C381.353 180.709 380.725 181.17 380.059 181.413C377.541 182.336 374.553 180.165 373.435 182.26C372.782 183.478 372.072 184.394 371.488 185.037C370.798 185.778 370.295 186.142 370.295 186.142Z" fill="#F9DDBF"/>
<path d="M425.508 281.635C425.508 281.635 434.959 198.595 382.382 192.764C382.382 192.764 341.585 202.493 351.758 281.635H425.507H425.508Z" fill="#F9DDBF"/>
<path d="M389.091 193.976C389.091 193.976 379.276 196.607 376.247 195.061C376.247 195.061 375.791 190.114 379.923 190.809C382.753 191.284 384.596 189.644 385.679 188.979C387.213 188.038 389.498 191.908 389.091 193.976Z" fill="#F99746"/>
<path d="M380.548 186.519C381.176 187.087 383.103 178.52 383.103 178.52C382.707 178.876 382.305 179.323 381.91 179.897C381.351 180.707 380.723 181.168 380.057 181.411C380.05 181.661 379.939 185.966 380.548 186.519Z" fill="#E5C1A1"/>
<path d="M371.488 185.037C371.626 185.135 376.166 188.412 376.782 188.412C377.398 188.412 373.435 182.26 373.435 182.26C372.782 183.477 372.072 184.394 371.488 185.037Z" fill="#E5C1A1"/>
<path d="M399.988 201.282C399.988 201.282 397.898 204.228 395.983 204.269C394.066 204.31 391.153 202.902 391.153 202.902C391.153 202.902 389.394 198.976 390.587 197.44C390.587 197.44 391.783 196.913 393.034 197.842C393.249 198.003 393.468 198.204 393.682 198.464C393.985 198.829 394.326 199.038 394.687 199.147C396.054 199.563 397.677 198.583 398.284 199.529C398.638 200.079 399.024 200.492 399.34 200.783C399.716 201.118 399.988 201.281 399.988 201.281V201.282Z" fill="#FFEDDC"/>
<path d="M372.742 222.537C372.742 222.537 380.13 204.611 393.425 204.271C393.425 204.271 405.697 205.638 406.38 222.537H372.742Z" fill="#FFEDDC"/>
<path d="M389.782 204.819C389.782 204.819 395.111 206.006 396.755 205.308C396.755 205.308 397.003 203.076 394.758 203.388C393.222 203.603 392.222 202.864 391.633 202.562C390.799 202.137 389.559 203.883 389.78 204.817L389.782 204.819Z" fill="#DB6A1D"/>
<path d="M394.419 201.455C394.077 201.712 393.031 197.846 393.031 197.846C393.245 198.007 393.465 198.207 393.679 198.468C393.982 198.833 394.323 199.042 394.684 199.15C394.688 199.264 394.75 201.206 394.419 201.455Z" fill="#E5C1A1"/>
<path d="M399.339 200.784C399.265 200.829 396.8 202.307 396.465 202.307C396.13 202.307 398.283 199.531 398.283 199.531C398.637 200.081 399.022 200.494 399.339 200.784Z" fill="#E5C1A1"/>
<path d="M379.958 217.529C379.821 217.412 385.186 209.62 386.662 209.562C388.14 209.505 391.458 211.269 393.862 211.497C396.265 211.724 398.594 211.042 399.049 212.465C399.504 213.889 400.754 218.931 399.987 219.738C399.221 220.544 382.908 220.053 379.958 217.529Z" fill="#F9DDBF"/>
<path d="M430.546 277.519V280.584C430.546 280.829 430.458 281.055 430.305 281.243C430.146 281.442 429.916 281.598 429.647 281.685C429.566 281.711 429.479 281.733 429.39 281.745C429.309 281.757 429.228 281.765 429.143 281.765H371.109C370.36 281.765 369.744 281.266 369.707 280.644C369.707 280.625 369.707 280.604 369.707 280.584V277.519C369.707 277.5 369.707 277.479 369.707 277.459C369.744 276.837 370.362 276.339 371.109 276.339H429.143C429.228 276.339 429.309 276.346 429.39 276.358C429.479 276.371 429.566 276.392 429.647 276.419C429.916 276.505 430.146 276.661 430.305 276.86C430.458 277.048 430.546 277.275 430.546 277.519Z" fill="#FFB93E"/>
<path d="M402.048 281.765H370.956C370.289 281.765 369.739 281.266 369.705 280.644C369.705 280.625 369.705 280.604 369.705 280.584V277.519C369.705 277.5 369.705 277.479 369.705 277.459C369.739 276.837 370.289 276.339 370.956 276.339H398.228C398.664 277.936 399.68 280.144 402.046 281.765H402.048Z" fill="#FFA412"/>
<path d="M423.484 276.339H422.824V281.765H423.484V276.339Z" fill="#FFA412"/>
<path d="M421.254 276.339H420.594V281.765H421.254V276.339Z" fill="#FFA412"/>
<path d="M418.576 276.339H417.916V281.765H418.576V276.339Z" fill="#FFA412"/>
<path d="M414.471 276.339H413.811V281.765H414.471V276.339Z" fill="#FFA412"/>
<path d="M410.131 276.339H409.471V281.765H410.131V276.339Z" fill="#FFA412"/>
<path d="M403.479 276.339H402.818V281.765H403.479V276.339Z" fill="#FFA412"/>
<path d="M397.25 276.339H396.59V281.765H397.25V276.339Z" fill="#FFA412"/>
<path d="M391.687 276.339H391.027V281.765H391.687V276.339Z" fill="#FFA412"/>
<path d="M425.611 276.339H424.951V281.765H425.611V276.339Z" fill="#FFA412"/>
<path d="M427.014 276.339H426.354V281.765H427.014V276.339Z" fill="#FFA412"/>
<path d="M428.369 276.339H427.709V281.765H428.369V276.339Z" fill="#FFA412"/>
<path d="M429.389 276.357V281.745C429.307 281.757 429.226 281.765 429.141 281.765H428.729V276.339H429.141C429.226 276.339 429.307 276.346 429.389 276.358V276.357Z" fill="#FFA412"/>
<path d="M430.307 276.86V281.243C430.148 281.442 429.917 281.598 429.648 281.685V276.418C429.917 276.505 430.148 276.661 430.307 276.86Z" fill="#FFA412"/>
<path d="M424.341 272.094V275.159C424.341 275.403 424.253 275.63 424.1 275.818C423.941 276.017 423.711 276.173 423.442 276.259C423.359 276.286 423.274 276.307 423.185 276.32C423.104 276.332 423.022 276.339 422.938 276.339H364.904C364.155 276.339 363.539 275.841 363.502 275.219C363.502 275.199 363.502 275.178 363.502 275.159V272.094C363.502 272.075 363.502 272.053 363.502 272.034C363.539 271.412 364.157 270.914 364.904 270.914H422.938C422.975 270.914 423.012 270.914 423.049 270.917C423.065 270.917 423.081 270.919 423.097 270.921C423.115 270.921 423.132 270.924 423.148 270.926C423.161 270.926 423.173 270.93 423.185 270.931C423.274 270.944 423.361 270.965 423.442 270.992C423.454 270.995 423.465 270.999 423.479 271.004C423.492 271.008 423.504 271.013 423.515 271.016C423.538 271.025 423.562 271.036 423.585 271.045C423.598 271.05 423.612 271.057 423.626 271.064C423.638 271.07 423.651 271.075 423.661 271.082C423.684 271.093 423.706 271.105 423.727 271.117C423.752 271.132 423.776 271.148 423.799 271.162C423.819 271.174 423.837 271.187 423.854 271.199C423.854 271.199 423.856 271.199 423.858 271.201C423.87 271.21 423.883 271.218 423.893 271.227C423.929 271.254 423.962 271.284 423.994 271.316C424.005 271.325 424.014 271.334 424.022 271.343C424.031 271.351 424.04 271.362 424.049 271.371C424.067 271.39 424.084 271.41 424.1 271.431C424.253 271.619 424.341 271.846 424.341 272.091V272.094Z" fill="#FFB93E"/>
<path d="M395.844 276.339H364.753C364.084 276.339 363.536 275.841 363.502 275.219C363.502 275.199 363.502 275.178 363.502 275.159V272.094C363.502 272.075 363.502 272.053 363.502 272.034C363.536 271.412 364.086 270.914 364.753 270.914H392.025C392.037 270.958 392.05 271.002 392.062 271.047C392.517 272.631 393.54 274.763 395.843 276.339H395.844Z" fill="#FFA412"/>
<path d="M417.279 270.912H416.619V276.337H417.279V270.912Z" fill="#FFA412"/>
<path d="M415.049 270.912H414.389V276.337H415.049V270.912Z" fill="#FFA412"/>
<path d="M412.371 270.912H411.711V276.337H412.371V270.912Z" fill="#FFA412"/>
<path d="M408.266 270.912H407.605V276.337H408.266V270.912Z" fill="#FFA412"/>
<path d="M403.926 270.912H403.266V276.337H403.926V270.912Z" fill="#FFA412"/>
<path d="M397.273 270.912H396.613V276.337H397.273V270.912Z" fill="#FFA412"/>
<path d="M391.045 270.912H390.385V276.337H391.045V270.912Z" fill="#FFA412"/>
<path d="M385.482 270.912H384.822V276.337H385.482V270.912Z" fill="#FFA412"/>
<path d="M419.406 270.912H418.746V276.337H419.406V270.912Z" fill="#FFA412"/>
<path d="M420.811 270.912H420.15V276.337H420.811V270.912Z" fill="#FFA412"/>
<path d="M422.166 270.912H421.506V276.337H422.166V270.912Z" fill="#FFA412"/>
<path d="M423.186 270.931V276.32C423.104 276.332 423.023 276.339 422.938 276.339H422.525V270.914H422.938C423.023 270.914 423.104 270.921 423.186 270.933V270.931Z" fill="#FFA412"/>
<path d="M424.102 271.435V275.818C423.942 276.016 423.712 276.172 423.443 276.259V270.993C423.712 271.08 423.942 271.236 424.102 271.435Z" fill="#FFA412"/>
<path d="M427.339 266.801V269.866C427.339 270.11 427.25 270.337 427.098 270.525C426.939 270.724 426.709 270.88 426.44 270.966C426.357 270.993 426.272 271.014 426.183 271.027C426.102 271.039 426.02 271.046 425.935 271.046H367.902C367.668 271.046 367.448 270.998 367.254 270.913C366.843 270.733 366.549 270.385 366.503 269.979C366.502 269.961 366.5 269.944 366.498 269.926C366.498 269.907 366.498 269.885 366.498 269.866V266.801C366.498 266.782 366.498 266.76 366.498 266.741C366.535 266.119 367.153 265.621 367.9 265.621H425.934C426.019 265.621 426.1 265.628 426.181 265.64C426.27 265.653 426.357 265.674 426.438 265.7C426.707 265.787 426.937 265.943 427.096 266.142C427.249 266.33 427.337 266.556 427.337 266.801H427.339Z" fill="#FFB93E"/>
<path d="M398.842 271.046H367.751C367.542 271.046 367.346 270.998 367.174 270.913C366.806 270.733 366.546 270.385 366.503 269.979C366.502 269.961 366.5 269.944 366.498 269.926C366.498 269.907 366.498 269.885 366.498 269.866V266.801C366.498 266.782 366.498 266.76 366.498 266.741C366.532 266.119 367.082 265.621 367.749 265.621H395.021C395.444 267.173 396.416 269.307 398.648 270.913C398.711 270.958 398.773 271.002 398.839 271.046H398.842Z" fill="#FFA412"/>
<path d="M420.279 265.621H419.619V271.046H420.279V265.621Z" fill="#FFA412"/>
<path d="M418.047 265.621H417.387V271.046H418.047V265.621Z" fill="#FFA412"/>
<path d="M415.369 265.621H414.709V271.046H415.369V265.621Z" fill="#FFA412"/>
<path d="M411.266 265.621H410.605V271.046H411.266V265.621Z" fill="#FFA412"/>
<path d="M406.926 265.621H406.266V271.046H406.926V265.621Z" fill="#FFA412"/>
<path d="M400.273 265.621H399.613V271.046H400.273V265.621Z" fill="#FFA412"/>
<path d="M394.043 265.621H393.383V271.046H394.043V265.621Z" fill="#FFA412"/>
<path d="M388.48 265.621H387.82V271.046H388.48V265.621Z" fill="#FFA412"/>
<path d="M422.404 265.621H421.744V271.046H422.404V265.621Z" fill="#FFA412"/>
<path d="M423.809 265.621H423.148V271.046H423.809V265.621Z" fill="#FFA412"/>
<path d="M425.164 265.621H424.504V271.046H425.164V265.621Z" fill="#FFA412"/>
<path d="M426.184 265.638V271.027C426.102 271.039 426.021 271.046 425.936 271.046H425.523V265.621H425.936C426.021 265.621 426.102 265.628 426.184 265.64V265.638Z" fill="#FFA412"/>
<path d="M427.1 266.142V270.525C426.941 270.723 426.71 270.879 426.441 270.966V265.7C426.71 265.787 426.941 265.943 427.1 266.142Z" fill="#FFA412"/>
<path d="M428.73 261.376V264.44C428.73 264.685 428.641 264.912 428.489 265.1C428.33 265.298 428.1 265.454 427.831 265.541C427.749 265.568 427.663 265.589 427.574 265.601C427.493 265.614 427.411 265.621 427.326 265.621H369.292C368.544 265.621 367.928 265.123 367.891 264.501C367.891 264.481 367.891 264.46 367.891 264.44V261.376C367.891 261.356 367.891 261.335 367.891 261.316C367.926 260.739 368.455 260.272 369.128 260.204C369.183 260.199 369.238 260.195 369.294 260.195H427.328C427.413 260.195 427.494 260.202 427.576 260.215C427.664 260.227 427.751 260.249 427.832 260.275C428.101 260.362 428.332 260.518 428.491 260.716C428.643 260.904 428.732 261.131 428.732 261.376H428.73Z" fill="#FFB93E"/>
<path d="M400.231 265.621H369.14C368.473 265.621 367.922 265.123 367.889 264.501C367.889 264.481 367.889 264.46 367.889 264.44V261.376C367.889 261.356 367.889 261.335 367.889 261.316C367.921 260.741 368.393 260.272 368.993 260.204C369.041 260.199 369.09 260.195 369.142 260.195H396.414V260.204C396.853 261.799 397.868 264.004 400.231 265.621Z" fill="#FFA412"/>
<path d="M421.668 260.195H421.008V265.621H421.668V260.195Z" fill="#FFA412"/>
<path d="M419.437 260.195H418.777V265.621H419.437V260.195Z" fill="#FFA412"/>
<path d="M416.76 260.195H416.1V265.621H416.76V260.195Z" fill="#FFA412"/>
<path d="M412.654 260.195H411.994V265.621H412.654V260.195Z" fill="#FFA412"/>
<path d="M408.314 260.195H407.654V265.621H408.314V260.195Z" fill="#FFA412"/>
<path d="M401.662 260.195H401.002V265.621H401.662V260.195Z" fill="#FFA412"/>
<path d="M395.434 260.195H394.773V265.621H395.434V260.195Z" fill="#FFA412"/>
<path d="M389.871 260.195H389.211V265.621H389.871V260.195Z" fill="#FFA412"/>
<path d="M423.795 260.195H423.135V265.621H423.795V260.195Z" fill="#FFA412"/>
<path d="M425.197 260.195H424.537V265.621H425.197V260.195Z" fill="#FFA412"/>
<path d="M426.553 260.195H425.893V265.621H426.553V260.195Z" fill="#FFA412"/>
<path d="M427.572 260.213V265.601C427.491 265.614 427.409 265.621 427.324 265.621H426.912V260.195H427.324C427.409 260.195 427.491 260.202 427.572 260.215V260.213Z" fill="#FFA412"/>
<path d="M428.49 260.716V265.1C428.331 265.298 428.101 265.454 427.832 265.541V260.275C428.101 260.362 428.331 260.518 428.49 260.716Z" fill="#FFA412"/>
<path d="M424.464 255.959V259.023C424.464 259.268 424.376 259.495 424.223 259.683C424.064 259.881 423.834 260.037 423.565 260.124C423.484 260.152 423.397 260.172 423.308 260.184C423.282 260.188 423.254 260.191 423.227 260.195C423.213 260.195 423.197 260.197 423.181 260.198C423.167 260.198 423.151 260.2 423.135 260.2C423.11 260.2 423.085 260.202 423.061 260.202H365.027C364.278 260.202 363.662 259.704 363.625 259.082C363.625 259.062 363.625 259.041 363.625 259.022V255.957C363.625 255.937 363.625 255.916 363.625 255.897C363.625 255.881 363.627 255.863 363.629 255.847C363.685 255.347 364.115 254.934 364.682 254.814C364.696 254.81 364.71 254.808 364.724 254.805C364.821 254.787 364.924 254.776 365.027 254.776H423.061C423.103 254.776 423.146 254.778 423.186 254.782C423.206 254.783 423.223 254.785 423.243 254.787C423.264 254.789 423.287 254.792 423.308 254.796C423.397 254.808 423.484 254.83 423.565 254.856C423.834 254.943 424.064 255.099 424.223 255.297C424.376 255.485 424.464 255.712 424.464 255.957V255.959Z" fill="#FFB93E"/>
<path d="M395.966 260.202H364.874C364.207 260.202 363.657 259.704 363.623 259.082C363.623 259.062 363.623 259.041 363.623 259.022V255.957C363.623 255.937 363.623 255.916 363.623 255.897C363.623 255.881 363.625 255.863 363.627 255.847C363.678 255.336 364.078 254.916 364.6 254.807C364.618 254.801 364.635 254.799 364.653 254.796C364.726 254.783 364.798 254.776 364.874 254.776H392.146C392.15 254.789 392.153 254.801 392.157 254.815C392.598 256.407 393.612 258.589 395.951 260.195C395.955 260.197 395.96 260.2 395.964 260.204L395.966 260.202Z" fill="#FFA412"/>
<path d="M417.402 254.776H416.742V260.202H417.402V254.776Z" fill="#FFA412"/>
<path d="M415.172 254.776H414.512V260.202H415.172V254.776Z" fill="#FFA412"/>
<path d="M412.494 254.776H411.834V260.202H412.494V254.776Z" fill="#FFA412"/>
<path d="M408.389 254.776H407.729V260.202H408.389V254.776Z" fill="#FFA412"/>
<path d="M404.049 254.776H403.389V260.202H404.049V254.776Z" fill="#FFA412"/>
<path d="M397.396 254.776H396.736V260.202H397.396V254.776Z" fill="#FFA412"/>
<path d="M391.168 254.776H390.508V260.202H391.168V254.776Z" fill="#FFA412"/>
<path d="M385.605 254.776H384.945V260.202H385.605V254.776Z" fill="#FFA412"/>
<path d="M419.529 254.776H418.869V260.202H419.529V254.776Z" fill="#FFA412"/>
<path d="M420.932 254.776H420.271V260.202H420.932V254.776Z" fill="#FFA412"/>
<path d="M422.287 254.776H421.627V260.202H422.287V254.776Z" fill="#FFA412"/>
<path d="M423.309 254.796V260.184C423.227 260.197 423.146 260.204 423.061 260.204H422.648V254.778H423.061C423.146 254.778 423.227 254.785 423.309 254.798V254.796Z" fill="#FFA412"/>
<path d="M424.225 255.297V259.681C424.066 259.879 423.835 260.035 423.566 260.122V254.856C423.835 254.943 424.066 255.099 424.225 255.297Z" fill="#FFA412"/>
<path d="M424.341 250.571V253.635C424.341 253.88 424.253 254.107 424.1 254.295C423.941 254.493 423.711 254.649 423.442 254.736C423.378 254.757 423.309 254.775 423.242 254.787C423.222 254.791 423.205 254.795 423.187 254.796C423.106 254.809 423.024 254.816 422.939 254.816H364.905C364.843 254.816 364.783 254.812 364.723 254.805C364.7 254.803 364.677 254.8 364.654 254.796C364.022 254.701 363.536 254.247 363.502 253.696C363.502 253.676 363.502 253.655 363.502 253.635V250.571C363.502 250.551 363.502 250.53 363.502 250.51C363.539 249.888 364.157 249.39 364.904 249.39H422.938C422.975 249.39 423.012 249.39 423.049 249.394C423.065 249.394 423.081 249.395 423.097 249.397C423.115 249.397 423.132 249.401 423.148 249.403C423.161 249.403 423.173 249.406 423.185 249.408C423.274 249.42 423.361 249.442 423.442 249.468C423.454 249.472 423.465 249.475 423.479 249.481C423.492 249.484 423.504 249.489 423.515 249.493C423.539 249.502 423.562 249.512 423.585 249.521C423.61 249.534 423.637 249.544 423.661 249.559C423.684 249.569 423.706 249.582 423.727 249.594C423.752 249.608 423.776 249.624 423.799 249.638C423.819 249.651 423.837 249.663 423.854 249.676C423.854 249.676 423.856 249.676 423.858 249.677C423.87 249.686 423.883 249.695 423.893 249.704C423.929 249.73 423.962 249.761 423.994 249.792C424.005 249.801 424.014 249.81 424.022 249.819L424.049 249.847C424.067 249.867 424.084 249.886 424.1 249.908C424.253 250.096 424.341 250.322 424.341 250.567V250.571Z" fill="#FFB93E"/>
<path d="M395.844 254.816H364.753C364.728 254.816 364.703 254.816 364.679 254.814C364.652 254.814 364.626 254.81 364.599 254.807C364.001 254.738 363.532 254.27 363.5 253.696C363.5 253.676 363.5 253.655 363.5 253.635V250.571C363.5 250.551 363.5 250.53 363.5 250.51C363.534 249.888 364.084 249.39 364.751 249.39H392.023C392.036 249.434 392.048 249.479 392.06 249.523C392.512 251.095 393.522 253.205 395.786 254.777C395.805 254.789 395.823 254.802 395.843 254.816H395.844Z" fill="#FFA412"/>
<path d="M417.279 249.39H416.619V254.816H417.279V249.39Z" fill="#FFA412"/>
<path d="M415.049 249.39H414.389V254.816H415.049V249.39Z" fill="#FFA412"/>
<path d="M412.371 249.39H411.711V254.816H412.371V249.39Z" fill="#FFA412"/>
<path d="M408.266 249.39H407.605V254.816H408.266V249.39Z" fill="#FFA412"/>
<path d="M403.926 249.39H403.266V254.816H403.926V249.39Z" fill="#FFA412"/>
<path d="M397.273 249.39H396.613V254.816H397.273V249.39Z" fill="#FFA412"/>
<path d="M391.045 249.39H390.385V254.816H391.045V249.39Z" fill="#FFA412"/>
<path d="M385.482 249.39H384.822V254.816H385.482V249.39Z" fill="#FFA412"/>
<path d="M419.406 249.39H418.746V254.816H419.406V249.39Z" fill="#FFA412"/>
<path d="M420.811 249.39H420.15V254.816H420.811V249.39Z" fill="#FFA412"/>
<path d="M422.166 249.39H421.506V254.816H422.166V249.39Z" fill="#FFA412"/>
<path d="M423.186 249.41V254.798C423.104 254.811 423.023 254.818 422.938 254.818H422.525V249.392H422.938C423.023 249.392 423.104 249.399 423.186 249.412V249.41Z" fill="#FFA412"/>
<path d="M424.102 249.911V254.295C423.942 254.493 423.712 254.649 423.443 254.736V249.47C423.712 249.557 423.942 249.713 424.102 249.911Z" fill="#FFA412"/>
<path d="M427.339 245.28V248.344C427.339 248.589 427.25 248.816 427.098 249.004C426.939 249.202 426.709 249.358 426.44 249.445C426.357 249.472 426.272 249.493 426.183 249.505C426.102 249.518 426.02 249.525 425.935 249.525H367.902C367.668 249.525 367.448 249.477 367.254 249.392C366.843 249.211 366.549 248.864 366.503 248.458C366.502 248.44 366.5 248.422 366.498 248.405C366.498 248.385 366.498 248.364 366.498 248.344V245.28C366.498 245.26 366.498 245.239 366.498 245.219C366.535 244.597 367.153 244.099 367.9 244.099H425.934C426.019 244.099 426.1 244.106 426.181 244.119C426.27 244.131 426.357 244.152 426.438 244.179C426.707 244.266 426.937 244.422 427.096 244.62C427.249 244.808 427.337 245.035 427.337 245.28H427.339Z" fill="#FFB93E"/>
<path d="M398.842 249.523H367.751C367.542 249.523 367.346 249.475 367.174 249.39C366.806 249.209 366.546 248.862 366.503 248.456C366.502 248.438 366.5 248.42 366.498 248.403C366.498 248.383 366.498 248.362 366.498 248.342V245.278C366.498 245.258 366.498 245.237 366.498 245.217C366.532 244.595 367.082 244.097 367.749 244.097H395.021C395.444 245.65 396.416 247.784 398.648 249.39C398.711 249.434 398.773 249.478 398.839 249.523H398.842Z" fill="#FFA412"/>
<path d="M420.279 244.099H419.619V249.525H420.279V244.099Z" fill="#FFA412"/>
<path d="M418.047 244.099H417.387V249.525H418.047V244.099Z" fill="#FFA412"/>
<path d="M415.369 244.099H414.709V249.525H415.369V244.099Z" fill="#FFA412"/>
<path d="M411.266 244.099H410.605V249.525H411.266V244.099Z" fill="#FFA412"/>
<path d="M406.926 244.099H406.266V249.525H406.926V244.099Z" fill="#FFA412"/>
<path d="M400.273 244.099H399.613V249.525H400.273V244.099Z" fill="#FFA412"/>
<path d="M394.043 244.099H393.383V249.525H394.043V244.099Z" fill="#FFA412"/>
<path d="M388.48 244.099H387.82V249.525H388.48V244.099Z" fill="#FFA412"/>
<path d="M422.404 244.099H421.744V249.525H422.404V244.099Z" fill="#FFA412"/>
<path d="M423.809 244.099H423.148V249.525H423.809V244.099Z" fill="#FFA412"/>
<path d="M425.164 244.099H424.504V249.525H425.164V244.099Z" fill="#FFA412"/>
<path d="M426.184 244.117V249.505C426.102 249.518 426.021 249.525 425.936 249.525H425.523V244.099H425.936C426.021 244.099 426.102 244.106 426.184 244.119V244.117Z" fill="#FFA412"/>
<path d="M427.1 244.62V249.003C426.941 249.202 426.71 249.358 426.441 249.445V244.179C426.71 244.266 426.941 244.422 427.1 244.62Z" fill="#FFA412"/>
<path d="M432.083 239.852V242.917C432.083 243.161 431.995 243.388 431.843 243.576C431.683 243.774 431.453 243.93 431.184 244.017C431.103 244.044 431.016 244.065 430.928 244.078C430.846 244.09 430.765 244.097 430.68 244.097H372.646C371.897 244.097 371.281 243.599 371.244 242.977C371.244 242.957 371.244 242.936 371.244 242.917V239.852C371.244 239.832 371.244 239.811 371.244 239.792C371.28 239.217 371.809 238.748 372.481 238.68C372.536 238.675 372.591 238.671 372.648 238.671H430.681C430.766 238.671 430.848 238.678 430.929 238.691C431.018 238.703 431.105 238.725 431.186 238.751C431.455 238.838 431.685 238.994 431.844 239.192C431.997 239.38 432.085 239.607 432.085 239.852H432.083Z" fill="#FFB93E"/>
<path d="M403.585 244.097H372.493C371.826 244.097 371.276 243.599 371.242 242.977C371.242 242.957 371.242 242.936 371.242 242.917V239.852C371.242 239.832 371.242 239.811 371.242 239.792C371.272 239.217 371.747 238.748 372.347 238.68C372.394 238.675 372.444 238.671 372.495 238.671H399.767C399.767 238.671 399.767 238.677 399.769 238.68C400.206 240.277 401.222 242.48 403.585 244.097Z" fill="#FFA412"/>
<path d="M425.021 238.671H424.361V244.097H425.021V238.671Z" fill="#FFA412"/>
<path d="M422.791 238.671H422.131V244.097H422.791V238.671Z" fill="#FFA412"/>
<path d="M420.113 238.671H419.453V244.097H420.113V238.671Z" fill="#FFA412"/>
<path d="M416.008 238.671H415.348V244.097H416.008V238.671Z" fill="#FFA412"/>
<path d="M411.668 238.671H411.008V244.097H411.668V238.671Z" fill="#FFA412"/>
<path d="M405.016 238.671H404.355V244.097H405.016V238.671Z" fill="#FFA412"/>
<path d="M398.787 238.671H398.127V244.097H398.787V238.671Z" fill="#FFA412"/>
<path d="M393.225 238.671H392.564V244.097H393.225V238.671Z" fill="#FFA412"/>
<path d="M427.148 238.671H426.488V244.097H427.148V238.671Z" fill="#FFA412"/>
<path d="M428.551 238.671H427.891V244.097H428.551V238.671Z" fill="#FFA412"/>
<path d="M429.906 238.671H429.246V244.097H429.906V238.671Z" fill="#FFA412"/>
<path d="M430.926 238.691V244.079C430.844 244.092 430.763 244.099 430.678 244.099H430.266V238.673H430.678C430.763 238.673 430.844 238.68 430.926 238.693V238.691Z" fill="#FFA412"/>
<path d="M431.844 239.192V243.576C431.685 243.774 431.455 243.93 431.186 244.017V238.751C431.455 238.838 431.685 238.994 431.844 239.192Z" fill="#FFA412"/>
<path d="M424.464 234.435V237.5C424.464 237.745 424.376 237.972 424.223 238.159C424.064 238.358 423.834 238.514 423.565 238.601C423.484 238.627 423.397 238.649 423.308 238.661C423.282 238.665 423.254 238.668 423.227 238.672C423.206 238.673 423.183 238.675 423.161 238.677H423.13C423.107 238.679 423.085 238.681 423.061 238.681H365.027C364.278 238.681 363.662 238.182 363.625 237.56C363.625 237.541 363.625 237.52 363.625 237.5V234.435C363.625 234.416 363.625 234.395 363.625 234.375C363.662 233.753 364.28 233.255 365.027 233.255H423.061C423.085 233.255 423.11 233.255 423.135 233.257C423.193 233.258 423.252 233.266 423.308 233.274C423.397 233.287 423.484 233.308 423.565 233.335C423.607 233.349 423.648 233.363 423.687 233.381C423.712 233.391 423.737 233.402 423.76 233.413C423.761 233.413 423.765 233.414 423.767 233.416C423.792 233.429 423.815 233.441 423.838 233.453C423.843 233.455 423.846 233.459 423.85 233.46C423.871 233.473 423.892 233.485 423.914 233.499C423.963 233.531 424.009 233.565 424.053 233.602C424.068 233.613 424.08 233.625 424.092 233.638C424.094 233.64 424.098 233.641 424.1 233.645C424.108 233.652 424.115 233.659 424.124 233.668C424.124 233.668 424.128 233.671 424.13 233.673C424.144 233.687 424.158 233.702 424.17 233.716C424.19 233.737 424.207 233.758 424.227 233.78C424.379 233.967 424.468 234.194 424.468 234.439L424.464 234.435Z" fill="#FFB93E"/>
<path d="M395.966 238.681H364.874C364.207 238.681 363.657 238.182 363.623 237.56C363.623 237.541 363.623 237.52 363.623 237.5V234.435C363.623 234.416 363.623 234.395 363.623 234.375C363.657 233.753 364.207 233.255 364.874 233.255H392.146C392.157 233.296 392.169 233.338 392.182 233.381C392.635 234.964 393.654 237.096 395.951 238.673C395.955 238.675 395.96 238.679 395.964 238.682L395.966 238.681Z" fill="#FFA412"/>
<path d="M417.402 233.255H416.742V238.681H417.402V233.255Z" fill="#FFA412"/>
<path d="M415.172 233.255H414.512V238.681H415.172V233.255Z" fill="#FFA412"/>
<path d="M412.494 233.255H411.834V238.681H412.494V233.255Z" fill="#FFA412"/>
<path d="M408.389 233.255H407.729V238.681H408.389V233.255Z" fill="#FFA412"/>
<path d="M404.049 233.255H403.389V238.681H404.049V233.255Z" fill="#FFA412"/>
<path d="M397.396 233.255H396.736V238.681H397.396V233.255Z" fill="#FFA412"/>
<path d="M391.168 233.255H390.508V238.681H391.168V233.255Z" fill="#FFA412"/>
<path d="M385.605 233.255H384.945V238.681H385.605V233.255Z" fill="#FFA412"/>
<path d="M419.529 233.255H418.869V238.681H419.529V233.255Z" fill="#FFA412"/>
<path d="M420.932 233.255H420.271V238.681H420.932V233.255Z" fill="#FFA412"/>
<path d="M422.287 233.255H421.627V238.681H422.287V233.255Z" fill="#FFA412"/>
<path d="M423.309 233.275V238.663C423.227 238.675 423.146 238.682 423.061 238.682H422.648V233.257H423.061C423.146 233.257 423.227 233.264 423.309 233.276V233.275Z" fill="#FFA412"/>
<path d="M424.225 233.776V238.159C424.066 238.358 423.835 238.514 423.566 238.601V233.334C423.835 233.421 424.066 233.577 424.225 233.776Z" fill="#FFA412"/>
<path d="M428.73 229.136V232.2C428.73 232.445 428.641 232.672 428.489 232.86C428.33 233.058 428.1 233.214 427.831 233.301C427.749 233.329 427.663 233.349 427.574 233.361C427.493 233.374 427.411 233.381 427.326 233.381H369.292C369.068 233.381 368.853 233.336 368.666 233.255C368.243 233.078 367.94 232.723 367.894 232.308C367.894 232.292 367.891 232.276 367.891 232.26C367.891 232.241 367.891 232.22 367.891 232.2V229.136C367.891 229.116 367.891 229.095 367.891 229.075C367.926 228.499 368.455 228.031 369.128 227.964C369.183 227.959 369.238 227.955 369.294 227.955H427.328C427.413 227.955 427.494 227.962 427.576 227.975C427.664 227.987 427.751 228.008 427.832 228.035C428.101 228.122 428.332 228.278 428.491 228.476C428.643 228.664 428.732 228.891 428.732 229.136H428.73Z" fill="#FFB93E"/>
<path d="M400.231 233.381H369.14C368.938 233.381 368.749 233.336 368.581 233.255C368.202 233.078 367.933 232.723 367.892 232.308C367.892 232.292 367.889 232.276 367.889 232.26C367.889 232.241 367.889 232.22 367.889 232.2V229.136C367.889 229.116 367.889 229.095 367.889 229.075C367.921 228.501 368.393 228.031 368.993 227.964C369.041 227.959 369.09 227.955 369.142 227.955H396.414V227.964C396.842 229.52 397.817 231.653 400.052 233.257C400.111 233.299 400.171 233.342 400.231 233.382V233.381Z" fill="#FFA412"/>
<path d="M421.668 227.955H421.008V233.381H421.668V227.955Z" fill="#FFA412"/>
<path d="M419.437 227.955H418.777V233.381H419.437V227.955Z" fill="#FFA412"/>
<path d="M416.76 227.955H416.1V233.381H416.76V227.955Z" fill="#FFA412"/>
<path d="M412.654 227.955H411.994V233.381H412.654V227.955Z" fill="#FFA412"/>
<path d="M408.314 227.955H407.654V233.381H408.314V227.955Z" fill="#FFA412"/>
<path d="M401.662 227.955H401.002V233.381H401.662V227.955Z" fill="#FFA412"/>
<path d="M395.434 227.955H394.773V233.381H395.434V227.955Z" fill="#FFA412"/>
<path d="M389.871 227.955H389.211V233.381H389.871V227.955Z" fill="#FFA412"/>
<path d="M423.795 227.955H423.135V233.381H423.795V227.955Z" fill="#FFA412"/>
<path d="M425.197 227.955H424.537V233.381H425.197V227.955Z" fill="#FFA412"/>
<path d="M426.553 227.955H425.893V233.381H426.553V227.955Z" fill="#FFA412"/>
<path d="M427.572 227.973V233.361C427.491 233.374 427.409 233.381 427.324 233.381H426.912V227.955H427.324C427.409 227.955 427.491 227.962 427.572 227.975V227.973Z" fill="#FFA412"/>
<path d="M428.49 228.476V232.859C428.331 233.058 428.101 233.214 427.832 233.301V228.035C428.101 228.122 428.331 228.277 428.49 228.476Z" fill="#FFA412"/>
<path d="M430.546 223.717V226.782C430.546 227.026 430.458 227.251 430.305 227.441C430.146 227.639 429.916 227.795 429.647 227.882C429.566 227.909 429.479 227.93 429.39 227.943C429.364 227.946 429.336 227.95 429.309 227.953C429.295 227.953 429.279 227.957 429.263 227.957C429.249 227.957 429.233 227.959 429.217 227.959C429.192 227.959 429.167 227.96 429.143 227.96H371.109C370.36 227.96 369.744 227.462 369.707 226.84C369.707 226.821 369.707 226.799 369.707 226.78V223.715C369.707 223.696 369.707 223.674 369.707 223.655C369.744 223.033 370.362 222.535 371.109 222.535H429.143C429.228 222.535 429.309 222.542 429.39 222.554C429.479 222.567 429.566 222.588 429.647 222.614C429.916 222.701 430.146 222.857 430.305 223.056C430.458 223.244 430.546 223.471 430.546 223.715V223.717Z" fill="#FFB93E"/>
<path d="M402.048 227.962H370.956C370.289 227.962 369.739 227.464 369.705 226.842C369.705 226.823 369.705 226.801 369.705 226.782V223.717C369.705 223.698 369.705 223.676 369.705 223.657C369.739 223.035 370.289 222.537 370.956 222.537H398.228C398.664 224.132 399.674 226.335 402.033 227.953C402.037 227.957 402.042 227.959 402.046 227.962H402.048Z" fill="#FFA412"/>
<path d="M423.484 222.537H422.824V227.962H423.484V222.537Z" fill="#FFA412"/>
<path d="M421.254 222.537H420.594V227.962H421.254V222.537Z" fill="#FFA412"/>
<path d="M418.576 222.537H417.916V227.962H418.576V222.537Z" fill="#FFA412"/>
<path d="M414.471 222.537H413.811V227.962H414.471V222.537Z" fill="#FFA412"/>
<path d="M410.131 222.537H409.471V227.962H410.131V222.537Z" fill="#FFA412"/>
<path d="M403.479 222.537H402.818V227.962H403.479V222.537Z" fill="#FFA412"/>
<path d="M397.25 222.537H396.59V227.962H397.25V222.537Z" fill="#FFA412"/>
<path d="M391.687 222.537H391.027V227.962H391.687V222.537Z" fill="#FFA412"/>
<path d="M425.611 222.537H424.951V227.962H425.611V222.537Z" fill="#FFA412"/>
<path d="M427.014 222.537H426.354V227.962H427.014V222.537Z" fill="#FFA412"/>
<path d="M428.369 222.537H427.709V227.962H428.369V222.537Z" fill="#FFA412"/>
<path d="M429.389 222.556V227.945C429.307 227.957 429.226 227.964 429.141 227.964H428.729V222.539H429.141C429.226 222.539 429.307 222.546 429.389 222.558V222.556Z" fill="#FFA412"/>
<path d="M430.307 223.058V227.441C430.148 227.64 429.917 227.795 429.648 227.882V222.616C429.917 222.703 430.148 222.859 430.307 223.058Z" fill="#FFA412"/>
<path d="M327.303 117.104C322.56 117.104 318.455 113.525 317.908 108.695C317.321 103.503 321.061 98.8011 326.244 98.2126C328.758 97.9272 331.228 98.638 333.205 100.216C335.182 101.793 336.428 104.046 336.713 106.561C336.998 109.076 336.287 111.551 334.713 113.531C333.14 115.51 330.889 116.758 328.379 117.044C328.018 117.084 327.66 117.104 327.306 117.104H327.303Z" fill="#FFB93E"/>
<path d="M327.304 116.196C323.016 116.196 319.306 112.962 318.811 108.594C318.28 103.901 321.66 99.6501 326.347 99.1166C328.618 98.8578 330.853 99.5012 332.639 100.928C334.426 102.353 335.552 104.392 335.81 106.664C336.067 108.938 335.426 111.175 334.002 112.965C332.579 114.755 330.545 115.883 328.274 116.141C327.949 116.179 327.625 116.196 327.304 116.196ZM319.319 108.537C319.818 112.951 323.812 116.134 328.218 115.635C330.352 115.392 332.265 114.332 333.603 112.648C334.941 110.964 335.545 108.86 335.304 106.722C335.062 104.585 334.003 102.669 332.322 101.329C330.641 99.9886 328.54 99.3842 326.405 99.6253C321.998 100.125 318.82 104.124 319.319 108.537Z" fill="#FFA412"/>
<path d="M329.71 101.796L329.999 106.056L333.664 108.232L329.708 109.822L328.774 113.988L326.041 110.712L321.799 111.109L324.064 107.493L322.376 103.574L326.51 104.616L329.71 101.796Z" fill="#FFA412"/>
<path d="M118.616 226.626L103.525 280.293L32.0821 260.144L32.0804 260.142L1.97852 251.652L17.0702 197.985L73.2758 213.837L118.616 226.626Z" fill="white"/>
<path d="M111.123 230.989L99.4069 272.654L8.13672 246.91L19.8532 205.246L111.123 230.989ZM99.5768 267.186L108.414 235.765C109.014 233.632 107.773 231.415 105.644 230.816L24.6903 207.982C22.5222 207.371 20.2691 208.635 19.6585 210.806L10.857 242.101C10.2517 244.255 11.503 246.492 13.6534 247.098L94.6601 269.946C96.7786 270.543 98.9803 269.308 99.5768 267.186Z" fill="#C0D8FB"/>
<path d="M56.4752 250.161C50.2931 248.417 46.6932 241.986 48.4347 235.795C50.1763 229.603 56.5991 225.998 62.7795 227.742C68.9616 229.486 72.5615 235.919 70.82 242.108C69.0784 248.3 62.6556 251.905 56.4752 250.161Z" fill="#C0D8FB"/>
<path d="M142.5 238.593L94.8654 267.455L56.4487 203.854H56.4469L40.2598 177.057L87.8921 148.197L118.118 198.232L142.5 238.593Z" fill="white"/>
<path d="M134.051 236.653L97.0702 259.059L47.9883 177.807L84.9696 155.401L134.051 236.653ZM100.927 255.181L128.816 238.283C130.71 237.136 131.315 234.669 130.17 232.774L86.6368 160.708C85.4705 158.778 82.9643 158.159 81.037 159.327L53.2589 176.157C51.3475 177.314 50.7351 179.805 51.8926 181.719L95.4543 253.832C96.5941 255.718 99.0436 256.322 100.928 255.181H100.927Z" fill="#C0D8FB"/>
<path d="M81.0711 213.257C77.7473 207.753 79.5066 200.594 85.002 197.266C90.4974 193.937 97.6459 195.699 100.97 201.202C104.294 206.706 102.534 213.865 97.0389 217.196C91.5434 220.524 84.3949 218.762 81.0711 213.259V213.257Z" fill="#C0D8FB"/>
<path d="M162.803 277.168V280.215C162.803 280.458 162.715 280.683 162.564 280.871C162.405 281.068 162.177 281.224 161.91 281.311C161.828 281.337 161.742 281.359 161.655 281.371C161.575 281.383 161.492 281.39 161.409 281.39H103.693C102.95 281.39 102.336 280.894 102.299 280.276C102.299 280.256 102.299 280.235 102.299 280.215V277.168C102.299 277.149 102.299 277.128 102.299 277.108C102.336 276.489 102.95 275.993 103.693 275.993H161.409C161.494 275.993 161.575 276 161.655 276.013C161.743 276.025 161.828 276.046 161.91 276.073C162.177 276.16 162.405 276.316 162.564 276.513C162.715 276.7 162.803 276.926 162.803 277.168Z" fill="#FFB93E"/>
<path d="M134.463 281.39H103.543C102.879 281.39 102.332 280.894 102.299 280.276C102.299 280.256 102.299 280.235 102.299 280.215V277.168C102.299 277.149 102.299 277.128 102.299 277.108C102.332 276.489 102.879 275.993 103.543 275.993H130.666C131.1 277.581 132.109 279.779 134.463 281.389V281.39Z" fill="#FFA412"/>
<path d="M155.782 275.995H155.125V281.391H155.782V275.995Z" fill="#FFA412"/>
<path d="M153.561 275.995H152.904V281.391H153.561V275.995Z" fill="#FFA412"/>
<path d="M150.897 275.995H150.24V281.391H150.897V275.995Z" fill="#FFA412"/>
<path d="M146.817 275.995H146.16V281.391H146.817V275.995Z" fill="#FFA412"/>
<path d="M142.502 275.995H141.846V281.391H142.502V275.995Z" fill="#FFA412"/>
<path d="M135.883 275.995H135.227V281.391H135.883V275.995Z" fill="#FFA412"/>
<path d="M129.69 275.995H129.033V281.391H129.69V275.995Z" fill="#FFA412"/>
<path d="M124.159 275.995H123.502V281.391H124.159V275.995Z" fill="#FFA412"/>
<path d="M157.895 275.995H157.238V281.391H157.895V275.995Z" fill="#FFA412"/>
<path d="M159.289 275.995H158.633V281.391H159.289V275.995Z" fill="#FFA412"/>
<path d="M160.639 275.995H159.982V281.391H160.639V275.995Z" fill="#FFA412"/>
<path d="M161.653 276.013V281.371C161.573 281.384 161.49 281.391 161.407 281.391H160.996V275.995H161.407C161.492 275.995 161.573 276.002 161.653 276.015V276.013Z" fill="#FFA412"/>
<path d="M162.565 276.513V280.871C162.406 281.068 162.177 281.224 161.91 281.311V276.073C162.177 276.16 162.406 276.316 162.565 276.513Z" fill="#FFA412"/>
<path d="M156.632 271.773V274.82C156.632 275.063 156.543 275.288 156.393 275.476C156.233 275.673 156.005 275.829 155.738 275.916C155.656 275.942 155.57 275.963 155.483 275.976C155.403 275.988 155.32 275.995 155.237 275.995H97.5216C96.7783 275.995 96.1641 275.499 96.127 274.882C96.127 274.863 96.127 274.841 96.127 274.822V271.775C96.127 271.755 96.127 271.734 96.127 271.715C96.1641 271.096 96.7783 270.602 97.5216 270.602H155.237C155.274 270.602 155.311 270.602 155.347 270.605C155.363 270.605 155.378 270.607 155.394 270.609C155.412 270.609 155.43 270.612 155.446 270.614C155.458 270.614 155.471 270.618 155.483 270.619C155.571 270.632 155.656 270.653 155.738 270.68C155.75 270.683 155.761 270.687 155.773 270.692C155.786 270.696 155.798 270.701 155.809 270.704C155.832 270.713 155.856 270.724 155.879 270.733C155.892 270.738 155.906 270.745 155.92 270.752C155.932 270.758 155.945 270.763 155.955 270.77C155.978 270.781 156 270.793 156.021 270.805C156.046 270.82 156.069 270.834 156.094 270.85C156.111 270.862 156.131 270.875 156.148 270.887C156.148 270.887 156.15 270.887 156.152 270.889C156.164 270.898 156.177 270.906 156.187 270.915C156.223 270.942 156.256 270.972 156.288 271.004C156.299 271.013 156.308 271.022 156.317 271.03C156.325 271.039 156.334 271.05 156.343 271.059C156.361 271.078 156.378 271.098 156.394 271.119C156.545 271.307 156.633 271.532 156.633 271.775L156.632 271.773Z" fill="#FFB93E"/>
<path d="M128.291 275.995H97.371C96.7055 275.995 96.1604 275.499 96.125 274.882C96.125 274.863 96.125 274.841 96.125 274.822V271.775C96.125 271.755 96.125 271.734 96.125 271.715C96.1586 271.096 96.7055 270.602 97.371 270.602H124.492C124.505 270.646 124.517 270.69 124.53 270.735C124.983 272.31 125.999 274.432 128.289 275.997L128.291 275.995Z" fill="#FFA412"/>
<path d="M149.61 270.598H148.953V275.993H149.61V270.598Z" fill="#FFA412"/>
<path d="M147.389 270.598H146.732V275.993H147.389V270.598Z" fill="#FFA412"/>
<path d="M144.727 270.598H144.07V275.993H144.727V270.598Z" fill="#FFA412"/>
<path d="M140.647 270.598H139.99V275.993H140.647V270.598Z" fill="#FFA412"/>
<path d="M136.33 270.598H135.674V275.993H136.33V270.598Z" fill="#FFA412"/>
<path d="M129.713 270.598H129.057V275.993H129.713V270.598Z" fill="#FFA412"/>
<path d="M123.52 270.598H122.863V275.993H123.52V270.598Z" fill="#FFA412"/>
<path d="M117.987 270.598H117.33V275.993H117.987V270.598Z" fill="#FFA412"/>
<path d="M151.723 270.598H151.066V275.993H151.723V270.598Z" fill="#FFA412"/>
<path d="M153.12 270.598H152.463V275.993H153.12V270.598Z" fill="#FFA412"/>
<path d="M154.469 270.598H153.812V275.993H154.469V270.598Z" fill="#FFA412"/>
<path d="M155.483 270.617V275.976C155.403 275.988 155.32 275.995 155.237 275.995H154.826V270.6H155.237C155.322 270.6 155.403 270.607 155.483 270.619V270.617Z" fill="#FFA412"/>
<path d="M156.393 271.117V275.475C156.234 275.672 156.006 275.828 155.738 275.915V270.677C156.006 270.764 156.234 270.92 156.393 271.117Z" fill="#FFA412"/>
<path d="M159.614 266.51V269.557C159.614 269.8 159.525 270.025 159.375 270.213C159.216 270.41 158.987 270.566 158.72 270.652C158.639 270.679 158.552 270.7 158.465 270.713C158.386 270.725 158.302 270.732 158.219 270.732H100.504C100.272 270.732 100.053 270.684 99.8596 270.599C99.4508 270.42 99.1588 270.075 99.1127 269.671C99.111 269.653 99.1092 269.635 99.1074 269.617C99.1074 269.598 99.1074 269.577 99.1074 269.557V266.51C99.1074 266.491 99.1074 266.469 99.1074 266.45C99.1446 265.831 99.7587 265.335 100.502 265.335H158.217C158.302 265.335 158.384 265.342 158.463 265.354C158.552 265.367 158.637 265.388 158.718 265.415C158.986 265.502 159.214 265.658 159.373 265.854C159.524 266.042 159.612 266.267 159.612 266.51H159.614Z" fill="#FFB93E"/>
<path d="M131.273 270.732H100.353C100.146 270.732 99.9517 270.684 99.7782 270.599C99.4136 270.42 99.1534 270.075 99.1127 269.671C99.111 269.653 99.1092 269.635 99.1074 269.617C99.1074 269.598 99.1074 269.577 99.1074 269.557V266.51C99.1074 266.491 99.1074 266.469 99.1074 266.45C99.141 265.831 99.6879 265.335 100.353 265.335H127.477C127.898 266.881 128.864 269.001 131.084 270.598C131.146 270.642 131.209 270.686 131.273 270.73V270.732Z" fill="#FFA412"/>
<path d="M152.592 265.335H151.936V270.73H152.592V265.335Z" fill="#FFA412"/>
<path d="M150.371 265.335H149.715V270.73H150.371V265.335Z" fill="#FFA412"/>
<path d="M147.709 265.335H147.053V270.73H147.709V265.335Z" fill="#FFA412"/>
<path d="M143.629 265.335H142.973V270.73H143.629V265.335Z" fill="#FFA412"/>
<path d="M139.313 265.335H138.656V270.73H139.313V265.335Z" fill="#FFA412"/>
<path d="M132.696 265.335H132.039V270.73H132.696V265.335Z" fill="#FFA412"/>
<path d="M126.502 265.335H125.846V270.73H126.502V265.335Z" fill="#FFA412"/>
<path d="M120.969 265.335H120.312V270.73H120.969V265.335Z" fill="#FFA412"/>
<path d="M154.705 265.335H154.049V270.73H154.705V265.335Z" fill="#FFA412"/>
<path d="M156.102 265.335H155.445V270.73H156.102V265.335Z" fill="#FFA412"/>
<path d="M157.452 265.335H156.795V270.73H157.452V265.335Z" fill="#FFA412"/>
<path d="M158.463 265.355V270.713C158.384 270.725 158.3 270.732 158.217 270.732H157.807V265.337H158.217C158.302 265.337 158.384 265.344 158.463 265.356V265.355Z" fill="#FFA412"/>
<path d="M159.376 265.854V270.213C159.216 270.409 158.988 270.565 158.721 270.652V265.415C158.988 265.501 159.216 265.657 159.376 265.854Z" fill="#FFA412"/>
<path d="M160.997 261.113V264.16C160.997 264.402 160.908 264.628 160.758 264.815C160.599 265.012 160.37 265.168 160.103 265.255C160.022 265.282 159.935 265.303 159.848 265.315C159.769 265.328 159.685 265.335 159.602 265.335H101.887C101.143 265.335 100.529 264.838 100.492 264.22C100.492 264.2 100.492 264.179 100.492 264.16V261.113C100.492 261.093 100.492 261.072 100.492 261.052C100.528 260.48 101.053 260.014 101.722 259.946C101.777 259.941 101.83 259.938 101.887 259.938H159.602C159.687 259.938 159.769 259.945 159.848 259.957C159.937 259.969 160.022 259.991 160.103 260.017C160.37 260.104 160.599 260.26 160.758 260.457C160.908 260.645 160.997 260.87 160.997 261.113Z" fill="#FFB93E"/>
<path d="M132.656 265.335H101.736C101.073 265.335 100.526 264.838 100.49 264.22C100.49 264.2 100.49 264.179 100.49 264.16V261.113C100.49 261.093 100.49 261.072 100.49 261.052C100.52 260.482 100.993 260.014 101.588 259.946C101.635 259.941 101.685 259.938 101.734 259.938H128.858V259.946C129.295 261.535 130.304 263.725 132.654 265.335H132.656Z" fill="#FFA412"/>
<path d="M153.975 259.939H153.318V265.335H153.975V259.939Z" fill="#FFA412"/>
<path d="M151.754 259.939H151.098V265.335H151.754V259.939Z" fill="#FFA412"/>
<path d="M149.092 259.939H148.436V265.335H149.092V259.939Z" fill="#FFA412"/>
<path d="M145.012 259.939H144.355V265.335H145.012V259.939Z" fill="#FFA412"/>
<path d="M140.696 259.939H140.039V265.335H140.696V259.939Z" fill="#FFA412"/>
<path d="M134.078 259.939H133.422V265.335H134.078V259.939Z" fill="#FFA412"/>
<path d="M127.885 259.939H127.229V265.335H127.885V259.939Z" fill="#FFA412"/>
<path d="M122.352 259.939H121.695V265.335H122.352V259.939Z" fill="#FFA412"/>
<path d="M156.088 259.939H155.432V265.335H156.088V259.939Z" fill="#FFA412"/>
<path d="M157.485 259.939H156.828V265.335H157.485V259.939Z" fill="#FFA412"/>
<path d="M158.834 259.939H158.178V265.335H158.834V259.939Z" fill="#FFA412"/>
<path d="M159.848 259.957V265.315C159.768 265.328 159.685 265.335 159.602 265.335H159.191V259.939H159.602C159.687 259.939 159.768 259.947 159.848 259.959V259.957Z" fill="#FFA412"/>
<path d="M160.758 260.457V264.816C160.599 265.013 160.371 265.168 160.104 265.255V260.018C160.371 260.104 160.599 260.26 160.758 260.457Z" fill="#FFA412"/>
<path d="M156.754 255.726V258.773C156.754 259.016 156.666 259.241 156.515 259.429C156.356 259.625 156.128 259.781 155.861 259.868C155.779 259.895 155.693 259.916 155.606 259.929C155.579 259.932 155.551 259.936 155.524 259.939C155.51 259.939 155.494 259.941 155.478 259.943C155.464 259.943 155.448 259.945 155.432 259.946C155.408 259.946 155.383 259.948 155.358 259.948H97.6427C96.8994 259.948 96.2852 259.452 96.248 258.833C96.248 258.814 96.248 258.792 96.248 258.773V255.726C96.248 255.706 96.248 255.685 96.248 255.666C96.248 255.648 96.2498 255.632 96.2516 255.616C96.3065 255.118 96.7365 254.709 97.2976 254.588C97.3117 254.584 97.3259 254.583 97.3401 254.579C97.4374 254.561 97.5383 254.551 97.6427 254.551H155.358C155.4 254.551 155.443 254.553 155.484 254.556C155.501 254.558 155.521 254.56 155.539 254.561C155.56 254.563 155.581 254.567 155.604 254.57C155.693 254.583 155.777 254.604 155.859 254.631C156.126 254.717 156.354 254.873 156.514 255.07C156.666 255.258 156.753 255.483 156.753 255.726H156.754Z" fill="#FFB93E"/>
<path d="M128.414 259.948H97.494C96.8303 259.948 96.2834 259.452 96.248 258.833C96.248 258.814 96.248 258.792 96.248 258.773V255.726C96.248 255.706 96.248 255.685 96.248 255.666C96.248 255.648 96.2498 255.632 96.2516 255.616C96.3011 255.107 96.7011 254.691 97.2179 254.581C97.2356 254.576 97.2533 254.574 97.271 254.57C97.3436 254.558 97.4162 254.551 97.4923 254.551H124.615C124.619 254.563 124.623 254.576 124.626 254.59C125.063 256.173 126.074 258.342 128.399 259.939C128.403 259.941 128.408 259.945 128.412 259.948H128.414Z" fill="#FFA412"/>
<path d="M149.733 254.551H149.076V259.946H149.733V254.551Z" fill="#FFA412"/>
<path d="M147.512 254.551H146.855V259.946H147.512V254.551Z" fill="#FFA412"/>
<path d="M144.848 254.551H144.191V259.946H144.848V254.551Z" fill="#FFA412"/>
<path d="M140.768 254.551H140.111V259.946H140.768V254.551Z" fill="#FFA412"/>
<path d="M136.453 254.551H135.797V259.946H136.453V254.551Z" fill="#FFA412"/>
<path d="M129.834 254.551H129.178V259.946H129.834V254.551Z" fill="#FFA412"/>
<path d="M123.641 254.551H122.984V259.946H123.641V254.551Z" fill="#FFA412"/>
<path d="M118.11 254.551H117.453V259.946H118.11V254.551Z" fill="#FFA412"/>
<path d="M151.846 254.551H151.189V259.946H151.846V254.551Z" fill="#FFA412"/>
<path d="M153.241 254.551H152.584V259.946H153.241V254.551Z" fill="#FFA412"/>
<path d="M154.59 254.551H153.934V259.946H154.59V254.551Z" fill="#FFA412"/>
<path d="M155.604 254.57V259.929C155.524 259.941 155.441 259.948 155.358 259.948H154.947V254.553H155.358C155.443 254.553 155.524 254.56 155.604 254.572V254.57Z" fill="#FFA412"/>
<path d="M156.516 255.07V259.429C156.357 259.625 156.129 259.781 155.861 259.868V254.63C156.129 254.717 156.357 254.873 156.516 255.07Z" fill="#FFA412"/>
<path d="M156.632 250.368V253.415C156.632 253.657 156.543 253.883 156.393 254.07C156.233 254.267 156.005 254.423 155.738 254.51C155.674 254.531 155.607 254.549 155.538 254.561C155.52 254.565 155.501 254.569 155.483 254.572C155.403 254.585 155.32 254.592 155.237 254.592H97.5216C97.4614 254.592 97.3995 254.588 97.3411 254.581C97.3181 254.579 97.2951 254.576 97.2721 254.572C96.6437 254.476 96.1606 254.024 96.127 253.477C96.127 253.457 96.127 253.436 96.127 253.416V250.37C96.127 250.35 96.127 250.329 96.127 250.309C96.1641 249.691 96.7783 249.194 97.5216 249.194H155.237C155.274 249.194 155.311 249.194 155.347 249.198C155.363 249.198 155.378 249.2 155.394 249.201C155.412 249.201 155.43 249.205 155.446 249.207C155.458 249.207 155.471 249.21 155.483 249.212C155.571 249.224 155.656 249.246 155.738 249.272C155.75 249.276 155.761 249.279 155.773 249.285C155.786 249.288 155.798 249.294 155.809 249.297C155.833 249.306 155.856 249.317 155.879 249.325C155.904 249.338 155.931 249.349 155.955 249.363C155.978 249.373 156 249.386 156.021 249.398C156.046 249.412 156.069 249.428 156.094 249.442C156.111 249.455 156.131 249.466 156.148 249.48C156.148 249.48 156.15 249.48 156.152 249.481C156.164 249.49 156.177 249.499 156.187 249.508C156.223 249.535 156.256 249.565 156.288 249.597C156.299 249.606 156.308 249.614 156.317 249.623C156.325 249.632 156.334 249.643 156.343 249.652C156.361 249.671 156.378 249.691 156.394 249.712C156.545 249.9 156.633 250.125 156.633 250.368H156.632Z" fill="#FFB93E"/>
<path d="M128.291 254.59H97.3712C97.3464 254.59 97.3216 254.59 97.2986 254.588C97.2721 254.588 97.2455 254.585 97.219 254.581C96.6243 254.512 96.157 254.046 96.127 253.477C96.127 253.457 96.127 253.436 96.127 253.416V250.37C96.127 250.35 96.127 250.329 96.127 250.309C96.1606 249.691 96.7075 249.194 97.3729 249.194H124.494C124.507 249.239 124.519 249.283 124.532 249.327C124.981 250.891 125.985 252.989 128.236 254.553C128.254 254.565 128.273 254.577 128.291 254.592V254.59Z" fill="#FFA412"/>
<path d="M149.61 249.194H148.953V254.59H149.61V249.194Z" fill="#FFA412"/>
<path d="M147.389 249.194H146.732V254.59H147.389V249.194Z" fill="#FFA412"/>
<path d="M144.727 249.194H144.07V254.59H144.727V249.194Z" fill="#FFA412"/>
<path d="M140.647 249.194H139.99V254.59H140.647V249.194Z" fill="#FFA412"/>
<path d="M136.33 249.194H135.674V254.59H136.33V249.194Z" fill="#FFA412"/>
<path d="M129.713 249.194H129.057V254.59H129.713V249.194Z" fill="#FFA412"/>
<path d="M123.52 249.194H122.863V254.59H123.52V249.194Z" fill="#FFA412"/>
<path d="M117.987 249.194H117.33V254.59H117.987V249.194Z" fill="#FFA412"/>
<path d="M151.723 249.194H151.066V254.59H151.723V249.194Z" fill="#FFA412"/>
<path d="M153.12 249.194H152.463V254.59H153.12V249.194Z" fill="#FFA412"/>
<path d="M154.469 249.194H153.812V254.59H154.469V249.194Z" fill="#FFA412"/>
<path d="M155.483 249.212V254.57C155.403 254.583 155.32 254.59 155.237 254.59H154.826V249.194H155.237C155.322 249.194 155.403 249.201 155.483 249.214V249.212Z" fill="#FFA412"/>
<path d="M156.393 249.712V254.071C156.234 254.267 156.006 254.423 155.738 254.51V249.272C156.006 249.359 156.234 249.515 156.393 249.712Z" fill="#FFA412"/>
<path d="M159.614 245.105V248.152C159.614 248.395 159.525 248.62 159.375 248.808C159.216 249.005 158.987 249.161 158.72 249.247C158.639 249.274 158.552 249.295 158.465 249.308C158.386 249.32 158.302 249.327 158.219 249.327H100.504C100.272 249.327 100.053 249.279 99.8596 249.194C99.4508 249.015 99.1588 248.67 99.1127 248.265C99.111 248.248 99.1092 248.23 99.1074 248.212C99.1074 248.193 99.1074 248.171 99.1074 248.152V245.105C99.1074 245.086 99.1074 245.064 99.1074 245.045C99.1446 244.426 99.7587 243.932 100.502 243.932H158.217C158.302 243.932 158.384 243.939 158.463 243.951C158.552 243.964 158.637 243.985 158.718 244.011C158.986 244.098 159.214 244.254 159.373 244.451C159.524 244.639 159.612 244.864 159.612 245.107L159.614 245.105Z" fill="#FFB93E"/>
<path d="M131.273 249.327H100.353C100.146 249.327 99.9517 249.279 99.7782 249.194C99.4136 249.015 99.1534 248.67 99.1127 248.265C99.111 248.248 99.1092 248.23 99.1074 248.212C99.1074 248.193 99.1074 248.171 99.1074 248.152V245.105C99.1074 245.086 99.1074 245.064 99.1074 245.045C99.141 244.426 99.6879 243.932 100.353 243.932H127.477C127.898 245.477 128.864 247.597 131.084 249.194C131.146 249.239 131.209 249.283 131.273 249.327Z" fill="#FFA412"/>
<path d="M152.592 243.932H151.936V249.327H152.592V243.932Z" fill="#FFA412"/>
<path d="M150.371 243.932H149.715V249.327H150.371V243.932Z" fill="#FFA412"/>
<path d="M147.709 243.932H147.053V249.327H147.709V243.932Z" fill="#FFA412"/>
<path d="M143.629 243.932H142.973V249.327H143.629V243.932Z" fill="#FFA412"/>
<path d="M139.313 243.932H138.656V249.327H139.313V243.932Z" fill="#FFA412"/>
<path d="M132.696 243.932H132.039V249.327H132.696V243.932Z" fill="#FFA412"/>
<path d="M126.502 243.932H125.846V249.327H126.502V243.932Z" fill="#FFA412"/>
<path d="M120.969 243.932H120.312V249.327H120.969V243.932Z" fill="#FFA412"/>
<path d="M154.705 243.932H154.049V249.327H154.705V243.932Z" fill="#FFA412"/>
<path d="M156.102 243.932H155.445V249.327H156.102V243.932Z" fill="#FFA412"/>
<path d="M157.452 243.932H156.795V249.327H157.452V243.932Z" fill="#FFA412"/>
<path d="M158.463 243.949V249.308C158.384 249.32 158.3 249.327 158.217 249.327H157.807V243.932H158.217C158.302 243.932 158.384 243.939 158.463 243.951V243.949Z" fill="#FFA412"/>
<path d="M159.376 244.449V248.808C159.216 249.005 158.988 249.161 158.721 249.248V244.01C158.988 244.097 159.216 244.253 159.376 244.449Z" fill="#FFA412"/>
<path d="M164.331 239.71V242.757C164.331 243 164.242 243.225 164.092 243.413C163.933 243.609 163.704 243.765 163.437 243.852C163.356 243.879 163.269 243.9 163.182 243.912C163.102 243.925 163.019 243.932 162.936 243.932H105.221C104.477 243.932 103.863 243.436 103.826 242.817C103.826 242.798 103.826 242.776 103.826 242.757V239.71C103.826 239.69 103.826 239.669 103.826 239.65C103.862 239.079 104.389 238.611 105.056 238.544C105.111 238.538 105.166 238.535 105.221 238.535H162.936C163.021 238.535 163.102 238.542 163.182 238.554C163.271 238.567 163.356 238.588 163.437 238.614C163.704 238.701 163.933 238.857 164.092 239.054C164.242 239.242 164.331 239.467 164.331 239.71Z" fill="#FFB93E"/>
<path d="M135.99 243.93H105.07C104.407 243.93 103.86 243.434 103.824 242.815C103.824 242.796 103.824 242.774 103.824 242.755V239.708C103.824 239.688 103.824 239.667 103.824 239.648C103.854 239.077 104.325 238.609 104.922 238.542C104.969 238.536 105.019 238.533 105.068 238.533H132.192C132.192 238.533 132.192 238.538 132.193 238.542C132.629 240.13 133.638 242.321 135.988 243.93H135.99Z" fill="#FFA412"/>
<path d="M157.309 238.535H156.652V243.93H157.309V238.535Z" fill="#FFA412"/>
<path d="M155.088 238.535H154.432V243.93H155.088V238.535Z" fill="#FFA412"/>
<path d="M152.426 238.535H151.77V243.93H152.426V238.535Z" fill="#FFA412"/>
<path d="M148.346 238.535H147.689V243.93H148.346V238.535Z" fill="#FFA412"/>
<path d="M144.03 238.535H143.373V243.93H144.03V238.535Z" fill="#FFA412"/>
<path d="M137.412 238.535H136.756V243.93H137.412V238.535Z" fill="#FFA412"/>
<path d="M131.217 238.535H130.561V243.93H131.217V238.535Z" fill="#FFA412"/>
<path d="M125.686 238.535H125.029V243.93H125.686V238.535Z" fill="#FFA412"/>
<path d="M159.422 238.535H158.766V243.93H159.422V238.535Z" fill="#FFA412"/>
<path d="M160.819 238.535H160.162V243.93H160.819V238.535Z" fill="#FFA412"/>
<path d="M162.168 238.535H161.512V243.93H162.168V238.535Z" fill="#FFA412"/>
<path d="M163.18 238.554V243.913C163.1 243.925 163.017 243.932 162.934 243.932H162.523V238.537H162.934C163.019 238.537 163.1 238.544 163.18 238.556V238.554Z" fill="#FFA412"/>
<path d="M164.092 239.054V243.412C163.933 243.609 163.705 243.765 163.438 243.852V238.614C163.705 238.701 163.933 238.857 164.092 239.054Z" fill="#FFA412"/>
<path d="M156.755 234.321V237.368C156.755 237.611 156.666 237.836 156.516 238.024C156.356 238.221 156.128 238.377 155.861 238.464C155.779 238.49 155.693 238.512 155.606 238.524C155.579 238.527 155.551 238.531 155.525 238.535C155.503 238.536 155.482 238.538 155.459 238.54C155.448 238.54 155.438 238.54 155.427 238.542C155.404 238.542 155.383 238.542 155.36 238.542H97.6447C96.9013 238.542 96.2872 238.045 96.25 237.429C96.25 237.409 96.25 237.388 96.25 237.368V234.321C96.25 234.302 96.25 234.281 96.25 234.261C96.2872 233.642 96.9013 233.148 97.6447 233.148H155.36C155.385 233.148 155.41 233.148 155.434 233.15C155.493 233.151 155.549 233.159 155.606 233.167C155.694 233.18 155.779 233.201 155.861 233.228C155.903 233.242 155.944 233.256 155.983 233.274C156.008 233.284 156.031 233.295 156.056 233.306C156.057 233.306 156.061 233.307 156.063 233.309C156.087 233.322 156.11 233.334 156.133 233.346C156.139 233.348 156.142 233.352 156.146 233.354C156.167 233.366 156.188 233.378 156.208 233.393C156.257 233.424 156.303 233.458 156.348 233.495C156.362 233.506 156.374 233.518 156.386 233.529C156.388 233.531 156.392 233.533 156.394 233.536C156.402 233.543 156.409 233.55 156.417 233.557C156.417 233.557 156.42 233.561 156.422 233.563C156.436 233.577 156.45 233.591 156.463 233.605C156.482 233.627 156.5 233.646 156.517 233.669C156.67 233.857 156.756 234.082 156.756 234.325L156.755 234.321Z" fill="#FFB93E"/>
<path d="M128.414 238.544H97.494C96.8303 238.544 96.2834 238.047 96.248 237.431C96.248 237.411 96.248 237.39 96.248 237.37V234.323C96.248 234.304 96.248 234.283 96.248 234.263C96.2817 233.644 96.8286 233.15 97.494 233.15H124.617C124.628 233.191 124.64 233.231 124.653 233.274C125.102 234.848 126.116 236.968 128.401 238.537C128.405 238.538 128.41 238.542 128.414 238.545V238.544Z" fill="#FFA412"/>
<path d="M149.733 233.148H149.076V238.543H149.733V233.148Z" fill="#FFA412"/>
<path d="M147.512 233.148H146.855V238.543H147.512V233.148Z" fill="#FFA412"/>
<path d="M144.848 233.148H144.191V238.543H144.848V233.148Z" fill="#FFA412"/>
<path d="M140.768 233.148H140.111V238.543H140.768V233.148Z" fill="#FFA412"/>
<path d="M136.453 233.148H135.797V238.543H136.453V233.148Z" fill="#FFA412"/>
<path d="M129.834 233.148H129.178V238.543H129.834V233.148Z" fill="#FFA412"/>
<path d="M123.641 233.148H122.984V238.543H123.641V233.148Z" fill="#FFA412"/>
<path d="M118.11 233.148H117.453V238.543H118.11V233.148Z" fill="#FFA412"/>
<path d="M151.846 233.148H151.189V238.543H151.846V233.148Z" fill="#FFA412"/>
<path d="M153.241 233.148H152.584V238.543H153.241V233.148Z" fill="#FFA412"/>
<path d="M154.59 233.148H153.934V238.543H154.59V233.148Z" fill="#FFA412"/>
<path d="M155.604 233.166V238.524C155.524 238.536 155.441 238.543 155.358 238.543H154.947V233.148H155.358C155.443 233.148 155.524 233.155 155.604 233.167V233.166Z" fill="#FFA412"/>
<path d="M156.516 233.666V238.024C156.357 238.221 156.129 238.377 155.861 238.464V233.226C156.129 233.313 156.357 233.469 156.516 233.666Z" fill="#FFA412"/>
<path d="M160.997 229.05V232.097C160.997 232.34 160.908 232.565 160.758 232.753C160.599 232.949 160.37 233.105 160.103 233.192C160.022 233.219 159.935 233.24 159.848 233.252C159.769 233.265 159.685 233.272 159.602 233.272H101.887C101.662 233.272 101.451 233.228 101.264 233.148C100.843 232.971 100.542 232.618 100.496 232.207C100.496 232.191 100.492 232.175 100.492 232.159C100.492 232.139 100.492 232.118 100.492 232.099V229.052C100.492 229.032 100.492 229.011 100.492 228.991C100.528 228.419 101.053 227.953 101.722 227.885C101.777 227.88 101.83 227.876 101.887 227.876H159.602C159.687 227.876 159.769 227.884 159.848 227.896C159.937 227.908 160.022 227.93 160.103 227.956C160.37 228.043 160.599 228.199 160.758 228.396C160.908 228.584 160.997 228.809 160.997 229.052V229.05Z" fill="#FFB93E"/>
<path d="M132.656 233.272H101.736C101.536 233.272 101.347 233.228 101.181 233.148C100.805 232.971 100.536 232.618 100.496 232.207C100.496 232.191 100.492 232.175 100.492 232.159C100.492 232.139 100.492 232.118 100.492 232.099V229.052C100.492 229.032 100.492 229.011 100.492 228.991C100.522 228.421 100.995 227.953 101.59 227.885C101.637 227.88 101.687 227.876 101.736 227.876H128.86V227.885C129.284 229.433 130.256 231.553 132.479 233.148C132.537 233.19 132.596 233.231 132.656 233.272Z" fill="#FFA412"/>
<path d="M153.975 227.876H153.318V233.272H153.975V227.876Z" fill="#FFA412"/>
<path d="M151.754 227.876H151.098V233.272H151.754V227.876Z" fill="#FFA412"/>
<path d="M149.092 227.876H148.436V233.272H149.092V227.876Z" fill="#FFA412"/>
<path d="M145.012 227.876H144.355V233.272H145.012V227.876Z" fill="#FFA412"/>
<path d="M140.696 227.876H140.039V233.272H140.696V227.876Z" fill="#FFA412"/>
<path d="M134.078 227.876H133.422V233.272H134.078V227.876Z" fill="#FFA412"/>
<path d="M127.885 227.876H127.229V233.272H127.885V227.876Z" fill="#FFA412"/>
<path d="M122.352 227.876H121.695V233.272H122.352V227.876Z" fill="#FFA412"/>
<path d="M156.088 227.876H155.432V233.272H156.088V227.876Z" fill="#FFA412"/>
<path d="M157.485 227.876H156.828V233.272H157.485V227.876Z" fill="#FFA412"/>
<path d="M158.834 227.876H158.178V233.272H158.834V227.876Z" fill="#FFA412"/>
<path d="M159.848 227.894V233.252C159.768 233.265 159.685 233.272 159.602 233.272H159.191V227.876H159.602C159.687 227.876 159.768 227.884 159.848 227.896V227.894Z" fill="#FFA412"/>
<path d="M160.758 228.394V232.753C160.599 232.95 160.371 233.105 160.104 233.192V227.955C160.371 228.041 160.599 228.197 160.758 228.394Z" fill="#FFA412"/>
<path d="M162.803 223.663V226.71C162.803 226.953 162.715 227.178 162.564 227.366C162.405 227.563 162.177 227.719 161.909 227.806C161.828 227.832 161.741 227.853 161.655 227.866C161.628 227.869 161.6 227.873 161.573 227.877C161.559 227.877 161.543 227.878 161.527 227.88C161.513 227.88 161.497 227.882 161.481 227.882C161.456 227.882 161.432 227.884 161.407 227.884H103.692C102.948 227.884 102.334 227.387 102.297 226.769C102.297 226.749 102.297 226.728 102.297 226.708V223.662C102.297 223.642 102.297 223.621 102.297 223.601C102.334 222.983 102.948 222.486 103.692 222.486H161.407C161.492 222.486 161.573 222.493 161.653 222.506C161.741 222.518 161.826 222.54 161.908 222.566C162.175 222.653 162.403 222.809 162.563 223.006C162.713 223.194 162.801 223.419 162.801 223.662L162.803 223.663Z" fill="#FFB93E"/>
<path d="M134.462 227.884H103.543C102.879 227.884 102.332 227.387 102.297 226.769C102.297 226.749 102.297 226.728 102.297 226.708V223.662C102.297 223.642 102.297 223.621 102.297 223.601C102.331 222.983 102.877 222.486 103.543 222.486H130.666C131.098 224.073 132.105 226.264 134.45 227.875C134.454 227.877 134.459 227.88 134.462 227.884Z" fill="#FFA412"/>
<path d="M155.782 222.488H155.125V227.884H155.782V222.488Z" fill="#FFA412"/>
<path d="M153.561 222.488H152.904V227.884H153.561V222.488Z" fill="#FFA412"/>
<path d="M150.897 222.488H150.24V227.884H150.897V222.488Z" fill="#FFA412"/>
<path d="M146.817 222.488H146.16V227.884H146.817V222.488Z" fill="#FFA412"/>
<path d="M142.502 222.488H141.846V227.884H142.502V222.488Z" fill="#FFA412"/>
<path d="M135.883 222.488H135.227V227.884H135.883V222.488Z" fill="#FFA412"/>
<path d="M129.69 222.488H129.033V227.884H129.69V222.488Z" fill="#FFA412"/>
<path d="M124.159 222.488H123.502V227.884H124.159V222.488Z" fill="#FFA412"/>
<path d="M157.895 222.488H157.238V227.884H157.895V222.488Z" fill="#FFA412"/>
<path d="M159.291 222.488H158.635V227.884H159.291V222.488Z" fill="#FFA412"/>
<path d="M160.639 222.488H159.982V227.884H160.639V222.488Z" fill="#FFA412"/>
<path d="M161.653 222.508V227.866C161.573 227.879 161.49 227.886 161.407 227.886H160.996V222.49H161.407C161.492 222.49 161.573 222.497 161.653 222.51V222.508Z" fill="#FFA412"/>
<path d="M162.565 223.007V227.366C162.406 227.563 162.177 227.719 161.91 227.806V222.568C162.177 222.655 162.406 222.811 162.565 223.007Z" fill="#FFA412"/>
<path d="M118.345 273.358C129.056 262.631 129.056 245.237 118.345 234.51C107.633 223.782 90.2655 223.782 79.5537 234.51C68.8419 245.237 68.8419 262.631 79.5537 273.359C90.2655 284.086 107.633 284.086 118.345 273.358Z" fill="#E2810E"/>
<path d="M115.952 273.359C126.664 262.631 126.664 245.237 115.952 234.51C105.24 223.782 87.8729 223.782 77.1611 234.51C66.4493 245.237 66.4493 262.631 77.1611 273.359C87.8729 284.086 105.24 284.086 115.952 273.359Z" fill="#FFB93E"/>
<path d="M96.5567 279.287C89.8808 279.287 83.6048 276.683 78.8846 271.956C74.1644 267.228 71.5645 260.943 71.5645 254.257C71.5645 247.571 74.1644 241.286 78.8846 236.559C83.6048 231.831 89.8808 229.228 96.5567 229.228C103.233 229.228 109.509 231.831 114.229 236.559C118.949 241.286 121.549 247.571 121.549 254.257C121.549 260.943 118.949 267.228 114.229 271.956C109.509 276.683 103.233 279.287 96.5567 279.287ZM96.5567 230.722C83.5978 230.722 73.0564 241.281 73.0564 254.257C73.0564 267.234 83.5995 277.792 96.5567 277.792C109.514 277.792 120.057 267.234 120.057 254.257C120.057 241.281 109.514 230.722 96.5567 230.722Z" fill="#FFA412"/>
<path d="M99.997 261.522C100.061 260.982 100.041 260.498 99.9386 260.069C99.836 259.64 99.6307 259.238 99.3245 258.862C99.0183 258.486 98.6094 258.124 98.0979 257.777C97.5865 257.43 96.9529 257.075 96.1971 256.71C94.8998 256.074 93.7299 255.428 92.6857 254.778C91.6415 254.126 90.7672 253.413 90.061 252.639C89.3548 251.864 88.838 250.994 88.5106 250.031C88.1832 249.067 88.0947 247.956 88.2433 246.695C88.3725 245.603 88.684 244.63 89.1778 243.776C89.6716 242.923 90.3158 242.204 91.1141 241.621C91.9105 241.037 92.8361 240.596 93.8874 240.298C94.9387 240.001 96.0927 239.866 97.3493 239.9L97.8378 235.775L101.153 236.168L100.657 240.352C101.827 240.648 102.866 241.091 103.777 241.681C104.687 242.271 105.438 242.985 106.023 243.824C106.609 244.662 107.025 245.621 107.269 246.699C107.512 247.777 107.558 248.959 107.406 250.244L101.416 249.533C101.599 247.991 101.393 246.796 100.801 245.951C100.208 245.105 99.3369 244.614 98.19 244.478C97.5688 244.403 97.0219 244.427 96.5529 244.547C96.0838 244.668 95.6856 244.861 95.36 245.128C95.0343 245.396 94.7777 245.728 94.5901 246.123C94.4025 246.518 94.2821 246.952 94.2255 247.429C94.1688 247.904 94.1865 248.344 94.2804 248.744C94.3724 249.147 94.5688 249.531 94.8679 249.9C95.1671 250.269 95.5794 250.63 96.1051 250.985C96.6307 251.341 97.2891 251.722 98.082 252.128C99.3616 252.789 100.521 253.447 101.556 254.104C102.592 254.762 103.462 255.482 104.169 256.262C104.875 257.043 105.392 257.915 105.717 258.88C106.045 259.844 106.133 260.95 105.986 262.196C105.852 263.327 105.535 264.319 105.036 265.172C104.535 266.024 103.887 266.737 103.091 267.306C102.294 267.877 101.365 268.3 100.303 268.579C99.2413 268.857 98.0802 268.979 96.8236 268.947L96.3688 272.783L93.0733 272.391L93.5264 268.575C92.3937 268.323 91.3141 267.941 90.2893 267.428C89.2646 266.916 88.3796 266.246 87.638 265.422C86.8947 264.598 86.3407 263.603 85.9744 262.439C85.608 261.274 85.516 259.922 85.6983 258.38L91.6875 259.09C91.5795 260.003 91.6167 260.78 91.8008 261.42C91.9831 262.061 92.268 262.589 92.6521 263.006C93.0361 263.422 93.4928 263.738 94.0219 263.951C94.5494 264.163 95.098 264.303 95.6644 264.371C96.3139 264.447 96.8927 264.433 97.4042 264.323C97.9139 264.215 98.3528 264.032 98.7192 263.775C99.0855 263.518 99.3758 263.199 99.5899 262.813C99.8041 262.428 99.9386 261.997 99.9952 261.522H99.997Z" fill="#FFA412"/>
<path d="M230.92 186.781V254.622C230.92 257.167 228.853 259.238 226.31 259.238H218.103C215.216 259.238 212.891 256.886 212.891 253.996V186.781H230.918H230.92Z" fill="#699DEE"/>
<path d="M256.722 217.844V227.444C256.722 229.968 254.655 232.039 252.113 232.039H196.867C192.495 232.039 188.941 228.501 188.941 224.123V220.088C188.941 216.722 191.676 213.984 195.058 213.984H252.869C254.98 213.984 256.724 215.71 256.724 217.844H256.722Z" fill="#699DEE"/>
<path d="M239.952 130.582H204.647C203.116 130.582 201.875 131.825 201.875 133.358V136.851C201.875 138.384 203.116 139.627 204.647 139.627H239.952C241.483 139.627 242.723 138.384 242.723 136.851V133.358C242.723 131.825 241.483 130.582 239.952 130.582Z" fill="#F99746"/>
<path d="M242.723 149.248V152.937C242.723 154.426 241.539 155.612 240.052 155.612H204.534C203.069 155.612 201.885 154.426 201.885 152.937V149.248C201.885 147.76 203.069 146.574 204.534 146.574H240.052C241.539 146.574 242.723 147.76 242.723 149.248Z" fill="#F99746"/>
<path d="M303.971 89.1445L300.38 53.152C299.981 49.155 296.564 46.1471 292.555 46.264L254.535 47.3754C250.547 47.4924 247.409 50.8247 247.524 54.8181L247.68 60.1942C247.769 63.2021 250.275 65.5702 253.278 65.4833L268.869 65.0278L244.073 95.2561C237.204 92.0656 229.688 90.3835 221.893 90.3835C207.828 90.3835 194.625 95.8623 184.675 105.829C183.253 107.252 181.917 108.763 180.668 110.315C173.494 119.332 169.489 130.355 169.273 142.047C169.252 142.348 169.252 142.651 169.252 142.952C169.231 156.93 174.767 170.433 184.652 180.335C192.427 188.142 202.228 193.212 212.888 195.046V210.728C212.888 212.518 211.424 213.986 209.635 213.986H192.274C190.421 213.986 188.936 215.475 188.936 217.307V228.782C188.936 230.594 190.4 232.04 192.189 232.04H209.463C211.338 232.04 212.888 233.572 212.888 235.47V256.028C212.888 257.797 214.309 259.241 216.097 259.241H227.75C229.495 259.241 230.916 257.818 230.916 256.07V235.19C230.916 233.442 232.316 232.04 234.061 232.04H253.167C255.128 232.04 256.721 230.443 256.721 228.502V217.329C256.721 215.473 255.213 213.986 253.36 213.986H233.995C232.295 213.986 230.916 212.605 230.916 210.88V195.046C241.535 193.214 251.335 188.166 259.11 180.379C262.104 177.38 264.688 174.079 266.842 170.565C271.862 162.367 274.532 152.941 274.532 143.105C274.532 142.825 274.532 142.566 274.511 142.286C274.317 128.503 268.867 115.581 259.112 105.831C259.048 105.765 258.982 105.701 258.919 105.615L284.389 74.5639L286.028 90.995C286.371 94.439 289.438 96.9524 292.877 96.6085L298.318 96.0644C301.785 95.7169 304.316 92.6204 303.969 89.148L303.971 89.1445ZM221.226 177.743C202.745 177.398 187.712 162.384 187.303 143.878C187.282 143.231 187.303 142.605 187.324 141.979C187.583 133.868 190.598 126.491 195.531 120.688C201.972 113.095 211.621 108.307 222.367 108.458C240.912 108.695 255.99 123.751 256.485 142.173C256.506 142.626 256.506 143.078 256.506 143.553C256.42 149.594 254.784 155.245 252.006 160.163C245.953 170.841 234.387 178.002 221.228 177.743H221.226Z" fill="#612697"/>
<path d="M201.885 152.937V149.248C201.885 147.76 203.069 146.574 204.534 146.574H240.052C241.539 146.574 242.723 147.76 242.723 149.248V152.937C242.723 154.426 241.539 155.612 240.052 155.612H204.534C203.069 155.612 201.885 154.426 201.885 152.937Z" fill="#F99746"/>
<path d="M274.534 143.101C274.534 152.937 271.863 162.365 266.844 170.561C264.69 174.078 262.106 177.378 259.112 180.376C251.337 188.162 241.537 193.21 230.918 195.043V210.877C230.918 212.603 232.296 213.982 233.997 213.982H253.361C255.214 213.982 256.722 215.471 256.722 217.325V228.499C256.722 230.44 255.128 232.037 253.168 232.037H234.063C232.318 232.037 230.918 233.439 230.918 235.187V256.067C230.918 257.815 229.496 259.238 227.751 259.238H216.099C214.311 259.238 212.89 257.793 212.89 256.024V235.467C212.89 233.568 211.339 232.037 209.465 232.037H192.191C190.404 232.037 188.938 230.592 188.938 228.779V217.304C188.938 215.471 190.425 213.982 192.276 213.982H209.637C211.424 213.982 212.89 212.515 212.89 210.724V195.043C202.228 193.21 192.428 188.141 184.652 180.331C174.765 170.43 169.229 156.927 169.252 142.949C169.252 142.648 169.252 142.345 169.273 142.043C174.163 142.001 180.344 141.979 187.322 141.979C187.301 142.605 187.28 143.231 187.301 143.878C187.71 162.386 202.745 177.399 221.224 177.743C234.385 178.002 245.951 170.841 252.002 160.164C254.781 155.245 256.418 149.594 256.503 143.553C256.503 143.078 256.503 142.626 256.482 142.173C263.611 142.215 269.814 142.26 274.509 142.281C274.531 142.561 274.531 142.82 274.531 143.1L274.534 143.101Z" fill="#F99746"/>
<path d="M301.348 282.16C301.348 282.16 301.348 279.664 301.703 278.833C302.059 278.003 303.362 274.623 303.362 274.623H308.454C308.454 274.623 309.401 277.707 309.461 278.714C309.521 279.723 309.461 282.16 309.461 282.16H301.349H301.348Z" fill="#233862"/>
<path d="M333.674 282.16C333.674 282.16 333.674 279.664 333.318 278.833C332.963 278.003 331.66 274.623 331.66 274.623H326.568C326.568 274.623 325.621 277.707 325.561 278.714C325.503 279.723 325.561 282.16 325.561 282.16H333.672H333.674Z" fill="#233862"/>
<path d="M313.277 142.045C313.277 142.045 313.098 147.604 312.387 150.094L306.764 154.022L327.929 157.195L322.882 150.209C322.882 150.209 321.358 142.756 322.158 140C322.958 137.242 313.277 142.045 313.277 142.045Z" fill="#FFB27D"/>
<path d="M313.248 142.812C313.248 142.812 314.922 146.848 318.074 146.758C321.227 146.669 321.945 143.1 321.945 143.1L313.248 142.812Z" fill="#ED985F"/>
<path d="M311.365 139.546C311.365 139.546 310.347 134.455 309.635 132.915C308.926 131.373 308.333 124.495 316.207 124.139C316.207 124.139 319.226 124.495 320.885 123.487C320.885 123.487 320.885 124.495 320.471 124.85C320.471 124.85 323.194 124.198 325.325 126.569C327.456 128.941 323.904 137.241 324.083 139.198L311.365 139.546Z" fill="#2C3A64"/>
<path d="M317.713 145.198C315.428 145.158 311.225 142.112 311.225 138.339V132.452C311.225 131.075 312.184 129.948 313.356 129.948H322.07C323.242 129.948 324.201 131.075 324.201 132.452V138.006C324.201 141.962 320.332 145.244 317.713 145.198Z" fill="#FFB27D"/>
<path d="M311.223 135.597C311.223 135.597 311.235 132.059 314.031 131.516C316.83 130.972 323.09 133.241 323.978 130.662C324.867 128.083 311.876 128.127 311.223 129.772C310.568 131.417 311.223 135.598 311.223 135.598V135.597Z" fill="#2C3A64"/>
<path d="M301.986 195.708C301.986 195.708 302.876 222.951 301.545 238.496C300.212 254.041 301.554 275.672 301.554 275.672C301.554 275.672 305.814 278.024 310.432 275.672C310.432 275.672 315.497 245.643 315.463 238.496C315.43 230.885 320.976 196.895 320.976 196.895L301.986 195.708Z" fill="#2B478B"/>
<path d="M333.491 275.671C333.491 275.671 329.231 278.025 324.613 275.671C324.613 275.671 319.55 245.641 319.581 238.494C319.596 235.281 318.615 227.359 317.477 219.284C315.92 208.236 314.068 196.895 314.068 196.895L333.795 195.662C333.795 195.662 332.169 222.951 333.5 238.496C334.832 254.041 333.489 275.673 333.489 275.673L333.491 275.671Z" fill="#2B478B"/>
<path d="M333.561 200.24C333.561 200.24 325.151 201.871 317.479 201.871C314.132 201.871 310.496 201.502 307.601 201.114C304.401 200.688 302.105 200.238 302.105 200.238C302.105 200.238 300.401 200.387 301.408 191.968C302.175 185.56 301.934 179.776 301.764 173.824C301.744 173.163 301.759 172.38 301.799 171.508C302.127 164.568 304.222 152.076 305.819 151.406C305.819 151.406 308.194 150.521 312.388 150.09C312.388 150.172 314.824 153.736 317.714 154.137C319.51 153.426 320.921 152.818 322.884 150.206C325.372 150.496 328.085 150.991 330.988 151.771C330.988 151.771 331.291 153.095 332.43 176.054C332.883 185.149 335.982 200.265 333.561 200.235V200.24Z" fill="white"/>
<path d="M319.583 238.494C319.597 235.281 318.617 227.359 317.479 219.284C318.659 214.459 321.537 209.817 321.537 209.817C325.177 220.044 319.583 238.494 319.583 238.494Z" fill="#233862"/>
<path d="M293.989 178.739C293.789 178.906 294.489 180.643 295.519 182.905C297.639 187.552 301.161 194.417 301.161 194.417C300.651 196.354 300.092 197.551 300.092 197.551C294.166 192.889 290.347 188.922 287.908 185.881C284.48 181.604 283.777 179.15 283.777 179.15C296.97 152.254 306.255 151.264 306.255 151.264L305.157 169.038C305.157 169.038 294.6 178.231 293.989 178.739Z" fill="white"/>
<path d="M300.461 194.756C300.461 194.756 303.657 191.79 304.96 193.451C306.263 195.112 306.5 197.719 305.493 197.542C304.486 197.365 302.413 196.415 302.118 196.89C301.822 197.365 300.495 198.271 300.093 197.551C299.691 196.831 300.459 194.756 300.459 194.756H300.461Z" fill="#FFB27D"/>
<path d="M301.163 194.417C300.653 196.355 300.094 197.551 300.094 197.551C294.168 192.889 290.349 188.922 287.91 185.881C289.749 185.744 292.432 185.085 295.521 182.905C297.641 187.552 301.163 194.417 301.163 194.417Z" fill="#FFB27D"/>
<path d="M352.118 179.151C352.118 179.151 351.416 181.604 347.987 185.881C345.549 188.922 341.727 192.889 335.804 197.551C335.804 197.551 335.244 196.354 334.735 194.417C334.735 194.417 338.257 187.552 340.377 182.905C341.407 180.641 342.106 178.906 341.906 178.739C341.432 178.344 334.982 172.732 332.105 170.23C331.269 169.503 330.737 169.038 330.737 169.038L330.078 151.528C330.078 151.528 338.926 152.255 352.118 179.151Z" fill="white"/>
<path d="M335.437 194.756C335.437 194.756 332.24 191.79 330.938 193.451C329.635 195.112 329.398 197.719 330.405 197.542C331.412 197.365 333.483 196.415 333.78 196.89C334.076 197.365 335.403 198.271 335.805 197.551C336.207 196.831 335.437 194.756 335.437 194.756Z" fill="#FFB27D"/>
<path d="M334.734 194.417C335.244 196.355 335.803 197.551 335.803 197.551C341.729 192.889 345.548 188.922 347.987 185.881C346.148 185.744 343.465 185.085 340.377 182.905C338.256 187.552 334.734 194.417 334.734 194.417Z" fill="#FFB27D"/>
<path d="M312.684 148.738C312.684 148.738 311.744 149.13 311.477 150.197C311.477 150.197 315.246 154.08 317.714 154.139L312.684 148.736V148.738Z" fill="#ED7D2B"/>
<path d="M317.713 154.141L322.578 148.543C322.578 148.543 323.583 149.206 323.567 150.294C323.567 150.294 319.803 154.289 317.711 154.141H317.713Z" fill="#ED7D2B"/>
<path d="M316.835 153.727C316.835 153.727 313.122 185.835 314.414 189.748C315.079 191.764 315.971 193.506 316.679 194.722C317.189 195.598 318.452 195.594 318.957 194.717C319.943 193.003 321.231 190.521 321.231 189.261C321.231 187.221 318.414 153.697 318.414 153.697L316.833 153.726L316.835 153.727Z" fill="#F99746"/>
<path d="M315.863 152.154C315.863 152.154 318.107 151.929 319.474 152.067C319.744 152.095 319.895 152.391 319.764 152.631C319.382 153.322 318.599 154.518 317.782 154.518C316.633 154.518 314.844 152.233 315.863 152.154Z" fill="#ED7D2B"/>
<path d="M315.891 141.407C315.891 141.407 316.602 142.371 317.845 142.336C319.087 142.302 319.671 141.407 319.671 141.407C319.671 141.407 317.574 141.063 315.891 141.407Z" fill="white"/>
<path d="M101.262 162.412L117.382 164.712C119.48 165.012 121.441 163.537 121.74 161.437L122.734 154.441C123.034 152.34 121.561 150.376 119.464 150.077L103.344 147.776C101.246 147.476 99.2855 148.951 98.9864 151.052L97.9917 158.048C97.6926 160.148 99.1651 162.112 101.262 162.412Z" fill="#233862"/>
<path d="M120.375 152.161C119.922 151.025 118.945 150.128 117.704 149.825C117.704 149.825 117.702 149.825 117.701 149.825C117.578 149.795 117.456 149.77 117.329 149.752L114.118 149.295L114.332 147.785C114.38 147.448 114.295 147.111 114.09 146.838C113.885 146.565 113.586 146.388 113.249 146.34L112.412 146.22L109.042 145.739L108.435 145.653C107.74 145.553 107.09 146.039 106.993 146.737L106.779 148.247L101.239 147.457C99.1329 147.157 97.1648 148.636 96.8639 150.745L95.8569 157.823C95.5578 159.932 97.0338 161.903 99.14 162.202L115.23 164.5C115.513 164.54 115.794 164.547 116.069 164.526H116.072C116.513 164.492 116.936 164.383 117.329 164.209C118.511 163.686 119.41 162.582 119.605 161.212L120.612 154.136C120.709 153.446 120.617 152.771 120.375 152.165V152.161ZM107.784 146.849C107.814 146.638 107.979 146.479 108.18 146.447C108.226 146.44 108.274 146.438 108.324 146.445L109.039 146.546L111.692 146.925L113.138 147.131C113.398 147.168 113.579 147.411 113.543 147.67L113.329 149.18L107.572 148.357L107.786 146.849H107.784Z" fill="#2B478B"/>
<path d="M113.519 141.579C113.519 141.579 112.673 142.708 112.64 143.16C112.411 146.218 113.808 146.641 110.196 148.341C110.196 148.341 108.654 148.93 108.627 147.731C108.601 146.533 109.698 146.512 109.496 144.833C109.265 142.898 109.289 142.878 110.558 141.868L111.399 140.477L113.521 141.581L113.519 141.579Z" fill="#FFB27D"/>
<path d="M112.183 142.924C112.183 142.924 112.999 143.775 113.05 144.13C113.215 145.266 113.594 145.757 113.404 145.881C113.01 146.138 112.487 145.296 112.238 144.541C111.988 143.786 112.185 142.924 112.185 142.924H112.183Z" fill="#FFB27D"/>
<path d="M144.212 217.065L143.357 210.903L146.947 207.901L148.076 216.058L144.212 217.065Z" fill="#FFB27D"/>
<path d="M156.128 222.569H141.5C141.5 222.569 141.15 220.335 141.914 218.642C142.647 217.017 143.785 216.014 143.889 214.77C144.819 215.728 145.962 216.343 148.077 216.06C148.335 216.48 149.749 218.733 150.615 219.355C151.571 220.043 155.832 219.798 156.128 222.57V222.569Z" fill="#233862"/>
<path d="M153.187 133.87C152.231 141.577 151.449 148.843 150.812 155.614C147.409 191.693 148.076 213.745 148.076 213.745C148.076 213.745 147.83 214.397 145.72 214.408C144.527 214.415 143.359 214.152 143.359 214.152C143.359 214.152 135.738 190.592 136.326 177.185C136.397 175.572 136.584 174.106 136.92 172.846C138.749 165.986 130.154 139.753 139.497 129.983C148.839 120.215 153.63 130.332 153.189 133.869L153.187 133.87Z" fill="#F99746"/>
<path d="M153.189 133.87C152.233 141.577 151.451 148.843 150.814 155.614L136.326 177.187C136.397 175.574 136.584 174.108 136.92 172.848C138.749 165.988 130.154 139.755 139.497 129.985C148.839 120.217 153.63 130.334 153.189 133.87Z" fill="#ED7D2B"/>
<path d="M164.701 60.3611C164.701 60.3611 164.349 58.601 163.951 57.2575C163.775 56.6637 165 52.7571 165.846 52.2767C166.694 51.7964 168.901 54.4268 168.276 56.4456C167.956 57.4826 167.428 60.8592 167.428 60.8592L164.699 60.3629L164.701 60.3611Z" fill="#FFB27D"/>
<path d="M164.7 60.361C164.7 60.361 164.24 59.34 163.824 59.1752C163.408 59.0103 162.962 57.3406 162.656 56.6777C162.656 56.6777 162.952 56.2452 163.467 56.8018C163.782 57.1421 164.483 58.1383 164.483 58.1383L164.699 60.361H164.7Z" fill="#FFB27D"/>
<path d="M119.682 215.218C119.475 213.243 119.424 208.048 119.424 208.048C119.424 208.048 124.71 206.355 124.516 207.518C123.56 213.231 123.818 216.058 123.818 216.058L121.68 217.336L119.682 215.218Z" fill="#FFB27D"/>
<path d="M148.775 133.503C148.775 133.503 128.354 189.564 124.335 213.881C124.335 213.881 123.404 214.523 121.666 214.31C119.696 214.069 119.156 212.699 119.156 212.699C119.156 212.699 115.468 183.554 122.8 173.434C127.837 166.483 120.627 135.951 132.361 133.503C144.094 131.056 148.777 133.503 148.777 133.503H148.775Z" fill="#F99746"/>
<path d="M145.148 79.5748C145.144 79.5482 145.139 79.5234 145.13 79.5004C145.011 79.0076 144.88 78.522 144.74 78.0398C144.314 76.5633 143.804 75.1595 143.256 73.9205C142.939 73.2098 142.613 72.5522 142.277 71.9655C142.225 71.8751 142.176 71.79 142.128 71.7031H142.126C141.337 70.372 140.526 69.4538 139.794 69.172C138.459 68.6544 136.973 68.7998 135.951 69.0125C136.176 68.6987 136.684 68.5215 136.684 68.5215C136.029 68.5215 134.696 69.3687 134.696 69.3687C125.291 67.263 125.84 80.5869 126.481 83.6073C127.12 86.6276 124.091 88.0953 119.821 91.1847C111.671 97.0819 111.807 103.332 111.807 103.332C111.879 103.362 111.961 103.399 112.044 103.44C112.371 102.632 113.067 101.1 113.796 100.778C113.775 100.85 113.182 102.832 113.014 103.943C114.255 104.629 115.973 105.689 117.838 106.887H117.84C120.336 108.49 123.091 110.33 125.298 111.826C125.194 111.218 125.09 110.351 125.244 109.86L125.946 112.042L126.038 112.327C127.447 113.284 128.559 114.048 129.123 114.44C129.182 114.479 129.233 114.516 129.279 114.546C129.443 114.66 129.532 114.722 129.532 114.722C129.344 113.951 130.167 111.939 131.546 109.406C131.64 109.229 131.741 109.05 131.843 108.867C132.289 108.066 132.787 107.222 133.321 106.352C133.514 106.038 133.709 105.723 133.911 105.402C133.911 105.4 133.911 105.4 133.911 105.4C134.072 105.143 134.236 104.886 134.406 104.626C134.806 104.005 135.22 103.381 135.642 102.757C136.735 101.141 137.893 99.535 139.036 98.0621C140.696 95.9173 142.326 94.0544 143.691 92.8349C143.735 92.7428 143.778 92.6488 143.817 92.5531C144.031 92.0568 144.194 91.5038 144.321 90.9419C144.36 90.7735 144.395 90.6034 144.427 90.4332C144.767 88.6394 144.774 86.8616 144.769 86.438C144.878 88.1697 144.834 89.476 144.719 90.4651C144.693 90.6813 144.664 90.8816 144.632 91.0695C144.56 91.4932 144.477 91.8423 144.385 92.1313C144.608 91.853 144.804 91.5499 144.978 91.2166C145.091 90.9986 145.195 90.7717 145.286 90.5325C146.386 87.7177 146.091 83.5204 145.137 79.5837L145.148 79.5748Z" fill="#163560"/>
<path d="M143.38 93.0747C143.412 93.0836 140.747 95.0156 138.487 94.7444C136.361 94.4909 134.632 92.036 134.659 92.0271C135.497 91.7258 135.57 90.4975 134.793 85.3838L135.195 85.4033L141.966 85.7277C141.966 85.7277 142.124 87.8228 142.411 89.7761C142.649 91.4156 142.98 92.9559 143.38 93.0765V93.0747Z" fill="#FFB27D"/>
<path d="M141.965 85.7257C141.965 85.7257 142.123 87.8208 142.409 89.7741C138.714 90.219 136.268 87.1455 135.195 85.4014L141.967 85.7257H141.965Z" fill="#ED975D"/>
<path d="M134.41 84.7863C134.41 84.7863 132.028 82.0212 131.178 79.4812C130.571 77.668 130.493 70.6205 137.571 70.5815C137.571 70.5815 139.613 70.4804 141.695 71.4784C143.351 72.2724 145.849 74.146 144.316 80.5341L143.988 82.6646L134.412 84.7881L134.41 84.7863Z" fill="#163560"/>
<path d="M154.585 137.829C154.585 137.829 142.575 141.84 131.513 139.144C131.383 139.112 125.061 133.507 125.061 133.507C125.215 133.084 126.376 126.139 126.528 125.749C128.491 120.676 132.076 93.1491 135.074 91.7913C135.839 92.6262 138.027 93.1969 139.897 93.0303C142.053 92.8389 142.773 91.9066 142.595 90.9033C144.98 92.0324 146.812 93.0817 146.812 93.0817C148.993 96.3538 154.585 137.825 154.585 137.825V137.829Z" fill="white"/>
<path d="M143.47 87.3917C143.47 87.3917 134.784 88.8328 133.971 83.4018C133.159 77.9708 131.49 74.4985 137.001 73.3481C142.513 72.1978 143.904 74.1086 144.615 75.8562C145.327 77.6039 145.709 86.8777 143.47 87.3917Z" fill="#FFB27D"/>
<path d="M140.947 72.625C140.947 72.625 139.51 79.3534 135.989 80.8405C132.471 82.3277 130.738 81.5832 130.738 81.5832C130.738 81.5832 133.213 78.9315 133.216 74.9469C133.216 74.9469 138.697 69.8599 140.947 72.625Z" fill="#163560"/>
<path d="M140.434 73.2294C140.434 73.2294 142.425 74.3868 143.065 75.7056C143.704 77.0243 144.324 79.8426 145.138 79.6228C145.138 79.6228 146.29 75.0232 143.908 72.8731C141.382 70.5937 140.434 73.2294 140.434 73.2294Z" fill="#163560"/>
<path d="M167.489 60.487C167.135 60.363 166.615 60.0669 165.937 60.0067C165.331 59.9517 164.572 60.1503 164.572 60.1503C164.572 60.1503 162.121 75.408 161.94 76.2162C161.758 77.0245 151.429 88.6787 148.643 88.6309C146.128 88.5883 143.15 90.5328 142.596 90.9068C142.596 90.9068 147.636 100.012 148.774 109.484C149.735 117.478 152.093 147.212 152.093 147.212C152.093 147.212 151.912 149.029 155.302 148.052C158.689 147.076 159.537 146.267 159.537 146.267C159.537 146.267 156.424 115.534 155.772 105.975C155.684 104.692 155.118 100.223 155.762 99.3386C160.045 93.4485 166.811 83.9071 167.188 81.8794C167.742 78.8998 167.492 60.4853 167.492 60.4853L167.489 60.487Z" fill="#2B478B"/>
<path d="M131.87 222.569H117.242C117.242 222.569 116.892 220.335 117.656 218.642C118.389 217.017 119.527 216.014 119.632 214.77C120.561 215.728 121.704 216.343 123.819 216.06C124.077 216.48 125.492 218.733 126.357 219.355C127.313 220.043 131.575 219.798 131.87 222.57V222.569Z" fill="#233862"/>
<path d="M138.292 147.375C138.292 147.375 137.306 152.152 132.782 151.851C128.257 151.55 121.703 149.279 121.703 149.279C121.703 149.279 122.009 144.3 122.503 137.325C122.983 130.56 123.639 121.919 124.374 114.128C125.376 103.493 126.512 94.4536 127.522 93.9679C130.738 92.4241 135.129 91.6069 135.129 91.6069C135.129 91.6069 138.448 105.808 139.018 112.822C139.549 119.386 138.292 147.377 138.292 147.377V147.375Z" fill="#2B478B"/>
<path d="M140.623 84.7067C140.623 84.7067 141.678 85.3271 142.924 85.1409C143.777 85.0133 143.972 83.9995 143.972 83.9995C143.972 83.9995 143.379 83.8116 142.432 84.003C141.485 84.1927 140.623 84.7085 140.623 84.7085V84.7067Z" fill="white"/>
<path d="M129.867 108.312C129.867 108.312 129.803 123.889 124.389 134.937C123.534 136.685 122.923 137.383 122.504 137.323C122.984 130.557 123.64 121.916 124.375 114.126L129.867 108.312Z" fill="#233862"/>
<path d="M129.768 93.0513C129.768 93.0513 124.778 94.5225 122.522 97.752C120.265 100.981 112.956 119.171 111.021 125.846C109.087 132.52 108.227 142.369 108.227 142.369C108.227 142.369 110.591 143.321 114.173 142.369C114.173 142.369 118.329 127.496 119.906 125.846C121.483 124.196 130.737 107.549 130.737 107.549L129.768 93.053V93.0513Z" fill="#2B478B"/>
<path d="M204.32 71.3166C204.219 71.4407 204.115 71.563 204.007 71.6835C203.97 71.7243 203.935 71.765 203.897 71.804C203.814 71.8962 203.729 71.9848 203.642 72.0735C199.522 76.2867 192.779 76.5544 188.333 72.5893C184.094 68.8067 183.434 62.5002 186.599 57.9466C186.852 57.5832 187.128 57.2323 187.429 56.8937C187.537 56.7714 187.646 56.6527 187.76 56.5375C187.868 56.4258 187.979 56.3159 188.092 56.2078C188.438 55.8798 188.8 55.5785 189.176 55.3038C189.735 54.8943 190.324 54.5434 190.937 54.2509C192.834 53.3452 194.945 53.0049 197.009 53.2441C199.198 53.4994 201.333 54.4069 203.103 55.9862C207.559 59.9637 208.06 66.7294 204.32 71.3148V71.3166Z" fill="white"/>
<path d="M195.803 74.5052C193.322 74.5052 190.957 73.6048 189.088 71.9386C187.071 70.1395 185.874 67.6598 185.718 64.9585C185.563 62.2572 186.467 59.6569 188.263 57.638C190.06 55.6174 192.536 54.4192 195.233 54.2632C197.929 54.1054 200.527 55.013 202.543 56.8121C204.56 58.6111 205.757 61.0909 205.913 63.7904C206.068 66.4917 205.164 69.092 203.368 71.1109C201.571 73.1315 199.095 74.3297 196.4 74.4857C196.2 74.4981 196.001 74.5034 195.803 74.5034V74.5052ZM195.828 54.8517C195.642 54.8517 195.454 54.857 195.269 54.8676C192.732 55.0147 190.405 56.1403 188.715 58.0404C187.025 59.9405 186.175 62.3848 186.322 64.9248C186.469 67.4648 187.593 69.7957 189.49 71.4884C191.387 73.1811 193.828 74.0319 196.364 73.8848C198.9 73.7377 201.228 72.6122 202.918 70.712C204.608 68.8119 205.458 66.3676 205.311 63.8276C205.164 61.2876 204.04 58.9568 202.143 57.264C200.387 55.6972 198.162 54.8517 195.83 54.8517H195.828Z" fill="#AFCDFB"/>
<path d="M193.339 57.3423L196.946 60.8678L201.889 59.8894L199.658 64.4146L202.114 68.8228L197.127 68.0943L193.7 71.7953L192.851 66.8199L188.277 64.7L192.739 62.3549L193.339 57.3423Z" fill="#AFCDFB"/>
<path d="M190.701 41.6717C190.595 41.7071 190.487 41.7391 190.379 41.771C190.342 41.7816 190.306 41.7922 190.269 41.8011C190.186 41.8241 190.103 41.8436 190.018 41.8631C186.014 42.7901 181.949 40.4114 180.821 36.4074C179.747 32.5876 181.724 28.6314 185.294 27.1442C185.579 27.0255 185.873 26.9227 186.177 26.8376C186.287 26.8075 186.395 26.7791 186.505 26.7525C186.611 26.7277 186.717 26.7047 186.823 26.6834C187.149 26.6213 187.474 26.5788 187.8 26.5593C188.281 26.5292 188.761 26.5434 189.23 26.6019C190.687 26.7826 192.055 27.3764 193.179 28.2946C194.37 29.2677 195.285 30.6042 195.734 32.1994C196.864 36.2142 194.621 40.3831 190.701 41.6717Z" fill="white"/>
<path d="M184.496 40.3422C183.035 39.4081 181.982 37.99 181.51 36.3062C180.998 34.4893 181.225 32.5804 182.147 30.9337C183.069 29.287 184.575 28.0977 186.389 27.5854C188.203 27.0732 190.11 27.3001 191.754 28.2235C193.398 29.1452 194.586 30.6554 195.097 32.4722C195.609 34.2891 195.382 36.198 194.46 37.8447C193.538 39.4914 192.032 40.6807 190.218 41.193C188.403 41.7052 186.497 41.4783 184.853 40.5549C184.731 40.4875 184.612 40.4148 184.496 40.3404V40.3422ZM191.883 28.7943C191.773 28.7234 191.662 28.6578 191.547 28.5922C190 27.7237 188.209 27.511 186.503 27.9931C184.796 28.4752 183.379 29.5919 182.513 31.1411C181.646 32.6903 181.434 34.484 181.915 36.1927C182.397 37.9014 183.512 39.3212 185.058 40.188C186.605 41.0565 188.396 41.2692 190.103 40.7871C191.809 40.3049 193.226 39.1883 194.092 37.6391C194.959 36.0899 195.171 34.2961 194.69 32.5875C194.244 31.0046 193.255 29.6699 191.881 28.7925L191.883 28.7943Z" fill="#AFCDFB"/>
<path d="M189.484 29.3228L190.284 32.7526L193.558 34.0376L190.548 35.858L190.339 39.3746L187.679 37.0704L184.275 37.9584L185.644 34.7129L183.748 31.7458L187.252 32.0436L189.484 29.3228Z" fill="#AFCDFB"/>
<path d="M166.432 254.557C166.432 254.557 163.804 258.263 161.393 258.315C158.983 258.366 155.318 256.597 155.318 256.597C155.318 256.597 153.105 251.659 154.606 249.725C154.606 249.725 156.11 249.064 157.686 250.232C157.956 250.434 158.231 250.687 158.5 251.014C158.882 251.473 159.31 251.735 159.765 251.873C161.486 252.398 163.526 251.164 164.289 252.354C164.735 253.045 165.22 253.564 165.618 253.929C166.089 254.349 166.432 254.557 166.432 254.557Z" fill="#FFEDDC"/>
<path d="M132.162 281.29C132.162 281.29 141.454 258.743 158.177 258.314C158.177 258.314 173.614 260.032 174.473 281.29H132.162Z" fill="#FFEDDC"/>
<path d="M153.595 259.004C153.595 259.004 160.297 260.497 162.366 259.619C162.366 259.619 162.68 256.812 159.855 257.205C157.922 257.474 156.664 256.544 155.924 256.168C154.876 255.635 153.315 257.829 153.593 259.004H153.595Z" fill="#DB6A1D"/>
<path d="M159.429 254.771C159 255.094 157.684 250.232 157.684 250.232C157.954 250.434 158.229 250.687 158.498 251.014C158.88 251.473 159.308 251.735 159.763 251.873C159.767 252.015 159.845 254.458 159.429 254.771Z" fill="#E5C1A1"/>
<path d="M165.615 253.929C165.521 253.984 162.421 255.845 162.001 255.845C161.582 255.845 164.286 252.354 164.286 252.354C164.732 253.045 165.217 253.564 165.615 253.929Z" fill="#E5C1A1"/>
<path d="M141.238 274.992C141.066 274.845 147.813 265.043 149.671 264.972C151.529 264.901 155.704 267.118 158.727 267.406C161.75 267.693 164.679 266.833 165.251 268.623C165.823 270.412 167.394 276.757 166.43 277.771C165.465 278.787 144.947 278.166 141.238 274.994V274.992Z" fill="#F9DDBF"/>
<path d="M471.421 281.222H0.578746C0.259113 281.222 0 281.482 0 281.802V282.11C0 282.43 0.259113 282.69 0.578746 282.69H471.421C471.741 282.69 472 282.43 472 282.11V281.802C472 281.482 471.741 281.222 471.421 281.222Z" fill="#AC7FD5"/>
</g>
<defs>
<clipPath id="clip0_1369_1618">
<rect width="472" height="283" fill="white"/>
</clipPath>
</defs>
</svg>
