<svg width="405" height="277" viewBox="0 0 405 277" fill="none" xmlns="http://www.w3.org/2000/svg">
<g clip-path="url(#clip0_1372_2292)">
<path opacity="0.1" d="M55.8723 262.893C37.5934 262.223 20.4244 252.476 10.0965 236.25C3.66951 226.156 -0.388772 213.29 3.06491 197.966C12.283 157.1 42.7698 136.407 85.0919 110.55C127.406 84.6936 121.964 40.4934 176.552 31.6733C212.05 25.9393 225.26 70.2305 156.418 109.408C58.8207 164.961 179.84 208.524 219.62 154.138C259.399 99.7525 297.29 34.081 351.183 70.4126C387.566 94.937 377.653 130.466 367.374 150.969C362.198 161.287 362.67 173.83 368.766 183.66C385.703 211.006 417.995 256.439 352.177 262.884C277.902 270.157 110.7 264.895 55.8723 262.884V262.893Z" fill="white"/>
<path d="M164.765 178.174C164.765 178.174 164.815 178.174 164.832 178.174C166.157 178.232 167.275 177.206 167.333 175.882C167.656 168.659 174.754 159.21 174.828 159.11C175.632 158.051 175.416 156.554 174.365 155.751C173.304 154.949 171.805 155.155 171.002 156.215C170.671 156.645 162.927 166.954 162.538 175.667C162.48 176.966 163.473 178.075 164.757 178.166L164.765 178.174Z" fill="#EDA38F"/>
<path d="M167.341 176.106H167.333C167.208 176.106 167.117 175.998 167.126 175.874C167.449 168.601 174.588 159.077 174.662 158.978C175.391 158.018 175.201 156.653 174.24 155.925C174.141 155.851 174.124 155.718 174.199 155.619C174.273 155.52 174.406 155.503 174.505 155.578C175.656 156.446 175.88 158.093 175.01 159.243C174.936 159.334 167.879 168.75 167.556 175.89C167.556 176.006 167.457 176.097 167.341 176.097V176.106Z" fill="#211F20"/>
<path d="M162.877 173.822C162.877 173.822 162.918 173.822 162.943 173.83C164.26 174.012 165.469 173.085 165.643 171.778C166.612 164.621 174.546 155.842 174.621 155.751C175.515 154.775 175.441 153.252 174.464 152.367C173.486 151.473 171.971 151.548 171.076 152.524C170.712 152.93 162.065 162.486 160.889 171.133C160.715 172.423 161.601 173.615 162.877 173.822Z" fill="#EDA38F"/>
<path d="M165.644 172.002C165.644 172.002 165.627 172.002 165.61 172.002C165.494 171.985 165.403 171.878 165.42 171.753C166.397 164.572 174.373 155.702 174.456 155.611C175.267 154.725 175.201 153.344 174.315 152.533C174.224 152.45 174.216 152.318 174.298 152.227C174.381 152.136 174.514 152.127 174.605 152.21C175.673 153.178 175.748 154.841 174.779 155.909C174.696 156 166.811 164.762 165.859 171.82C165.842 171.927 165.751 172.01 165.644 172.01V172.002Z" fill="#211F20"/>
<path d="M160.839 169.718C162.064 169.916 163.249 169.147 163.555 167.931C165.816 158.837 174.496 151.97 174.587 151.895C175.631 151.076 175.813 149.57 175.001 148.528C174.19 147.485 172.682 147.295 171.639 148.106C171.233 148.429 161.568 156.033 158.901 166.764C158.578 168.047 159.364 169.354 160.648 169.668C160.714 169.685 160.772 169.693 160.839 169.71V169.718Z" fill="#EDA38F"/>
<path d="M163.555 168.154C163.555 168.154 163.522 168.154 163.505 168.154C163.389 168.13 163.315 168.005 163.348 167.89C165.617 158.755 174.363 151.805 174.454 151.739C175.398 150.994 175.572 149.629 174.835 148.677C174.761 148.586 174.777 148.445 174.877 148.371C174.968 148.297 175.108 148.313 175.183 148.412C176.069 149.546 175.87 151.192 174.728 152.086C174.645 152.152 166.015 159.011 163.778 167.997C163.754 168.096 163.662 168.163 163.563 168.163L163.555 168.154Z" fill="#211F20"/>
<path d="M157.932 165.275C159.539 150.307 170.19 143.87 170.645 143.597C171.78 142.926 173.246 143.307 173.925 144.441C174.604 145.574 174.223 147.047 173.088 147.725C172.914 147.833 170.86 149.091 168.616 151.722C166.33 154.403 164.963 157.77 164.93 161.287C164.906 163.661 165.469 166.069 167.655 166.714C168.152 166.839 168.732 166.88 169.403 166.731C175.739 165.341 176.136 161.212 180.178 161.427C184.244 161.651 180.584 167.707 179.358 169.097C178.132 170.487 176.592 178.96 171.49 180.797C171.084 180.946 155.654 181.848 155.654 181.848L157.915 165.283L157.932 165.275Z" fill="#EDA38F"/>
<path d="M168.567 167.037C168.244 167.037 167.929 166.996 167.606 166.913C165.685 166.35 164.683 164.398 164.716 161.27C164.749 157.803 166.074 154.353 168.459 151.565C170.77 148.859 172.89 147.576 172.981 147.527C173.089 147.461 173.221 147.502 173.279 147.601C173.337 147.709 173.304 147.841 173.205 147.899C173.122 147.949 171.052 149.198 168.79 151.846C166.48 154.552 165.188 157.903 165.155 161.27C165.13 164.224 165.991 165.978 167.722 166.483C168.252 166.615 168.79 166.623 169.362 166.499C169.478 166.474 169.594 166.549 169.619 166.665C169.644 166.781 169.569 166.896 169.453 166.921C169.147 166.987 168.848 167.021 168.559 167.021L168.567 167.037Z" fill="#211F20"/>
<path d="M129.12 187.896C129.12 187.896 137.924 184.678 143.564 190.105C149.196 195.533 144.11 196.402 143.092 199.389C142.073 202.368 149.825 202.806 147.208 207.953C146.015 210.302 141.775 211.775 137.526 212.677C132.408 213.769 127.67 209.64 128.018 204.428L129.128 187.904L129.12 187.896Z" fill="#8F4836"/>
<path d="M143.09 199.604C143.09 199.604 143.041 199.604 143.016 199.596C142.9 199.554 142.842 199.43 142.883 199.323C143.19 198.421 143.836 197.717 144.465 197.039C145.972 195.401 147.273 193.994 143.413 190.271C139.637 186.63 134.353 186.978 131.537 187.507C131.421 187.532 131.305 187.449 131.28 187.333C131.255 187.218 131.338 187.102 131.454 187.077C134.353 186.531 139.794 186.175 143.711 189.956C147.877 193.977 146.304 195.682 144.788 197.337C144.192 197.982 143.579 198.652 143.297 199.463C143.264 199.554 143.181 199.612 143.09 199.612V199.604Z" fill="#5B322C"/>
<path d="M136.598 217.881C136.573 210.948 130.668 206.687 124.191 208.358C114.194 210.931 101.266 214.448 93.7787 223.417C85.5959 233.222 86.8382 252.839 88.7431 265.474C88.8756 266.359 122.973 265.987 122.973 265.987C122.973 265.987 130.966 247.784 134.08 244.45C141.782 236.184 136.647 230.483 136.606 217.881H136.598Z" fill="#FB7D78"/>
<path d="M155.373 179.357L152.043 192.902C149.865 200.514 143.43 206.165 135.578 207.233L125.565 208.598C119.171 209.467 114.616 215.234 115.246 221.646C115.966 228.961 123.039 233.908 130.162 232.088C130.162 232.088 163.771 232.121 172.004 199.679C173.229 194.855 175.847 180.143 175.847 180.143C169.502 179.953 161.692 179.531 155.373 179.349V179.357Z" fill="#FB7D78"/>
<path d="M119.098 215.341C119.098 215.341 121.334 225.039 128.15 228.969C129.434 229.713 131.057 228.911 131.215 227.438C131.463 225.138 131.629 221.696 130.974 218.56L119.098 215.35V215.341Z" fill="white"/>
<path d="M120.19 206.546L118.145 213.496C117.499 215.689 118.385 218.047 120.315 219.271C124.969 222.234 131.139 219.445 131.993 213.993L132.349 211.709L120.19 206.538V206.546Z" fill="#EDA38F"/>
<path d="M124.432 220.695C122.958 220.695 121.492 220.281 120.208 219.462C120.109 219.396 120.076 219.263 120.142 219.164C120.208 219.065 120.341 219.032 120.44 219.098C122.569 220.446 125.202 220.637 127.496 219.603C129.791 218.568 131.397 216.458 131.778 213.976C131.795 213.86 131.903 213.778 132.027 213.794C132.143 213.811 132.226 213.926 132.209 214.042C131.795 216.673 130.105 218.899 127.67 220C126.627 220.471 125.525 220.703 124.424 220.703L124.432 220.695Z" fill="#47332A"/>
<path d="M132.655 214.481C131.015 211.899 131.189 217.195 127.495 219.222C120.795 217.906 118.741 209.053 117.971 212.205C117.971 212.205 115.412 219.503 122.104 224.799C122.104 224.799 125.118 224.302 127.512 219.95C130.403 223.888 132.481 223.996 132.481 223.996C134.212 220.38 132.655 214.489 132.655 214.489V214.481Z" fill="white"/>
<path d="M122.104 225.022C121.997 225.022 121.906 224.948 121.889 224.84C121.872 224.724 121.947 224.608 122.071 224.592C122.104 224.592 125.011 224.054 127.33 219.851C127.364 219.784 127.43 219.743 127.504 219.735C127.579 219.735 127.653 219.76 127.695 219.826C130.494 223.632 132.482 223.781 132.499 223.781C132.623 223.781 132.714 223.888 132.706 224.013C132.697 224.137 132.598 224.236 132.474 224.219C132.383 224.219 130.353 224.062 127.537 220.355C125.144 224.484 122.262 225.005 122.137 225.022C122.129 225.022 122.113 225.022 122.104 225.022Z" fill="#261718"/>
<path d="M127.513 220.165C127.397 220.165 127.298 220.074 127.298 219.95L127.281 219.222C127.281 219.131 127.331 219.056 127.414 219.015C127.422 219.015 128.548 218.502 129.07 217.633C129.136 217.534 129.269 217.492 129.368 217.559C129.468 217.625 129.509 217.757 129.443 217.856C128.954 218.667 128.06 219.172 127.72 219.346L127.737 219.933C127.737 220.057 127.646 220.157 127.521 220.157L127.513 220.165Z" fill="#261718"/>
<path d="M122.974 266.202C122.974 266.202 122.916 266.202 122.882 266.185C122.775 266.136 122.725 266.012 122.766 265.896C123.089 265.151 130.817 247.618 133.906 244.3C139.082 238.748 138.37 234.305 137.385 228.166C136.913 225.237 136.382 221.919 136.366 217.881C136.366 217.757 136.474 217.666 136.581 217.666C136.705 217.666 136.797 217.765 136.797 217.881C136.813 221.878 137.343 225.179 137.807 228.1C138.809 234.363 139.538 238.889 134.213 244.598C131.165 247.866 123.23 265.887 123.147 266.069C123.114 266.152 123.032 266.202 122.949 266.202H122.974Z" fill="#261718"/>
<path d="M144.408 269.867C144.408 269.867 143.141 266.756 139.207 264.026C135.612 261.535 132.863 260.36 131.836 259.922C131.38 259.723 131.098 259.607 130.792 259.376C129.575 258.457 129.334 256.736 130.245 255.52C131.082 254.411 132.589 254.113 133.774 254.759C133.832 254.783 133.906 254.816 133.997 254.858C135.173 255.354 138.287 256.686 142.354 259.5C147.646 263.173 149.386 267.434 149.568 267.906C150.106 269.329 149.394 270.918 147.969 271.464C147.481 271.654 146.967 271.687 146.495 271.596C145.576 271.431 144.772 270.802 144.416 269.867H144.408ZM133.997 254.858C135.173 255.354 138.287 256.686 142.354 259.5C147.646 263.173 149.386 267.434 149.568 267.906L133.997 254.858Z" fill="#EDA38F"/>
<path d="M151.804 261.817C151.514 261.395 148.822 257.663 142.809 255.346C140.681 254.527 138.817 253.964 137.31 253.576C132.042 252.136 116.24 249.166 116.24 249.166L115.934 266.268C126.899 271.282 132.821 264.208 135.579 258.821C136.97 259.161 138.751 259.682 140.822 260.484C145.294 262.205 147.24 264.911 147.257 264.936C147.82 265.763 148.756 266.177 149.684 266.127C150.172 266.103 150.653 265.945 151.092 265.648C152.35 264.787 152.665 263.074 151.804 261.817Z" fill="#EDA38F"/>
<path d="M136.787 275.494C136.274 274.484 134.825 271.688 133.996 270.405C132.787 269.445 127.172 267.468 125.805 267.137C124.348 266.856 123.37 265.457 123.61 263.985C123.859 262.487 125.275 261.469 126.783 261.717C126.874 261.734 136.572 264.324 138.494 267.211C139.62 268.908 141.492 272.59 141.699 273.012C142.386 274.369 141.84 276.023 140.481 276.71C139.761 277.074 138.957 277.091 138.262 276.826C137.641 276.594 137.102 276.131 136.771 275.494H136.787ZM125.83 267.137C125.83 267.137 125.88 267.145 125.896 267.145C125.872 267.145 125.855 267.145 125.83 267.137Z" fill="#EDA38F"/>
<path d="M149.502 268.154C149.419 268.138 149.353 268.08 149.32 267.997C149.146 267.534 147.431 263.331 142.197 259.707C140.226 258.341 138.213 257.15 136.234 256.165C136.11 256.107 136.06 255.95 136.118 255.826C136.176 255.702 136.333 255.652 136.457 255.71C138.462 256.703 140.491 257.911 142.479 259.293C147.837 263.008 149.601 267.335 149.783 267.815C149.833 267.947 149.767 268.088 149.634 268.138C149.585 268.154 149.535 268.163 149.494 268.146L149.502 268.154Z" fill="#261718"/>
<path d="M141.086 273.582C141.086 273.582 140.249 270.331 136.713 267.095C133.483 264.142 130.924 262.619 129.955 262.04C129.524 261.784 129.267 261.635 128.994 261.353C127.909 260.286 127.901 258.54 128.969 257.456C129.946 256.472 131.478 256.372 132.563 257.175C132.621 257.208 132.688 257.249 132.779 257.299C133.872 257.953 136.787 259.682 140.432 263.016C145.186 267.36 146.337 271.82 146.453 272.316C146.801 273.797 145.881 275.279 144.39 275.626C143.877 275.742 143.372 275.717 142.908 275.56C142.022 275.27 141.301 274.542 141.078 273.566L141.086 273.582ZM132.779 257.307C133.872 257.961 136.787 259.69 140.432 263.025C145.186 267.369 146.337 271.828 146.453 272.325L132.779 257.307Z" fill="#EDA38F"/>
<path d="M146.403 272.573C146.312 272.557 146.238 272.482 146.213 272.383C146.097 271.895 144.971 267.509 140.266 263.215C138.494 261.593 136.672 260.145 134.833 258.904C134.717 258.83 134.692 258.673 134.767 258.557C134.842 258.441 134.999 258.416 135.115 258.491C136.97 259.74 138.817 261.213 140.606 262.843C145.418 267.245 146.586 271.77 146.702 272.267C146.735 272.399 146.652 272.54 146.511 272.565C146.47 272.573 146.437 272.573 146.403 272.565V272.573Z" fill="#261718"/>
<path d="M140.441 276.95C140.366 276.933 140.308 276.892 140.275 276.818C140.209 276.693 140.259 276.544 140.383 276.478C140.979 276.18 141.426 275.659 141.634 275.022C141.841 274.385 141.791 273.706 141.493 273.111C141.286 272.697 139.406 269.015 138.296 267.335C137.335 265.896 134.246 263.927 131.248 262.843C131.115 262.793 131.049 262.652 131.099 262.52C131.148 262.388 131.289 262.321 131.422 262.371C134.088 263.331 137.542 265.3 138.71 267.054C139.836 268.75 141.725 272.457 141.932 272.879C142.677 274.36 142.081 276.172 140.607 276.917C140.557 276.942 140.491 276.95 140.441 276.942V276.95Z" fill="#261718"/>
<path d="M116.845 269.164C116.845 269.164 80.519 270.058 74.4647 263.993C71.5079 261.031 70.1579 252.467 73.6778 247.296C81.0242 236.515 91.1285 225.51 98.1269 219.346C103.32 214.77 110.873 214.199 114.567 217.674C122.435 225.072 117.781 233.47 112.29 239.344C108.099 243.821 103.428 246.841 103.428 246.841L117.607 248.156L116.861 269.164H116.845Z" fill="#FB7D78"/>
<path d="M111.653 269.437C101.341 269.437 79.0291 268.874 74.3082 264.15C74.2254 264.067 74.2254 263.927 74.3082 263.844C74.391 263.761 74.5318 263.761 74.6146 263.844C80.5364 269.768 116.473 268.957 116.837 268.949C116.97 268.957 117.061 269.04 117.061 269.164C117.061 269.288 116.97 269.387 116.846 269.387C116.514 269.387 114.56 269.437 111.653 269.437Z" fill="#261718"/>
<path d="M116.845 269.379C116.721 269.379 116.629 269.272 116.638 269.156L117.375 248.355L103.403 247.056C103.312 247.048 103.237 246.982 103.212 246.89C103.187 246.799 103.229 246.708 103.303 246.659C103.428 246.576 115.76 238.261 117.102 232.212C117.126 232.096 117.242 232.022 117.358 232.047C117.474 232.072 117.549 232.187 117.524 232.303C116.29 237.88 106.426 245.021 104.041 246.675L117.615 247.933C117.731 247.941 117.814 248.041 117.814 248.156L117.068 269.164C117.068 269.28 116.969 269.371 116.853 269.371L116.845 269.379Z" fill="#261718"/>
<path d="M121.765 244.623C121.665 244.623 121.566 244.549 121.549 244.441C121.524 244.325 121.607 244.21 121.723 244.185C127.827 243.068 129.359 238.699 129.368 238.658C129.409 238.542 129.533 238.484 129.641 238.517C129.757 238.558 129.815 238.674 129.782 238.79C129.765 238.84 128.15 243.448 121.798 244.607C121.781 244.607 121.773 244.607 121.756 244.607L121.765 244.623Z" fill="#261718"/>
<path d="M140.665 201.639C140.74 202.235 140.773 202.822 140.781 203.401C140.864 209.036 138.04 213.769 132.979 214.522C132.548 214.588 132.093 214.629 131.629 214.629C125.169 214.696 118.237 209.177 118.171 202.293C118.104 195.409 123.289 189.774 129.749 189.716C136.209 189.65 139.555 192.256 140.657 201.639H140.665Z" fill="#EDA38F"/>
<path d="M130.419 214.803H130.394C127.148 214.497 123.909 212.9 121.507 210.435C121.425 210.352 121.425 210.211 121.507 210.128C121.59 210.046 121.731 210.046 121.814 210.128C124.141 212.52 127.28 214.067 130.427 214.365C130.543 214.373 130.634 214.481 130.626 214.605C130.618 214.721 130.518 214.803 130.411 214.803H130.419Z" fill="#261718"/>
<path d="M133.667 197.841C133.709 198.437 128.888 198.867 128.839 198.272C128.797 197.676 130.636 196.865 131.969 196.749C133.303 196.633 133.617 197.246 133.659 197.841H133.667Z" fill="#5B322C"/>
<path d="M133.129 200.679C133.129 200.952 132.905 201.201 132.532 201.366C132.342 201.457 132.11 201.531 131.845 201.573C131.688 201.606 131.514 201.623 131.34 201.623H131.265C131.207 201.623 131.158 201.623 131.108 201.623C131.075 201.623 131.033 201.623 130.992 201.614C130.793 201.598 130.594 201.556 130.42 201.515C129.874 201.358 129.518 201.06 129.518 200.729C129.509 200.373 129.89 200.067 130.462 199.91C130.512 199.893 130.57 199.877 130.628 199.86C130.768 199.827 130.926 199.794 131.091 199.786C131.1 199.786 131.116 199.786 131.124 199.786C131.191 199.786 131.249 199.769 131.315 199.786C131.365 199.786 131.414 199.786 131.464 199.786C131.853 199.794 132.209 199.868 132.491 199.984C132.872 200.158 133.12 200.406 133.129 200.688V200.679Z" fill="white"/>
<path d="M135.406 190.312C135.406 190.312 138.156 198.263 125.202 201.507L120.622 205.09L119.214 209.889C119.214 209.889 111.172 197.064 115.222 191.52C119.272 185.976 132.093 185.157 135.398 190.32L135.406 190.312Z" fill="#8F4836"/>
<path d="M116.1 197.362C116.1 197.362 110.865 196.187 111.081 201.937C111.296 207.696 119.214 209.889 119.214 209.889L120.191 206.554L119.321 197.668L116.1 197.37V197.362Z" fill="#8F4836"/>
<path d="M135.977 197.825C135.919 198.42 139.713 198.76 139.762 198.164C139.82 197.568 138.396 196.799 137.352 196.699C136.309 196.608 136.035 197.221 135.977 197.825Z" fill="#5B322C"/>
<path d="M139.463 200.646C139.463 200.911 139.256 201.151 138.925 201.325C138.693 201.441 138.412 201.532 138.089 201.573C137.989 201.581 137.898 201.59 137.799 201.59C137.782 201.59 137.749 201.59 137.732 201.59C137.658 201.59 137.583 201.59 137.509 201.59C137.443 201.59 137.376 201.581 137.318 201.573C137.111 201.548 136.912 201.499 136.73 201.433C136.283 201.267 135.985 200.994 135.977 200.68C135.977 200.34 136.324 200.034 136.838 199.877C136.962 199.836 137.086 199.803 137.219 199.778C137.31 199.761 137.401 199.753 137.492 199.745C137.558 199.736 137.625 199.745 137.699 199.736C137.741 199.736 137.79 199.736 137.84 199.736C138.196 199.745 138.519 199.819 138.784 199.918C139.19 200.084 139.447 200.34 139.455 200.638L139.463 200.646Z" fill="white"/>
<path d="M125.807 203.501C125.824 205.553 124.176 207.233 122.122 207.257C120.068 207.274 118.386 205.627 118.361 203.575C118.345 201.523 119.993 199.844 122.047 199.819C124.101 199.802 125.782 201.449 125.807 203.501Z" fill="#EDA38F"/>
<path d="M137.294 205.015C137.228 205.015 137.153 204.982 137.112 204.916C137.045 204.817 137.07 204.684 137.17 204.61C137.443 204.428 137.559 204.229 137.517 204.031C137.435 203.609 136.581 203.178 135.24 202.88C135.14 202.856 135.074 202.773 135.066 202.674L135.041 199.951C135.041 199.827 135.14 199.736 135.256 199.728C135.372 199.728 135.472 199.827 135.472 199.943L135.497 202.5C136.565 202.756 137.782 203.203 137.94 203.948C137.981 204.171 137.973 204.593 137.41 204.982C137.368 205.007 137.327 205.023 137.285 205.023L137.294 205.015Z" fill="#261718"/>
<path d="M126.892 204.089C126.843 204.949 127.853 205.71 129.162 205.793C130.47 205.876 131.564 205.239 131.622 204.386C131.679 203.534 130.661 202.765 129.352 202.682C128.044 202.599 126.95 203.236 126.892 204.089Z" fill="#DE704B"/>
<path d="M124.15 202.525C124.092 202.525 124.025 202.5 123.984 202.45C123.81 202.243 122.245 200.514 120.166 202.194C120.075 202.268 119.934 202.252 119.859 202.161C119.785 202.07 119.801 201.929 119.893 201.854C122.336 199.877 124.241 202.07 124.324 202.161C124.398 202.252 124.39 202.392 124.299 202.467C124.257 202.5 124.208 202.516 124.158 202.516L124.15 202.525Z" fill="#261718"/>
<path d="M125.193 201.722C125.093 201.722 125.002 201.656 124.977 201.548C124.953 201.432 125.027 201.316 125.143 201.292C129.756 200.315 132.862 198.412 134.378 195.649C136.299 192.141 134.933 188.425 134.916 188.384C134.875 188.268 134.933 188.144 135.04 188.103C135.156 188.061 135.281 188.119 135.322 188.227C135.38 188.384 136.771 192.165 134.759 195.856C133.177 198.743 129.972 200.712 125.226 201.714C125.209 201.714 125.193 201.714 125.184 201.714L125.193 201.722Z" fill="#5B322C"/>
<path d="M122.154 197.883C120.787 197.883 119.263 197.8 117.565 197.602C117.45 197.585 117.358 197.477 117.375 197.362C117.392 197.246 117.499 197.155 117.615 197.171C131.082 198.71 133.277 193.208 133.293 193.15C133.335 193.034 133.459 192.976 133.575 193.018C133.691 193.059 133.749 193.183 133.708 193.299C133.633 193.514 131.927 197.883 122.154 197.883Z" fill="#5B322C"/>
<path d="M133.128 200.679C133.128 200.952 132.904 201.201 132.532 201.366C132.341 201.457 132.109 201.531 131.844 201.573C131.687 201.606 131.513 201.622 131.339 201.622H131.265C130.842 201.333 130.561 200.853 130.561 200.299C130.561 200.141 130.577 199.992 130.627 199.852C130.768 199.819 130.925 199.786 131.091 199.777C131.099 199.777 131.115 199.777 131.124 199.777C131.19 199.777 131.248 199.761 131.314 199.777C131.364 199.777 131.414 199.777 131.463 199.777C131.853 199.786 132.209 199.86 132.49 199.976C132.871 200.15 133.12 200.398 133.128 200.679Z" fill="#261718"/>
<path d="M139.464 200.647C139.464 200.911 139.257 201.151 138.926 201.325C138.694 201.441 138.412 201.532 138.089 201.573C137.99 201.581 137.899 201.59 137.799 201.59C137.402 201.3 137.137 200.837 137.137 200.299C137.137 200.117 137.17 199.943 137.228 199.786C137.319 199.769 137.41 199.761 137.501 199.753C137.567 199.745 137.634 199.753 137.708 199.745C137.75 199.745 137.799 199.745 137.849 199.745C138.205 199.753 138.528 199.827 138.793 199.927C139.199 200.092 139.456 200.349 139.464 200.647Z" fill="#261718"/>
<path d="M136.242 208.209C133.799 208.209 132.556 206.604 132.507 206.529C132.432 206.43 132.457 206.298 132.548 206.223C132.648 206.149 132.78 206.165 132.855 206.264C132.913 206.339 134.263 208.06 136.938 207.721C137.062 207.704 137.17 207.787 137.178 207.911C137.194 208.027 137.112 208.143 136.987 208.151C136.731 208.184 136.474 208.201 136.242 208.201V208.209Z" fill="#DE704B"/>
<path d="M231.685 180.681C231.685 180.681 231.635 180.681 231.619 180.681C230.294 180.723 229.184 179.68 229.142 178.356C228.919 171.133 221.954 161.576 221.879 161.485C221.092 160.418 221.324 158.92 222.392 158.134C223.461 157.348 224.96 157.58 225.747 158.639C226.07 159.078 233.673 169.486 233.938 178.207C233.979 179.506 232.969 180.599 231.677 180.673L231.685 180.681Z" fill="#F3AE91"/>
<path d="M229.144 178.579C229.028 178.579 228.928 178.488 228.928 178.364C228.713 171.232 221.781 161.708 221.706 161.617C220.853 160.459 221.102 158.813 222.261 157.96C222.361 157.886 222.493 157.911 222.568 158.01C222.642 158.109 222.617 158.242 222.518 158.316C221.549 159.028 221.342 160.393 222.054 161.361C222.129 161.46 229.135 171.091 229.359 178.356C229.359 178.48 229.268 178.579 229.144 178.579Z" fill="#211F20"/>
<path d="M233.235 174.31C233.235 174.31 233.194 174.31 233.169 174.318C231.852 174.492 230.643 173.574 230.469 172.266C229.5 165.109 221.574 156.33 221.491 156.239C220.597 155.263 220.671 153.741 221.649 152.855C222.626 151.962 224.141 152.036 225.036 153.012C225.4 153.418 234.047 162.975 235.223 171.621C235.397 172.912 234.511 174.103 233.235 174.31Z" fill="#F3AE91"/>
<path d="M230.46 172.482C230.353 172.482 230.261 172.399 230.245 172.291C229.276 165.167 221.399 156.471 221.317 156.38C220.348 155.313 220.422 153.658 221.491 152.682C221.582 152.599 221.714 152.607 221.797 152.698C221.88 152.789 221.872 152.922 221.78 153.004C220.894 153.815 220.828 155.197 221.64 156.082C221.722 156.173 229.69 164.969 230.676 172.225C230.692 172.341 230.609 172.457 230.485 172.473C230.477 172.473 230.468 172.473 230.452 172.473L230.46 172.482Z" fill="#211F20"/>
<path d="M235.702 170.645C234.477 170.843 233.292 170.074 232.986 168.857C230.725 159.764 222.045 152.897 221.954 152.822C220.91 152.003 220.728 150.497 221.54 149.455C222.351 148.412 223.859 148.222 224.902 149.033C225.308 149.355 234.974 156.959 237.64 167.691C237.963 168.973 237.177 170.281 235.893 170.595C235.827 170.612 235.769 170.628 235.702 170.636V170.645Z" fill="#F3AE91"/>
<path d="M232.987 169.073C232.887 169.073 232.796 169.007 232.771 168.907C230.535 159.905 221.905 153.062 221.822 152.996C220.688 152.111 220.481 150.464 221.367 149.322C221.441 149.231 221.574 149.207 221.673 149.281C221.764 149.356 221.789 149.496 221.715 149.587C220.977 150.531 221.143 151.904 222.096 152.649C222.187 152.715 230.924 159.657 233.202 168.8C233.227 168.916 233.161 169.031 233.045 169.064C233.028 169.064 233.012 169.064 232.995 169.064L232.987 169.073Z" fill="#211F20"/>
<path d="M238.61 166.193C237.003 151.225 226.352 144.788 225.896 144.515C224.762 143.845 223.296 144.225 222.617 145.359C221.938 146.493 222.319 147.965 223.453 148.644C223.627 148.751 225.681 150.009 227.926 152.64C230.211 155.321 231.578 158.689 231.611 162.205C231.636 164.58 231.073 166.987 228.886 167.633C228.389 167.757 227.81 167.798 227.139 167.649C220.803 166.259 220.405 162.131 216.364 162.346C212.297 162.569 215.958 168.626 217.184 170.016C218.409 171.406 219.95 179.879 225.052 181.715C225.457 181.864 240.887 182.766 240.887 182.766L238.626 166.201L238.61 166.193Z" fill="#F3AE91"/>
<path d="M227.967 167.955C227.678 167.955 227.379 167.922 227.073 167.856C226.957 167.831 226.882 167.715 226.907 167.6C226.932 167.484 227.048 167.409 227.164 167.434C227.736 167.558 228.274 167.558 228.812 167.418C230.535 166.913 231.405 165.159 231.38 162.205C231.347 158.837 230.055 155.486 227.744 152.781C225.491 150.141 223.412 148.884 223.329 148.834C223.23 148.768 223.189 148.635 223.255 148.536C223.321 148.437 223.454 148.404 223.553 148.462C223.777 148.594 225.814 149.86 228.075 152.499C230.452 155.288 231.786 158.73 231.819 162.205C231.844 165.332 230.85 167.285 228.936 167.84C228.613 167.922 228.29 167.964 227.967 167.964V167.955Z" fill="#211F20"/>
<path d="M240.921 179.639L244.175 192.885C246.312 200.332 252.598 205.851 260.276 206.902L270.066 208.234C276.319 209.086 280.774 214.721 280.162 220.993C279.458 228.141 272.542 235.985 265.577 234.206C265.577 234.206 232.688 231.244 224.663 199.513C223.47 194.797 220.936 180.408 220.936 180.408C227.139 180.226 234.742 179.812 240.929 179.63L240.921 179.639Z" fill="#587DCB"/>
<path d="M254.585 217.426C256.126 210.658 263.083 206.504 269.932 208.201C280.5 210.815 291.814 213.504 302.672 223.152C312.495 231.881 309.53 252.831 307.575 265.474C307.442 266.359 258.71 265.855 258.71 265.855C258.71 265.855 257.203 258.474 257.045 257.911C251.91 239.171 252.672 225.882 254.585 217.435V217.426Z" fill="#587DCB"/>
<path d="M257.336 258.598C257.236 258.598 257.153 258.532 257.129 258.433C251.729 238.343 252.507 225.245 254.114 217.799C254.139 217.683 254.255 217.608 254.371 217.633C254.487 217.658 254.561 217.774 254.536 217.89C252.938 225.287 252.168 238.31 257.543 258.325C257.576 258.441 257.501 258.565 257.385 258.59C257.369 258.59 257.344 258.59 257.327 258.59L257.336 258.598Z" fill="#261718"/>
<path d="M252.854 271.382C252.382 271.456 251.885 271.415 251.413 271.224C250.03 270.67 249.368 269.098 249.923 267.716C250.105 267.253 251.885 263.124 257.136 259.632C261.162 256.96 264.234 255.719 265.394 255.255C265.485 255.222 265.559 255.189 265.617 255.164C266.785 254.552 268.259 254.875 269.054 255.975C269.924 257.183 269.659 258.863 268.45 259.74C268.143 259.963 267.87 260.071 267.415 260.253C266.396 260.667 263.696 261.751 260.126 264.125C256.225 266.715 254.942 269.71 254.925 269.735C254.561 270.637 253.757 271.241 252.854 271.39V271.382ZM249.923 267.716C250.105 267.253 251.885 263.124 257.136 259.632C261.162 256.96 264.234 255.719 265.394 255.255L249.923 267.716Z" fill="#F3AE91"/>
<path d="M247.836 261.726C248.126 261.321 250.834 257.721 256.756 255.57C258.86 254.809 260.682 254.296 262.164 253.948C267.341 252.641 282.845 250.035 282.845 250.035L282.82 266.765C272.003 271.465 266.347 264.432 263.754 259.111C262.388 259.417 260.64 259.897 258.595 260.634C254.188 262.239 252.234 264.837 252.217 264.862C251.646 265.656 250.726 266.053 249.815 265.979C249.343 265.946 248.871 265.78 248.449 265.482C247.24 264.614 246.958 262.934 247.828 261.726H247.836Z" fill="#F3AE91"/>
<path d="M260.782 276.652C260.095 276.892 259.308 276.859 258.612 276.495C257.295 275.8 256.798 274.17 257.494 272.855C257.709 272.449 259.606 268.883 260.741 267.245C262.67 264.456 272.203 262.107 272.294 262.09C273.769 261.875 275.135 262.901 275.35 264.374C275.557 265.822 274.58 267.162 273.147 267.41C271.806 267.708 266.273 269.537 265.081 270.447C264.252 271.688 262.778 274.394 262.256 275.37C261.925 275.99 261.387 276.429 260.774 276.644L260.782 276.652ZM273.073 267.427C273.073 267.427 273.114 267.427 273.139 267.419C273.114 267.419 273.098 267.419 273.073 267.427Z" fill="#F3AE91"/>
<path d="M249.964 267.956C250.039 267.94 250.114 267.89 250.147 267.807C250.329 267.352 252.085 263.282 257.269 259.84C259.224 258.54 261.212 257.415 263.166 256.488C263.291 256.431 263.34 256.282 263.282 256.166C263.224 256.042 263.075 255.992 262.959 256.05C260.98 256.985 258.975 258.118 257.004 259.434C251.695 262.959 249.89 267.162 249.699 267.634C249.65 267.758 249.708 267.898 249.832 267.956C249.882 267.973 249.923 267.981 249.973 267.973L249.964 267.956Z" fill="#261718"/>
<path d="M256.267 275.345C255.811 275.486 255.314 275.502 254.817 275.378C253.376 275.014 252.498 273.549 252.871 272.101C252.995 271.622 254.204 267.286 258.933 263.124C262.561 259.93 265.443 258.292 266.528 257.68C266.611 257.63 266.686 257.589 266.735 257.564C267.812 256.803 269.311 256.927 270.247 257.903C271.274 258.979 271.233 260.683 270.148 261.709C269.874 261.974 269.618 262.115 269.195 262.355C268.243 262.901 265.708 264.34 262.495 267.162C258.975 270.256 258.105 273.392 258.097 273.417C257.857 274.36 257.145 275.064 256.267 275.328V275.345ZM252.863 272.101C252.987 271.622 254.196 267.286 258.925 263.124C262.553 259.93 265.435 258.292 266.52 257.68L252.863 272.101Z" fill="#F3AE91"/>
<path d="M252.914 272.342C253.005 272.325 253.08 272.259 253.104 272.16C253.229 271.688 254.413 267.419 259.092 263.306C260.857 261.759 262.67 260.377 264.484 259.194C264.6 259.12 264.633 258.971 264.559 258.855C264.484 258.739 264.335 258.706 264.219 258.78C262.38 259.972 260.55 261.37 258.769 262.934C253.982 267.146 252.757 271.547 252.632 272.036C252.599 272.168 252.682 272.3 252.806 272.333C252.839 272.342 252.881 272.342 252.914 272.333V272.342Z" fill="#261718"/>
<path d="M258.661 276.727C258.727 276.71 258.794 276.669 258.827 276.603C258.893 276.487 258.843 276.338 258.727 276.272C258.148 275.966 257.725 275.453 257.535 274.824C257.344 274.195 257.402 273.533 257.709 272.954C257.924 272.548 259.821 268.982 260.939 267.369C261.9 265.979 264.964 264.109 267.912 263.116C268.045 263.075 268.111 262.934 268.07 262.802C268.028 262.669 267.888 262.611 267.755 262.644C265.13 263.53 261.709 265.391 260.533 267.088C259.398 268.726 257.485 272.317 257.27 272.722C256.508 274.154 257.054 275.941 258.487 276.694C258.537 276.719 258.595 276.727 258.653 276.719L258.661 276.727Z" fill="#261718"/>
<path d="M281.984 269.768C281.984 269.768 317.506 270.645 323.428 264.713C326.318 261.817 327.644 253.443 324.198 248.388C317.017 237.847 307.128 227.082 300.296 221.059C295.219 216.582 287.831 216.028 284.22 219.42C276.526 226.652 281.073 234.86 286.448 240.61C290.539 244.987 295.119 247.941 295.119 247.941L281.255 249.232L281.984 269.768Z" fill="#587DCB"/>
<path d="M287.06 270.041C284.211 270.041 282.298 270 281.975 269.992C281.851 269.992 281.76 269.893 281.76 269.768C281.76 269.653 281.859 269.553 281.975 269.553C282.331 269.562 317.473 270.356 323.262 264.564C323.345 264.481 323.486 264.481 323.568 264.564C323.651 264.647 323.651 264.787 323.568 264.87C318.955 269.487 297.132 270.041 287.044 270.041H287.06Z" fill="#261718"/>
<path d="M281.983 269.983C281.867 269.983 281.768 269.892 281.768 269.776L281.039 249.24C281.039 249.124 281.122 249.025 281.238 249.017L294.448 247.792C292.154 246.088 282.522 238.475 282.025 230.623C282.025 230.499 282.107 230.4 282.232 230.392C282.364 230.383 282.455 230.474 282.464 230.598C283.002 239.121 295.053 247.693 295.177 247.784C295.251 247.833 295.284 247.933 295.26 248.015C295.235 248.106 295.16 248.164 295.069 248.173L281.486 249.43L282.207 269.768C282.207 269.892 282.116 269.991 282 269.991L281.983 269.983Z" fill="#261718"/>
<path d="M273.395 218.37C271.855 219.867 269.908 220.57 267.995 220.57C266.446 220.57 264.906 220.107 263.606 219.238C263.481 219.073 263.366 218.899 263.258 218.725L262.189 216.996L271.507 205.189L274.845 210.004L274.952 210.244C276.186 213.008 275.573 216.243 273.404 218.361L273.395 218.37Z" fill="#F3AE91"/>
<path d="M275.657 219.114C274.15 221.257 271.798 222.614 269.495 222.316C264.095 221.621 263.93 219.594 262.447 217.567C263.764 218.452 265.329 218.825 266.911 218.924C269.338 219.081 272.096 217.534 273.024 216.615C274.423 215.217 275.55 212.644 274.962 210.129L274.854 209.88L275.699 211.105C277.372 213.521 277.364 216.723 275.666 219.123L275.657 219.114Z" fill="white"/>
<path d="M267.664 219.114C267.548 219.114 267.432 219.114 267.325 219.106C267.201 219.106 267.109 218.998 267.118 218.874C267.118 218.75 267.217 218.659 267.35 218.667C269.685 218.816 272.261 217.31 273.064 216.508C274.365 215.217 275.425 212.842 274.87 210.468C274.845 210.352 274.911 210.236 275.036 210.203C275.16 210.178 275.267 210.253 275.301 210.368C275.897 212.909 274.762 215.432 273.379 216.814C272.567 217.625 270.041 219.114 267.673 219.114H267.664Z" fill="#261718"/>
<path d="M269.486 222.531C269.412 222.531 269.329 222.531 269.254 222.531C266.637 222.457 264.252 221.075 262.877 218.858L262.065 217.542C261.999 217.443 262.032 217.302 262.14 217.244C262.239 217.178 262.38 217.211 262.438 217.319L263.25 218.634C264.55 220.736 266.794 222.027 269.263 222.101C271.722 222.175 274.058 221.017 275.474 218.998C278.265 214.588 275.549 211.278 275.516 211.245L273.934 208.962C273.867 208.862 273.892 208.73 273.992 208.656C274.091 208.589 274.224 208.614 274.298 208.714L275.872 210.981C275.872 210.981 278.812 214.555 275.847 219.246C274.381 221.332 272.021 222.548 269.495 222.548L269.486 222.531Z" fill="#261718"/>
<path d="M258.065 206.05C258.015 208.201 256.226 209.905 254.065 209.847C251.911 209.798 250.205 208.011 250.263 205.851C250.313 203.7 252.102 201.995 254.263 202.053C256.417 202.103 258.123 203.89 258.065 206.05Z" fill="#F3AE91"/>
<path d="M249.717 195.748C248.831 199.579 251.804 203.534 256.351 204.577C260.898 205.628 265.304 203.369 266.19 199.546C267.076 195.715 264.103 191.76 259.556 190.718C255.009 189.667 250.603 191.926 249.717 195.748Z" fill="#45282A"/>
<path d="M261.635 217.319C261.146 217.294 260.674 217.236 260.227 217.145C255.837 216.309 253.195 212.644 252.624 208.035C252.607 207.886 252.59 207.729 252.574 207.58C252.499 206.794 252.483 205.992 252.524 205.172C252.524 205.04 252.541 204.899 252.557 204.759C252.574 204.552 252.599 204.337 252.615 204.122C252.64 203.857 252.673 203.592 252.723 203.327C254.28 193.547 257.883 190.966 264.658 191.305C271.424 191.636 276.617 197.759 276.261 204.974C275.905 212.181 268.409 217.675 261.643 217.327L261.635 217.319Z" fill="#F3AE91"/>
<path d="M253.394 207.655C253.112 207.655 252.831 207.622 252.574 207.572C252.499 206.786 252.483 205.983 252.524 205.164C252.524 205.032 252.541 204.891 252.557 204.75C252.574 204.544 252.599 204.328 252.615 204.113C252.864 204.064 253.129 204.031 253.402 204.039C254.918 204.039 256.143 204.858 256.143 205.859C256.143 206.86 254.909 207.663 253.394 207.655Z" fill="#DE704B"/>
<path d="M262.248 217.551C262.041 217.551 261.834 217.551 261.627 217.534C261.147 217.509 260.658 217.451 260.186 217.36C255.937 216.55 253.03 213.074 252.401 208.06C252.384 207.903 252.368 207.746 252.351 207.589C252.277 206.811 252.26 205.992 252.301 205.156C252.301 205.024 252.318 204.875 252.335 204.734C252.351 204.527 252.376 204.312 252.393 204.097C252.417 203.832 252.451 203.559 252.5 203.286C252.517 203.17 252.633 203.088 252.749 203.104C252.865 203.121 252.948 203.237 252.931 203.352C252.89 203.609 252.856 203.874 252.832 204.13C252.807 204.345 252.79 204.552 252.774 204.759C252.765 204.9 252.749 205.032 252.74 205.164C252.699 205.984 252.707 206.786 252.79 207.539C252.798 207.696 252.823 207.845 252.84 207.994C253.436 212.81 256.219 216.144 260.269 216.922C260.724 217.013 261.188 217.071 261.652 217.087C264.46 217.228 267.441 216.368 270.034 214.655C270.133 214.589 270.266 214.613 270.332 214.713C270.398 214.812 270.373 214.944 270.274 215.011C267.789 216.649 264.965 217.534 262.248 217.534V217.551Z" fill="#261718"/>
<path d="M273.777 207.026L273.222 210.575C273.09 211.428 274.249 211.808 274.655 211.047L278.241 204.254L273.057 203.369L273.777 207.018V207.026Z" fill="#45282A"/>
<path d="M259.572 201.002C259.547 201.705 254.975 201.54 255 200.845C255.025 200.142 256.847 199.455 258.106 199.504C259.373 199.546 259.597 200.307 259.572 201.01V201.002Z" fill="#45282A"/>
<path d="M262.785 201.118C262.76 201.821 267.332 202.003 267.357 201.3C267.382 200.597 265.618 199.778 264.359 199.728C263.092 199.678 262.81 200.415 262.785 201.118Z" fill="#45282A"/>
<path d="M257.328 190.999C257.328 190.999 257.982 200.456 272.145 206.215C272.145 206.215 276.12 206.645 277.114 205.892C281.479 202.591 281.893 183.983 257.328 190.999Z" fill="#45282A"/>
<path d="M266.819 203.824C266.802 204.122 266.562 204.37 266.181 204.552C266.131 204.585 266.073 204.602 266.007 204.626C265.957 204.643 265.908 204.659 265.866 204.676C265.816 204.693 265.767 204.709 265.717 204.717C265.469 204.775 265.195 204.808 264.897 204.808C264.823 204.825 264.731 204.808 264.64 204.808C264.574 204.808 264.516 204.808 264.45 204.792C264.235 204.775 264.036 204.734 263.845 204.676C263.713 204.651 263.58 204.61 263.464 204.552C263.398 204.527 263.34 204.502 263.282 204.477C262.835 204.254 262.545 203.94 262.57 203.617C262.586 203.278 262.901 202.996 263.365 202.823C263.58 202.74 263.82 202.682 264.085 202.649H264.102C264.218 202.632 264.342 202.624 264.475 202.624C264.475 202.624 264.478 202.624 264.483 202.624C264.574 202.624 264.665 202.624 264.756 202.624C264.847 202.624 264.939 202.632 265.021 202.649C265.137 202.665 265.253 202.682 265.361 202.707C265.427 202.715 265.493 202.732 265.551 202.748C265.651 202.773 265.734 202.798 265.825 202.839C265.932 202.872 266.024 202.905 266.115 202.955C266.57 203.17 266.86 203.485 266.835 203.824H266.819Z" fill="white"/>
<path d="M259.474 203.46C259.466 203.733 259.259 203.973 258.944 204.138C258.944 204.138 258.87 204.188 258.828 204.196C258.704 204.246 258.571 204.304 258.439 204.337C258.397 204.337 258.348 204.353 258.306 204.362C258.099 204.403 257.867 204.428 257.627 204.436C257.553 204.453 257.478 204.436 257.404 204.436H257.37C257.081 204.42 256.791 204.37 256.534 204.295C256.41 204.262 256.302 204.221 256.186 204.171C256.095 204.13 256.012 204.097 255.938 204.047C255.565 203.832 255.35 203.542 255.366 203.253C255.383 202.905 255.697 202.624 256.17 202.442C256.385 202.359 256.642 202.301 256.923 202.268C257.014 202.252 257.114 202.252 257.213 202.252C257.213 202.252 257.221 202.252 257.23 202.252C257.321 202.243 257.404 202.252 257.478 202.252C257.569 202.26 257.652 202.268 257.735 202.277C257.884 202.293 258.033 202.318 258.174 202.351C258.199 202.351 258.223 202.359 258.24 202.368C258.331 202.392 258.422 202.425 258.505 202.459C258.604 202.492 258.696 202.525 258.778 202.574C259.234 202.79 259.516 203.112 259.482 203.46H259.474Z" fill="white"/>
<path d="M272.062 206.472C272.195 206.513 272.336 206.447 272.394 206.314C272.452 206.174 272.385 206.025 272.245 205.967C258.422 200.349 257.602 191.074 257.593 190.983C257.585 190.834 257.453 190.726 257.304 190.734C257.155 190.743 257.047 190.875 257.055 191.024C257.055 191.123 257.883 200.713 272.038 206.472H272.062Z" fill="#603B3E"/>
<path d="M269.097 206.463C268.989 208.615 270.646 210.443 272.799 210.551C274.952 210.658 276.783 209.003 276.89 206.852C276.998 204.701 275.342 202.872 273.188 202.765C271.035 202.657 269.204 204.312 269.097 206.463Z" fill="#F3AE91"/>
<path d="M264.253 206.993C264.079 207.977 265.156 208.979 266.646 209.243C268.137 209.508 269.487 208.912 269.661 207.928C269.835 206.943 268.758 205.942 267.268 205.677C265.777 205.412 264.427 206.008 264.253 206.993Z" fill="#DE704B"/>
<path d="M266.703 197.651C267.689 197.958 268.724 198.189 269.792 198.33C273.064 198.76 275.946 198.231 277.495 196.915C277.611 196.816 277.619 196.65 277.528 196.534C277.437 196.419 277.263 196.41 277.147 196.501C275.731 197.701 272.94 198.197 269.859 197.792C266.62 197.37 262.371 195.781 260.177 192.612C260.094 192.488 259.928 192.464 259.804 192.546C259.68 192.629 259.655 192.794 259.738 192.919C261.212 195.037 263.705 196.708 266.703 197.643V197.651Z" fill="#603B3E"/>
<path d="M259.779 211.031C258.835 211.031 258.106 210.824 257.957 210.749C257.85 210.691 257.808 210.559 257.866 210.452C257.924 210.344 258.057 210.303 258.156 210.36C258.487 210.509 261.08 211.113 262.935 209.508C263.026 209.426 263.167 209.442 263.241 209.533C263.324 209.624 263.308 209.765 263.216 209.839C262.123 210.782 260.815 211.031 259.771 211.031H259.779Z" fill="#261718"/>
<path d="M258.321 203.038C258.321 203.667 257.94 204.204 257.394 204.444H257.361C257.071 204.428 256.781 204.378 256.524 204.304C256.4 204.271 256.292 204.229 256.176 204.18C256.085 204.138 256.002 204.105 255.928 204.056C255.555 203.84 255.34 203.551 255.356 203.261C255.373 202.914 255.688 202.632 256.16 202.45C256.375 202.368 256.632 202.31 256.913 202.277C257.005 202.26 257.104 202.26 257.203 202.26C257.203 202.26 257.212 202.26 257.22 202.26C257.311 202.252 257.394 202.26 257.468 202.26C257.559 202.268 257.642 202.277 257.725 202.285C257.874 202.301 258.023 202.326 258.164 202.359C258.272 202.566 258.321 202.798 258.321 203.038Z" fill="#261718"/>
<path d="M265.486 203.352C265.486 204.022 265.047 204.593 264.442 204.792C264.227 204.775 264.028 204.734 263.837 204.676C263.705 204.651 263.572 204.61 263.457 204.552C263.39 204.527 263.332 204.502 263.274 204.477C262.827 204.254 262.537 203.94 262.562 203.617C262.579 203.278 262.893 202.996 263.357 202.823C263.572 202.74 263.813 202.682 264.078 202.649H264.094C264.21 202.632 264.334 202.624 264.467 202.624C264.467 202.624 264.47 202.624 264.475 202.624C264.566 202.624 264.657 202.624 264.749 202.624C264.84 202.624 264.931 202.632 265.014 202.649C265.13 202.665 265.245 202.682 265.353 202.707C265.444 202.905 265.494 203.12 265.494 203.352H265.486Z" fill="#261718"/>
<path d="M258.405 208.035C258.364 208.035 258.323 208.027 258.281 207.994C257.718 207.613 257.71 207.183 257.751 206.96C257.9 206.215 259.126 205.768 260.194 205.512L260.219 202.955C260.219 202.839 260.319 202.74 260.435 202.74C260.559 202.74 260.65 202.839 260.65 202.963L260.625 205.685C260.625 205.785 260.551 205.876 260.451 205.892C259.109 206.19 258.265 206.62 258.174 207.042C258.132 207.249 258.248 207.439 258.521 207.63C258.621 207.696 258.646 207.837 258.579 207.936C258.538 207.994 258.472 208.035 258.397 208.035H258.405Z" fill="#261718"/>
<path d="M275.649 205.835C275.566 205.835 275.492 205.793 275.45 205.71C274.39 203.601 272.104 204.287 272.013 204.312C271.897 204.345 271.773 204.287 271.74 204.171C271.707 204.056 271.765 203.931 271.88 203.898C271.905 203.89 274.622 203.063 275.839 205.512C275.889 205.619 275.848 205.752 275.74 205.801C275.707 205.818 275.674 205.826 275.641 205.826L275.649 205.835Z" fill="#261718"/>
<path d="M244.484 126.602C244.327 126.602 244.169 126.56 244.028 126.478C243.614 126.229 243.482 125.692 243.739 125.278L244.873 123.416C245.122 123.003 245.66 122.87 246.074 123.127C246.488 123.375 246.621 123.913 246.364 124.326L245.229 126.188C245.064 126.461 244.774 126.61 244.484 126.61V126.602Z" fill="white"/>
<path d="M247.863 121.058C247.706 121.058 247.548 121.017 247.407 120.934C246.993 120.686 246.861 120.148 247.117 119.734L249.362 116.052C249.61 115.638 250.149 115.506 250.563 115.762C250.977 116.011 251.11 116.549 250.853 116.962L248.608 120.644C248.443 120.917 248.153 121.066 247.863 121.066V121.058ZM252.344 113.694C252.186 113.694 252.029 113.653 251.888 113.57C251.474 113.322 251.341 112.784 251.598 112.37L253.843 108.688C254.091 108.274 254.629 108.142 255.044 108.399C255.458 108.647 255.59 109.185 255.333 109.598L253.089 113.28C252.923 113.553 252.633 113.702 252.344 113.702V113.694ZM256.824 106.33C256.667 106.33 256.51 106.289 256.369 106.206C255.955 105.958 255.822 105.42 256.079 105.006L258.323 101.324C258.572 100.91 259.11 100.786 259.524 101.035C259.938 101.283 260.071 101.821 259.814 102.234L257.57 105.916C257.404 106.189 257.114 106.338 256.824 106.338V106.33ZM261.305 98.9661C261.148 98.9661 260.99 98.9247 260.849 98.8419C260.435 98.5937 260.303 98.0559 260.56 97.6422L262.804 93.9602C263.052 93.5465 263.591 93.4141 264.005 93.6706C264.419 93.9189 264.552 94.4567 264.295 94.8704L262.05 98.5523C261.885 98.8254 261.595 98.9743 261.305 98.9743V98.9661ZM265.786 91.6021C265.628 91.6021 265.471 91.5607 265.33 91.478C264.916 91.2298 264.783 90.692 265.04 90.2783L267.285 86.5963C267.533 86.1826 268.071 86.0502 268.486 86.3067C268.9 86.5549 269.032 87.0927 268.775 87.5064L266.531 91.1884C266.365 91.4615 266.075 91.6104 265.786 91.6104V91.6021ZM270.266 84.2382C270.109 84.2382 269.952 84.1968 269.811 84.1141C269.397 83.8658 269.264 83.328 269.521 82.9143L271.765 79.2323C272.014 78.8186 272.552 78.6863 272.966 78.9428C273.38 79.191 273.513 79.7288 273.256 80.1425L271.012 83.8245C270.846 84.0975 270.556 84.2464 270.266 84.2464V84.2382ZM274.747 76.8742C274.59 76.8742 274.432 76.8329 274.291 76.7501C273.877 76.5019 273.745 75.9641 274.002 75.5504L276.246 71.8684C276.494 71.4547 277.033 71.3223 277.447 71.5788C277.861 71.827 277.994 72.3648 277.737 72.7786L275.492 76.4605C275.327 76.7336 275.037 76.8825 274.747 76.8825V76.8742ZM279.228 69.5103C279.07 69.5103 278.913 69.4689 278.772 69.3862C278.358 69.138 278.225 68.6001 278.482 68.1864L280.727 64.5045C280.975 64.0908 281.514 63.9584 281.928 64.2149C282.342 64.4631 282.474 65.0009 282.217 65.4146L279.973 69.0966C279.807 69.3696 279.518 69.5186 279.228 69.5186V69.5103ZM283.708 62.1463C283.551 62.1463 283.394 62.105 283.253 62.0222C282.839 61.774 282.706 61.2362 282.963 60.8225L285.207 57.1405C285.456 56.7268 285.994 56.5944 286.408 56.8509C286.822 57.0992 286.955 57.637 286.698 58.0507L284.454 61.7326C284.288 62.0057 283.998 62.1546 283.708 62.1546V62.1463ZM288.189 54.7824C288.032 54.7824 287.874 54.741 287.733 54.6583C287.319 54.4101 287.187 53.8723 287.444 53.4586L289.688 49.7766C289.937 49.3629 290.475 49.2305 290.889 49.487C291.303 49.7352 291.436 50.273 291.179 50.6867L288.934 54.3687C288.769 54.6417 288.479 54.7907 288.189 54.7907V54.7824Z" fill="white"/>
<path d="M294.881 47.4517C294.575 47.4517 294.269 47.2862 294.111 46.9966L293.788 46.4091L293.44 46.98C293.192 47.3937 292.654 47.5178 292.239 47.2696C291.825 47.0214 291.693 46.4836 291.95 46.0699L293.871 42.9092L295.643 46.1526C295.875 46.5746 295.718 47.1041 295.296 47.3358C295.163 47.4103 295.022 47.4434 294.881 47.4434V47.4517Z" fill="white"/>
<path d="M334.992 121.008C334.686 121.008 334.379 120.843 334.222 120.553L332.218 116.879C331.986 116.457 332.143 115.928 332.566 115.696C332.988 115.465 333.518 115.622 333.75 116.044L335.754 119.717C335.986 120.139 335.829 120.669 335.406 120.901C335.274 120.975 335.133 121.008 334.992 121.008ZM330.984 113.653C330.677 113.653 330.371 113.487 330.213 113.197L328.209 109.515C327.977 109.093 328.135 108.564 328.557 108.332C328.979 108.101 329.509 108.258 329.741 108.68L331.746 112.362C331.977 112.784 331.82 113.313 331.398 113.545C331.265 113.619 331.124 113.653 330.984 113.653ZM326.975 106.297C326.669 106.297 326.362 106.131 326.205 105.842L324.2 102.16C323.969 101.738 324.126 101.208 324.548 100.977C324.971 100.745 325.501 100.902 325.733 101.324L327.737 105.006C327.969 105.428 327.812 105.958 327.389 106.189C327.257 106.264 327.116 106.297 326.975 106.297ZM322.966 98.9412C322.66 98.9412 322.354 98.7757 322.196 98.4861L320.192 94.8041C319.96 94.3821 320.117 93.8526 320.54 93.6209C320.962 93.3893 321.492 93.5465 321.724 93.9684L323.728 97.6504C323.96 98.0724 323.803 98.6019 323.381 98.8336C323.248 98.9081 323.107 98.9412 322.966 98.9412ZM318.958 91.5855C318.651 91.5855 318.345 91.42 318.188 91.1304L316.183 87.4485C315.951 87.0265 316.109 86.4969 316.531 86.2653C316.954 86.0336 317.484 86.1908 317.716 86.6128L319.72 90.2947C319.952 90.7167 319.794 91.2463 319.372 91.4779C319.239 91.5524 319.099 91.5855 318.958 91.5855ZM314.949 84.2298C314.643 84.2298 314.336 84.0644 314.179 83.7748L312.175 80.1011C311.943 79.6791 312.1 79.1495 312.523 78.9179C312.945 78.6862 313.475 78.8434 313.707 79.2654L315.711 82.9474C315.943 83.3693 315.786 83.8989 315.363 84.1306C315.231 84.205 315.09 84.2381 314.949 84.2381V84.2298ZM310.941 76.8742C310.634 76.8742 310.328 76.7087 310.17 76.4191L308.166 72.7371C307.934 72.3152 308.092 71.7856 308.514 71.5539C308.936 71.3223 309.466 71.4795 309.698 71.9014L311.703 75.5834C311.935 76.0054 311.777 76.5349 311.355 76.7666C311.222 76.8411 311.081 76.8742 310.941 76.8742ZM306.932 69.5185C306.626 69.5185 306.319 69.353 306.162 69.0634L304.158 65.3815C303.926 64.9595 304.083 64.4299 304.505 64.1983C304.928 63.9666 305.458 64.1238 305.69 64.5458L307.694 68.2277C307.926 68.6497 307.769 69.1793 307.346 69.4109C307.214 69.4854 307.073 69.5185 306.932 69.5185ZM302.923 62.1628C302.617 62.1628 302.311 61.9974 302.153 61.7078L300.149 58.0258C299.917 57.6038 300.074 57.0743 300.497 56.8426C300.919 56.6109 301.449 56.7681 301.681 57.1901L303.685 60.8721C303.917 61.2941 303.76 61.8236 303.338 62.0553C303.205 62.1297 303.064 62.1628 302.923 62.1628ZM298.915 54.8072C298.608 54.8072 298.302 54.6417 298.145 54.3521L296.14 50.6701C295.908 50.2482 296.066 49.7186 296.488 49.4869C296.911 49.2553 297.441 49.4125 297.673 49.8344L299.677 53.5164C299.909 53.9384 299.751 54.4679 299.329 54.6996C299.196 54.7741 299.056 54.8072 298.915 54.8072Z" fill="white"/>
<path d="M338.04 126.601C337.734 126.601 337.427 126.436 337.27 126.146L336.226 124.235C335.994 123.813 336.152 123.284 336.574 123.052C336.997 122.82 337.527 122.977 337.759 123.399L338.802 125.311C339.034 125.733 338.877 126.262 338.454 126.494C338.322 126.568 338.181 126.601 338.04 126.601Z" fill="white"/>
<path d="M47.6656 127.04C47.5083 127.04 47.3509 126.999 47.2101 126.916C46.796 126.668 46.6635 126.13 46.9202 125.716L48.0549 123.855C48.3034 123.441 48.8417 123.309 49.2558 123.565C49.6699 123.813 49.8024 124.351 49.5457 124.765L48.411 126.627C48.2454 126.9 47.9555 127.049 47.6656 127.049V127.04Z" fill="white"/>
<path d="M51.0367 121.496C50.8794 121.496 50.722 121.455 50.5812 121.372C50.1671 121.124 50.0346 120.586 50.2913 120.173L52.5358 116.491C52.7843 116.077 53.3226 115.944 53.7367 116.201C54.1508 116.449 54.2833 116.987 54.0266 117.401L51.7821 121.083C51.6165 121.356 51.3266 121.505 51.0367 121.505V121.496ZM55.5174 114.132C55.36 114.132 55.2027 114.091 55.0619 114.008C54.6478 113.76 54.5152 113.222 54.772 112.809L57.0165 109.127C57.2649 108.713 57.8033 108.58 58.2174 108.837C58.6315 109.085 58.764 109.623 58.5073 110.037L56.2628 113.719C56.0971 113.992 55.8073 114.141 55.5174 114.141V114.132ZM59.9981 106.768C59.8407 106.768 59.6833 106.727 59.5425 106.644C59.1284 106.396 58.9959 105.858 59.2527 105.445L61.4971 101.763C61.7456 101.349 62.284 101.217 62.6981 101.473C63.1122 101.721 63.2447 102.259 62.9879 102.673L60.7435 106.355C60.5778 106.628 60.2879 106.777 59.9981 106.777V106.768ZM64.4787 99.4045C64.3214 99.4045 64.164 99.3632 64.0232 99.2804C63.6091 99.0322 63.4766 98.4944 63.7333 98.0807L65.9778 94.3987C66.2263 93.985 66.7646 93.8526 67.1787 94.1091C67.5928 94.3573 67.7254 94.8952 67.4686 95.3089L65.2241 98.9908C65.0585 99.2639 64.7686 99.4128 64.4787 99.4128V99.4045ZM68.9594 92.0406C68.8021 92.0406 68.6447 91.9992 68.5039 91.9165C68.0898 91.6683 67.9573 91.1304 68.214 90.7167L70.4585 87.0348C70.707 86.6211 71.2453 86.4887 71.6594 86.7452C72.0735 86.9934 72.206 87.5312 71.9493 87.9449L69.7048 91.6269C69.5392 91.8999 69.2493 92.0489 68.9594 92.0489V92.0406ZM73.4401 84.6766C73.2827 84.6766 73.1254 84.6353 72.9846 84.5525C72.5705 84.3043 72.4379 83.7665 72.6947 83.3528L74.9392 79.6708C75.1876 79.2571 75.726 79.1247 76.1401 79.3812C76.5542 79.6295 76.6867 80.1673 76.43 80.581L74.1855 84.2629C74.0198 84.536 73.73 84.6849 73.4401 84.6849V84.6766ZM77.9208 77.3127C77.7634 77.3127 77.606 77.2713 77.4652 77.1886C77.0511 76.9404 76.9186 76.4026 77.1754 75.9888L79.4198 72.3069C79.6683 71.8932 80.2067 71.7608 80.6208 72.0173C81.0349 72.2655 81.1674 72.8033 80.9106 73.217L78.6662 76.899C78.5005 77.1721 78.2106 77.321 77.9208 77.321V77.3127ZM82.4014 69.9488C82.2441 69.9488 82.0867 69.9074 81.9459 69.8247C81.5318 69.5764 81.3993 69.0386 81.656 68.6249L83.9005 64.9429C84.149 64.5292 84.6873 64.4051 85.1014 64.6533C85.5156 64.9016 85.6481 65.4394 85.3913 65.8531L83.1468 69.5351C82.9812 69.8081 82.6913 69.957 82.4014 69.957V69.9488ZM86.8821 62.5848C86.7248 62.5848 86.5674 62.5435 86.4266 62.4607C86.0125 62.2125 85.88 61.6747 86.1367 61.261L88.3812 57.579C88.6297 57.1653 89.168 57.0329 89.5821 57.2894C89.9962 57.5376 90.1287 58.0754 89.872 58.4892L87.6275 62.1711C87.4619 62.4442 87.172 62.5931 86.8821 62.5931V62.5848ZM91.3628 55.2209C91.2054 55.2209 91.0481 55.1795 90.9073 55.0968C90.4932 54.8485 90.3606 54.3107 90.6174 53.897L92.8619 50.2151C93.1103 49.8014 93.6487 49.669 94.0628 49.9255C94.4769 50.1737 94.6094 50.7115 94.3527 51.1252L92.1082 54.8072C91.9425 55.0802 91.6527 55.2292 91.3628 55.2292V55.2209Z" fill="white"/>
<path d="M98.0553 47.8902C97.7488 47.8902 97.4424 47.7247 97.285 47.4351L96.962 46.8476L96.6141 47.4185C96.3657 47.8322 95.8273 47.9646 95.4132 47.7081C94.9991 47.4599 94.8666 46.9221 95.1233 46.5084L97.0448 43.356L98.8172 46.5994C99.0491 47.0214 98.8918 47.5509 98.4694 47.7826C98.3368 47.8571 98.196 47.8902 98.0553 47.8902Z" fill="white"/>
<path d="M138.166 121.447C137.86 121.447 137.553 121.281 137.396 120.992L135.391 117.318C135.16 116.896 135.317 116.366 135.739 116.135C136.162 115.903 136.692 116.06 136.924 116.482L138.928 120.156C139.16 120.578 139.003 121.107 138.58 121.339C138.448 121.414 138.307 121.447 138.166 121.447ZM134.157 114.091C133.851 114.091 133.545 113.925 133.387 113.636L131.383 109.954C131.151 109.532 131.308 109.002 131.731 108.771C132.153 108.539 132.683 108.696 132.915 109.118L134.919 112.8C135.151 113.222 134.994 113.752 134.572 113.983C134.439 114.058 134.298 114.091 134.157 114.091ZM130.149 106.735C129.842 106.735 129.536 106.57 129.379 106.28L127.374 102.598C127.142 102.176 127.3 101.647 127.722 101.415C128.145 101.183 128.675 101.341 128.907 101.763L130.911 105.445C131.143 105.867 130.985 106.396 130.563 106.628C130.43 106.702 130.29 106.735 130.149 106.735ZM126.14 99.3797C125.834 99.3797 125.527 99.2142 125.37 98.9246L123.366 95.2426C123.134 94.8206 123.291 94.2911 123.714 94.0594C124.136 93.8277 124.666 93.9849 124.898 94.4069L126.902 98.0889C127.134 98.5109 126.977 99.0404 126.554 99.2721C126.422 99.3466 126.281 99.3797 126.14 99.3797ZM122.132 92.024C121.825 92.024 121.519 91.8585 121.361 91.5689L119.357 87.8869C119.125 87.465 119.283 86.9354 119.705 86.7037C120.127 86.4721 120.657 86.6293 120.889 87.0513L122.894 90.725C123.126 91.1469 122.968 91.6765 122.546 91.9081C122.413 91.9826 122.272 92.0157 122.132 92.0157V92.024ZM118.123 84.6683C117.817 84.6683 117.51 84.5028 117.353 84.2132L115.349 80.5313C115.117 80.1093 115.274 79.5798 115.696 79.3481C116.119 79.1164 116.649 79.2736 116.881 79.6956L118.885 83.3776C119.117 83.7995 118.96 84.3291 118.537 84.5608C118.405 84.6352 118.264 84.6683 118.123 84.6683ZM114.114 77.3127C113.808 77.3127 113.502 77.1472 113.344 76.8576L111.34 73.1756C111.108 72.7536 111.265 72.2241 111.688 71.9924C112.11 71.7607 112.64 71.9179 112.872 72.3399L114.876 76.0219C115.108 76.4439 114.951 76.9734 114.529 77.2051C114.396 77.2796 114.255 77.3127 114.114 77.3127ZM110.106 69.957C109.799 69.957 109.493 69.7915 109.336 69.5019L107.331 65.8199C107.099 65.398 107.257 64.8684 107.679 64.6367C108.102 64.4051 108.632 64.5623 108.864 64.9843L110.868 68.6662C111.1 69.0882 110.942 69.6177 110.52 69.8494C110.388 69.9239 110.247 69.957 110.106 69.957ZM106.097 62.6013C105.791 62.6013 105.484 62.4358 105.327 62.1462L103.323 58.4725C103.091 58.0506 103.248 57.521 103.671 57.2894C104.093 57.0577 104.623 57.2149 104.855 57.6369L106.859 61.3106C107.091 61.7325 106.934 62.2621 106.511 62.4938C106.379 62.5682 106.238 62.6013 106.097 62.6013ZM102.089 55.2456C101.782 55.2456 101.476 55.0802 101.318 54.7906L99.3142 51.1086C99.0823 50.6866 99.2396 50.1571 99.662 49.9254C100.084 49.6937 100.614 49.8509 100.846 50.2729L102.851 53.9549C103.083 54.3769 102.925 54.9064 102.503 55.1381C102.37 55.2126 102.23 55.2456 102.089 55.2456Z" fill="white"/>
<path d="M141.214 127.04C140.907 127.04 140.601 126.874 140.444 126.585L139.4 124.674C139.168 124.252 139.326 123.722 139.748 123.49C140.17 123.259 140.7 123.416 140.932 123.838L141.976 125.749C142.208 126.171 142.05 126.701 141.628 126.932C141.496 127.007 141.355 127.04 141.214 127.04Z" fill="white"/>
<path d="M340.466 50.3643L309.151 54.3606L317.118 62.3203L304.745 74.6818C302.219 73.358 299.519 72.3071 296.703 71.5708C297.531 70.9833 297.813 70.3131 297.813 70.3131H286.938C265.702 70.3131 248.426 87.5728 248.426 108.788C248.426 130.002 264.758 146.302 285.182 147.221C285.157 147.246 299.883 147.262 299.883 147.262C299.138 146.642 298.401 146.137 297.68 145.74C313.698 141.081 325.442 126.279 325.442 108.796C325.442 99.8268 322.353 91.561 317.185 85.0161L328.498 73.7137L336.466 81.6734H347.34L351.34 50.3891H340.466V50.3643ZM286.938 135.107C272.403 135.107 260.576 123.292 260.576 108.771C260.576 94.25 272.403 82.4346 286.938 82.4346C301.473 82.4346 313.3 94.25 313.3 108.771C313.3 123.292 301.473 135.107 286.938 135.107Z" fill="#A2B8E9"/>
<path d="M335.695 52.3584L320.042 54.3524L328.01 62.3121L315.636 74.6736C310.302 71.8852 304.248 70.3049 297.821 70.3049C276.585 70.3049 259.309 87.5646 259.309 108.779C259.309 129.994 276.585 147.254 297.821 147.254C319.056 147.254 336.333 129.994 336.333 108.779C336.333 99.8103 333.244 91.5445 328.067 84.9997L339.381 73.6972L347.348 81.6569L349.344 66.0189L351.34 50.3809L335.687 52.3749L335.695 52.3584ZM297.821 135.108C283.286 135.108 271.459 123.292 271.459 108.771C271.459 94.2501 283.286 82.4347 297.821 82.4347C312.356 82.4347 324.183 94.2501 324.183 108.771C324.183 123.292 312.356 135.108 297.821 135.108Z" fill="#587DCB"/>
<path d="M309.16 54.3608H320.035L328.002 62.3205H317.128L309.16 54.3608Z" fill="#719AD5"/>
<path d="M333.939 79.1168L336.466 81.6404H347.348L339.381 73.689L333.939 79.1168Z" fill="#719AD5"/>
<path d="M328.067 85.2065C328.009 85.2065 327.959 85.1817 327.91 85.1403C327.827 85.0576 327.827 84.9169 327.91 84.8342L339.223 73.5318C339.306 73.449 339.447 73.449 339.53 73.5318L347.497 81.4915C347.58 81.5742 347.58 81.7149 347.497 81.7976C347.414 81.8803 347.274 81.8803 347.191 81.7976L339.381 73.9951L328.216 85.1486C328.175 85.19 328.117 85.2148 328.059 85.2148L328.067 85.2065Z" fill="white"/>
<path d="M315.628 74.897C315.57 74.897 315.52 74.8721 315.47 74.8308C315.387 74.748 315.387 74.6074 315.47 74.5246L327.844 62.1631C327.927 62.0804 328.068 62.0804 328.15 62.1631C328.233 62.2459 328.233 62.3865 328.15 62.4693L315.777 74.8308C315.735 74.8721 315.677 74.897 315.619 74.897H315.628Z" fill="white"/>
<path d="M297.821 147.461C276.47 147.461 259.094 130.102 259.094 108.771C259.094 87.4406 276.47 70.0815 297.821 70.0815C304.05 70.0815 310.245 71.604 315.736 74.4751C315.843 74.533 315.885 74.6654 315.827 74.773C315.769 74.8805 315.636 74.9219 315.529 74.864C310.096 72.0177 303.975 70.5201 297.813 70.5201C276.702 70.5201 259.524 87.6805 259.524 108.771C259.524 129.862 276.702 147.022 297.813 147.022C297.937 147.022 298.028 147.122 298.028 147.237C298.028 147.353 297.929 147.453 297.813 147.453L297.821 147.461Z" fill="white"/>
<path d="M313.896 65.7543C313.838 65.7543 313.789 65.7295 313.739 65.6881C313.656 65.6054 313.656 65.4647 313.739 65.3819L316.812 62.3123L309.002 54.5098C308.919 54.4271 308.919 54.2864 309.002 54.2037C309.084 54.1209 309.225 54.1209 309.308 54.2037L317.275 62.1633C317.358 62.2461 317.358 62.3867 317.275 62.4695L314.054 65.6881C314.012 65.7295 313.954 65.7543 313.896 65.7543Z" fill="white"/>
<path d="M299.892 147.461C299.892 147.461 296.215 147.461 292.546 147.453C287.112 147.444 285.622 147.436 285.183 147.378V147.42C275.227 146.973 265.927 142.745 258.994 135.53C252.046 128.29 248.211 118.783 248.211 108.771C248.211 108.647 248.31 108.556 248.426 108.556C248.542 108.556 248.642 108.655 248.642 108.771C248.642 129.274 264.693 146.063 285.191 146.981H285.208C285.613 146.998 294.964 147.014 299.884 147.022C300.008 147.022 300.099 147.122 300.099 147.238C300.099 147.353 300 147.453 299.884 147.453L299.892 147.461Z" fill="white"/>
<path d="M297.821 135.322C297.697 135.322 297.605 135.223 297.605 135.107C297.605 134.991 297.705 134.892 297.821 134.892C312.232 134.892 323.959 123.176 323.959 108.779C323.959 94.3822 312.232 82.6661 297.821 82.6661C297.697 82.6661 297.605 82.5668 297.605 82.451C297.605 82.3351 297.705 82.2358 297.821 82.2358C312.472 82.2358 324.398 94.1505 324.398 108.787C324.398 123.424 312.48 135.339 297.821 135.339V135.322Z" fill="white"/>
<path d="M127.124 108.887C127.124 91.0234 114.875 75.9645 98.3269 71.6537C98.7079 71.2814 99.0972 70.8677 99.4947 70.4126H87.4524V70.4291C66.7551 71.0414 50.0996 88.053 50.0996 108.879C50.0996 128.323 64.6183 144.441 83.3941 146.998V150.928H67.9312V167.004H83.3941V180.921H99.4864V167.004H111.885V150.928H99.4864V147.345H102.667C102.667 147.345 101.731 146.476 100.282 145.533C115.827 140.585 127.116 126.023 127.116 108.871L127.124 108.887ZM88.6119 135.224C74.0766 135.224 62.2496 123.408 62.2496 108.887C62.2496 94.3661 74.0766 82.5507 88.6119 82.5507C103.147 82.5507 114.974 94.3661 114.974 108.887C114.974 123.408 103.147 135.224 88.6119 135.224Z" fill="#FB7D78"/>
<path d="M91.4448 146.509L83.3945 146.997V151.259H91.4448V146.509Z" fill="#EA6C6C"/>
<path d="M91.4448 166.127L83.3945 166.946V180.921H91.4448V166.127Z" fill="#EA6C6C"/>
<path d="M137.999 108.887C137.999 87.6724 120.722 70.4126 99.4869 70.4126C78.2513 70.4126 60.9746 87.6724 60.9746 108.887C60.9746 127.347 74.0522 142.803 91.4366 146.509V150.936H77.5059V167.013H91.4366V180.93H107.529V167.013H121.46V150.936H107.529V146.509C124.913 142.803 137.991 127.338 137.991 108.887H137.999ZM73.1329 108.887C73.1329 94.3661 84.9599 82.5507 99.4952 82.5507C114.03 82.5507 125.857 94.3661 125.857 108.887C125.857 123.408 114.03 135.224 99.4952 135.224C84.9599 135.224 73.1329 123.408 73.1329 108.887Z" fill="#F15761"/>
<path d="M91.4444 181.144C91.3201 181.144 91.229 181.045 91.229 180.929V167.236H77.522C77.3977 167.236 77.3066 167.136 77.3066 167.021V156.678C77.3066 156.554 77.406 156.463 77.522 156.463C77.6379 156.463 77.7373 156.562 77.7373 156.678V166.806H91.4444C91.5686 166.806 91.6597 166.905 91.6597 167.021V180.938C91.6597 181.062 91.5603 181.153 91.4444 181.153V181.144Z" fill="white"/>
<path d="M91.4449 151.151C91.3206 151.151 91.2295 151.052 91.2295 150.936V146.683C73.5636 142.836 60.7676 126.966 60.7676 108.887C60.7676 87.5563 78.1436 70.1973 99.4952 70.1973C99.6194 70.1973 99.7105 70.2966 99.7105 70.4124C99.7105 70.5282 99.6111 70.6275 99.4952 70.6275C78.3838 70.6275 61.2065 87.788 61.2065 108.879C61.2065 126.817 73.9446 142.546 91.4946 146.286C91.594 146.311 91.6685 146.393 91.6685 146.501V150.928C91.6685 151.052 91.5691 151.143 91.4532 151.143L91.4449 151.151Z" fill="white"/>
<path d="M83.3946 151.151C83.2704 151.151 83.1792 151.052 83.1792 150.936V147.188C64.1881 144.515 49.8848 128.075 49.8848 108.879C49.8848 108.755 49.9842 108.664 50.1001 108.664C50.2161 108.664 50.3154 108.763 50.3154 108.879C50.3154 127.926 64.5443 144.217 83.4194 146.782C83.5271 146.799 83.6099 146.89 83.6099 146.997V150.928C83.6099 151.052 83.5105 151.143 83.3946 151.143V151.151Z" fill="white"/>
<path d="M99.4946 135.43C99.3704 135.43 99.2793 135.331 99.2793 135.215C99.2793 135.099 99.3787 135 99.4946 135C113.906 135 125.633 123.284 125.633 108.887C125.633 94.4901 113.906 82.774 99.4946 82.774C99.3704 82.774 99.2793 82.6747 99.2793 82.5589C99.2793 82.443 99.3787 82.3438 99.4946 82.3438C114.146 82.3438 126.072 94.2584 126.072 108.895C126.072 123.532 114.154 135.447 99.4946 135.447V135.43Z" fill="white"/>
<path d="M121.468 151.151H107.538C107.413 151.151 107.322 151.052 107.322 150.936V146.509C107.322 146.385 107.422 146.294 107.538 146.294C107.654 146.294 107.753 146.393 107.753 146.509V150.721H121.46C121.584 150.721 121.675 150.82 121.675 150.936C121.675 151.052 121.576 151.151 121.46 151.151H121.468Z" fill="white"/>
<path d="M97.7966 39.0035C97.7386 39.0035 97.6723 39.0035 97.6143 38.9787C97.2002 38.8794 96.9518 38.4657 97.0512 38.052C97.2085 37.4066 97.4321 36.753 97.7055 36.1159C97.8711 35.727 98.3266 35.5532 98.7159 35.7187C99.1051 35.8842 99.2791 36.3393 99.1134 36.7282C98.8732 37.2825 98.6828 37.8534 98.542 38.4161C98.4591 38.7636 98.1444 39.0035 97.7966 39.0035Z" fill="white"/>
<path d="M100.438 33.8903C100.272 33.8903 100.098 33.8324 99.9574 33.7248C99.6261 33.46 99.5764 32.9801 99.8331 32.6492C100.612 31.6728 101.548 30.7048 102.616 29.7615C102.931 29.4802 103.419 29.5133 103.701 29.8277C103.983 30.1421 103.949 30.6303 103.635 30.9116C102.633 31.7969 101.763 32.6988 101.034 33.609C100.885 33.7993 100.661 33.8986 100.438 33.8986V33.8903ZM289.057 33.791C288.833 33.791 288.61 33.6917 288.46 33.5097C287.732 32.6078 286.854 31.7059 285.843 30.8289C285.529 30.5476 285.495 30.0677 285.769 29.745C286.05 29.4306 286.531 29.3975 286.854 29.6705C287.922 30.6055 288.866 31.5735 289.653 32.5416C289.918 32.8726 289.868 33.3525 289.537 33.6173C289.396 33.7331 289.222 33.791 289.057 33.791ZM106.194 28.719C105.954 28.719 105.713 28.6032 105.564 28.388C105.324 28.0405 105.407 27.5606 105.755 27.3207C106.782 26.6091 107.908 25.9058 109.101 25.219C109.465 25.0122 109.937 25.1363 110.144 25.5004C110.352 25.8644 110.227 26.3361 109.863 26.5429C108.703 27.2048 107.618 27.8833 106.625 28.5701C106.492 28.6611 106.343 28.7024 106.186 28.7024L106.194 28.719ZM283.267 28.6445C283.118 28.6445 282.969 28.6031 282.837 28.5121C281.843 27.8337 280.75 27.1552 279.598 26.4933C279.234 26.2864 279.102 25.8148 279.309 25.4507C279.516 25.0867 279.988 24.9543 280.352 25.1611C281.545 25.8396 282.679 26.5429 283.706 27.2462C284.054 27.4861 284.145 27.966 283.905 28.3136C283.756 28.5287 283.516 28.6445 283.276 28.6445H283.267ZM112.919 24.8384C112.637 24.8384 112.364 24.6812 112.232 24.4082C112.049 24.0276 112.207 23.5725 112.588 23.3822C113.722 22.8278 114.923 22.2817 116.157 21.7522C116.547 21.5867 116.994 21.7688 117.16 22.1576C117.325 22.5465 117.143 22.9933 116.754 23.1588C115.536 23.6801 114.36 24.2096 113.25 24.7557C113.143 24.8053 113.027 24.8302 112.911 24.8302L112.919 24.8384ZM276.526 24.7805C276.41 24.7805 276.302 24.7557 276.194 24.7061C275.085 24.1682 273.9 23.6304 272.691 23.1174C272.302 22.9519 272.12 22.5051 272.285 22.1163C272.451 21.7274 272.898 21.5454 273.287 21.7108C274.521 22.2321 275.731 22.7782 276.865 23.3326C277.246 23.5146 277.404 23.9779 277.221 24.3585C277.089 24.6316 276.816 24.7888 276.534 24.7888L276.526 24.7805ZM120.058 21.777C119.752 21.777 119.454 21.5867 119.338 21.2806C119.189 20.8834 119.387 20.4449 119.785 20.296C120.969 19.8492 122.212 19.4106 123.471 18.9804C123.876 18.848 124.307 19.0631 124.44 19.4603C124.572 19.8574 124.357 20.296 123.959 20.4283C122.709 20.8503 121.491 21.2806 120.323 21.7191C120.232 21.7522 120.141 21.7688 120.05 21.7688L120.058 21.777ZM269.37 21.7357C269.279 21.7357 269.188 21.7191 269.097 21.686C267.929 21.2475 266.703 20.8172 265.461 20.3953C265.063 20.2629 264.84 19.8243 264.98 19.4272C265.113 19.03 265.552 18.8149 265.949 18.9473C267.208 19.3693 268.451 19.8078 269.643 20.2546C270.041 20.4035 270.24 20.8421 270.09 21.2392C269.975 21.5454 269.685 21.7357 269.37 21.7357ZM127.421 19.2948C127.09 19.2948 126.792 19.0797 126.684 18.7487C126.56 18.3433 126.792 17.913 127.198 17.7972C128.415 17.4331 129.682 17.0691 130.958 16.7216C131.363 16.6057 131.786 16.8539 131.902 17.2594C132.01 17.6648 131.769 18.0868 131.363 18.2026C130.105 18.5419 128.854 18.9059 127.645 19.27C127.57 19.2948 127.496 19.3031 127.421 19.3031V19.2948ZM261.999 19.2617C261.924 19.2617 261.85 19.2534 261.775 19.2286C260.566 18.8645 259.315 18.5088 258.056 18.1695C257.651 18.062 257.41 17.64 257.518 17.2263C257.626 16.8208 258.048 16.5726 258.462 16.6885C259.738 17.036 261.005 17.3918 262.222 17.7641C262.628 17.8882 262.86 18.3102 262.736 18.7156C262.637 19.0466 262.33 19.2617 261.999 19.2617ZM134.925 17.2511C134.577 17.2511 134.271 17.0194 134.179 16.6719C134.08 16.2582 134.329 15.8445 134.743 15.7452C135.985 15.4391 137.26 15.1412 138.544 14.8599C138.958 14.7689 139.364 15.0254 139.455 15.4391C139.546 15.8528 139.29 16.2582 138.875 16.3492C137.6 16.6305 136.333 16.9284 135.107 17.2263C135.049 17.2428 134.983 17.2511 134.925 17.2511ZM254.495 17.218C254.437 17.218 254.371 17.218 254.313 17.1932C253.087 16.8953 251.82 16.5974 250.544 16.3161C250.13 16.2251 249.874 15.8197 249.965 15.406C250.056 14.9923 250.47 14.7358 250.876 14.8268C252.16 15.1081 253.443 15.406 254.677 15.7121C255.091 15.8114 255.34 16.2251 255.24 16.6388C255.158 16.9863 254.843 17.2263 254.495 17.2263V17.218ZM142.52 15.5632C142.163 15.5632 141.84 15.315 141.766 14.9509C141.683 14.5372 141.948 14.1318 142.371 14.049C143.629 13.7925 144.921 13.5526 146.205 13.3209C146.628 13.2464 147.017 13.5195 147.1 13.9415C147.174 14.3552 146.901 14.7523 146.479 14.8351C145.203 15.0667 143.919 15.3067 142.669 15.5632C142.619 15.5715 142.569 15.5797 142.52 15.5797V15.5632ZM246.909 15.5384C246.859 15.5384 246.809 15.5384 246.76 15.5218C245.517 15.2736 244.233 15.0336 242.95 14.802C242.536 14.7275 242.254 14.3303 242.329 13.9166C242.403 13.5029 242.801 13.2216 243.215 13.2961C244.507 13.5278 245.799 13.776 247.049 14.0242C247.464 14.1069 247.737 14.5124 247.654 14.9261C247.579 15.2901 247.265 15.5384 246.9 15.5384H246.909ZM150.172 14.1814C149.8 14.1814 149.477 13.9166 149.419 13.536C149.352 13.1223 149.634 12.7252 150.048 12.659C151.307 12.4521 152.607 12.2535 153.908 12.0632C154.322 12.0053 154.711 12.2949 154.777 12.7086C154.835 13.1306 154.545 13.5195 154.131 13.5774C152.839 13.7677 151.556 13.9663 150.305 14.1649C150.263 14.1649 150.222 14.1731 150.181 14.1731L150.172 14.1814ZM239.256 14.1649C239.256 14.1649 239.173 14.1649 239.132 14.1566C237.873 13.9497 236.581 13.7594 235.297 13.5691C234.875 13.5112 234.585 13.1223 234.651 12.7003C234.709 12.2784 235.098 11.9888 235.521 12.055C236.813 12.2453 238.113 12.4439 239.38 12.6424C239.794 12.7086 240.084 13.1058 240.018 13.5195C239.96 13.8918 239.629 14.1649 239.264 14.1649H239.256ZM157.867 13.0644C157.486 13.0644 157.154 12.7831 157.105 12.3942C157.047 11.9722 157.345 11.5916 157.767 11.5337C159.043 11.3682 160.351 11.211 161.635 11.0621C162.049 11.0124 162.438 11.3186 162.48 11.7406C162.529 12.1625 162.223 12.5431 161.809 12.5845C160.525 12.7334 159.233 12.8907 157.958 13.0479C157.925 13.0479 157.891 13.0479 157.858 13.0479L157.867 13.0644ZM231.553 13.0479C231.553 13.0479 231.487 13.0479 231.454 13.0479C230.195 12.8824 228.895 12.7334 227.603 12.5845C227.18 12.5349 226.882 12.1543 226.924 11.7406C226.973 11.3186 227.354 11.0207 227.768 11.0621C229.069 11.211 230.369 11.3682 231.636 11.5337C232.059 11.5833 232.357 11.9722 232.299 12.3942C232.249 12.7831 231.918 13.0644 231.537 13.0644L231.553 13.0479ZM165.594 12.1874C165.205 12.1874 164.873 11.8895 164.832 11.5006C164.79 11.0786 165.097 10.7063 165.519 10.6649C166.795 10.5408 168.103 10.4167 169.404 10.3091C169.834 10.276 170.199 10.5905 170.232 11.0042C170.265 11.4261 169.959 11.7985 169.536 11.8316C168.244 11.9391 166.944 12.0632 165.677 12.1874C165.652 12.1874 165.627 12.1874 165.602 12.1874H165.594ZM223.826 12.1791C223.826 12.1791 223.776 12.1791 223.752 12.1791C222.484 12.055 221.184 11.9391 219.892 11.8316C219.47 11.7985 219.155 11.4261 219.196 11.0042C219.229 10.5822 219.594 10.276 220.025 10.3091C221.325 10.4167 222.633 10.5408 223.909 10.6649C224.331 10.7063 224.638 11.0786 224.596 11.5006C224.555 11.8978 224.224 12.1874 223.834 12.1874L223.826 12.1791ZM173.338 11.5337C172.94 11.5337 172.601 11.2276 172.576 10.8221C172.543 10.4002 172.866 10.0361 173.288 10.003C174.58 9.91198 175.889 9.82924 177.181 9.75477C177.603 9.72995 177.967 10.0526 177.992 10.4746C178.017 10.8966 177.694 11.2607 177.272 11.2855C175.988 11.3599 174.688 11.4427 173.404 11.5337C173.387 11.5337 173.371 11.5337 173.346 11.5337H173.338ZM216.074 11.5254C216.074 11.5254 216.041 11.5254 216.016 11.5254C214.732 11.4344 213.432 11.3517 212.148 11.2772C211.726 11.2524 211.403 10.8883 211.428 10.4663C211.452 10.0444 211.825 9.7134 212.239 9.7465C213.531 9.82097 214.84 9.90371 216.132 9.99472C216.554 10.0278 216.869 10.3919 216.844 10.8139C216.819 11.2193 216.48 11.5254 216.082 11.5254H216.074ZM181.098 11.0869C180.692 11.0869 180.353 10.7642 180.336 10.3588C180.32 9.9368 180.643 9.58102 181.065 9.5562C182.357 9.49828 183.657 9.44863 184.958 9.40726C185.397 9.39899 185.736 9.72995 185.744 10.1519C185.761 10.5739 185.43 10.9297 184.999 10.938C183.699 10.9793 182.407 11.029 181.123 11.0869H181.09H181.098ZM208.305 11.0869H208.272C206.988 11.029 205.696 10.9793 204.396 10.938C203.974 10.9214 203.642 10.5739 203.651 10.1519C203.667 9.72995 204.007 9.39071 204.437 9.40726C205.746 9.44863 207.046 9.49828 208.33 9.5562C208.752 9.57274 209.084 9.92853 209.059 10.3505C209.042 10.7642 208.703 11.0786 208.297 11.0786L208.305 11.0869ZM188.867 10.847C188.453 10.847 188.105 10.516 188.105 10.094C188.105 9.67203 188.436 9.32452 188.859 9.31625C190.151 9.29142 191.451 9.27488 192.76 9.2666C193.182 9.2666 193.521 9.60584 193.53 10.0278C193.53 10.4498 193.19 10.7973 192.768 10.7973C191.467 10.7973 190.175 10.8221 188.892 10.847H188.875H188.867ZM200.528 10.847H200.512C199.228 10.8221 197.936 10.8056 196.636 10.7973C196.213 10.7973 195.874 10.4498 195.874 10.0278C195.874 9.60584 196.213 9.27488 196.644 9.2666C197.952 9.2666 199.253 9.29142 200.545 9.31625C200.967 9.31625 201.307 9.67203 201.298 10.094C201.298 10.516 200.951 10.847 200.537 10.847H200.528Z" fill="white"/>
<path d="M291.749 38.8713C291.409 38.8713 291.095 38.6396 291.004 38.2921C290.863 37.7295 290.664 37.1668 290.407 36.6125C290.233 36.2236 290.407 35.7768 290.797 35.603C291.186 35.4293 291.633 35.603 291.807 35.9919C292.089 36.629 292.32 37.2744 292.486 37.9198C292.594 38.3252 292.345 38.7472 291.931 38.8548C291.865 38.8713 291.807 38.8796 291.741 38.8796L291.749 38.8713Z" fill="white"/>
<path d="M101.848 46.128C101.848 48.875 99.6199 51.1007 96.8702 51.1007C94.1205 51.1007 91.8926 48.875 91.8926 46.128C91.8926 43.381 94.1205 41.1553 96.8702 41.1553C99.6199 41.1553 101.848 43.381 101.848 46.128Z" fill="white"/>
<path d="M202.067 18.06C206.862 16.0593 209.125 10.5542 207.122 5.76413C205.12 0.974073 199.609 -1.28709 194.814 0.713694C190.02 2.71447 187.756 8.21954 189.759 13.0096C191.762 17.7997 197.272 20.0608 202.067 18.06Z" fill="white"/>
<path d="M298.83 46.128C298.83 48.875 296.602 51.1007 293.853 51.1007C291.103 51.1007 288.875 48.875 288.875 46.128C288.875 43.381 291.103 41.1553 293.853 41.1553C296.602 41.1553 298.83 43.381 298.83 46.128Z" fill="white"/>
<path d="M47.3501 129.216C46.8697 129.216 46.4805 128.827 46.4805 128.348V125.294H49.5366C50.017 125.294 50.4062 125.683 50.4062 126.163C50.4062 126.643 50.017 127.032 49.5366 127.032H48.228V128.339C48.228 128.819 47.8388 129.208 47.3584 129.208L47.3501 129.216Z" fill="white"/>
<path d="M134.768 127.04H130.503C130.022 127.04 129.633 126.651 129.633 126.172C129.633 125.692 130.022 125.303 130.503 125.303H134.768C135.249 125.303 135.638 125.692 135.638 126.172C135.638 126.651 135.249 127.04 134.768 127.04ZM126.246 127.04H121.98C121.5 127.04 121.111 126.651 121.111 126.172C121.111 125.692 121.5 125.303 121.98 125.303H126.246C126.726 125.303 127.115 125.692 127.115 126.172C127.115 126.651 126.726 127.04 126.246 127.04ZM117.723 127.04H113.458C112.978 127.04 112.588 126.651 112.588 126.172C112.588 125.692 112.978 125.303 113.458 125.303H117.723C118.204 125.303 118.593 125.692 118.593 126.172C118.593 126.651 118.204 127.04 117.723 127.04ZM109.201 127.04H104.936C104.455 127.04 104.066 126.651 104.066 126.172C104.066 125.692 104.455 125.303 104.936 125.303H109.201C109.681 125.303 110.071 125.692 110.071 126.172C110.071 126.651 109.681 127.04 109.201 127.04ZM100.679 127.04H96.4132C95.9329 127.04 95.5436 126.651 95.5436 126.172C95.5436 125.692 95.9329 125.303 96.4132 125.303H100.679C101.159 125.303 101.548 125.692 101.548 126.172C101.548 126.651 101.159 127.04 100.679 127.04ZM92.1562 127.04H87.8908C87.4105 127.04 87.0212 126.651 87.0212 126.172C87.0212 125.692 87.4105 125.303 87.8908 125.303H92.1562C92.6365 125.303 93.0258 125.692 93.0258 126.172C93.0258 126.651 92.6365 127.04 92.1562 127.04ZM83.6338 127.04H79.3685C78.8881 127.04 78.4988 126.651 78.4988 126.172C78.4988 125.692 78.8881 125.303 79.3685 125.303H83.6338C84.1142 125.303 84.5034 125.692 84.5034 126.172C84.5034 126.651 84.1142 127.04 83.6338 127.04ZM75.1114 127.04H70.8461C70.3657 127.04 69.9764 126.651 69.9764 126.172C69.9764 125.692 70.3657 125.303 70.8461 125.303H75.1114C75.5918 125.303 75.981 125.692 75.981 126.172C75.981 126.651 75.5918 127.04 75.1114 127.04ZM66.589 127.04H62.3237C61.8433 127.04 61.454 126.651 61.454 126.172C61.454 125.692 61.8433 125.303 62.3237 125.303H66.589C67.0694 125.303 67.4586 125.692 67.4586 126.172C67.4586 126.651 67.0694 127.04 66.589 127.04ZM58.0666 127.04H53.8013C53.3209 127.04 52.9316 126.651 52.9316 126.172C52.9316 125.692 53.3209 125.303 53.8013 125.303H58.0666C58.547 125.303 58.9362 125.692 58.9362 126.172C58.9362 126.651 58.547 127.04 58.0666 127.04Z" fill="white"/>
<path d="M141.212 129.216C140.732 129.216 140.342 128.827 140.342 128.348V127.04H139.034C138.553 127.04 138.164 126.651 138.164 126.172C138.164 125.692 138.553 125.303 139.034 125.303H142.09V128.356C142.09 128.836 141.701 129.225 141.22 129.225L141.212 129.216Z" fill="white"/>
<path d="M128.391 148.627H128.092C127.612 148.627 127.223 148.239 127.223 147.759C127.223 147.279 127.612 146.89 128.092 146.89H128.391C129.707 146.89 131.008 146.675 132.242 146.253C132.697 146.096 133.194 146.344 133.352 146.799C133.509 147.254 133.261 147.75 132.805 147.908C131.389 148.388 129.898 148.636 128.382 148.636L128.391 148.627ZM123.587 148.627H119.081C118.601 148.627 118.212 148.239 118.212 147.759C118.212 147.279 118.601 146.89 119.081 146.89H123.587C124.067 146.89 124.457 147.279 124.457 147.759C124.457 148.239 124.067 148.627 123.587 148.627ZM114.576 148.627H110.07C109.59 148.627 109.201 148.239 109.201 147.759C109.201 147.279 109.59 146.89 110.07 146.89H114.576C115.056 146.89 115.445 147.279 115.445 147.759C115.445 148.239 115.056 148.627 114.576 148.627ZM105.565 148.627H101.059C100.579 148.627 100.19 148.239 100.19 147.759C100.19 147.279 100.579 146.89 101.059 146.89H105.565C106.045 146.89 106.434 147.279 106.434 147.759C106.434 148.239 106.045 148.627 105.565 148.627ZM96.5538 148.627H92.0482C91.5679 148.627 91.1786 148.239 91.1786 147.759C91.1786 147.279 91.5679 146.89 92.0482 146.89H96.5538C97.0341 146.89 97.4234 147.279 97.4234 147.759C97.4234 148.239 97.0341 148.627 96.5538 148.627ZM87.5427 148.627H83.0372C82.5568 148.627 82.1676 148.239 82.1676 147.759C82.1676 147.279 82.5568 146.89 83.0372 146.89H87.5427C88.0231 146.89 88.4123 147.279 88.4123 147.759C88.4123 148.239 88.0231 148.627 87.5427 148.627ZM78.5317 148.627H74.0262C73.5458 148.627 73.1565 148.239 73.1565 147.759C73.1565 147.279 73.5458 146.89 74.0262 146.89H78.5317C79.012 146.89 79.4013 147.279 79.4013 147.759C79.4013 148.239 79.012 148.627 78.5317 148.627ZM69.5206 148.627H65.0151C64.5347 148.627 64.1455 148.239 64.1455 147.759C64.1455 147.279 64.5347 146.89 65.0151 146.89H69.5206C70.001 146.89 70.3903 147.279 70.3903 147.759C70.3903 148.239 70.001 148.627 69.5206 148.627ZM60.5096 148.627H60.1866C58.6792 148.627 57.205 148.388 55.797 147.908C55.3415 147.75 55.093 147.262 55.2504 146.799C55.4078 146.344 55.8964 146.096 56.3602 146.253C57.5943 146.667 58.878 146.882 60.1949 146.882H60.5179C60.9982 146.882 61.3875 147.271 61.3875 147.75C61.3875 148.23 60.9982 148.619 60.5179 148.619L60.5096 148.627ZM52.1446 145.798C51.9541 145.798 51.7553 145.732 51.5979 145.607C50.339 144.598 49.2789 143.382 48.4507 142C48.2022 141.586 48.3347 141.048 48.7489 140.8C49.163 140.552 49.7013 140.684 49.9498 141.098C50.6786 142.298 51.5979 143.357 52.6995 144.242C53.0722 144.548 53.1301 145.094 52.832 145.467C52.6581 145.682 52.4096 145.789 52.1528 145.789L52.1446 145.798ZM136.466 145.781C136.209 145.781 135.961 145.674 135.787 145.458C135.48 145.086 135.538 144.532 135.919 144.234C137.012 143.349 137.94 142.29 138.661 141.081C138.909 140.668 139.447 140.535 139.861 140.784C140.276 141.032 140.408 141.57 140.16 141.983C139.331 143.365 138.271 144.581 137.021 145.591C136.855 145.723 136.664 145.781 136.474 145.781H136.466ZM47.5893 138.243C47.1752 138.243 46.8108 137.954 46.7363 137.532C46.5789 136.688 46.4961 135.819 46.4961 134.95V132.882C46.4961 132.402 46.8854 132.013 47.3657 132.013C47.8461 132.013 48.2354 132.402 48.2354 132.882V134.95C48.2354 135.712 48.3099 136.465 48.4507 137.201C48.5418 137.673 48.2271 138.128 47.755 138.219C47.697 138.227 47.6473 138.235 47.5893 138.235V138.243ZM140.996 138.219C140.946 138.219 140.888 138.219 140.83 138.202C140.358 138.111 140.044 137.656 140.135 137.184C140.276 136.456 140.342 135.703 140.342 134.95V132.857C140.342 132.377 140.731 131.988 141.211 131.988C141.692 131.988 142.081 132.377 142.081 132.857V134.95C142.081 135.811 141.998 136.663 141.841 137.507C141.758 137.929 141.394 138.219 140.988 138.219H140.996Z" fill="white"/>
<path d="M244.176 128.786C243.696 128.786 243.307 128.397 243.307 127.917V124.864H246.363C246.843 124.864 247.232 125.253 247.232 125.733C247.232 126.213 246.843 126.602 246.363 126.602H245.054V127.909C245.054 128.389 244.665 128.778 244.185 128.778L244.176 128.786Z" fill="white"/>
<path d="M331.594 126.602H327.329C326.849 126.602 326.459 126.213 326.459 125.733C326.459 125.253 326.849 124.864 327.329 124.864H331.594C332.075 124.864 332.464 125.253 332.464 125.733C332.464 126.213 332.075 126.602 331.594 126.602ZM323.072 126.602H318.807C318.326 126.602 317.937 126.213 317.937 125.733C317.937 125.253 318.326 124.864 318.807 124.864H323.072C323.552 124.864 323.942 125.253 323.942 125.733C323.942 126.213 323.552 126.602 323.072 126.602ZM314.55 126.602H310.284C309.804 126.602 309.415 126.213 309.415 125.733C309.415 125.253 309.804 124.864 310.284 124.864H314.55C315.03 124.864 315.419 125.253 315.419 125.733C315.419 126.213 315.03 126.602 314.55 126.602ZM306.027 126.602H301.762C301.281 126.602 300.892 126.213 300.892 125.733C300.892 125.253 301.281 124.864 301.762 124.864H306.027C306.508 124.864 306.897 125.253 306.897 125.733C306.897 126.213 306.508 126.602 306.027 126.602ZM297.505 126.602H293.239C292.759 126.602 292.37 126.213 292.37 125.733C292.37 125.253 292.759 124.864 293.239 124.864H297.505C297.985 124.864 298.374 125.253 298.374 125.733C298.374 126.213 297.985 126.602 297.505 126.602ZM288.982 126.602H284.717C284.237 126.602 283.847 126.213 283.847 125.733C283.847 125.253 284.237 124.864 284.717 124.864H288.982C289.463 124.864 289.852 125.253 289.852 125.733C289.852 126.213 289.463 126.602 288.982 126.602ZM280.46 126.602H276.195C275.714 126.602 275.325 126.213 275.325 125.733C275.325 125.253 275.714 124.864 276.195 124.864H280.46C280.94 124.864 281.33 125.253 281.33 125.733C281.33 126.213 280.94 126.602 280.46 126.602ZM271.938 126.602H267.672C267.192 126.602 266.803 126.213 266.803 125.733C266.803 125.253 267.192 124.864 267.672 124.864H271.938C272.418 124.864 272.807 125.253 272.807 125.733C272.807 126.213 272.418 126.602 271.938 126.602ZM263.415 126.602H259.15C258.669 126.602 258.28 126.213 258.28 125.733C258.28 125.253 258.669 124.864 259.15 124.864H263.415C263.896 124.864 264.285 125.253 264.285 125.733C264.285 126.213 263.896 126.602 263.415 126.602ZM254.893 126.602H250.627C250.147 126.602 249.758 126.213 249.758 125.733C249.758 125.253 250.147 124.864 250.627 124.864H254.893C255.373 124.864 255.762 125.253 255.762 125.733C255.762 126.213 255.373 126.602 254.893 126.602Z" fill="white"/>
<path d="M338.038 128.786C337.558 128.786 337.168 128.397 337.168 127.917V126.61H335.86C335.379 126.61 334.99 126.221 334.99 125.741C334.99 125.261 335.379 124.873 335.86 124.873H338.916V127.926C338.916 128.406 338.527 128.794 338.046 128.794L338.038 128.786Z" fill="white"/>
<path d="M325.217 148.189H324.919C324.438 148.189 324.049 147.8 324.049 147.32C324.049 146.84 324.438 146.451 324.919 146.451H325.217C326.534 146.451 327.834 146.236 329.068 145.814C329.523 145.657 330.02 145.905 330.178 146.36C330.335 146.815 330.087 147.312 329.631 147.469C328.215 147.949 326.724 148.197 325.208 148.197L325.217 148.189ZM320.413 148.189H315.908C315.427 148.189 315.038 147.8 315.038 147.32C315.038 146.84 315.427 146.451 315.908 146.451H320.413C320.893 146.451 321.283 146.84 321.283 147.32C321.283 147.8 320.893 148.189 320.413 148.189ZM311.402 148.189H306.896C306.416 148.189 306.027 147.8 306.027 147.32C306.027 146.84 306.416 146.451 306.896 146.451H311.402C311.882 146.451 312.272 146.84 312.272 147.32C312.272 147.8 311.882 148.189 311.402 148.189ZM302.391 148.189H297.885C297.405 148.189 297.016 147.8 297.016 147.32C297.016 146.84 297.405 146.451 297.885 146.451H302.391C302.871 146.451 303.261 146.84 303.261 147.32C303.261 147.8 302.871 148.189 302.391 148.189ZM293.38 148.189H288.874C288.394 148.189 288.005 147.8 288.005 147.32C288.005 146.84 288.394 146.451 288.874 146.451H293.38C293.86 146.451 294.25 146.84 294.25 147.32C294.25 147.8 293.86 148.189 293.38 148.189ZM284.369 148.189H279.863C279.383 148.189 278.994 147.8 278.994 147.32C278.994 146.84 279.383 146.451 279.863 146.451H284.369C284.849 146.451 285.239 146.84 285.239 147.32C285.239 147.8 284.849 148.189 284.369 148.189ZM275.358 148.189H270.852C270.372 148.189 269.983 147.8 269.983 147.32C269.983 146.84 270.372 146.451 270.852 146.451H275.358C275.838 146.451 276.227 146.84 276.227 147.32C276.227 147.8 275.838 148.189 275.358 148.189ZM266.347 148.189H261.841C261.361 148.189 260.972 147.8 260.972 147.32C260.972 146.84 261.361 146.451 261.841 146.451H266.347C266.827 146.451 267.216 146.84 267.216 147.32C267.216 147.8 266.827 148.189 266.347 148.189ZM257.336 148.189H257.013C255.505 148.189 254.031 147.949 252.623 147.469C252.168 147.312 251.919 146.815 252.077 146.36C252.234 145.905 252.723 145.657 253.186 145.814C254.42 146.228 255.704 146.443 257.021 146.443H257.344C257.824 146.443 258.214 146.832 258.214 147.312C258.214 147.792 257.824 148.181 257.344 148.181L257.336 148.189ZM248.971 145.359C248.78 145.359 248.581 145.293 248.424 145.169C247.165 144.16 246.105 142.943 245.277 141.561C245.028 141.148 245.161 140.61 245.575 140.362C245.989 140.113 246.527 140.246 246.776 140.66C247.505 141.859 248.424 142.918 249.526 143.804C249.898 144.11 249.956 144.656 249.658 145.028C249.484 145.243 249.236 145.351 248.979 145.351L248.971 145.359ZM333.292 145.343C333.035 145.343 332.787 145.235 332.613 145.02C332.306 144.648 332.364 144.093 332.745 143.795C333.839 142.91 334.766 141.851 335.487 140.643C335.735 140.229 336.273 140.097 336.688 140.345C337.102 140.593 337.234 141.131 336.986 141.545C336.158 142.927 335.097 144.143 333.847 145.152C333.681 145.285 333.491 145.343 333.3 145.343H333.292ZM244.415 137.805C244.001 137.805 243.637 137.515 243.562 137.093C243.397 136.249 243.322 135.381 243.322 134.512V132.443C243.322 131.964 243.712 131.575 244.192 131.575C244.672 131.575 245.062 131.964 245.062 132.443V134.512C245.062 135.265 245.136 136.026 245.277 136.762C245.368 137.234 245.053 137.689 244.581 137.78C244.523 137.788 244.473 137.797 244.415 137.797V137.805ZM337.831 137.78C337.781 137.78 337.723 137.78 337.665 137.764C337.193 137.673 336.878 137.218 336.969 136.746C337.11 136.018 337.176 135.265 337.176 134.512V132.419C337.176 131.939 337.566 131.55 338.046 131.55C338.526 131.55 338.916 131.939 338.916 132.419V134.512C338.916 135.372 338.833 136.225 338.675 137.069C338.593 137.491 338.228 137.78 337.822 137.78H337.831Z" fill="white"/>
<path d="M225.279 74.6654C224.939 74.6654 224.616 74.4669 224.475 74.1359L223.614 72.1336C223.423 71.6951 223.63 71.1821 224.069 70.9918C224.508 70.8015 225.022 71.0083 225.212 71.4468L226.074 73.4492C226.264 73.8877 226.057 74.4007 225.618 74.591C225.502 74.6406 225.386 74.6654 225.27 74.6654H225.279Z" fill="white"/>
<path d="M222.76 68.7909C222.42 68.7909 222.097 68.5924 221.956 68.2614L220.292 64.3891C220.101 63.9506 220.308 63.4376 220.747 63.2473C221.186 63.057 221.7 63.2638 221.89 63.7024L223.555 67.5746C223.745 68.0132 223.538 68.5262 223.099 68.7165C222.983 68.7661 222.868 68.7909 222.752 68.7909H222.76ZM219.43 61.0547C219.091 61.0547 218.768 60.8561 218.627 60.5251L216.962 56.6528C216.772 56.2143 216.979 55.7013 217.418 55.511C217.857 55.3207 218.37 55.5276 218.561 55.9661L220.225 59.8384C220.416 60.2769 220.209 60.7899 219.77 60.9802C219.654 61.0298 219.538 61.0547 219.422 61.0547H219.43ZM216.101 53.3184C215.761 53.3184 215.438 53.1198 215.298 52.7888L213.633 48.9166C213.442 48.4698 213.649 47.965 214.088 47.7747C214.527 47.5844 215.041 47.7913 215.231 48.2298L216.896 52.1021C217.087 52.5406 216.879 53.0536 216.441 53.2439C216.325 53.2936 216.209 53.3184 216.093 53.3184H216.101ZM212.772 45.5821C212.432 45.5821 212.109 45.3835 211.968 45.0526L210.303 41.1803C210.113 40.7418 210.32 40.2288 210.759 40.0385C211.198 39.8482 211.711 40.055 211.902 40.4935L213.567 44.3658C213.757 44.8043 213.55 45.3173 213.111 45.5076C212.995 45.5573 212.879 45.5821 212.763 45.5821H212.772ZM209.442 37.8458C209.102 37.8458 208.779 37.6473 208.639 37.3163L206.974 33.444C206.783 33.0055 206.991 32.4925 207.429 32.3022C207.868 32.1119 208.382 32.3187 208.572 32.7573L210.237 36.6295C210.428 37.0681 210.221 37.5811 209.782 37.7714C209.666 37.821 209.55 37.8458 209.434 37.8458H209.442ZM206.113 30.1096C205.773 30.1096 205.45 29.911 205.309 29.58L203.645 25.7077C203.454 25.2692 203.661 24.7562 204.1 24.5659C204.539 24.3756 205.052 24.5825 205.243 25.021L206.908 28.8933C207.098 29.3318 206.891 29.8448 206.452 30.0351C206.336 30.0847 206.22 30.1096 206.104 30.1096H206.113ZM202.783 22.3733C202.444 22.3733 202.121 22.1747 201.98 21.8437L200.315 17.9715C200.125 17.5329 200.332 17.0199 200.771 16.8296C201.21 16.6393 201.723 16.8462 201.914 17.2847L203.578 21.157C203.769 21.5955 203.562 22.1085 203.123 22.2988C203.007 22.3485 202.891 22.3733 202.775 22.3733H202.783Z" fill="white"/>
<path d="M199.479 14.6286C199.14 14.6286 198.817 14.43 198.676 14.0991L198.618 13.9584L198.56 14.0991C198.37 14.5459 197.856 14.7444 197.417 14.5541C196.978 14.3638 196.771 13.8508 196.962 13.4123L198.626 9.54004L200.291 13.4123C200.481 13.8508 200.274 14.3638 199.835 14.5541C199.72 14.6038 199.604 14.6286 199.488 14.6286H199.479Z" fill="white"/>
<path d="M174.474 68.7909C174.358 68.7909 174.242 68.7661 174.126 68.7165C173.687 68.5262 173.48 68.0132 173.671 67.5746L175.335 63.7024C175.526 63.2556 176.039 63.057 176.478 63.2473C176.925 63.4376 177.124 63.9506 176.934 64.3891L175.269 68.2614C175.128 68.5924 174.805 68.7909 174.466 68.7909H174.474ZM177.803 61.0547C177.687 61.0547 177.571 61.0298 177.455 60.9802C177.017 60.7899 176.809 60.2769 177 59.8384L178.665 55.9661C178.855 55.5193 179.369 55.3207 179.808 55.511C180.247 55.7013 180.454 56.2143 180.263 56.6528L178.598 60.5251C178.458 60.8561 178.135 61.0547 177.795 61.0547H177.803ZM181.133 53.3184C181.017 53.3184 180.901 53.2936 180.785 53.2439C180.346 53.0536 180.139 52.5406 180.329 52.1021L181.994 48.2298C182.185 47.783 182.698 47.5844 183.137 47.7747C183.576 47.965 183.783 48.478 183.593 48.9166L181.928 52.7888C181.787 53.1198 181.464 53.3184 181.125 53.3184H181.133ZM184.462 45.5821C184.346 45.5821 184.23 45.5573 184.114 45.5076C183.675 45.3173 183.468 44.8043 183.659 44.3658L185.324 40.4935C185.514 40.055 186.028 39.8482 186.467 40.0385C186.906 40.2288 187.113 40.7418 186.922 41.1803L185.257 45.0526C185.117 45.3835 184.794 45.5821 184.454 45.5821H184.462ZM187.792 37.8458C187.676 37.8458 187.56 37.821 187.444 37.7714C187.005 37.5811 186.798 37.0681 186.988 36.6295L188.653 32.7573C188.844 32.3105 189.357 32.1119 189.796 32.3022C190.235 32.4925 190.442 33.0055 190.252 33.444L188.587 37.3163C188.446 37.6473 188.123 37.8458 187.783 37.8458H187.792ZM191.121 30.1096C191.005 30.1096 190.889 30.0847 190.773 30.0351C190.334 29.8448 190.127 29.3318 190.318 28.8933L191.982 25.021C192.173 24.5742 192.686 24.3756 193.125 24.5659C193.564 24.7562 193.771 25.2692 193.581 25.7077L191.916 29.58C191.775 29.911 191.452 30.1096 191.113 30.1096H191.121ZM194.451 22.3733C194.335 22.3733 194.219 22.3485 194.103 22.2988C193.664 22.1085 193.457 21.5955 193.647 21.157L195.312 17.2847C195.502 16.8462 196.016 16.6393 196.455 16.8296C196.894 17.0199 197.101 17.5329 196.91 17.9715L195.246 21.8437C195.105 22.1747 194.782 22.3733 194.442 22.3733H194.451Z" fill="white"/>
<path d="M171.949 74.6652C171.833 74.6652 171.717 74.6404 171.601 74.5907C171.162 74.4004 170.955 73.8874 171.145 73.4489L172.006 71.4466C172.197 70.9998 172.71 70.8012 173.149 70.9915C173.588 71.1818 173.795 71.6948 173.605 72.1333L172.744 74.1356C172.603 74.4666 172.28 74.6652 171.94 74.6652H171.949Z" fill="white"/>
<g opacity="0.5">
<path d="M192.76 143.125C192.528 143.125 192.296 143.001 192.181 142.778L186.499 132.071C186.333 131.748 186.449 131.36 186.772 131.186C187.095 131.02 187.485 131.136 187.658 131.459L193.34 142.166C193.506 142.488 193.39 142.877 193.067 143.051C192.967 143.101 192.868 143.125 192.76 143.125Z" fill="white"/>
<path d="M196.165 136.887C195.825 136.887 195.544 136.63 195.51 136.283L194.666 125.377C194.641 125.013 194.906 124.699 195.27 124.674C195.626 124.649 195.949 124.914 195.974 125.278L196.819 136.183C196.844 136.547 196.579 136.862 196.214 136.887C196.198 136.887 196.181 136.887 196.165 136.887Z" fill="white"/>
<path d="M201.746 140.883C201.746 140.883 201.68 140.883 201.639 140.875C201.283 140.817 201.042 140.478 201.1 140.122L202.691 130.309C202.749 129.953 203.08 129.713 203.444 129.771C203.8 129.829 204.041 130.168 203.983 130.524L202.392 140.337C202.343 140.66 202.061 140.883 201.746 140.883Z" fill="white"/>
<path d="M206.857 143.754C206.775 143.754 206.692 143.737 206.617 143.704C206.286 143.572 206.12 143.191 206.253 142.852L211.885 128.836C212.017 128.496 212.398 128.339 212.738 128.472C213.069 128.604 213.235 128.985 213.102 129.324L207.47 143.34C207.371 143.597 207.122 143.754 206.866 143.754H206.857Z" fill="white"/>
</g>
<g opacity="0.5">
<path d="M186.21 191.876C186.11 191.876 186.002 191.852 185.903 191.802C185.58 191.636 185.464 191.239 185.63 190.917L191.311 180.21C191.477 179.887 191.875 179.771 192.198 179.937C192.521 180.102 192.637 180.499 192.471 180.822L186.789 191.529C186.673 191.752 186.441 191.876 186.21 191.876Z" fill="white"/>
<path d="M194.451 198.322C194.451 198.322 194.418 198.322 194.401 198.322C194.037 198.297 193.772 197.982 193.797 197.618L194.641 186.713C194.666 186.349 194.989 186.084 195.345 186.109C195.71 186.134 195.975 186.448 195.95 186.812L195.105 197.718C195.08 198.057 194.79 198.322 194.451 198.322Z" fill="white"/>
<path d="M202.467 193.233C202.153 193.233 201.871 193.001 201.821 192.687L200.231 182.874C200.173 182.518 200.414 182.179 200.77 182.121C201.126 182.063 201.465 182.303 201.523 182.659L203.114 192.472C203.171 192.828 202.931 193.167 202.575 193.225C202.542 193.225 202.501 193.233 202.467 193.233Z" fill="white"/>
<path d="M211.619 194.565C211.363 194.565 211.114 194.408 211.015 194.152L205.383 180.135C205.25 179.796 205.408 179.415 205.747 179.283C206.078 179.151 206.468 179.308 206.6 179.647L212.232 193.663C212.365 194.003 212.207 194.383 211.868 194.516C211.785 194.549 211.702 194.565 211.628 194.565H211.619Z" fill="white"/>
</g>
<path d="M56.7009 28.7109L61.662 16.2998L66.623 28.7109L78.715 33.3279L66.8301 37.1422L61.662 50.3642L56.4939 37.1422L44.6172 33.3279L56.7009 28.7109Z" fill="#FB7D78"/>
<path d="M9.76472 81.9052L13.7733 71.8853L17.7819 81.9052L27.5383 85.6368L17.9475 88.7148L13.7733 99.3966L9.59908 88.7148L0 85.6368L9.76472 81.9052Z" fill="#FB7D78"/>
<path d="M26.1468 6.87576L28.4079 1.20801L30.6772 6.87576L36.1931 8.98565L30.7683 10.7232L28.4079 16.755L26.0557 10.7232L20.6309 8.98565L26.1468 6.87576Z" fill="#FB7D78"/>
<path d="M330.933 31.2097L335.505 42.6279L340.068 31.2097L351.191 26.9568L340.259 23.4486L335.505 11.2856L330.751 23.4486L319.818 26.9568L330.933 31.2097Z" fill="#A2B8E9"/>
<path d="M373.703 11.7326L375.848 17.0777L377.985 11.7326L383.195 9.73853L378.068 8.10026L375.848 2.39941L373.62 8.10026L368.502 9.73853L373.703 11.7326Z" fill="#A2B8E9"/>
<path d="M388.013 72.2742L391.848 81.8473L395.674 72.2742L405 68.7081L395.832 65.7625L391.848 55.5605L387.856 65.7625L378.688 68.7081L388.013 72.2742Z" fill="#A2B8E9"/>
<path d="M213.491 70.4619H165.785V87.912H213.491V70.4619Z" fill="#FB7D78"/>
<path d="M227.844 70.4619H180.139V87.912H227.844V70.4619Z" fill="#F15761"/>
<path d="M212.208 88.1269H180.139C180.015 88.1269 179.924 88.0276 179.924 87.9117V77.263C179.924 77.1389 180.023 77.0479 180.139 77.0479C180.255 77.0479 180.354 77.1471 180.354 77.263V87.6966H212.208C212.332 87.6966 212.423 87.7959 212.423 87.9117C212.423 88.0276 212.324 88.1269 212.208 88.1269Z" fill="#261718"/>
<path d="M213.491 95.4663H165.785V112.916H213.491V95.4663Z" fill="#A2B8E9"/>
<path d="M227.844 95.4663H180.139V112.916H227.844V95.4663Z" fill="#587DCB"/>
<path d="M212.208 113.131H180.139C180.015 113.131 179.924 113.032 179.924 112.916V102.267C179.924 102.143 180.023 102.052 180.139 102.052C180.255 102.052 180.354 102.152 180.354 102.267V112.701H212.208C212.332 112.701 212.423 112.8 212.423 112.916C212.423 113.032 212.324 113.131 212.208 113.131Z" fill="#261718"/>
</g>
<defs>
<clipPath id="clip0_1372_2292">
<rect width="405" height="277" fill="white"/>
</clipPath>
</defs>
</svg>
