<svg width="68" height="68" viewBox="0 0 68 68" fill="none" xmlns="http://www.w3.org/2000/svg">
<path d="M37.3992 65.6905L37.3993 65.6905C38.3018 64.7874 38.8089 63.563 38.8089 62.2866V56.0016V56.0015C38.8036 51.3929 36.9703 46.9747 33.7114 43.716C30.4526 40.4571 26.0345 38.6238 21.426 38.6185H21.4259L18.2831 38.6185L18.283 38.6185C13.6744 38.6238 9.25623 40.4571 5.9975 43.716C2.73864 46.9749 0.905283 51.3929 0.9 56.0015V56.0016V62.2866C0.9 63.5631 1.40715 64.7875 2.30969 65.6905L2.30973 65.6905C3.2128 66.5931 4.43717 67.1002 5.71362 67.1002H33.9953C35.2718 67.1002 36.4962 66.5931 37.3992 65.6905ZM4.24223 56.0017C4.24693 52.2794 5.72777 48.7107 8.35998 46.0785C10.9922 43.4463 14.5609 41.9654 18.2832 41.9607H21.4257C25.1481 41.9654 28.7167 43.4463 31.349 46.0785C33.9812 48.7107 35.462 52.2794 35.4667 56.0017V62.2866C35.4667 62.6767 35.3115 63.0511 35.0357 63.3269C34.7598 63.6028 34.3854 63.758 33.9953 63.758H5.71362C4.90135 63.758 4.24223 63.0989 4.24223 62.2866V56.0017Z" fill="white" stroke="white" stroke-width="0.2"/>
<path d="M66.9174 20.2484C66.1911 14.4521 63.1981 9.17721 58.5905 5.57951C53.9489 1.95585 48.0528 0.334429 42.2112 1.07594C36.4002 1.81357 31.1203 4.82805 27.5322 9.45522C23.2963 6.72898 17.9326 6.4418 13.4285 8.70656C8.89616 10.9847 5.9182 15.5018 5.60992 20.565L5.70974 20.5711L5.60992 20.565C5.30212 25.6282 7.71051 30.4732 11.933 33.2842C16.1296 36.0781 21.4884 36.4437 26.0222 34.2512C29.3603 39.9578 35.0987 43.854 41.6382 44.8488L41.6384 44.8488C42.7538 45.0163 43.8797 45.1008 45.0078 45.1014C45.0078 45.1014 45.0079 45.1014 45.0079 45.1014L45.008 45.0014C48.4995 45.0072 51.941 44.1686 55.0381 42.5562M66.9174 20.2484L58.5996 43.6524M66.9174 20.2484L66.9182 20.2481L66.9341 20.378C67.5323 25.2787 66.4552 30.2378 63.8786 34.4484L64.6327 38.0234L64.6327 38.0236C64.9777 39.6702 64.4388 41.3774 63.2124 42.5286L63.1439 42.4557L66.9174 20.2484ZM55.0381 42.5562L55.0113 42.6525L55.0493 42.6631C55.061 42.6571 55.0726 42.651 55.0843 42.6449L55.0381 42.5562ZM55.0381 42.5562L58.6517 43.5631M58.6517 43.5631L58.581 43.6338L58.5815 43.6344L58.5996 43.6524M58.6517 43.5631L58.6513 43.5646L58.6249 43.6595L58.5996 43.6524M58.6517 43.5631L58.5996 43.6524M60.9962 32.7621L60.9988 32.764L60.9962 32.7624C60.5768 33.4666 60.4341 34.302 60.5958 35.1054L60.596 35.1065L61.3625 38.706L61.3708 38.7447C61.4628 39.241 61.2942 39.7514 60.9217 40.0952L60.9206 40.0963C60.5475 40.4511 60.0144 40.5821 59.5199 40.4403L59.5191 40.4401L55.9229 39.439L55.9097 39.4353H55.9095C55.1228 39.2133 54.2802 39.3023 53.5571 39.6855C49.2842 41.8893 44.3264 42.3602 39.7144 40.9997C35.1306 39.6479 31.2407 36.59 28.8442 32.4575C31.9312 29.9523 33.8277 26.2661 34.0691 22.2947C34.3105 18.3241 32.8752 14.4354 30.1146 11.5743C34.0411 6.48272 40.3052 3.75573 46.7107 4.35493L46.72 4.25537L46.7107 4.35494C53.1455 4.95619 58.8174 8.82855 61.721 14.6024L61.8103 14.5575L61.721 14.6024C64.6247 20.3758 64.3505 27.2381 60.9962 32.7621ZM8.95655 21.4351C8.95658 18.5446 10.105 15.7723 12.1489 13.7284C14.1929 11.685 16.9646 10.5366 19.8552 10.5366C22.7457 10.5366 25.5175 11.685 27.5614 13.7284C29.6053 15.7724 30.7538 18.5447 30.7538 21.4352C30.7538 24.3252 29.6054 27.0975 27.5614 29.1414C25.5175 31.1853 22.7458 32.3332 19.8553 32.3333C16.9658 32.3301 14.1956 31.1807 12.1526 29.1378L12.0819 29.2085L12.1526 29.1378C10.1092 27.0948 8.96015 24.3247 8.95655 21.4351Z" fill="white" stroke="white" stroke-width="0.2"/>
<path d="M47.3503 31.6478C47.3503 32.9493 46.295 34.0046 44.9935 34.0046C43.6915 34.0046 42.6367 32.9493 42.6367 31.6478C42.6367 30.3463 43.6915 29.291 44.9935 29.291C46.295 29.291 47.3503 30.3463 47.3503 31.6478Z" fill="white"/>
<path d="M46.1204 10.5349C44.286 10.2008 42.3979 10.6985 40.9669 11.8932C39.5355 13.0879 38.708 14.856 38.709 16.721C38.709 17.5885 39.4124 18.2919 40.2804 18.2919C41.1479 18.2919 41.8512 17.5885 41.8512 16.721C41.8507 15.7851 42.2668 14.8971 42.9875 14.2996C43.7077 13.7019 44.6568 13.4568 45.5769 13.6304C46.4713 13.7977 47.2499 14.3448 47.7102 15.1303C48.1705 15.9152 48.2673 16.8615 47.9764 17.7238C47.6855 18.5866 47.0347 19.2805 46.1925 19.6261C45.3576 19.9859 44.6479 20.5857 44.1544 21.3501C43.6615 22.1139 43.4064 23.0078 43.4227 23.9172V26.1483C43.4227 27.0158 44.126 27.7191 44.9941 27.7191C45.8616 27.7191 46.5649 27.0157 46.5649 26.1483V23.9172C46.5412 23.3317 46.8663 22.7872 47.3929 22.531C49.08 21.8372 50.382 20.4441 50.9607 18.7144C51.5399 16.9846 51.3385 15.0881 50.4099 13.5183C49.4809 11.9486 47.9154 10.8601 46.1203 10.535L46.1204 10.5349Z" fill="white"/>
</svg>
