<svg width="24" height="24" viewBox="0 0 24 24" fill="none" xmlns="http://www.w3.org/2000/svg">
<path d="M15.1982 6.54368C15.1982 6.45813 15.1642 6.37608 15.1037 6.31558C15.0432 6.25509 14.9612 6.2211 14.8756 6.2211H13.2627C12.4506 6.18064 11.6554 6.46329 11.0509 7.00728C10.4465 7.55127 10.0819 8.31239 10.0369 9.12433V10.8663H8.42402C8.33847 10.8663 8.25642 10.9002 8.19592 10.9607C8.13543 11.0212 8.10144 11.1033 8.10144 11.1888V12.8663C8.10144 12.9518 8.13543 13.0339 8.19592 13.0944C8.25642 13.1549 8.33847 13.1888 8.42402 13.1888H10.0369L10.0369 17.5114C10.0369 17.597 10.0709 17.679 10.1314 17.7395C10.1919 17.8 10.274 17.834 10.3595 17.834H12.295C12.3805 17.834 12.4626 17.8 12.5231 17.7395C12.5836 17.679 12.6176 17.597 12.6176 17.5114L12.6176 13.1888H14.3079C14.3796 13.1899 14.4497 13.167 14.5069 13.1237C14.5642 13.0805 14.6054 13.0194 14.624 12.9501L15.0885 11.2727C15.1014 11.225 15.1031 11.1751 15.0936 11.1266C15.0841 11.0782 15.0636 11.0326 15.0336 10.9933C15.0037 10.9541 14.9652 10.9222 14.921 10.9002C14.8769 10.8781 14.8282 10.8665 14.7789 10.8663H12.6176V9.12433C12.6336 8.96463 12.7086 8.81666 12.8279 8.70929C12.9472 8.60192 13.1022 8.54288 13.2627 8.54368H14.8756C14.9612 8.54368 15.0432 8.50969 15.1037 8.4492C15.1642 8.3887 15.1982 8.30665 15.1982 8.2211V6.54368Z" fill="white"/>
<circle cx="12" cy="12" r="11.5" stroke="white"/>
</svg>
