<svg width="75" height="66" viewBox="0 0 75 66" fill="none" xmlns="http://www.w3.org/2000/svg">
<path d="M15.499 4.15634C16.5123 3.3768 16.6678 1.89661 15.8888 0.883226C15.1093 -0.130046 13.6291 -0.285518 12.6157 0.49346C6.84865 5.09126 2.5623 11.1699 0.146437 18.028C-0.321067 19.275 0.380189 20.5997 1.54892 20.9895C1.78267 21.0672 2.0947 21.1455 2.32845 21.1455C3.26346 21.1455 4.19894 20.522 4.51053 19.587C6.61481 13.5078 10.4332 8.2088 15.499 4.15665L15.499 4.15634Z" fill="white"/>
<path d="M73.8701 18.0275C71.4544 11.1694 67.0902 5.09076 61.4008 0.492966C60.3876 -0.286568 58.9068 -0.130552 58.1277 0.882733C57.3482 1.89601 57.5042 3.37681 58.5175 4.15584C63.5827 8.2084 67.4016 13.5074 69.5059 19.5862C69.8174 20.5212 70.753 21.1447 71.688 21.1447C71.9218 21.1447 72.2338 21.067 72.4675 20.9887C73.7146 20.5995 74.3376 19.2747 73.87 18.0277L73.8701 18.0275Z" fill="white"/>
<path d="M66.3093 31.12C66.3093 14.9882 53.1394 1.81787 37.0072 1.81787C20.875 1.81787 7.70508 14.9884 7.70508 31.12C7.70508 39.3029 11.1342 46.7841 16.5892 52.0835L10.8222 62.5261C10.1987 63.6171 10.5884 65.0978 11.7572 65.6431C12.147 65.8768 12.5367 65.9546 12.8482 65.9546C13.7055 65.9546 14.485 65.487 14.8743 64.7858L20.1733 55.1222C24.9271 58.473 30.6943 60.4212 36.9285 60.4212C43.1631 60.4212 48.9296 58.473 53.6837 55.1222L58.9827 64.7858C59.6063 65.8768 61.0088 66.3443 62.0997 65.7208C63.1907 65.0973 63.6582 63.6947 63.0347 62.6038L57.2677 52.1612C62.8809 46.7844 66.3095 39.3028 66.3095 31.1198L66.3093 31.12ZM12.3809 31.12C12.3809 17.5602 23.4472 6.49374 37.0072 6.49374C50.5672 6.49374 61.6334 17.56 61.6334 31.12C61.6334 44.6797 50.5672 55.7462 37.0072 55.7462C23.4472 55.7462 12.3809 44.68 12.3809 31.12Z" fill="white"/>
<path d="M44.4107 29.1716H39.0333V22.4695C39.0333 21.3785 38.176 20.5212 37.085 20.5212C35.994 20.5212 35.1367 21.3785 35.1367 22.4695V31.1199C35.1367 32.2109 35.994 33.0682 37.085 33.0682H44.4883C45.5793 33.0682 46.4366 32.2109 46.4366 31.1199C46.3589 30.0289 45.5016 29.1716 44.4105 29.1716H44.4107Z" fill="white"/>
<path d="M37.0088 16.6246C38.0998 16.6246 38.9571 15.7674 38.9571 14.6763V12.8841C38.9571 11.7931 38.0998 10.9358 37.0088 10.9358C35.9178 10.9358 35.0605 11.7931 35.0605 12.8841V14.6763C35.0605 15.7674 35.9178 16.6246 37.0088 16.6246Z" fill="white"/>
<path d="M25.4761 16.7805C24.6966 16.0009 23.45 16.0009 22.6706 16.7805C21.8911 17.56 21.8911 18.8065 22.6706 19.586L23.9953 20.9107C24.3851 21.3005 24.8526 21.4565 25.3978 21.4565C25.8653 21.4565 26.4111 21.3005 26.8003 20.9107C27.5798 20.1312 27.5798 18.8847 26.8003 18.1052L25.4761 16.7805Z" fill="white"/>
<path d="M20.4866 29.1716H18.6944C17.6034 29.1716 16.7461 30.0289 16.7461 31.1199C16.7461 32.2109 17.6034 33.0682 18.6944 33.0682H20.4866C21.5777 33.0682 22.4349 32.2109 22.4349 31.1199C22.5127 30.0289 21.5777 29.1716 20.4866 29.1716Z" fill="white"/>
<path d="M23.9954 41.4067L22.6706 42.7314C21.8911 43.511 21.8911 44.7575 22.6706 45.5369C23.0604 45.9267 23.5279 46.0827 24.0731 46.0827C24.5406 46.0827 25.0863 45.9267 25.4756 45.5369L26.8003 44.2122C27.5798 43.4327 27.5798 42.1861 26.8003 41.4067C25.9436 40.6271 24.6966 40.6271 23.9954 41.4067Z" fill="white"/>
<path d="M37.0088 45.615C35.9178 45.615 35.0605 46.4723 35.0605 47.5633V49.3555C35.0605 50.4466 35.9178 51.3038 37.0088 51.3038C38.0998 51.3038 38.9571 50.4466 38.9571 49.3555V47.5633C38.9571 46.5505 38.0998 45.615 37.0088 45.615Z" fill="white"/>
<path d="M50.023 41.4067C49.2435 40.6271 47.9969 40.6271 47.2175 41.4067C46.4379 42.1862 46.4379 43.4327 47.2175 44.2122L48.5422 45.5369C48.932 45.9267 49.3995 46.0827 49.9447 46.0827C50.4122 46.0827 50.958 45.9267 51.3472 45.5369C52.1267 44.7574 52.1267 43.5109 51.3472 42.7314L50.023 41.4067Z" fill="white"/>
<path d="M57.2709 31.1199C57.2709 30.0289 56.4136 29.1716 55.3226 29.1716H53.5303C52.4393 29.1716 51.582 30.0289 51.582 31.1199C51.582 32.2109 52.4393 33.0682 53.5303 33.0682H55.3226C56.4136 33.0682 57.2709 32.2109 57.2709 31.1199Z" fill="white"/>
<path d="M48.6986 21.4565C49.1661 21.4565 49.7119 21.3005 50.1011 20.9107L51.4259 19.586C52.2054 18.8064 52.2054 17.5599 51.4259 16.7805C50.6463 16.0009 49.3998 16.0009 48.6203 16.7805L47.2956 18.1052C46.5161 18.8847 46.5161 20.1313 47.2956 20.9107C47.6854 21.2228 48.1529 21.4565 48.6986 21.4565Z" fill="white"/>
</svg>
