<svg width="482" height="271" viewBox="0 0 482 271" fill="none" xmlns="http://www.w3.org/2000/svg">
<g clip-path="url(#clip0_1352_450)">
<path d="M332.224 185.966C359.675 213.4 404.184 213.4 431.642 185.966C459.092 158.532 459.092 114.048 431.642 86.6059C404.192 59.1641 359.682 59.1715 332.224 86.6059C304.774 114.04 304.774 158.524 332.224 185.966ZM419.095 99.1458C439.618 119.657 439.618 152.922 419.095 173.433C398.572 193.945 365.287 193.945 344.764 173.433C324.241 152.922 324.241 119.657 344.764 99.1458C365.287 78.6346 398.572 78.6346 419.095 99.1458Z" fill="#02AFAE"/>
<path d="M425.637 100.725C423.554 100.725 421.479 99.9356 419.891 98.3487C416.716 95.175 416.716 90.038 419.891 86.8643L453.287 53.4884C456.462 50.322 461.602 50.3146 464.778 53.4884C467.953 56.6621 467.953 61.7991 464.778 64.9729L431.383 98.3487C429.795 99.9356 427.72 100.725 425.637 100.725Z" fill="#02AFAE"/>
<path d="M461.818 86.1928C459.736 86.1928 457.66 85.403 456.073 83.8162L434.434 62.1905C431.259 59.0167 431.259 53.8797 434.434 50.706C437.61 47.5323 442.75 47.5323 445.926 50.706L467.564 72.3317C470.739 75.5054 470.739 80.6424 467.564 83.8162C465.976 85.403 463.901 86.1928 461.818 86.1928Z" fill="#02AFAE"/>
<path d="M24.9609 139.719C24.9609 178.519 56.436 209.976 95.2592 209.976C134.082 209.976 165.557 178.519 165.557 139.719C165.557 100.918 134.082 69.4609 95.2592 69.4609C56.436 69.4609 24.9609 100.918 24.9609 139.719ZM147.819 139.719C147.819 168.732 124.29 192.248 95.2592 192.248C66.2286 192.248 42.6998 168.732 42.6998 139.719C42.6998 110.705 66.2286 87.1896 95.2592 87.1896C124.29 87.1896 147.819 110.705 147.819 139.719Z" fill="#FF7C00"/>
<path d="M11.3671 51.7117L2 62.1528L46.7743 102.275L56.1414 91.834L11.3671 51.7117Z" fill="#FF7C00"/>
<path d="M4.80012 77.1588C4.73365 77.1588 4.66718 77.1588 4.60072 77.1588C1.94949 77.0481 -0.103557 74.8118 -0.000166683 72.1694L0.649718 56.4336C0.753108 53.9242 2.6363 51.8575 5.11767 51.5106L21.675 49.1783C24.304 48.8093 26.7263 50.6323 27.0956 53.2599C27.4648 55.8801 25.6407 58.3083 23.0116 58.6774L10.0878 60.5004L9.58563 72.568C9.48224 75.1513 7.35534 77.1662 4.79273 77.1662L4.80012 77.1588Z" fill="#FF7C00"/>
<path d="M203.355 67.0103H249.697V77.6902H203.355V67.0103ZM203.355 84.8348H249.697V95.5074H203.355V84.8348Z" fill="#8367B5"/>
<g opacity="0.74">
<path opacity="0.74" d="M67.4266 36.306C67.4266 38.2324 65.8683 39.7897 63.9408 39.7897C62.0133 39.7897 60.4551 38.2324 60.4551 36.306C60.4551 34.3796 62.0133 32.8223 63.9408 32.8223C65.8683 32.8223 67.4266 34.3796 67.4266 36.306Z" fill="#8366B4"/>
<path opacity="0.74" d="M239.46 112.343C239.46 113.302 238.678 114.085 237.717 114.085C236.757 114.085 235.975 113.302 235.975 112.343C235.975 111.383 236.757 110.601 237.717 110.601C238.678 110.601 239.46 111.383 239.46 112.343Z" fill="#8366B4"/>
<path opacity="0.74" d="M222.807 14.6361C222.807 16.5625 221.249 18.1198 219.322 18.1198C217.394 18.1198 215.836 16.5625 215.836 14.6361C215.836 12.7097 217.394 11.1523 219.322 11.1523C221.249 11.1523 222.807 12.7097 222.807 14.6361Z" fill="#8366B4"/>
<path opacity="0.74" d="M59.6785 128.795C60.6777 128.795 61.4878 127.985 61.4878 126.987C61.4878 125.988 60.6777 125.178 59.6785 125.178C58.6792 125.178 57.8691 125.988 57.8691 126.987C57.8691 127.985 58.6792 128.795 59.6785 128.795Z" fill="#8366B4"/>
<path opacity="0.74" d="M381.94 15.5438C381.94 17.4702 380.382 19.0275 378.455 19.0275C376.527 19.0275 374.969 17.4702 374.969 15.5438C374.969 13.6174 376.527 12.0601 378.455 12.0601C380.382 12.0601 381.94 13.6174 381.94 15.5438Z" fill="#8366B4"/>
<path opacity="0.74" d="M424.788 137.305C424.788 139.231 423.23 140.788 421.302 140.788C419.375 140.788 417.816 139.231 417.816 137.305C417.816 135.378 419.375 133.821 421.302 133.821C423.23 133.821 424.788 135.378 424.788 137.305Z" fill="#8366B4"/>
<path opacity="0.74" d="M91.1016 8.70926C91.9214 8.70926 92.586 8.04506 92.586 7.22572C92.586 6.40639 91.9214 5.74219 91.1016 5.74219C90.2818 5.74219 89.6172 6.40639 89.6172 7.22572C89.6172 8.04506 90.2818 8.70926 91.1016 8.70926Z" fill="#8366B4"/>
<path opacity="0.74" d="M21.0918 176.002C21.0918 176.821 20.4272 177.486 19.6074 177.486C18.7877 177.486 18.123 176.821 18.123 176.002C18.123 175.183 18.7877 174.519 19.6074 174.519C20.4272 174.519 21.0918 175.183 21.0918 176.002Z" fill="#8366B4"/>
<path opacity="0.74" d="M272.627 34.114C273.447 34.114 274.111 33.4498 274.111 32.6305C274.111 31.8112 273.447 31.147 272.627 31.147C271.807 31.147 271.143 31.8112 271.143 32.6305C271.143 33.4498 271.807 34.114 272.627 34.114Z" fill="#8366B4"/>
<path opacity="0.74" d="M415.106 53.2081C415.106 54.0274 414.441 54.6917 413.621 54.6917C412.801 54.6917 412.137 54.0274 412.137 53.2081C412.137 52.3889 412.801 51.7246 413.621 51.7246C414.441 51.7246 415.106 52.3889 415.106 53.2081Z" fill="#8366B4"/>
<path opacity="0.74" d="M13.9278 24.8288C13.9278 25.648 13.2631 26.3123 12.4434 26.3123C11.6236 26.3123 10.959 25.648 10.959 24.8288C10.959 24.0095 11.6236 23.3452 12.4434 23.3452C13.2631 23.3452 13.9278 24.0095 13.9278 24.8288Z" fill="#8366B4"/>
<path opacity="0.74" d="M479.57 33.5384C480.39 33.5384 481.055 32.8742 481.055 32.0548C481.055 31.2355 480.39 30.5713 479.57 30.5713C478.751 30.5713 478.086 31.2355 478.086 32.0548C478.086 32.8742 478.751 33.5384 479.57 33.5384Z" fill="#8366B4"/>
<path opacity="0.74" d="M98.7828 46.499C98.7828 47.2371 98.1846 47.8349 97.4461 47.8349C96.7076 47.8349 96.1094 47.2371 96.1094 46.499C96.1094 45.7609 96.7076 45.1631 97.4461 45.1631C98.1846 45.1631 98.7828 45.7609 98.7828 46.499Z" fill="#8366B4"/>
<path opacity="0.74" d="M101.839 103.767C101.839 104.505 101.241 105.103 100.503 105.103C99.7642 105.103 99.166 104.505 99.166 103.767C99.166 103.029 99.7642 102.431 100.503 102.431C101.241 102.431 101.839 103.029 101.839 103.767Z" fill="#8366B4"/>
<path opacity="0.74" d="M214.595 47.5322C214.595 48.2703 213.997 48.8681 213.259 48.8681C212.52 48.8681 211.922 48.2703 211.922 47.5322C211.922 46.7941 212.52 46.1963 213.259 46.1963C213.997 46.1963 214.595 46.7941 214.595 47.5322Z" fill="#8366B4"/>
<path opacity="0.74" d="M208.398 108.711C208.398 109.449 207.8 110.047 207.061 110.047C206.323 110.047 205.725 109.449 205.725 108.711C205.725 107.973 206.323 107.375 207.061 107.375C207.8 107.375 208.398 107.973 208.398 108.711Z" fill="#8366B4"/>
<path opacity="0.74" d="M46.2156 3.97848C46.9538 3.97848 47.5523 3.38037 47.5523 2.64256C47.5523 1.90475 46.9538 1.30664 46.2156 1.30664C45.4774 1.30664 44.8789 1.90475 44.8789 2.64256C44.8789 3.38037 45.4774 3.97848 46.2156 3.97848Z" fill="#3151AD"/>
<path opacity="0.74" d="M482 72.5971C482 73.3352 481.401 73.9331 480.663 73.9331C479.924 73.9331 479.326 73.3352 479.326 72.5971C479.326 71.8591 479.924 71.2612 480.663 71.2612C481.401 71.2612 482 71.8591 482 72.5971Z" fill="#8366B4"/>
<path opacity="0.74" d="M376.173 48.8608C376.173 49.5989 375.575 50.1967 374.837 50.1967C374.098 50.1967 373.5 49.5989 373.5 48.8608C373.5 48.1227 374.098 47.5249 374.837 47.5249C375.575 47.5249 376.173 48.1227 376.173 48.8608Z" fill="#8366B4"/>
<path opacity="0.74" d="M406.119 154.627C406.119 155.366 405.521 155.963 404.782 155.963C404.043 155.963 403.445 155.366 403.445 154.627C403.445 153.889 404.043 153.292 404.782 153.292C405.521 153.292 406.119 153.889 406.119 154.627Z" fill="#8366B4"/>
<path opacity="0.74" d="M338.486 3.67576C338.486 4.41384 337.888 5.01168 337.149 5.01168C336.411 5.01168 335.812 4.41384 335.812 3.67576C335.812 2.93769 336.411 2.33984 337.149 2.33984C337.888 2.33984 338.486 2.93769 338.486 3.67576Z" fill="#8366B4"/>
<path opacity="0.74" d="M49.6122 65.5264C49.6122 65.8438 49.3537 66.1095 49.0287 66.1095C48.7038 66.1095 48.4453 65.8512 48.4453 65.5264C48.4453 65.2017 48.7038 64.9434 49.0287 64.9434C49.3537 64.9434 49.6122 65.2017 49.6122 65.5264Z" fill="#3151AD"/>
<path opacity="0.74" d="M125.435 1.16616C125.757 1.16616 126.018 0.905108 126.018 0.583081C126.018 0.261054 125.757 0 125.435 0C125.113 0 124.852 0.261054 124.852 0.583081C124.852 0.905108 125.113 1.16616 125.435 1.16616Z" fill="#3151AD"/>
<path opacity="0.74" d="M244.815 39.3394C244.815 39.6568 244.557 39.9225 244.232 39.9225C243.907 39.9225 243.648 39.6642 243.648 39.3394C243.648 39.0147 243.907 38.7563 244.232 38.7563C244.557 38.7563 244.815 39.0147 244.815 39.3394Z" fill="#8366B4"/>
<path opacity="0.74" d="M383.682 116.602C383.682 116.919 383.424 117.185 383.099 117.185C382.774 117.185 382.516 116.926 382.516 116.602C382.516 116.277 382.774 116.019 383.099 116.019C383.424 116.019 383.682 116.277 383.682 116.602Z" fill="#3151AD"/>
<path opacity="0.74" d="M420.786 21.7364C420.786 22.0538 420.527 22.3195 420.203 22.3195C419.878 22.3195 419.619 22.0612 419.619 21.7364C419.619 21.4116 419.878 21.1533 420.203 21.1533C420.527 21.1533 420.786 21.4116 420.786 21.7364Z" fill="#3151AD"/>
<path opacity="0.74" d="M413.105 107.966C413.427 107.966 413.688 107.705 413.688 107.383C413.688 107.061 413.427 106.8 413.105 106.8C412.783 106.8 412.521 107.061 412.521 107.383C412.521 107.705 412.783 107.966 413.105 107.966Z" fill="#3151AD"/>
<path opacity="0.74" d="M13.1308 98.9763C13.1308 99.6258 12.5991 100.157 11.9492 100.157C11.2993 100.157 10.7676 99.6258 10.7676 98.9763C10.7676 98.3268 11.2993 97.7954 11.9492 97.7954C12.5991 97.7954 13.1308 98.3268 13.1308 98.9763Z" fill="#8366B4"/>
<path opacity="0.74" d="M467.098 113.723C467.75 113.723 468.279 113.194 468.279 112.542C468.279 111.89 467.75 111.361 467.098 111.361C466.445 111.361 465.916 111.89 465.916 112.542C465.916 113.194 466.445 113.723 467.098 113.723Z" fill="#8366B4"/>
</g>
<path d="M179.146 119.244H126.232V270.668H179.146V119.244Z" fill="#365060"/>
<path d="M179.479 16.9391C175.609 12.3999 170.248 9.18927 164.163 8.05263C161.401 5.52841 157.826 3.94154 154.045 3.43227C138.189 1.32136 133.773 11.8759 123.08 18.9171C108.206 28.7114 115.377 43.6796 120.709 48.8905L120.768 53.4075C120.879 61.5633 127.584 68.0879 135.752 67.9772L175.321 67.4384C181.37 67.3572 186.2 62.3899 186.118 56.3524L186.008 48.2336L191.953 37.155C194.759 27.8626 188.651 18.5038 179.472 16.9391H179.479Z" fill="#3A011F"/>
<path d="M195.674 64.3608C195.622 59.2828 191.457 55.2013 186.376 55.2529L182.868 55.2898L182.595 55.7991C182.595 55.7991 183.806 32.7416 175.047 28.4902C175.047 28.4902 171.111 40.9785 139.902 38.4617C135.139 38.0779 130.353 39.7459 127.03 43.178C126.166 44.0637 125.213 45.6948 124.556 47.1931V55.8729L121.196 55.9098C116.115 55.9615 112.031 60.1242 112.083 65.2022L112.105 67.3648C112.156 72.4428 116.322 76.5243 121.402 76.4727L125.139 76.4358L125.169 79.0781C125.25 86.9386 128.839 93.9208 134.415 98.6076V117.325C134.415 127.614 142.76 135.962 153.062 135.962H154.724C165.019 135.962 173.371 127.621 173.371 117.325V98.8586C179.301 94.0611 183.075 86.7172 182.994 78.5024L182.964 75.8601L186.583 75.8232C191.664 75.7715 195.748 71.6087 195.696 66.5308L195.674 64.3682V64.3608Z" fill="#FFAC79"/>
<path opacity="0.46" d="M164.198 107.744C169.798 101.924 169.617 92.6678 163.793 87.0706C157.969 81.4733 148.708 81.6542 143.107 87.4747C137.507 93.2952 137.688 102.551 143.512 108.148C149.336 113.746 158.597 113.565 164.198 107.744Z" fill="#F4544D"/>
<path d="M165.699 104.445L143.019 104.674C133.256 104.77 125.258 97.5002 125.169 88.4292L124.52 55.4519L130.989 67.9771C132.074 70.0806 134.253 71.3944 136.624 71.3722L170.72 71.0844C173.143 71.0622 175.343 69.6525 176.363 67.453L183.068 53.0015L183.223 87.8461C183.312 96.9171 175.469 104.35 165.706 104.445H165.699Z" fill="#3A011F"/>
<path d="M188.207 69.2101C188.377 69.2101 188.546 69.1363 188.665 69.0034C188.886 68.7525 188.857 68.3687 188.606 68.1472L186.567 66.3906L189.61 62.8478C189.824 62.5969 189.795 62.2131 189.543 61.9917C189.292 61.7776 188.908 61.7998 188.687 62.0581L184.861 66.5235L187.808 69.0625C187.926 69.1584 188.066 69.2101 188.207 69.2101Z" fill="#FF755F"/>
<path d="M120.324 69.5346C120.472 69.5346 120.612 69.483 120.73 69.3796L123.625 66.7816L119.711 62.3974C119.49 62.1465 119.106 62.1243 118.855 62.3457C118.603 62.5672 118.581 62.951 118.803 63.2019L121.912 66.6856L119.911 68.4792C119.66 68.7006 119.637 69.0844 119.866 69.3353C119.984 69.4682 120.154 69.5346 120.317 69.5346H120.324Z" fill="#FF755F"/>
<path d="M163.895 73.6974C163.895 73.6974 157.825 75.0111 152.108 75.0111C146.392 75.0111 148.468 81.8236 157.079 82.141C165.682 82.4584 168.644 73.4907 163.895 73.6974Z" fill="white"/>
<path d="M158.726 45.1854C159.553 44.558 160.772 44.3957 161.946 44.1595C163.135 43.9528 164.316 43.7092 165.335 43.4657C166.362 43.2221 167.529 42.8974 168.681 42.5505C169.833 42.2257 171.007 41.8271 172.012 42.0117C172.986 42.1814 173.607 43.1705 172.89 44.7499C172.233 46.2778 170.018 48.2927 166.628 49.1046C163.238 49.9017 160.38 49.1046 159.125 48.0344C157.803 46.942 157.921 45.7759 158.718 45.1854H158.726Z" fill="#3A011F"/>
<path d="M146.466 43.643C145.521 43.2149 144.288 43.3256 143.091 43.3625C141.888 43.4216 140.676 43.4585 139.628 43.4437C138.572 43.4363 137.361 43.3773 136.164 43.2961C134.968 43.237 133.734 43.1042 132.797 43.5175C131.888 43.9013 131.504 45.0084 132.56 46.3886C133.55 47.7319 136.164 49.2081 139.657 49.245C143.143 49.2671 145.743 47.8426 146.725 46.5215C147.766 45.1634 147.382 44.0415 146.466 43.6504V43.643Z" fill="#3A011F"/>
<path d="M147.524 59.2163C147.111 56.8766 145.663 53.4371 140.7 52.8762C139.881 52.7876 139.127 52.8171 138.418 52.9278C135.132 53.4519 132.983 55.9097 131.72 57.9984C130.782 59.541 131.764 61.5191 133.611 61.7995C138.677 62.5524 143.684 62.0283 146.128 61.6741C147.052 61.5412 147.716 60.7441 147.613 59.8584C147.591 59.6591 147.554 59.4377 147.517 59.2163H147.524Z" fill="white"/>
<path d="M145.161 58.7514C145.234 61.438 143.004 63.7187 140.183 63.8294C137.362 63.9475 135.014 61.8661 134.947 59.1721C134.873 56.4855 137.104 54.2049 139.925 54.0941C142.746 53.976 145.094 56.0574 145.161 58.7514Z" fill="#390028"/>
<path d="M158.416 59.0537C158.829 56.714 160.277 53.2745 165.239 52.7136C166.059 52.625 166.812 52.6545 167.521 52.7652C170.808 53.2893 172.957 55.7471 174.22 57.8358C175.158 59.3784 174.175 61.3565 172.329 61.6369C167.263 62.3898 162.256 61.8657 159.811 61.5115C158.888 61.3786 158.224 60.5815 158.327 59.6958C158.349 59.4965 158.386 59.2751 158.423 59.0537H158.416Z" fill="white"/>
<path d="M160.779 58.6035C160.705 61.2901 162.936 63.5707 165.757 63.6814C168.578 63.7995 170.926 61.7182 170.993 59.0242C171.066 56.3376 168.836 54.0569 166.015 53.9462C163.194 53.8281 160.846 55.9095 160.779 58.6035Z" fill="#390028"/>
<path d="M152.212 49.0825L148.497 64.6929C148.017 66.7004 149.539 68.6268 151.606 68.6268H157.972" fill="#FFAC79"/>
<path d="M157.972 69.3575H151.606C150.395 69.3575 149.273 68.8113 148.519 67.8666C147.766 66.9145 147.5 65.6967 147.781 64.5231L151.496 48.9128C151.592 48.5142 151.99 48.2706 152.382 48.3666C152.781 48.4625 153.024 48.8611 152.928 49.2523L149.214 64.8626C149.036 65.6007 149.214 66.3609 149.679 66.9514C150.144 67.5419 150.846 67.8814 151.606 67.8814H157.972C158.379 67.8814 158.711 68.2135 158.711 68.6194C158.711 69.0254 158.379 69.3575 157.972 69.3575Z" fill="#FF755F"/>
<path d="M160.527 140.958L167.107 124.204L133.66 120.314L141.163 140.737C141.902 142.752 143.12 144.316 144.597 145.431L137.109 197.31L150.365 222.25L162.838 198.351L156.613 145.829C158.282 144.737 159.678 143.113 160.527 140.951V140.958Z" fill="#141C34"/>
<path d="M128.72 106.874L127.096 118.757L136.283 134.345C137.139 135.792 139.155 135.984 140.271 134.721L150.846 122.669L133.07 105.375C131.556 103.899 129.008 104.778 128.728 106.874H128.72Z" fill="#F8F8EE"/>
<path d="M171.228 104.608L150.846 122.668L162.13 135.017C163.201 136.19 165.062 136.116 166.044 134.876L178.37 119.251L173.23 105.11C172.927 104.283 171.893 104.017 171.228 104.6V104.608Z" fill="#F8F8EE"/>
<path d="M241.676 180.696C245.465 160.377 235.679 140.036 217.645 130.19V129.813L174.923 109.767L178.364 119.259L174.819 123.857L174.598 233.048L174 232.886L163.653 230.118L120.872 218.663L108.435 248.179C107.711 249.972 108.605 252.002 110.407 252.696L129.911 260.173L158.07 270.963L158.129 270.985H222.719C224.912 267.716 226.507 263.937 227.268 259.767L241.684 180.689L241.676 180.696Z" fill="#02AFAE"/>
<path d="M128.913 270.978L129.91 260.187L110.406 252.711C108.605 252.017 107.718 249.987 108.435 248.194L120.871 218.678L163.653 230.133L163.763 214.825C163.778 212.958 162.117 211.519 160.27 211.799L130.546 216.287H130.494L130.546 165.352L130.582 125.038V124.721L127.097 118.779L128.537 108.417L96.3823 118.595C85.8143 122.049 77.639 130.492 74.5299 141.165L51.5698 219.933C45.3516 239.071 58.9548 258.911 79.0569 260.025L95.5478 258.704H95.6733L94.0043 271.022H128.913V271V270.978Z" fill="#02AFAE"/>
<path opacity="0.59" d="M106.219 161.123L107.549 160.731L106.906 165.492L96.434 218.671L91.8184 219.97L106.249 161.174L106.219 161.123Z" fill="#038C8B"/>
<path opacity="0.59" d="M114.674 218.67L108.744 216.39L130.501 213.836V216.286L114.674 218.67Z" fill="#038C8B"/>
<path opacity="0.59" d="M201.168 170.186L191.228 213.15H186.021C186.021 213.15 199.987 170.503 201.153 166.481L201.198 168.289L201.161 170.186H201.168Z" fill="#038C8B"/>
<path opacity="0.59" d="M163.792 234.008L118.027 218.169L124.076 217.253L163.792 231.742V234.008Z" fill="#038C8B"/>
<path opacity="0.59" d="M163.629 233.949C163.629 233.949 184.174 236.451 190.341 245.271C192.445 248.282 194.779 250.481 196.935 249.16C201.566 246.326 203.087 240.326 200.82 235.395C197.223 227.579 190.688 215.688 184.366 216.198C174.972 216.951 188.413 217.423 188.413 217.423L190.584 208.042L183.768 209.931C181.508 210.559 179.337 211.467 177.306 212.64L175.563 213.644L163.791 214.485L163.629 233.956V233.949Z" fill="#E55A5A"/>
<path d="M163.629 233.949C163.629 233.949 189.129 235.823 192.327 244.614C193.583 248.068 196.766 249.825 198.922 248.504C203.552 245.669 205.074 239.669 202.807 234.738C199.21 226.922 192.674 215.032 186.353 215.541C176.959 216.294 190.4 216.766 190.4 216.766L192.571 207.385L185.755 209.275C183.495 209.902 181.323 210.81 179.293 211.983L177.55 212.987L163.799 214.486L163.636 233.956L163.629 233.949Z" fill="#FFAC79"/>
<path opacity="0.57" d="M198.664 248.311C199.078 248.311 199.41 247.987 199.418 247.573C199.418 247.374 199.44 242.554 195.282 237.307C195.023 236.982 194.551 236.93 194.226 237.181C193.901 237.44 193.849 237.912 194.108 238.237C197.911 243.034 197.918 247.507 197.918 247.551C197.918 247.965 198.243 248.304 198.657 248.311H198.664Z" fill="#DC7536"/>
<path opacity="0.57" d="M202.637 244.038C203.05 244.038 203.383 243.713 203.39 243.3C203.39 243.101 203.412 238.274 199.255 233.033C198.996 232.708 198.523 232.657 198.199 232.908C197.874 233.166 197.822 233.638 198.08 233.963C201.884 238.761 201.884 243.233 201.884 243.278C201.884 243.691 202.209 244.031 202.622 244.038H202.63H202.637Z" fill="#DC7536"/>
<path opacity="0.59" d="M119.762 256.29L110.398 252.703C108.596 252.009 107.71 249.98 108.426 248.186L110.309 243.507L110.051 243.152C109.955 243.27 109.866 243.315 109.807 243.27C108.744 242.473 95.9603 216.124 83.7086 222.243C81.8032 223.195 80.8727 223.431 80.7028 223.187C78.827 224.863 78.9304 225.623 82.5269 223.829C93.383 218.405 104.653 238.473 107.821 243.669L105.915 248.555C105.251 250.267 106.019 252.201 107.68 252.983L115.546 256.696L95.5468 258.667L95.1775 262.328L121.579 259.988L129.555 264.04L129.909 260.172L119.762 256.283V256.29Z" fill="#037473"/>
<path d="M83.7077 222.243C95.9595 216.124 108.743 242.473 109.807 243.271C109.873 243.322 109.954 243.271 110.05 243.152C111.572 241.285 116.83 220.486 117.081 219.733C117.347 218.936 108.736 216.39 108.736 216.39C101.092 206.647 79.7789 221.888 80.6946 223.195C80.8645 223.438 81.7876 223.195 83.7003 222.25L83.7077 222.243Z" fill="#FFAC79"/>
<path d="M367.969 127.791C366.411 124.204 366.337 120.145 367.755 116.506C370.273 110.04 369.335 102.748 365.281 97.1239L363.479 94.6218C360.739 90.8207 359.461 86.1634 359.882 81.4988C359.919 81.0854 359.949 80.6721 359.964 80.2588C360.163 75.7049 359.004 71.4166 356.855 67.7262C356.663 57.3563 352.556 29.0067 313.253 30.1581C293.255 30.7412 285.05 42.8456 281.726 51.614C278.795 54.4039 276.557 57.9762 275.412 62.139C275.301 62.5376 275.205 62.9361 275.109 63.3421C274.076 67.9108 271.432 71.9554 267.651 74.7306L265.169 76.5537C259.579 80.6647 256.455 87.3222 256.861 94.2454C257.09 98.1498 255.768 101.988 253.191 104.918C248.479 110.269 249.306 118.491 254.978 122.809L270.885 134.899C278.566 140.737 289.673 135.917 290.655 126.33L290.936 123.613C291.312 119.945 293.535 116.727 296.829 115.074C301.629 111.952 304.576 106.807 304.76 101.109C304.93 95.943 305.152 74.5092 307.116 69.5567C307.567 68.4127 308.911 63.8218 310.152 59.4524C313.792 62.1833 319.338 64.7518 327.772 66.0065C327.595 70.8335 327.433 76.2806 327.521 77.6017C327.876 82.9159 321.502 103.383 320.07 108.35C318.497 113.827 319.715 119.628 323.326 124.071C325.956 126.654 327.078 130.404 326.31 134.006L325.741 136.67C323.733 146.095 332.831 154.089 341.929 150.893L360.776 144.272C367.504 141.91 370.812 134.338 367.976 127.798L367.969 127.791Z" fill="#3A011F"/>
<path d="M363.168 249.109C358.331 242.075 353.449 235.159 349.498 227.756L311.546 229.461L273.875 225.011L269.799 229.757L264.12 236.37L258.167 243.3C251.092 251.545 246.144 260.963 243.545 270.927H373.3C371.262 263.302 367.865 255.936 363.168 249.109Z" fill="#141C34"/>
<path d="M280.078 125.156L297.234 125.164L310.785 135.836L331.825 125.171L339.602 125.178L310.054 204.632L280.078 125.156Z" fill="#141C34"/>
<path d="M339.602 125.171H339.402C339.469 125.171 339.535 125.171 339.602 125.178V125.171Z" fill="#FFA698"/>
<path d="M398.402 184.682L392.317 176.733L364.771 139.918C356.293 130.271 352.231 125.481 339.602 125.178C339.536 125.178 339.469 125.178 339.403 125.171C339.314 125.171 339.233 125.164 339.145 125.164L328.015 153.129L327.816 153.639L311.96 193.458L307.167 193.185L299.169 173.102L291.223 153.137L280.086 125.171C279.983 125.171 279.88 125.171 279.776 125.171H279.702C258.551 125.54 241.034 141.733 238.774 162.754L236.507 183.9H236.418L236.19 186.823L233.391 222.656C233.73 238.732 249.202 249.744 264.991 246.009L315.018 236.849C315.756 236.717 316.354 236.289 316.738 235.728C322.72 235.204 328.643 233.964 334.381 231.978L344.129 228.605L344.942 228.716L367.57 231.735C373.234 232.487 379.053 231.956 384.319 229.749C403.446 221.726 407.353 198.373 398.41 184.69L398.402 184.682Z" fill="#FF7C00"/>
<path d="M300.108 187.258L274.954 160.496C274.541 160.06 274.4 159.455 274.57 158.879C274.74 158.303 275.183 157.875 275.767 157.728L283.093 155.868L265.863 140.796C265.184 140.206 264.903 139.328 265.117 138.449C265.332 137.571 265.974 136.914 266.853 136.693L278.787 133.674L278.964 134.39L267.03 137.401C266.425 137.556 265.981 138.006 265.834 138.612C265.686 139.217 265.878 139.822 266.351 140.235L284.636 156.229L275.951 158.436C275.626 158.518 275.375 158.761 275.279 159.086C275.183 159.411 275.264 159.743 275.493 159.986L300.647 186.749L300.108 187.258Z" fill="#141C34"/>
<path d="M319.898 187.996L319.359 187.487L344.513 160.724C344.742 160.481 344.823 160.141 344.727 159.824C344.631 159.499 344.38 159.263 344.055 159.174L335.37 156.967L353.656 140.973C354.121 140.56 354.32 139.955 354.172 139.349C354.025 138.744 353.582 138.294 352.976 138.139L341.042 135.128L341.219 134.412L353.153 137.43C354.032 137.652 354.675 138.309 354.889 139.187C355.103 140.065 354.822 140.944 354.143 141.534L336.914 156.606L344.24 158.466C344.823 158.613 345.266 159.049 345.436 159.617C345.606 160.193 345.458 160.798 345.045 161.233L319.891 187.996H319.898Z" fill="#141C34"/>
<path d="M295.661 220.059L294.82 214.213L294.332 214.073L293.49 219.594C293.49 221.985 295.307 223.978 297.685 224.207L344.934 228.709L298.091 222.457C296.836 222.288 295.846 221.313 295.669 220.059H295.661Z" fill="#141C34"/>
<path d="M264.924 173.183L262.871 199.975L286.407 193.539L265.7 196.58L264.924 173.183Z" fill="#141C34"/>
<path d="M338.414 194.964L311.953 193.451L313.039 190.72L338.414 194.964Z" fill="#141C34"/>
<path d="M291.828 193.082C291.828 191.023 294.479 189.436 297.47 189.709L306.118 190.55L307.167 193.178L291.836 193.082H291.828Z" fill="#141C34"/>
<path d="M351.434 177.058L367.88 196.233L364.52 196.455L351.84 180.586L351.434 177.058Z" fill="#141C34"/>
<path d="M365.059 196.403L357.297 187.318C353.937 186.07 350.569 185.952 347.918 188.188C344.181 189.015 341.345 191.709 340.156 195.06L363.5 196.396C364.025 196.352 364.542 196.359 365.059 196.403Z" fill="#FFAC79"/>
<path d="M261.343 211.268L261.121 210.81C260.405 209.327 261.018 207.541 262.502 206.825L265.678 205.282L263.337 206.419C262.044 207.046 260.449 206.603 259.748 205.356C258.788 203.644 259.43 201.489 261.143 200.588C263.027 199.599 265.626 198.448 268.329 197.924C271.815 197.252 278.077 195.628 281.858 194.632C284.008 194.063 286.186 193.658 288.402 193.414L291.814 193.045L295.344 217.328L275.758 219.601C273.942 220.479 271.748 219.712 270.884 217.874C270.648 217.365 270.884 216.752 271.394 216.508L272.295 216.073L269.946 217.21C268.292 218.014 266.298 217.32 265.493 215.667L265.323 215.32C264.733 214.102 265.242 212.634 266.461 212.036L269.703 210.464L265.242 212.626C263.787 213.335 262.03 212.722 261.328 211.268H261.343Z" fill="#FFAC79"/>
<path opacity="0.57" d="M267.066 205.386C267.376 205.223 267.494 204.84 267.347 204.53C267.192 204.205 266.8 204.072 266.475 204.234L262.244 206.301C261.919 206.419 261.786 206.847 261.948 207.172C262.103 207.497 262.495 207.63 262.82 207.467L267.051 205.401H267.073L267.066 205.386Z" fill="#FF755F"/>
<path opacity="0.57" d="M265.671 213.276H265.678L270.884 210.397C271.202 210.22 271.313 209.829 271.136 209.519C270.966 209.201 270.574 209.135 270.257 209.268L265.05 212.146C264.733 212.323 264.622 212.715 264.799 213.025C264.969 213.335 265.36 213.453 265.671 213.283V213.276Z" fill="#FF755F"/>
<path opacity="0.57" d="M274.976 215.298C275.286 215.135 275.405 214.752 275.257 214.442C275.102 214.117 274.71 213.984 274.385 214.146L270.412 216.095C270.087 216.228 269.962 216.641 270.117 216.966C270.272 217.291 270.663 217.423 270.988 217.261L274.961 215.313H274.984L274.976 215.298Z" fill="#FF755F"/>
<path d="M350.014 86.6208C350.523 81.8455 347.067 77.5646 342.297 77.0553L341.477 76.9668L339.143 76.7158C337.105 72.5678 338.405 67.7777 338.405 67.7777C338.176 67.6817 337.947 67.5858 337.71 67.4825C330.207 64.353 323.804 59.2972 318.967 52.9497C313 58.0646 305.8 61.6443 297.927 63.1721C297.683 63.2164 297.432 63.268 297.189 63.3197C297.189 63.3197 297.491 68.2943 294.633 71.9478L289.434 71.3943L287.293 71.1655C284.582 70.8776 282.035 71.8666 280.24 73.6454C278.874 75.0035 277.943 76.8191 277.722 78.8784C277.478 81.1517 278.143 83.3068 279.413 85.0044C280.809 86.8718 282.943 88.1782 285.446 88.4512L286.222 88.5324L287.588 88.68L287.115 93.1159C286.229 101.405 289.324 109.206 294.862 114.616L294.235 120.499C293.459 127.761 300.121 134.493 309.042 135.445C317.963 136.397 325.902 131.238 326.677 123.975L327.334 117.871C333.737 113.738 338.286 106.859 339.158 98.6884L339.631 94.2525L340.45 94.3411C342.09 94.5182 343.663 94.2156 345.051 93.5661C347.717 92.3188 349.682 89.765 350.021 86.6282L350.014 86.6208Z" fill="#FFAC79"/>
<path opacity="0.55" d="M310.889 116.779C296.754 115.266 286.466 102.763 287.604 88.6802H287.589L287.116 93.116C285.957 103.921 291.562 113.893 300.527 118.823C302.551 123.495 307.336 126.617 312.713 126.248C316.87 125.968 320.401 123.65 322.424 120.351C331.338 116.963 338.073 108.815 339.159 98.6885L339.631 94.2527H339.616C337.748 108.254 325.038 118.292 310.903 116.779H310.889Z" fill="#FF755F"/>
<path d="M284.228 81.2108C284.11 81.2108 283.999 81.1592 283.925 81.0558C283.807 80.8861 283.844 80.6573 284.014 80.5392L285.986 79.1442L283.637 75.7933C283.519 75.6236 283.563 75.3948 283.726 75.2767C283.888 75.1586 284.124 75.2029 284.243 75.3653L287.012 79.314L284.442 81.1296C284.376 81.1739 284.302 81.1961 284.228 81.1961V81.2108Z" fill="#FF755F"/>
<path d="M342.918 87.8534C342.822 87.8534 342.718 87.8165 342.644 87.7353L340.518 85.4178L344.062 82.1481C344.21 82.0079 344.446 82.0226 344.587 82.1702C344.727 82.3179 344.712 82.554 344.565 82.6943L341.559 85.4694L343.191 87.2482C343.331 87.3958 343.317 87.632 343.169 87.7722C343.095 87.8387 343.006 87.8682 342.918 87.8682V87.8534Z" fill="#FF755F"/>
<path opacity="0.57" d="M311.059 104.283C310.948 104.283 310.837 104.231 310.763 104.135C310.645 103.973 310.675 103.744 310.837 103.619C310.867 103.597 313.577 101.633 316.258 103.486C316.428 103.604 316.465 103.833 316.354 104.002C316.236 104.172 316.007 104.209 315.837 104.098C313.599 102.548 311.369 104.15 311.28 104.216C311.214 104.268 311.14 104.29 311.059 104.29V104.283Z" fill="#FF755F"/>
<path d="M336.117 70.1767C335.356 69.7633 334.322 69.7781 333.318 69.7338C332.306 69.7117 331.294 69.6674 330.415 69.5936C329.537 69.5198 328.525 69.4017 327.528 69.2614C326.531 69.1433 325.512 68.9588 324.699 69.2393C323.917 69.4976 323.525 70.4055 324.323 71.6159C325.061 72.7968 327.151 74.1844 330.061 74.428C332.971 74.6568 335.238 73.6309 336.139 72.5828C337.099 71.5126 336.848 70.5605 336.109 70.1693L336.117 70.1767Z" fill="#390028"/>
<path d="M298.504 65.4306C299.339 65.2387 300.314 65.5192 301.274 65.7406C302.234 65.9842 303.209 66.1982 304.065 66.3606C304.922 66.523 305.904 66.6706 306.894 66.7887C307.869 66.9289 308.888 67.0249 309.582 67.4972C310.254 67.9475 310.387 68.907 309.316 69.8517C308.304 70.7817 305.956 71.5567 303.127 71.0326C300.306 70.5012 298.431 68.9365 297.847 67.7113C297.219 66.4492 297.714 65.6078 298.512 65.4306H298.504Z" fill="#390028"/>
<path d="M297.05 77.1142C297.05 77.1142 293.173 76.723 291.902 75.8447C290.529 74.8925 292.094 79.5351 295.263 81.8748L297.057 77.1215L297.05 77.1142Z" fill="#390028"/>
<path d="M334.121 82.0449C334.121 82.0449 337.858 83.152 339.372 82.8125C341.004 82.4435 337.799 86.156 333.988 87.1229L334.121 82.0449Z" fill="#390028"/>
<path d="M311.118 81.3954C310.941 78.8638 309.826 75.0479 304.863 73.9556C304.043 73.7784 303.275 73.7342 302.552 73.7858C299.177 74.0146 296.754 76.4281 295.263 78.5243C294.997 78.9007 294.842 79.3362 294.775 79.779C294.62 81.078 295.41 82.4066 296.791 82.7682C297.692 82.8568 298.512 82.938 299.258 83.0192C298.638 82.1335 298.298 81.0559 298.372 79.9119C298.542 77.1515 301.008 75.0553 303.866 75.2325C306.724 75.4096 308.903 77.7936 308.733 80.5614C308.652 81.8752 308.046 83.0339 307.138 83.868C307.78 83.9196 308.231 83.9344 308.814 83.9122H308.866C308.903 83.9122 308.947 83.9122 308.984 83.9122C309.154 83.9049 309.309 83.8975 309.457 83.8901C310.402 83.8384 311.155 83.0561 311.148 82.104C311.148 81.8899 311.133 81.6537 311.118 81.4102V81.3954Z" fill="white"/>
<path d="M308.733 80.5538C308.902 77.7933 306.724 75.4094 303.866 75.2248C301.008 75.0477 298.549 77.1365 298.371 79.9043C298.297 81.0483 298.637 82.1259 299.258 83.0116C304.028 83.5061 305.926 83.757 307.137 83.8604C308.053 83.0189 308.651 81.8675 308.733 80.5538Z" fill="#390028"/>
<path d="M335.429 84.9158C335.473 84.473 335.429 84.0153 335.252 83.5873C334.299 81.1959 332.504 78.2879 329.284 77.2693C328.59 77.0479 327.83 76.9077 326.995 76.8929C321.922 76.7896 319.935 80.229 319.167 82.6573C319.093 82.8861 319.027 83.1149 318.975 83.3216C318.739 84.2442 319.285 85.1815 320.194 85.4546C320.334 85.4989 320.489 85.5432 320.651 85.5875C320.696 85.6022 320.733 85.6096 320.777 85.6244H320.814C321.375 85.7941 321.818 85.8901 322.453 85.986C321.767 84.9601 321.449 83.6906 321.678 82.3916C322.158 79.6681 324.839 77.8598 327.66 78.3617C330.481 78.8636 332.379 81.4764 331.899 84.1999C331.699 85.3291 331.116 86.3034 330.304 87.0119C331.05 87.1153 331.862 87.226 332.763 87.3515C334.188 87.3293 335.274 86.2222 335.429 84.9232V84.9158Z" fill="white"/>
<path d="M331.899 84.1924C332.379 81.4689 330.481 78.8561 327.66 78.3542C324.839 77.8523 322.158 79.6606 321.678 82.3841C321.449 83.6831 321.759 84.9452 322.453 85.9785C323.65 86.163 325.555 86.3623 330.311 87.0044C331.123 86.2885 331.707 85.3216 331.906 84.1924H331.899Z" fill="#390028"/>
<path d="M304.264 88.9459C304.264 88.9459 308.65 91.5661 313.2 92.7544C317.749 93.9501 313.812 100.489 306.856 99.0207C299.899 97.5519 300.556 87.7354 304.264 88.9459Z" fill="white"/>
<path d="M317.875 72.1396L319.3 86.4731C319.329 86.7905 319.241 87.1005 319.041 87.344C318.325 88.2445 316.228 90.0454 311.76 88.3109" fill="#FFAC79"/>
<path d="M315.195 89.4107C314.205 89.4107 313.031 89.204 311.628 88.6579C311.436 88.5841 311.34 88.37 311.414 88.1781C311.487 87.9862 311.702 87.8976 311.894 87.9641C316.155 89.6174 318.112 87.9198 318.754 87.1079C318.887 86.9381 318.954 86.7241 318.932 86.5027L317.506 72.1692C317.484 71.9699 317.632 71.7854 317.839 71.7633C318.045 71.7485 318.223 71.8887 318.245 72.0954L319.67 86.4289C319.714 86.8422 319.596 87.2481 319.338 87.5655C318.813 88.2224 317.543 89.3959 315.195 89.4033V89.4107Z" fill="#FF755F"/>
<path d="M283.822 93.0494C283.66 93.0494 283.497 93.042 283.327 93.0198C282.19 92.8944 281.171 92.326 280.455 91.433C279.738 90.5399 279.421 89.418 279.546 88.2814C279.812 85.9343 281.924 84.2367 284.288 84.5098C285.425 84.6353 286.444 85.2036 287.16 86.0967C287.877 86.9897 288.194 88.1116 288.069 89.2483C287.943 90.3849 287.374 91.4034 286.481 92.1194C285.713 92.732 284.782 93.0567 283.815 93.0567L283.822 93.0494ZM283.808 85.2183C282.028 85.2183 280.492 86.5543 280.285 88.3626C280.181 89.2999 280.447 90.2299 281.038 90.968C281.629 91.7061 282.471 92.1784 283.416 92.2818C284.354 92.3925 285.285 92.1194 286.023 91.5289C286.762 90.9385 287.234 90.097 287.338 89.1523C287.441 88.2149 287.175 87.285 286.584 86.5469C285.993 85.8088 285.152 85.3364 284.206 85.2331C284.073 85.2184 283.94 85.211 283.808 85.211V85.2183Z" fill="#F7EEE6"/>
<path d="M342.113 99.6405C341.95 99.6405 341.788 99.6332 341.625 99.611C339.277 99.3453 337.586 97.2196 337.852 94.8725C337.977 93.7359 338.546 92.7174 339.44 92.0014C340.333 91.2855 341.456 90.9607 342.593 91.0936C343.73 91.2191 344.749 91.7874 345.466 92.6805C346.182 93.5735 346.5 94.6954 346.374 95.832C346.249 96.9687 345.68 97.9872 344.786 98.7032C344.018 99.3158 343.088 99.6405 342.12 99.6405H342.113ZM342.098 91.8095C341.301 91.8095 340.532 92.0752 339.897 92.5845C339.159 93.175 338.686 94.0164 338.583 94.9611C338.361 96.9023 339.764 98.6663 341.707 98.8803C342.645 98.991 343.575 98.7179 344.314 98.1275C345.052 97.537 345.525 96.6956 345.628 95.7509C345.732 94.8061 345.466 93.8835 344.875 93.1454C344.284 92.4074 343.442 91.935 342.497 91.8317C342.364 91.8169 342.224 91.8095 342.091 91.8095H342.098Z" fill="#F7EEE6"/>
<path d="M289.007 118.24L286.865 130.042L295.358 146.014C296.148 147.497 298.157 147.778 299.324 146.56L310.416 134.987L293.416 116.934C291.968 115.398 289.384 116.159 289.007 118.24Z" fill="#F8F8EE"/>
<path d="M332.704 122.875L332.416 134.869L320.873 148.804C319.802 150.095 317.771 149.963 316.877 148.538L308.348 134.965L328.649 120.713C330.377 119.502 332.755 120.772 332.704 122.883V122.875Z" fill="#F8F8EE"/>
</g>
<defs>
<clipPath id="clip0_1352_450">
<rect width="482" height="271" fill="white"/>
</clipPath>
</defs>
</svg>
