<svg width="218" height="362" viewBox="0 0 218 362" fill="none" xmlns="http://www.w3.org/2000/svg">
<g opacity="0.06">
<path d="M209.471 3.34375L3.20898 209.761C4.1639 215.658 5.4023 221.466 6.90928 227.155L226.868 7.06149C221.184 5.55349 215.38 4.31424 209.486 3.35868L209.471 3.34375Z" stroke="#8F9294" stroke-width="1.08" stroke-miterlimit="10"/>
<path d="M226.87 7.0618L6.92578 227.155C8.37308 232.605 10.0591 237.965 11.9988 243.191L242.895 12.1233C237.658 10.1823 232.316 8.51008 226.87 7.04688V7.0618Z" stroke="#8F9294" stroke-width="1.08" stroke-miterlimit="10"/>
<path d="M296.205 43.2236L43.0625 296.538C46.2704 300.345 49.6126 304.048 53.1339 307.572L307.231 53.3018C303.695 49.7931 300.01 46.4337 296.205 43.2236Z" stroke="#8F9294" stroke-width="1.08" stroke-miterlimit="10"/>
<path d="M284.298 34.0413L33.8711 284.623C36.7806 288.729 39.8244 292.701 43.0622 296.538L296.205 43.2237C292.37 39.9986 288.386 36.9379 284.298 34.0264V34.0413Z" stroke="#8F9294" stroke-width="1.08" stroke-miterlimit="10"/>
<path d="M257.725 18.3945L18.25 258.032C20.4881 262.75 22.95 267.334 25.5909 271.798L271.482 25.7404C267.006 23.1126 262.425 20.6491 257.725 18.3945Z" stroke="#8F9294" stroke-width="1.08" stroke-miterlimit="10"/>
<path d="M271.481 25.7402L25.5898 271.813C28.1711 276.217 30.9463 280.473 33.8857 284.623L284.298 34.0417C280.15 31.1003 275.883 28.3382 271.496 25.7402H271.481Z" stroke="#8F9294" stroke-width="1.08" stroke-miterlimit="10"/>
<path d="M242.893 12.123L11.9824 243.19C13.8475 248.252 15.9513 253.194 18.2491 258.032L257.724 18.3939C252.89 16.0946 247.951 13.9894 242.893 12.123V12.123Z" stroke="#8F9294" stroke-width="1.08" stroke-miterlimit="10"/>
<path d="M13.2207 115.294L115.083 13.3623C68.5313 31.6076 31.4537 68.6954 13.2207 115.294V115.294Z" stroke="#8F9294" stroke-width="1.08" stroke-miterlimit="10"/>
<path d="M115.084 13.3621L13.2217 115.294C9.46167 124.909 6.46263 134.898 4.38867 145.23L145 4.53809C134.675 6.61345 124.678 9.59959 115.084 13.3771V13.3621Z" stroke="#8F9294" stroke-width="1.08" stroke-miterlimit="10"/>
<path d="M190.448 1.2832L1.15039 190.709C1.49356 197.159 2.20975 203.504 3.20943 209.746L209.471 3.34364C203.235 2.32835 196.879 1.62661 190.448 1.2832V1.2832Z" stroke="#8F9294" stroke-width="1.08" stroke-miterlimit="10"/>
<path d="M180.556 1C176.751 1 172.991 1.16424 169.246 1.3882L1.25513 169.493C1.0164 173.24 0.867188 177.003 0.867188 180.81C0.867188 184.125 0.971635 187.425 1.15068 190.709L190.448 1.28368C187.18 1.10451 183.883 1 180.556 1V1Z" stroke="#8F9294" stroke-width="1.08" stroke-miterlimit="10"/>
<path d="M145 4.53905L4.38848 145.246C2.8069 153.159 1.76245 161.252 1.24023 169.493L169.246 1.38867C161.01 1.89632 152.908 2.94146 145.015 4.53905H145Z" stroke="#8F9294" stroke-width="1.08" stroke-miterlimit="10"/>
<path d="M357.677 150.591L150.355 358.053C156.562 359.098 162.859 359.844 169.26 360.248L359.855 169.523C359.452 163.118 358.721 156.802 357.662 150.606L357.677 150.591Z" stroke="#8F9294" stroke-width="1.08" stroke-miterlimit="10"/>
<path d="M360.245 180.81C360.245 177.018 360.081 173.255 359.857 169.508L169.262 360.232C172.992 360.471 176.752 360.621 180.557 360.621C183.809 360.621 187.032 360.531 190.24 360.352L359.977 190.5C360.141 187.29 360.245 184.065 360.245 180.81Z" stroke="#8F9294" stroke-width="1.08" stroke-miterlimit="10"/>
<path d="M359.975 190.5L190.238 360.352C198.415 359.919 206.427 358.904 214.275 357.411L357.05 214.539C358.542 206.685 359.557 198.667 359.99 190.485L359.975 190.5Z" stroke="#8F9294" stroke-width="1.08" stroke-miterlimit="10"/>
<path d="M357.05 214.554L214.275 357.425C224.347 355.514 234.135 352.767 243.55 349.243L348.874 243.848C352.395 234.441 355.126 224.647 357.05 214.554V214.554Z" stroke="#8F9294" stroke-width="1.08" stroke-miterlimit="10"/>
<path d="M353.859 133.301L133.064 354.245C138.719 355.798 144.479 357.067 150.342 358.052L357.664 150.591C356.664 144.723 355.396 138.96 353.859 133.301V133.301Z" stroke="#8F9294" stroke-width="1.08" stroke-miterlimit="10"/>
<path d="M326.613 76.1309L75.9473 326.967C80.0653 329.923 84.3028 332.73 88.6745 335.343L334.983 88.8667C332.372 84.492 329.567 80.2517 326.613 76.1309Z" stroke="#8F9294" stroke-width="1.08" stroke-miterlimit="10"/>
<path d="M317.349 64.2764L64.1016 317.71C67.9063 320.965 71.8603 324.041 75.9336 326.982L326.614 76.1313C323.69 72.0553 320.601 68.0986 317.349 64.2913V64.2764Z" stroke="#8F9294" stroke-width="1.08" stroke-miterlimit="10"/>
<path d="M348.696 117.354L117.129 349.079C122.336 351.05 127.648 352.767 133.064 354.245L353.859 133.3C352.382 127.881 350.666 122.55 348.696 117.354V117.354Z" stroke="#8F9294" stroke-width="1.08" stroke-miterlimit="10"/>
<path d="M307.232 53.302L53.1191 307.572C56.6255 311.11 60.3109 314.47 64.1007 317.695L317.348 64.2761C314.125 60.4837 310.753 56.8108 307.232 53.2871V53.302Z" stroke="#8F9294" stroke-width="1.08" stroke-miterlimit="10"/>
<path d="M342.383 102.573L102.371 342.748C107.176 345.078 112.114 347.168 117.142 349.079L348.695 117.355C346.8 112.323 344.696 107.381 342.369 102.573H342.383Z" stroke="#8F9294" stroke-width="1.08" stroke-miterlimit="10"/>
<path d="M334.985 88.8672L88.6758 335.343C93.1221 338.001 97.6878 340.479 102.373 342.749L342.385 102.574C340.117 97.8853 337.641 93.3165 334.985 88.8672Z" stroke="#8F9294" stroke-width="1.08" stroke-miterlimit="10"/>
</g>
</svg>
