<svg width="49" height="43" viewBox="0 0 49 43" fill="none" xmlns="http://www.w3.org/2000/svg">
<path d="M30.1248 26.5639C40.5589 23.7183 48.0357 21.5236 48.0171 20.5378C48.0171 19.6265 39.0709 16.9296 28.953 14.2513C29.5854 7.70447 29.8272 2.32934 29.7528 1.41798C29.511 -1.39048 25.0658 3.29649 19.3559 10.9593C9.23801 8.48563 0.868424 7.61147 0.422046 8.05785C-0.0615296 8.56003 4.47665 13.5074 10.5213 21.0028C6.59694 26.3407 -1.43786 37.463 1.4264 35.7147C1.4264 35.7147 10.0006 31.9949 17.1612 30.1349C20.6206 34.3383 24.1917 39.7321 25.9958 42.5033C26.4236 43.1543 27.4279 42.9683 27.5767 42.2057C28.2463 38.7835 29.5296 31.8833 30.1248 26.5453V26.5639Z" fill="#606060"/>
</svg>
