<svg width="370" height="391" viewBox="0 0 370 391" fill="none" xmlns="http://www.w3.org/2000/svg">
<g clip-path="url(#clip0_1242_91)">
<path d="M357.032 179.38C357.032 179.38 356.686 179.29 356.069 179.166C355.451 179.043 354.529 178.936 353.409 179.092C352.306 179.249 350.997 179.701 349.853 180.648C348.717 181.578 347.737 182.978 347.35 184.633V184.674L347.185 185.267L346.955 184.707C346.312 183.126 345.185 181.875 343.95 181.068C342.715 180.253 341.389 179.907 340.278 179.825C338.022 179.669 336.696 180.377 336.68 180.286C336.672 180.27 336.984 180.088 337.594 179.891C338.203 179.693 339.133 179.496 340.294 179.553C341.447 179.603 342.846 179.932 344.147 180.772C345.448 181.595 346.642 182.904 347.317 184.567L346.938 184.6V184.55C347.366 182.797 348.404 181.332 349.614 180.368C350.824 179.389 352.207 178.944 353.36 178.821C354.521 178.689 355.468 178.845 356.085 179.018C356.711 179.191 357.024 179.364 357.015 179.389L357.032 179.38Z" fill="#E0E0E0"/>
<path d="M50.2545 130.89C50.2545 130.89 49.9087 130.8 49.2913 130.676C48.6738 130.553 47.7517 130.446 46.632 130.602C45.5288 130.758 44.2197 131.211 43.0753 132.158C41.9392 133.088 40.9594 134.488 40.5725 136.143V136.184L40.4078 136.776L40.1773 136.217C39.5351 134.636 38.4072 133.385 37.1723 132.578C35.9373 131.763 34.6118 131.417 33.5003 131.335C31.2445 131.178 29.919 131.886 29.9025 131.796C29.8943 131.779 30.2071 131.598 30.8164 131.401C31.4256 131.203 32.3559 131.005 33.5168 131.063C34.6694 131.112 36.069 131.442 37.3698 132.281C38.6707 133.105 39.8645 134.414 40.5396 136.077L40.1608 136.11V136.06C40.589 134.307 41.6263 132.841 42.8366 131.878C44.0468 130.898 45.43 130.454 46.5826 130.33C47.7435 130.199 48.6902 130.355 49.3077 130.528C49.9334 130.701 50.2463 130.874 50.2381 130.89H50.2545Z" fill="#E0E0E0"/>
<path d="M263.234 113.89C263.234 113.89 262.921 114.26 262.353 114.902C261.785 115.553 261.003 116.533 260.196 117.833C258.566 120.41 256.927 124.518 256.985 129.219V129.359L256.59 129.392C255.906 124.765 253.478 121.077 251.345 118.945C249.205 116.763 247.459 115.923 247.517 115.841C247.517 115.833 247.632 115.882 247.83 115.981C248.027 116.096 248.332 116.236 248.686 116.475C249.419 116.928 250.431 117.669 251.543 118.747C252.654 119.817 253.832 121.266 254.828 123.053C255.832 124.839 256.623 126.988 256.977 129.334L256.582 129.367V129.219C256.524 124.411 258.236 120.245 259.949 117.677C260.805 116.376 261.62 115.413 262.229 114.787C262.526 114.466 262.781 114.252 262.954 114.096C263.127 113.939 263.217 113.865 263.226 113.882L263.234 113.89Z" fill="#E0E0E0"/>
<path opacity="0.1" d="M291.926 311.16C278.959 314.239 269.062 327.164 269.466 340.484C261.159 331.33 245.969 329.461 235.694 336.335C225.419 343.209 221.344 357.962 226.638 369.134C214.362 359.551 194.397 362.21 185.053 374.666C182.929 366.82 176.894 360.144 169.303 357.229C161.712 354.315 152.763 355.237 145.929 359.642C143.715 345.753 132.501 333.725 118.802 330.556C105.094 327.386 89.7391 333.248 81.6461 344.757C74.7962 338.08 64.7684 334.828 55.3004 336.203C45.8325 337.578 37.1466 343.555 32.4785 351.903L40.8021 354.587C55.9838 357.361 69.346 368.574 74.7139 383.047C82.3541 374.683 94.185 370.36 105.423 371.826C116.653 373.291 126.985 380.511 132.222 390.555L196.316 390.522C212.271 390.39 224.456 391.255 239.201 390.522C245.039 369.998 271.862 351.763 292.024 358.72C296.067 343.176 309.305 330.408 324.965 326.876C319.21 315.037 304.744 308.122 291.926 311.168V311.16Z" fill="#EBEBEB"/>
<path d="M325.483 326.752C325.31 326.785 325.146 326.835 324.973 326.868C325.039 326.999 325.104 327.131 325.17 327.263L325.483 326.744V326.752Z" fill="#EBEBEB"/>
<path opacity="0.1" d="M159.826 288.693C160.32 285.128 155.282 282.189 151.503 281.884C149.7 281.736 147.823 282.016 146.119 281.415C142.414 280.123 140.94 275.339 137.326 273.816C134.625 272.68 131.513 273.693 128.895 275.01C126.277 276.327 123.692 277.99 120.761 278.171C118.217 278.336 115.451 277.389 113.228 278.633C111.565 279.563 110.7 281.473 109.169 282.601C107.67 283.704 105.719 283.934 103.867 284.041C102.014 284.14 100.088 284.165 98.3999 284.939C96.7122 285.713 95.3126 287.499 95.6584 289.327L159.835 288.693H159.826Z" fill="#EBEBEB"/>
<path opacity="0.1" d="M339.612 88.0475C340.196 83.8077 334.211 80.3171 329.707 79.9548C327.558 79.7819 325.336 80.1112 323.302 79.4032C318.897 77.872 317.135 72.1832 312.846 70.3638C309.635 69.0054 305.939 70.2156 302.818 71.7798C299.706 73.344 296.627 75.3199 293.144 75.5422C290.115 75.7397 286.83 74.6119 284.187 76.0937C282.211 77.1969 281.182 79.4691 279.362 80.811C277.584 82.12 275.262 82.3999 273.056 82.5234C270.849 82.6469 268.561 82.6634 266.552 83.5854C264.543 84.5075 262.88 86.6315 263.3 88.8049L339.62 88.0557L339.612 88.0475Z" fill="#EBEBEB"/>
<path opacity="0.1" d="M105.184 65.8936C105.802 61.4233 99.487 57.7434 94.7448 57.3647C92.4807 57.1835 90.1343 57.5293 87.9937 56.7801C83.3503 55.1583 81.4978 49.165 76.9697 47.255C73.5859 45.8308 69.6835 47.0986 66.3985 48.7533C63.1135 50.4081 59.8697 52.4827 56.206 52.7215C53.0198 52.9273 49.5537 51.7418 46.7628 53.2977C44.6798 54.4585 43.593 56.8542 41.6747 58.2702C39.7976 59.6533 37.3524 59.9497 35.0225 60.0732C32.6925 60.1967 30.2885 60.2214 28.1644 61.1928C26.0485 62.1643 24.2948 64.4035 24.7312 66.6922L105.176 65.9019L105.184 65.8936Z" fill="#EBEBEB"/>
<path opacity="0.1" d="M354.753 236.111C355.584 230.085 347.079 225.129 340.682 224.61C337.636 224.363 334.466 224.832 331.585 223.828C325.328 221.646 322.833 213.562 316.724 210.993C312.163 209.067 306.902 210.779 302.481 213.01C298.06 215.233 293.688 218.041 288.74 218.353C284.443 218.625 279.775 217.036 276.012 219.135C273.213 220.7 271.739 223.927 269.154 225.837C266.626 227.697 263.325 228.093 260.196 228.265C257.06 228.438 253.816 228.471 250.959 229.772C248.102 231.081 245.739 234.102 246.332 237.181L354.753 236.111Z" fill="#F5F5F5"/>
<path opacity="0.1" d="M115.196 193.285C115.945 187.827 108.247 183.34 102.46 182.871C99.7015 182.649 96.8365 183.069 94.2184 182.163C88.554 180.187 86.29 172.868 80.7656 170.538C76.6326 168.793 71.874 170.349 67.8727 172.366C63.8632 174.383 59.9114 176.919 55.4326 177.207C51.5384 177.454 47.3149 176.013 43.9064 177.915C41.3706 179.331 40.0369 182.253 37.6987 183.982C35.4099 185.67 32.4213 186.024 29.5892 186.18C26.7488 186.337 23.8096 186.362 21.2244 187.547C18.6393 188.733 16.4987 191.466 17.0338 194.257L115.188 193.285H115.196Z" fill="#EBEBEB"/>
<path d="M370 342.37C370 342.37 369.596 341.925 368.822 341.044C368.435 340.608 367.974 340.04 367.349 339.447C367.044 339.143 366.715 338.813 366.361 338.459C366.015 338.097 365.62 337.743 365.183 337.381C364.755 337.01 364.302 336.624 363.825 336.204C363.355 335.784 362.796 335.413 362.244 334.993C361.157 334.121 359.856 333.339 358.473 332.441C355.649 330.77 352.208 329.14 348.157 327.905C344.115 326.678 339.43 325.855 334.318 325.979C333.675 325.995 333.033 326.02 332.383 326.036C331.732 326.102 331.082 326.168 330.415 326.234C330.086 326.267 329.757 326.3 329.419 326.333C329.09 326.39 328.76 326.448 328.423 326.506C327.756 326.621 327.081 326.744 326.406 326.86C323.722 327.494 320.972 328.317 318.271 329.527C315.588 330.762 312.895 332.227 310.351 334.08C307.816 335.932 305.37 338.081 303.123 340.526C298.685 345.457 295.03 351.64 293.161 358.72L293.111 358.909L292.93 358.843C288.155 357.189 282.779 356.966 277.526 357.93C272.257 358.893 267.062 360.976 262.238 363.873C257.413 366.78 252.91 370.509 249.073 374.971C245.253 379.425 242.067 384.669 240.371 390.531L240.33 390.671H240.181C232.064 391.091 223.682 391 215.137 390.835C210.864 390.761 206.541 390.679 202.178 390.671C197.814 390.671 193.418 390.679 188.98 390.687C169.666 390.687 150.935 390.704 133.193 390.712H133.07L133.012 390.597C130.155 385.147 125.866 380.635 120.918 377.416C115.97 374.189 110.338 372.238 104.715 371.801C99.0839 371.349 93.5184 372.337 88.5621 374.345C83.5976 376.354 79.2341 379.4 75.8174 383.113L75.6198 383.327L75.521 383.055C73.0676 376.519 69.1322 370.945 64.5794 366.549C62.2823 364.367 59.8371 362.474 57.3178 360.852C54.7985 359.23 52.164 357.971 49.5623 356.909C46.9442 355.863 44.3014 355.188 41.7327 354.661C41.0823 354.562 40.4402 354.472 39.8062 354.373C39.4851 354.324 39.1723 354.282 38.8512 354.233C38.5301 354.208 38.2172 354.184 37.9044 354.159L36.0355 354.011L34.1995 353.986C29.3338 353.945 24.9045 354.743 21.0596 355.896C17.2066 357.049 13.9298 358.555 11.2212 360.086C9.89567 360.902 8.64425 361.626 7.59042 362.425C6.49543 363.157 5.57333 363.931 4.7418 364.606C3.88556 365.257 3.24339 365.956 2.62591 366.491C2.00844 367.035 1.55562 367.545 1.16867 367.94C0.41123 368.739 0.0078125 369.151 0.0078125 369.151C0.0078125 369.151 0.386531 368.722 1.13574 367.907C1.51445 367.504 1.96727 366.977 2.57651 366.434C3.18576 365.89 3.82793 365.182 4.67593 364.524C5.50747 363.841 6.42133 363.058 7.51632 362.318C8.57015 361.511 9.82157 360.778 11.1389 359.955C13.8475 358.407 17.1325 356.876 21.002 355.707C24.8633 354.538 29.3174 353.714 34.2078 353.747C34.817 353.747 35.4345 353.756 36.0602 353.764C36.6777 353.813 37.3116 353.863 37.9456 353.912C38.2584 353.937 38.5795 353.961 38.9006 353.986C39.2217 354.027 39.5345 354.077 39.8556 354.126C40.4978 354.217 41.1482 354.315 41.7986 354.406C44.3838 354.933 47.0513 355.608 49.6858 356.653C52.3122 357.707 54.9632 358.975 57.499 360.605C60.0347 362.235 62.5046 364.129 64.8181 366.319C69.4039 370.739 73.3805 376.346 75.8668 382.94L75.5704 382.883C79.0118 379.128 83.4247 376.05 88.4304 374.016C93.4361 371.983 99.0592 370.978 104.748 371.423C110.437 371.867 116.135 373.835 121.14 377.087C126.138 380.339 130.485 384.9 133.383 390.415L133.202 390.3C150.944 390.292 169.674 390.275 188.988 390.267C193.418 390.267 197.822 390.259 202.186 390.251C206.549 390.259 210.872 390.341 215.153 390.415C223.707 390.58 232.072 390.671 240.173 390.267L239.984 390.415C241.704 384.48 244.932 379.194 248.785 374.708C252.654 370.213 257.191 366.467 262.056 363.544C266.922 360.63 272.158 358.53 277.485 357.567C282.795 356.596 288.229 356.826 293.078 358.506L292.848 358.629C294.75 351.492 298.438 345.268 302.917 340.312C305.181 337.85 307.643 335.693 310.203 333.833C312.772 331.98 315.481 330.507 318.189 329.272C320.914 328.062 323.681 327.23 326.381 326.604C327.064 326.489 327.739 326.366 328.415 326.25C328.752 326.193 329.081 326.135 329.419 326.078C329.757 326.045 330.086 326.012 330.423 325.979C331.09 325.913 331.749 325.847 332.399 325.789C333.058 325.773 333.7 325.756 334.342 325.732C339.488 325.616 344.189 326.456 348.248 327.708C352.315 328.959 355.756 330.605 358.58 332.301C359.964 333.199 361.264 333.997 362.351 334.878C362.903 335.306 363.454 335.685 363.924 336.105C364.401 336.525 364.854 336.92 365.274 337.29C365.71 337.653 366.097 338.015 366.443 338.385L367.423 339.381C368.048 339.982 368.501 340.55 368.88 340.995C369.637 341.884 370.016 342.353 370.016 342.353L370 342.37Z" fill="#263238"/>
<path d="M184.749 32.4612L189.055 41.1796C189.359 41.797 189.952 42.2334 190.635 42.3321L200.26 43.7317C201.989 43.9787 202.672 46.1027 201.429 47.3211L194.464 54.113C193.97 54.5987 193.739 55.2903 193.854 55.9736L195.501 65.5564C195.797 67.277 193.994 68.586 192.446 67.7709L183.835 63.243C183.226 62.9219 182.493 62.9219 181.875 63.243L173.264 67.7709C171.716 68.586 169.913 67.2687 170.209 65.5564L171.856 55.9736C171.971 55.2903 171.749 54.5905 171.246 54.113L164.281 47.3211C163.03 46.1027 163.722 43.9787 165.45 43.7317L175.075 42.3321C175.758 42.2334 176.351 41.8053 176.656 41.1796L180.961 32.4612C181.735 30.897 183.966 30.897 184.732 32.4612H184.749Z" fill="#FF725E"/>
<path d="M168.34 38.2239C168.257 38.3062 162.799 33.2349 156.138 26.8958C149.478 20.5567 144.151 15.3455 144.233 15.2549C144.316 15.1726 149.774 20.2439 156.435 26.583C163.087 32.9221 168.422 38.1333 168.34 38.2157V38.2239Z" fill="#FF725E"/>
<path d="M156.92 43.5917C156.92 43.7069 152.227 43.5176 146.448 43.1718C140.668 42.8178 135.992 42.4391 136 42.3238C136 42.2086 140.693 42.3979 146.472 42.7437C152.252 43.0977 156.928 43.4764 156.92 43.5917Z" fill="#FF725E"/>
<path d="M174.728 27.9661C174.621 28.0155 173.262 25.2082 171.698 21.6929C170.134 18.1775 168.956 15.2961 169.063 15.2467C169.17 15.1973 170.529 18.0047 172.093 21.52C173.657 25.0353 174.835 27.9167 174.728 27.9661Z" fill="#FF725E"/>
<path d="M182.015 0C182.13 0 182.229 5.73814 182.229 12.81C182.229 19.8818 182.13 25.6199 182.015 25.6199C181.9 25.6199 181.801 19.8818 181.801 12.81C181.801 5.73814 181.9 0 182.015 0Z" fill="#FF725E"/>
<path d="M196.57 15.4854C196.677 15.5347 195.458 18.3174 193.853 21.701C192.239 25.0846 190.848 27.7849 190.741 27.7355C190.634 27.6861 191.852 24.9035 193.466 21.5199C195.071 18.1363 196.471 15.436 196.57 15.4936V15.4854Z" fill="#FF725E"/>
<path d="M220.084 19.6758C220.15 19.7746 213.868 24.2696 206.063 29.7196C198.25 35.1696 191.861 39.5082 191.795 39.4176C191.73 39.3188 198.003 34.8238 205.824 29.3738C213.638 23.9238 220.026 19.5852 220.092 19.684L220.084 19.6758Z" fill="#FF725E"/>
<path d="M220.71 37.8781C220.751 37.9851 217.647 39.2941 213.769 40.8007C209.891 42.3073 206.713 43.4351 206.672 43.3281C206.631 43.2211 209.735 41.9121 213.613 40.4055C217.49 38.899 220.668 37.7711 220.71 37.8781Z" fill="#FF725E"/>
<path d="M165.96 55.4303C166.001 55.5455 157.834 58.4516 147.724 61.934C137.614 65.4164 129.381 68.1414 129.348 68.0262C129.307 67.9109 137.474 65.0048 147.584 61.5224C157.694 58.0482 165.927 55.315 165.96 55.4303Z" fill="#FF725E"/>
<path d="M230.318 64.4038C230.285 64.519 223.097 62.6008 214.263 60.1228C205.429 57.6448 198.291 55.5455 198.324 55.4302C198.357 55.315 205.545 57.2332 214.379 59.7112C223.213 62.1892 230.343 64.2885 230.31 64.4038H230.318Z" fill="#FF725E"/>
<path d="M159.234 79.2802C159.16 79.1896 161.334 77.1644 164.1 74.7604C166.866 72.3565 169.172 70.4795 169.246 70.57C169.32 70.6606 167.146 72.6776 164.38 75.0897C161.614 77.4937 159.308 79.3707 159.234 79.2802Z" fill="#FF725E"/>
<path d="M182.698 99.442C182.582 99.442 182.525 92.4032 182.566 83.7342C182.615 75.057 182.747 68.0264 182.862 68.0264C182.978 68.0264 183.035 75.057 182.994 83.7342C182.945 92.4114 182.813 99.442 182.698 99.442Z" fill="#FF725E"/>
<path d="M206.968 81.0419C206.886 81.1242 204.622 79.1237 201.913 76.5634C199.205 74.003 197.072 71.8625 197.155 71.772C197.237 71.6814 199.501 73.6902 202.21 76.2505C204.918 78.8109 207.051 80.9514 206.968 81.0419Z" fill="#FF725E"/>
<path d="M224.613 51.3716L224.687 52.7876C224.687 52.8864 224.745 52.977 224.835 53.0346L226.045 53.7755C226.259 53.9073 226.235 54.2366 225.996 54.3271L224.67 54.8375C224.58 54.8705 224.506 54.9528 224.481 55.0516L224.152 56.4264C224.094 56.6734 223.773 56.7475 223.617 56.5499L222.727 55.4468C222.662 55.3644 222.563 55.3233 222.464 55.3315L221.048 55.4385C220.793 55.455 220.628 55.1751 220.768 54.9693L221.542 53.7838C221.6 53.7014 221.608 53.5944 221.567 53.4956L221.023 52.1866C220.924 51.9479 221.138 51.7091 221.385 51.775L222.752 52.1455C222.851 52.1702 222.958 52.1455 223.032 52.0796L224.111 51.1576C224.308 50.9929 224.605 51.1246 224.613 51.3716Z" fill="#FF725E"/>
<path d="M233.702 36.4459L234.345 37.121C234.394 37.1704 234.46 37.1951 234.526 37.1786L235.448 37.0304C235.612 37.0057 235.736 37.1786 235.662 37.3268L235.217 38.15C235.184 38.2077 235.184 38.2818 235.217 38.3394L235.645 39.1709C235.719 39.3191 235.596 39.492 235.431 39.459L234.509 39.2944C234.443 39.2861 234.377 39.3026 234.328 39.352L233.669 40.0106C233.554 40.1259 233.348 40.06 233.324 39.8954L233.2 38.9733C233.192 38.9074 233.151 38.8498 233.093 38.8169L232.262 38.397C232.113 38.3229 232.113 38.1089 232.262 38.0348L233.101 37.6314C233.159 37.6067 233.2 37.5491 233.217 37.4832L233.357 36.5611C233.381 36.3965 233.587 36.3306 233.702 36.4541V36.4459Z" fill="#FF725E"/>
<path d="M129.282 25.2413L129.925 25.9164C129.974 25.9658 130.04 25.9905 130.106 25.974L131.028 25.8258C131.192 25.8011 131.316 25.974 131.242 26.1222L130.797 26.9454C130.764 27.0031 130.764 27.0772 130.797 27.1348L131.225 27.9663C131.299 28.1145 131.176 28.2874 131.011 28.2544L130.089 28.0898C130.023 28.0815 129.957 28.098 129.908 28.1474L129.249 28.806C129.134 28.9213 128.928 28.8554 128.904 28.6908L128.78 27.7687C128.772 27.7028 128.731 27.6452 128.673 27.6123L127.842 27.1924C127.693 27.1183 127.693 26.9043 127.842 26.8302L128.681 26.4268C128.739 26.4021 128.78 26.3445 128.797 26.2786L128.937 25.3566C128.961 25.1919 129.167 25.126 129.282 25.2495V25.2413Z" fill="#FF725E"/>
<path d="M47.3737 224.281C47.3737 224.281 47.0279 224.191 46.4104 224.067C45.7929 223.944 44.8708 223.837 43.7511 223.993C42.6479 224.15 41.3389 224.602 40.1945 225.549C39.0583 226.479 38.0786 227.879 37.6916 229.534V229.575L37.527 230.168L37.2964 229.608C36.6543 228.027 35.5264 226.776 34.2914 225.969C33.0564 225.154 31.7309 224.808 30.6195 224.726C28.3636 224.569 27.0381 225.277 27.0216 225.187C27.0134 225.17 27.3263 224.989 27.9355 224.792C28.5448 224.594 29.4751 224.397 30.6359 224.454C31.7886 224.504 33.1882 224.833 34.489 225.673C35.7898 226.496 36.9836 227.805 37.6587 229.468L37.28 229.501V229.451C37.7081 227.698 38.7455 226.232 39.9557 225.269C41.166 224.29 42.5491 223.845 43.7017 223.721C44.8626 223.59 45.8094 223.746 46.4269 223.919C47.0526 224.092 47.3654 224.265 47.3572 224.29L47.3737 224.281Z" fill="#263238"/>
<path d="M87.2211 221.12C87.2211 221.12 86.7848 221.638 85.9779 222.56C85.1711 223.474 84.0679 224.865 82.9152 226.718C80.6018 230.373 78.2883 236.185 78.3706 242.854C78.3706 242.92 78.3706 242.994 78.3706 243.06L77.8108 243.109C76.8475 236.548 73.4061 231.328 70.3846 228.307C67.3466 225.219 64.8767 224.026 64.959 223.91C64.9673 223.894 65.1237 223.96 65.4036 224.116C65.6835 224.273 66.1117 224.479 66.6221 224.816C67.6595 225.458 69.092 226.504 70.6645 228.027C72.237 229.55 73.9001 231.592 75.3162 234.127C76.7405 236.655 77.8602 239.701 78.3624 243.027L77.8025 243.076V242.87C77.7202 236.062 80.1489 230.159 82.5777 226.512C83.7879 224.668 84.9488 223.301 85.8133 222.42C86.2331 221.968 86.6036 221.663 86.8342 221.441C87.0729 221.227 87.2046 221.12 87.2211 221.128V221.12Z" fill="#263238"/>
<path d="M290.874 172.193C290.874 172.193 290.182 171.954 288.914 171.675C287.647 171.395 285.745 171.148 283.439 171.46C281.151 171.765 278.434 172.687 276.063 174.646C273.692 176.565 271.666 179.471 270.851 182.92L270.827 183.011L270.678 183.604L270.448 183.044C269.122 179.767 266.768 177.166 264.207 175.511C261.647 173.823 258.889 173.132 256.592 172.967C254.278 172.802 252.401 173.14 251.15 173.469C249.89 173.799 249.231 174.095 249.215 174.054C249.215 174.037 249.371 173.963 249.684 173.823C249.997 173.683 250.474 173.502 251.1 173.313C252.352 172.934 254.245 172.555 256.6 172.687C258.938 172.811 261.762 173.494 264.397 175.198C267.023 176.869 269.443 179.528 270.802 182.887L270.423 182.92L270.448 182.83C271.279 179.29 273.371 176.318 275.816 174.367C278.261 172.374 281.052 171.46 283.39 171.189C285.745 170.909 287.671 171.197 288.939 171.526C289.581 171.691 290.059 171.856 290.38 171.987C290.701 172.119 290.866 172.185 290.866 172.201L290.874 172.193Z" fill="#263238"/>
<path d="M345.639 142.144C345.639 142.144 345.253 142.037 344.553 141.889C343.853 141.749 342.816 141.626 341.556 141.799C340.304 141.972 338.831 142.482 337.538 143.552C336.254 144.598 335.151 146.187 334.706 148.055L334.69 148.105L334.541 148.698L334.311 148.138C333.586 146.36 332.31 144.935 330.919 144.03C329.527 143.108 328.029 142.721 326.769 142.63C325.51 142.531 324.481 142.704 323.789 142.877C323.097 143.05 322.727 143.198 322.719 143.165C322.719 143.149 322.801 143.108 322.974 143.025C323.147 142.943 323.41 142.836 323.756 142.729C324.439 142.515 325.493 142.293 326.794 142.35C328.087 142.408 329.659 142.778 331.125 143.725C332.582 144.647 333.932 146.121 334.69 147.99L334.311 148.023L334.327 147.973C334.788 146.006 335.957 144.351 337.316 143.272C338.683 142.169 340.23 141.667 341.523 141.527C342.832 141.379 343.894 141.552 344.594 141.741C344.948 141.832 345.211 141.93 345.384 142.013C345.557 142.087 345.648 142.136 345.648 142.144H345.639Z" fill="#263238"/>
<path d="M309.835 129.845C309.835 129.845 309.456 130.273 308.781 131.038C308.106 131.804 307.176 132.965 306.212 134.504C304.269 137.559 302.326 142.424 302.392 148.006V148.179L301.997 148.212C301.585 145.487 300.672 142.984 299.527 140.901C298.383 138.802 297.041 137.106 295.765 135.822C294.497 134.537 293.336 133.632 292.504 133.055C291.673 132.479 291.187 132.191 291.212 132.158C291.212 132.15 291.344 132.208 291.582 132.331C291.813 132.463 292.175 132.636 292.595 132.924C293.459 133.459 294.653 134.34 295.971 135.616C297.28 136.884 298.671 138.596 299.848 140.72C301.034 142.836 301.972 145.38 302.392 148.154L301.997 148.187V148.014C301.931 142.334 303.948 137.402 305.974 134.356C306.978 132.808 307.95 131.672 308.666 130.931C309.012 130.553 309.316 130.298 309.514 130.108C309.711 129.927 309.827 129.837 309.835 129.845Z" fill="#263238"/>
<path d="M148.795 153.069H217.73C220.381 153.069 220.381 148.953 217.73 148.953H148.795C146.144 148.953 146.144 153.069 148.795 153.069Z" fill="#5D5D5D"/>
<path d="M151.182 74.3735H146.242V390.49H151.182V74.3735Z" fill="#5D5D5D"/>
<path d="M150.927 390.49C150.812 390.49 150.713 319.763 150.713 232.539C150.713 145.314 150.812 74.5796 150.927 74.5796C151.042 74.5796 151.141 145.29 151.141 232.539C151.141 319.788 151.042 390.49 150.927 390.49Z" fill="#263238"/>
<path d="M148.795 121.077H217.73C220.381 121.077 220.381 116.961 217.73 116.961H148.795C146.144 116.961 146.144 121.077 148.795 121.077Z" fill="#5D5D5D"/>
<path d="M220.125 75.0239H215.186V390.49H220.125V75.0239Z" fill="#5D5D5D"/>
<path d="M215.31 350.751C215.194 350.751 215.096 289.146 215.096 213.167C215.096 137.189 215.194 75.5674 215.31 75.5674C215.425 75.5674 215.524 137.164 215.524 213.167C215.524 289.171 215.425 350.751 215.31 350.751Z" fill="#263238"/>
<path d="M148.713 363.767H217.648C220.299 363.767 220.299 359.65 217.648 359.65H148.713C146.062 359.65 146.062 363.767 148.713 363.767Z" fill="#5D5D5D"/>
<path d="M150.152 299.956H214.921C217.572 299.956 217.572 295.839 214.921 295.839H150.152C147.501 295.839 147.501 299.956 150.152 299.956Z" fill="#5D5D5D"/>
<path d="M148.713 255.359H217.648C220.299 255.359 220.299 251.243 217.648 251.243H148.713C146.062 251.243 146.062 255.359 148.713 255.359Z" fill="#5D5D5D"/>
<path d="M148.713 220.181H217.648C220.299 220.181 220.299 216.065 217.648 216.065H148.713C146.062 216.065 146.062 220.181 148.713 220.181Z" fill="#5D5D5D"/>
<path d="M148.713 185.835H217.648C220.299 185.835 220.299 181.719 217.648 181.719H148.713C146.062 181.719 146.062 185.835 148.713 185.835Z" fill="#5D5D5D"/>
<path d="M149.395 332.837H214.921C217.572 332.837 217.572 328.72 214.921 328.72H149.395C146.743 328.72 146.743 332.837 149.395 332.837Z" fill="#5D5D5D"/>
<path d="M205.463 125.383L201.28 116.072C201.28 116.072 201.503 111.099 200.795 110.68C199.823 110.103 199.584 110.581 199.313 112.244L198.918 114.689C198.918 114.689 197.32 111.215 195.83 111.066C194.818 110.968 194.529 112.729 194.529 112.729C194.529 112.729 192.85 111.157 191.648 111.528C190.52 111.882 190.833 113.544 190.833 113.544C190.833 113.544 189.425 112.705 188.807 114.195C188.108 115.899 191.179 118.484 191.648 119.628C192.628 122.024 190.553 122.098 190.553 122.098C190.553 122.098 185.201 121.415 185.481 122.781C185.761 124.148 187.54 124.156 188.914 124.288C190.059 124.403 194.348 125.474 195.74 125.819C196.028 125.893 196.308 126.017 196.563 126.182L199.757 129.458L205.471 125.383H205.463Z" fill="#FFBE9D"/>
<path d="M203.297 339.233L203.108 363.141L190.215 363.297L190.347 339.349L203.297 339.233Z" fill="#FF725E"/>
<path d="M196.744 362.318C196.637 362.318 196.654 357.082 196.785 350.627C196.917 344.173 197.106 338.945 197.213 338.945C197.32 338.945 197.304 344.181 197.172 350.636C197.04 357.09 196.851 362.318 196.744 362.318Z" fill="#263238"/>
<path d="M190.256 355.641C190.256 355.641 190.346 355.435 190.593 355.123C190.84 354.81 191.219 354.373 191.754 353.904C192.289 353.435 192.989 352.933 193.854 352.529C194.71 352.126 195.756 351.846 196.867 351.871C199.098 351.904 200.959 353.015 201.873 354.118C202.342 354.662 202.638 355.172 202.803 355.534C202.968 355.896 203.025 356.11 203.001 356.119C202.926 356.16 202.63 355.312 201.675 354.308C200.753 353.303 198.983 352.299 196.867 352.266C194.759 352.233 193.006 353.278 191.935 354.118C190.849 354.983 190.313 355.682 190.256 355.641Z" fill="#263238"/>
<path opacity="0.3" d="M190.215 348.001L190.207 350.635H203.298V348.001H190.215Z" fill="black"/>
<path d="M190.215 363.297L190.223 360.803H203.132L203.108 363.141L190.215 363.297Z" fill="#E0E0E0"/>
<path d="M176.235 277.192L176.062 300.137L163.688 300.285L163.811 277.308L176.235 277.192Z" fill="#FF725E"/>
<path d="M169.952 299.347C169.845 299.347 169.87 294.325 169.994 288.134C170.117 281.943 170.306 276.921 170.405 276.921C170.512 276.921 170.488 281.943 170.364 288.142C170.241 294.333 170.051 299.355 169.952 299.355V299.347Z" fill="#263238"/>
<path d="M163.729 292.941C163.729 292.941 163.819 292.744 164.05 292.447C164.28 292.143 164.651 291.731 165.169 291.278C165.688 290.826 166.355 290.34 167.186 289.961C168.01 289.574 169.014 289.303 170.076 289.327C172.217 289.352 174.003 290.422 174.876 291.484C175.329 292.003 175.609 292.497 175.765 292.843C175.922 293.197 175.979 293.394 175.955 293.402C175.889 293.435 175.601 292.629 174.678 291.665C173.789 290.702 172.093 289.739 170.06 289.706C168.034 289.673 166.355 290.677 165.334 291.484C164.288 292.316 163.778 292.991 163.729 292.941Z" fill="#263238"/>
<path opacity="0.3" d="M163.688 285.606L163.68 288.134H176.235V285.606H163.688Z" fill="black"/>
<path d="M163.688 300.285L163.696 297.897H176.078L176.062 300.137L163.688 300.285Z" fill="#E0E0E0"/>
<path d="M178.599 123.424L178.929 123.341C179.917 121.555 181.925 120.443 183.959 120.336C185.992 120.229 188.026 121.069 189.549 122.419C190.611 123.358 191.451 124.527 192.513 125.465C193.575 126.404 194.999 127.104 196.383 126.807C196.555 127.326 195.584 127.63 195.65 128.174C195.675 128.429 195.946 128.602 196.201 128.651C196.572 128.725 196.959 128.635 197.338 128.651C197.716 128.659 198.144 128.841 198.243 129.211C198.293 129.392 198.243 129.582 198.194 129.763C197.774 131.376 197.099 132.973 195.946 134.175C194.785 135.377 193.073 136.126 191.435 135.822C190.125 135.575 189.03 134.719 187.993 133.879C186.017 132.298 184.041 130.709 182.074 129.129C181.16 128.396 180.238 127.655 179.554 126.717C178.863 125.778 178.426 124.593 178.607 123.44L178.599 123.424Z" fill="#263238"/>
<path d="M179.833 123.753C179.026 123.111 178.096 122.584 177.075 122.386C176.063 122.189 174.951 122.345 174.111 122.954C173.329 123.522 172.852 124.395 172.3 125.194C171.748 125.984 171.016 126.758 170.069 126.898C169.904 126.923 169.715 126.931 169.591 127.046C169.377 127.252 169.534 127.655 169.805 127.779C170.077 127.902 170.398 127.836 170.686 127.77C170.217 128.322 169.55 128.701 168.834 128.816C168.99 129.524 169.814 129.993 170.497 129.779C170.225 130.899 169.945 132.035 169.954 133.188C169.954 134.34 170.283 135.534 171.065 136.382C171.93 137.312 173.329 137.839 173.708 139.049" fill="#263238"/>
<path d="M188.141 164.438L172.729 164.241L174.449 151.101C174.449 151.101 173.395 150.879 173.321 145.157C173.247 139.444 172.992 129.729 172.992 129.729C179.603 126.889 187.235 127.844 192.932 132.24L193.78 132.891L188.141 164.438Z" fill="#FFBE9D"/>
<path d="M191.994 139.913C192.093 139.872 195.921 138.752 195.789 142.663C195.657 146.573 191.771 145.643 191.771 145.528C191.771 145.412 191.994 139.913 191.994 139.913Z" fill="#FFBE9D"/>
<path d="M173.658 139.098C173.559 139.057 170.085 138.118 170.208 142.029C170.332 145.939 174.226 145.009 174.226 144.894C174.226 144.779 173.658 139.106 173.658 139.106V139.098Z" fill="#FFBE9D"/>
<path d="M193.253 139.477C192.669 142.753 192.784 144.474 192.249 146.664C191.393 150.122 189.68 152.781 186.56 154.51C183.448 156.238 179.233 156.206 176.557 153.851C174.704 152.221 173.387 150.369 173.107 147.915C172.836 145.454 172.111 140.835 172.095 138.365C172.062 133.903 172.21 129.902 172.21 129.902L184.946 127.597L192.191 131.911L193.253 139.485V139.477Z" fill="#263238"/>
<path d="M180.121 156.486C180.105 156.576 181.101 156.823 182.352 156.683C183.604 156.551 184.526 156.09 184.485 156C184.452 155.901 183.505 156.197 182.311 156.321C181.117 156.461 180.138 156.378 180.121 156.477V156.486Z" fill="#263238"/>
<path d="M192.643 145.05C193.014 141.691 193.261 137.855 193.779 134.315C193.977 132.99 194.446 131.071 194.331 129.738C194.216 128.396 193.845 128.807 193.252 127.589C192.511 126.074 189.679 125.062 188.024 124.724C186.37 124.395 186.164 122.954 184.896 124.074C183.974 122.682 182.146 121.966 180.524 122.337C178.902 122.715 177.585 124.164 177.354 125.819C176.449 124.955 174.95 124.798 173.888 125.449C172.818 126.099 172.275 127.498 172.621 128.7C171.707 128.849 170.883 129.491 170.513 130.339C170.142 131.187 170.225 132.224 170.727 132.998C171.32 133.903 172.382 134.406 173.032 135.278C173.781 136.274 173.864 137.732 173.23 138.81" fill="#263238"/>
<path d="M176.234 144.351C176.152 144.334 175.971 145.956 176.67 147.784C177.354 149.628 178.564 150.723 178.613 150.648C178.696 150.574 177.658 149.414 177.008 147.652C176.333 145.898 176.349 144.342 176.234 144.342V144.351Z" fill="#455A64"/>
<path d="M174.523 141.502C174.441 141.461 173.947 142.853 174.276 144.598C174.581 146.343 175.536 147.471 175.602 147.405C175.692 147.348 174.918 146.187 174.63 144.532C174.317 142.885 174.63 141.519 174.531 141.502H174.523Z" fill="#455A64"/>
<path d="M190.561 127.984C189.59 126.461 188.264 125.095 186.593 124.428C184.914 123.761 182.855 123.901 181.48 125.07" fill="#263238"/>
<path d="M190.24 136.637C190.174 136.621 190.24 136.184 190.363 135.485C190.479 134.785 190.668 133.83 190.66 132.776C190.652 131.722 190.388 130.792 190.075 130.183C189.771 129.565 189.458 129.252 189.507 129.195C189.54 129.154 189.943 129.401 190.347 130.018C190.759 130.636 191.096 131.64 191.104 132.76C191.113 133.879 190.866 134.859 190.668 135.55C190.462 136.234 190.289 136.645 190.232 136.629L190.24 136.637Z" fill="#455A64"/>
<path d="M187.606 137.93C187.491 137.864 187.812 137.09 188.116 136.127C188.429 135.155 188.619 134.34 188.742 134.357C188.866 134.365 188.874 135.246 188.545 136.258C188.224 137.279 187.713 137.987 187.606 137.93Z" fill="#455A64"/>
<path d="M175.378 136.925C175.378 136.925 174.901 136.48 174.506 135.525C174.111 134.587 173.814 133.122 174.127 131.557C174.44 129.993 175.271 128.758 176.004 128.042C176.737 127.318 177.321 127.046 177.346 127.087C177.387 127.145 176.877 127.507 176.235 128.256C175.592 128.997 174.86 130.182 174.572 131.64C174.283 133.105 174.506 134.48 174.81 135.41C175.115 136.349 175.453 136.876 175.387 136.917L175.378 136.925Z" fill="#455A64"/>
<path d="M189.294 122.386C189.261 122.444 188.792 122.197 188.034 121.859C187.277 121.53 186.198 121.094 184.963 121.102C183.72 121.102 182.699 121.67 182.181 122.279C181.637 122.88 181.538 123.415 181.464 123.391C181.415 123.391 181.398 122.806 181.925 122.074C182.189 121.72 182.584 121.349 183.111 121.077C183.638 120.806 184.28 120.658 184.955 120.649C186.314 120.633 187.441 121.16 188.174 121.571C188.915 121.999 189.319 122.337 189.286 122.386H189.294Z" fill="#455A64"/>
<path d="M171.889 126.008C171.84 125.992 171.93 125.556 172.342 124.971C172.745 124.395 173.519 123.703 174.573 123.399C175.635 123.094 176.656 123.259 177.298 123.53C177.957 123.802 178.27 124.115 178.237 124.164C178.196 124.222 177.833 124.008 177.199 123.835C176.574 123.662 175.643 123.563 174.697 123.835C173.75 124.115 173.025 124.691 172.589 125.177C172.144 125.663 171.955 126.041 171.889 126.008Z" fill="#455A64"/>
<path d="M176.088 140.374C176.072 140.317 176.714 140.152 177.743 139.691C178.764 139.23 180.172 138.44 181.514 137.139L182.255 136.423L181.851 137.378C181.613 137.946 181.415 138.572 181.3 139.238C181.234 139.559 181.184 139.963 181.3 140.021C181.382 140.119 181.736 139.946 182.024 139.741C183.062 139.074 183.942 138.259 184.642 137.419L185.317 136.604L185.005 137.608C184.692 138.613 184.404 139.559 184.148 140.407L183.852 140.226C185.638 138.53 186.256 137.024 186.347 137.081C186.379 137.098 186.248 137.477 185.91 138.102C185.564 138.728 184.996 139.592 184.099 140.49L183.621 140.967L183.803 140.309C184.041 139.452 184.313 138.506 184.593 137.493L184.963 137.691C184.247 138.572 183.341 139.428 182.263 140.119C182.107 140.218 181.958 140.325 181.761 140.416C181.58 140.498 181.283 140.572 181.028 140.383C180.781 140.185 180.765 139.897 180.773 139.708C180.789 139.502 180.822 139.337 180.855 139.164C180.987 138.465 181.193 137.814 181.464 137.221L181.802 137.452C180.394 138.769 178.912 139.535 177.842 139.938C176.763 140.342 176.096 140.424 176.088 140.391V140.374Z" fill="#455A64"/>
<path d="M183.53 125.301C183.283 124.831 182.813 124.502 182.295 124.346C181.784 124.198 181.233 124.214 180.714 124.305C179.43 124.535 178.228 125.227 177.396 126.231C177.207 126.461 177.034 126.815 177.24 127.03C177.347 127.145 177.52 127.169 177.676 127.178C179.594 127.334 181.529 127.268 183.431 126.972" fill="#263238"/>
<path d="M158.371 240.104C158.626 240.565 161.747 251.004 168.629 252.774C175.512 254.544 196.951 253.367 197.544 252.774C198.137 252.182 204.435 248.708 207.481 241.496C210.527 234.284 188.644 221.696 188.644 221.696L158.371 240.104Z" fill="#263238"/>
<path d="M211.104 242.928L211.302 248.749C211.302 249.646 211.195 254.157 211.096 255.047L208.42 291.196C208.157 291.089 206.601 313.449 206.461 321.262C206.329 328.803 205.703 349.318 205.703 349.318H188.109L186.924 315.359L186.183 278.584L185.088 252.857L211.104 242.92V242.928Z" fill="#263238"/>
<path d="M158.371 234.35C158.371 234.35 158.758 234.926 158.667 242.928C158.602 249.045 162.315 286.75 162.315 286.75L177.348 286.297L180.353 248.543L158.379 234.358L158.371 234.35Z" fill="#263238"/>
<path d="M186.479 253.31C186.479 253.31 186.034 253.4 185.219 253.491C184.404 253.573 183.227 253.688 181.761 253.779C178.847 253.976 174.739 254.034 170.326 253.112C165.88 252.174 162.348 249.646 160.627 247.25C159.746 246.057 159.236 244.962 158.981 244.18C158.833 243.793 158.783 243.472 158.725 243.266C158.676 243.052 158.66 242.945 158.676 242.936C158.783 242.887 159.063 244.772 160.866 247.069C162.611 249.366 166.078 251.787 170.416 252.7C174.772 253.614 178.839 253.606 181.753 253.482L185.219 253.334C186.034 253.301 186.495 253.293 186.495 253.326L186.479 253.31Z" fill="#455A64"/>
<path d="M204.294 252.585C204.302 252.643 203.569 252.849 202.367 253.096C201.157 253.342 199.478 253.606 197.609 253.771C195.732 253.935 194.036 253.968 192.801 253.935C191.574 253.902 190.808 253.828 190.816 253.771C190.816 253.705 191.574 253.68 192.801 253.631C194.027 253.581 195.715 253.499 197.576 253.343C199.436 253.178 201.108 252.964 202.326 252.799C203.536 252.634 204.294 252.527 204.302 252.585H204.294Z" fill="#455A64"/>
<path d="M203.785 259.204C203.785 259.262 202.805 259.179 201.249 258.949C199.693 258.718 197.544 258.315 195.214 257.739C192.876 257.162 190.793 256.52 189.303 256.002C187.813 255.483 186.915 255.104 186.932 255.047C186.957 254.989 187.887 255.269 189.394 255.713C190.9 256.158 192.983 256.751 195.313 257.327C197.635 257.903 199.759 258.348 201.298 258.652C202.838 258.957 203.793 259.146 203.785 259.204Z" fill="#455A64"/>
<path d="M199.601 132.562C199.675 132.331 197.428 128.717 197.428 128.717C197.428 128.717 202.285 123.572 205.208 123.72L207.982 127.565L199.601 132.562Z" fill="white"/>
<path d="M222.588 148.739C221.526 145.429 208.213 126.223 208.213 126.223C203.314 126.223 198.523 132.175 198.523 132.175L207.983 152.098L198.037 161.252L209.267 174.515C209.267 174.515 216.356 165.649 218.48 162.43C223.214 155.276 223.65 152.048 222.588 148.731V148.739Z" fill="#FF725E"/>
<path opacity="0.3" d="M157.941 239.043C157.941 239.043 159.053 246.444 165.244 248.634C171.435 250.823 185.736 248.634 185.736 248.634L187.399 243.241L189.177 249.605L211.3 246.765L210.987 241.718L187.539 231.979L157.941 239.043Z" fill="black"/>
<path d="M206.196 214.386C205.726 211.76 205.125 210.442 205.01 208.853C204.656 204.136 204.689 192.825 205.01 191.376C205.43 189.482 209.275 174.507 209.275 174.507L207.966 162.915L191.632 160.166L190.487 157.54C190.487 157.54 179.587 154.716 172.687 158.42L171.494 161.236L167.237 162.306C166.595 162.561 163.261 163.492 160.733 164.175C157.917 164.941 155.563 166.884 154.328 169.526C153.949 170.341 153.562 171.304 153.183 172.432C152.055 175.775 145.568 194.249 145.28 199.872C144.942 206.449 150.771 206.68 154.311 205.848C157.753 205.033 161.779 197.04 161.779 197.04L164.018 212.624C164.018 212.624 163.549 215.917 162.462 218.881C160.288 224.808 157.16 236.276 157.16 236.276C158.387 240.096 162.816 246.155 165.129 247.003C167.451 247.843 182.97 247.168 182.97 247.168L187.54 235.017L191.763 247.785L213.787 244.352L206.196 214.386Z" fill="#FF725E"/>
<path d="M187.539 209.891C187.605 209.99 184.435 212.089 180.458 214.567C176.482 217.053 173.213 218.988 173.147 218.881C173.082 218.782 176.251 216.683 180.228 214.205C184.196 211.718 187.473 209.792 187.531 209.891H187.539Z" fill="#263238"/>
<path d="M181.735 216.296C181.8 216.395 178.425 218.634 174.21 221.301C169.986 223.969 166.52 226.043 166.454 225.944C166.388 225.846 169.764 223.606 173.979 220.939C178.203 218.272 181.669 216.197 181.735 216.296Z" fill="#263238"/>
<path d="M199.157 198.842C199.256 198.884 198.317 200.901 196.514 202.934C194.719 204.976 192.834 206.153 192.776 206.062C192.694 205.955 194.439 204.646 196.193 202.646C197.963 200.662 199.05 198.768 199.157 198.834V198.842Z" fill="#263238"/>
<path d="M199.601 200.917C199.65 200.942 199.387 201.584 198.86 202.572C198.333 203.56 197.526 204.877 196.514 206.252C195.501 207.627 194.472 208.787 193.69 209.578C192.907 210.368 192.372 210.813 192.331 210.771C192.241 210.681 194.175 208.722 196.176 205.997C198.185 203.28 199.494 200.859 199.609 200.917H199.601Z" fill="#263238"/>
<path d="M200.112 221.12C200.054 221.095 200.301 220.264 200.68 218.922C201.067 217.58 201.577 215.719 202.063 213.637C202.541 211.562 202.903 209.66 203.15 208.285C203.397 206.911 203.545 206.054 203.603 206.063C203.66 206.063 203.619 206.935 203.446 208.335C203.273 209.726 202.96 211.644 202.475 213.735C201.989 215.826 201.429 217.687 200.968 219.012C200.507 220.338 200.161 221.136 200.112 221.12Z" fill="#263238"/>
<path d="M208.221 172.696C208.105 172.762 206.648 170.226 204.425 167.402C202.219 164.562 200.119 162.529 200.21 162.438C200.251 162.397 200.819 162.858 201.675 163.681C202.532 164.504 203.643 165.715 204.763 167.139C205.874 168.571 206.772 169.946 207.364 170.975C207.957 172.004 208.262 172.671 208.212 172.696H208.221Z" fill="#263238"/>
<path d="M211.753 166.834C211.638 166.908 210.633 164.883 208.493 163.237C206.377 161.557 204.17 161.08 204.212 160.948C204.22 160.899 204.78 160.948 205.644 161.228C206.509 161.5 207.653 162.043 208.756 162.899C209.851 163.755 210.658 164.743 211.135 165.509C211.613 166.283 211.802 166.81 211.753 166.834Z" fill="#263238"/>
<path d="M164.009 212.624C163.894 212.64 162.577 204.12 161.062 193.598C159.555 183.069 158.419 174.532 158.542 174.515C158.658 174.499 159.975 183.011 161.49 193.541C162.996 204.062 164.133 212.607 164.009 212.624Z" fill="#263238"/>
<path d="M191.846 160.232C191.846 160.298 190.693 160.215 188.832 160.149C186.98 160.075 184.411 160.042 181.587 160.182C178.764 160.322 176.211 160.619 174.375 160.874C172.539 161.129 171.403 161.327 171.387 161.261C171.387 161.228 171.658 161.146 172.161 161.022C172.663 160.899 173.404 160.742 174.326 160.577C176.162 160.24 178.722 159.902 181.571 159.762C184.42 159.623 186.997 159.705 188.857 159.853C189.788 159.927 190.537 160.009 191.055 160.084C191.574 160.158 191.854 160.215 191.854 160.24L191.846 160.232Z" fill="#263238"/>
<g opacity="0.3">
<path opacity="0.3" d="M161.853 197.624C160.972 191.038 159.778 184.452 158.897 177.866C156.518 184.353 157.835 191.993 161.853 197.624Z" fill="black"/>
</g>
<g opacity="0.3">
<path opacity="0.3" d="M207.793 151.843C209.324 150.377 211.325 149.422 213.424 149.151C214.429 149.019 215.54 149.077 216.298 149.752C216.462 149.9 216.619 150.106 216.586 150.32C216.553 150.542 216.339 150.698 216.125 150.748C215.902 150.789 215.68 150.748 215.458 150.707C212.93 150.246 210.189 150.995 207.793 151.909" fill="black"/>
</g>
<g opacity="0.3">
<path opacity="0.3" d="M172.317 161.335C174.4 161.969 176.639 161.845 178.812 161.664C182.657 161.335 186.486 160.833 190.281 160.166C184.172 159.343 177.907 159.688 171.93 161.203" fill="black"/>
</g>
<g opacity="0.3">
<path opacity="0.3" d="M171.568 223.005C180.229 220.577 188.158 215.604 194.11 208.862C187.269 213.217 178.311 218.214 171.568 223.005Z" fill="black"/>
</g>
<path d="M213.161 150.863C213.136 150.986 211.794 150.641 210.23 151.093C208.649 151.522 207.694 152.518 207.603 152.427C207.562 152.394 207.743 152.09 208.171 151.719C208.591 151.34 209.275 150.921 210.114 150.69C210.954 150.46 211.753 150.46 212.304 150.558C212.864 150.657 213.177 150.822 213.161 150.871V150.863Z" fill="#263238"/>
<path opacity="0.1" d="M132.486 141.338L124.903 141.683C122.516 144.515 119.371 146.738 115.649 147.965C104.946 151.488 93.56 145.479 90.2174 134.529C86.883 123.58 92.852 111.848 103.563 108.325C114.266 104.801 125.652 110.811 128.995 121.76C130.386 126.329 130.156 131.039 128.633 135.229L132.486 141.346V141.338Z" fill="white"/>
<path d="M132.485 141.338C132.485 141.338 132.387 141.198 132.214 140.934C132.033 140.654 131.777 140.268 131.456 139.765C130.789 138.728 129.818 137.221 128.558 135.27H128.715V135.287C128.682 135.328 128.624 135.344 128.575 135.312C128.542 135.287 128.525 135.237 128.542 135.196C129.439 132.652 130.147 129.129 129.571 125.045C129.299 123.012 128.649 120.871 127.62 118.764C126.591 116.656 125.133 114.598 123.215 112.82C121.305 111.05 118.942 109.568 116.266 108.638C113.591 107.699 110.602 107.312 107.589 107.65C104.584 108.012 101.562 109.091 98.8947 110.844C97.5362 111.692 96.3342 112.787 95.1898 113.948C94.1195 115.175 93.0739 116.467 92.2918 117.932C91.4438 119.348 90.8757 120.888 90.3735 122.427C89.9701 123.992 89.6408 125.564 89.5831 127.153C89.402 130.314 89.9454 133.434 91.0651 136.225C93.288 141.865 97.9479 145.89 102.814 147.619C107.712 149.406 112.701 148.978 116.505 147.52C120.358 146.063 123.083 143.709 124.845 141.634C124.862 141.609 124.886 141.601 124.911 141.601C127.348 141.519 129.225 141.453 130.518 141.404C131.143 141.387 131.629 141.371 131.983 141.354C132.312 141.346 132.494 141.346 132.494 141.346C132.494 141.346 132.345 141.362 132.024 141.379L130.592 141.47C129.283 141.544 127.381 141.651 124.911 141.791L124.977 141.758C123.223 143.873 120.482 146.286 116.587 147.792C112.743 149.299 107.671 149.76 102.674 147.965C100.187 147.076 97.7585 145.643 95.6673 143.684C93.5761 141.725 91.7978 139.247 90.6699 136.39C89.5255 133.55 88.9657 130.364 89.1468 127.137C89.2044 125.523 89.542 123.909 89.9536 122.312C90.4641 120.748 91.0486 119.176 91.9131 117.727C92.7117 116.228 93.7737 114.911 94.8687 113.66C96.0378 112.474 97.2728 111.363 98.6559 110.498C101.381 108.712 104.46 107.617 107.539 107.255C110.618 106.909 113.673 107.321 116.398 108.284C119.131 109.247 121.527 110.762 123.47 112.573C125.413 114.384 126.887 116.492 127.924 118.64C128.962 120.789 129.612 122.963 129.867 125.029C130.427 129.17 129.67 132.726 128.731 135.279L128.566 135.196C128.599 135.147 128.657 135.13 128.698 135.163C128.706 135.163 128.723 135.18 128.723 135.196C129.958 137.205 130.905 138.753 131.555 139.815L132.263 140.984C132.42 141.247 132.485 141.371 132.485 141.371V141.338Z" fill="#263238"/>
<path d="M103.168 124.823L109.211 117.159L115.254 124.724L103.168 124.823Z" fill="#FF725E"/>
<path d="M112.182 138.835L106.683 138.876L106.51 123.58L112.009 123.539L112.182 138.835Z" fill="#FF725E"/>
</g>
<defs>
<clipPath id="clip0_1242_91">
<rect width="370" height="391" fill="white"/>
</clipPath>
</defs>
</svg>
