<svg width="598" height="381" viewBox="0 0 598 381" fill="none" xmlns="http://www.w3.org/2000/svg">
<g clip-path="url(#clip0_1312_3162)">
<path opacity="0.1" d="M70.5889 322.14C68.1687 320.422 65.8446 318.572 63.6269 316.601C44.5904 299.735 22.5753 281.094 10.6697 258.104C-19.0542 200.779 18.0318 128.71 64.0982 92.7247C71.1313 87.2479 78.5556 82.1971 86.8335 78.9217C107.186 70.8529 127.805 75.4509 148.718 73.7733C168.181 72.211 184.915 57.2362 201.524 48.4751C223.196 37.1051 247.691 32.2111 272.077 34.3791C298.342 36.758 323.843 47.3122 350.161 45.7411C368.771 44.6315 386.402 37.5302 404.212 32.0534C435.545 22.4046 467.483 26.7718 497.918 38.1694C573.558 66.4856 612.351 158.118 593.136 233.986C589.1 249.902 585.739 266.484 577.968 281.121C571.521 293.246 559.465 300.037 547.532 306.055C538.428 310.644 531.821 318.598 523.455 324.243C513.336 331.078 501.226 333.928 490.779 340.221C478.966 347.245 465.589 351.225 451.852 351.805C438.213 352.231 424.858 348.308 411.325 346.55C371.509 341.393 329.204 354.85 291.825 340.23C279.252 335.312 267.818 327.35 254.587 324.527C238.343 321.057 221.609 325.752 205.543 329.995C181.536 336.324 157.049 341.739 132.26 341.056C110.449 340.425 88.2294 334.7 70.5889 322.14Z" fill="#F5E7DD"/>
<path d="M307.037 82.1347C307.253 80.9748 307.724 79.877 308.415 78.9202C309.107 77.9634 310.002 77.1714 311.036 76.6011C312.071 76.0307 313.219 75.6963 314.399 75.6217C315.578 75.5471 316.76 75.7343 317.858 76.1697V76.1697C318.956 76.6051 320.138 76.7923 321.317 76.7177C322.497 76.6431 323.645 76.3086 324.679 75.7383C325.714 75.168 326.609 74.376 327.301 73.4192C327.992 72.4624 328.463 71.3646 328.679 70.2046L328.883 69.1395C329.098 67.9787 329.568 66.8799 330.259 65.9221C330.95 64.9642 331.845 64.1712 332.88 63.5999C333.914 63.0287 335.063 62.6935 336.243 62.6183C337.423 62.5432 338.605 62.7301 339.704 63.1655L340.495 63.4762C341.538 63.8913 342.656 64.0828 343.778 64.0383C344.899 63.9938 345.999 63.7143 347.005 63.2179C348.011 62.7214 348.902 62.0192 349.618 61.1569C350.335 60.2945 350.862 59.2913 351.165 58.2124" stroke="#242320" stroke-miterlimit="10"/>
<path d="M139.098 54.0584L142.058 39.2612L156.88 42.2171L159.841 27.4287L174.663 30.3846" stroke="#242320" stroke-miterlimit="10"/>
<path d="M564.47 268.934L528.904 297.774" stroke="#242320" stroke-miterlimit="10"/>
<path d="M50.7429 205.253L19.623 231.883" stroke="#242320" stroke-miterlimit="10"/>
<path d="M564.471 275.582L546.164 290.397" stroke="#242320" stroke-miterlimit="10"/>
<path d="M217.618 55.2388L183.039 84.8332" stroke="#242320" stroke-miterlimit="10"/>
<path d="M533.768 112.005C533.964 114.108 529.856 117.126 528.389 118.218C526.442 119.638 525.437 122.017 523.73 123.722C522.023 125.426 518.742 126.163 517.417 124.148C516.412 122.612 517.266 120.482 518.582 119.195C519.898 117.907 521.623 117.091 522.876 115.75C524.557 113.975 528.851 109.537 531.661 110.274C533.101 110.646 533.697 111.268 533.768 112.005Z" stroke="#242320" stroke-miterlimit="10"/>
<path d="M227.495 65.1008C227.496 66.0773 227.208 67.0324 226.666 67.8452C226.124 68.658 225.352 69.2919 224.449 69.6668C223.546 70.0417 222.552 70.1407 221.592 69.9513C220.632 69.7619 219.751 69.2925 219.059 68.6027C218.366 67.9128 217.895 67.0334 217.703 66.0758C217.512 65.1182 217.609 64.1254 217.983 63.2231C218.357 62.3207 218.99 61.5494 219.804 61.0067C220.617 60.464 221.573 60.1743 222.551 60.1743C223.861 60.1743 225.117 60.6931 226.044 61.6167C226.97 62.5404 227.492 63.7934 227.495 65.1008Z" fill="#242320"/>
<path d="M543.647 127.92C546.102 127.92 548.093 125.933 548.093 123.482C548.093 121.031 546.102 119.043 543.647 119.043C541.192 119.043 539.201 121.031 539.201 123.482C539.201 125.933 541.192 127.92 543.647 127.92Z" fill="#242320"/>
<path d="M424.307 39.643L437.644 26.3281L450.981 39.643L464.318 26.3281L477.655 39.643" stroke="#242320" stroke-miterlimit="10"/>
<path d="M576.998 183.878C579.123 184.624 581.559 184.686 583.355 183.39C586.103 181.393 586.405 177.354 586.405 174.105C583.222 177.318 580.11 180.594 576.998 183.878Z" fill="#242320"/>
<path d="M23.3124 199.554C22.9382 198.295 22.8599 196.966 23.0835 195.671C23.3071 194.377 23.8266 193.151 24.6017 192.089C25.3396 191.051 26.2999 190.118 26.6289 188.902C27.0201 187.464 26.46 185.964 26.3977 184.464C26.3814 182.672 27.0582 180.943 28.2872 179.636C29.5162 178.33 31.2026 177.548 32.9951 177.452C33.3356 177.417 33.6782 177.492 33.9732 177.665C34.2091 177.855 34.3825 178.112 34.4711 178.401C35.627 181.384 33.2797 184.695 33.8309 187.846C34.2933 190.429 36.5784 192.284 37.512 194.734C37.9556 195.935 38.0692 197.233 37.8409 198.493C37.6126 199.752 37.0508 200.928 36.2138 201.898C32.6217 205.937 25.0462 204.8 23.3124 199.554Z" stroke="#242320" stroke-miterlimit="10"/>
<path d="M333.748 26.9314C331.544 26.2376 329.188 26.178 326.952 26.7595C324.715 27.341 322.688 28.54 321.103 30.2191C319.517 31.8981 318.438 33.9892 317.989 36.2526C317.539 38.5159 317.738 40.8599 318.562 43.0157" fill="#242320"/>
<path d="M42.848 256.4C46.609 252.432 50.3612 248.411 54.2379 244.585C53.2865 242.561 50.1478 241.461 48.2362 242.748C45.5687 244.523 47.5871 248.393 44.9997 250.586C44.4076 250.992 43.8619 251.463 43.3726 251.988C42.8117 252.901 42.5477 253.964 42.6168 255.033C42.5611 255.46 42.6162 255.894 42.7768 256.293L42.848 256.4Z" fill="#242320"/>
<path d="M279.27 158.695C278.869 158.494 278.417 158.417 277.972 158.473C277.225 158.58 276.585 159.166 275.82 159.175C275.174 159.09 274.561 158.839 274.042 158.447C273.779 158.25 273.469 158.126 273.142 158.087C272.816 158.048 272.485 158.095 272.183 158.225C271.908 158.385 271.721 158.678 271.428 158.811C271.169 158.89 270.893 158.895 270.632 158.824C270.371 158.754 270.135 158.61 269.952 158.411C269.588 158.009 269.158 157.673 268.68 157.417C268.281 157.327 267.867 157.33 267.469 157.425C267.071 157.521 266.701 157.706 266.386 157.967C263.994 159.539 260.589 159.379 259.931 162.796C259.555 164.391 259.776 166.067 260.553 167.51C261.683 169.374 263.932 170.173 266.066 170.696C270.344 171.507 274.695 171.867 279.048 171.77C281.27 171.77 283.333 171.193 284.685 169.374C285.621 167.845 286.033 166.053 285.858 164.27C285.858 162.77 286.143 160.444 284.694 159.512C284.292 159.263 283.826 159.134 283.353 159.142C282.88 159.15 282.42 159.294 282.026 159.556C281.851 159.718 281.636 159.831 281.404 159.885C281.179 159.871 280.965 159.787 280.79 159.645C280.31 159.288 279.802 158.97 279.27 158.695Z" fill="#F09F92"/>
<path d="M333.357 188.228C334.898 190.3 336.244 192.511 337.376 194.832C338.834 197.832 339.954 201.107 339.714 204.427C339.163 211.963 332.059 217.192 325.283 220.565C314.675 225.803 303.248 229.195 291.496 230.595C287.326 231.101 282.462 232.877 278.426 231.811C274.22 230.702 270.708 226.335 267.756 223.388C265.355 220.982 263.053 218.195 260.136 216.375C256.82 214.307 254.499 215.186 251.174 214.103C238.61 210.011 239.57 190.136 240.113 179.892C240.806 166.578 247.555 155.526 262.581 159.068C268.939 160.568 274.647 164.021 280.809 166.169C291.692 169.977 303.74 169.64 314.498 173.803C322.015 176.75 328.55 181.749 333.357 188.228Z" fill="#A2CBE0"/>
<path d="M423.098 166.142C423.418 165.361 423.729 164.562 424.04 163.764C428.059 153.307 422.262 142.46 410.41 146.516C406.481 147.736 402.659 149.277 398.984 151.123C394.618 153.458 390.769 156.636 386.536 159.237C382.02 161.858 377.319 164.149 372.47 166.089L357.07 172.685C351.611 175.019 346.107 177.371 340.292 178.605C338.995 178.786 337.742 179.201 336.593 179.83C334.344 181.313 333.766 184.517 334.637 187.065C336.531 192.55 342.239 196.909 347.565 198.551C366.282 204.329 387.79 202.616 403.937 191.529C413.353 185.076 418.91 176.306 423.098 166.142Z" fill="#D9664A"/>
<path d="M273.091 244.745C266.662 240.253 264.813 231.687 263.835 223.92C263.47 220.991 263.159 217.973 263.932 215.124C265.426 209.674 270.548 206.016 275.705 203.7C281.04 201.303 298.947 180.15 304.753 180.763C310.239 181.348 303.375 203.442 307.812 206.735C311.009 208.967 313.67 211.881 315.6 215.266C319.557 222.704 318.063 232.087 313.92 239.428C310.897 244.754 303.668 255.778 296.626 255.521C292.741 255.379 289.237 251.322 285.805 249.804C281.609 247.932 276.932 247.426 273.091 244.745Z" fill="#E39B1E"/>
<path d="M345.965 151.603C346.561 151.852 347.174 152.074 347.743 152.295C361.498 152.402 375.244 152.162 388.893 150.254C389.008 147.076 388.528 143.934 386.296 141.972C384.216 140.152 381.753 139.611 380.072 137.099C377.183 132.811 378.765 126.837 376.622 122.124C373.066 114.277 364.744 118.449 359.595 113.602C355.221 109.502 354.563 103.386 347.974 101.743C335.464 98.6366 307.963 100.092 307.003 118.609C306.807 122.373 307.145 126.465 305.144 129.589C304.051 131.302 302.317 132.572 301.588 134.48C300.281 137.8 302.246 142.141 300.121 144.955C299.685 145.531 299.116 145.975 298.672 146.543C297.785 147.85 297.337 149.404 297.391 150.982C302.593 151.645 307.832 151.977 313.076 151.976C323.603 151.807 334.166 152.074 344.72 152.189C344.752 152.061 344.812 151.943 344.896 151.841C344.979 151.739 345.084 151.658 345.203 151.602C345.323 151.546 345.453 151.517 345.584 151.517C345.716 151.517 345.846 151.547 345.965 151.603Z" fill="#1A2732"/>
<path d="M383.219 186.763C379.067 181.028 364.974 173.226 357.434 170.67C345.084 166.489 329.569 167.288 317.734 172.809C305.419 178.552 301.907 182.049 294.768 193.598C326.537 193.598 351.922 201.32 383.61 203.575C381.592 196.27 387.372 192.541 383.219 186.763Z" fill="#F09F92"/>
<mask id="mask0_1312_3162" style="mask-type:alpha" maskUnits="userSpaceOnUse" x="0" y="26" width="599" height="326">
<path d="M70.5889 322.14C68.1687 320.422 65.8446 318.572 63.6269 316.601C44.5904 299.735 22.5753 281.094 10.6697 258.104C-19.0542 200.779 18.0318 128.71 64.0982 92.7247C71.1313 87.2479 78.5556 82.1971 86.8335 78.9217C107.186 70.8529 127.805 75.4509 148.718 73.7733C168.181 72.211 184.915 57.2362 201.524 48.4751C223.196 37.1051 247.691 32.2111 272.077 34.3791C298.342 36.758 323.843 47.3122 350.161 45.7411C368.771 44.6315 386.402 37.5302 404.212 32.0534C435.545 22.4046 467.483 26.7718 497.918 38.1694C573.558 66.4856 612.351 158.118 593.136 233.986C589.1 249.902 585.739 266.484 577.968 281.121C571.521 293.246 559.465 300.037 547.532 306.055C538.428 310.644 531.821 318.598 523.455 324.243C513.336 331.078 501.226 333.928 490.779 340.221C478.966 347.245 465.589 351.225 451.852 351.805C438.213 352.231 424.858 348.308 411.325 346.55C371.509 341.393 329.204 354.85 291.825 340.23C279.252 335.312 267.818 327.35 254.587 324.527C238.343 321.057 221.609 325.752 205.543 329.995C181.536 336.324 157.049 341.739 132.26 341.056C110.449 340.425 88.2294 334.7 70.5889 322.14Z" fill="#F5E7DD"/>
</mask>
<g mask="url(#mask0_1312_3162)">
<path d="M408.871 226.113C412.143 224.408 415.575 222.003 416.1 218.47C416.509 215.718 415.006 213.082 413.432 210.747C406.461 200.459 397.366 191.779 386.758 185.289C382.757 182.84 379.645 179.076 375.395 181.135C357.114 190.012 335.579 191.521 316.062 186.106C311.67 184.89 309.892 182.671 306.993 179.475C306.825 179.243 306.579 179.079 306.3 179.014C306.086 179.012 305.877 179.07 305.695 179.182C295.408 184.295 289.486 195.861 287.806 206.895C285.903 219.322 281.902 231.43 283.938 244.239C284.027 245.262 284.356 246.251 284.898 247.124C285.578 247.913 286.394 248.574 287.308 249.076C294.759 254.03 292.74 262.684 292.358 270.336C291.878 279.84 291.445 289.349 291.06 298.865C290.663 308.783 290.304 318.701 289.984 328.619C289.868 332.17 288.063 340.257 289.548 343.443C291.22 346.994 293.994 346.452 298.066 346.941C337.282 351.608 376.748 353.866 416.242 353.705C417.54 353.705 406.764 317.737 407.004 314.399C407.184 311.536 406.688 308.671 405.556 306.035C404.424 303.398 402.688 301.064 400.486 299.22C397.934 297.125 394.733 295.67 393.017 292.82C390.643 288.906 391.915 283.722 390.163 279.505C387.683 273.478 380.338 271.516 374.799 268.055C373.495 267.343 372.4 266.302 371.625 265.037C370.965 263.455 370.727 261.731 370.931 260.03C371.305 248.899 376.026 241.07 376.399 229.939C382.881 230.356 383.699 230.826 389.941 231.439C396.618 232.042 403.136 229.086 408.871 226.113Z" fill="#E39B1E"/>
<path d="M189.529 371.324C182.771 364.667 180.638 354.636 180.175 345.165C179.478 330.407 182.084 315.678 187.804 302.052C190.276 296.175 193.459 290.37 198.474 286.385C204.333 281.707 211.98 280.038 219.324 278.511C228.633 276.585 237.871 274.073 247.341 273.07C257.317 272.013 256.579 278.032 264.181 282.923C272.815 288.488 283.636 294.897 284.525 306.543C284.916 311.479 283.12 316.991 285.929 321.065C287.21 322.921 289.246 324.101 290.838 325.708C292.613 327.582 293.768 329.957 294.143 332.509C294.518 335.062 294.097 337.668 292.936 339.972C292.047 341.623 290.766 343.132 290.437 344.988C289.637 349.515 294.883 353.34 294.465 357.921C294.216 360.717 291.798 362.945 289.13 363.85C286.463 364.756 283.796 364.365 281.217 365.217C278.639 366.069 276.14 368.067 273.446 369.061C270.939 369.993 246.443 377.343 246.461 378.452C246.381 367.863 234.902 360.362 233.559 349.852C230.545 356.252 227.557 362.67 224.525 369.07C222.516 373.322 221.253 380.068 215.767 380.867C212.647 381.319 209.543 380.157 206.592 379.02C200.056 376.508 194.908 376.624 189.529 371.324Z" fill="#856096"/>
<path d="M283.637 252.512C282.686 248.073 281.503 243.635 280.818 239.09C277.591 217.636 284.66 194.61 272.914 174.975C265.312 162.264 251.45 155.5 236.913 154.798C225.487 154.239 203.268 155.784 194.981 164.563C184.391 175.818 185.103 200.85 184.453 215.061C184.293 216.15 184.47 217.262 184.96 218.248C185.396 218.932 186.739 219.136 187.45 219.233C187.539 219.233 179.332 270.957 177.892 275.688C176.22 281.165 174.139 286.598 173.233 292.27C172.326 297.942 173.499 303.268 173.09 308.878C172.806 312.677 172.575 316.601 173.819 320.204C177.171 329.969 189.21 333.155 199.48 333.954C202.147 334.158 204.761 334.292 207.411 334.371C214.852 334.574 222.085 331.904 227.603 326.915C230.484 324.305 232.28 320.027 233.827 316.521C235.562 312.189 236.641 307.624 237.028 302.975L236.575 313.565C236.308 319.867 237.464 328.566 242.799 332.756C245.697 335.037 249.663 335.641 253.3 335.055C256.925 334.327 260.379 332.921 263.48 330.91C272.372 325.584 285.077 316.228 286.98 305.283C289.683 289.784 286.9 267.877 283.637 252.512Z" fill="#A2CBE0"/>
<path d="M500.952 313.343C503.941 331.45 504.714 349.853 503.255 368.147C487.962 367.259 471.771 368.502 456.228 368.378C450.831 368.333 447.079 368.475 442.802 364.933C439.477 362.182 435.929 350.34 432.133 359.235C428.14 368.697 418.911 369.887 409.958 369.061C407.068 368.804 377.771 364.854 377.86 362.981C379.389 330.395 381.959 296.992 398.168 267.229C403.671 257.128 412.563 246.538 425.9 245.18C430.689 244.853 435.499 245.339 440.126 246.618C463.768 252.396 488.549 268.729 496.071 292.838C498.146 299.559 499.777 306.408 500.952 313.343Z" fill="#95C5CF"/>
<path d="M178.718 268.276C163.211 268.072 147.732 267.185 132.216 267.185C123.245 267.185 114.371 266.519 105.435 266.244C99.7357 266.066 91.0488 265.17 88.4881 270.762C84.8071 278.795 73.1149 281.414 70.7587 289.9C70.163 292.066 70.2785 294.338 69.8695 296.557C68.6603 303.161 63.0676 308.097 60.747 314.39C60.4535 315.198 48.3968 334.744 48.9836 335.365C49.4371 335.854 73.0971 340.62 73.764 340.62C104.759 340.469 111.739 354.033 142.859 354.113C153.271 354.113 177.162 355.453 187.574 355.453C187.609 355.471 181.43 268.321 178.718 268.276Z" fill="#1A2732"/>
</g>
<path d="M353.22 139.362C353.469 132.261 353.584 123.65 348.988 117.73C342.195 108.969 325.594 109.057 318.197 117.224C316.498 119.097 315.529 116.23 314.64 118.591C309.714 131.568 314.044 148.673 317.308 153.564C319.504 156.884 325.923 159.387 325.977 159.024C325.932 162.379 325.834 164.438 325.977 166.835C326.208 171.548 327.239 177.283 332.201 179.262C338.771 181.819 352.944 181.472 354.198 172.161C354.318 171.022 354.318 169.873 354.198 168.734C353.691 161.278 353.247 153.973 353.193 146.596C353.113 144.209 353.14 141.803 353.22 139.362Z" fill="#F09F92"/>
<path d="M353.559 144.315C357.365 144.315 360.45 141.235 360.45 137.436C360.45 133.637 357.365 130.557 353.559 130.557C349.753 130.557 346.668 133.637 346.668 137.436C346.668 141.235 349.753 144.315 353.559 144.315Z" fill="#94625A"/>
<path d="M352.395 134.32C353.165 134.402 353.896 134.703 354.499 135.189C355.103 135.674 355.553 136.323 355.796 137.058C356.039 137.792 356.065 138.582 355.87 139.33C355.675 140.079 355.268 140.756 354.697 141.28" fill="#1A2732"/>
<path d="M321.043 164.785C323.106 165.53 325.391 164.731 327.347 163.737C330.379 162.184 333.251 160.018 334.771 156.973C332.021 158.323 328.998 159.031 325.933 159.041C324.786 159.041 323.639 158.944 322.501 158.846L317.744 158.447" fill="#1A2732"/>
<path d="M318.74 146.055C320.207 149.33 321.808 150.982 324.529 151.026C328.138 151.088 329.863 148.532 330.619 145.771" fill="white"/>
<path d="M350.714 112.644C346.028 108.081 343.698 105.738 336.736 106.732L323.648 108.623C320.981 109.013 318.091 109.457 315.957 111.17C313.823 112.883 312.89 115.262 311.912 117.641C310.895 120.034 310.089 122.511 309.502 125.044C316.028 127.325 323.061 126.882 329.881 126.322C332.548 126.1 335.5 125.63 338.15 126.269C338.814 126.44 339.437 126.742 339.982 127.157C340.077 126.942 340.187 126.735 340.311 126.535C340.684 125.941 341.2 125.444 341.6 124.876C342.138 124.11 342.507 123.24 342.683 122.322C342.859 121.404 342.839 120.459 342.622 119.55C343.12 120.766 343.464 122.039 343.645 123.34C343.707 124.867 342.969 125.763 342.525 127.166C342.133 128.391 341.804 130.787 342.525 131.941C343.147 132.9 344.001 132.767 345.05 132.909C346.652 133.155 348.289 133.044 349.843 132.583C351.398 132.123 352.83 131.325 354.039 130.246C354.734 129.737 355.298 129.071 355.684 128.302C355.917 127.66 356.023 126.978 355.995 126.296C356.083 123.782 355.66 121.277 354.752 118.931C353.845 116.584 352.471 114.446 350.714 112.644Z" fill="#1A2732"/>
<path d="M344.739 127.76C344.159 128.952 343.717 130.205 343.423 131.497C343.279 132.145 343.303 132.819 343.491 133.455C343.679 134.092 344.026 134.67 344.499 135.137C345.468 135.953 346.953 136.095 347.7 137.116C348.873 138.723 347.3 140.977 347.655 142.939C348.046 145.141 350.58 146.135 352.732 146.738C355.133 147.404 357.898 148.017 359.934 146.587" stroke="#1A2732" stroke-miterlimit="10"/>
<path d="M395.722 147.351C394.623 147.068 393.619 146.498 392.814 145.699C392.009 144.9 391.432 143.902 391.143 142.806C390.467 140.063 391.214 139.096 388.475 137.782L384.189 135.732C383.554 135.453 382.956 135.095 382.411 134.666C380.891 133.37 380.535 131.16 380.633 129.163C380.846 123.926 381.291 119.851 376.73 116.212C374.113 114.224 370.961 113.065 367.678 112.883C366.401 112.883 365.13 112.71 363.899 112.368C361.694 111.561 360.343 109.413 358.716 107.735C353.319 102.223 344.729 101.805 337.012 101.734" stroke="#1A2732" stroke-miterlimit="10"/>
<path d="M298.911 222.758C301.769 222.758 304.086 220.445 304.086 217.591C304.086 214.738 301.769 212.425 298.911 212.425C296.053 212.425 293.736 214.738 293.736 217.591C293.736 220.445 296.053 222.758 298.911 222.758Z" stroke="#1A2732" stroke-miterlimit="10"/>
<path d="M326.448 239.419C329.306 239.419 331.623 237.106 331.623 234.253C331.623 231.399 329.306 229.086 326.448 229.086C323.59 229.086 321.273 231.399 321.273 234.253C321.273 237.106 323.59 239.419 326.448 239.419Z" stroke="#1A2732" stroke-miterlimit="10"/>
<path d="M370.007 293.903C372.865 293.903 375.182 291.59 375.182 288.737C375.182 285.884 372.865 283.571 370.007 283.571C367.149 283.571 364.832 285.884 364.832 288.737C364.832 291.59 367.149 293.903 370.007 293.903Z" stroke="#1A2732" stroke-miterlimit="10"/>
<path d="M382.669 333.981C385.527 333.981 387.844 331.668 387.844 328.815C387.844 325.961 385.527 323.648 382.669 323.648C379.811 323.648 377.494 325.961 377.494 328.815C377.494 331.668 379.811 333.981 382.669 333.981Z" stroke="#1A2732" stroke-miterlimit="10"/>
<path d="M341.298 272.91C344.156 272.91 346.473 270.597 346.473 267.744C346.473 264.891 344.156 262.578 341.298 262.578C338.44 262.578 336.123 264.891 336.123 267.744C336.123 270.597 338.44 272.91 341.298 272.91Z" stroke="#1A2732" stroke-miterlimit="10"/>
<path d="M345.788 353.137C348.646 353.137 350.963 350.824 350.963 347.97C350.963 345.117 348.646 342.804 345.788 342.804C342.93 342.804 340.613 345.117 340.613 347.97C340.613 350.824 342.93 353.137 345.788 353.137Z" stroke="#1A2732" stroke-miterlimit="10"/>
<path d="M338.442 314.151C341.3 314.151 343.617 311.838 343.617 308.985C343.617 306.131 341.3 303.818 338.442 303.818C335.584 303.818 333.268 306.131 333.268 308.985C333.268 311.838 335.584 314.151 338.442 314.151Z" stroke="#1A2732" stroke-miterlimit="10"/>
<path d="M303.063 334.14C305.921 334.14 308.238 331.827 308.238 328.974C308.238 326.121 305.921 323.808 303.063 323.808C300.206 323.808 297.889 326.121 297.889 328.974C297.889 331.827 300.206 334.14 303.063 334.14Z" stroke="#1A2732" stroke-miterlimit="10"/>
<path d="M347.645 214.76C350.503 214.76 352.82 212.447 352.82 209.593C352.82 206.74 350.503 204.427 347.645 204.427C344.788 204.427 342.471 206.74 342.471 209.593C342.471 212.447 344.788 214.76 347.645 214.76Z" stroke="#1A2732" stroke-miterlimit="10"/>
<path d="M375.351 198.098C378.209 198.098 380.525 195.785 380.525 192.932C380.525 190.079 378.209 187.766 375.351 187.766C372.493 187.766 370.176 190.079 370.176 192.932C370.176 195.785 372.493 198.098 375.351 198.098Z" stroke="#1A2732" stroke-miterlimit="10"/>
<path d="M307.253 287.406C310.111 287.406 312.428 285.093 312.428 282.239C312.428 279.386 310.111 277.073 307.253 277.073C304.395 277.073 302.078 279.386 302.078 282.239C302.078 285.093 304.395 287.406 307.253 287.406Z" stroke="#1A2732" stroke-miterlimit="10"/>
<path d="M370.843 247.416C373.701 247.416 376.018 245.103 376.018 242.25C376.018 239.397 373.701 237.084 370.843 237.084C367.985 237.084 365.668 239.397 365.668 242.25C365.668 245.103 367.985 247.416 370.843 247.416Z" stroke="#1A2732" stroke-miterlimit="10"/>
<path d="M289.744 252.814C292.625 252.698 294.777 255.397 296.137 257.935C297.854 261.14 299.165 264.545 300.04 268.072" stroke="#1A2732" stroke-miterlimit="10"/>
<path d="M305.27 185.156C311.462 189.412 318.631 192.038 326.111 192.79" stroke="#1A2732" stroke-miterlimit="10"/>
<path d="M334.121 193.136L339.456 193.456" stroke="#1A2732" stroke-miterlimit="10"/>
<path d="M311.93 136.104C312.774 134.427 313.93 133.007 315.797 132.794C317.665 132.581 320.11 133.868 320.377 135.723" stroke="#1A2732" stroke-miterlimit="10"/>
<path d="M328.094 134.764C328.708 133.942 329.498 133.268 330.408 132.792C331.317 132.316 332.322 132.049 333.349 132.012C334.307 132.054 335.228 132.399 335.978 132.997C336.727 133.596 337.267 134.416 337.519 135.341" stroke="#1A2732" stroke-miterlimit="10"/>
<path d="M148.879 156.751L210.061 158.189C204.88 188.288 190.171 215.936 168.093 237.076" fill="#F63838"/>
<path d="M241.927 141.04C248.578 140.516 255.638 136.424 259.71 132.163C262.677 129.056 264.704 125.175 265.557 120.967C266.409 116.76 266.053 112.397 264.529 108.383C263.08 104.832 260.128 102.524 258.483 99.1157C256.58 95.139 254.722 90.754 249.725 90.035C247.44 89.6977 245.146 90.4167 242.941 91.1268C237.704 92.8222 232.378 94.5531 227.897 97.7398C223.415 100.927 219.823 105.862 219.645 111.348C219.574 113.371 219.965 115.395 219.903 117.419C219.721 118.825 219.721 120.248 219.903 121.653C220.187 122.642 220.625 123.58 221.201 124.432C222.957 127.308 224.86 130.093 226.901 132.776C228.667 135.34 230.906 137.545 233.498 139.273C236.05 140.738 239.001 141.356 241.927 141.04Z" fill="#1A2732"/>
<path d="M224.383 125.035C224.134 117.934 224.019 109.315 228.616 103.394C235.409 94.6332 252.009 94.7308 259.407 102.888C261.045 104.824 262.311 107.045 263.141 109.439C265.562 115.4 266.288 121.912 265.239 128.258C264.5 132.251 262.821 136.011 260.34 139.229C259.187 140.89 257.726 142.315 256.037 143.428C255.468 143.738 251.218 144.91 251.164 144.537C251.513 147.186 251.691 149.855 251.698 152.526C251.698 158.962 248.221 170.022 243.251 171.957C236.68 174.522 224.73 167.128 223.468 157.861C223.352 156.722 223.352 155.574 223.468 154.435C223.965 146.969 224.419 139.664 224.463 132.288C224.487 129.903 224.46 127.485 224.383 125.035Z" fill="#F09F92"/>
<path d="M229.367 127.463C231.784 124.529 231.362 120.193 228.423 117.78C225.483 115.366 221.141 115.788 218.723 118.722C216.306 121.657 216.728 125.992 219.667 128.405C222.607 130.819 226.949 130.397 229.367 127.463Z" fill="#F09F92"/>
<path d="M225.21 119.976C224.438 120.053 223.704 120.353 223.098 120.838C222.492 121.323 222.04 121.973 221.797 122.709C221.553 123.445 221.528 124.236 221.725 124.986C221.923 125.736 222.333 126.413 222.907 126.935" fill="#1A2732"/>
<path d="M253.548 131.435C251.504 131.71 249.431 131.71 247.387 131.435C247.715 132.749 248.495 133.905 249.589 134.704C250.684 135.503 252.024 135.894 253.377 135.809C254.73 135.723 256.011 135.167 256.996 134.236C257.981 133.306 258.608 132.06 258.768 130.716C257.034 130.974 255.3 131.267 253.548 131.435Z" fill="white"/>
<path d="M256.562 150.431C254.5 151.186 252.214 150.387 250.258 149.384C247.226 147.831 244.354 145.665 242.834 142.629C245.587 143.972 248.608 144.676 251.672 144.688C252.819 144.688 253.966 144.591 255.104 144.502L259.852 144.102" fill="#1A2732"/>
<path d="M231.763 96.8078C233.426 95.5651 234.431 93.5767 235.88 92.1121C237.26 90.7639 239.042 89.9008 240.957 89.6533C241.909 89.6115 242.855 89.4838 243.784 89.2716C245.74 88.6414 246.905 86.7152 248.426 85.3482C250.08 83.9215 252.166 83.0894 254.35 82.9849C256.534 82.8803 258.69 83.5092 260.474 84.7712C261.896 85.8275 263.23 87.3631 265.008 87.301C266.529 87.2478 267.747 85.9784 269.232 85.6145C271.783 84.9842 274.202 87.1856 275.358 89.5468C276.798 92.4849 276.816 96.648 274.051 98.4233C272.935 98.973 271.772 99.4188 270.574 99.7548C266.235 101.45 268.707 107.193 263.71 109.022C261.043 109.998 258.108 109.608 255.281 109.359C251.235 109.013 246.683 109.164 243.722 112.022C242.833 112.91 242.157 113.931 241.197 114.685C240.389 115.262 239.471 115.666 238.499 115.871C237.527 116.075 236.523 116.077 235.551 115.875C234.022 115.617 232.065 115.138 230.847 116.452C230.264 117.277 229.922 118.248 229.86 119.257C229.7 120.144 228.909 124.405 227.309 123.819C227.107 123.726 226.932 123.583 226.803 123.402C226.674 123.221 226.593 123.01 226.571 122.79C226.268 120.917 227.46 117.916 225.397 116.718C224.789 116.401 224.109 116.245 223.423 116.265C222.738 116.265 222.054 116.327 221.369 116.265C221.327 114.899 221.214 113.536 221.031 112.182C221.058 110.644 221.325 109.12 221.823 107.664C222.771 104.794 224.282 102.142 226.268 99.8614C227.54 98.4056 229.825 98.086 231.381 97.0209C231.559 96.9587 231.665 96.8788 231.763 96.8078Z" fill="#1A2732"/>
<path d="M248.48 160.888C249.354 159.891 250.092 158.784 250.676 157.595C251.145 156.385 251.474 155.125 251.654 153.84C251.601 154.115 252.961 154.949 253.175 155.118C253.771 155.571 254.384 156.006 255.006 156.441C256.242 157.328 257.523 158.092 258.83 158.828C261.462 160.295 264.224 161.516 267.081 162.477C267.881 162.743 268.681 162.992 269.499 163.213C259.184 169.977 249.847 178.122 241.749 187.42C240.976 183.647 237.117 177.034 238.557 173.679C240.451 169.25 245.51 164.723 248.48 160.888Z" fill="#A2CBE0"/>
<path d="M231.879 186.559L225.842 177.452C221.53 170.91 217.057 164.208 210.629 159.699C215.496 157.613 219.924 154.628 223.681 150.902C224.351 154.228 225.962 157.293 228.323 159.734C232.527 163.733 237.097 167.332 241.971 170.484C237.633 175.422 234.347 181.191 232.315 187.438C232.129 187.566 231.913 187.644 231.688 187.663C231.462 187.683 231.236 187.643 231.031 187.548C230.826 187.453 230.649 187.307 230.518 187.123C230.387 186.939 230.307 186.724 230.284 186.499C230.262 186.274 230.299 186.048 230.392 185.842C230.484 185.636 230.629 185.458 230.812 185.325C230.994 185.192 231.209 185.109 231.433 185.084C231.658 185.059 231.885 185.093 232.093 185.183C232.955 185.52 232.573 186 231.879 186.559Z" fill="#A2CBE0"/>
<path d="M240.745 170.182C239.963 220.929 238.54 253.178 236.744 303.898" stroke="#1A2732" stroke-miterlimit="10"/>
<path d="M217.467 157.914C217.765 161.396 218.993 164.734 221.023 167.581C221.912 168.805 222.855 169.942 223.78 171.131C226.991 175.435 229.851 179.988 232.333 184.748C234.796 180.282 237.55 175.983 240.576 171.877C240.078 172.853 240.38 172.764 241.073 173.652C244.141 177.416 248.187 180.247 252.143 183.035C253.619 178.272 254.708 173.397 255.397 168.459C255.798 164.909 255.78 161.296 256.047 157.719C256.047 157.523 256.118 157.284 256.313 157.248C256.509 157.213 256.473 157.639 256.313 157.515" stroke="#1A2732" stroke-miterlimit="10"/>
<path d="M241.811 128.435C246.132 128.435 249.635 124.938 249.635 120.624C249.635 116.31 246.132 112.812 241.811 112.812C237.489 112.812 233.986 116.31 233.986 120.624C233.986 124.938 237.489 128.435 241.811 128.435Z" stroke="#1A2732" stroke-miterlimit="10"/>
<path d="M262.377 128.435C266.698 128.435 270.202 124.938 270.202 120.624C270.202 116.31 266.698 112.812 262.377 112.812C258.056 112.812 254.553 116.31 254.553 120.624C254.553 124.938 258.056 128.435 262.377 128.435Z" stroke="#1A2732" stroke-miterlimit="10"/>
<path d="M249.645 120.624H254.544" stroke="#1A2732" stroke-miterlimit="10"/>
<path d="M226.723 118.2L234.138 121.129" stroke="#1A2732" stroke-miterlimit="10"/>
<path d="M204.44 203.673H224.721V220.201C224.721 222.32 223.878 224.352 222.377 225.85C220.877 227.348 218.841 228.19 216.719 228.19H212.407C210.284 228.19 208.249 227.348 206.748 225.85C205.247 224.352 204.404 222.32 204.404 220.201V203.673H204.44Z" fill="#7BADC7"/>
<path d="M186.658 219.677C187.636 219.899 188.508 219.074 189.157 218.31C191.451 215.647 193.602 212.816 195.692 209.931" stroke="#1A2732" stroke-miterlimit="10"/>
<path d="M243.145 121.538C243.768 121.538 244.274 121.033 244.274 120.411C244.274 119.788 243.768 119.283 243.145 119.283C242.521 119.283 242.016 119.788 242.016 120.411C242.016 121.033 242.521 121.538 243.145 121.538Z" fill="#1A2732"/>
<path d="M261.549 120.162C261.549 120.385 261.483 120.603 261.359 120.788C261.235 120.974 261.059 121.118 260.852 121.203C260.646 121.289 260.419 121.311 260.2 121.268C259.981 121.224 259.78 121.117 259.622 120.959C259.464 120.801 259.356 120.601 259.313 120.382C259.269 120.163 259.292 119.937 259.377 119.731C259.462 119.525 259.607 119.349 259.793 119.225C259.979 119.101 260.197 119.035 260.42 119.035C260.72 119.035 261.007 119.153 261.219 119.365C261.43 119.576 261.549 119.863 261.549 120.162Z" fill="#1A2732"/>
<path d="M279.645 201.933L280.16 191.672" stroke="#1A2732" stroke-miterlimit="10"/>
<path d="M250.009 228.421C250.009 228.965 249.847 229.497 249.544 229.949C249.241 230.402 248.811 230.755 248.307 230.963C247.804 231.171 247.249 231.226 246.715 231.12C246.18 231.013 245.689 230.751 245.303 230.366C244.918 229.982 244.655 229.491 244.549 228.958C244.443 228.424 244.497 227.87 244.706 227.368C244.915 226.865 245.268 226.435 245.721 226.133C246.174 225.83 246.707 225.669 247.252 225.669C247.615 225.668 247.974 225.738 248.309 225.876C248.644 226.014 248.948 226.217 249.204 226.472C249.46 226.728 249.663 227.032 249.801 227.366C249.939 227.701 250.01 228.059 250.009 228.421Z" fill="#1A2732"/>
<path d="M249.253 248.659C249.255 249.204 249.094 249.738 248.792 250.191C248.49 250.645 248.06 250.999 247.555 251.209C247.051 251.418 246.497 251.473 245.961 251.368C245.426 251.262 244.934 250.999 244.548 250.614C244.162 250.229 243.899 249.738 243.793 249.203C243.687 248.668 243.742 248.114 243.952 247.611C244.161 247.108 244.516 246.678 244.971 246.377C245.425 246.075 245.96 245.915 246.505 245.917C247.234 245.917 247.933 246.205 248.448 246.72C248.963 247.234 249.253 247.932 249.253 248.659Z" fill="#1A2732"/>
<path d="M248.507 268.907C248.507 269.451 248.345 269.983 248.042 270.435C247.739 270.888 247.309 271.241 246.805 271.449C246.302 271.657 245.747 271.712 245.213 271.605C244.678 271.499 244.187 271.237 243.801 270.852C243.416 270.467 243.153 269.977 243.047 269.443C242.941 268.91 242.995 268.356 243.204 267.853C243.413 267.351 243.766 266.921 244.219 266.619C244.672 266.316 245.205 266.155 245.75 266.155C246.482 266.155 247.183 266.445 247.699 266.961C248.216 267.477 248.507 268.177 248.507 268.907Z" fill="#1A2732"/>
<path d="M440.222 71.5094C443.192 70.3554 446.66 69.4411 449.443 70.9945C452.226 72.5479 452.635 77.6076 449.567 78.4597C455.485 75.4416 462.021 73.8256 468.666 73.7374C470.853 73.7374 473.236 73.9327 474.819 75.4328C476.739 77.2614 476.748 80.457 475.486 82.7826C474.223 85.1083 471.929 86.7238 469.697 88.1086C473.61 87.2209 477.762 86.3954 481.55 87.7002C485.337 89.0051 488.378 93.3369 486.796 97.0118C485.017 101.086 479.513 101.45 475.077 101.255C479.851 101.725 485.302 103.918 486.253 108.658C487.205 113.398 482.697 117.765 477.993 118.555C473.289 119.345 468.497 117.605 464.016 115.892C464.931 117.101 465.473 118.55 465.576 120.061C465.679 121.573 465.338 123.082 464.596 124.403C463.853 125.725 462.741 126.801 461.395 127.501C460.049 128.202 458.528 128.495 457.018 128.346C454.084 128.026 451.603 126.1 449.336 124.218C440.018 116.505 425.409 106.243 419.994 95.1832C414.402 83.6969 431.562 74.9002 440.222 71.5094Z" fill="#1A2732"/>
<path d="M468.763 159.263C465.509 152.481 458.387 148.203 451.043 146.508C440.862 144.155 425.009 141.989 415.113 146.605C408.551 149.659 405.092 156.813 403.065 163.373C400.846 170.816 397.744 177.968 393.827 184.677C384.598 201.156 379.924 219.788 380.285 238.664C380.525 249.733 383.664 262.373 393.622 267.247C398.192 269.483 403.456 269.661 408.542 269.75C426.105 270.04 443.666 269.723 461.223 268.8C462.904 268.711 464.682 268.596 466.096 267.664C467.661 266.643 468.488 264.832 469.235 263.119C474.116 251.89 477.344 243.741 478.055 231.643C478.775 219.286 478.82 206.992 478.82 194.618C478.659 187.633 478.642 183.132 475.263 177.274C471.973 171.584 471.582 165.104 468.763 159.263Z" fill="#1A2732"/>
<path d="M457.792 243.555C440.525 247.204 422.785 248.073 405.244 246.129C400.264 245.573 395.321 244.783 390.413 243.759C388.181 243.298 387.221 246.724 389.461 247.186C407.265 250.871 425.549 251.647 443.601 249.485C448.687 248.893 453.725 248.058 458.716 246.981C460.975 246.502 460.024 243.085 457.792 243.555Z" fill="#856096"/>
<path d="M459.294 230.063C442.028 233.713 424.287 234.579 406.746 232.628C401.767 232.078 396.823 231.279 391.915 230.267C389.675 229.806 388.723 233.223 390.964 233.693C408.768 237.371 427.051 238.147 445.104 235.992C450.19 235.401 455.228 234.563 460.219 233.48C462.477 233.01 461.526 229.584 459.294 230.063Z" fill="#856096"/>
<path d="M460.798 216.588C443.532 220.241 425.791 221.11 408.25 219.163C403.271 218.612 398.318 217.804 393.419 216.792C391.179 216.34 390.227 219.757 392.468 220.219C410.271 223.903 428.555 224.683 446.608 222.527C451.685 221.905 456.735 221.08 461.723 220.015C463.981 219.509 463.03 216.091 460.798 216.588Z" fill="#856096"/>
<path d="M462.3 203.069C445.034 206.72 427.293 207.586 409.752 205.635C404.773 205.084 399.82 204.285 394.921 203.273C392.681 202.812 391.729 206.238 393.97 206.7C411.779 210.383 430.069 211.16 448.127 208.999C453.201 208.407 458.24 207.57 463.243 206.487C465.483 206.016 464.532 202.59 462.3 203.069Z" fill="#856096"/>
<path d="M463.802 189.568C446.537 193.225 428.795 194.094 411.254 192.142C406.275 191.592 401.322 190.784 396.423 189.781C394.183 189.319 393.231 192.737 395.472 193.198C413.275 196.883 431.559 197.662 449.611 195.506C454.686 194.915 459.724 194.077 464.727 192.994C466.985 192.524 466.034 189.071 463.802 189.568Z" fill="#856096"/>
<path d="M465.305 176.076C448.038 179.724 430.298 180.593 412.757 178.65C407.777 178.094 402.831 177.304 397.917 176.28C395.685 175.818 394.734 179.245 396.974 179.706C414.78 183.376 433.063 184.14 451.114 181.97C456.194 181.378 461.232 180.544 466.229 179.466C468.488 179.023 467.536 175.596 465.305 176.076Z" fill="#856096"/>
<path d="M390.271 161.074C387.87 164.137 392.147 170.048 391.204 173.936C381.424 213.925 373.288 216.136 371.19 236.853C370.025 248.446 369.358 260.421 373.261 271.792C375.36 277.908 379.948 283.562 386.216 285.178C389.711 286.065 393.401 285.683 396.93 284.964C402.639 283.811 409.138 280.739 409.761 274.961C409.828 273.293 409.691 271.624 409.352 269.99C407.733 258.086 413.628 247.798 414.998 236.392C415.967 228.332 415.042 220.237 414.998 212.168C414.998 208.147 414.758 203.442 415.94 199.554C416.918 196.332 418.35 194.06 418.661 190.491C419.307 183.07 420.253 175.673 421.497 168.3C422.653 161.491 423.551 154.514 426.245 148.177C427.134 146.073 427.837 143.738 427.232 141.546C426.708 139.62 404.799 148.496 402.603 149.801C397.819 152.751 393.635 156.576 390.271 161.074Z" fill="#D9664A"/>
<path d="M454.351 117.872C454.591 110.771 454.707 102.151 450.119 96.2308C443.317 87.4696 426.717 87.5672 419.319 95.7248C417.621 97.5977 416.651 94.7306 415.762 97.0918C410.828 110.069 414.34 127.831 418.43 132.065C422.049 135.847 427.552 137.746 427.606 137.391C427.204 140.035 427.025 142.707 427.072 145.38C427.294 150.094 428.335 155.828 433.296 157.808C439.867 160.373 454.04 160.018 455.302 150.706C455.414 149.57 455.414 148.425 455.302 147.289C454.796 139.824 454.342 132.518 454.298 125.142C454.209 122.701 454.235 120.295 454.351 117.872Z" fill="#F09F92"/>
<path d="M459.526 120.798C462.217 118.111 462.217 113.756 459.526 111.069C456.835 108.383 452.472 108.383 449.781 111.069C447.09 113.756 447.09 118.111 449.781 120.798C452.472 123.485 456.835 123.485 459.526 120.798Z" fill="#F09F92"/>
<path d="M453.463 112.812C454.234 112.89 454.967 113.189 455.572 113.673C456.178 114.157 456.63 114.805 456.874 115.54C457.118 116.275 457.145 117.064 456.949 117.814C456.754 118.563 456.346 119.24 455.775 119.763" fill="#1A2732"/>
<path d="M422.137 143.268C424.2 144.022 426.494 143.215 428.441 142.22C431.473 140.667 434.345 138.501 435.874 135.465C433.105 136.814 430.065 137.519 426.983 137.525C425.836 137.525 424.698 137.427 423.551 137.329L418.803 136.939" fill="#1A2732"/>
<path d="M507.291 211.75C508.646 220.725 509.474 229.771 509.772 238.842C509.914 242.295 509.888 246.023 510.608 249.414C511.57 253.241 513.029 256.926 514.947 260.376C516.565 263.563 517.961 267.087 517.436 270.62C517.045 273.172 515.69 275.478 513.649 277.064C511.319 278.839 508.403 279.487 505.602 280.171C503.61 280.659 499.618 281.174 498.222 282.834C496.826 284.494 500.063 293.06 498.88 293.592C493.767 295.847 488.104 294.95 482.715 294.48C473.255 293.699 463.741 292.9 454.441 290.929C450.271 290.042 444.731 289.207 441.041 286.97C437.894 285.071 436.036 280.286 435.12 276.922C434.197 273.131 433.755 269.239 433.804 265.338C433.671 251.036 435.015 236.758 437.814 222.731C439.468 214.369 442.064 206.149 442.624 197.654C442.855 194.201 442.749 190.695 443.602 187.349C444.491 183.665 446.581 180.372 448.27 176.963C451.026 171.262 452.866 165.163 453.721 158.89C454.182 155.73 454.479 152.548 454.61 149.357C454.734 146.534 454.316 143.463 454.69 140.658C454.69 140.525 454.69 140.383 454.752 140.241C459.972 142.338 465.496 143.584 471.112 143.933C474.064 144.12 477.336 146.099 480.092 147.306C483.315 148.759 486.309 150.67 488.984 152.979C494.384 157.566 498.517 163.458 500.987 170.093C503.397 176.706 504.215 183.94 504.322 190.926C504.428 197.912 506.162 204.685 507.291 211.75Z" fill="#D9664A"/>
<path d="M527.109 240.723C527.954 238.282 528.22 235.673 527.029 233.835C524.264 229.566 516.928 229.503 512.687 230.728C507.841 232.131 503.689 235.211 499.652 238.238C495.447 241.389 491.392 246.005 486.315 247.807C485.155 248.198 483.966 248.495 482.759 248.695L477.166 249.76C476.796 249.785 476.449 249.95 476.197 250.221C476.054 250.426 476.197 251.109 476.01 250.923C474.73 249.609 475.565 259.888 480.296 264.761C482.021 266.536 486.715 272.661 487.053 272.679C487.318 272.66 487.57 272.558 487.773 272.386C492.664 269.031 496.371 264.193 501.386 260.793C506.721 257.145 512.803 254.518 518.28 250.852C520.461 249.533 522.438 247.903 524.148 246.014C525.427 244.43 526.428 242.641 527.109 240.723Z" fill="#F09F92"/>
<path d="M456.877 93.6831C455.419 87.6204 445.834 86.8659 440.873 87.0168C438.445 79.0989 431.981 69.0151 422.787 68.4382C420.307 68.2784 417.23 69.5566 417.221 72.0332C417.221 74.2523 419.729 75.8235 419.889 78.0337C416.781 75.2582 412.938 73.4366 408.819 72.7877C405.956 72.335 402.399 72.8409 401.217 75.4507C400.328 77.4923 401.288 79.8889 402.782 81.6021C402.969 81.8063 403.182 81.9927 403.378 82.188C400.863 81.892 398.315 82.1744 395.927 83.0135C393.259 84.0875 390.947 86.5641 391.205 89.6354C391.499 93.044 394.824 94.5885 397.687 95.6093C398.44 95.8738 399.209 96.0903 399.99 96.2573C399.504 96.7766 399.059 97.3314 398.656 97.9172C397.02 100.341 396.629 103.483 398.994 105.595C400.897 107.3 405.147 108.258 407.459 107.113C409.424 106.137 410.197 104.237 411.664 102.675C412.189 105.782 413.443 108.764 416.501 110.14C420.822 112.058 425.268 109.048 427.029 105.09C427.547 103.916 427.938 102.69 428.193 101.432C428.829 101.91 429.501 102.337 430.203 102.711C432.141 103.714 434.586 104.548 436.623 103.296C437.465 102.721 438.131 101.924 438.545 100.992C438.96 100.061 439.107 99.0335 438.97 98.0238C442.393 100.882 447.434 103.066 451.667 101.734C455.045 100.74 457.695 97.1272 456.877 93.6831Z" fill="#1A2732"/>
<path d="M568.909 216.837C570.838 209.682 570.767 201.134 565.486 195.932C561.582 192.071 555.581 190.828 551.909 186.745C547.934 182.307 547.596 175.552 543.906 170.901C537.602 163.063 525.234 164.687 516.245 160.089C513.018 158.429 510.288 155.97 507.229 154.008C505.429 152.856 503.549 151.836 501.601 150.955C490.887 146.073 477.47 144.377 466.329 143.765C463.661 143.623 460.843 143.534 458.673 145.043C456.735 146.383 455.784 148.718 455.063 150.955C454.311 152.891 454.028 154.978 454.237 157.044C454.583 159.077 456.015 161.065 458.051 161.483C467.476 163.258 466.773 170.235 473.264 175.632C479.755 181.029 488.433 180.718 494.523 187.731C498.489 192.293 497.28 197.601 498.133 203.708C498.72 207.836 506.011 211.635 509.523 213.774C511.444 214.937 515.658 216.437 516.912 214.795C516.245 218.044 509.488 217.289 502.268 227.844C499.405 232.025 500.783 238.38 504.464 241.558C507.38 244.07 511.675 245.171 513.453 248.579C514.093 249.804 514.342 251.242 514.974 252.423C516.556 255.361 520.211 256.506 523.545 256.755C529.947 257.243 534.944 255.157 540.439 252.316C548.21 248.304 552.273 241.594 558.07 235.522C563.352 229.903 566.837 224.497 568.909 216.837Z" fill="#D9664A"/>
<path d="M417.896 121.147C419.106 124.876 420.653 126.846 423.596 127.21C427.508 127.689 429.633 125.115 430.807 122.213" fill="white"/>
<path d="M477.531 182.085C477.985 190.757 481.088 200.131 488.637 204.445C493.385 207.17 499.306 207.649 503.921 209.957C507.477 211.733 511.736 216.89 516.538 215.23C515.32 217.156 512.812 218.186 510.865 219.358C508.647 220.866 506.677 222.707 505.023 224.817C501.796 228.518 498.533 231.59 500.818 236.907C502.193 239.726 504.383 242.069 507.104 243.635C508.641 244.489 510.126 245.435 511.55 246.467C513.25 247.848 514.556 249.651 515.338 251.695" stroke="#1A2732" stroke-miterlimit="10"/>
<path d="M429.043 302C428.814 308.474 429.499 314.947 431.077 321.23C432.36 326.323 434.231 331.288 434.89 336.494C435.535 341.594 435.272 347.451 439 351" stroke="#1A2732" stroke-miterlimit="10"/>
<path d="M475.69 247.301C475.253 250.373 475.443 253.502 476.25 256.498C477.057 259.494 478.463 262.296 480.385 264.735C483.052 268.064 486.689 270.753 488.236 274.712" stroke="#1A2732" stroke-miterlimit="10"/>
<path d="M374.543 258.148C381.585 254.323 385.524 246.325 386.671 238.389C386.831 237.297 387.133 235.948 388.209 235.655" stroke="#1A2732" stroke-miterlimit="10"/>
<path d="M431.412 110.54C431.879 109.727 432.553 109.051 433.366 108.581C434.178 108.111 435.101 107.863 436.04 107.863C436.979 107.863 437.902 108.111 438.714 108.581C439.527 109.051 440.201 109.727 440.668 110.54" stroke="#1A2732" stroke-miterlimit="10"/>
<path d="M413.887 110.54C414.354 109.727 415.028 109.051 415.84 108.581C416.653 108.111 417.576 107.863 418.515 107.863C419.454 107.863 420.376 108.111 421.189 108.581C422.002 109.051 422.676 109.727 423.143 110.54" stroke="#1A2732" stroke-miterlimit="10"/>
<path d="M387.613 186.861C389.32 183.905 388.387 180.07 389.649 176.892C390.251 175.641 390.925 174.426 391.668 173.253C392.741 171.13 393.347 168.803 393.446 166.427" stroke="#1A2732" stroke-miterlimit="10"/>
<path d="M411.335 192.559C412.7 192.559 413.807 191.455 413.807 190.092C413.807 188.729 412.7 187.624 411.335 187.624C409.97 187.624 408.863 188.729 408.863 190.092C408.863 191.455 409.97 192.559 411.335 192.559Z" fill="#1A2732"/>
<path d="M409.699 205.759C409.696 206.246 409.548 206.722 409.274 207.125C409 207.528 408.613 207.842 408.161 208.026C407.709 208.21 407.213 208.256 406.735 208.159C406.256 208.062 405.818 207.826 405.474 207.48C405.13 207.134 404.896 206.694 404.802 206.216C404.708 205.738 404.758 205.243 404.946 204.793C405.133 204.343 405.45 203.958 405.856 203.688C406.262 203.418 406.739 203.273 407.228 203.273C407.553 203.275 407.876 203.34 408.176 203.465C408.477 203.591 408.75 203.774 408.979 204.005C409.209 204.236 409.39 204.51 409.514 204.81C409.638 205.111 409.701 205.434 409.699 205.759Z" fill="#1A2732"/>
<path d="M405.556 224.888C406.921 224.888 408.028 223.783 408.028 222.42C408.028 221.057 406.921 219.953 405.556 219.953C404.191 219.953 403.084 221.057 403.084 222.42C403.084 223.783 404.191 224.888 405.556 224.888Z" fill="#1A2732"/>
<path d="M403.884 242.215C405.249 242.215 406.356 241.11 406.356 239.747C406.356 238.384 405.249 237.279 403.884 237.279C402.519 237.279 401.412 238.384 401.412 239.747C401.412 241.11 402.519 242.215 403.884 242.215Z" fill="#1A2732"/>
<path d="M270.726 169.027C270.726 168.868 270.726 168.699 270.726 168.539C270.637 165.104 270.468 161.589 269.303 158.384C269.155 157.981 268.897 157.627 268.557 157.364C268.217 157.1 267.81 156.937 267.382 156.893C267.135 156.831 266.875 156.842 266.634 156.924C266.393 157.006 266.18 157.155 266.022 157.355C265.48 158.109 266.022 159.485 266.084 160.302C266.387 162.849 266.973 165.361 266.813 167.962C266.733 169.436 267.525 173.856 269.988 171.442C270.544 170.766 270.81 169.898 270.726 169.027Z" fill="#F09F92"/>
<path d="M276.862 165.779C276.721 163.378 276.333 160.999 275.706 158.677C275.502 157.852 274.275 157.373 273.314 157.586C273.095 157.612 272.883 157.685 272.693 157.798C272.503 157.912 272.34 158.064 272.212 158.245C272.085 158.425 271.997 158.631 271.954 158.847C271.911 159.064 271.914 159.288 271.963 159.503C273.101 163.593 273.26 167.892 272.425 172.054C272.376 172.27 272.373 172.493 272.416 172.71C272.459 172.927 272.547 173.132 272.675 173.313C272.802 173.493 272.966 173.645 273.156 173.759C273.346 173.872 273.557 173.945 273.777 173.972C274.719 174.185 275.982 173.723 276.169 172.889C276.708 170.559 276.941 168.169 276.862 165.779Z" fill="#F09F92"/>
<path d="M281.121 159.13C280.943 158.296 279.663 157.834 278.729 158.038C278.513 158.071 278.306 158.147 278.121 158.263C277.936 158.379 277.777 158.532 277.654 158.711C277.53 158.891 277.445 159.094 277.404 159.309C277.362 159.523 277.366 159.743 277.413 159.956C278.133 163.505 278.54 167.111 278.631 170.732C278.685 171.194 278.918 171.616 279.281 171.908C279.643 172.201 280.106 172.339 280.57 172.294C281.601 172.294 282.535 171.575 282.508 170.732C282.388 166.831 281.923 162.949 281.121 159.13Z" fill="#F09F92"/>
<path d="M286.01 159.778C285.799 159.348 285.445 159.005 285.009 158.807C284.572 158.61 284.08 158.57 283.618 158.695C282.631 158.944 281.946 159.778 282.257 160.612C283.401 163.552 284.003 166.673 284.036 169.826C284.092 170.287 284.326 170.707 284.688 170.997C285.05 171.287 285.512 171.425 285.974 171.38C287.023 171.38 287.93 170.696 287.921 169.826C287.865 166.392 287.218 162.994 286.01 159.778Z" fill="#F09F92"/>
<path d="M89.1726 184.881C90.7723 185.867 92.4746 186.677 94.2496 187.296C101.105 189.639 109.881 187.961 113.535 181.712C116.149 177.221 115.58 171.433 113.339 166.737C111.099 162.042 107.418 158.234 103.772 154.532C95.2365 145.833 86.523 137.152 79.8722 126.944C68.2245 109.049 68.0733 87.2655 68.5623 66.5831C68.669 62.2957 69.327 58.1415 69.6026 53.9429C69.5653 53.2541 69.7029 52.5671 70.0027 51.9457C70.3533 51.5057 70.7965 51.1482 71.3009 50.8982C74.7063 48.7856 75.7466 45.9717 77.5782 42.6697C79.4098 39.3676 81.3126 37.0064 81.9617 33.2161C82.3885 30.7129 78.4762 30.2602 78.0406 32.7545C77.8005 34.1481 75.4976 42.7673 73.0169 40.0777C71.6299 38.5864 74.324 34.2103 74.9464 32.7723C76.3977 29.4445 77.6478 26.0327 78.6896 22.5554C78.8726 22.0715 78.8631 21.536 78.663 21.059C78.4629 20.5819 78.0875 20.1994 77.6138 19.99C77.1277 19.796 76.5846 19.8008 76.102 20.0035C75.6195 20.2062 75.2362 20.5904 75.0353 21.073C74.2617 23.6472 73.3726 26.1947 72.3679 28.6891C72.2088 28.456 72.0239 28.2416 71.8166 28.0499C71.6056 27.8514 71.3764 27.6731 71.132 27.5174C72.3175 23.9667 73.6749 20.4634 75.2042 17.0075C75.3037 16.8755 75.3817 16.7288 75.4354 16.5725L75.5688 16.1376C75.6788 15.8959 75.7388 15.6344 75.7451 15.369C75.7514 15.1035 75.704 14.8395 75.6055 14.5929C75.5071 14.3462 75.3597 14.1219 75.1723 13.9335C74.9849 13.7451 74.7612 13.5965 74.5148 13.4965C74.2684 13.3966 74.0043 13.3474 73.7384 13.3518C73.4725 13.3563 73.2102 13.4144 72.9673 13.5227C72.7244 13.6309 72.506 13.787 72.325 13.9816C72.1441 14.1762 72.0044 14.4053 71.9144 14.6552C70.2428 18.4307 68.7609 22.2772 67.4687 26.1947C66.8107 26.0527 66.1261 25.9284 65.4148 25.8308C65.646 25.1651 65.8771 24.4993 66.1172 23.8336C67.0063 21.4902 67.8955 19.1734 68.7846 16.8655C69.6738 14.5576 66.1172 13.0308 65.1391 15.3831C64.0485 18.0461 63.02 20.7357 62.0538 23.4519C61.796 24.1975 61.547 24.952 61.2892 25.7065C60.6381 25.7581 59.9926 25.865 59.3597 26.0261C60.0837 23.7685 60.9448 21.5571 61.9382 19.4042C63.0052 17.0963 59.342 15.6139 58.2839 17.9129C56.3179 22.1694 54.8472 26.6368 53.9004 31.2278C52.5578 34.9825 52.6201 39.5806 51.9799 43.3887C51.0907 48.6258 50.0682 53.8275 49.0368 59.038C46.485 71.9002 43.9332 84.931 43.9065 98.0949C43.9065 114.401 43.3641 127.636 52.5134 141.741C59.9179 153.166 68.1936 164.004 77.267 174.158C80.7791 178.126 84.6291 182.129 89.1726 184.881Z" fill="#F09F92"/>
<path d="M71.6394 179.715C77.3566 188.893 84.4697 197.06 91.5828 205.111C95.2811 209.174 99.4035 212.831 103.88 216.02C107.365 218.568 110.939 220.982 114.425 223.521C115.959 219.65 117.074 215.627 117.75 211.52C120.898 194.095 123.823 173.501 121.698 155.837C121.698 155.89 114.123 153.946 113.553 153.769C109.935 152.677 106.44 151.488 103.48 149.1C100.519 146.712 98.2781 143.65 94.7749 141.999C92.8276 144.138 90.7737 146.179 88.6576 148.212C85.5189 151.15 82.2913 154.009 79.2772 157.089C76.0496 160.373 72.9554 163.773 69.6744 167.004C68.6164 168.042 67.5494 169.063 66.4824 170.084C67.967 173.414 69.6905 176.633 71.6394 179.715Z" fill="#F63838"/>
<path d="M137.934 145.691C150.382 136.619 156.686 119.878 153.298 104.859C152.258 100.225 150.257 95.6271 146.648 92.5381C141.126 87.8335 132.59 87.6648 126.197 91.1178C119.804 94.5708 115.483 101.077 113.403 107.983C111.13 115.231 111.396 123.036 114.158 130.113C115.566 133.615 117.7 136.78 120.42 139.401C123.14 142.022 126.385 144.038 129.941 145.318C132.67 146.286 135.604 147.351 137.934 145.691Z" fill="#1A2732"/>
<path d="M178.007 257.784C178.559 251.225 180.035 244.816 181.217 238.354C180.189 237.115 178.779 236.251 177.207 235.895C155.663 231.35 134.653 221.16 114.541 230.107C109.117 232.522 101.977 211.156 97.7982 215.425C93.0502 220.263 94.5617 218.887 93.797 224.923C92.6056 234.27 95.2908 270.087 95.2908 270.194C95.4153 274.002 92.6234 273.247 94.2505 276.718C97.6292 284.068 106.085 287.654 114.069 289.03C126.722 291.213 139.712 289.518 152.302 287.148C161.194 285.47 169.934 293.042 176.54 286.855C177.997 285.44 179.237 283.819 180.221 282.044C178.577 274.082 177.314 265.871 178.007 257.784Z" fill="#F09F92"/>
<path d="M94.1433 240.022C97.8511 243.244 99.7983 247.585 102.635 251.473C105.889 255.911 110.993 257.687 116.381 257.536C119.209 257.367 122.023 257.002 124.801 256.444C127.686 255.972 130.609 255.761 133.532 255.814C138.965 255.876 144.344 256.746 149.741 257.305C158.908 258.264 168.298 257.624 177.447 256.568C180.488 256.213 189.895 257.731 192.927 257.163C192.927 255.707 192.847 254.251 192.802 252.796C192.207 233.755 185.12 212.638 181.475 193.988C179.999 186.443 177.989 178.898 174.104 172.392C158.446 146.215 120.302 146.987 103.044 170.616C96.7574 179.218 93.4854 189.878 90.5957 200.371C87.4837 211.614 84.6562 222.941 82.1133 234.35C86.5618 235.125 90.7181 237.085 94.1433 240.022Z" fill="#F73838"/>
<path d="M126.756 134.391C126.756 132.066 126.756 129.74 126.667 127.388C126.409 119.86 126.462 112.164 130.223 105.436C133.984 98.7075 140.893 96.8966 148.584 98.0861C155.155 99.1069 157.778 101.379 159.885 107.176C162.555 114.177 163.909 121.61 163.877 129.101C163.877 132.918 163.673 136.859 162.01 140.294C160.347 143.729 156.826 146.508 153.012 146.25C153.181 152.801 154.15 163.249 147.072 166.018C140.706 168.504 126.969 168.158 125.733 159.175C125.618 158.071 125.618 156.958 125.733 155.855C126.258 148.62 126.711 141.546 126.756 134.391Z" fill="#F09F92"/>
<path d="M139.969 108.996C141.916 109.963 144.468 109.457 146.193 110.771C148.434 112.546 147.9 116.372 150.061 118.218C151.005 118.906 152.104 119.351 153.262 119.514C159.779 120.988 167.319 122.266 172.591 118.156C172.878 117.959 173.11 117.693 173.267 117.384C173.366 116.998 173.331 116.591 173.17 116.227C173.009 115.864 172.73 115.564 172.378 115.378C171.693 114.952 170.884 114.801 170.173 114.428C167.301 112.954 167.248 108.996 166.759 105.809C166.156 102.211 164.548 98.8571 162.119 96.1324C159.69 93.4076 156.54 91.4233 153.03 90.408C146.06 88.5173 139.809 91.2246 133.852 94.4291C132.954 94.9696 132.129 95.6229 131.398 96.373L125.992 101.468C124.89 102.445 123.881 103.52 122.977 104.682C120.701 107.771 120.034 111.729 119.661 115.546C119.385 118.298 119.537 121.662 121.946 123.038C123.831 124.103 126.916 124.139 128.303 122.479C129.69 120.819 129.566 117.703 129.513 115.538C129.363 114.515 129.486 113.471 129.868 112.511C130.455 111.437 131.718 110.939 132.536 110.061C135.096 107.398 133.158 103.172 134.901 100.208C136.039 103.474 136.475 107.247 139.969 108.996Z" fill="#1A2732"/>
<path d="M133.193 134.109C135.396 131.157 134.785 126.98 131.828 124.781C128.871 122.581 124.687 123.191 122.484 126.143C120.28 129.095 120.891 133.272 123.849 135.472C126.806 137.672 130.989 137.062 133.193 134.109Z" fill="#F09F92"/>
<path d="M127.148 126.935C126.56 127.402 126.121 128.029 125.882 128.74C125.644 129.451 125.617 130.216 125.806 130.942C125.994 131.668 126.389 132.324 126.943 132.831C127.496 133.338 128.186 133.673 128.926 133.797" fill="#1A2732"/>
<path d="M117.037 77.5366C119.157 79.8402 120.917 82.4496 122.257 85.2769C124.266 89.2181 125.44 95.7424 125.644 100.101C125.244 99.8168 123.991 98.5829 123.528 98.5563C121.75 98.4764 121.679 99.3285 119.972 99.5771C117.455 99.9499 115.153 97.3846 112.779 98.1302C111.748 98.5987 110.943 99.4532 110.538 100.509C109.186 103.172 107.559 106.368 104.607 106.448C102.909 106.501 101.344 105.382 99.637 105.391C98.5368 105.493 97.4642 105.794 96.4717 106.279C93.662 107.38 90.2477 107.912 87.8026 106.146C84.3527 103.643 84.9395 98.432 85.9265 94.2867C87.0862 89.0687 88.571 83.928 90.3722 78.8947C90.9862 76.9369 91.9937 75.1247 93.333 73.5687C95.8226 70.9768 99.7793 70.24 103.327 70.7993C108.468 71.6294 113.243 73.9758 117.037 77.5366Z" fill="#1A2732"/>
<path d="M148.398 133.672C148.78 135.116 149.721 136.348 151.013 137.099C152.306 137.85 153.844 138.057 155.289 137.676C156.735 137.294 157.969 136.355 158.721 135.065C159.473 133.775 159.681 132.24 159.299 130.796" fill="white"/>
<path d="M157.859 152.002C155.859 152.73 153.636 151.958 151.751 150.99C148.808 149.481 146.025 147.386 144.549 144.439C147.218 145.745 150.148 146.427 153.12 146.437C154.232 146.437 155.334 146.348 156.446 146.25L161.051 145.869" fill="#1A2732"/>
<path d="M145.874 120.987C145.298 120.505 144.615 120.168 143.881 120.006C143.147 119.844 142.385 119.861 141.659 120.055C140.915 120.289 140.232 120.685 139.66 121.215C139.088 121.745 138.641 122.394 138.352 123.118" stroke="#1A2732" stroke-miterlimit="10"/>
<path d="M133.591 148.013C137.012 144.496 136.928 138.876 133.405 135.461C129.881 132.047 124.252 132.13 120.832 135.647C117.411 139.165 117.495 144.785 121.018 148.199C124.542 151.614 130.171 151.531 133.591 148.013Z" stroke="#242320" stroke-miterlimit="10"/>
<path d="M89.8031 202.617C89.5719 202.67 89.652 203.025 89.8031 203.22C91.159 204.883 92.6847 206.4 94.3555 207.747C97.8723 210.988 100.608 214.982 102.358 219.429" stroke="#1A2732" stroke-miterlimit="10"/>
<path d="M48.2368 121.245C47.8763 121.728 47.6654 122.306 47.6302 122.907C47.5951 123.508 47.7372 124.106 48.039 124.627C48.3408 125.149 48.789 125.57 49.3283 125.84C49.8676 126.11 50.4742 126.216 51.0732 126.145" fill="#1A2732"/>
<path d="M57.3938 31.6094C57.2137 32.4208 56.9515 33.212 56.6113 33.9705" stroke="#1A2732" stroke-miterlimit="10"/>
<path d="M61.7524 32.6035L61.1211 34.0948" stroke="#1A2732" stroke-miterlimit="10"/>
<path d="M66.2778 33.2339L65.3887 35.6039" stroke="#1A2732" stroke-miterlimit="10"/>
<path d="M70.359 34.9561L69.123 36.8379" stroke="#1A2732" stroke-miterlimit="10"/>
<path d="M124.418 96.2485C123.308 97.5968 121.711 98.4546 119.972 98.6363C118.249 98.7917 116.542 99.0886 114.868 99.524C111.525 100.705 110.609 102.977 110.085 106.022C109.64 108.578 108.822 111.676 105.595 111.987C103.203 112.217 100.749 110.265 98.5525 111.232C97.5833 111.658 96.9254 112.581 96.0274 113.141C95.2682 113.556 94.4166 113.773 93.5511 113.773C92.6856 113.773 91.834 113.556 91.0748 113.141C89.5701 112.29 88.2757 111.113 87.2871 109.697" stroke="#1A2732" stroke-miterlimit="10"/>
<path d="M135.15 95.707C134.607 99.5739 134.572 103.495 135.043 107.371C135.239 109.049 135.443 111.01 134.216 112.164C133.745 112.617 133.114 112.865 132.625 113.309C130.846 114.969 131.984 118.005 131.344 120.411C131.149 121.131 130.779 121.792 130.267 122.337C129.755 122.881 129.118 123.291 128.41 123.532C127.702 123.772 126.946 123.835 126.208 123.714C125.47 123.594 124.773 123.295 124.178 122.843" stroke="#1A2732" stroke-miterlimit="10"/>
<path d="M129.664 192.027C128.171 193.812 127.196 195.972 126.847 198.272C126.498 200.571 126.787 202.923 127.684 205.069C128.581 207.216 130.051 209.076 131.933 210.447C133.816 211.817 136.039 212.646 138.36 212.842" fill="#FFCA1C"/>
<path d="M172.156 182.955C168.917 183.218 165.868 184.588 163.523 186.834C162.375 187.972 161.548 189.391 161.125 190.95C160.702 192.508 160.698 194.15 161.113 195.711" fill="#FFCA1C"/>
<path d="M159.673 211.919C158.793 213.541 158.364 215.37 158.433 217.214C158.502 219.058 159.065 220.85 160.065 222.402C161.095 223.933 162.446 225.223 164.024 226.182C165.602 227.141 167.37 227.748 169.205 227.959" fill="#FFCA1C"/>
<path d="M127.389 243.946C128.42 242.555 129.759 241.421 131.301 240.631C132.843 239.841 134.547 239.417 136.28 239.392C139.769 239.388 143.193 240.333 146.185 242.126C147.305 242.756 148.506 243.635 148.595 244.913" fill="#FFCA1C"/>
<path d="M95.0312 220.663C94.6844 223.326 96.1781 225.918 97.6452 228.208C99.2101 230.649 101.006 233.223 103.754 234.137C106.652 235.087 109.791 233.933 112.565 232.673" fill="#FFCA1C"/>
<path d="M94 189.071C97.7344 187.447 102.465 187.296 105.559 189.959C108.226 192.249 108.982 195.977 109.604 199.421L110.494 204.454" fill="#FFCA1C"/>
<path d="M98.8558 164.216C98.8118 165.7 99.1095 167.175 99.7261 168.526C100.343 169.877 101.262 171.069 102.412 172.01C103.816 173.092 105.421 173.885 107.134 174.344C110.272 175.285 113.873 175.498 116.656 173.767" fill="#FFCA1C"/>
<path d="M135.523 177.975C137.871 181.526 141.827 184.517 146.078 184.047C149.679 183.656 152.542 180.975 155.12 178.428" fill="#FFCA1C"/>
<path d="M182.665 163.498C181.207 163.737 180.727 165.566 180.593 167.048C180.184 169.708 180.299 172.421 180.931 175.037C181.791 177.822 183.705 180.163 186.266 181.561" fill="#FFCA1C"/>
<path d="M81.9794 165.61C83.8821 164.784 86.1495 166.435 86.6563 168.45C87.1631 170.465 86.3984 172.569 85.4293 174.398C84.2624 176.61 82.7898 178.648 81.0547 180.452" fill="#FFCA1C"/>
<path d="M90.7909 260.749L90.6308 260.9C90.0356 261.54 89.7163 262.388 89.7417 263.261C89.7417 263.927 90.0795 264.584 90.0973 265.188C88.8703 265.188 87.7856 264.983 86.9409 266.182C86.6078 266.737 86.4094 267.363 86.3615 268.009C86.3136 268.654 86.4177 269.302 86.6652 269.901C85.8472 269.075 84.3001 269.741 83.8645 270.789C83.5484 271.917 83.614 273.119 84.0512 274.206C83.6211 274 83.1501 273.893 82.673 273.893C82.1959 273.893 81.7249 274 81.2948 274.206C81.0077 274.421 80.7768 274.702 80.622 275.025C80.4672 275.348 80.393 275.703 80.4057 276.061C80.4534 276.768 80.6218 277.462 80.9036 278.112C81.681 280.154 82.5715 282.151 83.571 284.095C84.3545 285.864 85.4992 287.452 86.932 288.755C87.6522 289.35 88.3279 289.918 89.0748 289.252C89.4019 288.938 89.6332 288.538 89.7418 288.098C89.8504 287.658 89.8318 287.196 89.6883 286.766C89.458 285.93 89.1606 285.114 88.7992 284.325C88.5769 283.873 87.91 283.1 88.2123 282.55C88.7547 281.485 89.9017 283.358 90.3107 283.855C90.9121 284.683 91.8162 285.241 92.827 285.408C93.3313 285.474 93.8426 285.36 94.2716 285.088C94.7007 284.815 95.0202 284.401 95.1743 283.917C95.4411 282.692 94.3741 281.636 93.7161 280.571C93.2087 279.648 92.8317 278.659 92.5958 277.632C93.6094 278.067 94.0718 279.239 94.9254 279.949C95.2083 280.19 95.5398 280.366 95.8973 280.468C96.2547 280.569 96.6298 280.592 96.997 280.535C97.3644 280.476 97.7088 280.318 97.9937 280.079C98.2786 279.84 98.4934 279.528 98.6153 279.177C98.7649 278.544 98.712 277.879 98.4641 277.277C98.0085 276.03 97.3207 274.879 96.4369 273.887C95.6981 273.058 95.1462 272.08 94.8187 271.019C95.4322 270.904 96.0457 271.596 96.4191 272.04C96.7665 272.511 97.1831 272.927 97.655 273.274C97.8965 273.441 98.1816 273.534 98.4753 273.542C98.769 273.55 99.0587 273.472 99.3088 273.318C100.34 272.546 99.869 270.753 99.3088 269.874C98.3238 268.322 97.1267 266.915 95.7523 265.694C94.4719 264.451 93.974 262.542 92.8092 261.193C92.6528 260.957 92.44 260.764 92.1901 260.631C91.9402 260.497 91.661 260.428 91.3777 260.43C91.1576 260.484 90.9554 260.594 90.7909 260.749Z" fill="#F09F92"/>
<path d="M88.9156 283.358C88.3717 282.686 87.8756 281.977 87.4308 281.236C87.1996 280.854 86.9862 280.473 86.7728 280.082L84.6211 276.159" stroke="#1A2732" stroke-miterlimit="10"/>
<path d="M98.0464 274.819C96.4192 272.972 92.9072 267.655 90.9866 266.111C90.9171 266.041 90.8338 265.986 90.7421 265.949C90.6503 265.912 90.5519 265.895 90.4531 265.898" stroke="#1A2732" stroke-miterlimit="10"/>
<path d="M94.7927 280.739C93.13 278.458 89.2089 273.265 87.4395 271.082C87.2883 270.895 87.0749 270.682 86.8438 270.744" stroke="#1A2732" stroke-miterlimit="10"/>
</g>
<defs>
<clipPath id="clip0_1312_3162">
<rect width="598" height="381" fill="white"/>
</clipPath>
</defs>
</svg>
