<svg width="25" height="24" viewBox="0 0 25 24" fill="none" xmlns="http://www.w3.org/2000/svg">
<g clip-path="url(#clip0_487_294)">
<path d="M7.14367 6.61938L15.8146 6.61938C16.4959 6.61938 17.0533 7.1768 17.0533 7.85809V16.5291C17.0533 17.211 16.4959 17.7678 15.8146 17.7678H7.14367C6.46238 17.7678 5.90496 17.211 5.90496 16.5291L5.90496 7.85809C5.90496 7.1768 6.46238 6.61938 7.14367 6.61938ZM11.4891 15.6143C10.5793 15.6141 9.70689 15.2526 9.06366 14.6093C8.42043 13.9659 8.05908 13.0934 8.05908 12.1837C8.05908 11.9743 8.08571 11.7724 8.12287 11.5742H7.14367L7.14367 16.0435C7.14367 16.0998 7.15479 16.1555 7.17638 16.2075C7.19797 16.2594 7.22962 16.3066 7.2695 16.3463C7.30938 16.386 7.35671 16.4175 7.40877 16.4388C7.46083 16.4602 7.51661 16.4711 7.57288 16.4708H15.3854C15.4417 16.4711 15.4975 16.4602 15.5495 16.4388C15.6016 16.4175 15.6489 16.386 15.6888 16.3463C15.7287 16.3066 15.7603 16.2594 15.7819 16.2075C15.8035 16.1555 15.8146 16.0998 15.8146 16.0435L15.8146 11.5742H14.8553C14.893 11.7724 14.9197 11.9743 14.9197 12.1837C14.9195 13.0935 14.558 13.966 13.9147 14.6093C13.2714 15.2526 12.3989 15.6141 11.4891 15.6143ZM13.6326 12.1837C13.6326 11.9022 13.5772 11.6234 13.4695 11.3634C13.3618 11.1033 13.2039 10.867 13.0048 10.6679C12.8058 10.4689 12.5694 10.311 12.3094 10.2033C12.0493 10.0955 11.7706 10.0401 11.4891 10.0401C11.2076 10.0401 10.9288 10.0955 10.6687 10.2033C10.4087 10.311 10.1724 10.4689 9.97332 10.6679C9.77427 10.867 9.61637 11.1033 9.50865 11.3634C9.40092 11.6234 9.34548 11.9022 9.34548 12.1837C9.34548 12.7522 9.57132 13.2974 9.97332 13.6994C10.3753 14.1014 10.9205 14.3273 11.4891 14.3273C12.0576 14.3273 12.6028 14.1014 13.0048 13.6994C13.4068 13.2974 13.6326 12.7522 13.6326 12.1837ZM7.57288 9.71616L8.57314 9.71616C8.68671 9.71583 8.79554 9.67057 8.87584 9.59027C8.95615 9.50996 9.00141 9.40113 9.00173 9.28756V8.28607C9.00173 8.04947 8.80973 7.85809 8.57376 7.85809H7.5735C7.33567 7.85809 7.14367 8.04947 7.14367 8.28607V9.28695C7.14367 9.52292 7.33567 9.71616 7.57288 9.71616Z" fill="white"/>
</g>
<circle cx="12.1431" cy="12" r="11.5" stroke="white"/>
<defs>
<clipPath id="clip0_487_294">
<rect width="12.3871" height="12.3871" fill="white" transform="translate(5.28564 6)"/>
</clipPath>
</defs>
</svg>
