<svg width="95" height="81" viewBox="0 0 95 81" fill="none" xmlns="http://www.w3.org/2000/svg">
<g clip-path="url(#clip0_1052_7803)">
<path d="M28.4838 13.5088C24.1898 13.5088 20.7139 16.9906 20.7139 21.2919C20.7139 22.1112 21.4299 22.8277 22.2471 22.8277C23.0651 22.8277 23.7804 22.1105 23.7804 21.2919C23.7804 18.6293 25.9278 16.5806 28.4837 16.5806C31.0397 16.5806 33.1871 18.7316 33.1871 21.2919C33.1871 23.8521 31.0397 26.0031 28.4837 26.0031C27.6657 26.0031 26.9505 26.7204 26.9505 27.539V36.5514C26.9505 37.3708 27.6665 38.0872 28.4837 38.0872C29.3017 38.0872 30.017 37.37 30.017 36.5514V28.8705C33.5957 28.1533 36.2535 24.9787 36.2535 21.1897C36.3562 16.9914 32.7776 13.5089 28.4836 13.5089L28.4838 13.5088Z" fill="white"/>
<path d="M28.4844 40.1357C27.6665 40.1357 26.9512 40.853 26.9512 41.6716C26.9512 42.491 27.6672 43.2075 28.4844 43.2075C29.3024 43.2075 30.0177 42.4903 30.0177 41.6716C30.0177 40.8522 29.4044 40.1357 28.4844 40.1357Z" fill="white"/>
<path d="M87.6799 71.6786C92.3832 66.4558 95.041 59.6965 95.041 52.5277C95.041 36.7568 82.2613 23.955 66.5166 23.955C63.1427 23.955 59.9734 24.5694 57.0088 25.5938C55.5775 11.1536 43.4111 -0.213867 28.5866 -0.213867C12.7395 -0.214581 -0.0400391 12.5868 -0.0400391 28.3589C-0.0400391 35.5275 2.51591 42.1847 7.3211 47.5098L0.471152 54.3713C0.0625099 54.7806 -0.142168 55.4979 0.164492 56.01C0.471151 56.5222 0.982489 56.9316 1.59579 56.9316H28.5866C31.9605 56.9316 35.1299 56.3172 38.0944 55.2928C39.5257 69.733 51.6921 81.1005 66.5166 81.1005H93.5075C94.1208 81.1005 94.7341 80.6911 94.9388 80.1789C95.1434 79.6667 95.0408 78.9502 94.6321 78.5402L87.6799 71.6786ZM5.17374 53.8589L10.4903 48.5333C10.797 48.2262 10.8989 47.8161 10.8989 47.4068C10.8989 46.9974 10.6943 46.5874 10.4903 46.2802C5.68511 41.4669 3.0271 35.0146 3.0271 28.256C3.0271 14.1231 14.4776 2.75564 28.4844 2.75564C41.9802 2.75564 53.1238 13.406 53.9417 26.7199C44.5358 31.3282 38.0946 40.955 37.8899 52.0154C35.0273 53.142 31.8581 53.8585 28.484 53.8585L5.17374 53.8589ZM53.9413 30.3043C53.328 39.0096 48.2162 46.4853 41.0595 50.5817C41.6721 41.8772 46.7839 34.4013 53.9413 30.3043ZM66.5164 78.0279C53.0206 78.0279 41.877 67.3775 41.0591 54.0637C50.465 49.4554 56.9062 39.8286 57.1109 28.7682C59.9735 27.6416 63.1427 26.9251 66.5168 26.9251C80.6258 26.9251 91.9741 38.395 91.9741 52.4255C91.9741 59.2871 89.3161 65.6362 84.5109 70.4497C84.2042 70.7569 84.1022 71.1669 84.1022 71.5763C84.1022 71.9856 84.3069 72.3956 84.5109 72.7028L89.8274 78.0284L66.5164 78.0279Z" fill="white"/>
<path d="M72.753 49.6602C71.935 49.6602 71.2197 50.3774 71.2197 51.196C71.2197 52.0154 71.9357 52.7319 72.753 52.7319C73.571 52.7319 74.2863 52.0147 74.2863 51.196C74.2863 50.3774 73.6729 49.6602 72.753 49.6602Z" fill="white"/>
<path d="M66.6192 49.6602C65.8012 49.6602 65.0859 50.3774 65.0859 51.196C65.0859 52.0154 65.802 52.7319 66.6192 52.7319C67.4372 52.7319 68.1525 52.0147 68.1525 51.196C68.1532 50.3774 67.5399 49.6602 66.6192 49.6602Z" fill="white"/>
<path d="M60.4845 49.6602C59.6665 49.6602 58.9512 50.3774 58.9512 51.196C58.9512 52.0154 59.6672 52.7319 60.4845 52.7319C61.3024 52.7319 62.0177 52.0147 62.0177 51.196C62.0177 50.3774 61.4044 49.6602 60.4845 49.6602Z" fill="white"/>
</g>
<defs>
<clipPath id="clip0_1052_7803">
<rect width="95" height="81" fill="white"/>
</clipPath>
</defs>
</svg>
