<svg width="362" height="364" viewBox="0 0 362 364" fill="none" xmlns="http://www.w3.org/2000/svg">
<g clip-path="url(#clip0_1248_5709)">
<path d="M295.699 302.17H91.2893C83.2893 302.17 76.7793 295.66 76.7793 287.66V134.15C76.7793 126.15 83.2893 119.64 91.2893 119.64H295.689C303.689 119.64 310.199 126.15 310.199 134.15V287.65C310.199 295.65 303.689 302.16 295.689 302.16L295.699 302.17ZM91.2893 120.55C83.7893 120.55 77.6793 126.65 77.6793 134.16V287.66C77.6793 295.16 83.7793 301.27 91.2893 301.27H295.689C303.189 301.27 309.299 295.17 309.299 287.66V134.15C309.299 126.65 303.189 120.54 295.689 120.54H91.2893V120.55Z" fill="#B3DCFF"/>
<path d="M340.91 139.88C340.91 139.88 344.64 141.56 346.31 142.15C347.97 142.73 354.08 142.08 354.75 142.6C355.43 143.12 355.46 145.1 354.48 145.45C353.5 145.8 346.21 147.59 343.67 147.34C341.13 147.08 336.66 148.8 335.59 148.58C334.52 148.36 334.43 142.36 334.66 140.98C334.89 139.6 340.92 139.89 340.92 139.89L340.91 139.88Z" fill="#484E7D"/>
<path d="M340.049 137.48L340.909 139.88C340.909 139.88 336.409 141.48 334.649 140.97L334.059 138.52L340.049 137.47V137.48Z" fill="#EEA886"/>
<path d="M330.859 142.02C330.859 142.02 334.379 144.16 335.969 144.96C337.559 145.75 343.689 145.87 344.299 146.48C344.919 147.09 344.719 149.05 343.709 149.27C342.699 149.49 335.259 150.35 332.769 149.77C330.279 149.19 325.649 150.33 324.609 149.97C323.569 149.61 324.139 143.65 324.519 142.31C324.899 140.97 330.849 142.02 330.849 142.02H330.859Z" fill="#5B639E"/>
<path d="M330.329 139.52L330.859 142.02C330.859 142.02 326.219 143.04 324.529 142.31L324.219 139.8L330.339 139.52H330.329Z" fill="#EEA886"/>
<path d="M295.08 94.5898C295.08 94.5898 311.12 94.7298 313.08 95.0098C315.21 95.3098 323.56 95.5798 324.56 97.1098C334.73 112.55 341.37 137.82 341.37 137.82L333.33 139.4C333.33 139.4 325.56 124.34 322.3 116.51C319.38 109.48 316.88 107.68 310.74 107.83C304.6 107.98 284.97 106.63 273.65 105.23L295.08 94.5898Z" fill="#292C47"/>
<path d="M293.38 57.4099C293.38 57.4099 298.14 67.6499 297.75 71.4599C297.37 75.2599 293.27 85.8099 292.98 87.9299C292.69 90.0499 294.76 94.2399 294.76 94.2399L273.329 104.16C273.329 104.16 272.469 97.8899 273.329 90.6699C274.189 83.4499 274.829 75.6799 275.78 71.5999C279.03 57.6699 287.63 51.8999 287.63 51.8999L293.369 57.4199L293.38 57.4099Z" fill="#FF7E55"/>
<path d="M294.77 94.23C294.77 94.23 310.81 94.37 312.77 94.65C314.9 94.95 323.43 95.1 324.25 96.75C330.08 108.52 331.39 139.93 331.39 139.93L323.89 140.84C323.89 140.84 320.7 124.81 319.05 117.3C318.18 113.32 314.86 108.49 310.31 108.76C304.18 109.12 280.13 115.06 273.33 104.15L294.76 94.23H294.77Z" fill="#323657"/>
<path d="M280.92 67.0799C280.97 65.0999 282.12 56.5399 286.95 57.1199C291.78 57.7099 291.22 63.4999 290.77 67.8699C290.3 72.4399 287.93 83.6499 288.69 84.2299C289.44 84.8099 295.17 86.5299 296.4 86.7699C297.63 87.0199 305.06 88.8399 305.67 89.0099C306.27 89.1799 305.07 92.0599 305.07 92.0599C305.07 92.0599 284.51 91.4599 281.07 89.8299C277.63 88.1999 280.93 67.0799 280.93 67.0799H280.92Z" fill="#EEA886"/>
<path d="M305.659 89.01C305.659 89.01 307.189 89.39 307.919 89.45C308.659 89.51 312.139 88.12 313.229 88.33C314.309 88.53 321.289 91.9 321.599 92.13C321.909 92.37 321.409 92.83 321.409 92.83L305.049 92.24L305.649 89.01H305.659Z" fill="#EEA886"/>
<path d="M326.161 92.8991L298.953 91.8015L298.853 94.2895L326.061 95.387L326.161 92.8991Z" fill="#807066"/>
<path d="M332.899 68.9301L323.697 94.5583L326.041 95.3998L335.242 69.7715L332.899 68.9301Z" fill="#807066"/>
<path d="M305.86 41.28C305.86 41.28 306.37 45.49 305.23 45.66C304.29 45.81 304.62 49.86 304.62 50.51C304.62 51.16 302.85 50.93 302.37 51.15C301.89 51.37 299.15 55.39 297.77 55C296.4 54.61 291.24 50.21 290.28 47.88C289.32 45.56 290.97 37.41 293.31 34.61C295.65 31.82 304.91 33.91 305.85 41.27L305.86 41.28Z" fill="#EEA886"/>
<path d="M295.13 52.0301C295.13 52.0301 294.99 52.4001 294.79 52.9701C294.64 53.3901 294.45 53.9201 294.26 54.5001C293.74 56.0601 293.16 57.9601 293.12 58.8901C293.04 60.6201 287.65 51.8901 287.65 51.8901C287.65 51.8901 289.59 46.6301 290.8 40.4801C292.01 34.3301 295.14 52.0201 295.14 52.0201L295.13 52.0301Z" fill="#EEA886"/>
<path d="M305.94 42.18C305.94 42.18 309.32 39.18 306.94 35.04C304.56 30.9 296.24 33.27 295.45 33.18C294.66 33.08 290.51 31.77 289.7 39.76C288.9 47.75 289.4 46.55 289.4 46.55C289.4 46.55 291.44 43.12 292.89 43.67C294.34 44.22 296.89 44.49 296.89 44.49C296.89 44.49 296.94 40.76 299.03 41.05C301.12 41.34 304.28 40.71 305.94 42.18Z" fill="#D88A51"/>
<path d="M280.549 67.4601L291.569 67.8601C291.569 67.8601 293.279 56.3901 286.949 56.6101C280.609 56.8301 280.549 67.4601 280.549 67.4601Z" fill="#FF7E55"/>
<path d="M295.579 41.83C295.579 41.32 295.789 39.19 293.699 39.67C291.609 40.15 292.869 44.81 293.139 44.97C293.409 45.13 295.529 46.14 295.579 41.83Z" fill="#EEA886"/>
<path d="M287.639 51.8899C287.639 51.8899 297.099 68.9799 296.849 66.5599C296.659 64.6699 292.559 55.5199 292.559 55.5199L287.639 51.8899Z" fill="#EEA886"/>
<path d="M294.789 52.9699C294.639 53.3899 294.449 53.9199 294.259 54.4999C292.349 52.1299 291.029 49.4399 290.639 48.6099C291.419 50.0299 294.789 52.9699 294.789 52.9699Z" fill="#A77860"/>
<path d="M294.77 94.23L273.7 106.96L273.34 104.15L294.77 94.23Z" fill="#D6C5BF"/>
<path d="M237.23 86.28C237.23 86.28 240 107.67 224.55 124.09C209.09 140.51 174.25 134.66 174.25 134.66C174.25 134.66 180.01 115.25 192.65 107.25C205.28 99.25 230.1 96.5 237.24 86.28H237.23Z" fill="#869135"/>
<path d="M219.25 45.71C219.25 45.71 231.99 69.69 221.05 95.9C210.1 122.1 166.44 130.63 166.44 130.63C166.44 130.63 164.64 105.2 175.99 90.18C187.34 75.16 215.38 60.92 219.26 45.72L219.25 45.71Z" fill="#48753A"/>
<path d="M114.7 143.73H32.2695V144.73H114.7V143.73Z" fill="#78C2FF"/>
<path d="M21.2302 185.88L4.74023 160.12L13.1102 163.91L21.2302 185.88Z" fill="#D6D6D6"/>
<path d="M21.2305 185.88L20.2205 170.35L14.2305 166.94L21.2305 185.88Z" fill="#E8E8E8"/>
<path d="M8.5307 166.04L6.4707 168.76L21.2307 185.88L8.5307 166.04Z" fill="#C2C2C2"/>
<path d="M101.271 106.99H305.671C313.431 106.99 319.731 113.29 319.731 121.05V274.55C319.731 282.31 313.431 288.61 305.671 288.61H101.271C93.5109 288.61 87.2109 282.31 87.2109 274.55V121.05C87.2109 113.29 93.5109 106.99 101.271 106.99Z" fill="#E3F2FF"/>
<path d="M319.741 121.05V125.03H87.2109V121.05C87.2109 113.28 93.5009 106.99 101.271 106.99H305.671C313.441 106.99 319.731 113.28 319.731 121.05H319.741Z" fill="#4DA8F2"/>
<path d="M179.249 149.22H113.629C110.63 149.22 108.199 151.651 108.199 154.65V171.85C108.199 174.849 110.63 177.28 113.629 177.28H179.249C182.248 177.28 184.679 174.849 184.679 171.85V154.65C184.679 151.651 182.248 149.22 179.249 149.22Z" fill="#B3DCFF"/>
<path d="M179.25 214.99H113.63C110.39 214.99 107.75 212.35 107.75 209.11V191.91C107.75 188.67 110.39 186.03 113.63 186.03H179.25C182.49 186.03 185.13 188.67 185.13 191.91V209.11C185.13 212.35 182.49 214.99 179.25 214.99ZM113.63 186.93C110.88 186.93 108.65 189.16 108.65 191.91V209.11C108.65 211.86 110.88 214.09 113.63 214.09H179.25C181.99 214.09 184.23 211.86 184.23 209.11V191.91C184.23 189.17 182 186.93 179.25 186.93H113.63Z" fill="#B3DCFF"/>
<path d="M262.771 223.74H203.291C202.512 223.74 201.881 224.371 201.881 225.15V226.86C201.881 227.639 202.512 228.27 203.291 228.27H262.771C263.55 228.27 264.181 227.639 264.181 226.86V225.15C264.181 224.371 263.55 223.74 262.771 223.74Z" fill="#B3DCFF"/>
<path d="M203.289 240.18H262.759C263.539 240.18 264.169 240.81 264.169 241.59V243.29C264.169 244.07 263.539 244.71 262.749 244.71H203.279C202.499 244.71 201.869 244.08 201.869 243.3V241.6C201.869 240.82 202.499 240.19 203.279 240.19L203.289 240.18Z" fill="#B3DCFF"/>
<path d="M291.22 214.99H209.61C205.1 214.99 201.43 211.32 201.43 206.81V156.95C201.43 152.44 205.1 148.77 209.61 148.77H291.22C295.73 148.77 299.4 152.44 299.4 156.95V206.81C299.4 211.32 295.73 214.99 291.22 214.99ZM209.61 149.67C205.6 149.67 202.33 152.94 202.33 156.95V206.81C202.33 210.82 205.59 214.09 209.61 214.09H291.22C295.23 214.09 298.5 210.82 298.5 206.81V156.95C298.5 152.94 295.23 149.67 291.22 149.67H209.61Z" fill="#B3DCFF"/>
<path d="M287.72 229.7L282.55 225.19C282.13 224.82 282.08 224.18 282.45 223.75C282.82 223.33 283.46 223.28 283.89 223.65L287.55 226.84L292.76 221.03C293.14 220.61 293.78 220.58 294.2 220.95C294.62 221.32 294.65 221.97 294.28 222.39L287.73 229.7H287.72Z" fill="#4DA8F2"/>
<path d="M287.72 247.16L282.55 242.65C282.13 242.28 282.08 241.64 282.45 241.21C282.82 240.79 283.46 240.74 283.89 241.11L287.55 244.3L292.76 238.49C293.14 238.07 293.78 238.04 294.2 238.41C294.62 238.79 294.65 239.43 294.28 239.85L287.73 247.16H287.72Z" fill="#4DA8F2"/>
<path d="M203.291 257.65H262.761C263.541 257.65 264.171 258.28 264.171 259.06V260.76C264.171 261.54 263.541 262.17 262.761 262.17H203.291C202.511 262.17 201.881 261.54 201.881 260.76V259.06C201.881 258.28 202.511 257.65 203.291 257.65Z" fill="#B3DCFF"/>
<path d="M287.72 264.62L282.55 260.11C282.13 259.74 282.08 259.1 282.45 258.67C282.82 258.25 283.46 258.2 283.89 258.57L287.55 261.76L292.76 255.94C293.14 255.52 293.78 255.49 294.2 255.86C294.62 256.23 294.65 256.88 294.28 257.3L287.73 264.61L287.72 264.62Z" fill="#4DA8F2"/>
<g opacity="0.83">
<path opacity="0.1" d="M49.3102 36.96H171.91C178.3 36.96 183.48 42.14 183.48 48.53V119.76C183.48 126.15 178.3 131.33 171.91 131.33H49.3102C42.9202 131.33 37.7402 126.15 37.7402 119.76V48.53C37.7402 42.14 42.9202 36.96 49.3102 36.96Z" fill="#E0F1FF"/>
</g>
<path d="M65.0406 91.8C67.1606 92.52 69.4306 92.92 71.7906 92.95C78.9406 93.04 85.3406 89.7 89.4106 84.45C92.2306 80.81 93.9406 76.26 94.0006 71.3C94.0006 70.81 94.0006 70.32 93.9706 69.83C93.8506 67.63 93.4106 65.51 92.6906 63.53C89.6706 55.2 81.7406 49.21 72.3506 49.09C67.2906 49.02 62.6206 50.67 58.8706 53.5C53.6406 57.45 50.2206 63.68 50.1306 70.74C50.0106 80.49 56.2606 88.84 65.0306 91.8H65.0406ZM55.6306 70.81C55.7006 65.56 58.2206 60.91 62.1006 57.95C64.9206 55.79 68.4606 54.53 72.2906 54.58C79.3206 54.67 85.2706 59.16 87.5406 65.41C88.0806 66.9 88.4106 68.49 88.5006 70.14C88.5206 70.5 88.5206 70.87 88.5206 71.24C88.4706 74.96 87.1906 78.37 85.0806 81.1C82.0306 85.04 77.2306 87.54 71.8706 87.48C70.1006 87.46 68.4006 87.15 66.8006 86.62C60.2306 84.4 55.5406 78.14 55.6306 70.83V70.81Z" fill="#78C2FF"/>
<path d="M85.0808 81.0901L89.4208 84.4501C85.3508 89.7001 78.9508 93.0401 71.8008 92.9501C69.4408 92.9201 67.1708 92.5201 65.0508 91.8001L66.8108 86.6001C68.4008 87.1401 70.1008 87.4401 71.8708 87.4601C77.2308 87.5301 82.0308 85.0201 85.0808 81.0901Z" fill="#1A598C"/>
<path d="M92.7001 63.53L87.5401 65.41C88.2201 67.3 88.5401 69.28 88.5201 71.24C88.4701 74.96 87.1901 78.37 85.0801 81.1L89.4201 84.46C92.2401 80.82 93.9501 76.27 94.0101 71.31C94.0401 68.62 93.6001 66.01 92.7001 63.54V63.53Z" fill="#2273B5"/>
<path d="M58.8906 53.5C62.6406 50.67 67.3106 49.02 72.3706 49.09C81.7506 49.21 89.6806 55.21 92.7106 63.53L87.5506 65.41C85.2806 59.16 79.3406 54.66 72.3006 54.57C68.4706 54.52 64.9406 55.78 62.1106 57.94L58.8906 53.49V53.5Z" fill="#4DA8F2"/>
<path d="M131 163.36C131 163.22 131 163.09 131 162.95C131 162.9 131 162.86 131 162.81C130.96 161.99 130.79 161.21 130.52 160.47C129.4 157.38 126.45 155.15 122.96 155.1C121.08 155.08 119.34 155.69 117.95 156.74C116.01 158.21 114.74 160.52 114.7 163.15C114.65 166.77 116.98 169.87 120.24 170.98C121.03 171.25 121.87 171.4 122.75 171.41C123.75 171.42 124.7 171.26 125.59 170.94C127.07 170.41 128.35 169.47 129.3 168.25C130.22 167.06 130.83 165.6 130.97 164.01C130.99 163.8 131 163.58 131 163.36ZM116.74 163.18C116.76 161.23 117.7 159.5 119.14 158.4C120.19 157.6 121.5 157.13 122.93 157.15C125.54 157.18 127.75 158.85 128.6 161.17C128.8 161.73 128.92 162.31 128.96 162.93C128.96 163.07 128.97 163.2 128.96 163.34C128.96 163.93 128.86 164.5 128.69 165.04C128.47 165.76 128.13 166.42 127.68 167C127.52 167.21 127.34 167.41 127.15 167.6C126.03 168.71 124.48 169.39 122.77 169.37C122.32 169.37 121.88 169.31 121.46 169.21C121.27 169.17 121.07 169.11 120.89 169.05C118.45 168.22 116.71 165.9 116.74 163.18Z" fill="#E3F2FF"/>
<path d="M160.129 49.0901H118.379C112.757 49.0901 108.199 53.6478 108.199 59.2701V108.39C108.199 114.012 112.757 118.57 118.379 118.57H160.129C165.751 118.57 170.309 114.012 170.309 108.39V59.2701C170.309 53.6478 165.751 49.0901 160.129 49.0901Z" fill="#78C2FF"/>
<path d="M93.8298 102.56H53.1498C51.8741 102.56 50.8398 103.594 50.8398 104.87V105.17C50.8398 106.446 51.8741 107.48 53.1498 107.48H93.8298C95.1056 107.48 96.1398 106.446 96.1398 105.17V104.87C96.1398 103.594 95.1056 102.56 93.8298 102.56Z" fill="#B3DCFF"/>
<path d="M93.8298 113.65H53.1498C51.8741 113.65 50.8398 114.684 50.8398 115.96V116.26C50.8398 117.536 51.8741 118.57 53.1498 118.57H93.8298C95.1056 118.57 96.1398 117.536 96.1398 116.26V115.96C96.1398 114.684 95.1056 113.65 93.8298 113.65Z" fill="#B3DCFF"/>
<g opacity="0.78">
<path opacity="0.78" d="M258.371 146.4H339.981C344.251 146.4 347.711 149.86 347.711 154.13V203.99C347.711 208.26 344.251 211.72 339.981 211.72H258.371C254.101 211.72 250.641 208.26 250.641 203.99V154.14C250.641 149.87 254.101 146.41 258.371 146.41V146.4Z" fill="#4DA8F2"/>
</g>
<path d="M263.34 154.21H290.12C291.73 154.21 293.04 155.52 293.04 157.13V178.97C293.04 180.58 291.73 181.89 290.12 181.89H263.34C261.73 181.89 260.42 180.58 260.42 178.97V157.13C260.42 155.52 261.73 154.21 263.34 154.21Z" fill="#E3F2FF"/>
<path d="M300.2 154.21H338.75C339.69 154.21 340.46 154.98 340.46 155.92V159.88C340.46 160.82 339.69 161.59 338.75 161.59H300.2C299.26 161.59 298.49 160.82 298.49 159.88V155.91C298.49 154.97 299.26 154.2 300.2 154.2V154.21Z" fill="#E3F2FF"/>
<path d="M300.2 165.75H338.75C339.69 165.75 340.46 166.52 340.46 167.46V171.42C340.46 172.36 339.69 173.13 338.75 173.13H300.2C299.26 173.13 298.49 172.36 298.49 171.42V167.46C298.49 166.52 299.26 165.75 300.2 165.75Z" fill="#E3F2FF"/>
<path d="M338.91 198.97H324.04C323.184 198.97 322.49 199.664 322.49 200.52V201.23C322.49 202.086 323.184 202.78 324.04 202.78H338.91C339.766 202.78 340.46 202.086 340.46 201.23V200.52C340.46 199.664 339.766 198.97 338.91 198.97Z" fill="#E3F2FF"/>
<path d="M329.031 227.6C329.031 227.6 327.481 224.89 329.941 217.62C332.321 210.59 340.541 211.23 343.161 215.73C345.771 220.23 344.891 223.03 341.041 228.11C337.191 233.19 330.631 229.92 329.031 227.59V227.6Z" fill="#EEA886"/>
<path d="M348.141 352.62C348.141 352.62 348.551 355.6 348.601 356.05C348.651 356.5 353.131 355.79 353.131 355.79L353.491 352.24C353.491 352.24 348.701 352.2 348.141 352.62Z" fill="#EEA886"/>
<path d="M348.55 355.67C348.55 355.67 347.13 357.47 345.76 358.25C344.39 359.03 342.23 359.34 341.42 360.16C340.83 360.75 339.29 363.27 344.99 363.22C350.69 363.17 353.44 363.58 354.05 362.61C354.66 361.64 353.17 355.48 353.17 355.48C353.17 355.48 351.77 355.87 348.56 355.68L348.55 355.67Z" fill="#5377B3"/>
<path d="M317.131 352.62C317.131 352.62 317.541 355.6 317.591 356.05C317.641 356.5 322.121 355.79 322.121 355.79L322.481 352.24C322.481 352.24 317.691 352.2 317.131 352.62Z" fill="#EEA886"/>
<path d="M317.539 355.67C317.539 355.67 316.119 357.47 314.749 358.25C313.379 359.03 308.329 359.68 307.519 360.49C306.929 361.08 305.959 363.43 313.979 363.21C319.679 363.05 322.429 363.57 323.039 362.6C323.649 361.63 322.159 355.47 322.159 355.47C322.159 355.47 320.389 355.79 317.549 355.67H317.539Z" fill="#5B83C2"/>
<path d="M346.63 278.31C346.63 278.31 348.93 285.44 348.62 291.59C348.32 297.74 349.81 304.46 350.41 310.89C351.09 318.05 353.87 335 353.97 338.83C354.07 342.66 353.54 354.89 353.54 354.89L347.98 355.02C347.98 355.02 343.31 325.39 342.1 322.36C340.89 319.34 334.89 297.78 334.69 295.36C334.49 292.94 346.62 278.3 346.62 278.3L346.63 278.31Z" fill="#2F4563"/>
<path d="M323.58 277.57C323.58 277.57 320.21 296.43 319.8 300.19C319.4 303.95 319.13 318.4 318.93 320.75C318.73 323.1 317.59 351.52 316.51 355.02H322.71C322.71 355.02 329.08 334.36 329.08 324.58C329.08 314.8 333.29 303.33 336.02 296.88C338.74 290.43 344.97 290.28 346.64 278.31C346.64 278.31 325.85 273.77 323.59 277.57H323.58Z" fill="#354C70"/>
<path d="M331.281 229.52C331.281 229.52 331.981 231.56 331.281 233.01C330.581 234.46 340.211 233.59 340.211 233.59C340.211 233.59 339.771 230.59 341.031 228.12C342.291 225.65 331.271 229.52 331.271 229.52H331.281Z" fill="#EEA886"/>
<path d="M347.08 279.86C347.08 279.86 343.62 283.42 323.27 279.31L323.58 277.57L346.71 278.44L347.08 279.87V279.86Z" fill="#2B3B57"/>
<path d="M329.819 233.47C329.819 233.47 326.259 233.83 325.239 234.03C324.219 234.22 317.379 232.81 315.979 232.66C314.579 232.51 308.589 228.41 308.399 227.93C308.209 227.45 304.759 218.72 304.559 216.83C304.369 214.94 301.199 215.92 301.469 217.22C301.979 219.65 302.629 225.56 302.989 227.27C303.379 229.12 304.409 233.31 304.989 233.82C305.569 234.34 310.959 238.44 316.239 240.18C321.519 241.92 325.489 244.49 325.489 244.49H351.499C351.499 244.49 361.619 230.03 361.829 227.85C362.049 225.67 354.759 211.19 353.309 209.38C351.859 207.57 349.759 209.97 349.759 209.97C349.759 209.97 354.109 222.74 354.689 224.55C355.269 226.37 349.629 234.34 348.079 234.37C346.529 234.39 342.549 233.89 340.789 233.81C339.019 233.74 337.159 232.96 337.159 232.96L329.829 233.47H329.819Z" fill="#EEA886"/>
<path d="M318.61 243.13C318.61 243.13 321.79 245.25 322.08 248.88C322.37 252.51 323.53 258.25 324.11 260.21C324.69 262.17 323.6 276.41 323.46 277.42C323.31 278.44 343.58 280.85 346.7 278.44C346.7 278.44 347.57 265.15 347.93 261.37C348.29 257.59 350.04 248.44 350.62 247.21C351.2 245.97 358.24 236.09 358.54 234.79C358.54 234.79 354.9 228.98 352.28 228.91C352.28 228.91 348.13 233.78 346.77 233.99C345.41 234.2 337.12 232.69 337.12 232.67C337.12 232.67 336.21 233.9 331.4 232.45C331.4 232.45 325.67 233.1 324.73 233.22C323.6 233.36 315.75 232.23 315.75 232.23C315.75 232.23 312.6 237.55 313.15 240.23L318.61 243.12V243.13Z" fill="#FF7E55"/>
<path d="M304.74 217.96C304.74 217.96 304.03 214.59 304.89 213.63C305.38 213.08 306.55 211.62 306.66 211.41C306.77 211.2 308.02 210.47 308.02 210.13C308.02 209.79 306.79 209.35 305.72 210.34C304.65 211.33 303.98 211.54 303.55 211.44C303.12 211.33 302.51 207.77 302.45 206.89C302.4 206.01 302.06 203.68 301.5 203.84C300.95 204 300.98 205.02 300.98 205.02C300.98 205.02 300.34 203.25 299.91 203.6C299.48 203.95 299.54 204.8 299.54 204.8C299.54 204.8 298.74 203.81 298.52 204.53C298.31 205.25 298.52 205.9 298.52 205.9C298.52 205.9 297.69 205.44 297.64 206.57C297.59 207.69 297.88 210.98 298.47 212.16C299.06 213.34 301.26 216.42 301.52 217.62C301.78 218.82 304.74 217.96 304.74 217.96Z" fill="#EEA886"/>
<path d="M350.47 212.05C350.47 212.05 348.05 207.98 347.23 207.62C346.41 207.26 345.24 207.05 344.23 206.32C343.21 205.59 341.87 204.99 341.94 204.75C342.01 204.51 343.21 204.6 344.49 205.16C345.77 205.72 346.34 205.45 346.46 205.16C346.58 204.87 345.78 202.82 345.39 202.33C345 201.85 342.24 199.07 342.7 198.66C343.16 198.25 344.95 199.77 345.24 200.09C345.24 200.09 343.81 197.09 344.37 196.94C344.93 196.8 345.97 197.86 345.97 197.86C345.97 197.86 345.85 195.29 348.61 199.46C348.61 199.46 348.03 198.08 348.88 198.54C349.73 199 350.55 201.59 350.82 202.9C351.09 204.21 352.29 208.37 353.32 209.38C354.35 210.38 350.48 212.06 350.48 212.06L350.47 212.05Z" fill="#EEA886"/>
<path d="M341.039 228.11C341.039 228.11 339.759 228.22 337.049 227.29C334.339 226.35 334.139 221.61 333.549 222.17C332.349 223.32 331.219 222.52 330.769 221.85C330.769 221.85 332.089 220.11 331.479 219.27C330.869 218.43 329.869 217.82 329.869 217.82C329.869 217.82 331.779 208.63 340.449 212.82C350.619 217.73 341.029 228.12 341.029 228.12L341.039 228.11Z" fill="#353A3D"/>
<path d="M331.279 233L331.589 231.67C331.589 231.67 337.129 231.56 340.149 232L340.469 233.59C340.469 233.59 336.599 235.34 331.289 233.01L331.279 233Z" fill="#FF7E55"/>
<path d="M332.641 221.01C333.141 220.17 335.001 219.61 335.221 221.98C335.391 223.82 331.891 225.82 331.861 224.11C331.831 222.4 332.301 221.57 332.641 221.01Z" fill="#EEA886"/>
<path d="M304.61 217.2C304.61 217.2 302.61 217.25 301.64 218.12C301.64 218.12 301.58 218.68 301.8 219.12C301.8 219.12 303.53 218.31 304.86 218.16C304.86 218.16 304.84 217.43 304.61 217.2Z" fill="#E55353"/>
<path d="M302.25 217.7C302.07 218.14 302.27 218.64 302.71 218.82C303.15 219.01 303.65 218.8 303.84 218.36C304.02 217.92 303.82 217.42 303.38 217.23C302.94 217.05 302.44 217.25 302.25 217.69V217.7Z" fill="#353A3D"/>
<g style="mix-blend-mode:multiply" opacity="0.78">
<g style="mix-blend-mode:multiply" opacity="0.78">
<path d="M73.7698 190.09H139.39C142.39 190.09 144.82 192.52 144.82 195.52V212.72C144.82 215.72 142.39 218.15 139.39 218.15H73.7698C70.7698 218.15 68.3398 215.72 68.3398 212.72V195.52C68.3398 192.52 70.7698 190.09 73.7698 190.09Z" fill="#4DA8F2"/>
</g>
</g>
<path d="M8.89923 272.79C8.89923 272.79 9.19923 274.43 10.1192 274.67C10.8992 274.88 11.7692 275.71 12.0292 275.96C12.3892 276.3 13.8692 276.95 13.4392 277.4C13.0092 277.85 10.9392 276.46 10.4492 276.25C9.95923 276.05 10.6592 278.33 10.4592 278.85C10.2592 279.37 6.40923 280.32 6.10923 278.7C5.80923 277.08 6.54923 275.14 6.43923 274.87C6.32923 274.6 6.16923 273.7 6.16923 273.7L8.87923 272.78L8.89923 272.79Z" fill="#EEA886"/>
<path d="M10.4992 278.46C10.4992 278.46 11.0992 283.49 10.8592 283.86C10.6192 284.23 10.3392 284.24 10.2692 283.78C10.1992 283.32 9.54925 278.94 9.54925 278.94C9.54925 278.94 9.25925 285.01 9.12925 285.36C9.04925 285.56 8.51925 285.63 8.45925 285.38C8.39925 285.13 8.33925 279.1 8.33925 279.1C8.33925 279.1 8.05925 284.77 7.85925 285.02C7.68925 285.24 7.18925 285.18 7.17925 284.76C7.17925 284.34 7.13925 279.06 7.13925 279.06C7.13925 279.06 6.67925 283.17 6.37925 283.29C6.19925 283.36 5.74925 283.44 5.89925 282.38C6.04925 281.32 6.14925 278.79 6.14925 278.79L10.4992 278.47V278.46Z" fill="#EEA886"/>
<path d="M62.9102 211.09C62.9102 211.09 63.7402 209.55 64.0202 208.32C64.3002 207.09 65.8402 205.45 66.4602 205.06C67.0902 204.67 71.6202 201.42 72.1502 201.42C72.6802 201.42 72.3702 202.43 71.9202 202.72C71.4702 203.01 67.7802 205.88 67.7802 205.88C67.7802 205.88 72.3702 202.72 72.8402 202.8C73.3202 202.88 73.6602 203.49 73.1502 204.12C73.1502 204.12 74.2002 204.81 73.1102 205.64L70.9402 207.31C70.9402 207.31 72.2202 206.65 71.7402 207.67C71.4902 208.21 68.8202 209.81 68.4002 210.29C67.9702 210.78 64.6102 212.41 64.6102 212.41L62.9202 211.06L62.9102 211.09Z" fill="#EEA886"/>
<path d="M36.039 352.03H37.179C37.179 352.03 36.799 347.74 37.849 347.7C38.899 347.66 41.509 351.19 43.069 351.74C44.629 352.29 52.619 352.75 52.659 351.28C52.699 349.81 49.589 349.22 48.619 348.8C47.649 348.38 42.939 343.79 42.099 343.24C41.259 342.69 39.869 339.92 39.869 339.92H35.579C35.579 339.92 35.109 342.25 34.839 344.13C34.739 344.83 34.669 345.46 34.659 345.89C34.619 347.49 36.049 352.03 36.049 352.03H36.039Z" fill="#EEA886"/>
<path d="M16.2899 351.18H17.2399V347.18C18.0299 347.25 20.6799 349.76 21.4999 350.48C22.3199 351.21 23.4499 351.17 26.8999 351.39C30.3599 351.61 30.6799 349.54 30.1399 348.84C29.5899 348.14 27.8299 347.83 26.8999 347.39C25.9799 346.95 22.3499 342.86 21.3799 341.89C20.4099 340.92 19.8199 338.15 19.8199 338.15L15.7799 338.5C15.7799 338.5 15.8099 341.04 15.3499 343.17V343.19C15.3099 343.37 15.2599 343.55 15.2199 343.72C14.6199 345.93 16.2899 351.18 16.2899 351.18Z" fill="#EEA886"/>
<path d="M25.75 217.63C25.75 217.63 23.78 221.79 24.83 225.19C24.83 225.19 18.76 224.36 18.58 223.65C18.4 222.94 19.34 216.56 18.64 214.61C17.94 212.65 25.75 217.63 25.75 217.63Z" fill="#EEA886"/>
<path d="M25.8908 223.81C25.8908 223.81 29.4008 225.32 31.0008 225.78C32.6008 226.24 35.8908 228.06 35.1908 233.95C34.4808 239.84 33.1008 244.89 32.5408 247.4C31.9908 249.91 31.7508 256.39 32.1208 259.58C32.1208 259.58 23.3308 261.08 13.3308 258.22C13.3308 258.22 15.5208 252.99 15.5708 251.61C15.6208 250.22 10.4908 238.38 10.3508 236.56C10.2008 234.74 9.58076 226.71 12.4308 225.15C15.2808 223.59 17.4808 223.98 18.6908 223.28C19.9008 222.58 24.2408 223.12 25.8808 223.8L25.8908 223.81Z" fill="#FF7E55"/>
<path d="M25.8694 232.97C25.8694 232.97 24.5194 225.89 31.3794 225.91C37.4094 225.92 43.0994 224.78 44.0594 224.25C45.0194 223.72 48.6994 221.91 50.6394 219.92C52.5794 217.93 63.0694 209.95 63.0694 209.95L65.9694 212.88C65.9694 212.88 54.8994 224.9 53.1194 226.07C51.3394 227.24 36.3494 235.61 34.4494 235.87C32.5494 236.13 27.2094 237.59 25.8694 232.98V232.97Z" fill="#FF7E55"/>
<path d="M4.32087 254.83C4.11087 257.32 5.47087 274.52 5.47087 274.52L10.3509 275.08C10.3509 275.08 10.0009 258.09 9.73087 254.17C9.65087 253.01 9.92087 251.25 10.3309 249.33C10.5909 248.11 10.9209 246.83 11.2509 245.61C12.1709 242.24 13.1709 239.31 13.1709 239.31C13.1709 239.31 18.6309 225.1 11.7809 225.68C11.7809 225.68 9.23087 228.31 8.16087 232.61C7.08087 236.92 5.85087 243.37 5.80087 245.95C5.75087 248.52 4.47087 252.99 4.32087 254.82V254.83Z" fill="#FF7E55"/>
<path d="M30.9508 259.45C30.9508 259.45 32.5208 263.17 32.6608 264.11C32.8008 265.05 37.7308 277.33 38.0808 280.93C38.4308 284.56 39.4708 294.26 39.8408 295.65C40.2108 297.04 39.0108 303.24 38.8208 304.63C38.6308 306.02 38.7308 328.7 40.3908 339.91C40.3908 339.91 36.5008 341.58 33.5408 339.91C33.5408 339.91 28.6308 322.41 28.9108 312.32C29.1908 302.23 30.4708 297.97 28.9108 293.89C27.3408 289.82 18.1808 277.59 17.2508 276.3C16.3208 275 10.5208 267.84 16.0208 260.08C21.5108 252.32 30.9608 259.45 30.9608 259.45H30.9508Z" fill="#EDDAD3"/>
<path d="M12.0007 292.59C12.4907 295.83 11.9707 300.09 10.9607 311.94C9.94072 323.79 12.7407 338.14 12.7407 338.14C16.2607 339.34 20.3107 338.14 20.3107 338.14C20.2207 337.31 20.3107 309.25 20.3107 306.75C20.3107 304.25 21.0307 301.41 21.2107 298.54C21.3407 296.58 22.2507 292.98 23.2707 289.3C23.5807 288.2 23.8907 287.09 24.2007 286.02C24.3707 285.42 24.5407 284.83 24.7107 284.25C26.1507 279.25 28.0907 259.94 28.0907 259.94C28.0907 259.94 17.3407 251.28 12.1107 259.43C6.88072 267.58 9.56072 273.5 9.75072 274.52C9.93072 275.54 11.5107 289.33 12.0007 292.57V292.59Z" fill="#EDDAD3"/>
<path d="M32.8204 244.88C32.8204 244.88 31.8704 260.22 34.7204 268.85C34.7204 268.85 23.3704 270.74 8.90039 265.86C8.90039 265.86 12.8804 255.55 12.7404 253.94C12.6004 252.33 8.41039 233.55 10.4204 229.35C12.4304 225.15 32.1004 231.11 32.8104 244.88H32.8204Z" fill="#FF7E55"/>
<path d="M23.5503 200.53C26.1403 200.43 32.7703 201.43 31.5303 211.41C30.3003 221.39 26.6903 220.53 23.1203 219.2C19.5503 217.87 15.7703 209.8 15.9203 207.72C16.0703 205.64 16.1403 200.82 23.5403 200.52L23.5503 200.53Z" fill="#EEA886"/>
<path d="M31.5 206.79C31.5 206.79 28.33 210.28 25.36 210.95C25.36 210.95 22.83 214.8 18.84 215.54C18.84 215.54 11.07 206.95 18.53 201.46C25.98 195.97 31.78 203.73 31.51 206.79H31.5Z" fill="#353A3D"/>
<path d="M26.0009 209.62C25.9409 209.07 24.8109 207.86 23.7809 209.04C22.7509 210.22 24.2509 213.25 24.9009 213.3C25.5509 213.35 26.2209 211.72 26.0009 209.62Z" fill="#EEA886"/>
<path d="M16.4495 275.18C16.5295 275.36 21.8895 287.25 23.2595 289.31C23.5695 288.21 23.8795 287.1 24.1895 286.03C24.1895 286.03 16.6195 275.45 16.4395 275.18H16.4495Z" fill="#C9B9B3"/>
<path d="M10.0899 237.15C10.0899 237.15 9.70986 244.7 10.3299 249.33C10.5899 248.11 10.9199 246.83 11.2499 245.61C11.2199 245.44 10.1899 238.34 10.0899 237.15Z" fill="#BA5C3D"/>
<path d="M21.55 199.88C21.55 199.88 12.52 199.67 13.88 215.18C14.92 227.1 10.54 232.99 11.16 234.73C11.78 236.47 13.89 239.37 18.63 236.75C23.37 234.13 20.25 220.47 22.8 215.15C25.35 209.83 30.93 207.37 30.93 207.37C30.93 207.37 29.95 198.32 21.55 199.87V199.88Z" fill="#353A3D"/>
<path d="M33.7304 231.29C33.7304 231.29 35.7904 238.65 36.2804 240.39C36.9204 242.65 33.9604 246.9 31.3404 245.6C28.7204 244.29 33.7304 231.29 33.7304 231.29Z" fill="#FF7E55"/>
<path d="M16.2899 351.18H17.2399V347.18C18.0299 347.25 20.6799 349.76 21.4999 350.48C22.3199 351.21 23.4499 351.17 26.8999 351.39C30.3599 351.61 30.6799 349.54 30.1399 348.84C29.5899 348.14 27.8299 347.83 26.8999 347.39C23.1999 347.59 18.6899 342.39 16.5199 342.4C15.3699 342.4 15.3799 343.04 15.3499 343.16V343.18C15.3099 343.36 15.2599 343.54 15.2199 343.71C14.6199 345.92 16.2899 351.17 16.2899 351.17V351.18Z" fill="#DBCAC3"/>
<path d="M36.039 352.03H37.179C37.179 352.03 36.799 347.74 37.849 347.7C38.899 347.66 41.509 351.19 43.069 351.74C44.629 352.29 52.619 352.75 52.659 351.28C52.699 349.81 49.589 349.22 48.619 348.8C45.319 348.8 39.959 345.16 38.299 344.43C36.639 343.69 34.839 344.14 34.839 344.14C34.739 344.84 34.669 345.47 34.659 345.9C34.619 347.5 36.049 352.04 36.049 352.04L36.039 352.03Z" fill="#DBCAC3"/>
<path d="M267.36 43.55L267.15 42.67C268.75 42.3 269.58 41.97 269.59 41.97L269.92 42.81C269.92 42.81 269.02 43.16 267.36 43.55Z" fill="#C2BEBC"/>
<path d="M6.32 150.82C5.76 149.26 5.23 147.6 4.73 145.89L5.6 145.64C6.09 147.33 6.62 148.97 7.17 150.51L6.32 150.81V150.82ZM3.42 140.89C3.03 139.25 2.67 137.55 2.35 135.83L3.24 135.66C3.56 137.36 3.92 139.05 4.31 140.68L3.43 140.89H3.42ZM1.49 130.74C1.24 129.06 1.02 127.33 0.83 125.62L1.73 125.52C1.92 127.23 2.14 128.94 2.38 130.61L1.48 130.74H1.49ZM0.37 120.47C0.25 118.76 0.15 117.03 0.09 115.31L0.99 115.28C1.05 116.99 1.14 118.71 1.26 120.41L0.36 120.47H0.37ZM0.91 110.15H0C0 108.43 0.03 106.7 0.09 104.98L0.99 105.01C0.93 106.71 0.9 108.44 0.9 110.14L0.91 110.15ZM1.29 99.89L0.39 99.82C0.52 98.1 0.68 96.37 0.86 94.68L1.76 94.78C1.57 96.47 1.41 98.19 1.29 99.89ZM2.42 89.69L1.52 89.56C1.78 87.85 2.07 86.14 2.39 84.46L3.28 84.63C2.96 86.29 2.67 88 2.42 89.69ZM4.35 79.61L3.47 79.4C3.86 77.72 4.3 76.03 4.76 74.39L5.63 74.63C5.17 76.26 4.74 77.93 4.35 79.6V79.61ZM7.13 69.73L6.27 69.45C6.81 67.81 7.4 66.17 8.01 64.58L8.86 64.9C8.26 66.48 7.68 68.1 7.14 69.73H7.13ZM10.8 60.16L9.97 59.79C10.67 58.21 11.41 56.63 12.18 55.11L12.99 55.52C12.23 57.03 11.49 58.59 10.8 60.16ZM15.41 51.01L14.62 50.56C15.48 49.06 16.38 47.57 17.31 46.14L18.07 46.63C17.15 48.05 16.25 49.52 15.4 51.01H15.41ZM257.05 44.7V43.79C258.79 43.77 260.5 43.67 262.13 43.49L262.23 44.39C260.57 44.57 258.83 44.67 257.05 44.69V44.7ZM251.87 44.56C250.19 44.45 248.45 44.28 246.72 44.05L246.84 43.15C248.56 43.38 250.27 43.55 251.93 43.66L251.87 44.56ZM241.61 43.2C239.95 42.87 238.25 42.49 236.57 42.06L236.79 41.18C238.46 41.61 240.14 41.99 241.79 42.31L241.62 43.2H241.61ZM20.99 42.41L20.26 41.88C21.28 40.49 22.35 39.12 23.44 37.8L24.14 38.38C23.06 39.69 22 41.04 20.99 42.42V42.41ZM231.59 40.65C229.98 40.15 228.33 39.59 226.69 39L227 38.15C228.62 38.74 230.26 39.29 231.86 39.79L231.59 40.65ZM221.87 37.13C220.31 36.49 218.71 35.79 217.13 35.07L217.51 34.25C219.08 34.97 220.66 35.66 222.21 36.3L221.87 37.14V37.13ZM27.51 34.52L26.85 33.9C28.02 32.64 29.25 31.41 30.49 30.22L31.11 30.88C29.88 32.05 28.67 33.27 27.51 34.52ZM212.48 32.83C210.97 32.07 209.43 31.26 207.91 30.43L208.34 29.64C209.85 30.47 211.38 31.27 212.88 32.03L212.47 32.84L212.48 32.83ZM203.42 27.88C202.83 27.53 202.24 27.18 201.64 26.82C200.8 26.31 199.91 25.79 198.99 25.27L199.44 24.48C200.36 25.01 201.26 25.53 202.11 26.05C202.7 26.41 203.3 26.76 203.88 27.11L203.42 27.89V27.88ZM34.92 27.47L34.34 26.78C35.24 26.02 36.17 25.27 37.11 24.54C37.54 24.21 37.96 23.88 38.39 23.56L38.93 24.28C38.51 24.6 38.08 24.92 37.66 25.25C36.73 25.97 35.81 26.71 34.92 27.46V27.47ZM194.48 22.79C193 22.01 191.46 21.22 189.9 20.46L190.3 19.65C191.87 20.42 193.41 21.21 194.9 21.99L194.48 22.79ZM43.09 21.29L42.58 20.54C44 19.56 45.45 18.61 46.9 17.7L47.38 18.47C45.94 19.37 44.5 20.32 43.09 21.28V21.29ZM185.26 18.26C183.72 17.55 182.14 16.85 180.56 16.18L180.92 15.35C182.5 16.03 184.09 16.73 185.64 17.44L185.26 18.26ZM51.79 15.86L51.35 15.07C52.84 14.23 54.38 13.41 55.91 12.63L56.32 13.44C54.8 14.21 53.28 15.02 51.8 15.86H51.79ZM175.82 14.22C174.24 13.59 172.62 12.97 171.02 12.38L171.33 11.53C172.94 12.12 174.56 12.75 176.15 13.38L175.82 14.22ZM60.94 11.23L60.57 10.4C62.13 9.7 63.73 9.02 65.33 8.39L65.66 9.23C64.08 9.86 62.49 10.53 60.94 11.23ZM166.18 10.66C164.56 10.11 162.92 9.57 161.3 9.06L161.57 8.2C163.2 8.71 164.85 9.25 166.48 9.8L166.19 10.66H166.18ZM156.37 7.59C154.72 7.12 153.05 6.67 151.41 6.25L151.63 5.37C153.28 5.79 154.96 6.24 156.61 6.72L156.36 7.59H156.37ZM70.47 7.45L70.18 6.59C71.8 6.03 73.45 5.5 75.1 5.01L75.36 5.88C73.73 6.36 72.08 6.89 70.48 7.44L70.47 7.45ZM146.42 5.04C144.75 4.66 143.06 4.3 141.39 3.98L141.56 3.09C143.23 3.42 144.93 3.78 146.61 4.16L146.41 5.04H146.42ZM80.31 4.54L80.09 3.66C81.75 3.25 83.44 2.87 85.13 2.52L85.31 3.41C83.64 3.75 81.95 4.13 80.31 4.54ZM136.34 3.06C134.65 2.78 132.94 2.52 131.26 2.3L131.38 1.4C133.07 1.63 134.78 1.89 136.49 2.17L136.34 3.06ZM90.35 2.5L90.21 1.61C91.89 1.34 93.62 1.1 95.33 0.9L95.44 1.8C93.74 2 92.03 2.23 90.36 2.5H90.35ZM126.16 1.69C124.45 1.52 122.73 1.37 121.04 1.25L121.1 0.35C122.8 0.47 124.53 0.62 126.25 0.79L126.16 1.69ZM100.54 1.3L100.47 0.4C102.17 0.27 103.9 0.17 105.63 0.1L105.66 1C103.95 1.07 102.23 1.17 100.54 1.3ZM115.92 0.99C114.28 0.93 112.62 0.91 111 0.91H110.79V0H111C112.63 0 114.3 0.03 115.96 0.09L115.93 0.99H115.92Z" fill="#C2BEBC"/>
<path d="M9.37023 157.99C8.99023 157.24 8.61023 156.44 8.24023 155.62L9.07023 155.25C9.43023 156.06 9.81023 156.84 10.1802 157.58L9.37023 157.99Z" fill="#C2BEBC"/>
<path d="M109.771 237.74H102.811V263.02H109.771V237.74Z" fill="#78C2FF"/>
<path d="M119.671 235.19H112.711V263.02H119.671V235.19Z" fill="#78C2FF"/>
<path d="M129.71 240.49H122.75V263.03H129.71V240.49Z" fill="#78C2FF"/>
<path d="M139.739 230.04H132.779V263.02H139.739V230.04Z" fill="#78C2FF"/>
<path d="M150.28 233.33H143.32V263.03H150.28V233.33Z" fill="#78C2FF"/>
<path d="M160.95 237.74H153.99V263.02H160.95V237.74Z" fill="#78C2FF"/>
<path d="M170.851 235.19H163.891V263.02H170.851V235.19Z" fill="#78C2FF"/>
<path d="M180.89 240.49H173.93V263.03H180.89V240.49Z" fill="#78C2FF"/>
<path d="M92.0801 203.23C92.0801 203.23 92.0801 203.15 92.0801 203.11C92.0401 202.29 91.8701 201.51 91.6001 200.77C90.4801 197.68 87.5301 195.45 84.0401 195.4C82.1601 195.38 80.4201 195.99 79.0301 197.04C77.0901 198.51 75.8201 200.82 75.7801 203.45C75.7301 207.07 78.0601 210.17 81.3201 211.28C82.1101 211.55 82.9501 211.7 83.8301 211.71C84.8601 211.72 85.8501 211.54 86.7601 211.2C88.2001 210.67 89.4501 209.74 90.3801 208.55C91.3001 207.37 91.9001 205.92 92.0501 204.35C92.0701 204.12 92.0801 203.9 92.0901 203.67C92.0901 203.53 92.0901 203.38 92.0901 203.24L92.0801 203.23ZM77.8301 203.47C77.8501 201.52 78.7901 199.79 80.2301 198.69C81.2801 197.89 82.5901 197.42 84.0201 197.44C86.6301 197.47 88.8401 199.14 89.6901 201.46C89.8901 202.01 90.0101 202.6 90.0501 203.21C90.0501 203.35 90.0601 203.48 90.0501 203.62C90.0501 204.21 89.9501 204.78 89.7801 205.32C89.5601 206.04 89.2201 206.7 88.7701 207.28C88.6101 207.49 88.4301 207.69 88.2401 207.88C87.1201 208.99 85.5701 209.67 83.8601 209.65C83.4101 209.65 82.9701 209.59 82.5501 209.49C82.3601 209.45 82.1701 209.39 81.9801 209.33C79.5401 208.5 77.8001 206.18 77.8301 203.46V203.47Z" fill="#E3F2FF"/>
<g opacity="0.74">
<path opacity="0.74" d="M272.03 269.9H217.54C213.701 269.9 210.59 273.012 210.59 276.85V316.41C210.59 320.248 213.701 323.36 217.54 323.36H272.03C275.868 323.36 278.98 320.248 278.98 316.41V276.85C278.98 273.012 275.868 269.9 272.03 269.9Z" fill="#4DA8F2"/>
</g>
<path d="M246.23 275.37H270.64C272.99 275.37 274.89 277.27 274.89 279.62V312.66C274.89 315.01 272.99 316.91 270.64 316.91H246.23C243.88 316.91 241.98 315.01 241.98 312.66V279.62C241.98 277.27 243.88 275.37 246.23 275.37Z" fill="#E3F2FF"/>
<path d="M220.231 275.37H232.731C234.171 275.37 235.341 276.54 235.341 277.98V278.69C235.341 280.13 234.171 281.29 232.741 281.29H220.241C218.801 281.29 217.641 280.12 217.641 278.69V277.98C217.641 276.54 218.811 275.37 220.251 275.37H220.231Z" fill="#E3F2FF"/>
<path d="M220.231 286.43H232.731C234.171 286.43 235.331 287.6 235.331 289.03V289.74C235.331 291.18 234.161 292.34 232.731 292.34H220.231C218.791 292.34 217.631 291.17 217.631 289.74V289.03C217.631 287.59 218.801 286.43 220.231 286.43Z" fill="#E3F2FF"/>
</g>
<defs>
<clipPath id="clip0_1248_5709">
<rect width="361.83" height="363.25" fill="white"/>
</clipPath>
</defs>
</svg>
