<svg width="573" height="370" viewBox="0 0 573 370" fill="none" xmlns="http://www.w3.org/2000/svg">
<g style="mix-blend-mode:multiply" opacity="0.3">
<g style="mix-blend-mode:multiply" opacity="0.3">
<path d="M572.229 336.899C572.229 355.821 444.214 370 286.298 370C128.382 370 0.378906 355.821 0.378906 336.899C0.378906 317.977 128.394 301.461 286.31 301.461C444.226 301.461 572.241 317.965 572.241 336.899H572.229Z" fill="#1D5AB9"/>
</g>
</g>
<path d="M241.481 300.783C240.99 303.376 242.778 305.012 242.778 305.012C242.778 305.012 237.253 311.027 230.759 311.506C224.264 311.996 220.363 308.738 220.363 308.738C220.363 308.738 228.154 304.836 229.299 301.589C230.432 298.342 241.481 300.783 241.481 300.783Z" fill="#F0BB8F"/>
<path d="M242.777 305.012C244.366 306.005 243.606 312.919 243.606 312.919C243.606 312.919 227.488 320.43 219.16 319.192C210.82 317.954 210.271 313.831 212.817 312.172C215.364 310.513 222.08 307.815 222.08 307.815L224.661 304.591C224.661 304.591 226.121 304.405 227.628 305.736C229.135 307.068 227.277 309.205 227.277 309.205C227.277 309.205 230.793 309.415 234.578 308.516C238.374 307.617 242.765 305.012 242.765 305.012H242.777Z" fill="#412332"/>
<path d="M211.02 294.873C210.564 297.338 212.246 298.868 212.246 298.868C212.246 298.868 207.025 304.556 200.87 305.012C194.726 305.479 191.035 302.395 191.035 302.395C191.035 302.395 198.405 298.704 199.492 295.633C200.566 292.561 211.008 294.862 211.008 294.862L211.02 294.873Z" fill="#F0BB8F"/>
<path d="M212.258 298.868C213.765 299.803 213.04 306.355 213.04 306.355C213.04 306.355 197.798 313.457 189.914 312.289C182.03 311.121 181.504 307.22 183.922 305.655C186.328 304.089 192.682 301.531 192.682 301.531L195.135 298.483C195.135 298.483 196.513 298.308 197.938 299.569C199.363 300.831 197.611 302.851 197.611 302.851C197.611 302.851 200.928 303.05 204.514 302.197C208.1 301.356 212.27 298.88 212.27 298.88L212.258 298.868Z" fill="#412332"/>
<path d="M240.243 237.886C237.405 228.25 236.902 197.297 236.61 186.633C236.33 175.969 236.038 172.185 235.045 166.789L209.454 156.499L189.971 170.643C189.971 170.643 189.399 195.756 189.563 201.958C189.726 208.16 189.82 237.29 191.677 242.663C193.534 248.036 193.534 250.933 193.324 257.334C193.137 263.139 194.141 289.349 194.328 294.173C194.34 294.663 194.62 295.096 195.064 295.306C201.5 298.436 209.617 296.988 212.234 296.392C212.771 296.275 213.145 295.843 213.215 295.294C213.986 289.115 215.236 267.075 215.423 260.219C215.633 252.989 213.355 249.683 211.907 244.719C210.926 241.355 212.304 214.269 212.386 200.918C215.072 215.775 220.632 246.307 221.414 248.655C222.442 251.75 224.101 255.885 224.93 268.079C225.666 278.883 226.227 297.151 226.355 301.169C226.367 301.672 226.647 302.127 227.103 302.326C231.81 304.358 239.811 302.828 242.567 302.197C243.14 302.069 243.548 301.59 243.583 301.006C243.782 297.21 244.553 282.785 245.137 269.177C245.826 253.351 243.07 247.511 240.231 237.874L240.243 237.886Z" fill="#FCFFFF"/>
<g opacity="0.5">
<path opacity="0.5" d="M204.048 237.886C206.104 244.053 206.174 297.198 206.174 297.198C208.849 297.069 211.091 296.661 212.236 296.392C212.773 296.275 213.147 295.843 213.217 295.294C213.988 289.115 215.238 267.075 215.425 260.218C215.635 252.988 213.357 249.683 211.909 244.719C210.928 241.355 212.306 214.269 212.388 200.918L211.85 169.627L205.029 172.22C205.029 172.22 201.969 231.707 204.025 237.874L204.048 237.886Z" fill="#E4E7F4"/>
</g>
<g opacity="0.5">
<path opacity="0.5" d="M232.99 237.886C236.915 248.748 237.242 294.079 236.179 303.201C238.865 302.968 241.295 302.489 242.58 302.197C243.152 302.068 243.561 301.59 243.596 301.006C243.794 297.209 244.565 282.784 245.149 269.177C245.838 253.35 243.082 247.51 240.244 237.874C237.405 228.238 236.903 197.285 236.611 186.621C236.331 175.957 235.805 175.409 235.782 169.557L213.963 157.608C210.284 158.297 207.177 158.799 205.051 158.869L202.47 159.138L195.742 168.424C207.259 174.579 225.223 171.367 225.223 171.367C225.223 171.367 228.785 226.229 232.99 237.862V237.886Z" fill="#E4E7F4"/>
</g>
<path d="M197.051 68.3477C194.481 86.3351 196.14 101.461 196.14 101.461L220.365 99.195L212.562 68.3593H197.063L197.051 68.3477Z" fill="#8A3F24"/>
<path d="M207.318 94.4301C205.39 94.7105 200.263 95.3996 197.109 96.6377C193.956 97.8758 191.199 101.041 188.443 109.86C186.831 115.011 185.604 120.01 184.857 123.292C184.331 125.628 181.691 139.866 181.691 139.866L212.41 140.847V99.9315L207.306 94.4185L207.318 94.4301Z" fill="#8F8894"/>
<path d="M207.317 94.4302C205.39 94.7105 200.262 95.3996 197.108 96.6377C194.212 97.7824 191.654 100.597 189.119 107.886L189.411 108.353C192.133 103.763 196.034 100.667 198.09 99.8147C200.145 98.9504 206.663 97.6189 206.663 97.6189L208.345 95.5515L207.317 94.4419V94.4302Z" fill="#7E7982"/>
<path d="M207.457 89.7463C208.286 91.6619 207.317 95.1192 206.487 96.3573C205.658 97.5954 206.207 102.139 211.58 103.108C216.953 104.078 220.539 102.139 222.326 99.9431C224.113 97.7356 222.326 82.9952 222.326 82.9952L217.502 80.0635L207.445 89.7463H207.457Z" fill="#F0BB8F"/>
<path d="M192.343 125.756C191.689 120.068 195.882 109.988 195.882 109.988C195.882 109.988 193.978 121.785 195.882 126.282L192.343 125.756Z" fill="#7E7982"/>
<g opacity="0.5">
<path opacity="0.5" d="M223.073 92.1755C222.98 89.8745 222.793 87.5268 222.618 85.7748C220.702 84.6885 218.682 83.9644 218.682 83.9644C218.682 83.9644 216.007 84.0228 213.239 84.1512L207.445 89.7227C207.854 90.6688 207.819 92.0003 207.585 93.2501C207.656 93.2618 216.661 95.0722 223.062 92.1522L223.073 92.1755Z" fill="#E8AB79"/>
</g>
<path d="M220.597 76.8979C222.268 81.0677 220.037 85.5178 216.147 88.2977C212.258 91.0776 207.808 93.0282 205.296 90.5286C202.797 88.0291 199.643 83.7892 199.643 81.0093C199.643 78.2294 196.396 78.0192 197.225 72.1791C198.055 66.339 201.956 62.4495 204.175 61.8888C206.406 61.3282 219.745 67.4486 219.745 67.4486L220.586 76.8979H220.597Z" fill="#F0BB8F"/>
<path d="M202.888 62.5078C203.11 63.781 201.533 68.2545 198.917 71.4198C196.301 74.5851 199.022 78.0308 197.118 81.2078C195.203 84.3731 200.552 94.1611 197.118 97.8754C193.684 101.601 190.379 101.73 189.421 108.341C189.421 108.341 186.524 102.139 188.592 97.4549C190.659 92.7712 192.995 90.295 190.928 86.02C188.86 81.7451 188.311 74.8654 190.647 72.3776C192.995 69.9014 195.553 64.108 195.378 60.674C195.203 57.2284 202.363 49.5194 206.497 52.4045L202.9 62.5078H202.888Z" fill="#A0593F"/>
<path d="M234.321 129.284C231.786 138.523 231.95 143.51 233.772 149.397C235.337 154.454 236.19 166.625 236.622 170.024C236.75 171.017 236.26 171.94 235.395 172.418C232.639 173.949 225.502 176.857 211.229 176.857C196.092 176.857 191.338 172.524 189.983 170.631C189.644 170.152 189.527 169.557 189.609 168.973C189.994 166.275 191.244 150.635 191.536 147.143C191.887 142.996 197.937 115.174 197.937 115.174L207.094 100.422L227.313 91.6733L235.582 96.0651L234.344 129.272L234.321 129.284Z" fill="#8F8894"/>
<path d="M200.146 126.69C199.807 125.499 198.359 122.813 196.432 122.883C194.504 122.953 191.818 123.572 190.989 123.922C190.159 124.261 188.723 126.41 188.723 126.41L200.158 126.702L200.146 126.69Z" fill="#F0BB8F"/>
<path d="M189.481 145.121C188.442 146.289 186.515 146.36 184.517 145.811C182.52 145.262 181.481 140.882 181.691 139.865C181.901 138.849 185.358 132.519 185.358 132.519L189.481 145.121Z" fill="#F0BB8F"/>
<path d="M208.65 126.807L217.106 152.013C217.258 152.468 216.908 152.935 216.429 152.912L192.753 151.884C192.473 151.872 192.228 151.686 192.134 151.417L184.016 126.643C183.865 126.199 184.215 125.744 184.682 125.756L208.019 126.351C208.299 126.351 208.556 126.538 208.65 126.818V126.807Z" fill="#C3C6D5"/>
<path d="M236.611 170.024C236.179 166.625 235.326 154.466 233.761 149.397C231.939 143.51 231.776 138.522 234.31 129.283C232.593 123.782 231.145 112.195 231.145 112.195C231.145 112.195 226.181 133.36 226.847 139.854C227.512 146.325 228.237 174.895 228.237 175.046C231.764 174.159 234.077 173.143 235.373 172.418C236.237 171.928 236.728 171.005 236.6 170.024H236.611Z" fill="#7E7982"/>
<path d="M208.228 127.344L216.696 152.55C216.848 153.006 216.498 153.473 216.019 153.45L192.343 152.422C192.063 152.422 191.817 152.223 191.724 151.955L183.606 127.181C183.466 126.737 183.805 126.282 184.272 126.293L207.609 126.889C207.901 126.889 208.146 127.076 208.24 127.356L208.228 127.344Z" fill="#D9DFED"/>
<g opacity="0.5">
<path opacity="0.5" d="M216.684 152.55L208.216 127.345C208.122 127.076 207.877 126.889 207.585 126.877L206.651 126.854C208.695 134.89 213.834 150.576 213.554 150.903C213.308 151.196 195.449 150.974 191.373 150.915L191.712 151.943C191.794 152.212 192.05 152.399 192.331 152.41L216.007 153.438C216.485 153.461 216.836 152.994 216.684 152.539V152.55Z" fill="#C3C6D5"/>
</g>
<path d="M231.145 140.859C228.388 140.94 222.77 142.26 220.785 142.389C218.799 142.517 216.183 140.952 214.898 139.434C213.356 137.611 211.627 137.506 211.627 137.506L212.749 140.859C212.749 140.859 211.919 140.847 208.812 140.859C205.705 140.87 203.463 138.301 202.996 138.896C202.528 139.492 203.463 143.393 204.047 144.246C204.643 145.098 207.878 145.963 209.198 146.36C210.518 146.757 215.272 146.231 216.989 146.36C218.717 146.488 228.867 148.941 233.738 149.397C238.609 149.852 237.756 143.452 237.756 143.452L231.122 140.859H231.145Z" fill="#F0BB8F"/>
<path d="M235.56 96.0884C241.622 98.5646 243.549 101.181 245.488 107.114C247.415 113.036 248.793 133.57 249.202 139.212C249.623 144.853 249.202 147.481 247.964 148.03C246.726 148.579 242.182 149.817 233.773 149.408C233.773 149.408 235.7 142.517 231.156 140.87C231.156 140.87 236.389 140.321 238.316 140.87C238.316 140.87 234.929 132.484 233.562 126.702L235.56 96.1001V96.0884Z" fill="#8F8894"/>
<path d="M202.891 62.5078C202.354 66.5959 212.924 70.2284 217.082 72.9032C220.54 75.1341 216.276 86.0201 221.17 89.1854C226.064 92.3507 217.935 96.6257 221.17 101.999C224.406 107.371 220.131 112.195 220.131 112.195C220.131 112.195 227.571 109.719 227.711 105.176C227.851 100.632 229.498 93.6005 235.56 96.0884C235.56 96.0884 237.079 88.3678 234.054 85.4828C231.017 82.5861 229.23 75.286 230.888 73.0784C232.535 70.8709 229.241 60.4054 225.235 60.6857C221.24 60.9544 218.893 47.7324 206.5 52.4162L202.903 62.5195L202.891 62.5078Z" fill="#A0593F"/>
<path d="M200.415 137.775C200.859 139.013 200.298 140.345 199.083 140.742C197.764 141.174 196.222 140.368 195.743 138.931C195.276 137.506 196.082 136.175 197.425 135.941C198.675 135.719 199.971 136.549 200.415 137.775Z" fill="white"/>
<g opacity="0.3">
<path opacity="0.3" d="M200.144 126.69L189.48 145.122L190.695 148.859L202.282 126.737L200.144 126.69Z" fill="white"/>
</g>
<g opacity="0.3">
<path opacity="0.3" d="M205.051 126.807L195.076 152.527L198.931 152.702L206.651 126.854L205.051 126.807Z" fill="white"/>
</g>
<path d="M246.178 109.988C246.178 110.058 247.638 142.681 246.972 144.281C246.306 145.881 238.2 148.497 234.147 146.769V146.792C234.065 148.252 233.762 149.397 233.762 149.397C242.16 149.806 246.703 148.567 247.953 148.018C249.191 147.47 249.612 144.853 249.191 139.2C248.829 134.259 247.731 117.977 246.178 109.988Z" fill="#7E7982"/>
<g opacity="0.5">
<path opacity="0.5" d="M198.91 71.4199C199.062 71.2331 199.202 71.0228 199.354 70.8359C199.214 70.9761 199.062 71.163 198.91 71.4199Z" fill="#8A3F24"/>
</g>
<g opacity="0.5">
<path opacity="0.5" d="M230.876 73.0781C226.881 75.2974 232.056 86.9425 225.561 86.0548C217.21 84.9102 220.469 78.3225 218.133 74.398C219.488 78.159 216.988 86.487 221.17 89.1968C226.064 92.3621 217.934 96.6371 221.17 102.01C224.405 107.383 220.13 112.207 220.13 112.207C220.13 112.207 227.57 109.731 227.711 105.187C227.851 100.643 229.498 93.6119 235.56 96.0998C235.56 96.0998 237.078 88.3792 234.053 85.4942C231.016 82.5975 229.229 75.2974 230.888 73.0898L230.876 73.0781Z" fill="#8A3F24"/>
</g>
<g opacity="0.5">
<path opacity="0.5" d="M196.688 82.9248C194.551 90.038 189.388 84.0928 189.131 77.8906C189.131 80.6238 189.797 83.7074 190.906 86.0317C192.974 90.3067 190.626 92.7829 188.57 97.4666C186.503 102.15 189.4 108.353 189.4 108.353C190.369 101.742 193.675 101.601 197.097 97.8871C200.04 94.6984 196.524 87.0362 196.688 82.9365V82.9248Z" fill="#8A3F24"/>
</g>
<path d="M481.346 204.06C479.851 219.945 476.989 232.454 477.234 236.425C477.48 240.397 480.178 250.488 477.199 264.213C475.155 273.638 471.523 286.557 471.768 294.009C472.013 301.461 473.999 305.922 473.999 311.389C473.999 316.855 473.508 318.338 466.804 318.338C459.761 318.338 461.641 310.174 462.365 306.448C463.09 302.722 464.585 296.228 464.818 293.016C465.391 285.073 463.125 266.876 462.856 261.771C462.365 252.287 463.58 244.882 464.818 237.675C465.332 234.673 463.697 227.56 462.774 221.194C461.489 212.271 460.637 204.071 460.637 204.071H481.334L481.346 204.06Z" fill="#F0BB8F"/>
<path d="M436.669 201.817C431.202 215.716 431.646 230.398 431.156 232.874C430.665 235.351 427.827 243.854 424.603 252.789C421.379 261.725 415.691 289.535 413.706 294.99C411.72 300.456 409.232 306.658 406.756 308.901C404.268 311.132 398.568 312.124 398.066 315.103C397.575 318.081 413.46 317.591 413.963 316.341C414.453 315.103 415.201 308.889 418.436 307.149C421.66 305.408 425.14 302.43 423.645 299.452C422.15 296.473 420.667 295.48 422.407 291.754C424.148 288.028 430.326 271.629 435.291 266.046C440.255 260.463 441.096 244.029 444.074 239.812C447.052 235.596 456.852 214.992 458.592 209.28C460.333 203.569 436.68 201.805 436.68 201.805L436.669 201.817Z" fill="#F0BB8F"/>
<path d="M423.751 301.752C422.887 304.766 421.824 313.643 421.824 316.726H419.675C419.675 316.726 420.236 310.174 419.406 305.7C418.577 301.227 423.751 301.752 423.751 301.752Z" fill="#D1213D"/>
<path d="M466.804 318.326C473.509 318.326 473.999 316.843 473.999 311.377C473.999 309.683 473.801 308.095 473.532 306.483C473.555 306.716 473.871 311.377 468.872 311.283C463.744 311.19 461.91 308.83 462.366 306.436C461.642 310.162 459.773 318.326 466.804 318.326Z" fill="#D1213D"/>
<path d="M418.425 307.16C421.649 305.42 425.129 302.442 423.634 299.463C423.085 298.377 422.548 297.548 422.163 296.753C422.163 296.753 415.937 300.888 414.103 305.175C412.269 309.461 408.882 313.69 402.82 311.167C400.578 312.23 398.37 313.304 398.066 315.103C397.564 318.081 413.461 317.591 413.951 316.341C414.442 315.103 415.189 308.889 418.425 307.149V307.16Z" fill="#D1213D"/>
<path d="M474.256 79.4786C479.897 82.9709 484.593 78.3456 484.348 71.3842C484.091 64.4228 476.522 62.916 475.564 65.3338C474.606 67.74 474.256 79.4902 474.256 79.4902V79.4786Z" fill="#694329"/>
<path d="M474.946 75.4138C474.946 75.4138 474.888 69.5386 475.285 66.3616C475.367 65.9411 475.46 65.5674 475.565 65.3221C476.336 63.3832 481.359 63.9789 483.45 67.8917C483.671 68.4174 483.823 68.9897 483.882 69.6321C484.361 74.9349 480.214 78.2754 474.946 75.4138Z" fill="#7A553C"/>
<path d="M442.065 166.145C441.259 168.329 438.351 168.832 434.123 196.712C431.763 212.224 431.646 225.983 431.646 225.983C431.646 225.983 467.084 234.673 481.533 227.922C481.533 227.922 484.639 213.648 484.639 201.127C484.639 174.637 485.936 174.461 479.629 164.72L442.065 166.145Z" fill="#8F8894"/>
<path d="M446.093 73.8602C446.093 73.8602 444.913 68.0785 446.21 64.0255C447.681 59.3184 451.804 53.7937 460.308 54.2375C468.823 54.6697 446.093 73.8719 446.093 73.8719V73.8602Z" fill="#7A553C"/>
<path d="M448.453 65.5904C451.034 58.9561 455.94 52.6137 465.413 54.6928C475.399 56.9004 478.973 66.5365 478.016 72.1547C477.058 77.7612 475.411 81.1484 474.734 82.1413C471.977 86.1709 468.578 87.1053 466.919 90.3758C465.273 93.6579 448.453 65.5904 448.453 65.5904Z" fill="#7A553C"/>
<path d="M479.1 101.157C479.1 101.098 479.1 101.028 479.077 100.97C479.077 100.935 479.065 100.912 479.054 100.888C479.03 100.818 479.019 100.748 478.995 100.69C478.995 100.678 478.984 100.666 478.972 100.643C478.937 100.573 478.902 100.503 478.844 100.433C478.657 100.199 478.376 100.024 477.944 99.8954C475.772 99.2296 472.361 98.9376 469.803 97.8631C467.222 96.3563 467.07 91.1236 467.303 88.6474C467.467 86.907 467.993 83.403 468.67 81.7444C468.647 81.721 468.623 81.686 468.612 81.6743L456.324 88.4255H453.276C453.276 88.4255 453.416 89.1029 453.521 90.0724C453.427 90.1541 453.346 90.2125 453.276 90.2476C453.357 90.2709 453.451 90.306 453.556 90.341C453.801 92.607 453.883 96.1694 452.154 97.1739C450.356 98.2135 449.024 98.8559 446.828 99.288C446.828 99.3348 446.851 99.3698 446.851 99.4165V107.347C452.505 107.815 453.813 117.03 459.361 117.054C464.302 117.077 473.132 108.819 478.073 107.242C478.318 107.242 478.551 107.242 478.797 107.254C478.785 107.137 478.773 107.032 478.762 106.927C478.738 106.693 478.715 106.46 478.715 106.238V106.203C478.622 104.17 479.007 102.71 479.089 101.694C479.089 101.589 479.089 101.507 479.089 101.425C479.089 101.379 479.089 101.332 479.089 101.297C479.089 101.239 479.089 101.192 479.077 101.145L479.1 101.157Z" fill="#F0BB8F"/>
<path d="M453.276 90.2592C452.984 90.1541 452.808 90.084 452.808 90.084C452.808 90.084 452.692 90.633 453.276 90.2592Z" fill="#F0BB8F"/>
<g opacity="0.5">
<path opacity="0.5" d="M468.671 81.7444C468.251 82.7723 467.877 84.1622 467.561 86.5333C467.328 88.2503 466.966 90.5396 467.421 93.3078C466.65 93.5998 464.63 94.4291 463.649 94.6393C457.715 95.9241 453.043 96.1928 453.043 96.1928C453.043 96.1928 454.55 91.7543 453.253 89.6986L468.613 81.6743C468.613 81.6743 468.648 81.721 468.671 81.7444Z" fill="#E8AB79"/>
</g>
<path d="M469.618 83.041C468.613 84.9215 467.842 87.5962 464.21 89.6636C460.577 91.7661 454.901 94.3591 453.242 94.1021C451.595 93.8335 450.252 94.1255 448.418 89.4884C446.573 84.8631 445.019 82.6088 445.533 78.2521C446.047 73.9187 445.743 64.8432 451.548 62.4371C455.847 60.6267 462.061 62.7758 464.899 66.8172C467.737 70.8702 467.609 72.1901 467.936 77.9134C467.936 77.9134 471.37 74.5378 472.526 74.5495C473.682 74.5728 474.523 75.4605 473.519 77.7148C472.514 79.9808 472 79.5019 471.732 80.6932C471.451 81.8846 471.159 83.076 470.482 83.4031C469.641 83.8119 469.629 83.0293 469.629 83.0293L469.618 83.041Z" fill="#F0BB8F"/>
<path d="M454.549 61.5146C454.549 61.5146 458.695 75.2972 467.712 79.397L473.821 69.0016L466.498 60.4634L454.549 61.5146Z" fill="#7A553C"/>
<path d="M456.313 62.3434C456.313 62.3434 450.204 68.5105 445.789 69.7019C445.789 69.7019 447.646 59.7387 454.047 56.4683L456.313 62.3434Z" fill="#7A553C"/>
<path d="M474.417 60.1826C477.536 66.1746 474.079 73.6732 467.561 72.9257C461.231 72.2015 457.47 66.7469 455.332 63.7684C456.921 67.8215 460.927 76.3246 467.701 79.3965L469.325 76.64C470.411 75.6822 471.836 74.5492 472.514 74.5609C473.67 74.5843 474.511 75.472 473.506 77.7263C472.502 79.9922 471.988 79.5133 471.719 80.7047C471.439 81.8961 471.147 83.0875 470.47 83.4145C469.629 83.8233 469.617 83.0407 469.617 83.0407C469.15 83.9167 468.706 84.9796 468.017 86.0542C467.608 87.2806 467.444 88.3319 467.234 89.8269C468.916 86.6966 472.023 86.1009 474.721 82.1414C475.399 81.1486 477.034 77.7613 478.003 72.1548C478.576 68.7792 477.513 63.967 474.417 60.1826Z" fill="#694329"/>
<path d="M440.722 168.937C440.465 169.475 440.185 170.105 439.893 170.806C456.163 178.947 468.848 179.263 468.848 179.263C468.848 179.263 465.472 217.854 462.132 230.504C470.016 230.141 476.522 230.27 481.532 227.934C481.532 227.934 484.639 213.661 484.639 201.14C484.639 174.649 485.936 174.474 479.629 164.732L446.282 165.994L440.71 168.949L440.722 168.937Z" fill="#7E7982"/>
<path d="M471.674 99.2295C471.674 99.2295 462.54 104.859 459.059 104.871C453.932 104.894 446.83 100.269 446.83 100.269L448.921 152.304H472.783L471.662 99.2295H471.674Z" fill="#F8F3E0"/>
<path d="M436.998 114.683C438.61 107.441 433.108 106.845 435.281 103.587C436.566 101.683 438.855 100.153 442.277 99.9072C446.249 99.6269 450.944 97.8398 450.944 97.8398L459.354 117.054L470.87 98.4239C470.87 98.4239 480.507 100.351 484.735 100.643C492.105 101.169 493.6 106.483 495.2 113.725C496.812 120.955 499.288 133.64 500.001 136.957C501.286 142.879 501.262 145.542 500.386 149.081C499.604 152.234 496.789 154.582 494.149 155.703H491.813C491.813 155.703 484.431 157.128 482.632 155.703C479.479 153.204 483.018 164.756 483.859 168.996C483.964 169.498 483.684 169.977 483.193 170.14C479.187 171.483 461.164 176.681 438.481 170.093C437.991 169.953 437.664 169.498 437.722 168.996C438.294 163.845 441.168 143.731 438.645 135.018C437.699 131.759 435.374 121.901 436.975 114.671L436.998 114.683Z" fill="#D1213D"/>
<path d="M483.216 170.152C483.706 169.988 483.987 169.51 483.882 169.007C483.041 164.767 479.502 153.204 482.655 155.715C483.111 156.077 483.94 156.253 484.91 156.323L479.093 152.9L477.271 164.732C477.271 164.732 448.012 168.178 438.294 163.576C438.049 166.052 437.85 167.991 437.733 169.031C437.675 169.533 438.002 169.988 438.493 170.129C461.175 176.716 479.198 171.519 483.204 170.175L483.216 170.152Z" fill="#B0172F"/>
<path d="M480.527 147.188C480.527 147.188 487.524 143.311 487.839 142.785C488.178 142.259 480.527 118.175 480.527 118.175C480.527 118.175 481.672 138.405 481.777 139.888C481.894 141.372 480.527 147.188 480.527 147.188Z" fill="#B0172F"/>
<path d="M484.91 145.343C483.018 145.88 477.318 148.205 477.715 150.202C478.112 152.199 479.117 152.059 479.105 152.888C479.105 153.718 479.409 154.22 480.004 155.259C480.612 156.299 482.107 156.895 482.644 157.747C483.17 158.588 484.116 160.235 486.218 159.336C488.321 158.46 491.322 156.614 491.825 155.843C492.315 155.084 492.245 153.741 491.486 153.04C490.738 152.328 490.715 150.996 490.236 150.401C489.722 149.805 489.01 149.268 488.729 148.532C488.449 147.796 487.585 147.34 487.445 146.967C487.304 146.604 486.428 144.911 484.898 145.343H484.91Z" fill="#F0BB8F"/>
<path d="M445.803 100.655C445.803 100.655 439.438 99.2184 436.05 102.652C430.899 107.862 429.276 116.961 427.594 128.723C426.648 135.369 425.153 143.042 425.024 145.706C424.907 148.369 436.915 150.646 436.915 150.646L442.883 127.006C442.883 127.006 443.888 124.938 445.359 119.799C448.069 110.385 445.792 100.655 445.792 100.655H445.803Z" fill="#D1213D"/>
<path d="M439.543 140.216L439.976 110.758C439.976 110.758 434.603 127.519 431.998 130.615L432.278 149.548C434.755 150.226 436.915 150.634 436.915 150.634L439.543 140.216Z" fill="#B0172F"/>
<path d="M423.248 129.925C423.248 129.925 416.52 128.045 415.364 126.795C414.207 125.569 412.128 119.39 413.331 117.451C414.57 115.5 416.427 113.375 417.081 114.461C417.758 115.559 417.046 116.131 417.046 116.131C417.046 116.131 419.043 113.55 419.931 114.075C420.818 114.613 420.129 118.199 419.604 119.343C419.078 120.476 421.005 120.955 422.173 120.92C423.306 120.897 427.044 119.343 431.938 125.16C431.938 125.16 431.529 129.622 429.392 130.393C427.266 131.164 423.902 131.094 423.236 129.925H423.248Z" fill="#F0BB8F"/>
<g opacity="0.5">
<path opacity="0.5" d="M429.403 130.393C427.278 131.164 423.914 131.094 423.248 129.926C423.248 129.926 416.52 128.045 415.364 126.795C414.207 125.557 412.128 119.39 413.331 117.451C414.032 124.191 426.834 131.853 431.95 125.16C431.95 125.16 431.541 129.622 429.403 130.393Z" fill="#E8AB79"/>
</g>
<path d="M423.248 129.925C423.248 129.925 420.819 155.622 433.352 153.683C445.23 151.861 431.95 125.16 431.95 125.16C431.95 125.16 429.707 132.612 423.248 129.925Z" fill="#D1213D"/>
<path d="M271.041 118.467C268.635 117.03 262.269 115.302 260.645 113.036C259.034 110.77 258.496 110.384 256.476 108.317C254.443 106.25 253.684 102.909 251.99 102.944C250.297 102.979 251.161 106.752 252.376 108.107C253.591 109.462 254.689 111.763 253.929 111.903C253.17 112.043 249.83 112.043 248.346 111.681C246.653 111.26 238.979 108.994 238.033 109.929C237.04 110.922 237.916 111.809 239.247 112.475C240.567 113.141 246.816 114.402 247.225 114.718C247.494 114.916 244.083 114.239 241.91 113.631C239.738 113.024 237.741 112.907 237.846 114.356C237.974 116.084 243.254 117.194 243.37 117.696C243.487 118.198 244.34 120.453 245.8 120.628C245.8 120.628 246.98 122.789 248.44 122.941C249.9 123.092 251.687 123.046 253.801 123.992C255.343 124.681 257.83 124.377 259.816 124.225C260.552 124.167 266.135 127.706 266.649 127.753C269.394 127.986 271.041 118.455 271.041 118.455V118.467Z" fill="#F0BB8F"/>
<path d="M377.528 307.289C377.645 309.625 380.542 311.961 382.539 314.075C384.548 316.189 385.097 317.533 382.983 320.196C380.869 322.871 371.7 323.396 368.079 321.913C365.638 320.908 363.278 311.844 361.386 311.284C359.494 310.735 358.98 310.992 358.63 309.135C358.268 307.277 358.63 303.166 358.63 303.166L377.517 307.289H377.528Z" fill="#412332"/>
<path d="M339.488 302.045C339.78 303.586 340.481 305.549 338.799 306.95C337.117 308.352 335.435 308.772 334.115 308.772C332.795 308.772 332.573 311.295 330.471 313.258C328.368 315.22 326.137 316.622 321.442 317.042C316.758 317.463 312.623 316.622 312.133 316.131C311.642 315.64 311.152 311.646 312.133 310.244C313.114 308.843 317.599 307.371 318.37 306.53C319.141 305.689 321.033 303.446 321.524 301.624C322.014 299.802 339.511 302.045 339.511 302.045H339.488Z" fill="#412332"/>
<path d="M365.381 179.145C366.058 185.254 368.126 200.719 369.679 215.658C370.929 227.747 373.943 248.409 373.943 251.855C373.943 255.3 379.047 306.167 379.047 306.167C379.047 306.167 378.498 308.025 375.181 307.067C369.364 305.397 361.176 307.23 358.501 307.616C355.827 308.001 357.882 284.372 354.437 265.626C350.991 246.879 339.895 196.385 339.895 196.385C339.895 196.385 339.124 235.794 339.895 244.59C340.666 253.385 341.039 300.152 340.666 301.297C340.28 302.441 335.305 302.827 332.244 301.682C329.184 300.538 320.003 302.64 319.431 301.869C318.859 301.098 320.003 287.713 320.961 280.249C321.919 272.797 320.459 254.144 319.279 248.409C318.1 242.674 316.756 222.783 316.371 216.277C315.986 209.771 315.729 179.134 315.729 179.134H365.393L365.381 179.145Z" fill="#294490"/>
<path d="M332.107 296.111C331.651 297.337 319.13 301.379 319.34 297.84C319.235 300.07 319.235 301.624 319.422 301.869C319.994 302.64 329.175 300.526 332.235 301.682C335.295 302.827 340.271 302.453 340.657 301.297C341.042 300.152 340.657 253.385 339.886 244.59C339.115 235.783 339.886 196.385 339.886 196.385L338.472 179.146H326.582C326.582 179.146 326.734 213.018 328.346 226.041C329.958 239.065 332.562 294.884 332.107 296.111Z" fill="#183178"/>
<path d="M375.179 307.079C378.496 308.036 379.045 306.179 379.045 306.179C379.045 306.179 373.941 255.312 373.941 251.866C373.941 248.421 370.928 227.758 369.678 215.669C368.136 200.731 366.057 185.254 365.379 179.157H351.936C353.571 190.253 364.2 248.514 365.566 254.494C367.05 260.989 369.795 302.558 369.795 302.558C369.795 302.558 361.747 303.084 357.262 304.088C357.507 306.378 357.869 307.721 358.488 307.628C361.163 307.242 369.362 305.408 375.167 307.079H375.179Z" fill="#183178"/>
<path d="M433.899 178.678C433.805 177.872 425.372 170.397 425.512 170.222C425.652 170.047 427.802 171.764 430.815 174.041C433.828 176.319 434.611 176.588 434.915 175.186C435.218 173.784 428.082 168.481 426.447 166.87C424.8 165.258 422.651 162.852 423.106 161.964C423.562 161.065 425.629 162.139 428.175 162.746C430.71 163.342 432.24 162.104 432.392 161.403C432.544 160.702 428.607 159.803 425.664 158.588C422.732 157.374 421.436 157.514 418.668 157.502C416.986 157.49 415.607 157.128 414.545 156.755C413.493 156.229 412.454 155.692 411.566 155.166C408.81 153.543 389.771 132.086 389.771 132.086C388.93 131.864 388.042 131.724 387.155 131.642C380.941 131.093 374.166 133.826 373.021 136.641C374.879 139.888 394.758 153.975 402.339 158.88C403.577 159.686 405.387 161.462 405.691 161.8C406.766 163.015 407.992 162.968 409.627 164.755C409.756 164.942 409.907 165.106 410.024 165.304C411.099 167.103 413.295 171.039 414.825 171.939C416.355 172.85 418.037 174.076 420.268 176.599C422.499 179.122 424.998 181.47 425.979 180.652C426.704 180.045 423.748 176.599 422.347 175.046C426.785 179.916 429.472 181.773 430.558 180.384C431.072 179.729 422.884 172.161 423.235 172.032C423.573 171.892 430.651 179.624 432.252 180.267C433.466 180.757 433.992 179.496 433.899 178.678Z" fill="#F0BB8F"/>
<path d="M344.883 72.7974C344.065 77.8315 349.111 81.0903 353.316 82.4919C357.521 83.8935 368.734 81.9313 373.219 88.9394C377.704 95.9475 386.114 127.904 388.637 130.427C391.16 132.95 413.679 153.858 413.679 153.858C413.679 153.858 412.196 164.066 404.627 167.15C404.627 167.15 376.034 143.042 372.95 138.557C369.867 134.072 363.139 116.131 363.139 116.131C363.139 116.131 363.7 145.635 364.541 151.802C365.382 157.969 369.54 174.929 366.748 179.134C366.748 179.134 338.4 191.959 313.241 179.134C313.241 179.134 311.466 153.227 313.241 139.678C313.907 134.55 312.751 122.578 312.751 122.578C312.751 122.578 296.422 141.64 293.911 141.08C291.388 140.519 275.76 136.63 266.509 130.182C266.509 130.182 264.932 121.037 270.188 117.895L290.044 123.77C289.928 124.634 301.257 109.637 303.231 99.872C304.084 95.6555 307.553 90.598 313.124 88.332C318.684 86.066 324.197 85.2484 327.106 81.429C330.014 77.6096 344.906 72.809 344.906 72.809L344.883 72.7974Z" fill="#523646"/>
<path d="M319.596 53.7235C319.958 56.8071 320.156 62.18 321.943 64.4226C323.742 66.6652 327.048 59.7505 327.048 59.7505C327.048 59.7505 324.022 52.8475 323.614 52.8125C323.216 52.7774 319.584 53.7235 319.584 53.7235H319.596Z" fill="#B38644"/>
<path d="M349.403 80.6581C346.576 78.9061 344.31 76.2897 344.882 72.7974C344.882 72.7974 329.99 77.6096 327.082 81.4173C326.696 81.9196 326.264 82.3634 325.797 82.7722C325.797 82.7722 329.254 88.9394 335.83 88.297C342.418 87.6546 349.426 80.6815 349.426 80.6815L349.403 80.6348V80.6581Z" fill="#412332"/>
<path d="M321.708 54.2963C320.634 56.1535 322.141 60.9423 321.568 62.2272C321.008 63.512 320.54 69.0834 322.351 73.6153C324.161 78.1472 335.725 78.778 335.725 78.778L341.448 76.1032L345.104 67.7869L347.23 55.149L338.201 49.0986L321.697 54.308L321.708 54.2963Z" fill="#F0BB8F"/>
<path d="M339.312 49.8225C338.412 54.4362 344.871 60.031 344.042 62.0283C343.201 64.0373 343.657 68.8846 341.04 72.5522C338.424 76.2081 335.504 75.1802 335.504 75.1802C335.504 75.1802 332.923 70.8936 329.056 71.0104C325.19 71.1272 325.961 73.2413 324.665 73.9655C323.368 74.6897 322.364 73.6034 322.364 73.6034C322.364 73.6034 321.791 74.7714 322.48 76.4183C323.415 78.6843 325.868 81.8379 327.655 83.7885C330.68 87.094 335.878 84.4076 337.887 83.3213C339.896 82.2351 346.67 75.2386 347.418 72.4938C348.165 69.7489 347.184 67.2611 347.184 67.2611C347.184 67.2611 348.644 65.4273 349.275 62.3554C349.894 59.2835 350.992 55.0903 349.181 51.2942C347.371 47.4982 343.119 44.9986 340.573 45.7345L339.323 49.7875L339.312 49.8225Z" fill="#B38644"/>
<path d="M339.243 51.0374C339.243 51.0374 337.748 52.077 335.692 51.4579C333.637 50.8389 333.064 56.3169 326.115 56.6439C319.165 56.971 314.668 48.4328 314.668 48.4328C314.668 48.4328 320.929 50.0329 323.183 47.0078C325.437 43.9943 329.116 40.537 335.389 41.9386C341.661 43.3519 340.54 45.7463 340.54 45.7463L339.22 51.0258L339.243 51.0374Z" fill="#B38644"/>
<path d="M344.858 65.0535C344.893 64.1308 344.671 60.9888 346.026 60.6151C347.381 60.2413 346.142 64.4695 346.026 66.0464C345.909 67.6232 346.481 69.0248 345.675 69.6789C344.869 70.333 344.437 68.8262 344.554 68.1254C344.659 67.4246 344.834 65.988 344.869 65.0652L344.858 65.0535Z" fill="#F0BB8F"/>
<path d="M330.177 72.8214C333.203 73.1017 334.826 75.1223 335.165 76.0684C335.492 77.0145 333.717 77.2131 331.38 77.4817C328.682 77.8088 326.65 76.816 326.51 76.267C326.37 75.7297 326.767 72.4943 330.177 72.8097V72.8214Z" fill="#F0BB8F"/>
<path d="M312.482 107.044C312.482 107.044 295.931 135.941 294.109 136.735C292.287 137.541 267.887 128.22 266.649 127.765C266.649 127.765 266.497 127.846 266.287 127.951C266.346 129.248 266.474 130.171 266.474 130.171C275.725 136.618 291.364 140.508 293.876 141.068C296.399 141.629 312.716 122.567 312.716 122.567L312.471 107.021L312.482 107.044Z" fill="#412332"/>
<path d="M379.956 135.906C377.048 131.362 363.125 100.328 363.125 100.328V116.131C363.125 116.131 369.853 134.072 372.936 138.557C376.02 143.043 404.613 167.15 404.613 167.15C406.353 166.45 407.755 165.352 408.911 164.102C404.8 160.353 382.596 140.017 379.968 135.906H379.956Z" fill="#412332"/>
<path d="M363.771 129.563C364.179 137.354 363.607 161.555 356.868 163.763C349.591 166.145 337.829 166.881 333.717 165.97C333.717 165.97 337.957 169.241 355.045 168.33C372.122 167.418 342.244 183.56 313.114 172.861C312.938 172.791 312.798 172.756 312.623 172.686C312.857 176.646 313.207 179.145 313.207 179.145C338.366 191.97 366.714 179.145 366.714 179.145C369.517 174.941 365.347 157.981 364.506 151.814C364.226 149.711 363.969 132.939 363.759 129.575L363.771 129.563Z" fill="#412332"/>
<path d="M303.98 228.156H235.137V251.096H303.98V228.156Z" fill="#7A553C"/>
<path d="M303.98 228.156H235.137V237.196C235.137 237.196 241.993 231.917 244.201 231.59C246.408 231.251 303.98 230.433 303.98 230.433V228.156Z" fill="#694329"/>
<path d="M282.419 240.654H256.688L269.559 244.286L282.419 240.654Z" fill="#694329"/>
<g style="mix-blend-mode:screen" opacity="0.3">
<g style="mix-blend-mode:screen" opacity="0.3">
<path d="M282.419 240.653H256.688L269.559 238.177L282.419 240.653Z" fill="#7A553C"/>
</g>
</g>
<path d="M186.29 225.878L195.482 327.297H194.279L177.168 225.878H186.29Z" fill="#694329"/>
<path d="M142.768 246.494L134.463 318.572H135.374L149.741 246.494H142.768Z" fill="#694329"/>
<path d="M109.215 258.688L100.91 330.755H101.833L116.2 258.688H109.215Z" fill="#7A553C"/>
<path d="M142.371 262.39L150.676 334.457H149.753L135.387 262.39H142.371Z" fill="#7A553C"/>
<path d="M175.918 250.196L184.223 322.263H183.312L168.945 250.196H175.918Z" fill="#694329"/>
<path d="M102.367 253.513L132.093 246.447H168.57L149.707 257.052C148.889 257.52 147.943 257.718 147.008 257.648L102.425 254.308C101.958 254.272 101.911 253.618 102.367 253.513Z" fill="#BBAFA3"/>
<path d="M102.064 253.992L102.427 264.645L147.255 267.378V257.648L102.064 253.992Z" fill="#B0A294"/>
<path d="M192.073 238.668V248.993L147.256 267.378V257.648L192.073 238.668Z" fill="#A39484"/>
<path d="M186.841 315.162C186.549 316.318 185.346 321.574 185.404 322.906C185.51 325.429 186.117 327.87 186.841 328.687C187.951 329.949 192.716 331.397 193.522 330.463C194.328 329.528 195.882 328.839 196.36 329.633C196.828 330.428 200.402 333.862 206.078 334.457C211.755 335.053 217.805 335.088 220.059 333.009C222.302 330.93 222.033 328.442 220.737 326.737C219.44 325.031 204.104 320.78 202.341 317.101L186.841 315.173V315.162Z" fill="#694329"/>
<path d="M147.922 222.666C147.922 222.666 193.404 236.998 203.064 240.735C212.723 244.473 218.633 249.46 218.33 255.067C218.026 260.673 211.789 279.981 211.474 285.903C211.158 291.824 207.047 319.74 206.521 320.266C205.996 320.791 191.395 322.228 185.532 317.661C185.532 317.661 190.484 284.793 190.484 282.842C190.484 280.892 186.186 255.849 186.186 255.849C186.186 255.849 140.808 235.503 142.374 235.9C143.939 236.297 147.933 222.678 147.933 222.678L147.922 222.666Z" fill="#412332"/>
<path d="M230.686 328.033C231.889 331.28 235.416 334.948 237.04 335.345C238.663 335.754 243.417 334.259 243.557 333.044C243.686 331.818 244.585 330.369 245.426 330.755C246.267 331.14 251.149 331.958 256.172 329.248C261.194 326.538 266.217 323.139 266.894 320.161C267.572 317.171 265.948 315.278 263.916 314.601C261.883 313.924 246.816 319.074 243.288 317.042L230.697 328.045L230.686 328.033Z" fill="#694329"/>
<path d="M47.8899 325.44C47.5278 323.186 47.1657 319.308 49.1513 318.876C49.1513 318.876 49.0462 320.488 52.7371 320.92C56.4281 321.352 60.995 321.282 62.8755 318.584C62.8755 318.584 64.7561 318.152 65.0364 319.308C65.3284 320.476 65.1765 321.282 68.6572 322.298C72.1262 323.314 80.5243 324.19 80.4542 329.283C80.3841 334.376 79.368 334.305 76.9852 335.111C74.5908 335.906 67.6527 336.863 62.5135 334.971C57.3742 333.079 57.4559 331.619 55.9258 332.343C54.4074 333.067 48.614 331.397 48.252 331.105C47.8899 330.813 47.8899 325.429 47.8899 325.429V325.44Z" fill="#C3C6D5"/>
<path d="M76.9862 335.123C79.0653 334.422 80.1048 334.387 80.3851 331C79.2872 331.782 77.3249 332.822 73.8559 333.616C67.4668 335.088 61.0895 332.109 59.793 331.21C58.4965 330.31 56.6977 329.902 55.5063 330.31C54.315 330.708 50.4255 330.614 47.9609 328.512C48.0077 329.785 48.1011 330.988 48.2646 331.128C48.6267 331.42 54.4201 333.09 55.9385 332.366C57.4569 331.642 57.3868 333.09 62.5261 334.994C67.6654 336.898 74.6151 335.94 76.9979 335.134L76.9862 335.123Z" fill="#523646"/>
<path d="M49.4788 316.19L48.9766 320.5C48.9766 320.5 49.1167 322.368 56.1716 322.368C63.2264 322.368 62.7942 319.916 62.7942 319.916L62.2219 313.585L49.4905 316.178L49.4788 316.19Z" fill="#F0BB8F"/>
<path d="M28.5119 321.668L27.9863 326.199C27.9863 326.199 28.1382 328.162 35.5317 328.162C42.9253 328.162 42.4698 325.592 42.4698 325.592L41.2667 317.977L28.5119 321.668Z" fill="#F0BB8F"/>
<path d="M47.7979 195.417C45.0063 202.892 46.186 209.059 48.2067 217.679C50.2274 226.299 49.0944 255.92 47.5877 260.136C46.0809 264.353 42.8572 277.517 44.2938 290.26C45.7422 303.003 48.3118 317.848 48.3118 317.848C48.3118 317.848 58.3685 317.895 64.6874 314.823C64.6874 314.823 62.585 277.949 62.8653 273.534C63.1457 269.118 66.4628 260.195 68.647 254.892C70.8312 249.589 73.3541 198.231 73.3541 198.231L47.8096 195.417H47.7979Z" fill="#294490"/>
<g opacity="0.5">
<path opacity="0.5" d="M59.9568 233.295C57.539 242.733 57.1652 263.372 55.8687 269.305C54.7241 274.55 57.2003 309.053 57.7843 316.949C60.1554 316.505 62.6199 315.839 64.6756 314.834C64.6756 314.834 62.5732 277.96 62.8535 273.545C63.1338 269.13 66.451 260.206 68.6352 254.903C70.8194 249.601 73.3423 198.243 73.3423 198.243L67.2452 197.577L63.823 199.037L59.9568 233.318V233.295Z" fill="#183178"/>
</g>
<path d="M36.6192 190.09C32.8932 197.892 33.5706 204.678 34.9255 214.174C36.2804 223.67 32.2157 255.546 30.1717 259.961C28.1393 264.364 23.3855 278.275 23.7242 292.175C24.063 306.086 25.4179 322.356 25.4179 322.356C25.4179 322.356 36.2687 323.372 43.3937 320.663C43.3937 320.663 44.6551 280.646 45.3793 275.892C46.1035 271.15 50.5302 261.841 53.4036 256.316C56.2769 250.792 67.8052 200.322 67.8052 200.322L36.6075 190.09H36.6192Z" fill="#294490"/>
<path d="M26.8544 331.409C26.4806 329.073 26.0952 325.066 28.1742 324.611C28.1742 324.611 28.0691 326.27 31.9119 326.725C35.7547 327.181 40.5202 327.099 42.4825 324.307C42.4825 324.307 44.433 323.852 44.7367 325.055C45.0404 326.258 44.8886 327.099 48.5094 328.15C52.1303 329.213 60.8904 330.112 60.8087 335.392C60.7386 340.683 59.6757 340.601 57.1878 341.43C54.6999 342.26 47.4582 343.241 42.097 341.279C36.7358 339.316 36.8176 337.81 35.2291 338.557C33.6406 339.316 27.6019 337.576 27.2281 337.272C26.8544 336.969 26.8544 331.385 26.8544 331.385V331.409Z" fill="#DBDFE8"/>
<path d="M76.1108 125.756C82.5232 127.998 84.5906 133.874 85.9572 142.599C87.3354 151.324 91.6571 168.178 91.2834 169.183C90.9096 170.176 81.5654 174.252 81.5654 174.252L72.9922 155.33L76.0991 125.756H76.1108Z" fill="#E4E7F4"/>
<g opacity="0.5">
<path opacity="0.5" d="M67.8187 200.322L63.824 199.014C58.7081 198.675 52.7746 197.612 52.7746 197.612C51.7584 206.641 45.603 251.108 42.4727 257.672C39.3424 264.224 33.5607 310.817 34.7638 322.38C37.6604 322.146 40.779 321.656 43.4071 320.663C43.4071 320.663 44.6685 280.647 45.3927 275.893C46.1169 271.151 50.5437 261.842 53.417 256.317C56.2903 250.792 67.8187 200.322 67.8187 200.322Z" fill="#183178"/>
</g>
<path d="M80.247 75.858C83.6459 74.7367 91.3315 80.0629 92.9316 87.8185C94.5318 95.5742 89.8831 124.354 90.4905 129.622C90.4905 129.622 78.8687 128.664 73.8112 123.058C72.176 121.247 69.8633 118.21 69.8633 118.21L73.1805 105.572L80.2353 75.858H80.247Z" fill="#B1611A"/>
<path d="M77.581 113.854C75.6655 116.739 74.6026 122.333 77.0905 129.342C77.0905 129.342 71.4373 128.045 68.4121 125.23C65.3869 122.404 68.6107 102.372 68.6107 102.372L79.2863 105.222L77.581 113.854Z" fill="#F0BB8F"/>
<g opacity="0.3">
<path opacity="0.3" d="M67.2817 121.843C71.6851 123.653 74.5935 124.961 76.1119 125.756C77.6303 126.55 79.686 133.815 81.2512 139.27C82.828 144.713 85.2224 149.887 82.2206 156.066C79.2188 162.233 78.1209 164.148 77.7471 175.245C77.3733 186.341 74.8154 204.036 74.8154 204.036C74.8154 204.036 52.1675 205.578 33.6895 193.244C33.6895 193.244 41.0129 176.202 42.9752 170.094C44.9375 163.985 44.6338 154.769 43.8746 145.577C43.1154 136.396 41.4801 132.098 45.0893 126.585C48.6985 121.072 55.9285 118.339 57.7506 118.012C59.5727 117.673 67.2933 121.854 67.2933 121.854L67.2817 121.843Z" fill="#D3EFFC"/>
</g>
<path d="M67.2797 121.843C71.6831 123.653 74.5915 124.961 76.1099 125.756C77.6283 126.55 79.6841 133.815 81.2492 139.27C82.826 144.713 85.2205 149.887 82.2187 156.066C79.2169 162.233 78.1189 164.148 77.7451 175.245C77.3714 186.341 74.8134 204.036 74.8134 204.036C74.8134 204.036 52.1656 205.578 33.6875 193.244C33.6875 193.244 41.011 176.202 42.9732 170.094C44.9355 163.985 44.6318 154.769 43.8726 145.577C43.1134 136.396 41.4782 132.098 45.0874 126.585C48.6965 121.072 55.9266 118.339 57.7487 118.012C59.5708 117.673 67.2914 121.854 67.2914 121.854L67.2797 121.843Z" fill="#FCFFFF"/>
<g opacity="0.5">
<path opacity="0.5" d="M78.5629 108.878L69.4173 102.664C69.4173 102.664 69.0553 102.687 68.553 102.758C68.3778 103.89 67.8172 107.698 67.4551 111.903C70.9708 114.414 77.0328 114.835 77.0328 114.835L77.0562 114.811C77.2197 114.484 77.3949 114.157 77.5818 113.865L78.5629 108.878Z" fill="#E8AB79"/>
</g>
<path d="M50.6465 183.269C54.2089 193.221 60.563 202.355 61.6609 206.197C62.7588 210.04 61.5558 217.153 64.3006 220.903C66.7301 224.232 69.9772 224.488 69.802 223.262C69.6034 221.919 68.7975 213.603 69.218 213.019C69.6268 212.435 72.43 218.31 72.9323 217.27C73.4345 216.231 71.4255 210.542 70.7714 208.907C70.1173 207.272 68.4237 206.886 67.0571 204.469C65.6906 202.051 61.8127 180.302 61.8127 180.302L52.3051 177.23L50.6698 183.246L50.6465 183.269Z" fill="#F0BB8F"/>
<path d="M69.4292 102.664C69.7096 105.853 70.1884 129.75 70.1884 129.75C70.1884 129.75 51.395 120.009 49.7715 115.933C49.7715 115.933 54.8056 102.594 55.378 96.8239C56.3591 87.0475 62.2693 72.5057 80.2334 75.8463L87.9774 86.0197L78.8318 97.3845L69.4176 102.652L69.4292 102.664Z" fill="#BD6A22"/>
<path d="M87.9774 86.0313L82.149 78.3691C85.4428 85.2137 68.7985 87.1877 66.1004 91.7663C63.3906 96.3449 65.785 112.802 64.0213 115.863C62.2576 118.923 50.5657 113.772 50.5657 113.772C50.0868 115.103 49.7715 115.933 49.7715 115.933C51.395 120.009 70.1884 129.75 70.1884 129.75C70.1884 129.75 69.7096 105.853 69.4292 102.664L78.8435 97.3962L87.989 86.0313H87.9774Z" fill="#B1611A"/>
<path d="M69.4287 102.664C68.1088 107.733 71.6946 111.658 77.5814 113.865C83.4799 116.061 87.3694 107.534 88.1287 104.72C88.8879 101.905 88.5375 99.8489 89.834 98.1553C91.1188 96.4617 91.0954 87.9234 87.9768 86.0313C84.8699 84.1274 74.5329 89.1148 72.9678 94.0438C72.9678 94.0438 70.3047 91.4275 68.3658 95.3403C67.3146 97.4778 67.5131 102.384 69.4053 102.664H69.4287Z" fill="#F0BB8F"/>
<path d="M44.106 148.812C44.3513 152.316 44.4914 155.762 44.433 158.974C44.7484 164.254 45.3207 166.94 46.4537 170.573C48.1473 176.016 50.6469 183.257 50.6469 183.257C50.6469 183.257 57.5616 179.169 61.7898 180.302C61.7898 180.302 57.4798 165.55 57.1644 164.184C56.8607 162.817 61.2642 147.107 62.3387 141.734C63.1914 137.448 63.2264 126.328 56.5337 122.684C54.8518 121.761 52.5858 120.675 50.1096 121.586C47.9721 122.368 46.4187 124.541 45.0871 126.573C41.4779 132.098 43.1132 136.385 43.8724 145.565C43.9658 146.64 44.0359 147.714 44.1177 148.777V148.801L44.106 148.812Z" fill="#E4E7F4"/>
<path d="M82.148 78.369C82.148 78.369 86.1894 84.8866 89.6117 84.2208C90.8264 83.9872 90.8031 83.0294 90.2774 81.8964C87.2523 77.5864 82.662 75.0635 80.2325 75.8578L79.6602 78.2756C81.0267 78.3223 82.148 78.3573 82.148 78.3573V78.369Z" fill="#BD6A22"/>
<path d="M57.1871 341.442C59.3597 340.718 60.4459 340.683 60.7379 337.167C59.5933 337.985 57.5375 339.048 53.9284 339.877C47.2707 341.407 40.613 338.312 39.2581 337.377C37.9032 336.443 36.0343 336.023 34.7846 336.443C33.5348 336.852 29.4817 336.747 26.9121 334.574C26.9588 335.894 27.0523 337.144 27.2275 337.284C27.6012 337.588 33.6399 339.316 35.2284 338.569C36.8169 337.81 36.7351 339.328 42.0963 341.29C47.4576 343.253 54.6993 342.271 57.1871 341.442Z" fill="#523646"/>
<path d="M110.227 241.354C115.518 249.448 118.322 256.001 132.034 256.305C145.735 256.62 148.55 259.108 161.001 265.333C173.464 271.559 182.492 275.612 182.492 275.612C182.492 275.612 209.287 313.304 212.709 318.291C216.131 323.279 221.399 330.754 224.366 330.754C227.333 330.754 242.926 321.095 245.414 316.423C245.414 316.423 217.685 281.534 215.197 278.731C212.709 275.927 204.918 260.346 199.931 255.37C194.944 250.383 136.075 218.297 136.075 218.297C136.075 218.297 118.625 227.326 114.269 231.064C109.912 234.801 110.215 241.342 110.215 241.342L110.227 241.354Z" fill="#523646"/>
<path d="M110.111 156.404C112.868 152.258 111.595 145.974 111.595 145.974L129.103 143.883C129.103 143.883 129.839 154.594 131.918 158.285C133.997 161.976 118.007 166.765 110.123 156.404H110.111Z" fill="#F0BB8F"/>
<path d="M218.294 172.406C219.252 172.628 218.971 173.294 219.275 173.855C219.591 174.415 218.948 175.443 218.843 176.191C218.75 176.938 218.609 177.557 217.617 178.41C216.624 179.263 210.597 180.991 209.697 181.961C209.697 181.961 206.684 179.613 207.023 179.169C207.361 178.725 218.294 172.418 218.294 172.418V172.406Z" fill="#E8AB79"/>
<path d="M184.223 258.688C175.591 250.628 130.05 240.478 127.422 236.262C127.422 236.262 116.256 236.741 110.381 238.995C110.194 240.385 110.229 241.354 110.229 241.354C115.52 249.449 118.324 256.001 132.036 256.305C145.737 256.62 148.552 259.108 161.003 265.334C173.466 271.559 182.494 275.612 182.494 275.612C182.494 275.612 209.289 313.304 212.711 318.292C216.133 323.279 221.401 330.754 224.368 330.754C225.921 330.754 230.874 328.138 235.628 324.973C235.628 324.973 192.843 266.747 184.211 258.688H184.223Z" fill="#412332"/>
<path d="M105.79 158.122L85.4897 161.532C81.8455 162.151 79.4627 165.702 80.292 169.311L96.5391 239.661C97.2983 242.955 100.487 245.092 103.816 244.555L117.54 242.347L105.79 158.122Z" fill="#BBAFA3"/>
<path d="M80.2783 169.322L96.5255 239.672C97.2847 242.966 100.473 245.103 103.802 244.566L115.576 242.674C114.747 240.84 113.205 238.913 110.694 236.974C98.4293 227.536 92.1921 183 85.476 161.532C81.8318 162.151 79.449 165.702 80.2783 169.311V169.322Z" fill="#B0A294"/>
<path d="M200.294 186.854C199.733 184.448 198.857 181.715 198.191 181.19L197.818 181.306C197.222 181.493 196.603 181.68 195.96 181.89L191.475 183.28L183.357 185.815C178.113 187.357 172.308 188.875 171.432 188.338C170.1 187.52 154.064 164.989 149.38 161.111C144.696 157.222 144.498 157.911 131.918 155.353C131.918 155.353 142.932 186.341 144.556 188.104C146.168 189.868 166.176 203.452 167.811 203.674C169.446 203.908 178.323 202.156 185.168 197.635C186.418 196.806 187.691 195.895 188.964 194.972C188.976 194.972 188.987 194.972 189.011 194.949C191.966 192.858 200.843 190.569 200.843 190.569C200.971 190.16 200.726 188.607 200.317 186.878L200.294 186.854Z" fill="#FFD765"/>
<path d="M130.399 154.5L139.136 156.731C139.136 156.731 145.046 170.794 145.198 177.148C145.35 183.502 148.971 199.072 150.571 202.483C152.171 205.905 157.859 224.71 157.906 225.656C157.953 226.614 141.39 226.147 134.336 231.414C127.281 236.694 112.47 246.003 110.216 245.477C107.962 244.952 105.906 235.514 104.761 231.59C103.617 227.665 102.869 194.295 102.869 194.295C102.869 194.295 112.529 172.535 112.984 172.196C113.451 171.857 125.412 161.03 125.412 161.03L130.388 154.489L130.399 154.5Z" fill="#FFD765"/>
<path d="M134.347 231.438C141.402 226.17 157.965 226.626 157.918 225.68C157.871 224.734 152.183 205.917 150.583 202.506C149.181 199.504 146.226 187.182 145.42 179.905C144.03 177.207 143.178 175.537 143.178 175.537C145.502 184.495 146.004 208.498 103.5 213.906C103.827 221.965 104.259 229.838 104.785 231.625C105.929 235.549 107.985 244.987 110.228 245.513C112.482 246.038 127.293 236.729 134.347 231.45V231.438Z" fill="#FFC92E"/>
<path d="M110.113 156.404C106.2 158.285 93.5271 162.022 91.9503 164.23C90.3735 166.438 88.4112 178.97 86.8227 189.588C85.2342 200.205 83.8209 213.661 84.7903 216.359C85.7598 219.045 90.4202 220.505 92.7796 221.229C95.139 221.953 120.613 216.721 121.898 215.167C121.898 215.167 121.758 210.495 120.532 205.718C120.532 205.718 106.212 205.613 99.9395 206.407C99.9395 206.407 102.03 199.668 102.883 194.318L125.426 161.041L110.113 156.404Z" fill="#FFD765"/>
<path d="M128.017 206.84C110.975 206.653 103.278 184.963 103.231 181.599L102.881 192.146L103.278 206.22L128.017 206.84Z" fill="#FFC92E"/>
<path d="M129.654 196.818L132.259 213.684C132.259 213.684 138.017 216.523 143.168 213.147L142.316 195.837L129.643 196.806L129.654 196.818Z" fill="#F8F3E0"/>
<path d="M128.016 195.428C128.121 195.79 128.962 197.612 128.962 197.612L143.036 196.432L142.908 193.781L128.027 195.428H128.016Z" fill="#7A553C"/>
<path d="M130.516 192.835L129.582 195.265L141.507 193.933L140.176 191.69L130.516 192.835Z" fill="#694329"/>
<path d="M139.277 190.919C138.273 189.366 137.852 188.268 139.055 186.481C140.27 184.682 138.016 182.509 138.016 182.509C138.016 182.509 141.625 184.869 140.235 186.644C138.833 188.408 138.401 188.373 139.265 190.931L139.277 190.919Z" fill="#F8EBE0"/>
<path d="M140.199 204.445C140.421 207.458 139.066 210.016 137.173 210.157C135.27 210.297 133.553 207.972 133.319 204.971C133.085 201.957 134.452 199.399 136.344 199.259C138.236 199.119 139.965 201.443 140.199 204.445Z" fill="#759EE0"/>
<path d="M93.3513 160.212C95.699 159.815 97.1357 162.7 100.92 164.055C104.704 165.398 107.519 165.351 108.045 164.055C108.571 162.758 105.253 157.082 104.272 156.404C103.291 155.727 96.0378 156.428 93.8536 157.128C91.6694 157.829 89.7305 160.819 89.7305 160.819L93.3513 160.212Z" fill="#F0BB8F"/>
<path d="M133.976 199.96C132.948 200.17 126.874 204.726 125.87 205.403C124.924 206.034 123.23 206.256 120.766 206.735C121.256 208.895 121.537 210.951 121.7 212.505C123.405 211.944 126.687 210.893 128.042 210.834C129.9 210.741 132.236 209.328 133.871 208.603C135.506 207.879 138.66 209.76 139.571 209.339C140.482 208.919 143.869 206.069 143.437 204.796C143.005 203.523 135.027 199.75 133.999 199.96H133.976Z" fill="#F0BB8F"/>
<path d="M213.736 175.478C217.229 173.446 219.436 171.834 218.35 171.682C217.264 171.53 215.605 172.839 209.964 175.058C204.322 177.289 204.649 178.702 202.15 179.777C201.052 180.256 199.545 180.758 197.816 181.295L198.19 181.178C198.868 181.704 199.732 184.449 200.293 186.843C201.028 186.458 201.683 186.154 202.138 186.119C204.789 185.885 206.542 186.458 209.87 185.115C213.199 183.771 216.236 183.923 216.213 183.047C216.178 182.171 213.059 182.171 211.506 182.171C209.952 182.171 209.45 181.447 209.38 180.454C209.31 179.461 210.232 177.511 213.736 175.467V175.478Z" fill="#F0BB8F"/>
<path d="M92.6035 212.867C94.8344 208.872 99.9386 206.407 99.9386 206.407C99.9386 206.407 102.029 199.668 102.882 194.318L103.221 181.19C102.859 190.195 92.5918 212.867 92.5918 212.867H92.6035Z" fill="#FFC92E"/>
<path d="M168.572 197.554C166.89 196.374 143.168 175.525 143.168 175.525C143.986 179.812 147.186 190.172 147.186 190.172C153.073 194.494 166.47 203.464 167.801 203.651C169.437 203.884 178.314 202.132 185.158 197.612C186.408 196.783 187.681 195.872 188.954 194.949C188.966 194.949 188.978 194.949 189.001 194.926C191.956 192.835 200.833 190.546 200.833 190.546C200.962 190.137 200.716 188.583 200.307 186.855C200.307 186.855 184.808 192.893 179.201 195.755C173.595 198.617 170.266 198.745 168.584 197.565L168.572 197.554Z" fill="#FFC92E"/>
<path d="M130.867 123.583C131.509 117.136 125.693 109.508 112.506 112.16C107.74 113.118 103.29 115.5 102.823 120.079C102.799 120.336 102.566 120.511 102.437 120.745C100.709 123.933 100.51 127.543 101.141 130.428C102.379 136.092 104.773 139.316 105.451 140.344C106.14 141.372 110.263 143.72 112.132 146.967C114.001 150.214 130.867 123.583 130.867 123.583Z" fill="#3B2012"/>
<path d="M110.111 142.505C111.338 144.269 111.898 146.348 115.846 148.065C119.794 149.782 125.915 151.779 127.585 151.347C129.243 150.915 130.668 151.055 132.093 146.219C133.518 141.395 134.873 138.989 133.904 134.679C132.934 130.381 132.35 121.282 126.113 119.472C121.499 118.105 115.321 120.92 112.821 125.265C110.298 129.61 110.567 130.918 110.812 136.688C110.812 136.688 107.472 133.897 106.292 134.037C105.112 134.165 104.318 135.146 105.591 137.307C106.864 139.456 106.817 138.709 107.203 139.877C107.6 141.033 108.044 142.19 108.768 142.458C109.667 142.774 110.1 142.505 110.1 142.505H110.111Z" fill="#F0BB8F"/>
<path d="M125.693 118.853C125.693 118.853 122.282 119.203 119.595 121.259C116.687 123.49 112.669 126.678 112.704 130.311C112.727 133.932 112.634 137.658 112.634 137.658L111.256 137.798L108.277 125.978L113.744 117.556L125.693 118.864V118.853Z" fill="#3B2012"/>
<path d="M124.62 119.822C124.62 119.822 129.234 120.126 130.869 123.583L128.147 117.813L123.697 115.5L124.62 119.81V119.822Z" fill="#3B2012"/>
<path d="M110.811 136.688C111.208 140.94 109.572 140.928 109.713 143.007C109.841 145.074 110.227 146.546 115.144 150.015C120.05 153.472 125.96 155.4 128.798 154.5C131.636 153.613 132.816 150.634 132.921 149.221C133.026 147.808 133.482 141.816 133.482 141.816C133.482 141.816 132.688 144.724 129.849 146.254C127.011 147.772 120.377 146.978 117.982 145.156C115.588 143.334 112.633 137.646 112.633 137.646L110.46 132.098L109.047 133.733L110.822 136.676L110.811 136.688Z" fill="#3B2012"/>
<path d="M132.736 144.14C133.133 142.902 133.484 141.816 133.752 140.776C132.97 140.461 131.697 140.215 130.003 140.753C127.889 141.418 127.936 141.757 125.027 143.871C121.897 146.149 120.274 146.464 117.237 145.612C115.017 144.981 117.097 147.609 118.381 149.069C119.07 149.326 119.771 149.583 120.472 149.828L124.35 149.291L124.478 147.013C127.539 146.032 127.679 144.268 129.115 143.404C130.867 142.353 131.533 142.972 132.736 144.14Z" fill="#3B2012"/>
<path d="M129.604 121.796C128.693 120.733 127.572 119.892 126.112 119.46C121.498 118.105 115.319 120.908 112.82 125.253C112.528 125.767 112.282 126.211 112.061 126.643C112.271 126.959 112.423 127.204 112.423 127.204H113.602C115.67 124.564 118.321 122.637 121.089 123.583C123.846 124.518 126.626 124.097 128.156 122.217C128.693 121.563 129.184 121.551 129.592 121.796H129.604Z" fill="#3B2012"/>
<path d="M141.603 225.878L130.74 350.938H131.943L150.737 225.878H141.603Z" fill="#694329"/>
<path d="M491.517 225.878L500.709 334.819H499.506L482.395 225.878H491.517Z" fill="#694329"/>
<path d="M452.4 225.878L441.525 326.456H442.728L461.534 225.878H452.4Z" fill="#694329"/>
<path d="M495.793 217.877H137.34V228.74H495.793V217.877Z" fill="#7A553C"/>
<path d="M137.34 217.877L166.388 210.519L509.377 212.504L495.793 217.877H137.34Z" fill="#966A4D"/>
<path d="M495.795 228.74L509.379 222.666V212.504L495.795 217.877V228.74Z" fill="#694329"/>
<path d="M219.875 129.376L226.054 199.551H323.677L326.422 129.376H219.875Z" fill="#DBDFE8"/>
<g opacity="0.5">
<path opacity="0.5" d="M225.33 191.246L226.066 199.551H323.689L326.434 129.376H313.632C307.629 162.537 302.326 188.081 225.33 191.246Z" fill="#C3C6D5"/>
</g>
<path d="M283.836 159.979C283.836 163.693 280.274 166.695 275.87 166.695C271.467 166.695 267.904 163.681 267.904 159.979C267.904 156.276 271.467 153.263 275.87 153.263C280.274 153.263 283.836 156.276 283.836 159.979Z" fill="white"/>
<path d="M268.734 189.95L274.072 211.943H254.414V214.548H294.349L277.202 189.95H268.734Z" fill="#C3C6D5"/>
<path d="M331.361 215.027L332.821 175.022H341.325L343.754 215.027H331.361Z" fill="#F0E6FF"/>
<path d="M348.379 177.943L341.324 175.022L343.754 215.027H352.023L348.379 177.943Z" fill="#D5BFF2"/>
<path d="M335.193 211.909H341.325L338.674 178.585H335.193V211.909Z" fill="white"/>
<path d="M353.694 201.887C351.579 196.257 346.814 180.349 353.623 178.609C360.445 176.868 359.335 190.639 359.335 190.639C359.335 190.639 361.601 183.584 364.825 185.874C368.06 188.163 359.627 194.891 359.627 194.891C359.627 194.891 359.37 200.684 359.066 202.88C358.763 205.064 353.682 201.887 353.682 201.887H353.694Z" fill="#C9C94F"/>
<g opacity="0.5">
<path opacity="0.5" d="M353.694 201.887C351.579 196.257 346.814 180.349 353.623 178.609C360.445 176.868 359.335 190.639 359.335 190.639C359.335 190.639 361.601 183.584 364.825 185.874C368.06 188.163 359.627 194.891 359.627 194.891C359.627 194.891 359.37 200.684 359.066 202.88C358.763 205.064 353.682 201.887 353.682 201.887H353.694Z" fill="#B0B54F"/>
</g>
<path d="M351.681 190.312C349.217 186.399 345.748 185.839 344.79 187.474C343.622 189.459 345.549 191.971 352.02 192.414L351.681 190.312Z" fill="#C9C94F"/>
<g opacity="0.5">
<path opacity="0.5" d="M351.681 190.312C349.217 186.399 345.748 185.839 344.79 187.474C343.622 189.459 345.549 191.971 352.02 192.414L351.681 190.312Z" fill="#B0B54F"/>
</g>
<path d="M361.878 186.201C360.616 184.694 359.869 181.867 361.025 181.365C362.193 180.863 364.226 182.031 363.957 185.862C363.688 189.693 361.866 186.201 361.866 186.201H361.878Z" fill="#C9C94F"/>
<path d="M345.539 186.995C344.791 186.259 343.728 184.308 345.118 183.736C346.496 183.164 347.267 187.555 347.267 187.555L345.539 186.983V186.995Z" fill="#C9C94F"/>
<g opacity="0.5">
<path opacity="0.5" d="M345.539 186.995C344.791 186.259 343.728 184.308 345.118 183.736C346.496 183.164 347.267 187.555 347.267 187.555L345.539 186.983V186.995Z" fill="#B0B54F"/>
</g>
<path d="M362.406 182.79C361.904 181.563 362.558 178.62 363.96 179.531C365.35 180.442 363.072 183.28 363.072 183.28L362.406 182.79Z" fill="#C9C94F"/>
<path d="M361.508 193.256C364.895 193.256 366.157 192.274 366.297 191.492C366.437 190.709 365.386 189.798 362.921 191.492L361.508 193.256Z" fill="#C9C94F"/>
<g opacity="0.5">
<path opacity="0.5" d="M361.506 193.256C364.893 193.256 366.155 192.274 366.295 191.492C366.435 190.709 365.384 189.798 362.919 191.492L361.506 193.256Z" fill="#B0B54F"/>
</g>
<path d="M352.022 180.08C348.378 177.943 348.904 175.291 350.807 174.088C352.711 172.885 355.526 175.572 354.966 179.017C354.405 182.463 352.034 180.08 352.034 180.08H352.022Z" fill="#C9C94F"/>
<g opacity="0.5">
<path opacity="0.5" d="M352.279 173.866C354.276 174.742 353.342 178.83 350.982 179.356C351.286 179.601 351.613 179.846 352.022 180.08C352.022 180.08 354.393 182.475 354.954 179.017C355.386 176.401 353.867 174.24 352.279 173.866Z" fill="#B0B54F"/>
</g>
<g opacity="0.5">
<path opacity="0.5" d="M360.877 184.472C361.134 185.103 361.473 185.722 361.881 186.2C361.881 186.2 363.692 189.693 363.972 185.862C364.042 184.822 363.937 183.993 363.727 183.327C364.019 184.986 362.594 186.095 360.889 184.472H360.877Z" fill="#B0B54F"/>
</g>
<path d="M346.719 191.223C347.723 191.702 349.125 192.064 350.9 192.274C350.62 191.025 350.316 188.77 350.281 188.56C349.382 187.649 348.459 187.053 347.606 186.796C347.618 186.808 349.802 189.448 348.739 190.522C347.735 191.539 346.847 191.27 346.73 191.223H346.719Z" fill="#B0B54F"/>
<path d="M365.162 188.758C364.637 189.272 363.784 189.786 362.429 189.915C360.724 190.078 360.362 189.132 360.327 188.338C359.801 189.342 359.463 190.288 359.369 190.557L359.346 190.639C359.591 192.274 359.638 194.89 359.638 194.89C359.638 194.89 363.831 191.538 365.162 188.758Z" fill="#B0B54F"/>
<path d="M359.347 190.639C359.347 190.639 359.884 183.865 357.84 180.419C358.67 186.341 359.394 195.907 352.035 196.783C352.619 198.815 353.227 200.614 353.705 201.887C353.705 201.887 358.786 205.076 359.09 202.88C359.394 200.684 359.651 194.891 359.651 194.891C359.651 194.891 359.686 194.867 359.744 194.821L359.966 189.097C359.569 189.962 359.359 190.639 359.359 190.639H359.347Z" fill="#B0B54F"/>
<path d="M349.923 215.027L348.498 201.069H363.963L362.818 215.027H349.923Z" fill="#DBDFE8"/>
<path d="M361.544 201.069L360.271 209.701L349.502 210.916L349.922 215.027H362.817L363.962 201.069H361.544Z" fill="#C3C6D5"/>
<path d="M349.921 215.027L349.605 211.909H363.073L362.816 215.027H349.921Z" fill="#FFC92E"/>
<path d="M191.328 214.548V212.411L234.393 209.351V214.548H191.328Z" fill="#DBDFE8"/>
<path d="M521.969 285.622H516.397L514.832 265.638H523.534L521.969 285.622Z" fill="#523646"/>
<path d="M521.958 285.623H516.398V308.539H521.958V285.623Z" fill="#C3C6D5"/>
<path d="M521.958 308.539H516.398V328.255H521.958V308.539Z" fill="#523646"/>
<path d="M542.095 339.947H539.817V332.869C539.817 330.953 538.264 329.4 536.348 329.4H499.159C497.243 329.4 495.678 330.953 495.678 332.869V339.947H493.4V332.869C493.4 329.703 495.982 327.122 499.147 327.122H536.337C539.514 327.122 542.095 329.703 542.095 332.869V339.947Z" fill="#4D4136"/>
<path d="M529.701 339.947H527.423V332.869C527.423 330.883 526.5 329.4 525.683 329.4H511.071C510.253 329.4 509.33 330.883 509.33 332.869V339.947H507.053V332.869C507.053 329.645 508.816 327.122 511.059 327.122H525.671C527.925 327.122 529.689 329.645 529.689 332.869V339.947H529.701Z" fill="#4D4136"/>
<path d="M516.398 298.669L521.97 293.098V289.652L516.398 295.224V298.669Z" fill="#DBDFE8"/>
<path d="M516.398 303.108L521.97 297.548V295.819L516.398 301.391V303.108Z" fill="#DBDFE8"/>
<g style="mix-blend-mode:multiply" opacity="0.5">
<g style="mix-blend-mode:multiply" opacity="0.5">
<path d="M520.23 285.623V306.588H516.398V308.539H521.97V285.623H520.23Z" fill="#C3C6D5"/>
</g>
</g>
<path d="M514.984 267.752L521.198 268.523L520.228 285.622H521.969L523.534 265.638H514.832L514.984 267.752Z" fill="#412332"/>
<path d="M520.475 308.539H516.398V309.228L520.475 309.684V327.192H521.97V309.859V308.539H520.475Z" fill="#412332"/>
<path d="M544.35 340.286C544.35 342.295 542.925 343.93 541.161 343.93C539.398 343.93 537.973 342.295 537.973 340.286C537.973 338.277 539.398 336.642 541.161 336.642C542.925 336.642 544.35 338.277 544.35 340.286Z" fill="#523646"/>
<path d="M543.367 340.286C543.367 341.442 542.794 342.376 542.093 342.376C541.393 342.376 540.809 341.442 540.809 340.286C540.809 339.129 541.381 338.195 542.093 338.195C542.806 338.195 543.367 339.129 543.367 340.286Z" fill="#412332"/>
<path d="M531.85 340.286C531.85 342.295 530.425 343.93 528.661 343.93C526.898 343.93 525.473 342.295 525.473 340.286C525.473 338.277 526.898 336.642 528.661 336.642C530.425 336.642 531.85 338.277 531.85 340.286Z" fill="#523646"/>
<path d="M530.988 340.286C530.988 341.442 530.415 342.376 529.715 342.376C529.014 342.376 528.43 341.442 528.43 340.286C528.43 339.129 529.002 338.195 529.715 338.195C530.427 338.195 530.988 339.129 530.988 340.286Z" fill="#412332"/>
<path d="M511.012 340.286C511.012 342.295 509.587 343.93 507.835 343.93C506.083 343.93 504.646 342.295 504.646 340.286C504.646 338.277 506.071 336.642 507.835 336.642C509.599 336.642 511.012 338.277 511.012 340.286Z" fill="#523646"/>
<path d="M508.339 340.286C508.339 341.442 507.767 342.376 507.054 342.376C506.342 342.376 505.781 341.442 505.781 340.286C505.781 339.129 506.354 338.195 507.054 338.195C507.755 338.195 508.339 339.129 508.339 340.286Z" fill="#412332"/>
<path d="M497.756 340.286C497.756 342.295 496.331 343.93 494.568 343.93C492.804 343.93 491.379 342.295 491.379 340.286C491.379 338.277 492.804 336.642 494.568 336.642C496.331 336.642 497.756 338.277 497.756 340.286Z" fill="#523646"/>
<path d="M494.929 340.286C494.929 341.442 494.357 342.376 493.644 342.376C492.932 342.376 492.359 341.442 492.359 340.286C492.359 339.129 492.932 338.195 493.644 338.195C494.357 338.195 494.929 339.129 494.929 340.286Z" fill="#412332"/>
<path d="M526.125 163.564C533.74 164.581 546.624 166.449 547.395 171.892C548.177 177.335 550.128 241.787 547.395 243.831C544.661 245.875 528.905 249.776 528.484 249.274C528.064 248.76 526.113 163.564 526.113 163.564H526.125Z" fill="#BBAFA3"/>
<path d="M547.397 243.83C550.131 241.786 548.18 177.335 547.397 171.892C547.082 169.696 544.793 168.096 541.686 166.881C542.936 185.231 547.573 231.66 537.469 236.227C527.366 240.794 528.499 249.273 528.499 249.273C528.919 249.787 544.676 245.874 547.409 243.83H547.397Z" fill="#B0A294"/>
<path d="M548.809 256.037C548.855 260.814 549.521 265.334 545.83 267.331C542.139 269.317 495.746 271.922 490.922 266.549C486.109 261.176 490.618 254.413 490.618 254.413L548.809 256.037Z" fill="#B0A294"/>
<path d="M548.81 256.036C548.81 259.073 531.722 262.087 514.143 262.087C496.564 262.087 482.303 259.634 482.303 256.597C482.303 253.56 496.564 251.107 514.143 251.107C531.722 251.107 548.81 253 548.81 256.036Z" fill="#BBAFA3"/>
<path d="M528.836 251.563C516.805 254.612 498.888 259.681 512.449 259.833C531.838 260.043 538.799 257.94 541.416 252.953C538.017 252.346 533.683 251.878 528.836 251.563Z" fill="#B0A294"/>
<path d="M548.879 259.973L548.809 259.844C547.816 267.098 499.121 269.609 490.922 266.549C495.746 271.922 542.139 269.317 545.83 267.331C548.47 265.906 548.879 263.161 548.879 259.973Z" fill="#A39484"/>
<path d="M461.838 328.138C463.333 328.559 463.579 331.28 463.555 333.967C463.555 334.819 463.52 335.941 462.971 336.641C460.776 339.375 457.236 339.036 456.559 338.615C455.765 338.125 454.083 339.702 452.553 340.274C449.294 341.489 444.832 342.505 438.712 341.021C429.893 338.884 435.838 333.137 441.235 331.619C446.631 330.112 461.85 328.138 461.85 328.138H461.838Z" fill="#412332"/>
<path d="M461.769 319.939C460.203 324.272 462.796 330.614 462.493 331.011C462.259 331.303 459.374 333.406 452.401 334.2C450.03 334.469 445.241 336.536 442.309 335.754C434.157 333.604 442.508 331.607 448.185 329.294C450.544 328.337 451.303 327.145 451.829 326.444C453.616 324.038 452.413 317.03 452.413 317.03L461.769 319.939Z" fill="#F0BB8F"/>
<path d="M479.687 332.191C481.182 332.612 481.427 335.333 481.404 338.02C481.404 338.861 481.369 339.994 480.82 340.695C478.624 343.439 475.085 343.089 474.407 342.669C473.601 342.178 471.943 343.755 470.401 344.327C467.142 345.542 462.68 346.558 456.56 345.075C447.753 342.937 453.687 337.191 459.083 335.684C464.479 334.165 479.698 332.203 479.698 332.203L479.687 332.191Z" fill="#523646"/>
<path d="M479.605 323.992C478.039 328.337 480.632 334.668 480.329 335.065C480.107 335.357 477.21 337.459 470.237 338.253C467.866 338.522 463.077 340.589 460.145 339.807C451.993 337.646 460.344 335.66 466.02 333.348C468.392 332.39 469.139 331.21 469.665 330.498C471.463 328.092 470.249 321.083 470.249 321.083L479.605 323.98V323.992Z" fill="#F0BB8F"/>
<path d="M505.394 229.522C505.394 229.522 505.301 230.293 499.005 231.064C492.71 231.835 453.161 243.352 449.937 245.326C446.713 247.311 446.071 255.067 446.234 264.68C446.398 274.293 448.278 321.854 448.278 321.854C448.278 321.854 456.291 324.366 464.817 322.637C464.817 322.637 465.962 273.452 462.902 265.486L483.891 264.703L505.394 229.522Z" fill="#183178"/>
<path d="M537.876 230.492C540.983 246.809 538.075 256.749 528.322 258.069C518.569 259.388 502.403 260.989 500.184 261.596C497.965 262.203 483.879 264.691 483.879 264.691C483.879 264.691 484.311 308.071 482.454 327.542C482.454 327.542 468.8 331.876 464.128 324.891C464.128 324.891 462.422 284.232 461.862 269.62C461.301 255.008 459.911 251.388 462.889 247.965C465.868 244.555 491.623 238.995 493.573 237.313C495.524 235.631 502.17 230.609 502.17 230.609L537.865 230.492H537.876Z" fill="#294490"/>
<path d="M522.434 160.282C525.517 161.649 532.607 173.598 534.371 178.48C536.123 183.362 538.331 193.279 538.552 204.725C538.774 216.172 538.587 234.767 538.587 234.767C538.587 234.767 514.269 239.322 500.58 231.368C498.291 230.036 497.8 216.791 496.597 208.673C494.448 194.178 489.951 175.455 489.951 175.455L495.324 164.23L513.452 160.294H522.445L522.434 160.282Z" fill="#D5BFF2"/>
<path d="M475.82 142.645C474.161 138.978 480.924 128.898 489.941 128.606C498.958 128.325 503.618 131.607 505.791 135.625C507.952 139.643 511.047 147.878 519.866 153.73C530.378 160.703 533.8 171.437 533.8 177.102C533.8 177.102 526.955 162.478 520.134 161.485C513.313 160.492 513.441 160.294 513.441 160.294C513.441 160.294 512.986 164.125 510.323 167.127C507.66 170.129 505.137 174.672 505.137 174.672C505.137 174.672 498.538 164.207 500.628 156.802L475.82 142.657V142.645Z" fill="#B38644"/>
<g style="mix-blend-mode:multiply" opacity="0.3">
<g style="mix-blend-mode:multiply" opacity="0.3">
<path d="M519.864 153.73C511.045 147.878 507.95 139.644 505.789 135.626C504.072 132.437 500.732 129.739 494.938 128.898C501.982 131.269 504.96 137.179 503.827 143.708C502.694 150.273 490.617 148.24 482.207 143.708C482.207 143.708 483.352 145.39 485.08 147.937L500.615 156.802C498.524 164.207 505.124 174.673 505.124 174.673C505.124 174.673 507.646 170.129 510.31 167.127C512.973 164.125 513.428 160.294 513.428 160.294C513.428 160.294 513.3 160.493 520.121 161.486C525.587 162.28 531.054 171.799 533.016 175.56C533.238 175.537 533.46 175.514 533.682 175.49C533.121 169.58 529.465 160.107 519.852 153.73H519.864Z" fill="#B38644"/>
</g>
</g>
<path d="M475.819 142.645C474.488 151.802 478.155 152.305 478.482 154.465C478.809 156.626 476.322 158.623 481.811 165.118C487.301 171.612 490.805 171.939 493.293 169.615C495.792 167.29 501.948 162.279 500.616 156.79C500.616 156.79 505.779 153.8 503.945 149.968C502.111 146.137 498.455 150.471 498.455 150.471C498.455 150.471 491.459 149.303 486.296 146.137C481.134 142.972 479.475 141.804 475.808 142.645H475.819Z" fill="#F0BB8F"/>
<g opacity="0.5">
<path opacity="0.5" d="M503.956 149.969C502.122 146.138 498.466 150.471 498.466 150.471C498.466 150.471 491.469 149.303 486.307 146.138C484.625 145.11 483.328 144.316 482.207 143.708C487.416 151.219 483.644 166.975 483.62 167.092C488.094 171.636 491.096 171.671 493.303 169.615C495.803 167.291 501.958 162.28 500.627 156.79C500.627 156.79 505.789 153.8 503.956 149.969Z" fill="#E8AB79"/>
</g>
<path d="M493.633 179.987C493.633 178.223 493.376 175.969 493.668 175.385C493.948 174.789 494.544 172.523 497.09 171.402C499.648 170.269 500.349 169.369 501.272 166.987C502.194 164.604 501.774 164.254 500.945 162.256C500.127 160.259 499.94 158.308 498.667 159.5C498.667 159.5 497.487 150.296 496.448 149.817C495.42 149.338 494.871 149.758 494.871 149.758C494.871 149.758 494.427 148.252 493.282 148.135C492.138 148.03 491.589 148.988 491.752 149.688C491.752 149.688 490.187 148.929 489.662 149.735C489.136 150.529 489.381 152.795 489.381 152.795C489.381 152.795 487.91 152.118 487.676 153.952C487.431 155.785 488.599 161.882 488.564 162.35C488.517 162.805 484.733 167.641 485.013 172.29C485.282 176.938 485.48 181.984 485.48 181.984L493.645 179.998L493.633 179.987Z" fill="#FAC396"/>
<path d="M520.273 161.287L513.452 160.282C513.452 160.282 512.787 163.284 510.123 166.274C509.621 166.846 509.131 167.512 508.663 168.19C505.989 172.92 503.069 178.41 502.344 180.711C501.013 184.869 498.443 191.76 498.443 191.76C498.443 191.76 494.449 177.113 493.946 176.775C493.444 176.436 483.621 180.431 483.621 180.431C483.621 180.431 484.614 189.086 485.28 194.248C485.945 199.411 489.975 213.999 490.302 214.502C490.629 215.004 491.797 216.662 496.458 216.499C501.118 216.335 507.472 208.51 512.6 201.817C518.159 194.552 524.093 185.909 526.756 180.244C529.419 174.59 528.263 170.596 525.296 164.417C523.766 162.758 522.061 161.532 520.273 161.275V161.287Z" fill="#F0E6FF"/>
<g opacity="0.3">
<path opacity="0.3" d="M521.593 175.56C520.741 182.346 503.606 206.676 500.043 210.367C496.726 213.789 494.297 214.104 489.508 211.979C489.928 213.427 490.232 214.396 490.314 214.513C490.641 215.015 491.809 216.674 496.469 216.511C501.13 216.347 507.484 208.521 512.611 201.829C518.171 194.563 524.105 185.92 526.768 180.255C529.431 174.602 528.274 170.607 525.308 164.429C523.777 162.77 522.072 161.544 520.285 161.287C520.285 161.287 522.458 168.774 521.605 175.56H521.593Z" fill="#D5BFF2"/>
</g>
<g opacity="0.3">
<path opacity="0.3" d="M505.138 174.672C503.818 177.207 502.744 179.45 502.335 180.723C501.003 184.881 498.434 191.772 498.434 191.772C498.434 191.772 500.01 197.25 500.443 199.084L505.138 174.672Z" fill="#D5BFF2"/>
</g>
<path d="M464.447 215.098H480.647L479.818 212.271H462.602L464.447 215.098Z" fill="#C3C6D5"/>
<path d="M479.816 212.271L474.898 210.928H464.176L464.456 212.271H479.816Z" fill="#DBDFE8"/>
<path d="M424.791 215.098L416.393 179.263H460.392L468.51 215.098H424.791Z" fill="#DBDFE8"/>
<g opacity="0.5">
<path opacity="0.5" d="M457.356 179.263C457.847 195.825 446.996 210.285 423.939 211.43L424.804 215.086H468.523L460.405 179.251H457.368L457.356 179.263Z" fill="#C3C6D5"/>
</g>
<path d="M446.223 196.047C446.223 197.986 444.156 199.563 441.598 199.563C439.04 199.563 436.973 197.986 436.973 196.047C436.973 194.108 439.04 192.531 441.598 192.531C444.156 192.531 446.223 194.108 446.223 196.047Z" fill="white"/>
<path d="M491.775 228.74H482.816L501.189 350.938H502.392L491.775 228.74Z" fill="#694329"/>
<path d="M285.293 28.2376C296.599 24.9438 307.147 30.5853 310.032 40.5018C312.239 48.0705 308.782 56.0831 301.996 60.9304L305.371 66.2916L294.801 64.4344C283.494 67.7283 272.223 63.2197 269.338 53.3032C266.441 43.3868 273.998 31.5314 285.305 28.2376H285.293Z" fill="white"/>
<path d="M170.197 90.0494L135.576 82.3755L130.939 106.752L144.594 111.938L145.843 120.394L152.361 114.881L159.719 117.673L170.197 90.0494Z" fill="white"/>
<path d="M245.908 18.6251C245.336 18.1812 244.74 17.8075 244.121 17.4804C245.184 15.4481 244.682 12.8901 242.813 11.4301C241.89 10.7059 240.792 10.3905 239.706 10.4256C238.842 7.6457 237.16 5.09942 234.695 3.16051C228.248 -1.89701 218.915 -0.764029 213.858 5.69511C212.795 7.05001 212.024 8.5334 211.498 10.0635C208.964 10.3205 206.523 11.5586 204.829 13.7311C201.523 17.9476 202.271 24.0447 206.488 27.3502C208.24 28.7284 210.33 29.3942 212.398 29.4059C212.246 32.4661 213.519 35.5497 216.112 37.5703C220.352 40.8875 226.472 40.14 229.79 35.9117C229.825 35.865 229.86 35.8066 229.895 35.7599C230.338 36.2622 230.829 36.7294 231.378 37.1615C236.494 41.1678 243.887 40.2685 247.894 35.1525C251.9 30.0366 251.001 22.6431 245.885 18.6368L245.908 18.6251Z" fill="#FEF2D0"/>
<path d="M232.723 43.4921C232.49 45.1974 230.925 46.4004 229.219 46.1668C227.514 45.9332 226.311 44.3681 226.545 42.6628C226.778 40.9574 228.343 39.7544 230.049 39.988C231.754 40.2216 232.957 41.7867 232.723 43.4921Z" fill="#FEF2D0"/>
<path d="M229.135 50.138C228.96 51.4111 227.792 52.3105 226.507 52.147C225.234 51.9717 224.334 50.8037 224.498 49.5189C224.673 48.2458 225.841 47.3464 227.126 47.5099C228.399 47.6851 229.298 48.8531 229.135 50.138Z" fill="#FEF2D0"/>
<path d="M225.201 55.1137C225.084 56.0248 224.243 56.6672 223.332 56.5387C222.421 56.4219 221.779 55.5809 221.907 54.6699C222.024 53.7588 222.865 53.1164 223.776 53.2449C224.687 53.3617 225.329 54.2027 225.201 55.1137Z" fill="#FEF2D0"/>
</svg>
