<svg width="65" height="66" viewBox="0 0 65 66" fill="none" xmlns="http://www.w3.org/2000/svg">
<path d="M56.1974 5.31691H55.2984C54.468 5.31691 53.7003 5.7602 53.2851 6.4792C52.87 7.19874 52.87 8.08485 53.2851 8.80436C53.7003 9.52388 54.468 9.96666 55.2984 9.96666H56.1974C57.2251 9.96666 58.2112 10.3753 58.9377 11.1019C59.6643 11.8285 60.0725 12.814 60.0725 13.8417V20.8863L5.57413 20.8868V13.8417C5.57413 12.814 5.98228 11.8285 6.70885 11.1019C7.43542 10.3753 8.42148 9.96664 9.4492 9.96664H10.3482C11.1786 9.96664 11.9463 9.52389 12.3614 8.80435C12.7766 8.08481 12.7766 7.1987 12.3614 6.47919C11.9463 5.76019 11.1786 5.31689 10.3482 5.31689H9.4492C7.18784 5.31689 5.01947 6.21484 3.42088 7.81395C1.82173 9.41254 0.923828 11.5809 0.923828 13.8417V57.4747C0.923828 59.7355 1.82177 61.9044 3.42088 63.503C5.01947 65.1016 7.18784 66.0001 9.4492 66.0001H56.1974C58.4588 66.0001 60.6272 65.1016 62.2258 63.503C63.8249 61.9044 64.7228 59.7355 64.7228 57.4747V13.8417C64.7228 11.5809 63.8249 9.41254 62.2258 7.81395C60.6272 6.2148 58.4588 5.31689 56.1974 5.31689L56.1974 5.31691ZM56.1974 61.3583L9.44915 61.3578C8.42146 61.3578 7.43537 60.9496 6.7088 60.2231C5.98223 59.4965 5.57407 58.5104 5.57407 57.4827V25.5288H60.0724V57.4744C60.0724 58.5021 59.6643 59.4877 58.9377 60.2148C58.2111 60.9413 57.2251 61.3495 56.1973 61.3495L56.1974 61.3583Z" fill="white"/>
<path d="M32.8248 29.2563C34.1347 29.2563 35.1965 30.5662 35.1965 31.628V45.4156C35.1965 46.7254 34.1347 47.7872 32.8248 47.7872C31.5149 47.7872 30.4531 46.4773 30.4531 45.4156V31.628C30.4531 30.3181 31.5149 29.2563 32.8248 29.2563Z" fill="white"/>
<path d="M35.5515 53.3593C35.5515 54.866 34.3303 56.0872 32.8236 56.0872C31.3169 56.0872 30.0957 54.866 30.0957 53.3593C30.0957 51.8526 31.3169 50.6309 32.8236 50.6309C34.3303 50.6309 35.5515 51.8526 35.5515 53.3593Z" fill="white"/>
<path d="M40.5753 9.96689C41.4062 9.96689 42.1734 9.52414 42.5891 8.8046C43.0043 8.08506 43.0043 7.19894 42.5891 6.47943C42.1734 5.76043 41.4063 5.31714 40.5753 5.31714H25.0752C24.2443 5.31714 23.4771 5.76043 23.0614 6.47943C22.6462 7.19897 22.6462 8.08508 23.0614 8.8046C23.4771 9.52414 24.2442 9.96689 25.0752 9.96689H40.5753Z" fill="white"/>
<path d="M20.0351 13.5625V2.32502C20.0351 1.49465 19.5918 0.726976 18.8722 0.311792C18.1532 -0.103931 17.2666 -0.103931 16.5471 0.311792C15.8281 0.726976 15.3848 1.49464 15.3848 2.32502V13.5625C15.3848 14.3934 15.8281 15.1611 16.5471 15.5763C17.2666 15.9915 18.1531 15.9915 18.8722 15.5763C19.5918 15.1611 20.0351 14.3934 20.0351 13.5625Z" fill="white"/>
<path d="M50.2616 13.5625V2.32502C50.2616 1.49465 49.8183 0.726976 49.0993 0.311792C48.3798 -0.103931 47.4933 -0.103931 46.7742 0.311792C46.0546 0.726976 45.6113 1.49464 45.6113 2.32502V13.5625C45.6113 14.3934 46.0546 15.1611 46.7742 15.5763C47.4932 15.9915 48.3798 15.9915 49.0993 15.5763C49.8183 15.1611 50.2616 14.3934 50.2616 13.5625Z" fill="white"/>
</svg>
