<svg width="25" height="24" viewBox="0 0 25 24" fill="none" xmlns="http://www.w3.org/2000/svg">
<path d="M18.3035 13.6464V17.931H15.8195L15.8195 13.9333C15.8195 12.9287 15.46 12.2436 14.5612 12.2436C13.8749 12.2436 13.4661 12.7058 13.2867 13.1523C13.2211 13.312 13.2042 13.5344 13.2042 13.7579L13.2042 17.931H10.7191C10.7191 17.931 10.7527 11.1607 10.7191 10.4587H13.2042V11.5178L13.188 11.5422H13.2042V11.5178C13.534 11.0097 14.1234 10.2833 15.4432 10.2833C17.0777 10.2833 18.3035 11.3517 18.3035 13.6464ZM8.1201 6.85693C7.27061 6.85693 6.71436 7.41435 6.71436 8.14771C6.71436 8.8648 7.25436 9.43906 8.08758 9.43906H8.10384C8.97074 9.43906 9.509 8.8648 9.509 8.14771C9.4939 7.41435 8.97132 6.85693 8.12068 6.85693H8.1201ZM6.86184 17.931H9.34584L9.34584 10.4587H6.86184L6.86184 17.931Z" fill="white"/>
<circle cx="12.7144" cy="12" r="11.5" stroke="white"/>
</svg>
