<svg width="20" height="20" viewBox="0 0 20 20" fill="none" xmlns="http://www.w3.org/2000/svg">
<path d="M11.8897 10.0892L19.4366 2.54233C19.7189 2.30059 19.8875 1.95239 19.9017 1.58096C19.916 1.20975 19.7749 0.849472 19.5122 0.586786C19.2495 0.32406 18.8893 0.182992 18.5181 0.197278C18.1466 0.211563 17.7984 0.380089 17.5567 0.662455L10.0098 8.20931L2.46297 0.662455C2.11967 0.368483 1.65091 0.26826 1.21766 0.396386C0.784176 0.524735 0.445312 0.863575 0.31697 1.29707C0.188844 1.73033 0.289068 2.19907 0.583038 2.54239L8.1299 10.0892L0.583038 17.6361C0.334598 17.8859 0.195312 18.2238 0.195312 18.576C0.195312 18.9283 0.334598 19.2662 0.583038 19.516C0.832816 19.7644 1.17075 19.9037 1.52298 19.9037C1.87521 19.9037 2.21315 19.7644 2.46292 19.516L10.0098 11.9691L17.5566 19.516C17.8064 19.7644 18.1444 19.9037 18.4966 19.9037C18.8488 19.9037 19.1868 19.7644 19.4365 19.516C19.685 19.2662 19.8242 18.9283 19.8242 18.576C19.8242 18.2238 19.685 17.8859 19.4365 17.6361L11.8897 10.0892Z" fill="white"/>
</svg>
