<svg width="575" height="356" viewBox="0 0 575 356" fill="none" xmlns="http://www.w3.org/2000/svg">
<g clip-path="url(#clip0_514_1782)">
<path d="M116.583 30.5117H18.4209V206.614H116.583V30.5117Z" fill="#B66DFF"/>
<path d="M111.649 35.6191H22.3447V201.368H111.649V35.6191Z" fill="#A757F8"/>
<path d="M111.649 37.5702L22.3447 151.018V35.6191H111.649V37.5702Z" fill="#AF5FFF"/>
<path d="M113.587 83.2964H22.3447V85.0589H113.587V83.2964Z" fill="#C082FE"/>
<path d="M113.587 122.769H22.3447V124.531H113.587V122.769Z" fill="#C082FE"/>
<path d="M113.587 162.24H22.3447V164.003H113.587V162.24Z" fill="#C082FE"/>
<path d="M64.7432 84.1821L64.7432 206.065H69.2581V84.1821H64.7432Z" fill="#C082FE"/>
<path d="M41.586 35.6191H39.542V84.1821H41.586V35.6191Z" fill="#C082FE"/>
<path d="M59.211 35.6191H57.167V84.1821H59.211V35.6191Z" fill="#C082FE"/>
<path d="M76.8428 35.6191H74.7988V84.1821H76.8428V35.6191Z" fill="#C082FE"/>
<path d="M94.4756 35.6191H92.4316V84.1821H94.4756V35.6191Z" fill="#C082FE"/>
<path d="M18.4203 27.5278H14.2666V207.704H18.4203V27.5278Z" fill="#C082FE"/>
<path d="M120.737 208.196L116.583 206.614V27.5278H120.737V208.196Z" fill="#C082FE"/>
<path d="M120.736 25.708H14.2666V30.5118H120.736V25.708Z" fill="#C082FE"/>
<path d="M123.552 208.794H11.3281V213.27H123.552V208.794Z" fill="#C082FE"/>
<path d="M116.583 206.614L123.544 208.795H11.3281L18.4206 206.614H116.583Z" fill="#9D3CFF"/>
<path d="M538.839 140.287C538.839 140.287 531.903 139.787 532.543 155.329C533.183 170.872 534.768 179.152 534.768 179.152C534.768 179.152 534.562 182.595 531.895 181.923C529.218 181.242 524.195 177.889 521.707 180.398C519.13 182.996 520.049 186.989 523.464 191.686C526.879 196.383 533.988 206.95 534.628 207.909C535.252 208.852 535.506 210.614 533.61 210.442C531.714 210.27 518.925 205.942 517.233 212.131C515.542 218.312 527.207 229.838 528.463 231.125C529.711 232.412 529.785 233.224 529.276 233.994C528.767 234.773 524.605 232.912 520.919 231.83C517.233 230.748 512.768 230.141 512.086 233.789C511.405 237.437 516.552 248.119 535.802 259.341L545.062 263.957L553.829 258.374C571.855 245.282 575.902 234.142 574.86 230.584C573.817 227.026 569.434 228.075 565.879 229.518C562.317 230.961 558.368 233.232 557.785 232.51C557.203 231.789 557.186 230.977 558.303 229.567C559.419 228.166 569.877 215.533 567.57 209.549C565.264 203.564 552.975 209.147 551.103 209.508C549.232 209.868 549.306 208.089 549.839 207.089C550.381 206.073 556.39 194.85 559.32 189.833C562.251 184.816 562.76 180.758 559.936 178.43C557.211 176.184 552.548 180.021 549.954 180.963C547.36 181.906 546.818 178.496 546.818 178.496C546.818 178.496 547.565 170.101 546.646 154.567C545.727 139.041 538.708 140.295 538.708 140.295" fill="#B469FF"/>
<path d="M539.381 154.206C539.381 154.206 539.398 154.313 539.422 154.534L539.496 155.485C539.554 156.337 539.636 157.575 539.742 159.157C539.956 162.346 540.227 166.962 540.547 172.667C541.179 184.078 541.926 199.842 542.681 217.254C543.445 234.674 544.142 250.438 544.717 261.85C545.004 267.539 545.242 272.154 545.407 275.359C545.489 276.942 545.546 278.179 545.587 279.032C545.604 279.442 545.62 279.753 545.628 279.991C545.628 280.204 545.628 280.319 545.628 280.319C545.628 280.319 545.612 280.212 545.587 279.991C545.571 279.761 545.546 279.442 545.513 279.04C545.456 278.188 545.374 276.95 545.267 275.368C545.054 272.179 544.783 267.563 544.463 261.858C543.83 250.447 543.083 234.683 542.32 217.262C541.557 199.851 540.859 184.087 540.284 172.675C539.997 166.986 539.759 162.371 539.595 159.166C539.513 157.583 539.455 156.346 539.414 155.493C539.398 155.083 539.381 154.763 539.373 154.534C539.373 154.321 539.373 154.206 539.373 154.206H539.381Z" fill="#A347FF"/>
<path d="M528.545 185.374C528.545 185.374 528.767 185.529 529.12 185.849C529.473 186.169 529.973 186.652 530.589 187.259C531.812 188.464 533.454 190.186 535.235 192.104C536.975 194.006 538.552 195.727 539.766 197.055C540.308 197.637 540.768 198.137 541.146 198.547C541.474 198.9 541.646 199.105 541.63 199.121C541.613 199.137 541.408 198.965 541.047 198.646C540.694 198.318 540.193 197.834 539.586 197.227C538.379 196.006 536.754 194.268 534.981 192.35C533.232 190.464 531.648 188.759 530.417 187.439C529.875 186.857 529.407 186.357 529.029 185.956C528.701 185.603 528.537 185.398 528.553 185.382L528.545 185.374Z" fill="#A347FF"/>
<path d="M542.542 198.818C542.476 198.752 545.858 195.211 550.102 190.907C554.346 186.603 557.852 183.177 557.917 183.242C557.983 183.308 554.601 186.849 550.357 191.153C546.113 195.448 542.608 198.883 542.542 198.818Z" fill="#A347FF"/>
<path d="M542.509 225.616C542.509 225.616 542.73 225.452 543.157 225.206C543.65 224.927 544.257 224.591 544.971 224.189C546.498 223.329 548.608 222.14 550.882 220.738C553.164 219.345 555.183 218.017 556.644 217.041L558.368 215.893C558.779 215.623 559.009 215.484 559.025 215.508C559.042 215.525 558.836 215.705 558.45 216.008C558.065 216.312 557.498 216.738 556.784 217.254C555.364 218.279 553.353 219.648 551.071 221.05C548.789 222.452 546.654 223.616 545.095 224.419C544.315 224.821 543.674 225.132 543.231 225.337C542.788 225.542 542.533 225.649 542.525 225.624L542.509 225.616Z" fill="#A347FF"/>
<path d="M527.166 216.238C527.166 216.238 527.404 216.328 527.807 216.541C528.209 216.754 528.784 217.074 529.49 217.476C530.901 218.279 532.831 219.402 534.957 220.665C537.083 221.927 538.995 223.091 540.375 223.944C541.064 224.37 541.614 224.722 542 224.968C542.377 225.214 542.583 225.362 542.566 225.386C542.55 225.411 542.328 225.296 541.926 225.083C541.524 224.87 540.949 224.55 540.243 224.149C538.831 223.345 536.902 222.222 534.768 220.96C532.642 219.697 530.729 218.533 529.35 217.681C528.66 217.254 528.11 216.902 527.725 216.656C527.339 216.41 527.142 216.254 527.158 216.238H527.166Z" fill="#A347FF"/>
<path d="M524.12 239.896C524.12 239.896 524.424 240.019 524.933 240.29C525.499 240.601 526.23 241.003 527.092 241.479C528.906 242.495 531.393 243.922 534.135 245.512C536.877 247.102 539.348 248.561 541.129 249.635C541.967 250.152 542.673 250.578 543.231 250.922C543.723 251.234 543.986 251.414 543.978 251.439C543.97 251.463 543.674 251.316 543.165 251.045C542.599 250.734 541.876 250.332 541.006 249.857C539.192 248.84 536.705 247.414 533.963 245.823C531.221 244.233 528.75 242.774 526.969 241.7C526.132 241.184 525.426 240.757 524.867 240.413C524.375 240.101 524.112 239.921 524.12 239.896Z" fill="#A347FF"/>
<path d="M543.576 251.021C543.576 251.021 543.855 250.808 544.381 250.48C544.972 250.119 545.727 249.66 546.63 249.111C548.526 247.955 551.145 246.348 553.993 244.495C556.842 242.651 559.37 240.905 561.192 239.642C562.063 239.036 562.793 238.536 563.36 238.142C563.869 237.79 564.164 237.601 564.18 237.626C564.197 237.642 563.934 237.872 563.442 238.257C562.957 238.642 562.235 239.191 561.34 239.847C559.551 241.167 557.039 242.946 554.182 244.799C551.334 246.651 548.69 248.225 546.753 249.332C545.784 249.881 544.996 250.316 544.446 250.603C543.896 250.89 543.584 251.045 543.576 251.021Z" fill="#A347FF"/>
<path d="M557.49 266.981H531.87L540.235 330.185H549.133L557.49 266.981Z" fill="#8731DD"/>
<path d="M533.2 274.753C533.2 274.753 533.225 274.843 533.34 274.974C533.446 275.105 533.652 275.286 533.955 275.417C534.563 275.679 535.63 275.704 536.664 275.089C537.699 274.515 538.602 273.4 539.989 272.908C541.36 272.384 543.067 272.482 544.701 272.999C546.351 273.507 547.787 274.343 549.084 275.122C550.39 275.892 551.58 276.589 552.655 277.032C553.722 277.499 554.642 277.712 555.29 277.794C555.611 277.835 555.865 277.852 556.037 277.843C556.21 277.843 556.3 277.843 556.3 277.819C556.316 277.737 554.847 277.745 552.787 276.761C551.752 276.286 550.587 275.581 549.298 274.794C548.009 273.999 546.54 273.13 544.84 272.605C543.158 272.064 541.343 271.966 539.866 272.548C539.127 272.827 538.511 273.269 537.994 273.704C537.469 274.138 537.001 274.54 536.525 274.835C535.589 275.442 534.604 275.466 534.029 275.269C533.438 275.064 533.249 274.72 533.217 274.753H533.2Z" fill="#A757F8"/>
<path d="M534.136 286.393C534.136 286.393 534.341 286.131 534.743 285.713C535.154 285.311 535.819 284.779 536.787 284.418C537.748 284.049 538.987 283.828 540.35 283.885C541.721 283.934 543.215 284.229 544.808 284.492C546.392 284.762 547.968 284.877 549.372 284.68C550.775 284.5 551.999 284.098 552.967 283.655C553.936 283.213 554.658 282.729 555.126 282.377C555.602 282.016 555.824 281.778 555.808 281.762C555.758 281.696 554.773 282.573 552.844 283.385C551.884 283.778 550.685 284.147 549.322 284.295C547.96 284.467 546.449 284.336 544.873 284.074C543.297 283.819 541.778 283.524 540.358 283.491C538.938 283.459 537.666 283.721 536.673 284.139C535.671 284.549 534.998 285.147 534.62 285.598C534.44 285.836 534.3 286.025 534.234 286.164C534.161 286.303 534.128 286.377 534.136 286.385V286.393Z" fill="#A757F8"/>
<path d="M554.592 292.624C554.592 292.624 554.362 292.443 553.886 292.255C553.41 292.066 552.679 291.87 551.76 291.804C550.841 291.73 549.741 291.788 548.55 291.984C547.352 292.181 546.071 292.509 544.733 292.796C543.387 293.083 542.09 293.271 540.916 293.222C539.742 293.181 538.7 292.927 537.887 292.566C536.237 291.845 535.654 290.796 535.588 290.861C535.572 290.87 535.687 291.132 536.023 291.525C536.352 291.919 536.926 292.419 537.764 292.837C538.593 293.247 539.676 293.542 540.9 293.608C542.123 293.673 543.461 293.485 544.815 293.198C546.178 292.911 547.45 292.566 548.616 292.362C549.782 292.148 550.849 292.058 551.744 292.091C553.541 292.148 554.567 292.698 554.592 292.616V292.624Z" fill="#A757F8"/>
<path d="M536.402 301.387C536.41 301.453 537.313 300.822 538.889 301.133C539.661 301.272 540.523 301.666 541.491 302.1C542.46 302.551 543.617 302.937 544.865 303.027C547.385 303.264 549.618 302.453 550.997 301.609C551.703 301.19 552.187 300.74 552.524 300.436C552.836 300.108 552.992 299.912 552.975 299.895C552.918 299.838 552.245 300.592 550.849 301.354C549.478 302.109 547.319 302.846 544.906 302.609C542.484 302.469 540.621 301.026 538.938 300.838C538.117 300.715 537.436 300.838 537.009 301.002C536.574 301.174 536.393 301.363 536.402 301.379V301.387Z" fill="#A757F8"/>
<path d="M537.83 313.519C537.83 313.569 538.692 313.56 539.964 313.093C541.253 312.667 542.846 311.675 544.709 310.937C545.645 310.585 546.581 310.363 547.434 310.371C548.288 310.371 549.043 310.585 549.626 310.872C550.8 311.454 551.145 312.29 551.211 312.232C551.227 312.232 551.178 312.019 550.964 311.691C550.759 311.372 550.365 310.954 549.766 310.609C549.167 310.265 548.362 310.011 547.443 309.986C546.523 309.962 545.53 310.183 544.57 310.552C542.64 311.322 541.097 312.331 539.866 312.823C538.651 313.347 537.83 313.454 537.838 313.519H537.83Z" fill="#A757F8"/>
<path d="M539.086 319.168C539.07 319.217 539.685 319.438 540.712 319.692C541.73 319.947 543.166 320.217 544.767 320.373C546.368 320.529 547.829 320.545 548.879 320.488C549.93 320.438 550.579 320.34 550.57 320.291C550.57 320.168 547.976 320.274 544.808 319.955C541.639 319.651 539.119 319.037 539.086 319.16V319.168Z" fill="#A757F8"/>
<path d="M542.952 37.7588H463.852V89.6992H542.952V37.7588Z" fill="#C082FE"/>
<path d="M540.161 39.8818H466.602V87.3709H540.161V39.8818Z" fill="#CE9DFF"/>
<path d="M515.378 57.1875H491.384V70.2546H515.378V57.1875Z" fill="#A757F8"/>
<path d="M565.182 331.03C565.182 331.145 438.65 331.243 282.607 331.243C126.564 331.243 0.0078125 331.145 0.0078125 331.03C0.0078125 330.915 126.507 330.817 282.607 330.817C438.707 330.817 565.182 330.915 565.182 331.03Z" fill="#263238"/>
<path d="M212.89 0H382.288V161.117C382.288 168.454 376.32 174.414 368.973 174.414H212.89V0Z" fill="#C082FE"/>
<path d="M368.3 51.9075C368.3 52.26 337.681 52.5469 299.92 52.5469C262.159 52.5469 231.54 52.26 231.54 51.9075C231.54 51.555 262.151 51.2681 299.92 51.2681C337.689 51.2681 368.3 51.555 368.3 51.9075Z" fill="#455A64"/>
<path d="M300.732 63.7205C300.732 64.073 285.603 64.3599 266.953 64.3599C248.302 64.3599 233.165 64.073 233.165 63.7205C233.165 63.368 248.286 63.0811 266.953 63.0811C285.62 63.0811 300.732 63.368 300.732 63.7205Z" fill="#455A64"/>
<path d="M327.757 62.6301C327.757 62.9826 323.751 63.2696 318.809 63.2696C313.867 63.2696 309.861 62.9826 309.861 62.6301C309.861 62.2776 313.867 61.9907 318.809 61.9907C323.751 61.9907 327.757 62.2776 327.757 62.6301Z" fill="#455A64"/>
<path d="M371.953 61.9006C371.953 62.2531 364.023 62.5401 354.238 62.5401C344.453 62.5401 336.523 62.2531 336.523 61.9006C336.523 61.5481 344.453 61.2612 354.238 61.2612C364.023 61.2612 371.953 61.5481 371.953 61.9006Z" fill="#455A64"/>
<path d="M295.093 75.033C295.093 75.3855 280.867 75.6724 263.317 75.6724C245.766 75.6724 231.54 75.3855 231.54 75.033C231.54 74.6805 245.766 74.3936 263.317 74.3936C280.867 74.3936 295.093 74.6805 295.093 75.033Z" fill="#455A64"/>
<path d="M371.953 74.7053C371.953 75.0578 356.413 75.3448 337.254 75.3448C318.094 75.3448 302.555 75.0578 302.555 74.7053C302.555 74.3528 318.086 74.0659 337.254 74.0659C356.421 74.0659 371.953 74.3528 371.953 74.7053Z" fill="#455A64"/>
<path d="M371.953 86.0838C371.953 86.4363 365.033 86.7232 356.504 86.7232C347.975 86.7232 341.055 86.4363 341.055 86.0838C341.055 85.7313 347.967 85.4443 356.504 85.4443C365.041 85.4443 371.953 85.7313 371.953 86.0838Z" fill="#455A64"/>
<path d="M308.039 39.2424C308.039 39.5949 291.277 39.8819 270.607 39.8819C249.937 39.8819 233.166 39.5949 233.166 39.2424C233.166 38.8899 249.92 38.603 270.607 38.603C291.293 38.603 308.039 38.8899 308.039 39.2424Z" fill="#E8505B"/>
<path d="M412.176 97.6914H84.2064C77.6009 97.6914 72.2461 103.039 72.2461 109.635V318.127C72.2461 324.723 77.6009 330.071 84.2064 330.071H412.176C418.782 330.071 424.137 324.723 424.137 318.127V109.635C424.137 103.039 418.782 97.6914 412.176 97.6914Z" fill="#263238"/>
<path d="M58.0287 312.888H439.274V318.635C439.274 326.685 432.732 333.227 424.662 333.227H72.6323C64.5712 333.227 58.0205 326.693 58.0205 318.635V312.888H58.0287Z" fill="#263238"/>
<path d="M414.196 106.922H82.1875V303.166H414.196V106.922Z" fill="#455A64"/>
<path d="M213.998 312.888C213.998 312.888 214.113 312.888 214.367 312.88H215.484C216.493 312.864 217.955 312.856 219.818 312.847C223.627 312.831 229.11 312.806 235.907 312.782C249.6 312.749 268.554 312.708 289.692 312.667H290.086L289.889 313.011C289.216 314.167 288.485 315.413 287.755 316.667C286.991 317.979 286.228 319.283 285.497 320.529L285.432 320.643H285.3C256.044 320.586 231.064 320.545 218.734 320.52H218.677L218.644 320.471C217.125 318.004 215.96 316.11 215.155 314.807C214.778 314.192 214.482 313.708 214.277 313.372C214.08 313.052 213.998 312.897 213.998 312.897C213.998 312.897 214.113 313.069 214.326 313.397C214.548 313.733 214.852 314.216 215.254 314.831C216.075 316.102 217.265 317.955 218.808 320.356L218.718 320.307C231.048 320.283 256.036 320.233 285.284 320.184L285.087 320.299C285.817 319.053 286.581 317.75 287.344 316.438C288.075 315.184 288.805 313.946 289.479 312.782L289.676 313.126C268.62 313.077 249.748 313.044 236.104 313.011C229.283 312.987 223.766 312.962 219.941 312.946C218.045 312.938 216.567 312.929 215.541 312.921C215.049 312.921 214.671 312.913 214.384 312.913C214.121 312.913 213.981 312.905 213.981 312.905L213.998 312.888Z" fill="#455A64"/>
<path d="M424.137 312.88C424.137 312.995 345.356 313.093 248.204 313.093C151.052 313.093 72.2549 312.995 72.2549 312.88C72.2549 312.765 151.019 312.667 248.204 312.667C345.389 312.667 424.137 312.765 424.137 312.88Z" fill="#455A64"/>
<path d="M334.332 67.7289C339.758 67.7289 344.158 72.1228 344.158 77.5415V97.6832H314.762V79.0991C314.762 72.8196 319.859 67.7207 326.156 67.7207H334.324L334.332 67.7289Z" fill="#263238"/>
<path d="M334.332 67.729C334.332 67.8438 306.602 67.9176 272.395 67.8848C238.181 67.852 210.451 67.7372 210.451 67.6143C210.451 67.4995 238.181 67.4257 272.395 67.4585C306.594 67.4913 334.332 67.6061 334.332 67.729Z" fill="#263238"/>
<path d="M334.069 67.7045L321.813 67.6226L304.008 67.7291H173.207C162.101 67.7291 153.096 76.722 153.096 87.8134V303.633H322.494V78.7386C322.987 67.7291 334.077 67.7045 334.077 67.7045H334.069Z" fill="#F2E8FC"/>
<path d="M334.069 67.7046L231.926 67.926L180.858 67.967H174.472C173.405 67.9506 172.354 68.0162 171.303 68.0653C170.261 68.2129 169.218 68.3277 168.209 68.631C164.121 69.6393 160.451 72.0904 157.783 75.3285C156.453 76.9598 155.419 78.8125 154.664 80.7635C154.5 81.2636 154.27 81.7391 154.155 82.2473L153.761 83.7721C153.605 84.805 153.4 85.8379 153.392 86.8954C153.301 91.1172 153.375 95.3882 153.35 99.6346L153.49 303.633L153.08 303.224L322.478 303.33L322.183 303.625L322.265 182.3L322.363 121.637L322.421 91.3057L322.437 83.7229V79.9356C322.445 79.3043 322.429 78.6731 322.527 78.0419C322.61 77.4107 322.634 76.7795 322.823 76.1728C323.381 73.7135 324.793 71.4018 326.927 70C327.962 69.2704 329.119 68.7212 330.334 68.3605C331.541 67.9916 332.797 67.7538 334.061 67.7128L334.069 67.7046ZM334.069 67.7046C332.805 67.7456 331.549 67.9916 330.342 68.3687C329.136 68.7376 327.978 69.295 326.952 70.0246C324.834 71.4346 323.439 73.7381 322.889 76.1892C322.7 76.7959 322.675 77.4271 322.601 78.0501C322.503 78.6731 322.527 79.3043 322.527 79.9438V83.7393L322.552 91.3221L322.61 121.653L322.708 182.316L322.79 303.642V303.937H322.495L153.096 304.043H152.686V303.633L152.825 99.6346C152.85 95.38 152.784 91.1418 152.883 86.8708C152.891 85.7887 153.096 84.7312 153.26 83.6655L153.662 82.0997C153.786 81.5751 154.015 81.0832 154.188 80.575C154.968 78.5748 156.027 76.6729 157.397 75.0006C160.139 71.6887 163.899 69.1802 168.094 68.1555C169.128 67.844 170.203 67.7292 171.27 67.5817C172.346 67.5243 173.421 67.4669 174.48 67.4833H180.867L231.934 67.5243L334.077 67.6965L334.069 67.7046Z" fill="#263238"/>
<path d="M178.617 106.561H208.177L208.227 116.448H206.815C206.347 112.906 205.025 110.521 202.833 109.267C201.602 108.578 199.763 108.201 197.317 108.135V133.966C197.317 135.77 197.629 136.967 198.261 137.557C198.893 138.147 200.206 138.442 202.201 138.442V139.688H184.7V138.442C186.621 138.442 187.893 138.139 188.525 137.54C189.157 136.942 189.469 135.745 189.469 133.958V108.127C187.072 108.193 185.233 108.57 183.953 109.258C181.605 110.537 180.275 112.931 179.972 116.44H178.56L178.609 106.553L178.617 106.561Z" fill="#E8505B"/>
<path d="M299.247 108.791C299.247 109.144 282.944 109.431 262.832 109.431C242.72 109.431 226.409 109.144 226.409 108.791C226.409 108.439 242.712 108.152 262.832 108.152C282.952 108.152 299.247 108.439 299.247 108.791Z" fill="#E8505B"/>
<path d="M256.035 120.415C256.035 120.768 249.731 121.055 241.957 121.055C234.183 121.055 227.879 120.768 227.879 120.415C227.879 120.063 234.183 119.776 241.957 119.776C249.731 119.776 256.035 120.063 256.035 120.415Z" fill="#455A64"/>
<path d="M220.54 155.862C220.54 156.215 208.563 156.501 193.803 156.501C179.044 156.501 167.059 156.215 167.059 155.862C167.059 155.51 179.027 155.223 193.803 155.223C208.579 155.223 220.54 155.51 220.54 155.862Z" fill="#455A64"/>
<path d="M281.105 155.862C281.105 156.215 269.128 156.501 254.369 156.501C239.609 156.501 227.624 156.215 227.624 155.862C227.624 155.51 239.593 155.223 254.369 155.223C269.145 155.223 281.105 155.51 281.105 155.862Z" fill="#E8505B"/>
<path d="M220.54 165.33C220.54 165.683 208.563 165.97 193.803 165.97C179.044 165.97 167.059 165.683 167.059 165.33C167.059 164.978 179.027 164.691 193.803 164.691C208.579 164.691 220.54 164.978 220.54 165.33Z" fill="#455A64"/>
<path d="M220.54 174.799C220.54 175.151 208.563 175.438 193.803 175.438C179.044 175.438 167.059 175.151 167.059 174.799C167.059 174.446 179.027 174.159 193.803 174.159C208.579 174.159 220.54 174.446 220.54 174.799Z" fill="#E8505B"/>
<path d="M256.035 139.697C256.035 140.049 249.731 140.336 241.957 140.336C234.183 140.336 227.879 140.049 227.879 139.697C227.879 139.344 234.183 139.057 241.957 139.057C249.731 139.057 256.035 139.344 256.035 139.697Z" fill="#455A64"/>
<path d="M304.878 155.862C304.878 156.215 300.675 156.501 295.495 156.501C290.316 156.501 286.104 156.215 286.104 155.862C286.104 155.51 290.307 155.223 295.495 155.223C300.683 155.223 304.878 155.51 304.878 155.862Z" fill="#455A64"/>
<path d="M309.902 120.415C309.902 120.768 299.082 121.055 285.743 121.055C272.403 121.055 261.584 120.768 261.584 120.415C261.584 120.063 272.403 119.776 285.743 119.776C299.082 119.776 309.902 120.063 309.902 120.415Z" fill="#455A64"/>
<path d="M307.718 129.646C307.718 129.998 289.839 130.285 267.798 130.285C245.757 130.285 227.87 129.998 227.87 129.646C227.87 129.293 245.741 129.006 267.798 129.006C289.855 129.006 307.718 129.293 307.718 129.646Z" fill="#455A64"/>
<path d="M304.878 165.33C304.878 165.683 287.582 165.97 266.255 165.97C244.928 165.97 227.624 165.683 227.624 165.33C227.624 164.978 244.912 164.691 266.255 164.691C287.598 164.691 304.878 164.978 304.878 165.33Z" fill="#455A64"/>
<path d="M304.878 192.735C304.878 193.088 288.649 193.375 268.636 193.375C248.623 193.375 232.386 193.088 232.386 192.735C232.386 192.383 248.615 192.096 268.636 192.096C288.658 192.096 304.878 192.383 304.878 192.735Z" fill="#E8505B"/>
<path d="M304.878 201.949C304.878 202.302 288.649 202.589 268.636 202.589C248.623 202.589 232.386 202.302 232.386 201.949C232.386 201.597 248.615 201.31 268.636 201.31C288.658 201.31 304.878 201.597 304.878 201.949Z" fill="#455A64"/>
<path d="M304.878 211.163C304.878 211.516 288.649 211.803 268.636 211.803C248.623 211.803 232.386 211.516 232.386 211.163C232.386 210.811 248.615 210.524 268.636 210.524C288.658 210.524 304.878 210.811 304.878 211.163Z" fill="#455A64"/>
<path d="M304.878 220.378C304.878 220.73 288.649 221.017 268.636 221.017C248.623 221.017 232.386 220.73 232.386 220.378C232.386 220.025 248.615 219.738 268.636 219.738C288.658 219.738 304.878 220.025 304.878 220.378Z" fill="#455A64"/>
<path d="M274.12 229.592C274.12 229.772 271.78 229.928 268.004 230.043C264.228 230.158 259.015 230.231 253.253 230.231C247.49 230.231 242.269 230.158 238.493 230.043C234.717 229.928 232.386 229.764 232.386 229.592C232.386 229.42 234.717 229.256 238.493 229.141C242.269 229.026 247.49 228.953 253.253 228.953C259.015 228.953 264.228 229.026 268.004 229.141C271.78 229.256 274.12 229.42 274.12 229.592Z" fill="#455A64"/>
<path d="M291.743 175.291C291.743 175.643 277.764 175.93 260.525 175.93C243.286 175.93 229.307 175.643 229.307 175.291C229.307 174.938 243.286 174.651 260.525 174.651C277.764 174.651 291.743 174.938 291.743 175.291Z" fill="#455A64"/>
<path d="M219.276 193.776L223.126 264.899L153.482 273.605L153.433 193.178L219.276 193.776Z" fill="#E0E0E0"/>
<path d="M129.116 188.85L128.628 264.3L223.127 264.909L223.615 189.459L129.116 188.85Z" fill="#C7B4DB"/>
<path d="M132.336 193.626L131.909 259.575L219.767 260.141L220.194 194.192L132.336 193.626Z" fill="#E8505B"/>
<g opacity="0.2">
<path opacity="0.2" d="M131.908 259.563L162.864 218.771L181.703 244.536L194.69 230.912L219.768 260.128L131.908 259.563Z" fill="black"/>
</g>
<g opacity="0.2">
<path opacity="0.2" d="M189.97 213.918C189.945 217.73 186.826 220.804 183.009 220.779C179.192 220.754 176.113 217.639 176.138 213.827C176.162 210.015 179.282 206.941 183.099 206.966C186.916 206.991 189.994 210.106 189.97 213.918Z" fill="black"/>
</g>
<path d="M232.221 282.705C232.221 283.508 231.564 284.164 230.76 284.164C229.956 284.164 229.299 283.508 229.299 282.705C229.299 281.901 229.956 281.246 230.76 281.246C231.564 281.246 232.221 281.901 232.221 282.705Z" fill="#263238"/>
<path d="M240.898 282.705C240.898 283.508 240.241 284.164 239.437 284.164C238.632 284.164 237.976 283.508 237.976 282.705C237.976 281.901 238.632 281.246 239.437 281.246C240.241 281.246 240.898 281.901 240.898 282.705Z" fill="#263238"/>
<path d="M249.567 282.705C249.567 283.508 248.91 284.164 248.106 284.164C247.301 284.164 246.645 283.508 246.645 282.705C246.645 281.901 247.301 281.246 248.106 281.246C248.91 281.246 249.567 281.901 249.567 282.705Z" fill="#263238"/>
<path d="M281.507 248.791C281.507 249.143 269.531 249.43 254.771 249.43C240.011 249.43 228.026 249.143 228.026 248.791C228.026 248.438 239.995 248.151 254.771 248.151C269.547 248.151 281.507 248.438 281.507 248.791Z" fill="#E8505B"/>
<path d="M305.28 258.259C305.28 258.612 287.984 258.898 266.657 258.898C245.331 258.898 228.026 258.612 228.026 258.259C228.026 257.907 245.314 257.62 266.657 257.62C288.001 257.62 305.28 257.907 305.28 258.259Z" fill="#455A64"/>
<path d="M475.265 274.039L474.971 319.486L531.89 319.853L532.184 274.406L475.265 274.039Z" fill="#F5F5F5"/>
<path d="M477.216 276.921L476.959 316.646L529.881 316.987L530.137 277.262L477.216 276.921Z" fill="#E8505B"/>
<path opacity="0.2" d="M476.937 316.627L495.579 292.059L506.932 307.577L514.755 299.371L529.859 316.971L476.937 316.627Z" fill="black"/>
<g opacity="0.2">
<path opacity="0.2" d="M511.914 289.14C511.898 291.436 510.018 293.288 507.719 293.272C505.421 293.256 503.566 291.378 503.582 289.083C503.599 286.788 505.478 284.935 507.777 284.951C510.075 284.968 511.931 286.845 511.914 289.14Z" fill="black"/>
</g>
<path d="M466.92 269.294L466.626 314.741L523.545 315.108L523.839 269.661L466.92 269.294Z" fill="#F5F5F5"/>
<path d="M468.863 272.168L468.606 311.894L521.528 312.235L521.785 272.51L468.863 272.168Z" fill="#E8505B"/>
<path opacity="0.2" d="M468.588 311.889L487.23 287.312L498.583 302.83L506.406 294.624L521.511 312.225L468.588 311.889Z" fill="black"/>
<g opacity="0.2">
<path opacity="0.2" d="M503.566 284.394C503.549 286.689 501.669 288.542 499.371 288.525C497.072 288.509 495.217 286.632 495.234 284.336C495.25 282.041 497.13 280.188 499.428 280.205C501.727 280.221 503.582 282.098 503.566 284.394Z" fill="black"/>
</g>
<path d="M459.484 265.375L459.19 310.822L516.11 311.189L516.404 265.742L459.484 265.375Z" fill="#F5F5F5"/>
<path d="M461.428 268.249L461.171 307.974L514.093 308.315L514.349 268.59L461.428 268.249Z" fill="#E8505B"/>
<path opacity="0.2" d="M461.159 307.962L479.802 283.394L491.154 298.912L498.969 290.706L514.082 308.306L461.159 307.962Z" fill="black"/>
<g opacity="0.2">
<path opacity="0.2" d="M496.129 280.467C496.113 282.762 494.233 284.615 491.934 284.599C489.636 284.582 487.781 282.705 487.797 280.41C487.813 278.114 489.693 276.262 491.992 276.278C494.29 276.294 496.145 278.172 496.129 280.467Z" fill="black"/>
</g>
<path d="M451.131 270.259L450.837 315.706L507.756 316.073L508.05 270.626L451.131 270.259Z" fill="#F5F5F5"/>
<path d="M453.082 273.125L452.825 312.85L505.747 313.191L506.004 273.466L453.082 273.125Z" fill="#455A64"/>
<path opacity="0.2" d="M452.811 312.848L471.453 288.271L482.806 303.789L490.621 295.583L505.733 313.184L452.811 312.848Z" fill="black"/>
<g opacity="0.2">
<path opacity="0.2" d="M487.78 285.353C487.764 287.648 485.884 289.501 483.586 289.484C481.287 289.468 479.432 287.591 479.448 285.295C479.465 283 481.345 281.147 483.643 281.164C485.942 281.18 487.797 283.057 487.78 285.353Z" fill="black"/>
</g>
<path d="M540.9 287.148H508.04V331.03H540.9V287.148Z" fill="#263238"/>
<path d="M445.103 287.148V331.03H510.831V287.148H445.103ZM484.957 297.534H470.985C469.319 297.534 467.964 296.182 467.964 294.518C467.964 292.854 469.319 291.501 470.985 291.501H484.957C486.623 291.501 487.978 292.854 487.978 294.518C487.978 296.182 486.623 297.534 484.957 297.534Z" fill="#E8505B"/>
<path d="M402.482 326.439L341.359 322.701C340.973 321.824 340.719 321.316 340.719 321.316L324.153 321.644L318.76 321.316C318.76 321.316 318.678 321.48 318.546 321.759L262.939 322.865C251.849 322.865 240.201 329.62 240.201 338.252C240.061 346.466 244.043 355.385 253.975 355.18L329.735 354.926L405.495 355.18C415.428 355.385 418.055 349.401 418.071 342.302C419.229 329.087 410.938 326.546 402.474 326.439H402.482Z" fill="#455A64"/>
<path d="M260.937 355.189C260.937 355.189 261.06 355.172 261.298 355.164C261.561 355.164 261.914 355.156 262.365 355.148C263.326 355.14 264.713 355.123 266.494 355.107C270.098 355.09 275.302 355.066 281.738 355.041C294.667 355.025 312.579 355 332.609 354.976L332.395 355.205C332.289 353.549 332.182 351.77 332.067 349.983C331.837 346.319 331.615 342.72 331.402 339.302L331.591 339.498C312.981 337.433 296.539 335.604 284.726 334.293C278.849 333.621 274.12 333.08 270.837 332.703C269.22 332.506 267.972 332.358 267.094 332.252C266.683 332.194 266.363 332.153 266.125 332.129C265.903 332.096 265.797 332.079 265.797 332.071C265.797 332.071 265.912 332.071 266.125 332.088C266.363 332.112 266.683 332.137 267.094 332.178C267.972 332.268 269.228 332.391 270.845 332.555C274.129 332.899 278.857 333.399 284.743 334.014C296.555 335.293 313.006 337.072 331.624 339.08L331.804 339.097V339.277C332.034 342.704 332.256 346.302 332.486 349.959C332.601 351.746 332.707 353.525 332.814 355.181L332.83 355.41H332.601C312.563 355.385 294.651 355.361 281.73 355.344C275.286 355.32 270.09 355.295 266.486 355.279C264.705 355.262 263.318 355.246 262.357 355.238C261.897 355.23 261.544 355.222 261.29 355.222C261.052 355.222 260.929 355.197 260.929 355.197L260.937 355.189Z" fill="#263238"/>
<path d="M276.558 333.481C276.509 333.539 275.754 332.924 274.416 332.112C273.086 331.301 271.14 330.333 268.85 329.669C266.56 329.014 264.401 328.8 262.833 328.784C261.273 328.768 260.296 328.882 260.288 328.809C260.288 328.776 260.526 328.727 260.961 328.653C261.396 328.571 262.037 328.514 262.833 328.481C264.417 328.415 266.634 328.587 268.965 329.259C271.296 329.932 273.266 330.965 274.572 331.858C275.228 332.301 275.737 332.694 276.066 332.989C276.394 333.285 276.575 333.457 276.55 333.481H276.558Z" fill="#263238"/>
<path d="M397.738 330.235C397.763 330.35 385.712 333.26 370.813 336.736C355.914 340.212 343.814 342.933 343.789 342.818C343.764 342.704 355.815 339.793 370.714 336.318C385.605 332.842 397.705 330.12 397.738 330.235Z" fill="#263238"/>
<path d="M387.543 329.063C387.584 329.194 385.211 329.67 382.822 331.325C380.409 332.949 379.096 334.973 378.981 334.883C378.94 334.859 379.202 334.318 379.802 333.547C380.393 332.776 381.345 331.809 382.576 330.973C383.808 330.137 385.063 329.612 385.999 329.342C386.935 329.071 387.534 329.022 387.543 329.071V329.063Z" fill="#263238"/>
<path d="M364.796 259.759L384.152 293.411C386.541 297.567 386.689 302.641 384.546 306.929C382.059 311.905 376.904 314.987 371.338 314.831L341.614 313.995L340.834 303.199L367.012 298.19L349.363 267.678L364.804 259.759H364.796Z" fill="#FFBE9D"/>
<path d="M292.639 317.356L319.975 324.587L320.566 316.397L295.373 301.789L313.769 267.687L298.328 259.768L278.972 293.419C274.284 302.109 278.66 312.921 288.083 315.913L292.639 317.356Z" fill="#FFBE9D"/>
<path d="M356.578 281.369L375.262 271.54C375.262 271.54 372.151 264.965 367.258 258.21C361.471 250.217 352.499 244.627 342.303 242.503L320.812 242.758C317.75 243.085 315.238 243.667 313.145 244.52L313.162 244.438C301.497 247.004 288.56 272.408 288.56 272.408L305.56 281.344L305.938 284.016C306.43 287.533 307.974 290.837 310.371 293.534L305.421 326.054L360.601 327.193L353.574 303.904L356.578 281.369Z" fill="#E8505B"/>
<path d="M310.863 293.714C310.863 293.714 310.543 293.526 310.042 293.091C309.541 292.657 308.86 291.968 308.162 290.993C306.775 289.066 305.536 285.804 305.864 282.123C306.127 280.311 306.644 278.664 307.128 277.18C307.621 275.696 308.121 274.384 308.565 273.286C309 272.187 309.377 271.31 309.656 270.712C309.927 270.113 310.1 269.785 310.124 269.802C310.149 269.81 310.034 270.163 309.804 270.777C309.55 271.474 309.23 272.351 308.844 273.392C308.441 274.499 307.974 275.819 307.506 277.303C307.046 278.778 306.545 280.426 306.291 282.18C306.127 283.918 306.356 285.648 306.759 287.115C307.153 288.599 307.793 289.845 308.425 290.829C309.73 292.772 310.945 293.641 310.871 293.714H310.863Z" fill="#263238"/>
<path d="M302.597 333.908L299.478 297.641H366.7L362.243 334.358L302.597 333.908Z" fill="#263238"/>
<path d="M337.37 316.98C337.37 319.34 335.457 321.25 333.093 321.25C330.729 321.25 328.816 319.34 328.816 316.98C328.816 314.619 330.729 312.708 333.093 312.708C335.457 312.708 337.37 314.619 337.37 316.98Z" fill="#FAFAFA"/>
<path d="M331.91 340.999L343.32 342.589V354.976L332.83 354.705L331.91 340.999Z" fill="#FFBE9D"/>
<path d="M343.321 342.589H348.451C349.453 342.589 350.43 342.851 351.292 343.351L354 344.909C354.887 345.417 357.752 346.852 358.729 347.163C361.848 348.163 367.094 349.508 368.202 350.36C371.354 352.795 370.402 355.664 368.662 355.967C367.135 356.23 343.312 354.976 343.312 354.976V342.589H343.321Z" fill="#E8505B"/>
<path d="M351.752 353.951C351.645 353.976 351.251 352.549 351.201 350.729C351.144 348.909 351.448 347.467 351.563 347.483C351.686 347.499 351.571 348.942 351.628 350.721C351.678 352.492 351.875 353.926 351.752 353.951Z" fill="#263238"/>
<path d="M354.189 353.885C354.074 353.885 353.984 352.557 354 350.926C354.016 349.294 354.123 347.966 354.238 347.975C354.353 347.975 354.443 349.303 354.427 350.934C354.41 352.565 354.304 353.885 354.189 353.885Z" fill="#263238"/>
<path d="M357.062 354.369C356.948 354.377 356.742 353.025 356.611 351.336C356.48 349.655 356.471 348.278 356.586 348.27C356.701 348.262 356.906 349.614 357.038 351.303C357.169 352.984 357.177 354.361 357.062 354.369Z" fill="#263238"/>
<path d="M349.534 350.655C349.534 350.655 349.14 350.598 348.484 350.327C347.827 350.049 346.899 349.573 345.923 348.745C345.676 348.54 345.43 348.311 345.192 348.057C344.954 347.802 344.691 347.515 344.535 347.13C344.379 346.745 344.379 346.245 344.675 345.86C344.823 345.663 345.069 345.54 345.315 345.507C345.561 345.474 345.791 345.515 346.005 345.589C347.671 346.155 349.099 347.786 349.362 349.794C349.617 351.827 348.525 353.713 347.08 354.664C346.719 354.902 346.341 355.115 345.906 355.189C345.693 355.229 345.463 355.229 345.233 355.156C345.003 355.082 344.814 354.91 344.716 354.697C344.519 354.246 344.691 353.828 344.864 353.516C345.044 353.188 345.299 352.951 345.52 352.721C346.448 351.827 347.384 351.336 348.04 351.073C348.705 350.811 349.099 350.754 349.099 350.77C349.108 350.803 348.738 350.918 348.106 351.221C347.482 351.524 346.596 352.041 345.734 352.934C345.52 353.164 345.299 353.393 345.151 353.672C345.003 353.942 344.905 354.287 345.028 354.533C345.151 354.795 345.479 354.885 345.832 354.803C346.177 354.738 346.522 354.541 346.858 354.32C348.172 353.434 349.165 351.672 348.935 349.827C348.705 347.991 347.376 346.466 345.89 345.942C345.529 345.819 345.159 345.835 344.97 346.073C344.773 346.31 344.749 346.687 344.864 346.983C345.118 347.597 345.685 348.073 346.12 348.491C347.999 350.147 349.584 350.549 349.534 350.631V350.655Z" fill="#263238"/>
<path d="M368.67 355.967C368.67 355.967 369.006 355.762 369.293 355.188C369.581 354.623 369.523 353.606 368.957 352.606C368.399 351.598 367.241 350.729 365.788 350.221C364.335 349.696 362.603 349.45 360.863 348.901C357.358 347.86 354.394 346.327 352.383 345.04C351.373 344.4 350.602 343.827 350.076 343.417C349.559 342.999 349.28 342.753 349.297 342.728C349.313 342.703 349.625 342.908 350.175 343.277C350.725 343.646 351.529 344.179 352.547 344.777C354.583 345.983 357.53 347.45 360.986 348.483C362.702 349.016 364.417 349.278 365.928 349.835C367.43 350.385 368.653 351.336 369.228 352.442C369.802 353.524 369.819 354.639 369.449 355.246C369.277 355.549 369.064 355.73 368.924 355.828C368.776 355.926 368.686 355.959 368.678 355.951L368.67 355.967Z" fill="#263238"/>
<path d="M360.896 251.414C360.896 251.414 360.896 251.472 360.896 251.586L360.855 252.095C360.814 252.57 360.748 253.234 360.674 254.079C360.493 255.841 360.247 258.358 359.927 261.522L359.911 261.711L359.738 261.62C356.988 260.178 353.631 258.407 349.83 256.415L350.068 256.349C348.435 259.104 346.62 262.161 344.683 265.416L344.568 265.613L344.388 265.473C341.556 263.301 338.494 260.965 335.325 258.53H335.588C334.332 259.514 332.994 260.563 331.639 261.62C329.809 263.047 328.011 264.457 326.254 265.826L326.057 265.982L325.934 265.76C324.144 262.457 322.429 259.284 320.803 256.292L321.058 256.382C317.109 258.136 313.456 259.768 310.181 261.219L309.984 261.309L309.951 261.096C309.319 257.374 308.769 254.136 308.31 251.439L308.474 251.529C305.822 252.537 303.721 253.341 302.251 253.898C301.545 254.161 300.995 254.365 300.593 254.513C300.421 254.57 300.281 254.62 300.166 254.661C300.068 254.693 300.019 254.71 300.019 254.702C300.019 254.693 300.06 254.669 300.158 254.628L300.577 254.447C300.971 254.284 301.513 254.062 302.21 253.775C303.671 253.193 305.765 252.349 308.392 251.3L308.531 251.242L308.556 251.39C309.04 254.087 309.623 257.317 310.288 261.03L310.05 260.907C313.309 259.432 316.953 257.792 320.902 256.013L321.066 255.939L321.156 256.103C322.782 259.096 324.514 262.268 326.303 265.564L325.983 265.498C327.74 264.121 329.538 262.719 331.36 261.284C332.715 260.227 334.053 259.178 335.309 258.194L335.44 258.095L335.571 258.194C338.74 260.629 341.794 262.981 344.617 265.154L344.322 265.211C346.267 261.965 348.098 258.915 349.748 256.169L349.838 256.021L349.986 256.103C353.77 258.128 357.111 259.923 359.853 261.391L359.664 261.489C360.034 258.333 360.329 255.816 360.534 254.062C360.641 253.226 360.723 252.562 360.781 252.087C360.814 251.882 360.838 251.718 360.855 251.578C360.871 251.464 360.887 251.406 360.887 251.406L360.896 251.414Z" fill="#F5F5F5"/>
<path d="M368.875 260.538C368.875 260.538 368.867 260.62 368.826 260.776C368.785 260.956 368.727 261.186 368.653 261.473C368.489 262.104 368.251 263.006 367.948 264.153C367.315 266.514 366.396 269.9 365.255 274.13L365.214 274.294L365.058 274.22C361.766 272.638 357.842 270.761 353.475 268.67L353.705 268.613C350.75 272.827 347.458 277.507 343.953 282.508L343.813 282.713L343.641 282.533C340.661 279.516 337.509 276.327 334.266 273.048C333.61 272.376 332.953 271.712 332.296 271.056L332.559 271.089C328.167 273.843 323.923 276.499 319.925 278.999L319.745 279.114L319.638 278.926C317.2 274.622 314.91 270.589 312.825 266.916L313.038 266.998C308.047 268.711 303.655 270.228 300.052 271.466L299.929 271.507L299.888 271.384C298.656 267.818 297.679 264.998 297.006 263.039C296.686 262.088 296.44 261.35 296.259 260.817C296.185 260.579 296.12 260.391 296.079 260.243C296.038 260.112 296.021 260.046 296.029 260.046C296.029 260.046 296.062 260.104 296.111 260.235C296.169 260.382 296.243 260.563 296.325 260.801C296.514 261.325 296.785 262.055 297.138 262.998C297.844 264.949 298.853 267.76 300.134 271.302L299.97 271.22C303.565 269.957 307.941 268.416 312.923 266.662L313.063 266.613L313.137 266.744C315.238 270.416 317.537 274.433 319.991 278.729L319.704 278.655C323.702 276.147 327.937 273.482 332.329 270.728L332.477 270.638L332.6 270.761C333.249 271.417 333.905 272.089 334.57 272.753C337.813 276.04 340.957 279.229 343.936 282.246L343.616 282.27C347.138 277.286 350.446 272.613 353.418 268.408L353.508 268.285L353.648 268.351C357.998 270.466 361.906 272.376 365.189 273.974L364.992 274.064C366.183 269.851 367.143 266.473 367.808 264.121L368.58 261.456C368.67 261.169 368.736 260.948 368.793 260.768C368.842 260.612 368.867 260.538 368.875 260.538Z" fill="#F5F5F5"/>
<path d="M360.593 203.351C357.31 203.72 353.895 202.638 351.416 200.458C354.404 201.966 358.393 199.9 359.444 196.72C360.495 193.547 359.633 187.637 357.022 185.538C354.535 183.546 351.095 182.784 348.017 183.603C344.939 184.423 341.68 189.104 340.67 192.121L340.728 192.211C340.251 192.022 339.775 191.85 339.299 191.686C335.893 190.547 332.248 189.989 328.677 190.399C325.106 190.809 321.609 192.227 318.966 194.67L339.841 228.174C343.634 227.838 346.991 225.288 348.978 222.042C350.964 218.804 351.727 214.943 351.916 211.147C351.966 210.197 351.957 209.229 351.916 208.27C354.157 208.631 356.39 208.991 358.631 209.344C357.433 207.737 355.906 206.368 354.166 205.36C356.431 206.221 359.239 205.343 360.601 203.335L360.593 203.351Z" fill="#263238"/>
<path d="M334.209 255.349C339.873 255.226 344.413 250.644 344.479 244.987L344.963 203.302C344.996 201.581 343.707 200.121 341.991 199.941L324.359 195.49C318.711 194.891 314.959 201.835 314.598 207.491C314.204 213.779 313.966 221.468 314.713 226.157C316.215 235.593 323.456 236.79 323.456 236.79C323.456 236.765 323.456 240.438 323.48 244.914C323.505 250.775 328.34 255.472 334.201 255.341L334.209 255.349Z" fill="#FFBE9D"/>
<path d="M318.267 213.598C318.243 214.238 318.768 214.787 319.433 214.82C320.098 214.852 320.656 214.369 320.681 213.729C320.705 213.09 320.18 212.541 319.515 212.508C318.85 212.475 318.284 212.959 318.267 213.598Z" fill="#263238"/>
<path d="M316.281 211.5C316.429 211.656 317.348 210.983 318.654 210.983C319.959 210.967 320.911 211.639 321.051 211.475C321.116 211.401 320.969 211.123 320.55 210.819C320.139 210.516 319.442 210.221 318.629 210.229C317.816 210.229 317.135 210.532 316.741 210.836C316.339 211.139 316.207 211.426 316.281 211.5Z" fill="#263238"/>
<path d="M330.672 213.599C330.647 214.238 331.172 214.787 331.837 214.82C332.502 214.853 333.061 214.369 333.085 213.73C333.11 213.09 332.584 212.541 331.919 212.508C331.255 212.476 330.696 212.959 330.672 213.599Z" fill="#263238"/>
<path d="M329.087 211.738C329.235 211.893 330.154 211.221 331.459 211.221C332.765 211.205 333.717 211.877 333.856 211.713C333.922 211.639 333.774 211.36 333.356 211.057C332.945 210.754 332.247 210.459 331.435 210.467C330.622 210.467 329.941 210.77 329.547 211.074C329.144 211.377 329.013 211.664 329.087 211.738Z" fill="#263238"/>
<path d="M324.359 221.395C324.359 221.321 323.554 221.181 322.241 221.009C321.904 220.977 321.592 220.911 321.535 220.681C321.453 220.444 321.592 220.083 321.756 219.698C322.068 218.894 322.397 218.05 322.742 217.165C324.112 213.558 325.097 210.598 324.95 210.541C324.802 210.483 323.579 213.361 322.208 216.968C321.88 217.853 321.568 218.706 321.264 219.517C321.141 219.894 320.919 220.321 321.092 220.821C321.182 221.067 321.428 221.247 321.642 221.304C321.855 221.37 322.044 221.37 322.208 221.386C323.53 221.46 324.35 221.46 324.35 221.386L324.359 221.395Z" fill="#263238"/>
<path d="M323.464 236.798C323.464 236.798 329.818 237.208 336.114 233.429C336.114 233.429 333.044 239.905 323.595 239.028L323.464 236.798Z" fill="#EB996E"/>
<path d="M324.908 224.534C325.376 223.911 326.197 223.575 327.018 223.665C327.585 223.723 328.159 224.001 328.496 224.461C328.84 224.92 328.914 225.575 328.602 226.01C328.249 226.502 327.519 226.616 326.895 226.444C326.271 226.264 325.738 225.862 325.229 225.452C325.089 225.338 324.941 225.223 324.859 225.067C324.769 224.911 324.752 224.715 324.859 224.583" fill="#EB996E"/>
<path d="M328.2 222.296C327.987 222.288 327.987 223.698 326.772 224.698C325.565 225.706 324.055 225.542 324.046 225.739C324.03 225.829 324.383 226.009 325.015 226.034C325.639 226.059 326.55 225.854 327.289 225.239C328.028 224.624 328.348 223.804 328.397 223.222C328.455 222.632 328.29 222.28 328.2 222.288V222.296Z" fill="#263238"/>
<path d="M328.504 209.459C328.636 209.811 329.933 209.647 331.459 209.828C332.995 209.983 334.226 210.426 334.431 210.114C334.521 209.959 334.308 209.631 333.807 209.287C333.315 208.942 332.527 208.622 331.607 208.516C330.688 208.418 329.851 208.565 329.292 208.786C328.734 209.016 328.447 209.286 328.504 209.459Z" fill="#263238"/>
<path d="M316.461 209.098C316.691 209.393 317.586 209.09 318.669 209.073C319.745 209.024 320.664 209.27 320.878 208.967C320.968 208.819 320.828 208.524 320.426 208.237C320.032 207.958 319.375 207.729 318.628 207.753C317.89 207.778 317.241 208.048 316.872 208.352C316.494 208.655 316.363 208.958 316.469 209.106L316.461 209.098Z" fill="#263238"/>
<path d="M343.92 215.025C344.634 214.533 345.636 214.713 346.391 215.148C348.123 216.148 348.993 218.443 348.345 220.337C347.704 222.231 345.619 223.526 343.633 223.264" fill="#FFBE9D"/>
<path d="M344.586 220.46C344.61 220.394 344.955 220.542 345.407 220.329C345.858 220.148 346.26 219.484 346.219 218.714C346.195 217.935 345.686 217.369 345.21 217.197C344.733 217.001 344.389 217.099 344.372 217.025C344.339 216.976 344.692 216.73 345.316 216.869C345.62 216.943 345.965 217.115 346.236 217.443C346.507 217.763 346.679 218.214 346.704 218.681C346.769 219.632 346.17 220.493 345.521 220.64C344.881 220.812 344.528 220.485 344.577 220.444L344.586 220.46Z" fill="#EB996E"/>
<path d="M347.163 222.37C347.163 222.37 347.327 222.46 347.598 222.673C347.91 222.927 348.296 223.247 348.755 223.616C349.798 224.501 351.185 225.682 352.835 227.075L352.975 227.19L352.86 227.33C351.341 229.149 349.65 231.428 347.754 233.806C347.327 234.347 346.892 234.871 346.473 235.363L346.12 235.773L346.096 235.232C345.923 231.396 345.792 227.994 345.718 225.551C345.693 224.387 345.669 223.428 345.652 222.673C345.652 222.001 345.652 221.624 345.677 221.624C345.702 221.624 345.751 221.993 345.8 222.665C345.849 223.411 345.915 224.378 345.997 225.534C346.145 227.969 346.334 231.371 346.514 235.208L346.145 235.076C346.547 234.585 346.982 234.06 347.409 233.527C349.305 231.158 351.013 228.887 352.572 227.084L352.597 227.338L348.616 223.764C348.181 223.362 347.819 223.026 347.524 222.747C347.278 222.509 347.146 222.37 347.163 222.362V222.37Z" fill="#455A64"/>
<path d="M328.061 191.367C325.746 191.465 323.423 191.563 321.174 192.121C318.925 192.678 316.749 193.736 315.222 195.466C313.696 197.203 312.916 199.687 313.581 201.901C314.237 204.114 316.519 205.852 318.81 205.54C320.55 205.311 322.216 204.024 323.899 204.532C325.483 205.016 326.362 206.95 327.995 207.254C329.604 207.549 331.041 206.106 332.674 205.967C334.472 205.811 336.04 207.287 336.836 208.901C337.641 210.516 337.945 212.345 338.749 213.968C339.266 215.001 340.062 215.992 341.179 216.279C342.205 216.542 343.321 216.148 344.126 215.451C344.922 214.755 345.447 213.795 345.85 212.812C347.549 208.639 347.18 203.688 344.881 199.818C342.583 195.949 338.404 193.244 333.93 192.736" fill="#263238"/>
<path d="M351.079 201.384C351.005 201.409 350.784 200.622 350.209 199.466C349.634 198.31 348.633 196.81 347.172 195.49C345.702 194.17 344.11 193.326 342.903 192.875C341.696 192.416 340.892 192.276 340.908 192.203C340.908 192.17 341.114 192.186 341.483 192.235C341.852 192.276 342.378 192.391 343.01 192.596C344.274 192.99 345.949 193.818 347.467 195.178C348.978 196.547 349.979 198.13 350.496 199.343C350.759 199.949 350.931 200.458 351.005 200.818C351.087 201.179 351.12 201.376 351.096 201.384H351.079Z" fill="#E8505B"/>
<path d="M358.302 187.571C358.261 187.645 357.473 187.128 356.028 186.866C354.6 186.595 352.49 186.702 350.487 187.702C348.484 188.702 347.073 190.243 346.202 191.424C345.324 192.612 344.914 193.44 344.856 193.407C344.832 193.399 344.905 193.178 345.078 192.793C345.25 192.416 345.538 191.874 345.956 191.243C346.777 189.997 348.197 188.366 350.29 187.317C352.392 186.267 354.617 186.21 356.078 186.571C356.817 186.743 357.391 186.989 357.752 187.194C358.122 187.399 358.302 187.546 358.286 187.571H358.302Z" fill="#455A64"/>
<path d="M349.223 198.654C349.273 198.654 349.346 199.392 349.24 200.597C349.133 201.794 348.788 203.442 348.058 205.13C347.327 206.819 346.358 208.205 345.562 209.106C344.766 210.008 344.175 210.467 344.142 210.426C344.027 210.336 346.252 208.295 347.664 204.966C349.117 201.655 349.076 198.638 349.223 198.662V198.654Z" fill="#455A64"/>
<path d="M349.495 198.851C349.495 198.851 349.602 199.031 349.725 199.392C349.856 199.745 349.988 200.277 350.094 200.95C350.316 202.278 350.349 204.188 349.84 206.204C349.323 208.221 348.395 209.885 347.566 210.951C347.155 211.484 346.786 211.894 346.499 212.148C346.22 212.402 346.055 212.533 346.039 212.517C345.982 212.467 346.573 211.877 347.32 210.779C348.067 209.688 348.929 208.057 349.429 206.106C349.922 204.147 349.946 202.302 349.799 200.991C349.659 199.671 349.421 198.876 349.495 198.859V198.851Z" fill="#455A64"/>
<path d="M374.334 200.998C371.945 201.753 370.911 205.146 372.478 207.097C374.038 209.048 377.584 208.786 378.84 206.622C380.096 204.458 378.569 201.252 376.099 200.867" fill="#EBEBEB"/>
<path d="M385.432 184.898C382.698 185.759 381.508 189.653 383.306 191.891C385.104 194.129 389.167 193.826 390.603 191.35C392.048 188.874 390.292 185.194 387.459 184.743" fill="#EBEBEB"/>
<path d="M409.132 113.898C401.703 113.275 394.191 114.931 389.102 120.358C384.012 125.793 381.583 133.606 382.699 140.967C374.802 144.246 370.492 154.272 373.563 162.248C376.633 170.225 386.557 174.791 394.618 171.938C398.238 181.111 406.948 188.087 416.692 189.637C426.444 191.186 436.886 187.251 443.182 179.66C450.931 181.406 459.624 181.291 466.134 176.75C472.644 172.208 475.591 162.199 470.624 156.01C479.547 153.838 484.087 142.713 481.435 133.925C478.792 125.146 470.871 118.842 462.407 115.267C456.817 112.907 449.839 111.677 445.07 115.423C441.253 109.554 434.497 105.709 427.495 105.406C420.493 105.111 413.433 108.365 409.123 113.89" fill="#F5F5F5"/>
<path d="M409.131 113.898C409.131 113.898 409.279 113.702 409.583 113.324C409.878 112.939 410.363 112.406 411.028 111.734C412.366 110.422 414.549 108.578 417.89 107.135C419.549 106.422 421.494 105.807 423.686 105.496C425.878 105.201 428.324 105.184 430.869 105.717C433.413 106.217 436.048 107.242 438.552 108.824C441.039 110.422 443.395 112.587 445.209 115.349L444.996 115.316C446.917 113.824 449.421 112.972 452.023 112.906C454.625 112.808 457.309 113.3 459.936 114.169C462.563 115.046 465.157 116.243 467.685 117.718C470.214 119.194 472.676 120.965 474.876 123.137C477.093 125.277 479.022 127.851 480.426 130.761C481.099 132.228 481.657 133.778 482.01 135.393C482.305 137.016 482.478 138.696 482.338 140.377C482.125 143.73 481.091 147.132 479.129 150.042C478.135 151.476 476.978 152.845 475.525 153.886C474.088 154.944 472.447 155.739 470.682 156.198L470.797 155.87C471.864 157.231 472.619 158.838 473.005 160.551C473.391 162.264 473.407 164.06 473.136 165.814C472.578 169.331 470.821 172.684 468.227 175.266C465.6 177.848 462.095 179.447 458.459 180.25C454.797 181.054 450.972 181.062 447.212 180.578C445.842 180.414 444.487 180.144 443.157 179.857L443.371 179.783C436.557 187.948 425.401 191.612 415.633 189.628C410.74 188.645 406.258 186.341 402.614 183.251C398.969 180.16 396.145 176.25 394.454 172.003L394.7 172.118C390.029 173.725 384.923 172.905 380.917 170.675C376.87 168.47 373.841 164.683 372.856 160.469C371.855 156.256 372.668 151.927 374.523 148.443C376.386 144.943 379.325 142.221 382.658 140.819L382.567 140.975C382.067 137.565 382.338 134.237 383.076 131.236C383.856 128.244 385.096 125.564 386.614 123.309C387.361 122.17 388.215 121.17 389.069 120.235C389.955 119.333 390.858 118.514 391.819 117.85C393.707 116.472 395.677 115.612 397.483 115.005C401.128 113.833 404.124 113.726 406.111 113.718C408.105 113.734 409.148 113.882 409.148 113.882C409.148 113.882 408.885 113.882 408.376 113.849C407.867 113.816 407.104 113.8 406.111 113.8C404.132 113.841 401.144 113.964 397.532 115.161C395.743 115.767 393.797 116.636 391.934 118.005C390.99 118.661 390.103 119.489 389.225 120.383C388.388 121.309 387.542 122.309 386.811 123.44C385.309 125.678 384.094 128.334 383.331 131.302C382.608 134.269 382.346 137.557 382.855 140.926L382.871 141.041L382.764 141.09C379.506 142.475 376.624 145.148 374.802 148.591C372.988 152.017 372.2 156.272 373.185 160.387C374.153 164.494 377.117 168.191 381.09 170.347C385.022 172.52 390.013 173.315 394.561 171.741L394.741 171.675L394.807 171.848C396.473 176.028 399.264 179.881 402.86 182.931C406.455 185.98 410.88 188.251 415.69 189.21C425.303 191.161 436.311 187.538 443.018 179.504L443.1 179.406L443.231 179.43C444.553 179.709 445.891 179.98 447.254 180.144C450.98 180.619 454.756 180.603 458.36 179.816C461.931 179.029 465.379 177.455 467.924 174.946C470.452 172.438 472.167 169.151 472.709 165.732C473.276 162.33 472.562 158.731 470.468 156.116L470.271 155.87L470.583 155.788C472.291 155.346 473.883 154.575 475.279 153.55C476.691 152.534 477.823 151.206 478.8 149.804C480.713 146.968 481.739 143.631 481.952 140.336C482.084 138.688 481.92 137.04 481.632 135.45C481.296 133.868 480.746 132.343 480.089 130.9C478.71 128.031 476.814 125.49 474.622 123.375C472.455 121.227 470.017 119.473 467.513 117.997C465.009 116.53 462.432 115.333 459.83 114.456C457.235 113.595 454.584 113.103 452.031 113.193C449.478 113.251 447.04 114.079 445.168 115.521L445.045 115.62L444.963 115.489C443.182 112.759 440.859 110.611 438.413 109.029C435.942 107.463 433.339 106.43 430.819 105.93C428.299 105.389 425.878 105.405 423.71 105.676C421.535 105.971 419.606 106.57 417.948 107.266C414.623 108.676 412.44 110.488 411.085 111.775C410.412 112.431 409.919 112.956 409.616 113.333C409.304 113.702 409.131 113.882 409.131 113.882V113.898Z" fill="#263238"/>
<path d="M459.895 139.45C459.895 139.803 445.34 140.09 427.387 140.09C409.435 140.09 394.872 139.803 394.872 139.45C394.872 139.098 409.426 138.811 427.387 138.811C445.349 138.811 459.895 139.098 459.895 139.45Z" fill="#455A64"/>
<path d="M459.895 146.5C459.895 146.853 445.34 147.14 427.387 147.14C409.435 147.14 394.872 146.853 394.872 146.5C394.872 146.148 409.426 145.861 427.387 145.861C445.349 145.861 459.895 146.148 459.895 146.5Z" fill="#455A64"/>
<path d="M459.895 153.542C459.895 153.895 445.34 154.182 427.387 154.182C409.435 154.182 394.872 153.895 394.872 153.542C394.872 153.19 409.426 152.903 427.387 152.903C445.349 152.903 459.895 153.19 459.895 153.542Z" fill="#455A64"/>
<path d="M459.895 160.584C459.895 160.936 445.34 161.223 427.387 161.223C409.435 161.223 394.872 160.936 394.872 160.584C394.872 160.231 409.426 159.944 427.387 159.944C445.349 159.944 459.895 160.231 459.895 160.584Z" fill="#455A64"/>
</g>
<defs>
<clipPath id="clip0_514_1782">
<rect width="575" height="356" fill="white"/>
</clipPath>
</defs>
</svg>
