<svg width="373" height="278" viewBox="0 0 373 278" fill="none" xmlns="http://www.w3.org/2000/svg">
<path d="M372.485 243.903H0V244.089H372.485V243.903Z" fill="#E6E6E6"/>
<path d="M92.9869 255.174H68.3135V255.361H92.9869V255.174Z" fill="#E6E6E6"/>
<path d="M60.5059 255.174H46.21V255.361H60.5059V255.174Z" fill="#E6E6E6"/>
<path d="M156.854 257.916H142.558V258.102H156.854V257.916Z" fill="#E6E6E6"/>
<path d="M231.395 262.073H199.22V262.259H231.395V262.073Z" fill="#E6E6E6"/>
<path d="M192.59 262.073H187.874V262.259H192.59V262.073Z" fill="#E6E6E6"/>
<path d="M337.732 257.916H267.943V258.102H337.732V257.916Z" fill="#E6E6E6"/>
<path d="M176.557 210.677H32.7112C31.5843 210.675 30.5042 210.226 29.7081 209.429C28.912 208.631 28.4648 207.55 28.4648 206.424V4.21653C28.4747 3.09611 28.9261 2.02481 29.7212 1.23532C30.5163 0.445833 31.5907 0.00191933 32.7112 0H176.557C177.685 0 178.767 0.448164 179.565 1.2459C180.363 2.04364 180.811 3.1256 180.811 4.25377V206.424C180.811 207.552 180.363 208.634 179.565 209.431C178.767 210.229 177.685 210.677 176.557 210.677ZM32.7112 0.148994C31.6337 0.150968 30.601 0.58038 29.8398 1.34298C29.0786 2.10557 28.6511 3.13904 28.6511 4.21653V206.424C28.6511 207.501 29.0786 208.535 29.8398 209.297C30.601 210.06 31.6337 210.489 32.7112 210.491H176.557C177.635 210.489 178.669 210.06 179.431 209.298C180.194 208.535 180.623 207.502 180.625 206.424V4.21653C180.623 3.13835 180.194 2.10491 179.431 1.34252C178.669 0.580138 177.635 0.150964 176.557 0.148994H32.7112Z" fill="#E6E6E6"/>
<path d="M337.702 210.677H193.848C192.721 210.675 191.64 210.227 190.843 209.429C190.046 208.632 189.597 207.551 189.595 206.424V4.21653C189.606 3.09543 190.06 2.02414 190.856 1.23486C191.652 0.445573 192.727 0.0018984 193.848 0H337.702C338.821 0.00387719 339.894 0.448657 340.687 1.23794C341.481 2.02722 341.931 3.0974 341.941 4.21653V206.424C341.941 207.549 341.495 208.629 340.7 209.426C339.906 210.223 338.828 210.673 337.702 210.677ZM193.848 0.148994C192.77 0.150964 191.737 0.580138 190.974 1.34252C190.212 2.10491 189.783 3.13835 189.781 4.21653V206.424C189.783 207.502 190.212 208.535 190.974 209.298C191.737 210.06 192.77 210.489 193.848 210.491H337.702C338.78 210.489 339.814 210.06 340.576 209.298C341.338 208.535 341.768 207.502 341.77 206.424V4.21653C341.768 3.13835 341.338 2.10491 340.576 1.34252C339.814 0.580138 338.78 0.150964 337.702 0.148994H193.848Z" fill="#E6E6E6"/>
<path d="M199.205 180.268H182.823V245.251H199.205V180.268Z" fill="#E0E0E0"/>
<path d="M196.091 245.251H199.205V236.401H192.828L196.091 245.251Z" fill="#FAFAFA"/>
<path d="M127.42 180.268H111.038V245.251H127.42V180.268Z" fill="#E0E0E0"/>
<path d="M199.205 180.268H124.708V239.82H199.205V180.268Z" fill="#FAFAFA"/>
<path d="M196.5 183.195V198.951H127.389V183.195H196.478H196.5ZM196.768 182.905H127.121V199.235H196.791V182.905H196.768Z" fill="#E0E0E0"/>
<path d="M127.815 245.251H124.708V236.401H131.077L127.815 245.251Z" fill="#FAFAFA"/>
<path d="M160.31 191.07C160.31 191.395 160.406 191.714 160.587 191.984C160.768 192.255 161.025 192.466 161.326 192.591C161.627 192.715 161.958 192.748 162.277 192.684C162.597 192.621 162.89 192.464 163.12 192.234C163.35 192.004 163.507 191.71 163.571 191.391C163.634 191.072 163.602 190.741 163.477 190.44C163.352 190.139 163.141 189.882 162.871 189.701C162.6 189.52 162.282 189.423 161.956 189.423C161.519 189.423 161.101 189.597 160.792 189.906C160.483 190.214 160.31 190.633 160.31 191.07Z" fill="#E6E6E6"/>
<path d="M196.5 202.162V217.919H127.389V202.162H196.478H196.5ZM196.768 201.879H127.121V218.209H196.791V201.887L196.768 201.879Z" fill="#E0E0E0"/>
<path d="M160.31 210.081C160.31 210.407 160.406 210.725 160.587 210.996C160.768 211.267 161.025 211.478 161.326 211.602C161.627 211.727 161.958 211.76 162.277 211.696C162.597 211.633 162.89 211.476 163.12 211.246C163.35 211.015 163.507 210.722 163.571 210.403C163.634 210.083 163.602 209.752 163.477 209.451C163.352 209.151 163.141 208.893 162.871 208.713C162.6 208.532 162.282 208.435 161.956 208.435C161.519 208.435 161.101 208.609 160.792 208.917C160.483 209.226 160.31 209.645 160.31 210.081Z" fill="#E6E6E6"/>
<path d="M196.5 221.137V236.9H127.389V221.137H196.478H196.5ZM196.768 220.846H127.121V237.183H196.791V220.846H196.768Z" fill="#E0E0E0"/>
<path d="M160.31 229.019C160.311 229.344 160.409 229.661 160.591 229.931C160.772 230.201 161.03 230.411 161.331 230.534C161.632 230.658 161.963 230.689 162.282 230.625C162.601 230.561 162.893 230.403 163.123 230.173C163.352 229.942 163.508 229.649 163.571 229.33C163.634 229.01 163.601 228.68 163.476 228.379C163.351 228.079 163.14 227.822 162.87 227.642C162.599 227.461 162.281 227.365 161.956 227.365C161.739 227.365 161.524 227.408 161.324 227.491C161.124 227.574 160.942 227.696 160.789 227.85C160.636 228.003 160.515 228.186 160.433 228.386C160.35 228.587 160.309 228.802 160.31 229.019Z" fill="#E6E6E6"/>
<path d="M117.415 142.527H101.033V245.259H117.415V142.527Z" fill="#E0E0E0"/>
<path d="M114.3 245.251H117.414V236.401H111.045L114.3 245.251Z" fill="#FAFAFA"/>
<path d="M56.1934 142.527H39.8115V245.259H56.1934V142.527Z" fill="#E0E0E0"/>
<path d="M117.414 142.527H53.4736V239.828H117.414V142.527Z" fill="#FAFAFA"/>
<path d="M114.659 145.269V167.298H56.2306V145.269H114.659ZM115.001 144.934H55.873V167.618H114.986V144.941L115.001 144.934Z" fill="#E0E0E0"/>
<path d="M114.659 169.987V228.415H86.8265V169.987H114.659ZM115.001 169.645H86.4912V228.758H115.001V169.645Z" fill="#E0E0E0"/>
<path d="M84.0627 169.987V228.415H56.2306V169.987H84.0627ZM84.3979 169.645H55.873V228.758H84.383V169.645H84.3979Z" fill="#E0E0E0"/>
<path d="M56.5876 245.251H53.4736V236.401H59.8506L56.5876 245.251Z" fill="#FAFAFA"/>
<path d="M83.794 156.294C83.7925 156.622 83.8882 156.942 84.0691 157.215C84.2499 157.488 84.5077 157.701 84.8097 157.828C85.1118 157.954 85.4445 157.988 85.7658 157.925C86.0871 157.862 86.3825 157.705 86.6146 157.474C86.8466 157.243 87.0049 156.948 87.0693 156.627C87.1337 156.306 87.1014 155.973 86.9764 155.671C86.8515 155.368 86.6395 155.109 86.3674 154.927C86.0953 154.745 85.7752 154.648 85.4478 154.648C85.0105 154.648 84.5909 154.821 84.281 155.13C83.971 155.438 83.7959 155.857 83.794 156.294Z" fill="#E6E6E6"/>
<path d="M89.6944 197.812C89.6944 198.139 89.7915 198.459 89.9736 198.731C90.1557 199.003 90.4144 199.215 90.717 199.34C91.0197 199.465 91.3526 199.497 91.6736 199.433C91.9946 199.369 92.2893 199.21 92.5203 198.978C92.7512 198.746 92.9082 198.451 92.9711 198.13C93.0341 197.808 93.0003 197.476 92.874 197.173C92.7477 196.871 92.5345 196.614 92.2616 196.433C91.9886 196.252 91.6681 196.156 91.3407 196.158C91.1239 196.158 90.9092 196.201 90.709 196.284C90.5087 196.367 90.3269 196.489 90.1739 196.643C90.0209 196.796 89.8998 196.979 89.8175 197.179C89.7352 197.38 89.6934 197.595 89.6944 197.812Z" fill="#E6E6E6"/>
<path d="M77.9014 197.812C77.9029 198.137 78.0007 198.454 78.1825 198.724C78.3643 198.994 78.6219 199.204 78.9229 199.327C79.2238 199.451 79.5546 199.482 79.8735 199.418C80.1924 199.354 80.485 199.196 80.7145 198.966C80.944 198.735 81.1001 198.442 81.163 198.123C81.226 197.803 81.1929 197.473 81.0681 197.172C80.9433 196.872 80.7323 196.615 80.4617 196.435C80.1911 196.254 79.8731 196.158 79.5478 196.158C79.3309 196.158 79.1162 196.201 78.916 196.284C78.7158 196.367 78.5339 196.489 78.381 196.643C78.228 196.796 78.1069 196.979 78.0246 197.179C77.9423 197.38 77.9004 197.595 77.9014 197.812Z" fill="#E6E6E6"/>
<path d="M76.039 113.883H69.1332C69.7696 117.233 70.1703 120.624 70.3326 124.03C70.3326 127.755 65.0731 142.527 72.5675 142.527C80.0619 142.527 74.8024 127.792 74.8024 124.03C74.9769 120.623 75.3901 117.232 76.039 113.883Z" fill="#E0E0E0"/>
<path d="M49.7637 128.991V133.461C49.7715 135.857 50.7269 138.153 52.4213 139.847C54.1156 141.542 56.4114 142.497 58.8076 142.505H63.2774C65.6736 142.497 67.9694 141.542 69.6638 139.847C71.3581 138.153 72.3135 135.857 72.3213 133.461V128.991H49.7637Z" fill="#F5F5F5"/>
<path d="M145.769 170.792C145.769 176.006 151.602 180.268 158.731 180.268H165.168C172.297 180.268 178.13 176.006 178.13 170.792H145.769Z" fill="#E0E0E0"/>
<path d="M316.322 163.148C312.418 166.337 307.024 172.17 302.093 180.379C298.8 185.847 296.818 191.554 295.947 199.138C295.947 190.57 295.999 181.37 296.029 172.684C297.02 170.449 299.284 165.294 300.908 161.226C306.324 147.645 308.358 144.3 313.223 132.589C319.726 116.945 326.386 98.4251 324.479 99.9076C320.59 102.925 305.691 130.824 304.082 134.817C299.696 145.473 296.984 156.744 296.044 168.229C296.044 160.034 296.103 152.584 296.133 146.803C296.237 127.948 296.558 121.862 296.714 119.985C297.318 119.031 298.025 117.921 298.442 117.325C301.944 112.259 303.292 107.953 306.585 100.399C311.263 89.709 315.286 70.7197 314.109 71.6733C309.207 75.6663 305.348 84.2334 300.268 95.1621C295.187 106.091 296.64 112.371 295.634 121.698C295.425 123.531 295.261 130.444 295.142 140.017C293.831 129.811 291.358 123.091 286.851 116.982C281.308 109.466 275.944 104.392 272.011 101.74C268.077 99.0881 278.805 117.548 283.93 125.579C288.497 132.761 292.706 139.086 295.105 145.321C294.978 158.306 294.919 174.74 294.919 190.019C293.742 183.061 291.82 175.559 289.257 169.756C286.173 162.783 281.435 152.085 277.658 148.457C276.756 147.586 281.606 168.393 284.72 173.92C287.834 179.448 290.121 184.67 292.08 187.807C292.535 188.552 294.055 191.36 294.919 192.984C294.919 211.66 295.023 228.139 295.187 233.749H295.991C295.939 232.304 295.924 222.798 295.947 210.223C297.891 203.399 302.331 195.606 305.996 188.499C309.989 180.804 320.225 159.982 316.322 163.148Z" fill="#E0E0E0"/>
<path d="M307.255 245.251H283.908L282.143 222.366H309.021L307.255 245.251Z" fill="#F0F0F0"/>
<path d="M310.757 225.033H280.399L279.535 217.308H311.628L310.757 225.033Z" fill="#F5F5F5"/>
<path d="M92.57 15.272H50.8145V61.1248H92.57V15.272Z" fill="#E0E0E0"/>
<path d="M97.0917 15.272H53.958V61.1248H97.0917V15.272Z" fill="#F5F5F5"/>
<path d="M93.4785 57.5114V18.8848L57.571 18.8848V57.5114H93.4785Z" fill="white"/>
<path d="M84.7705 48.1398V28.2417H66.2729V48.1398H84.7705Z" fill="#F5F5F5"/>
<path d="M305.475 20.6133H266.685V63.2106H305.475V20.6133Z" fill="#E0E0E0"/>
<path d="M309.677 20.6133H269.612V63.2106H309.677V20.6133Z" fill="#F5F5F5"/>
<path d="M306.324 59.8509V23.9731L272.972 23.9731V59.8509H306.324Z" fill="white"/>
<path d="M289.645 52.3193C295.392 52.3193 300.052 47.6599 300.052 41.9121C300.052 36.1644 295.392 31.5049 289.645 31.5049C283.897 31.5049 279.237 36.1644 279.237 41.9121C279.237 47.6599 283.897 52.3193 289.645 52.3193Z" fill="#F5F5F5"/>
<path d="M135.949 42.6123H104.974V76.6276H135.949V42.6123Z" fill="#E0E0E0"/>
<path d="M139.302 42.6123H107.306V76.6276H139.302V42.6123Z" fill="#F5F5F5"/>
<path d="M136.62 73.9455V45.2939H109.987V73.9455H136.62Z" fill="white"/>
<path d="M123.307 52.3716L116.021 64.9914H130.593L123.307 52.3716Z" fill="#F5F5F5"/>
<path d="M186.242 277.546C266.015 277.546 330.684 273.77 330.684 269.113C330.684 264.455 266.015 260.68 186.242 260.68C106.469 260.68 41.7998 264.455 41.7998 269.113C41.7998 273.77 106.469 277.546 186.242 277.546Z" fill="#F5F5F5"/>
<path d="M260.18 80.7768L252.79 77.7969C252.79 77.7969 243.038 95.5793 240.245 96.4807C236.446 97.7025 228.579 101.1 223.915 101.695C223.282 102.44 222.246 104.757 222.343 105.599C228.608 107.693 242.375 104.914 245.326 102.724C252.038 97.7546 260.18 80.7768 260.18 80.7768Z" fill="#E58A7B"/>
<path d="M262.453 76.7315C263.831 81.8196 256.366 92.0555 256.366 92.0555L246.585 86.5725C246.585 86.5725 248.418 82.3634 250.652 78.0798C254.236 71.1591 260.881 70.9281 262.453 76.7315Z" fill="#407BFF"/>
<path opacity="0.2" d="M262.453 76.7315C263.831 81.8196 256.366 92.0555 256.366 92.0555L246.585 86.5725C246.585 86.5725 248.418 82.3634 250.652 78.0798C254.236 71.1591 260.881 70.9281 262.453 76.7315Z" fill="black"/>
<path opacity="0.2" d="M250.466 88.7628L254.317 90.9233L254.995 79.1006C252.753 80.8215 251.174 86.0065 250.466 88.7628Z" fill="black"/>
<path d="M256.016 72.9026C256.016 72.9026 248.403 89.8432 252.843 121.385H282.842C283.319 116.781 281.74 94.313 287.454 72.6195C284.163 71.9764 280.833 71.5508 277.486 71.3456C273.241 71.0996 268.985 71.0996 264.74 71.3456C261.797 71.6445 258.881 72.1649 256.016 72.9026Z" fill="#407BFF"/>
<path opacity="0.2" d="M256.016 72.9026C256.016 72.9026 248.403 89.8432 252.843 121.385H282.842C283.319 116.781 281.74 94.313 287.454 72.6195C284.163 71.9764 280.833 71.5508 277.486 71.3456C273.241 71.0996 268.985 71.0996 264.74 71.3456C261.797 71.6445 258.881 72.1649 256.016 72.9026Z" fill="black"/>
<g style="mix-blend-mode:multiply">
<path d="M249.058 269.783C249.013 270.588 260.389 271.236 274.461 271.236C288.534 271.236 299.991 270.588 300.036 269.783C300.081 268.979 288.712 268.338 274.633 268.338C260.553 268.338 249.11 268.986 249.058 269.783Z" fill="#E8ECF1"/>
</g>
<path d="M269.084 248.643L263.763 250.703L268.346 262.543L273.667 260.483L269.084 248.643Z" fill="#E58A7B"/>
<path d="M292.81 264.054H287.201L285.145 251.069H290.754L292.81 264.054Z" fill="#E58A7B"/>
<path d="M286.813 263.406H293.116C293.225 263.407 293.331 263.446 293.414 263.517C293.497 263.588 293.552 263.686 293.57 263.794L294.382 268.777C294.399 268.903 294.389 269.03 294.353 269.151C294.316 269.271 294.254 269.383 294.171 269.478C294.087 269.572 293.985 269.648 293.869 269.699C293.754 269.751 293.629 269.777 293.503 269.776C291.305 269.739 290.247 269.604 287.476 269.604C285.77 269.604 282.261 269.783 279.892 269.783C277.523 269.783 277.367 267.459 278.343 267.243C282.723 266.297 284.422 265.008 285.882 263.756C286.139 263.53 286.47 263.406 286.813 263.406Z" fill="#263238"/>
<path d="M268.188 261.484L274.148 259.741C274.254 259.711 274.368 259.718 274.469 259.762C274.571 259.805 274.655 259.882 274.707 259.979L276.942 264.449C276.994 264.562 277.02 264.686 277.019 264.811C277.019 264.935 276.991 265.058 276.938 265.171C276.884 265.284 276.807 265.384 276.711 265.464C276.616 265.543 276.504 265.601 276.383 265.634C274.215 266.23 272.762 266.595 270.051 267.384C268.181 267.928 266.274 268.815 264.426 269.403C263.145 269.813 260.135 269.828 258.578 269.828C256.276 269.828 255.762 267.399 256.753 267.287C259.249 267.012 259.584 267.138 260.962 266.446C263.217 265.46 265.261 264.048 266.981 262.289C267.306 261.919 267.722 261.641 268.188 261.484Z" fill="#263238"/>
<path d="M224.854 101.666L218.686 99.0806L216.146 105.919C218.674 106.304 221.246 106.304 223.774 105.919L224.854 101.666Z" fill="#E58A7B"/>
<path d="M214.097 98.9019L213.933 103.446L216.145 105.905L218.686 99.0657L214.097 98.9019Z" fill="#E58A7B"/>
<path d="M269.813 249.648L264.476 251.709L266.839 257.832L272.177 255.771L269.813 249.648Z" fill="#CF6F64"/>
<path d="M290.754 251.069H285.145L286.21 257.767H291.819L290.754 251.069Z" fill="#CF6F64"/>
<path opacity="0.2" d="M251.889 112.855C252 114.204 252.127 115.582 252.291 116.997L274.595 109.756C278.079 108.724 281.106 106.535 283.177 103.551C283.267 101.562 283.379 99.4683 283.55 97.2856C283.624 96.2277 283.714 95.14 283.811 94.0375C283.907 92.9349 284.042 91.7132 284.183 90.5361L251.889 112.855Z" fill="black"/>
<path d="M259.175 88.4205L258.43 88.3311C258.869 84.6062 261.648 81.671 264.576 81.7455V82.4905C262.013 82.4383 259.569 85.083 259.175 88.4205Z" fill="white"/>
<path d="M263.145 95.2961H263.019V94.5512C265.581 94.648 267.988 91.9736 268.382 88.6436L269.127 88.7329C268.732 92.3758 266.043 95.2961 263.145 95.2961Z" fill="white"/>
<path d="M277.069 56.9897C276.019 61.0945 274.782 68.6113 277.486 71.3453C277.486 71.3453 275.594 75.5097 267.973 75.5097C261.008 75.5097 264.74 71.3453 264.74 71.3453C269.374 70.2577 269.456 66.8755 268.845 63.6721L277.069 56.9897Z" fill="#E58A7B"/>
<path d="M273.716 59.7168L268.852 63.6726C269.002 64.4087 269.09 65.1564 269.112 65.9075C270.535 67.3229 273.388 63.7396 273.679 61.907C273.827 61.1855 273.839 60.4429 273.716 59.7168Z" fill="#CF6F64"/>
<path d="M260.486 56.9378C260.824 57.5245 261.28 58.035 261.825 58.4375C262.369 58.84 262.991 59.1258 263.652 59.277C265.44 59.6718 266.334 58.0254 265.842 56.3716C265.402 54.8816 263.935 52.8777 262.117 53.2204C261.728 53.3006 261.363 53.4729 261.054 53.7229C260.745 53.973 260.5 54.2934 260.341 54.6574C260.181 55.0215 260.111 55.4185 260.136 55.8152C260.161 56.212 260.281 56.5969 260.486 56.9378Z" fill="#CF6F64"/>
<path d="M263.444 43.804C260.657 45.0779 259.674 56.1482 263.175 57.7871C266.677 59.4261 268.718 41.3829 263.444 43.804Z" fill="#263238"/>
<path d="M277.918 50.8144C277.248 56.3719 277.173 59.6423 274.193 62.4881C273.27 63.4325 272.104 64.1033 270.823 64.4265C269.542 64.7497 268.197 64.7127 266.936 64.3196C265.676 63.9266 264.548 63.1927 263.678 62.199C262.808 61.2053 262.229 59.9905 262.006 58.6888C261.104 53.6975 262.348 45.4507 267.921 43.2381C269.092 42.7217 270.379 42.5278 271.65 42.6766C272.921 42.8254 274.129 43.3114 275.149 44.0843C276.169 44.8572 276.963 45.8888 277.45 47.0721C277.937 48.2555 278.099 49.5476 277.918 50.8144Z" fill="#E58A7B"/>
<path d="M268.762 46.6796C272.889 45.6292 275.921 44.914 274.834 48.3483C273.396 52.9374 271.668 57.3774 273.985 57.5785C275.4 57.7052 281.658 55.0531 280.861 52.3637C280.168 50.0245 283.095 49.3839 283.617 48.1993C285.546 43.9083 280.026 44.4745 281.01 41.8671C281.993 39.2597 276.54 35.0581 273.56 37.1515C268.71 40.5336 260.389 40.4815 264.762 34.9165C267.898 30.9459 262.303 31.7579 262.303 31.7579C262.303 31.7579 265.686 33.7618 259.994 36.8609C253.975 40.1686 259.495 49.0561 268.762 46.6796Z" fill="#263238"/>
<path d="M280.108 56.9378C279.293 58.1167 278.069 58.9505 276.674 59.277C274.834 59.6718 274.126 58.0254 274.819 56.3716C275.437 54.8816 277.136 52.8777 278.894 53.2204C280.652 53.5631 281.054 55.4776 280.108 56.9378Z" fill="#E58A7B"/>
<path d="M252.842 121.385C252.842 121.385 247.806 166.456 247.411 183.56C247.009 201.35 264.478 256.858 264.478 256.858L273.418 253.133C273.418 253.133 262.988 202.416 264.478 184.946C266.058 165.897 272.584 121.415 272.584 121.415L252.842 121.385Z" fill="#407BFF"/>
<path opacity="0.2" d="M265.358 133.759C261.342 142.088 264.047 158.559 266.222 168.318C267.049 161.427 268.032 153.948 268.963 147.027C268.874 136.389 268.047 128.172 265.358 133.759Z" fill="black"/>
<path d="M273.024 250.183C273.069 250.183 274.082 253.029 274.082 253.029L263.771 257.365L262.147 254.34L273.024 250.183Z" fill="#407BFF"/>
<path d="M263.488 121.385C263.488 121.385 267.34 164.251 269.888 180.305C272.689 197.894 283.669 256.471 283.669 256.471H293.943C293.943 256.471 287.789 199.317 286.627 181.899C285.361 163.007 282.843 121.385 282.843 121.385H263.488Z" fill="#407BFF"/>
<path d="M294.098 253.796C294.143 253.796 294.441 256.664 294.441 256.664H283.147L282.343 253.371L294.098 253.796Z" fill="#407BFF"/>
<path opacity="0.2" d="M290.165 250.399C290.142 250.399 290.12 250.391 290.102 250.376C290.084 250.361 290.072 250.34 290.069 250.317C290.009 249.795 284.459 198.169 283.416 182.525C282.284 165.554 280.004 127.911 279.982 127.531C279.981 127.519 279.982 127.506 279.986 127.494C279.99 127.483 279.997 127.472 280.005 127.463C280.014 127.454 280.024 127.446 280.035 127.442C280.046 127.437 280.059 127.434 280.071 127.434C280.096 127.434 280.119 127.443 280.137 127.46C280.155 127.476 280.166 127.499 280.168 127.523C280.168 127.903 282.47 165.517 283.602 182.517C284.645 198.161 290.195 249.751 290.247 250.309C290.25 250.322 290.249 250.334 290.246 250.346C290.243 250.359 290.237 250.37 290.23 250.38C290.222 250.39 290.212 250.398 290.201 250.403C290.19 250.409 290.178 250.413 290.165 250.414V250.399Z" fill="black"/>
<path d="M269.395 52.3639C269.395 52.8183 269.112 53.1834 268.814 53.1834C268.516 53.1834 268.3 52.8183 268.33 52.3639C268.36 51.9095 268.613 51.5444 268.911 51.5444C269.209 51.5444 269.425 51.9169 269.395 52.3639Z" fill="#263238"/>
<path d="M264.285 52.3639C264.285 52.8183 263.995 53.1834 263.704 53.1834C263.414 53.1834 263.19 52.8183 263.212 52.3639C263.235 51.9095 263.503 51.5444 263.801 51.5444C264.099 51.5444 264.315 51.9169 264.285 52.3639Z" fill="#263238"/>
<path d="M265.895 52.5947C265.273 53.9824 264.471 55.2823 263.511 56.4611C264.256 57.2061 265.649 56.8634 265.649 56.8634L265.895 52.5947Z" fill="#DF5753"/>
<path d="M266.028 58.7632C266.011 58.7633 265.994 58.7598 265.978 58.753C265.962 58.7461 265.948 58.7361 265.936 58.7236C265.924 58.711 265.915 58.6961 265.909 58.6799C265.903 58.6637 265.901 58.6464 265.902 58.6291C265.903 58.5929 265.919 58.5588 265.946 58.5338C265.972 58.5089 266.007 58.495 266.043 58.4951C266.613 58.499 267.176 58.3752 267.692 58.1329C268.208 57.8905 268.662 57.5357 269.023 57.0945C269.049 57.072 269.082 57.0596 269.116 57.0596C269.15 57.0596 269.183 57.072 269.209 57.0945C269.233 57.1195 269.247 57.1529 269.247 57.1876C269.247 57.2224 269.233 57.2558 269.209 57.2808C268.823 57.7497 268.337 58.1262 267.787 58.3827C267.236 58.6393 266.636 58.7693 266.028 58.7632Z" fill="#263238"/>
<path d="M270.304 50.9931C270.268 51.0114 270.229 51.021 270.189 51.021C270.148 51.021 270.109 51.0114 270.073 50.9931C269.794 50.813 269.477 50.7009 269.147 50.666C268.817 50.631 268.484 50.6742 268.174 50.792C268.143 50.8071 268.11 50.816 268.077 50.8182C268.043 50.8204 268.009 50.8158 267.977 50.8047C267.945 50.7936 267.916 50.7762 267.891 50.7535C267.865 50.7309 267.845 50.7034 267.831 50.6728C267.803 50.6065 267.802 50.532 267.829 50.4652C267.855 50.3984 267.907 50.3446 267.972 50.3152C268.362 50.1561 268.784 50.0934 269.203 50.1323C269.622 50.1712 270.025 50.3106 270.379 50.5387C270.407 50.5581 270.432 50.583 270.45 50.6119C270.469 50.6409 270.482 50.6732 270.488 50.7072C270.495 50.7412 270.494 50.776 270.487 50.8098C270.479 50.8435 270.465 50.8754 270.446 50.9037C270.408 50.9464 270.359 50.9775 270.304 50.9931Z" fill="#263238"/>
<path d="M262.31 49.5028C262.271 49.4932 262.235 49.4725 262.206 49.4432C262.181 49.4189 262.162 49.39 262.148 49.358C262.135 49.326 262.128 49.2917 262.128 49.257C262.128 49.2223 262.135 49.1879 262.148 49.156C262.162 49.124 262.181 49.095 262.206 49.0707C262.492 48.7505 262.847 48.5005 263.245 48.3403C263.643 48.18 264.073 48.1139 264.501 48.147C264.535 48.1523 264.568 48.1645 264.597 48.183C264.626 48.2015 264.652 48.2258 264.671 48.2545C264.691 48.2831 264.704 48.3154 264.711 48.3495C264.717 48.3835 264.717 48.4186 264.709 48.4524C264.693 48.5214 264.653 48.5822 264.595 48.6233C264.537 48.6645 264.467 48.6832 264.396 48.6759C264.058 48.6546 263.719 48.7106 263.405 48.8396C263.092 48.9687 262.812 49.1675 262.586 49.4209C262.552 49.4586 262.508 49.4862 262.46 49.5006C262.411 49.5151 262.36 49.5158 262.31 49.5028Z" fill="#263238"/>
<path d="M290.336 79.9498L282.589 77.8862C282.589 77.8862 274.99 96.5924 272.301 97.8067C268.65 99.4754 259.405 105.256 255.472 107.99C255.256 108.922 255.427 111.387 255.919 112.065C262.623 110.844 275.459 105.905 278.141 103.394C284.257 97.6652 290.336 79.9498 290.336 79.9498Z" fill="#E58A7B"/>
<path d="M284.928 264.389C284.55 264.419 284.173 264.317 283.863 264.099C283.767 264.012 283.695 263.902 283.655 263.779C283.614 263.656 283.606 263.525 283.632 263.399C283.637 263.319 283.663 263.243 283.707 263.177C283.752 263.112 283.813 263.06 283.885 263.026C284.511 262.706 286.262 263.816 286.463 263.942C286.485 263.956 286.502 263.976 286.511 264.001C286.521 264.025 286.522 264.051 286.515 264.076C286.509 264.102 286.496 264.126 286.477 264.146C286.459 264.166 286.436 264.18 286.411 264.188C285.925 264.308 285.428 264.375 284.928 264.389ZM284.183 263.227C284.127 263.215 284.068 263.215 284.012 263.227C283.983 263.242 283.96 263.264 283.944 263.292C283.928 263.32 283.92 263.352 283.922 263.384C283.903 263.47 283.906 263.561 283.932 263.646C283.958 263.731 284.006 263.807 284.071 263.868C284.362 264.129 285.092 264.158 286.053 263.972C285.481 263.595 284.836 263.342 284.161 263.227H284.183Z" fill="#407BFF"/>
<path d="M286.374 264.188C286.354 264.195 286.333 264.195 286.314 264.188C285.755 263.875 284.705 262.646 284.861 262.02C284.885 261.921 284.941 261.833 285.021 261.769C285.1 261.706 285.199 261.671 285.301 261.67C285.401 261.657 285.503 261.665 285.599 261.695C285.695 261.724 285.784 261.774 285.86 261.842C286.478 262.371 286.515 263.995 286.515 264.076C286.519 264.101 286.514 264.126 286.502 264.148C286.49 264.169 286.471 264.186 286.448 264.196C286.423 264.201 286.397 264.198 286.374 264.188ZM285.375 261.916H285.323C285.152 261.916 285.13 262.013 285.122 262.05C285.033 262.415 285.696 263.346 286.247 263.786C286.245 263.157 286.05 262.543 285.688 262.028C285.602 261.952 285.49 261.912 285.375 261.916Z" fill="#407BFF"/>
<path d="M265.15 263.458C264.694 263.617 264.197 263.617 263.742 263.458C263.638 263.402 263.55 263.321 263.487 263.222C263.423 263.123 263.385 263.01 263.377 262.892C263.367 262.819 263.377 262.744 263.404 262.675C263.431 262.606 263.476 262.545 263.533 262.497C264.129 261.961 266.565 262.497 266.841 262.602C266.867 262.608 266.89 262.624 266.906 262.646C266.923 262.667 266.931 262.694 266.93 262.721C266.931 262.749 266.924 262.776 266.909 262.8C266.895 262.824 266.874 262.843 266.848 262.855C266.3 263.103 265.731 263.304 265.15 263.458ZM263.935 262.572C263.85 262.589 263.771 262.627 263.704 262.684C263.681 262.701 263.662 262.726 263.652 262.753C263.641 262.781 263.639 262.811 263.645 262.84C263.65 262.918 263.674 262.994 263.716 263.06C263.757 263.127 263.815 263.182 263.883 263.22C264.278 263.429 265.194 263.265 266.379 262.766C265.581 262.564 264.755 262.499 263.935 262.572Z" fill="#407BFF"/>
<path d="M266.826 262.855H266.766C266.021 262.721 264.531 261.864 264.486 261.223C264.486 261.074 264.553 260.866 264.911 260.747C265.032 260.704 265.16 260.685 265.288 260.693C265.416 260.701 265.541 260.734 265.656 260.791C266.461 261.186 266.885 262.617 266.907 262.684C266.913 262.706 266.912 262.73 266.906 262.752C266.899 262.774 266.887 262.794 266.87 262.81C266.859 262.828 266.844 262.844 266.826 262.855ZM265.06 260.97H264.985C264.755 261.052 264.755 261.149 264.755 261.179C264.755 261.566 265.835 262.274 266.587 262.512C266.414 261.914 266.047 261.39 265.544 261.022C265.395 260.946 265.222 260.928 265.06 260.97Z" fill="#407BFF"/>
<path d="M256.105 107.551L248.335 111.127L247.434 113.362L250.302 115.292C250.302 115.292 255.665 114.71 257.193 111.261L256.105 107.551Z" fill="#E58A7B"/>
<path d="M256.434 112.192C256.26 110.699 255.767 109.261 254.988 107.976L256.217 107.052C257.142 108.533 257.732 110.198 257.946 111.931L256.434 112.192Z" fill="#263238"/>
<path d="M257.759 108.609C257.923 108.867 258.004 109.17 257.99 109.476C257.976 109.781 257.868 110.076 257.682 110.318C257.495 110.561 257.237 110.739 256.945 110.831C256.653 110.922 256.34 110.921 256.048 110.827C255.756 110.734 255.501 110.553 255.315 110.31C255.13 110.066 255.024 109.771 255.013 109.465C255.001 109.159 255.084 108.857 255.25 108.6C255.416 108.343 255.658 108.143 255.941 108.028C256.26 107.865 256.629 107.835 256.97 107.944C257.31 108.053 257.594 108.292 257.759 108.609Z" fill="#263238"/>
<path d="M243.083 114.017L244.119 115.06L251.091 112.081L248.335 111.127L243.083 114.017Z" fill="#E58A7B"/>
<path opacity="0.2" d="M273.024 250.183C273.069 250.183 274.082 253.029 274.082 253.029L263.771 257.365L262.147 254.34L273.024 250.183Z" fill="black"/>
<path opacity="0.2" d="M294.098 253.796C294.143 253.796 294.441 256.664 294.441 256.664H283.147L282.343 253.371L294.098 253.796Z" fill="black"/>
<path d="M292.356 77.8046C294.404 84.4125 286.396 93.4489 286.396 93.4489L275.333 88.9344C276.644 85.1151 278.156 81.3677 279.862 77.7077C283.259 70.3847 290.285 71.1371 292.356 77.8046Z" fill="#407BFF"/>
<path opacity="0.2" d="M292.356 77.8046C294.404 84.4125 286.396 93.4489 286.396 93.4489L275.333 88.9344C276.644 85.1151 278.156 81.3677 279.862 77.7077C283.259 70.3847 290.285 71.1371 292.356 77.8046Z" fill="black"/>
<path d="M182.428 11.5991H177.668V12.3664H182.428V11.5991Z" fill="#407BFF"/>
<path d="M244.051 41.9688L243.475 54.7544L244.241 54.7889L244.817 42.0033L244.051 41.9688Z" fill="#407BFF"/>
<path d="M242.57 15.041H154.663L146.483 198.095H234.39L242.57 15.041Z" fill="#407BFF"/>
<path opacity="0.56" d="M239.947 17.5591H152.041L143.861 200.613H231.768L239.947 17.5591Z" fill="#FAFAFA"/>
<path opacity="0.07" d="M237.325 20.0693H149.419L141.231 203.123H229.138L237.325 20.0693Z" fill="#407BFF"/>
<path d="M227.32 99.9077H152.287L151.661 113.913H226.694L227.32 99.9077Z" fill="white"/>
<path d="M193.551 89.687H152.741L152.466 95.9522H193.275L193.551 89.687Z" fill="#407BFF"/>
<path d="M225.629 137.708H150.595L149.97 151.713H225.003L225.629 137.708Z" fill="white"/>
<path opacity="0.47" d="M211.869 170.628H161.413L160.66 187.412H211.117L211.869 170.628Z" fill="#407BFF"/>
<path d="M208.495 190.019H158.038C158.016 190.025 157.993 190.025 157.971 190.019C157.964 189.998 157.964 189.974 157.971 189.952L158.716 173.161C158.716 173.149 158.719 173.138 158.723 173.128C158.728 173.117 158.734 173.108 158.743 173.1C158.751 173.092 158.761 173.086 158.772 173.083C158.783 173.079 158.794 173.078 158.806 173.079H209.262C209.272 173.074 209.282 173.072 209.292 173.072C209.303 173.072 209.313 173.074 209.322 173.079C209.327 173.088 209.33 173.098 209.33 173.109C209.33 173.119 209.327 173.129 209.322 173.138L208.592 189.967C208.583 189.985 208.569 189.999 208.552 190.008C208.534 190.018 208.515 190.022 208.495 190.019ZM158.128 189.841H208.406L209.151 173.228H158.873L158.128 189.841Z" fill="white"/>
<path d="M184.738 127.486H151.05L150.774 133.759H184.454L184.738 127.486Z" fill="#407BFF"/>
<path d="M210.909 54.666C210.716 58.742 209.267 62.6585 206.759 65.8778C204.903 68.3095 202.515 70.2836 199.777 71.6486C197.039 73.0135 194.025 73.7331 190.966 73.7521C188.494 73.771 186.044 73.2835 183.768 72.3198C181.491 71.356 179.436 69.9364 177.729 68.1483C176.022 66.3602 174.699 64.2416 173.842 61.9229C172.984 59.6042 172.611 57.1345 172.744 54.666C173.006 49.5436 175.215 44.7148 178.919 41.167C182.624 37.6193 187.543 35.6207 192.672 35.5799C195.146 35.5568 197.598 36.0413 199.878 37.0034C202.157 37.9655 204.215 39.3847 205.924 41.1735C207.633 42.9622 208.957 45.0824 209.815 47.4031C210.672 49.7238 211.044 52.1957 210.909 54.666Z" fill="white"/>
<path d="M212.704 39.5728C212.655 40.6566 212.27 41.6983 211.601 42.5527C211.106 43.1986 210.471 43.7229 209.743 44.0857C209.014 44.4485 208.213 44.6401 207.399 44.6461C206.611 44.6509 205.834 44.4626 205.135 44.0977C204.437 43.7328 203.838 43.2023 203.391 42.5527C202.8 41.6749 202.508 40.63 202.557 39.5728C202.629 38.2128 203.217 36.9315 204.201 35.9902C205.186 35.0488 206.492 34.5184 207.854 34.507C208.511 34.501 209.162 34.6296 209.768 34.8849C210.373 35.1402 210.92 35.5167 211.374 35.9913C211.828 36.4659 212.181 37.0285 212.409 37.6445C212.638 38.2605 212.738 38.9167 212.704 39.5728Z" fill="#407BFF"/>
<path d="M160.37 106.91C160.334 107.511 160.072 108.075 159.637 108.49C159.201 108.904 158.625 109.139 158.023 109.145C157.733 109.149 157.445 109.093 157.177 108.98C156.91 108.868 156.668 108.702 156.467 108.493C156.265 108.283 156.109 108.035 156.008 107.762C155.907 107.49 155.863 107.2 155.878 106.91C155.91 106.309 156.171 105.742 156.607 105.327C157.044 104.911 157.622 104.678 158.225 104.675C158.515 104.673 158.802 104.73 159.069 104.842C159.337 104.955 159.578 105.121 159.779 105.33C159.98 105.54 160.136 105.788 160.238 106.059C160.339 106.331 160.384 106.621 160.37 106.91Z" fill="#263238"/>
<path d="M170.411 106.91C170.377 107.511 170.116 108.077 169.68 108.492C169.244 108.907 168.667 109.141 168.065 109.145C167.775 109.148 167.488 109.091 167.221 108.978C166.954 108.865 166.713 108.699 166.513 108.49C166.313 108.281 166.157 108.032 166.056 107.761C165.956 107.489 165.912 107.2 165.927 106.91C165.959 106.31 166.219 105.745 166.654 105.329C167.088 104.914 167.665 104.68 168.266 104.675C168.556 104.672 168.844 104.728 169.112 104.84C169.38 104.953 169.622 105.119 169.823 105.328C170.024 105.538 170.18 105.786 170.281 106.058C170.382 106.33 170.427 106.62 170.411 106.91Z" fill="#263238"/>
<path d="M180.462 106.91C180.427 107.511 180.166 108.077 179.73 108.492C179.294 108.907 178.717 109.141 178.115 109.145C177.825 109.148 177.537 109.091 177.27 108.978C177.003 108.866 176.761 108.699 176.56 108.49C176.36 108.281 176.204 108.033 176.102 107.761C176 107.49 175.955 107.2 175.969 106.91C176.003 106.309 176.265 105.744 176.701 105.329C177.137 104.914 177.714 104.68 178.316 104.675C178.606 104.672 178.894 104.728 179.162 104.84C179.43 104.953 179.672 105.119 179.873 105.328C180.074 105.538 180.23 105.786 180.331 106.058C180.432 106.33 180.477 106.62 180.462 106.91Z" fill="#263238"/>
<path d="M158.678 144.71C158.643 145.31 158.38 145.875 157.945 146.29C157.51 146.704 156.933 146.939 156.332 146.945C156.042 146.947 155.754 146.89 155.487 146.778C155.22 146.665 154.978 146.499 154.777 146.29C154.576 146.081 154.42 145.833 154.319 145.561C154.217 145.289 154.172 145 154.186 144.71C154.22 144.109 154.482 143.544 154.918 143.129C155.353 142.714 155.931 142.48 156.533 142.475C156.823 142.473 157.11 142.53 157.378 142.642C157.645 142.755 157.886 142.921 158.087 143.13C158.288 143.339 158.444 143.587 158.546 143.859C158.647 144.131 158.693 144.42 158.678 144.71Z" fill="#263238"/>
<path d="M168.721 144.71C168.687 145.31 168.427 145.874 167.992 146.289C167.558 146.704 166.982 146.938 166.382 146.945C166.092 146.948 165.804 146.892 165.536 146.78C165.268 146.668 165.026 146.502 164.825 146.292C164.624 146.083 164.468 145.834 164.367 145.562C164.265 145.29 164.221 145 164.236 144.71C164.27 144.109 164.532 143.544 164.968 143.129C165.404 142.714 165.981 142.48 166.583 142.475C166.873 142.473 167.16 142.53 167.427 142.642C167.694 142.755 167.935 142.921 168.135 143.131C168.335 143.34 168.491 143.588 168.591 143.86C168.692 144.131 168.736 144.421 168.721 144.71Z" fill="#263238"/>
<path d="M178.793 144.71C178.759 145.311 178.498 145.877 178.062 146.292C177.626 146.707 177.048 146.94 176.447 146.945C176.157 146.946 175.87 146.889 175.603 146.776C175.336 146.663 175.095 146.497 174.895 146.288C174.694 146.079 174.538 145.831 174.436 145.56C174.334 145.289 174.288 145 174.301 144.71C174.337 144.11 174.599 143.545 175.034 143.131C175.47 142.716 176.046 142.482 176.648 142.475C176.938 142.472 177.226 142.528 177.494 142.64C177.762 142.752 178.004 142.918 178.205 143.128C178.406 143.337 178.562 143.586 178.663 143.858C178.764 144.13 178.808 144.42 178.793 144.71Z" fill="#263238"/>
<path d="M188.821 144.71C188.785 145.31 188.523 145.875 188.087 146.29C187.652 146.704 187.075 146.939 186.474 146.945C186.184 146.946 185.897 146.889 185.63 146.776C185.364 146.663 185.123 146.497 184.922 146.288C184.721 146.079 184.565 145.831 184.463 145.56C184.361 145.289 184.315 145 184.328 144.71C184.364 144.11 184.626 143.545 185.062 143.131C185.497 142.716 186.074 142.482 186.675 142.475C186.965 142.473 187.253 142.53 187.52 142.642C187.787 142.755 188.029 142.921 188.229 143.13C188.43 143.339 188.586 143.587 188.688 143.859C188.79 144.131 188.835 144.42 188.821 144.71Z" fill="#263238"/>
<path d="M198.907 144.71C198.871 145.31 198.609 145.875 198.174 146.29C197.738 146.704 197.162 146.939 196.561 146.945C196.27 146.948 195.982 146.892 195.714 146.78C195.447 146.668 195.205 146.502 195.004 146.292C194.803 146.083 194.647 145.834 194.545 145.562C194.444 145.29 194.4 145 194.415 144.71C194.449 144.109 194.711 143.544 195.146 143.129C195.582 142.714 196.16 142.48 196.762 142.475C197.052 142.473 197.339 142.53 197.607 142.642C197.874 142.755 198.115 142.921 198.316 143.13C198.517 143.339 198.673 143.587 198.775 143.859C198.876 144.131 198.921 144.42 198.907 144.71Z" fill="#263238"/>
<path d="M197.382 53.6717C200.5 50.6225 200.665 45.735 197.751 42.7552C194.837 39.7753 189.948 39.8316 186.829 42.8808C183.711 45.93 183.546 50.8175 186.46 53.7973C189.374 56.7772 194.264 56.721 197.382 53.6717Z" fill="#407BFF"/>
<path d="M206.759 65.8777C204.903 68.3094 202.514 70.2835 199.777 71.6485C197.039 73.0135 194.025 73.7331 190.966 73.7521C187.999 73.7772 185.072 73.0721 182.443 71.6989C179.813 70.3256 177.562 68.3265 175.888 65.8777C179.508 62.2721 185.237 59.918 191.584 59.918C197.931 59.918 203.459 62.2721 206.759 65.8777Z" fill="#407BFF"/>
<path opacity="0.1" d="M197.382 53.6717C200.5 50.6225 200.665 45.735 197.751 42.7552C194.837 39.7753 189.948 39.8316 186.829 42.8808C183.711 45.93 183.546 50.8175 186.46 53.7973C189.374 56.7772 194.264 56.721 197.382 53.6717Z" fill="white"/>
<path opacity="0.1" d="M206.759 65.8777C204.903 68.3094 202.514 70.2835 199.777 71.6485C197.039 73.0135 194.025 73.7331 190.966 73.7521C187.999 73.7772 185.072 73.0721 182.443 71.6989C179.813 70.3256 177.562 68.3265 175.888 65.8777C179.508 62.2721 185.237 59.918 191.584 59.918C197.931 59.918 203.459 62.2721 206.759 65.8777Z" fill="white"/>
<path d="M97.1506 117.288C96.4428 118.837 95.6979 120.543 95.0497 122.197C94.4016 123.851 93.7386 125.557 93.165 127.255C91.9938 130.603 91.1017 134.041 90.498 137.536L90.3341 138.631C90.3185 138.819 90.3361 139.008 90.3862 139.19C90.5621 139.807 90.839 140.391 91.2057 140.918C92.1624 142.282 93.2722 143.532 94.5134 144.643C95.822 145.86 97.1947 147.007 98.6256 148.077C100.056 149.18 101.561 150.253 103.043 151.266L101.65 153.881C98.1102 152.338 94.7502 150.412 91.6303 148.137C89.9659 146.923 88.4637 145.501 87.1605 143.905C86.3881 142.956 85.7857 141.88 85.38 140.724C85.1442 140.003 85.0235 139.249 85.0225 138.49C85.0225 138.311 85.0225 138.05 85.0225 137.923V137.558L85.097 136.813C85.524 132.932 86.3402 129.104 87.533 125.386C88.1141 123.553 88.7324 121.728 89.4401 119.947C90.1479 118.167 90.8779 116.424 91.7793 114.613L97.1506 117.288Z" fill="#E58A7B"/>
<path d="M101.993 150.804L107.26 148.137L105.897 153.918C105.897 153.918 102.284 154.931 100.607 153.173L101.993 150.804Z" fill="#E58A7B"/>
<path d="M112.081 149.083L110.68 153.866L105.897 153.918L107.261 148.137L112.081 149.083Z" fill="#E58A7B"/>
<path d="M119.515 89.3965C119.797 90.4289 120.189 91.428 120.684 92.3764C120.54 92.5406 120.353 92.6626 120.145 92.7295C119.936 92.7964 119.713 92.8057 119.5 92.7563L119.515 89.3965Z" fill="#DF5753"/>
<path d="M119.359 89.441C119.667 89.441 119.917 89.0574 119.917 88.5843C119.917 88.1111 119.667 87.7275 119.359 87.7275C119.05 87.7275 118.8 88.1111 118.8 88.5843C118.8 89.0574 119.05 89.441 119.359 89.441Z" fill="#263238"/>
<path d="M119.194 87.7574L120.327 87.437C120.327 87.437 119.775 88.3161 119.194 87.7574Z" fill="#263238"/>
<path d="M104.965 94.8643C105.643 98.3284 106.321 104.683 103.893 107C103.893 107 104.846 110.516 111.29 110.516C118.375 110.516 114.672 107 114.672 107C110.806 106.076 110.903 103.208 111.581 100.511L104.965 94.8643Z" fill="#E58A7B"/>
<path d="M103.081 86.9676C103.439 92.756 103.469 95.2144 106.389 98.1868C110.792 102.657 117.824 100.958 119.202 95.2069C120.446 89.9921 119.657 81.4101 113.988 79.1081C112.743 78.5955 111.389 78.4088 110.052 78.5657C108.715 78.7225 107.441 79.2178 106.349 80.0047C105.257 80.7915 104.384 81.8439 103.812 83.0623C103.24 84.2807 102.989 85.6249 103.081 86.9676Z" fill="#E58A7B"/>
<path d="M103.655 80.4569C100.75 81.5147 96.8757 80.725 98.3954 89.687C100.005 99.1779 97.5312 102.299 97.5312 102.299C97.5312 102.299 108.549 104.646 119.798 102.158C119.798 102.158 116.364 96.1534 117.325 91.7282C118.554 86.141 117.586 84.0774 117.586 84.0774C117.586 84.0774 107.737 78.9669 103.655 80.4569Z" fill="#263238"/>
<path d="M115.946 89.9846C115.949 91.0852 116.264 92.1624 116.855 93.0911C117.645 94.298 118.576 93.8361 118.807 92.5547C119.016 91.4298 118.859 89.4408 117.853 88.666C116.848 87.8912 115.961 88.6511 115.946 89.9846Z" fill="#E58A7B"/>
<path d="M101.129 81.4325C100.295 79.0859 104.273 75.4728 112.691 76.9627C121.109 78.4526 121.474 85.4628 121.474 85.4628L119.776 83.4365L119.85 85.5671L111.201 87.2284L101.129 81.4325Z" fill="#263238"/>
<path d="M101.844 107.395C101.794 107.055 101.879 106.708 102.081 106.43C102.283 106.152 102.585 105.963 102.924 105.905C105.546 105.473 111.506 104.594 114.501 105.011C116.736 105.324 117.317 106.62 117.414 107.685C117.429 107.872 117.404 108.059 117.341 108.236C117.277 108.412 117.177 108.572 117.046 108.706C116.916 108.84 116.758 108.945 116.584 109.013C116.409 109.081 116.222 109.111 116.036 109.101L103.088 108.52C102.783 108.504 102.492 108.384 102.266 108.179C102.039 107.974 101.89 107.697 101.844 107.395Z" fill="#407BFF"/>
<path opacity="0.6" d="M101.844 107.395C101.794 107.055 101.879 106.708 102.081 106.43C102.283 106.152 102.585 105.963 102.924 105.905C105.546 105.473 111.506 104.594 114.501 105.011C116.736 105.324 117.317 106.62 117.414 107.685C117.429 107.872 117.404 108.059 117.341 108.236C117.277 108.412 117.177 108.572 117.046 108.706C116.916 108.84 116.758 108.945 116.584 109.013C116.409 109.081 116.222 109.111 116.036 109.101L103.088 108.52C102.783 108.504 102.492 108.384 102.266 108.179C102.039 107.974 101.89 107.697 101.844 107.395Z" fill="black"/>
<path d="M109.331 237.541L114.136 240.878L122.174 229.979L117.369 226.649L109.331 237.541Z" fill="#E58A7B"/>
<path d="M98.127 237.325L103.2 240.215L110.315 228.691L105.241 225.8L98.127 237.325Z" fill="#E58A7B"/>
<path d="M122.167 229.979L118.025 235.597L113.22 232.266L117.362 226.649L122.167 229.979Z" fill="#CF6F64"/>
<path d="M105.234 225.8L110.314 228.698L106.649 234.636L101.568 231.738L105.234 225.8Z" fill="#CF6F64"/>
<path d="M113.384 143.779C113.384 143.779 132.142 167.417 128.618 190.026C125.78 208.286 109.316 233.011 109.316 233.011L101.576 229.167C107.032 218.235 111.688 206.921 115.507 195.316C116.685 191.713 117.028 187.889 116.512 184.133C115.996 180.378 114.633 176.789 112.527 173.637C103.021 159.758 87.7941 168.02 98.0374 143.779H113.384Z" fill="#407BFF"/>
<path opacity="0.6" d="M113.384 143.779C113.384 143.779 132.142 167.417 128.618 190.026C125.78 208.286 109.316 233.011 109.316 233.011L101.576 229.167C107.032 218.235 111.688 206.921 115.507 195.316C116.685 191.713 117.028 187.889 116.512 184.133C115.996 180.378 114.633 176.789 112.527 173.637C103.021 159.758 87.7941 168.02 98.0374 143.779H113.384Z" fill="black"/>
<path opacity="0.4" d="M122.584 158.962L119.857 156.25C119.857 156.466 125.139 189.073 126.622 198.236C127.497 195.56 128.167 192.82 128.626 190.042C130.369 178.949 126.726 167.618 122.584 158.962Z" fill="black"/>
<path d="M121.757 143.779C121.757 143.779 144.345 173.488 144.985 191.3C145.514 206.2 120.401 235.067 120.401 235.067L113.101 230.344C113.101 230.344 127.799 209.843 131.501 193.096C130.071 176.498 99.8252 143.779 99.8252 143.779H121.757Z" fill="#407BFF"/>
<path opacity="0.6" d="M121.757 143.779C121.757 143.779 144.345 173.488 144.985 191.3C145.514 206.2 120.401 235.067 120.401 235.067L113.101 230.344C113.101 230.344 127.799 209.843 131.501 193.096C130.071 176.498 99.8252 143.779 99.8252 143.779H121.757Z" fill="black"/>
<path d="M93.8136 108.326C91.3999 108.9 89.083 117.675 89.083 117.675L98.5218 123.978C98.5218 123.978 101.666 117.035 100.563 113.995C99.4232 110.829 96.8456 107.604 93.8136 108.326Z" fill="#407BFF"/>
<path opacity="0.2" d="M95.6614 113.98L95.0059 121.631L98.5147 123.985C99.4835 121.804 100.201 119.52 100.653 117.176L95.6614 113.98Z" fill="black"/>
<path d="M124.551 108.497C124.551 108.497 127.337 109.473 121.757 143.771H98.0226C98.4248 134.087 98.4323 128.127 93.8135 108.326C97.1368 107.641 100.505 107.198 103.893 107C107.482 106.742 111.084 106.742 114.673 107C119.306 107.424 124.551 108.497 124.551 108.497Z" fill="#407BFF"/>
<path d="M126.964 113.98C127.501 115.47 128.067 117.072 128.663 118.614C129.259 120.156 129.825 121.743 130.428 123.307L132.254 127.986L132.715 129.155L132.954 129.737L133.066 130.027C133.066 130.079 133.066 130.079 133.066 130.072C132.929 129.88 132.751 129.722 132.544 129.61C132.249 129.436 131.917 129.337 131.576 129.319C131.292 129.311 131.01 129.364 130.749 129.476C130.406 129.632 130.406 129.699 130.413 129.692C130.475 129.642 130.53 129.585 130.577 129.521C130.99 128.979 131.347 128.398 131.643 127.785C131.993 127.099 132.328 126.369 132.663 125.632C133.319 124.142 133.922 122.6 134.526 121.043C135.129 119.486 135.703 117.914 136.261 116.327L137.96 111.574L140.828 112.319C140.262 115.716 139.532 119.024 138.653 122.391C138.228 124.067 137.729 125.729 137.163 127.405C136.88 128.247 136.567 129.081 136.209 129.938C135.837 130.868 135.378 131.76 134.839 132.605C134.64 132.889 134.421 133.158 134.183 133.409C133.803 133.82 133.341 134.147 132.827 134.37C132.371 134.566 131.878 134.658 131.382 134.638C130.827 134.618 130.286 134.456 129.81 134.169C129.249 133.819 128.783 133.335 128.454 132.761C128.342 132.567 128.246 132.374 128.179 132.232L128.037 131.949L127.754 131.368L127.188 130.213C126.443 128.664 125.698 127.099 125.05 125.527C124.402 123.956 123.716 122.361 123.076 120.76C122.435 119.158 121.861 117.556 121.317 115.828L126.964 113.98Z" fill="#E58A7B"/>
<path d="M124.551 108.497C127.405 109.175 130.615 117.608 130.615 117.608L122.13 124.827C122.13 124.827 116.64 115.634 117.75 112.602C118.904 109.443 120.826 107.611 124.551 108.497Z" fill="#407BFF"/>
<path d="M139.309 108.907L142.289 106.419L144.36 109.645L142.832 112.334C142.832 112.334 140.404 114.569 138.258 113.429C137.918 112.664 137.836 111.808 138.026 110.992C138.215 110.176 138.666 109.444 139.309 108.907Z" fill="#E58A7B"/>
<path d="M147.668 106.426L147.444 107.238L142.728 108.028L142.267 106.419L147.668 106.426Z" fill="#E58A7B"/>
<path d="M120.982 235.447L112.475 229.949L114.002 227.297L123.56 233.175L120.982 235.447Z" fill="#407BFF"/>
<path d="M106.531 239.828C105.784 239.737 105.067 239.482 104.43 239.083C104.404 239.074 104.381 239.057 104.365 239.034C104.349 239.011 104.34 238.984 104.34 238.956C104.34 238.928 104.349 238.901 104.365 238.879C104.381 238.856 104.404 238.839 104.43 238.83C104.661 238.755 106.665 238.137 107.246 238.614C107.311 238.668 107.361 238.739 107.39 238.818C107.418 238.898 107.425 238.985 107.41 239.068C107.399 239.202 107.355 239.331 107.281 239.443C107.206 239.556 107.105 239.647 106.985 239.709C106.846 239.785 106.69 239.826 106.531 239.828ZM104.854 239.008C105.786 239.485 106.531 239.657 106.888 239.478C106.966 239.435 107.032 239.372 107.079 239.297C107.126 239.221 107.152 239.135 107.156 239.046C107.156 238.926 107.156 238.874 107.089 238.844C106.777 238.591 105.659 238.785 104.84 239.008H104.854Z" fill="#263238"/>
<path d="M104.482 239.135C104.442 239.134 104.405 239.118 104.377 239.09C104.366 239.07 104.36 239.047 104.36 239.023C104.36 239 104.366 238.977 104.377 238.956C104.377 238.889 104.861 237.273 105.621 236.908C105.718 236.863 105.824 236.84 105.931 236.84C106.037 236.84 106.143 236.863 106.24 236.908C106.344 236.941 106.435 237.008 106.497 237.098C106.559 237.189 106.589 237.297 106.582 237.407C106.53 238.077 105.167 239.001 104.541 239.157L104.482 239.135ZM105.927 237.101C105.854 237.103 105.783 237.121 105.718 237.153C105.256 237.377 104.876 238.248 104.69 238.777C105.346 238.502 106.247 237.772 106.277 237.362C106.277 237.295 106.277 237.213 106.106 237.138C106.05 237.108 105.989 237.088 105.927 237.079V237.101Z" fill="#263238"/>
<path d="M117.161 243.046C116.319 243.046 115.149 241.966 114.509 241.303C114.492 241.28 114.483 241.253 114.483 241.225C114.483 241.197 114.492 241.169 114.509 241.146C114.523 241.122 114.544 241.103 114.569 241.09C114.594 241.077 114.622 241.071 114.65 241.072C114.948 241.072 117.533 241.459 117.898 242.189C117.937 242.255 117.957 242.329 117.957 242.405C117.957 242.481 117.937 242.556 117.898 242.622C117.843 242.735 117.761 242.833 117.658 242.906C117.555 242.979 117.435 243.025 117.31 243.039L117.161 243.046ZM115 241.407C115.939 242.316 116.766 242.823 117.235 242.763C117.317 242.752 117.396 242.722 117.463 242.674C117.531 242.625 117.585 242.562 117.623 242.487C117.639 242.462 117.648 242.432 117.648 242.402C117.648 242.371 117.639 242.342 117.623 242.316C117.429 241.914 116.051 241.571 115 241.407Z" fill="#263238"/>
<path d="M115.082 241.37C114.915 241.375 114.748 241.362 114.583 241.333C114.56 241.329 114.538 241.32 114.52 241.306C114.502 241.291 114.488 241.272 114.479 241.251C114.468 241.229 114.462 241.205 114.462 241.18C114.462 241.156 114.468 241.131 114.479 241.109C114.524 241.057 115.529 239.843 116.483 239.761C116.753 239.74 117.02 239.826 117.228 239.999C117.518 240.253 117.503 240.476 117.429 240.618C117.243 241.124 115.954 241.37 115.082 241.37ZM114.889 241.094C115.723 241.139 117.056 240.863 117.228 240.498C117.228 240.498 117.287 240.379 117.094 240.215C117.017 240.148 116.927 240.098 116.829 240.067C116.732 240.036 116.629 240.026 116.528 240.037C115.885 240.216 115.313 240.588 114.889 241.102V241.094Z" fill="#263238"/>
<path d="M104.683 238.331L98.3653 236.543C98.2564 236.51 98.1392 236.518 98.036 236.566C97.9329 236.614 97.8512 236.699 97.8066 236.804L95.6759 241.594C95.6259 241.716 95.6024 241.848 95.607 241.981C95.6116 242.113 95.6442 242.243 95.7026 242.362C95.761 242.481 95.8439 242.586 95.9459 242.671C96.0479 242.755 96.1666 242.817 96.2943 242.853C98.5292 243.434 99.6019 243.598 102.381 244.395C104.094 244.872 106.538 245.758 108.899 246.429C111.261 247.099 112.05 244.797 111.134 244.305C106.992 242.115 106.664 240.581 105.532 238.942C105.329 238.645 105.029 238.429 104.683 238.331Z" fill="#407BFF"/>
<path d="M114.681 240.432L109.287 236.707C109.196 236.64 109.083 236.609 108.97 236.62C108.858 236.631 108.753 236.683 108.676 236.766L105.1 240.61C105.013 240.71 104.948 240.826 104.91 240.953C104.871 241.079 104.86 241.212 104.877 241.344C104.894 241.475 104.938 241.601 105.008 241.713C105.077 241.826 105.17 241.922 105.279 241.996C107.179 243.27 108.162 243.784 110.539 245.43C112.028 246.443 114.911 248.693 116.923 250.094C118.934 251.494 120.432 249.572 119.717 248.812C116.513 245.393 115.813 243.248 115.284 241.303C115.192 240.95 114.978 240.642 114.681 240.432Z" fill="#407BFF"/>
<path d="M110.307 233.503L100.585 228.668L101.591 226.031L111.976 231.127L110.307 233.503Z" fill="#407BFF"/>
<path d="M97.6646 142.379L96.8451 144.524C96.7632 144.688 96.9569 144.859 97.2325 144.859H121.876C122.092 144.859 122.271 144.755 122.286 144.621L122.494 142.49C122.494 142.349 122.323 142.222 122.092 142.222H98.052C97.9796 142.215 97.9067 142.226 97.8393 142.253C97.7718 142.281 97.712 142.323 97.6646 142.379Z" fill="#407BFF"/>
<path opacity="0.4" d="M97.6646 142.379L96.8451 144.524C96.7632 144.688 96.9569 144.859 97.2325 144.859H121.876C122.092 144.859 122.271 144.755 122.286 144.621L122.494 142.49C122.494 142.349 122.323 142.222 122.092 142.222H98.052C97.9796 142.215 97.9067 142.226 97.8393 142.253C97.7718 142.281 97.712 142.323 97.6646 142.379Z" fill="white"/>
<path d="M101.546 145.068H100.898C100.771 145.068 100.675 145.001 100.682 144.919L100.987 142.155C100.987 142.081 101.107 142.014 101.233 142.014H101.881C102.008 142.014 102.105 142.081 102.097 142.155L101.792 144.919C101.785 145.001 101.673 145.068 101.546 145.068Z" fill="#407BFF"/>
<path d="M116.744 145.068H116.103C115.977 145.068 115.88 145.001 115.887 144.919L116.185 142.155C116.185 142.081 116.312 142.014 116.438 142.014H117.079C117.206 142.014 117.31 142.081 117.295 142.155L116.997 144.919C116.96 145.001 116.878 145.068 116.744 145.068Z" fill="#407BFF"/>
<g style="mix-blend-mode:multiply">
<path d="M100.98 271.228C112.003 271.228 120.938 270.581 120.938 269.783C120.938 268.985 112.003 268.338 100.98 268.338C89.9578 268.338 81.0225 268.985 81.0225 269.783C81.0225 270.581 89.9578 271.228 100.98 271.228Z" fill="#F5F5F5"/>
</g>
<path d="M113.138 267.742C109.607 266.714 105.689 265.395 103.32 264.017C103.253 263.972 103.178 263.95 103.111 263.913V247.925H110.255C110.798 247.893 111.307 247.655 111.68 247.26C112.052 246.865 112.26 246.342 112.26 245.799C112.26 245.255 112.052 244.733 111.68 244.337C111.307 243.942 110.798 243.704 110.255 243.672H103.148V170.799H98.8573V243.672H91.7577C91.4678 243.655 91.1775 243.697 90.9045 243.796C90.6315 243.895 90.3817 244.049 90.1704 244.248C89.9591 244.447 89.7907 244.688 89.6756 244.954C89.5605 245.221 89.5012 245.508 89.5012 245.799C89.5012 246.089 89.5605 246.376 89.6756 246.643C89.7907 246.91 89.9591 247.15 90.1704 247.349C90.3817 247.548 90.6315 247.702 90.9045 247.801C91.1775 247.9 91.4678 247.943 91.7577 247.925H98.8573V263.89C98.7902 263.89 98.7232 263.95 98.6561 263.994C96.2499 265.395 92.3611 266.714 88.83 267.719C88.5914 267.791 88.3866 267.947 88.2526 268.157C88.1185 268.367 88.0642 268.618 88.0993 268.865C88.1344 269.111 88.2567 269.337 88.444 269.502C88.6313 269.666 88.8713 269.758 89.1205 269.761H112.848C113.086 269.744 113.311 269.647 113.486 269.485C113.661 269.322 113.775 269.105 113.809 268.869C113.843 268.632 113.795 268.392 113.673 268.186C113.551 267.981 113.362 267.824 113.138 267.742Z" fill="#E0E0E0"/>
<path d="M114.233 163.379H87.7418C85.6105 163.379 83.8828 165.107 83.8828 167.238V175.112C83.8828 177.243 85.6105 178.971 87.7418 178.971H114.233C116.364 178.971 118.092 177.243 118.092 175.112V167.238C118.092 165.107 116.364 163.379 114.233 163.379Z" fill="#407BFF"/>
<path d="M87.4961 178.979V180.335C87.4961 181.452 88.7104 182.361 90.2003 182.361H111.804C113.294 182.361 114.509 181.452 114.509 180.335V178.979H87.4961Z" fill="#407BFF"/>
<path opacity="0.3" d="M87.4961 178.979V180.335C87.4961 181.452 88.7104 182.361 90.2003 182.361H111.804C113.294 182.361 114.509 181.452 114.509 180.335V178.979H87.4961Z" fill="white"/>
</svg>
