<svg width="23" height="18" viewBox="0 0 23 18" fill="none" xmlns="http://www.w3.org/2000/svg">
<g opacity="0.2">
<path d="M0.980143 18H9.06616C9.31387 18 9.51733 17.8009 9.51733 17.5488V9.45836C9.51733 9.21065 9.31828 9.00718 9.06616 9.00718H2.77618V8.99834C2.77618 7.26878 3.63432 5.66755 5.07192 4.70782L9.01755 2.07592C9.53509 1.7309 9.66337 1.04084 9.32718 0.518894C8.79197 -0.321535 7.96036 0.080986 7.77016 0.209261L3.82453 2.84116C1.76323 4.22125 0.529137 6.5214 0.529137 9.00294V17.5532C0.529137 17.8009 0.728189 18 0.98031 18L0.980143 18Z" fill="white"/>
<path d="M14.4627 18H22.5487C22.7964 18 22.9999 17.8009 22.9999 17.5532V9.46277C22.9999 9.21506 22.7964 9.01159 22.5487 9.01159H16.2587V9.00275C16.2587 7.2732 17.1169 5.67197 18.5545 4.71223L22.5001 2.08033C23.0176 1.73531 23.1238 1.05852 22.8097 0.523308C22.3453 -0.281734 21.4429 0.0853996 21.2527 0.213675L17.3071 2.84557C15.2414 4.22126 14.0117 6.52141 14.0117 9.0029V17.5532C14.0117 17.8009 14.2107 18 14.4629 18L14.4627 18Z" fill="white"/>
</g>
</svg>
