<svg width="532" height="348" viewBox="0 0 532 348" fill="none" xmlns="http://www.w3.org/2000/svg">
<g clip-path="url(#clip0_1248_5828)">
<path d="M20.0787 212.415C17.2147 269.558 55.3763 298.898 110.416 305.867C172.157 313.686 235.552 303.14 297.033 297.776C320.193 295.755 343.43 294.238 366.695 294.365C388.617 294.486 412.349 300.526 433.885 297.183C487.718 288.824 515.462 233.207 507.072 184.702C501.87 154.624 482.335 125.88 447.762 127.792C423.471 129.139 401.935 139.691 378.73 145.407C348.172 152.935 315.696 151.72 285.729 141.928C270.761 137.027 256.487 130.076 241.921 123.991C212.91 111.885 182.23 103.151 150.989 102.67C119.757 102.179 87.8234 110.393 62.5693 129.606C35.9366 149.867 21.6754 180.521 20.0765 212.417L20.0787 212.415Z" stroke="#F0F0F0" stroke-width="4.26" stroke-miterlimit="10"/>
<path opacity="0.1" d="M497.096 229.653C499.946 286.104 461.984 315.087 407.231 321.972C345.812 329.695 282.749 319.276 221.588 313.978C198.549 311.982 175.434 310.484 152.29 310.609C130.484 310.727 106.874 316.697 85.4517 313.393C31.9001 305.133 4.30215 250.193 12.6467 202.273C16.5465 179.885 25.1545 155.119 44.5056 141.526C63.9702 127.853 86.6101 131.35 107.946 137.286C146.805 148.098 189.146 168.386 230.319 160.447C253.917 155.896 274.481 142.537 296.892 134.541C319.236 126.57 343.109 121.604 366.864 121.234C397.933 120.75 429.699 128.864 454.821 147.843C481.315 167.859 495.501 198.14 497.094 229.651L497.096 229.653Z" fill="#F0F0F0"/>
<path d="M457.777 276.993C457.777 276.993 436.375 292.083 411.791 279.007L434.785 266.179L457.779 276.993H457.777Z" fill="#6F3428"/>
<path d="M300.207 176.138C300.207 176.138 279.384 215.183 285.902 226.717L309.612 213.557L300.207 176.14V176.138Z" fill="#6F3428"/>
<path d="M291.24 215.776C288.635 213.829 286.126 211.64 283.716 209.258C278.969 204.553 274.601 199.089 270.622 193.26V193.251C267.949 189.338 265.45 185.253 263.136 181.118C256.443 169.187 251.214 156.84 247.494 146.953C243.61 136.639 241.352 128.991 240.753 127.238C240.685 127.033 240.637 126.908 240.607 126.87L251.871 94.5352C257.315 85.8197 260.365 114.105 260.365 114.105C261.866 113.224 263.688 110.638 264.762 109.243C265.973 107.665 266.902 110.163 267.068 111.053C268.008 116.254 263.822 126.141 263.822 126.141L290.679 165.495C292.326 167.906 294.166 170.182 296.162 172.282C297.441 173.638 298.797 174.925 300.21 176.136C302.592 186.255 302.349 205.768 291.24 215.771V215.776Z" fill="#F9B384"/>
<path opacity="0.6" d="M291.24 215.776C288.634 213.83 286.125 211.64 283.715 209.258C292.143 199.603 298.592 183.568 300.209 176.14C301.487 177.496 298.794 174.93 300.209 176.14C302.591 186.259 302.348 205.773 291.24 215.776Z" fill="#E28B6D"/>
<path d="M457.782 276.995C443.11 274.139 431.544 274.323 421.78 276.26C418.235 276.966 414.932 277.897 411.794 279.01L408.839 289.594L403.008 310.52L399.222 324.115L395.774 336.462L393.837 343.424H289.757L306.221 236.091L285.9 226.717C287.209 224.789 288.408 222.525 289.523 220.015C295.692 206.12 299.006 185.058 300.207 176.138C306.019 181.134 312.865 184.872 320.333 187.004C329.195 189.532 339.877 191.721 349.872 191.487C350.222 191.478 350.561 191.466 350.899 191.457C374.018 190.556 384.332 197.577 384.332 197.577C389.563 198.613 403.199 203.852 415.103 209.09C420.352 211.386 425.262 213.691 428.982 215.626C438.978 220.844 446.233 230.123 448.924 241.075L457.777 276.991L457.782 276.995Z" fill="#EE6F57"/>
<path opacity="0.6" d="M421.782 276.26C418.236 276.966 414.934 277.897 411.795 279.01L418.061 256.533L421.779 276.257L421.782 276.26Z" fill="#AE5140"/>
<path opacity="0.3" d="M270.621 193.251C267.948 189.338 265.854 185.805 260.83 176.89C268.711 174.192 273.422 185.805 270.621 193.251Z" fill="#EE6F57"/>
<path opacity="0.6" d="M409.972 285.543L403.011 310.52L399.225 324.115L305.829 331.232L295.213 312.659C363.496 311.253 392.066 301.523 409.972 285.541V285.543Z" fill="#AE5140"/>
<path opacity="0.6" d="M247.491 146.955C243.607 136.641 241.35 128.993 240.75 127.24L258.225 116.419C258.893 126.268 251.102 140.304 247.491 146.955Z" fill="#E28B6D"/>
<path d="M358.016 215.691C359.036 219.316 361.23 222.481 364.105 224.768C366.992 227.05 370.469 228.551 374.096 229.198C377.723 229.857 381.501 229.684 385.078 228.728C386.87 228.258 388.612 227.572 390.256 226.691C391.923 225.844 393.475 224.773 394.955 223.589L395.473 224.141C394.138 225.567 392.591 226.798 390.933 227.865C389.252 228.899 387.444 229.737 385.557 230.352C381.775 231.574 377.676 231.819 373.751 231.097C369.838 230.368 366.049 228.687 363.051 226.021C361.559 224.695 360.248 223.151 359.251 221.425C358.277 219.69 357.571 217.801 357.275 215.857L358.016 215.696V215.691Z" fill="#AE5140"/>
<path d="M400.463 178.697L397.567 201.329C396.493 209.783 389.17 216.057 380.646 215.826C371.514 215.583 364.473 208.08 364.473 199.257C364.473 198.395 364.541 197.513 364.677 196.632L365.199 193.322L367.244 180.414L378.75 179.824L400.465 178.7L400.463 178.697Z" fill="#F9B384"/>
<path d="M360.166 141.412C360.489 138.077 362.049 134.1 363.827 130.494C367.227 123.602 373.809 118.818 381.416 117.721C392.845 116.074 407.619 117.68 415.666 128.653C424.738 141.024 417.199 165.76 407.474 167.87C397.748 169.98 360.166 141.412 360.166 141.412Z" fill="#222222"/>
<path d="M389.955 184.509C386.071 188.188 377.122 196.796 364.676 196.633L367.242 180.412L378.748 179.822L389.955 184.509Z" fill="#E28B6D"/>
<path d="M406.517 147.246L404.784 156.261L404.357 158.469L402.652 167.339L401.673 172.423L400.462 178.697L394.543 182.251C394.543 182.251 392.926 183.337 389.953 184.508C389.953 184.508 389.953 184.518 389.944 184.518C385.461 186.3 377.895 188.276 368.19 186.997C367.513 186.911 366.873 186.754 366.273 186.543C361.701 184.983 359.357 180.171 358.331 174.176C357.574 169.771 357.517 164.725 357.797 159.854C358.233 152.213 359.503 144.998 360.159 141.417C370.339 132.324 384.236 130.669 394.541 128.655L406.513 147.248L406.517 147.246Z" fill="#F9B384"/>
<path d="M360.166 141.412C376.38 128.653 398.223 141.578 398.223 141.578C398.223 141.578 394.882 161.675 401.339 160.018C407.796 158.358 414.349 144.923 414.349 144.923L399.57 123.618L367.239 129.186L360.166 141.412Z" fill="#222222"/>
<path d="M400.502 160.678C403.68 155.101 409.864 153.312 413.187 157.542C416.512 161.773 416.639 175.084 400.291 172.21L400.502 160.678Z" fill="#F9B384"/>
<path d="M373.32 156.273C372.269 159.116 370.64 161.648 369.577 164.314C369.455 164.637 369.298 165.007 369.221 165.291C369.134 165.572 369.089 165.847 369.137 166.056C369.144 166.281 369.273 166.437 369.43 166.624C369.625 166.785 369.868 166.948 370.175 167.064C371.394 167.532 372.905 167.648 374.374 167.793L374.388 168.361C372.898 168.556 371.367 168.735 369.745 168.265C369.339 168.159 368.926 167.945 368.539 167.648C368.174 167.323 367.815 166.853 367.744 166.324C367.633 165.804 367.722 165.318 367.838 164.891C367.956 164.459 368.085 164.139 368.237 163.771C369.43 160.91 371.201 158.501 372.812 156.021L373.32 156.275V156.273Z" fill="#E28B6D"/>
<path d="M384.191 156.873C383.793 158.213 382.701 159.073 381.749 158.792C380.798 158.51 380.348 157.195 380.743 155.853C381.14 154.513 382.233 153.653 383.185 153.934C384.136 154.216 384.586 155.531 384.191 156.873Z" fill="#222222"/>
<path d="M366.973 156.057C367.369 154.717 366.92 153.401 365.968 153.12C365.017 152.838 363.924 153.697 363.527 155.038C363.13 156.379 363.58 157.694 364.531 157.976C365.483 158.257 366.576 157.398 366.973 156.057Z" fill="#222222"/>
<path d="M378.133 151.7C378.95 150.923 379.918 150.278 381.01 149.847C382.098 149.411 383.327 149.227 384.533 149.374C385.742 149.517 386.886 150.003 387.836 150.692C388.79 151.377 389.569 152.242 390.168 153.199L389.741 153.573C388.88 152.901 388.042 152.263 387.15 151.768C386.259 151.275 385.321 150.934 384.354 150.81C383.386 150.678 382.389 150.773 381.401 151.025C380.411 151.282 379.441 151.704 378.458 152.168L378.135 151.7H378.133Z" fill="#222222"/>
<path d="M369.598 151.777C368.808 150.516 367.516 149.915 366.191 149.919C365.531 149.919 364.87 150.076 364.231 150.355C363.593 150.637 362.989 151.039 362.353 151.5L361.91 151.145C362.287 150.394 362.871 149.722 363.62 149.236C364.363 148.747 365.274 148.464 366.196 148.475C367.116 148.484 368.045 148.772 368.776 149.34C369.51 149.892 370.039 150.728 370.137 151.602L369.596 151.779L369.598 151.777Z" fill="#222222"/>
<path d="M367.145 172.546L377.685 172.768C377.685 172.768 371.841 180.694 367.551 173.318L367.147 172.546H367.145Z" fill="white"/>
<path d="M403.029 164.932C403.036 164.024 403.197 163.108 403.522 162.227C403.845 161.346 404.356 160.492 405.117 159.816C405.868 159.139 406.927 158.71 407.962 158.76C409 158.794 409.92 159.259 410.611 159.87L410.327 160.361C409.505 160.113 408.714 159.945 407.99 160.036C407.27 160.122 406.627 160.424 406.071 160.903C405.507 161.38 405.048 162.034 404.651 162.743C404.256 163.458 403.933 164.235 403.588 165.041L403.029 164.934V164.932Z" fill="#E28B6D"/>
<path opacity="0.3" d="M389.892 175.514C393.992 175.514 397.316 172.19 397.316 168.09C397.316 163.991 393.992 160.667 389.892 160.667C385.791 160.667 382.467 163.991 382.467 168.09C382.467 172.19 385.791 175.514 389.892 175.514Z" fill="#EE6F57"/>
<path opacity="0.3" d="M363.543 167.087C363.543 170.409 361.344 173.227 358.332 174.176C357.576 169.771 357.519 164.725 357.799 159.854C361.092 160.619 363.543 163.562 363.543 167.087Z" fill="#EE6F57"/>
<path d="M214.156 136.198C214.156 136.198 235.295 146.544 231.377 163.707L217.395 167.62L214.156 136.196V136.198Z" fill="#102048"/>
<path d="M214.156 136.198C216.425 133.964 228.059 121.113 227.652 105.049C227.343 92.8682 232.746 98.3705 233.441 106.775C233.441 106.775 236.412 89.5846 244.602 91.3263L242.195 94.6213C242.195 94.6213 245.3 88.7989 247.807 90.3567C250.312 91.9145 248.043 96.8944 248.043 96.8944C248.043 96.8944 249.213 92.5753 251.362 92.246C253.51 91.9167 255.482 98.6838 250.676 116.34C250.676 116.34 255.884 111.178 257.939 110.306C259.997 109.434 259.858 122.943 245.263 137.32C230.671 151.697 220.345 162.817 220.345 162.817L214.156 136.194V136.198Z" fill="#F9B384"/>
<path d="M128.98 206.624C129.494 207.416 214.157 136.198 214.157 136.198L231.378 163.707L144.961 265.452L128.98 206.624Z" fill="#708CD5"/>
<path d="M244.754 91.4443C243.745 92.9999 242.812 94.6167 241.953 96.2585C241.108 97.9094 240.306 99.5831 239.639 101.309C238.93 103.019 238.362 104.781 237.888 106.568L237.54 107.913L237.272 109.273C237.043 110.177 236.995 111.103 236.822 112.02L236.445 112C236.468 110.115 236.643 108.217 237.065 106.371C237.483 104.524 238.033 102.703 238.748 100.952C239.477 99.2084 240.277 97.4916 241.238 95.8634C242.192 94.2329 243.234 92.6615 244.456 91.2104L244.756 91.4421L244.754 91.4443Z" fill="#E28B6D"/>
<path d="M248.226 96.9465C247.944 98.4815 247.612 100.005 247.274 101.524C246.945 103.048 246.554 104.554 246.206 106.073L245.053 110.599C244.646 112.102 244.244 113.605 243.792 115.1L243.422 115.02C243.624 113.467 243.919 111.934 244.228 110.403C244.551 108.877 244.905 107.358 245.273 105.844C245.67 104.336 246.041 102.821 246.479 101.325C246.908 99.8259 247.351 98.3294 247.858 96.8511L248.223 96.9465H248.226Z" fill="#E28B6D"/>
<path d="M253.364 92.9478C253.916 98.2434 253.676 103.587 252.894 108.855C252.679 110.17 252.451 111.485 252.136 112.781C251.986 113.431 251.825 114.078 251.638 114.721L251.504 115.204L251.443 115.429C251.452 115.409 251.448 115.352 251.425 115.318C251.395 115.247 251.268 115.227 251.204 115.275L251.545 114.975C252.538 114.096 253.539 113.226 254.555 112.37L256.094 111.101C256.367 110.885 256.592 110.701 256.914 110.467C257.369 110.156 258.025 110.211 258.425 110.597C258.629 110.765 258.761 111.099 258.786 111.278L258.884 111.793C258.92 112.139 258.979 112.484 258.984 112.827C259.004 113.172 259.015 113.515 258.995 113.858C258.988 114.201 258.974 114.543 258.929 114.88C258.809 116.24 258.486 117.564 258.08 118.847C257.246 121.413 256.04 123.824 254.634 126.093C253.219 128.359 251.606 130.483 249.917 132.535C249.063 133.553 248.15 134.52 247.271 135.515L244.493 138.365L244.223 138.099L246.88 135.163C247.718 134.143 248.586 133.151 249.394 132.111C251.025 130.044 252.574 127.912 253.916 125.659C255.236 123.397 256.426 121.054 257.201 118.574C257.584 117.337 257.882 116.072 257.984 114.793C258.025 114.475 258.034 114.155 258.039 113.837C258.057 113.517 258.043 113.201 258.023 112.886C258.018 112.568 257.959 112.259 257.927 111.946L257.839 111.487C257.809 111.339 257.805 111.355 257.759 111.298C257.682 111.221 257.534 111.201 257.437 111.269L256.685 111.846L255.154 113.09C254.141 113.933 253.14 114.793 252.145 115.661L251.736 116.013C251.407 116.278 250.85 116.158 250.653 115.797C250.541 115.622 250.516 115.388 250.566 115.209L250.637 114.955L250.771 114.482C250.957 113.855 251.12 113.22 251.273 112.581C251.586 111.308 251.843 110.02 252.079 108.728C252.524 106.137 252.81 103.516 252.969 100.889C253.128 98.2615 253.187 95.616 252.987 92.9932L253.364 92.9546V92.9478Z" fill="#E28B6D"/>
<path d="M94.7903 268.466C94.7903 268.466 65.5389 256.93 53.5944 279C38.5746 306.752 61.144 339.362 61.144 339.362H100.845L94.7903 268.466Z" fill="#FBC343"/>
<path d="M66.1551 277.565C65.4102 278.338 64.7742 279.21 64.2019 280.118C63.625 281.024 63.1503 281.994 62.7165 282.979C61.8602 284.955 61.2061 287.019 60.7518 289.129C59.8388 293.346 59.5481 297.69 59.7502 302.004C59.9387 306.323 60.6633 310.609 61.7421 314.801C62.8437 318.99 64.3722 323.064 66.1892 327.013L65.8508 327.183C65.3557 326.209 64.831 325.246 64.3881 324.247C64.161 323.75 63.9157 323.259 63.7067 322.753L63.064 321.241C62.2599 319.204 61.5354 317.133 60.9244 315.023C59.7366 310.799 58.9734 306.444 58.7849 302.047C58.5941 297.658 58.9098 293.225 59.9524 288.942C60.4679 286.803 61.1766 284.703 62.1169 282.707C62.5984 281.714 63.1253 280.74 63.7544 279.83C64.3745 278.914 65.074 278.049 65.8871 277.293L66.1506 277.565H66.1551Z" fill="#102048"/>
<path d="M170.243 171.678C179.834 177.53 186.466 174.051 188.404 167.734C190.341 161.416 197.423 137.62 167.822 141.456C167.822 141.456 131.548 126.831 116.196 148.407C102.655 167.439 115.079 180.596 94.3875 196.378C79.9605 207.383 63.603 226.717 96.0478 259.78L131.239 250.088L170.243 171.678Z" fill="#AE5140"/>
<path d="M159.315 199.273C160.033 202.623 167.794 211.293 170.901 214.545C180.29 224.378 182.364 242.821 155.59 248.46L140.527 213.38L159.315 199.276V199.273Z" fill="#6F3428"/>
<path d="M160.651 203.659L157.484 218.233L152.563 240.912L125.105 235.112L131.565 190.635L159.565 203.175L160.651 203.659Z" fill="#F9B384"/>
<path d="M177.543 174.846C177.543 174.846 185.467 183.73 185.188 185.989C184.909 188.251 177.543 192.302 177.543 192.302V174.846Z" fill="#E28B6D"/>
<path d="M160.65 203.659L157.483 218.233C149.039 213.739 142.877 202.623 142.877 202.623L159.564 203.175L160.65 203.659Z" fill="#E28B6D"/>
<path d="M179.4 195.061C178.287 203.506 175.478 209.994 169.473 210.573C152.872 212.181 128.979 193.587 128.979 193.587L130.266 159.541L148.32 148.404L177.542 153.827C177.892 157.672 179.682 169.428 179.973 181.252C180.089 186.016 179.964 190.79 179.4 195.061Z" fill="#F9B384"/>
<path d="M182.131 159.541L178.529 162.313C159.748 147.662 163.64 168.769 161.898 175.527C160.154 182.285 151.253 180.505 144.31 176.138L143.07 185.599L122.197 186.257L120.986 159.811L141.8 143.542L180.33 151.057L182.131 159.541Z" fill="#AE5140"/>
<path d="M155.169 257.739C165.421 252.241 162.514 237.887 158.523 232.975C154.533 228.063 137.573 219.823 135.518 204.356C134.373 195.754 143.072 185.599 143.072 185.599L125.429 176.134L107.35 204.553L120.991 253.361L155.171 257.737L155.169 257.739Z" fill="#AE5140"/>
<path d="M167.944 336.51L81.8881 336.569C78.1292 281.478 91.8634 253.309 103.738 239.472C111.214 230.766 122.507 226.458 133.897 227.852C143.805 229.072 152.406 233.779 161.123 254.29L120.386 273.231L146.537 319.267C149.163 323.895 152.969 327.751 157.559 330.442L167.941 336.515L167.944 336.51Z" fill="#45E9CB"/>
<path d="M120.387 273.226C120.387 273.226 133.192 324.468 137.937 331.212C142.877 338.234 153.483 336.469 171.971 336.51C229.221 336.633 171.971 336.51 171.971 336.51L148.616 284.489L120.387 273.228" fill="#30C0A6"/>
<path d="M224.858 322.58L221.158 336.196L171.971 336.51H167.942L157.56 330.437C152.97 327.744 149.163 323.891 146.538 319.263L120.387 273.226L161.124 254.285C165.501 264.558 169.898 278.814 174.499 298.568C175.119 301.232 176.968 303.458 179.478 304.552L224.858 322.58Z" fill="#45E9CB"/>
<path d="M148.616 179.883C147.138 171.678 137.401 170.593 135.707 176.136C134.012 181.679 134.426 191.203 146.654 190.64L148.616 179.885V179.883Z" fill="#F9B384"/>
<path d="M144.711 180.528L143.187 178.788C142.68 178.246 142.156 177.726 141.61 177.414C141.054 177.103 140.613 177.015 140.102 177.287C139.578 177.553 139.076 178.121 138.556 178.702L138.047 178.448C138.263 177.651 138.617 176.829 139.412 176.213C139.793 175.893 140.357 175.723 140.897 175.716C141.442 175.743 141.944 175.916 142.342 176.168C143.153 176.667 143.711 177.335 144.166 178.03C144.618 178.729 144.97 179.472 145.206 180.253L144.708 180.528H144.711Z" fill="#E28B6D"/>
<path opacity="0.2" d="M178.97 197.764C178.555 197.85 170.746 195.611 170.746 188.258C170.746 184.336 174.18 180.991 178.103 180.991C178.752 180.991 179.381 181.077 179.972 181.252C180.088 186.017 179.988 193.154 178.97 197.764Z" fill="#EE6F57"/>
<path d="M320.825 337.034H218.457L237.794 253.76H340.164L320.825 337.034Z" fill="#1F3C88"/>
<path opacity="0.6" d="M320.825 337.034L340.162 253.758C310.902 321.456 267.423 328.959 218.455 337.034" fill="#102048"/>
<path d="M284.976 297.773C286.534 294.057 285.262 289.981 282.134 288.67C279.006 287.358 275.207 289.308 273.648 293.024C272.09 296.74 273.362 300.816 276.49 302.127C279.618 303.438 283.417 301.489 284.976 297.773Z" fill="white"/>
<path d="M447.71 275.446L447.401 283.91L446.007 321.84V321.887C445.891 324.753 445.134 327.524 443.847 330.022C442.559 332.501 440.719 334.709 438.432 336.462H395.778L306.692 336.761C305.105 336.761 303.476 333.062 305.829 331.232C311.031 327.165 319.175 322.691 324.842 319.069C327.97 317.076 331.699 316.204 335.381 316.678C341.511 317.462 350.355 320.57 361.357 317.328C363.265 316.767 365.202 316.331 367.158 316.031L403.014 310.522L417.125 308.353L417.523 284.455L417.648 277.222C418.995 276.863 420.369 276.545 421.784 276.264C429.192 274.792 437.648 274.336 447.712 275.451L447.71 275.446Z" fill="#F9B384"/>
<path opacity="0.6" d="M447.711 275.447L447.402 283.91C442.192 282.08 422.064 276.357 417.648 277.218C418.995 276.859 420.369 276.541 421.784 276.26C429.193 274.788 437.649 274.332 447.713 275.447H447.711Z" fill="#E28B6D"/>
<path opacity="0.3" d="M446.005 321.842V321.89C445.889 324.756 445.133 327.526 443.845 330.024C442.557 332.504 440.718 334.711 438.43 336.464H425.471C427.737 324.002 437.181 320.128 446.003 321.842H446.005Z" fill="#EE6F57"/>
<path d="M411.705 308.901C413.22 308.29 414.81 307.772 416.459 307.581C418.099 307.325 419.777 307.336 421.429 307.513C423.082 307.686 424.713 308.074 426.262 308.655C427.818 309.228 429.289 309.995 430.616 311.017L430.302 311.489C428.878 310.824 427.368 310.302 425.864 309.866C424.354 309.434 422.816 309.116 421.265 308.946C419.714 308.762 418.147 308.703 416.582 308.81C415.01 308.871 413.459 309.153 411.878 309.436L411.703 308.896L411.705 308.901Z" fill="#E28B6D"/>
<path d="M517.795 336.548H0.828125V348.002H517.795V336.548Z" fill="white"/>
<path d="M0.828125 336.566H517.792" stroke="white" stroke-width="2" stroke-miterlimit="10"/>
<path d="M78.1918 134.684C74.2239 113.279 53.6532 99.1427 32.2444 103.11C10.8378 107.077 -3.30072 127.646 0.667156 149.049C4.63503 170.454 25.2058 184.59 46.6146 180.623C51.9725 179.631 56.8738 177.598 61.1506 174.773L74.7895 180.718L68.2278 168.785C76.4702 159.956 80.5653 147.473 78.1941 134.686L78.1918 134.684Z" fill="#C6EAE9"/>
<path d="M24.674 155.626V143.633L23.9744 143.981C23.2567 144.337 22.4777 144.517 21.6623 144.517C18.771 144.517 16.418 142.164 16.418 139.273C16.418 136.382 18.771 134.023 21.6623 134.023C22.4731 134.023 23.2522 134.202 23.9767 134.554L24.674 134.895V122.914H35.0627C34.8992 123.47 34.8174 124.049 34.8174 124.64C34.8174 128.069 37.6065 130.857 41.0361 130.857C44.4657 130.857 47.2548 128.069 47.2548 124.64C47.2548 124.049 47.173 123.47 47.0095 122.914H57.3982V133.396C56.7509 133.169 56.0672 133.056 55.3563 133.056C51.9267 133.056 49.1376 135.844 49.1376 139.273C49.1376 142.702 51.9267 145.486 55.3563 145.486C56.0513 145.486 56.7463 145.366 57.3982 145.139V155.628H24.674V155.626Z" fill="white"/>
<path d="M56.9151 123.398V132.749C56.4109 132.629 55.8908 132.569 55.357 132.569C51.6594 132.569 48.6523 135.576 48.6523 139.273C48.6523 142.97 51.6594 145.97 55.357 145.97C55.8817 145.97 56.4064 145.906 56.9151 145.784V155.142H25.1607V142.854L23.7616 143.547C23.1098 143.869 22.4057 144.033 21.6653 144.033C19.0397 144.033 16.9047 141.898 16.9047 139.273C16.9047 136.648 19.0397 134.507 21.6653 134.507C22.4034 134.507 23.1098 134.67 23.7685 134.99L25.1607 135.669V123.398H34.4502C34.3729 123.804 34.3343 124.22 34.3343 124.64C34.3343 128.337 37.3415 131.343 41.0391 131.343C44.7367 131.343 47.7438 128.337 47.7438 124.64C47.7438 124.22 47.7052 123.804 47.628 123.398H56.9174H56.9151ZM57.8849 122.43H46.3265C46.6173 123.111 46.774 123.859 46.774 124.64C46.774 127.803 44.2029 130.374 41.0391 130.374C37.8752 130.374 35.3042 127.803 35.3042 124.64C35.3042 123.856 35.4631 123.111 35.7516 122.43H24.1932V134.12C23.4278 133.748 22.5761 133.539 21.6676 133.539C18.5037 133.539 15.9395 136.103 15.9395 139.273C15.9395 142.443 18.5037 145 21.6676 145C22.5761 145 23.43 144.791 24.1932 144.412V156.109H57.8827V144.407C57.1241 144.787 56.2655 145 55.357 145C52.1864 145 49.6221 142.436 49.6221 139.273C49.6221 136.11 52.1864 133.539 55.357 133.539C56.2655 133.539 57.1263 133.748 57.8827 134.127V122.43H57.8849Z" fill="#8CBFBE"/>
<path d="M453.225 135.161C454.538 113.431 473.221 96.881 494.953 98.1936C516.686 99.5061 533.239 118.186 531.926 139.914C530.614 161.643 511.93 178.193 490.199 176.881C484.759 176.551 479.647 175.137 475.054 172.857L462.249 180.428L467.298 167.781C458.036 160.029 452.442 148.141 453.225 135.161Z" fill="#D3DFFF"/>
<path d="M499.285 154.159C498.261 152.013 496.099 150.641 493.698 150.641C491.297 150.641 489.142 152.013 488.122 154.159H477.313V142.175L476.657 142.505C475.932 142.866 475.151 143.05 474.333 143.05C471.422 143.05 469.053 140.684 469.053 137.777C469.053 134.87 471.422 132.497 474.333 132.497C475.16 132.497 475.941 132.679 476.657 133.038L477.313 133.367V121.39H488.933L488.722 120.786C488.524 120.226 488.424 119.64 488.424 119.042C488.424 116.131 490.791 113.763 493.698 113.763C496.605 113.763 498.979 116.131 498.979 119.042C498.979 119.64 498.879 120.226 498.681 120.786L498.468 121.39H510.087V154.161H499.283L499.285 154.159Z" fill="white"/>
<path d="M493.697 114.212C496.359 114.212 498.524 116.376 498.524 119.038C498.524 119.583 498.433 120.119 498.253 120.632L497.829 121.84H509.635V153.702H499.564C498.417 151.547 496.177 150.185 493.697 150.185C491.217 150.185 488.982 151.547 487.842 153.702H477.767V141.44L476.452 142.096C475.791 142.425 475.078 142.593 474.33 142.593C471.668 142.593 469.504 140.431 469.504 137.774C469.504 135.118 471.668 132.949 474.33 132.949C475.084 132.949 475.798 133.115 476.452 133.439L477.767 134.096V121.838H489.573L489.148 120.627C488.969 120.116 488.878 119.578 488.878 119.033C488.878 116.372 491.04 114.208 493.697 114.208V114.212ZM493.697 113.299C490.533 113.299 487.969 115.87 487.969 119.033C487.969 119.696 488.083 120.334 488.292 120.927H476.858V132.624C476.1 132.245 475.241 132.036 474.333 132.036C471.162 132.036 468.598 134.6 468.598 137.77C468.598 140.94 471.162 143.497 474.333 143.497C475.241 143.497 476.102 143.281 476.858 142.904V154.606H488.417C489.275 152.542 491.317 151.088 493.697 151.088C496.078 151.088 498.126 152.542 498.992 154.606H510.545V120.927H499.112C499.321 120.334 499.434 119.696 499.434 119.033C499.434 115.87 496.87 113.299 493.7 113.299H493.697Z" fill="#708CD5"/>
<path opacity="0.1" d="M267.98 44.3655C267.98 54.3049 261.182 63.7131 252.163 66.5175H239.964C230.575 63.9469 223.67 54.5706 223.67 44.3655C223.67 32.1324 233.588 22.2134 245.826 22.2134C258.063 22.2134 267.982 32.1302 267.982 44.3655H267.98Z" fill="white"/>
<path d="M245.824 0V16.5386" stroke="#FBC343" stroke-miterlimit="10"/>
<path d="M230.306 21.2369L215.807 10.4141" stroke="#FBC343" stroke-miterlimit="10"/>
<path d="M261.344 21.2369L275.843 10.4141" stroke="#FBC343" stroke-miterlimit="10"/>
<path d="M237.932 18.1735L234.906 10.4141" stroke="#FBC343" stroke-miterlimit="10"/>
<path d="M253.719 18.1735L256.742 10.4141" stroke="#FBC343" stroke-miterlimit="10"/>
<path d="M259.991 47.1721C259.991 39.6669 253.261 33.6265 245.114 33.9966C237.887 34.3259 231.975 39.8736 231.671 46.6066C231.503 50.3626 233.022 53.7825 235.582 56.2736C238.296 58.9146 239.963 62.3368 239.963 65.9905V66.5151H252.162V65.4274C252.162 61.9348 253.711 58.6534 256.253 56.0851C258.572 53.7393 259.991 50.6124 259.991 47.1721Z" fill="#FBC343"/>
<path d="M239.725 70.9478H251.924V71.2498C251.924 74.6152 249.192 77.3493 245.823 77.3493C242.457 77.3493 239.723 74.6174 239.723 71.2498V70.9478H239.725Z" fill="#FBC343"/>
<path opacity="0.8" d="M241.282 48.5803C243.132 48.5803 244.632 47.0807 244.632 45.2308C244.632 43.381 243.132 41.8813 241.282 41.8813C239.432 41.8813 237.932 43.381 237.932 45.2308C237.932 47.0807 239.432 48.5803 241.282 48.5803Z" fill="white"/>
<path opacity="0.1" d="M368.17 80.8054V73.3048H364.591C364.127 71.1952 363.282 69.2286 362.129 67.4801L364.693 64.9163L359.389 59.6139L356.762 62.2412C355.02 61.1535 353.075 60.3632 350.997 59.9431V56.1372H343.495V60.0726C341.494 60.5472 339.627 61.367 337.958 62.466L335.103 59.6116L329.8 64.914L332.718 67.832C331.682 69.492 330.917 71.336 330.483 73.3048H326.322V80.8054H330.483C330.917 82.7742 331.68 84.6181 332.718 86.2781L329.8 89.1962L335.103 94.4986L337.958 91.6441C339.627 92.7432 341.494 93.563 343.495 94.0376V97.973H350.997V94.167C353.075 93.7469 355.02 92.9567 356.762 91.8689L359.389 94.4963L364.693 89.1939L362.129 86.6301C363.28 84.8815 364.127 82.9127 364.591 80.8054H368.17Z" fill="#F0F0F0"/>
<path opacity="0.5" d="M355.527 85.3322C360.099 80.7607 360.099 73.3487 355.527 68.7771C350.954 64.2056 343.541 64.2056 338.968 68.7771C334.396 73.3487 334.396 80.7607 338.968 85.3322C343.541 89.9038 350.954 89.9038 355.527 85.3322Z" fill="white"/>
<path opacity="0.1" d="M406.282 68.97L407.967 63.8061L405.503 63.0022C405.657 61.4467 405.519 59.9025 405.117 58.4378L407.458 57.2479L404.999 52.4042L402.598 53.6236C401.644 52.4836 400.483 51.5026 399.146 50.7464L400.002 48.1259L394.837 46.4409L393.951 49.15C392.468 49.0274 390.996 49.1727 389.602 49.5542L388.278 46.9473L383.433 49.4066L384.787 52.0726C383.699 52.9809 382.759 54.08 382.018 55.3381L379.154 54.4025L377.469 59.5664L380.333 60.502C380.187 61.9553 380.301 63.3973 380.642 64.7712L377.975 66.1246L380.435 70.9683L383.042 69.6444C383.944 70.7753 385.046 71.7586 386.315 72.5375L385.43 75.2466L390.594 76.9315L391.451 74.311C392.975 74.4881 394.492 74.3814 395.936 74.0226L397.156 76.4229L402.001 73.9635L400.81 71.6223C401.996 70.6776 403.02 69.5127 403.815 68.1638L406.28 68.9677L406.282 68.97Z" fill="#F0F0F0"/>
<path opacity="0.5" d="M400.519 65.0561C402.375 60.7577 400.394 55.769 396.095 53.9134C391.796 52.0578 386.806 54.038 384.95 58.3364C383.094 62.6347 385.075 67.6234 389.374 69.479C393.673 71.3346 398.663 69.3544 400.519 65.0561Z" fill="white"/>
<path opacity="0.1" d="M167.008 84.0806L170.79 78.9167L168.326 77.1114C169.071 75.4241 169.479 73.6438 169.568 71.8589L172.627 71.3866L171.651 65.06L168.516 65.5437C167.867 63.9178 166.927 62.3917 165.707 61.0565L167.626 58.4359L162.461 54.655L160.476 57.3664C158.859 56.6851 157.16 56.3082 155.457 56.2241L154.93 52.8179L148.602 53.7943L149.14 57.2755C147.589 57.8955 146.133 58.7788 144.841 59.9165L141.977 57.8183L138.195 62.9822L141.059 65.0804C140.364 66.6541 139.96 68.3096 139.837 69.9741L136.355 70.5123L137.332 76.8389L140.739 76.312C141.334 77.9107 142.206 79.4163 143.344 80.7515L141.359 83.4629L146.524 87.2439L148.443 84.6233C150.085 85.3818 151.823 85.8178 153.572 85.9472L154.055 89.081L160.383 88.1045L159.911 85.0457C161.587 84.4212 163.161 83.4947 164.544 82.2753L167.008 84.0806Z" fill="#F0F0F0"/>
<path opacity="0.5" d="M164.487 71.4123C164.739 65.901 160.475 61.2288 154.963 60.9767C149.45 60.7245 144.777 64.9878 144.525 70.499C144.273 76.0103 148.537 80.6825 154.049 80.9347C159.561 81.1869 164.234 76.9235 164.487 71.4123Z" fill="white"/>
<path opacity="0.1" d="M120.748 72.8101L124.514 70.1056L123.222 68.3093C124.114 67.3147 124.796 66.1815 125.259 64.9735L127.471 65.3345L128.221 60.7588L125.954 60.3886C125.872 59.1215 125.568 57.8612 125.03 56.6667L126.94 55.2951L124.235 51.5301L122.259 52.9493C121.298 52.1182 120.215 51.4756 119.061 51.035L119.465 48.5712L114.889 47.8218L114.477 50.3401C113.271 50.4174 112.068 50.6989 110.925 51.1917L109.424 49.1048L105.658 51.8094L107.159 53.8963C106.328 54.8228 105.676 55.8719 105.218 56.9914L102.699 56.5804L101.949 61.1562L104.414 61.5604C104.463 62.7935 104.727 64.0265 105.208 65.2028L103.232 66.6221L105.938 70.3872L107.848 69.0156C108.808 69.908 109.905 70.5983 111.08 71.0798L110.709 73.3461L115.286 74.0954L115.647 71.8836C116.942 71.8314 118.234 71.5453 119.461 71.0184L120.753 72.8147L120.748 72.8101Z" fill="#F0F0F0"/>
<path opacity="0.5" d="M116.784 67.9998C120.669 67.0589 123.054 63.1481 122.113 59.2647C121.172 55.3813 117.261 52.996 113.376 53.9369C109.492 54.8779 107.107 58.7887 108.048 62.6721C108.989 66.5554 112.9 68.9408 116.784 67.9998Z" fill="white"/>
</g>
<defs>
<clipPath id="clip0_1248_5828">
<rect width="532" height="348" fill="white"/>
</clipPath>
</defs>
</svg>
