<svg width="573" height="370" viewBox="0 0 573 370" fill="none" xmlns="http://www.w3.org/2000/svg">
<g style="mix-blend-mode:multiply" opacity="0.3">
<g style="mix-blend-mode:multiply" opacity="0.3">
<path d="M572.229 336.899C572.229 355.821 444.214 370 286.298 370C128.382 370 0.378906 355.821 0.378906 336.899C0.378906 317.977 128.394 301.461 286.31 301.461C444.226 301.461 572.241 317.965 572.241 336.899H572.229Z" fill="#76A3E8"/>
</g>
</g>
<path d="M241.481 300.783C240.99 303.376 242.778 305.012 242.778 305.012C242.778 305.012 237.253 311.027 230.759 311.506C224.264 311.996 220.363 308.738 220.363 308.738C220.363 308.738 228.154 304.836 229.299 301.589C230.432 298.342 241.481 300.783 241.481 300.783Z" fill="#F0BB8F"/>
<path d="M242.777 305.012C244.366 306.005 243.606 312.919 243.606 312.919C243.606 312.919 227.488 320.43 219.16 319.192C210.82 317.954 210.271 313.831 212.817 312.172C215.364 310.513 222.08 307.815 222.08 307.815L224.661 304.591C224.661 304.591 226.121 304.405 227.628 305.736C229.135 307.068 227.277 309.205 227.277 309.205C227.277 309.205 230.793 309.415 234.578 308.516C238.374 307.617 242.765 305.012 242.765 305.012H242.777Z" fill="#412332"/>
<path d="M211.019 294.873C210.563 297.338 212.245 298.868 212.245 298.868C212.245 298.868 207.024 304.556 200.869 305.012C194.725 305.479 191.034 302.395 191.034 302.395C191.034 302.395 198.404 298.704 199.491 295.633C200.565 292.561 211.007 294.862 211.007 294.862L211.019 294.873Z" fill="#F0BB8F"/>
<path d="M212.256 298.868C213.763 299.803 213.039 306.355 213.039 306.355C213.039 306.355 197.796 313.457 189.912 312.289C182.028 311.121 181.502 307.22 183.92 305.655C186.326 304.089 192.68 301.531 192.68 301.531L195.133 298.483C195.133 298.483 196.511 298.308 197.936 299.569C199.361 300.831 197.609 302.851 197.609 302.851C197.609 302.851 200.926 303.05 204.512 302.197C208.098 301.356 212.268 298.88 212.268 298.88L212.256 298.868Z" fill="#412332"/>
<path d="M240.242 237.886C237.404 228.25 236.902 197.297 236.61 186.633C236.33 175.969 236.038 172.185 235.045 166.789L209.453 156.499L189.971 170.643C189.971 170.643 189.399 195.756 189.562 201.958C189.726 208.16 189.819 237.29 191.676 242.663C193.533 248.036 193.533 250.933 193.323 257.334C193.136 263.139 194.141 289.349 194.328 294.173C194.339 294.663 194.62 295.096 195.063 295.306C201.499 298.436 209.617 296.988 212.233 296.392C212.771 296.275 213.144 295.843 213.214 295.294C213.985 289.115 215.235 267.075 215.422 260.219C215.632 252.989 213.355 249.683 211.906 244.719C210.925 241.355 212.303 214.269 212.385 200.918C215.072 215.775 220.631 246.307 221.414 248.655C222.442 251.75 224.1 255.885 224.93 268.079C225.666 278.883 226.226 297.151 226.355 301.169C226.366 301.672 226.647 302.127 227.102 302.326C231.809 304.358 239.81 302.828 242.567 302.197C243.139 302.069 243.548 301.59 243.583 301.006C243.782 297.21 244.552 282.785 245.136 269.177C245.826 253.351 243.069 247.511 240.231 237.874L240.242 237.886Z" fill="#FCFFFF"/>
<g opacity="0.5">
<path opacity="0.5" d="M204.047 237.886C206.102 244.053 206.172 297.198 206.172 297.198C208.847 297.069 211.09 296.661 212.234 296.392C212.772 296.275 213.146 295.843 213.216 295.294C213.986 289.115 215.236 267.075 215.423 260.218C215.633 252.988 213.356 249.683 211.907 244.719C210.926 241.355 212.305 214.269 212.386 200.918L211.849 169.627L205.028 172.22C205.028 172.22 201.968 231.707 204.023 237.874L204.047 237.886Z" fill="#E4E7F4"/>
</g>
<g opacity="0.5">
<path opacity="0.5" d="M232.99 237.886C236.915 248.748 237.242 294.079 236.179 303.201C238.865 302.968 241.295 302.489 242.58 302.197C243.152 302.068 243.561 301.59 243.596 301.006C243.794 297.209 244.565 282.784 245.149 269.177C245.838 253.35 243.082 247.51 240.244 237.874C237.405 228.238 236.903 197.285 236.611 186.621C236.331 175.957 235.805 175.409 235.782 169.557L213.963 157.608C210.284 158.297 207.177 158.799 205.051 158.869L202.47 159.138L195.742 168.424C207.259 174.579 225.223 171.367 225.223 171.367C225.223 171.367 228.785 226.229 232.99 237.862V237.886Z" fill="#E4E7F4"/>
</g>
<path d="M197.05 68.3477C194.48 86.3351 196.138 101.461 196.138 101.461L220.363 99.195L212.561 68.3593H197.061L197.05 68.3477Z" fill="#8A3F24"/>
<path d="M207.317 94.4301C205.39 94.7105 200.262 95.3996 197.108 96.6377C193.955 97.8758 191.198 101.041 188.442 109.86C186.83 115.011 185.603 120.01 184.856 123.292C184.33 125.628 181.69 139.866 181.69 139.866L212.409 140.847V99.9315L207.305 94.4185L207.317 94.4301Z" fill="#8F8894"/>
<path d="M207.316 94.4302C205.389 94.7105 200.262 95.3996 197.108 96.6377C194.211 97.7824 191.653 100.597 189.119 107.886L189.411 108.353C192.132 103.763 196.033 100.667 198.089 99.8147C200.145 98.9504 206.662 97.6189 206.662 97.6189L208.344 95.5515L207.316 94.4419V94.4302Z" fill="#7E7982"/>
<path d="M207.456 89.7463C208.286 91.6619 207.316 95.1192 206.487 96.3573C205.658 97.5954 206.207 102.139 211.579 103.108C216.952 104.078 220.538 102.139 222.325 99.9431C224.112 97.7356 222.325 82.9952 222.325 82.9952L217.501 80.0635L207.445 89.7463H207.456Z" fill="#F0BB8F"/>
<path d="M192.343 125.756C191.689 120.068 195.882 109.988 195.882 109.988C195.882 109.988 193.978 121.785 195.882 126.282L192.343 125.756Z" fill="#7E7982"/>
<g opacity="0.5">
<path opacity="0.5" d="M223.071 92.1755C222.978 89.8745 222.791 87.5268 222.616 85.7748C220.7 84.6885 218.68 83.9644 218.68 83.9644C218.68 83.9644 216.005 84.0228 213.237 84.1512L207.443 89.7227C207.852 90.6688 207.817 92.0003 207.584 93.2501C207.654 93.2618 216.659 95.0722 223.06 92.1522L223.071 92.1755Z" fill="#E8AB79"/>
</g>
<path d="M220.597 76.8979C222.268 81.0677 220.037 85.5178 216.147 88.2977C212.258 91.0776 207.808 93.0282 205.296 90.5286C202.797 88.0291 199.643 83.7892 199.643 81.0093C199.643 78.2294 196.396 78.0192 197.225 72.1791C198.055 66.339 201.956 62.4495 204.175 61.8888C206.406 61.3282 219.745 67.4486 219.745 67.4486L220.586 76.8979H220.597Z" fill="#F0BB8F"/>
<path d="M202.888 62.5078C203.11 63.781 201.533 68.2545 198.917 71.4198C196.301 74.5851 199.022 78.0308 197.118 81.2078C195.203 84.3731 200.552 94.1611 197.118 97.8754C193.684 101.601 190.379 101.73 189.421 108.341C189.421 108.341 186.524 102.139 188.592 97.4549C190.659 92.7712 192.995 90.295 190.928 86.02C188.86 81.7451 188.311 74.8654 190.647 72.3776C192.995 69.9014 195.553 64.108 195.378 60.674C195.203 57.2284 202.363 49.5194 206.497 52.4045L202.9 62.5078H202.888Z" fill="#A0593F"/>
<path d="M234.32 129.284C231.786 138.523 231.949 143.51 233.771 149.397C235.336 154.454 236.189 166.625 236.621 170.024C236.75 171.017 236.259 171.94 235.395 172.418C232.638 173.949 225.502 176.857 211.229 176.857C196.091 176.857 191.337 172.524 189.982 170.631C189.644 170.152 189.527 169.557 189.609 168.973C189.994 166.275 191.244 150.635 191.536 147.143C191.886 142.996 197.937 115.174 197.937 115.174L207.094 100.422L227.312 91.6733L235.582 96.0651L234.344 129.272L234.32 129.284Z" fill="#8F8894"/>
<path d="M200.144 126.69C199.806 125.499 198.357 122.813 196.43 122.883C194.503 122.953 191.816 123.572 190.987 123.922C190.158 124.261 188.721 126.41 188.721 126.41L200.156 126.702L200.144 126.69Z" fill="#F0BB8F"/>
<path d="M189.48 145.121C188.441 146.289 186.514 146.36 184.516 145.811C182.519 145.262 181.48 140.882 181.69 139.865C181.9 138.849 185.357 132.519 185.357 132.519L189.48 145.121Z" fill="#F0BB8F"/>
<path d="M208.648 126.807L217.104 152.013C217.256 152.468 216.906 152.935 216.427 152.912L192.751 151.884C192.471 151.872 192.226 151.686 192.132 151.417L184.014 126.643C183.863 126.199 184.213 125.744 184.68 125.756L208.017 126.351C208.298 126.351 208.554 126.538 208.648 126.818V126.807Z" fill="#C3C6D5"/>
<path d="M236.611 170.024C236.179 166.625 235.326 154.466 233.761 149.397C231.939 143.51 231.775 138.522 234.31 129.283C232.593 123.782 231.144 112.195 231.144 112.195C231.144 112.195 226.18 133.36 226.846 139.854C227.512 146.325 228.236 174.895 228.236 175.046C231.763 174.159 234.076 173.143 235.373 172.418C236.237 171.928 236.728 171.005 236.599 170.024H236.611Z" fill="#7E7982"/>
<path d="M208.226 127.344L216.694 152.55C216.846 153.006 216.496 153.473 216.017 153.45L192.341 152.422C192.061 152.422 191.815 152.223 191.722 151.955L183.604 127.181C183.464 126.737 183.803 126.282 184.27 126.293L207.607 126.889C207.899 126.889 208.144 127.076 208.238 127.356L208.226 127.344Z" fill="#D9DFED"/>
<g opacity="0.5">
<path opacity="0.5" d="M216.683 152.55L208.215 127.345C208.121 127.076 207.876 126.889 207.584 126.877L206.65 126.854C208.694 134.89 213.833 150.576 213.553 150.903C213.307 151.196 195.448 150.974 191.372 150.915L191.711 151.943C191.793 152.212 192.05 152.399 192.33 152.41L216.006 153.438C216.484 153.461 216.835 152.994 216.683 152.539V152.55Z" fill="#C3C6D5"/>
</g>
<path d="M231.144 140.859C228.388 140.94 222.77 142.26 220.784 142.389C218.798 142.517 216.182 140.952 214.897 139.434C213.356 137.611 211.627 137.506 211.627 137.506L212.748 140.859C212.748 140.859 211.919 140.847 208.812 140.859C205.705 140.87 203.462 138.301 202.995 138.896C202.528 139.492 203.462 143.393 204.046 144.246C204.642 145.098 207.877 145.963 209.197 146.36C210.517 146.757 215.271 146.231 216.988 146.36C218.717 146.488 228.867 148.941 233.737 149.397C238.608 149.852 237.755 143.452 237.755 143.452L231.121 140.859H231.144Z" fill="#F0BB8F"/>
<path d="M235.559 96.0884C241.621 98.5646 243.548 101.181 245.487 107.114C247.414 113.036 248.792 133.57 249.201 139.212C249.622 144.853 249.201 147.481 247.963 148.03C246.725 148.579 242.181 149.817 233.772 149.408C233.772 149.408 235.699 142.517 231.155 140.87C231.155 140.87 236.388 140.321 238.315 140.87C238.315 140.87 234.928 132.484 233.561 126.702L235.559 96.1001V96.0884Z" fill="#8F8894"/>
<path d="M202.89 62.5078C202.353 66.5959 212.924 70.2284 217.082 72.9032C220.539 75.1341 216.276 86.0201 221.17 89.1854C226.064 92.3507 217.934 96.6257 221.17 101.999C224.405 107.371 220.13 112.195 220.13 112.195C220.13 112.195 227.571 109.719 227.711 105.176C227.851 100.632 229.498 93.6005 235.56 96.0884C235.56 96.0884 237.078 88.3678 234.053 85.4828C231.016 82.5861 229.229 75.286 230.888 73.0784C232.535 70.8709 229.241 60.4054 225.235 60.6857C221.24 60.9544 218.892 47.7324 206.5 52.4162L202.902 62.5195L202.89 62.5078Z" fill="#A0593F"/>
<path d="M200.413 137.775C200.857 139.013 200.296 140.345 199.081 140.742C197.762 141.174 196.22 140.368 195.741 138.931C195.274 137.506 196.08 136.175 197.423 135.941C198.673 135.719 199.969 136.549 200.413 137.775Z" fill="white"/>
<g opacity="0.3">
<path opacity="0.3" d="M200.144 126.69L189.48 145.122L190.695 148.859L202.281 126.737L200.144 126.69Z" fill="white"/>
</g>
<g opacity="0.3">
<path opacity="0.3" d="M205.051 126.807L195.076 152.527L198.93 152.702L206.651 126.854L205.051 126.807Z" fill="white"/>
</g>
<path d="M246.176 109.988C246.176 110.058 247.636 142.681 246.971 144.281C246.305 145.881 238.199 148.497 234.146 146.769V146.792C234.064 148.252 233.76 149.397 233.76 149.397C242.158 149.806 246.702 148.567 247.952 148.018C249.19 147.47 249.61 144.853 249.19 139.2C248.828 134.259 247.73 117.977 246.176 109.988Z" fill="#7E7982"/>
<g opacity="0.5">
<path opacity="0.5" d="M198.909 71.4199C199.061 71.2331 199.201 71.0228 199.353 70.8359C199.212 70.9761 199.061 71.163 198.909 71.4199Z" fill="#8A3F24"/>
</g>
<g opacity="0.5">
<path opacity="0.5" d="M230.875 73.0781C226.881 75.2974 232.055 86.9425 225.561 86.0548C217.21 84.9102 220.468 78.3225 218.132 74.398C219.487 78.159 216.988 86.487 221.169 89.1968C226.063 92.3621 217.934 96.6371 221.169 102.01C224.405 107.383 220.13 112.207 220.13 112.207C220.13 112.207 227.57 109.731 227.71 105.187C227.85 100.643 229.497 93.6119 235.559 96.0998C235.559 96.0998 237.078 88.3792 234.052 85.4942C231.016 82.5975 229.229 75.2974 230.887 73.0898L230.875 73.0781Z" fill="#8A3F24"/>
</g>
<g opacity="0.5">
<path opacity="0.5" d="M196.687 82.9248C194.55 90.038 189.387 84.0928 189.13 77.8906C189.13 80.6238 189.796 83.7074 190.905 86.0317C192.973 90.3067 190.625 92.7829 188.569 97.4666C186.502 102.15 189.399 108.353 189.399 108.353C190.368 101.742 193.674 101.601 197.096 97.8871C200.039 94.6984 196.524 87.0362 196.687 82.9365V82.9248Z" fill="#8A3F24"/>
</g>
<path d="M481.347 204.06C479.852 219.945 476.99 232.454 477.236 236.425C477.481 240.397 480.179 250.488 477.201 264.213C475.157 273.638 471.524 286.557 471.769 294.009C472.015 301.461 474 305.922 474 311.389C474 316.855 473.51 318.338 466.805 318.338C459.762 318.338 461.643 310.174 462.367 306.448C463.091 302.722 464.586 296.228 464.82 293.016C465.392 285.073 463.126 266.876 462.857 261.771C462.367 252.287 463.582 244.882 464.82 237.675C465.334 234.673 463.698 227.56 462.776 221.194C461.491 212.271 460.638 204.071 460.638 204.071H481.335L481.347 204.06Z" fill="#F0BB8F"/>
<path d="M436.67 201.817C431.203 215.716 431.647 230.398 431.157 232.874C430.666 235.351 427.828 243.854 424.604 252.789C421.38 261.725 415.692 289.535 413.707 294.99C411.721 300.456 409.233 306.658 406.757 308.901C404.269 311.132 398.569 312.124 398.067 315.103C397.576 318.081 413.461 317.591 413.964 316.341C414.454 315.103 415.202 308.889 418.437 307.149C421.661 305.408 425.141 302.43 423.646 299.452C422.151 296.473 420.668 295.48 422.408 291.754C424.149 288.028 430.327 271.629 435.292 266.046C440.256 260.463 441.097 244.029 444.075 239.812C447.053 235.596 456.853 214.992 458.593 209.28C460.334 203.569 436.681 201.805 436.681 201.805L436.67 201.817Z" fill="#F0BB8F"/>
<path d="M423.753 301.752C422.889 304.766 421.826 313.643 421.826 316.726H419.677C419.677 316.726 420.238 310.174 419.408 305.7C418.579 301.227 423.753 301.752 423.753 301.752Z" fill="#D1213D"/>
<path d="M466.806 318.326C473.511 318.326 474.001 316.843 474.001 311.377C474.001 309.683 473.803 308.095 473.534 306.483C473.557 306.716 473.873 311.377 468.874 311.283C463.746 311.19 461.912 308.83 462.368 306.436C461.643 310.162 459.775 318.326 466.806 318.326Z" fill="#D1213D"/>
<path d="M418.426 307.16C421.65 305.42 425.13 302.442 423.635 299.463C423.086 298.377 422.549 297.548 422.164 296.753C422.164 296.753 415.938 300.888 414.104 305.175C412.27 309.461 408.883 313.69 402.821 311.167C400.579 312.23 398.371 313.304 398.067 315.103C397.565 318.081 413.462 317.591 413.952 316.341C414.443 315.103 415.19 308.889 418.426 307.149V307.16Z" fill="#D1213D"/>
<path d="M474.257 79.4786C479.899 82.9709 484.594 78.3456 484.349 71.3842C484.092 64.4228 476.523 62.916 475.565 65.3338C474.608 67.74 474.257 79.4902 474.257 79.4902V79.4786Z" fill="#694329"/>
<path d="M474.947 75.4138C474.947 75.4138 474.889 69.5386 475.286 66.3616C475.368 65.9411 475.461 65.5674 475.566 65.3221C476.337 63.3832 481.36 63.9789 483.451 67.8917C483.672 68.4174 483.824 68.9897 483.883 69.6321C484.362 74.9349 480.215 78.2754 474.947 75.4138Z" fill="#7A553C"/>
<path d="M442.066 166.145C441.26 168.329 438.352 168.832 434.124 196.712C431.764 212.224 431.647 225.983 431.647 225.983C431.647 225.983 467.085 234.673 481.534 227.922C481.534 227.922 484.64 213.648 484.64 201.127C484.64 174.637 485.937 174.461 479.63 164.72L442.066 166.145Z" fill="#8F8894"/>
<path d="M446.095 73.8602C446.095 73.8602 444.915 68.0785 446.212 64.0255C447.683 59.3184 451.806 53.7937 460.31 54.2375C468.824 54.6697 446.095 73.8719 446.095 73.8719V73.8602Z" fill="#7A553C"/>
<path d="M448.454 65.5904C451.035 58.9561 455.941 52.6137 465.414 54.6928C475.4 56.9004 478.974 66.5365 478.017 72.1547C477.059 77.7612 475.412 81.1484 474.735 82.1413C471.978 86.1709 468.579 87.1053 466.92 90.3758C465.274 93.6579 448.454 65.5904 448.454 65.5904Z" fill="#7A553C"/>
<path d="M479.102 101.157C479.102 101.098 479.102 101.028 479.079 100.97C479.079 100.935 479.067 100.912 479.056 100.888C479.032 100.818 479.021 100.748 478.997 100.69C478.997 100.678 478.986 100.666 478.974 100.643C478.939 100.573 478.904 100.503 478.845 100.433C478.659 100.199 478.378 100.024 477.946 99.8954C475.774 99.2296 472.363 98.9376 469.805 97.8631C467.224 96.3563 467.072 91.1236 467.305 88.6474C467.469 86.907 467.995 83.403 468.672 81.7444C468.649 81.721 468.625 81.686 468.614 81.6743L456.326 88.4255H453.278C453.278 88.4255 453.418 89.1029 453.523 90.0724C453.429 90.1541 453.348 90.2125 453.278 90.2476C453.359 90.2709 453.453 90.306 453.558 90.341C453.803 92.607 453.885 96.1694 452.156 97.1739C450.357 98.2135 449.026 98.8559 446.83 99.288C446.83 99.3348 446.853 99.3698 446.853 99.4165V107.347C452.507 107.815 453.815 117.03 459.363 117.054C464.304 117.077 473.134 108.819 478.075 107.242C478.32 107.242 478.553 107.242 478.799 107.254C478.787 107.137 478.775 107.032 478.764 106.927C478.74 106.693 478.717 106.46 478.717 106.238V106.203C478.624 104.17 479.009 102.71 479.091 101.694C479.091 101.589 479.091 101.507 479.091 101.425C479.091 101.379 479.091 101.332 479.091 101.297C479.091 101.239 479.091 101.192 479.079 101.145L479.102 101.157Z" fill="#F0BB8F"/>
<path d="M453.278 90.2592C452.986 90.1541 452.811 90.084 452.811 90.084C452.811 90.084 452.694 90.633 453.278 90.2592Z" fill="#F0BB8F"/>
<g opacity="0.5">
<path opacity="0.5" d="M468.672 81.7444C468.252 82.7723 467.878 84.1622 467.562 86.5333C467.329 88.2503 466.967 90.5396 467.422 93.3078C466.651 93.5998 464.631 94.4291 463.65 94.6393C457.716 95.9241 453.044 96.1928 453.044 96.1928C453.044 96.1928 454.551 91.7543 453.254 89.6986L468.614 81.6743C468.614 81.6743 468.649 81.721 468.672 81.7444Z" fill="#E8AB79"/>
</g>
<path d="M469.619 83.041C468.614 84.9215 467.843 87.5962 464.211 89.6636C460.578 91.7661 454.902 94.3591 453.243 94.1021C451.596 93.8335 450.253 94.1255 448.419 89.4884C446.574 84.8631 445.02 82.6088 445.534 78.2521C446.048 73.9187 445.744 64.8432 451.549 62.4371C455.848 60.6267 462.062 62.7758 464.9 66.8172C467.738 70.8702 467.61 72.1901 467.937 77.9134C467.937 77.9134 471.371 74.5378 472.527 74.5495C473.683 74.5728 474.524 75.4605 473.52 77.7148C472.515 79.9808 472.001 79.5019 471.733 80.6932C471.452 81.8846 471.16 83.076 470.483 83.4031C469.642 83.8119 469.63 83.0293 469.63 83.0293L469.619 83.041Z" fill="#F0BB8F"/>
<path d="M454.55 61.5146C454.55 61.5146 458.696 75.2972 467.713 79.397L473.822 69.0016L466.499 60.4634L454.55 61.5146Z" fill="#7A553C"/>
<path d="M456.313 62.3434C456.313 62.3434 450.205 68.5105 445.79 69.7019C445.79 69.7019 447.647 59.7387 454.047 56.4683L456.313 62.3434Z" fill="#7A553C"/>
<path d="M474.417 60.1826C477.536 66.1746 474.079 73.6732 467.561 72.9257C461.231 72.2015 457.47 66.7469 455.332 63.7684C456.921 67.8215 460.927 76.3246 467.701 79.3965L469.325 76.64C470.411 75.6822 471.836 74.5492 472.514 74.5609C473.67 74.5843 474.511 75.472 473.506 77.7263C472.502 79.9922 471.988 79.5133 471.719 80.7047C471.439 81.8961 471.147 83.0875 470.47 83.4145C469.629 83.8233 469.617 83.0407 469.617 83.0407C469.15 83.9167 468.706 84.9796 468.017 86.0542C467.608 87.2806 467.444 88.3319 467.234 89.8269C468.916 86.6966 472.023 86.1009 474.721 82.1414C475.399 81.1486 477.034 77.7613 478.003 72.1548C478.576 68.7792 477.513 63.967 474.417 60.1826Z" fill="#694329"/>
<path d="M440.723 168.937C440.466 169.475 440.186 170.105 439.894 170.806C456.164 178.947 468.849 179.263 468.849 179.263C468.849 179.263 465.473 217.854 462.133 230.504C470.017 230.141 476.523 230.27 481.533 227.934C481.533 227.934 484.64 213.661 484.64 201.14C484.64 174.649 485.937 174.474 479.63 164.732L446.283 165.994L440.711 168.949L440.723 168.937Z" fill="#7E7982"/>
<path d="M471.675 99.2295C471.675 99.2295 462.541 104.859 459.06 104.871C453.933 104.894 446.831 100.269 446.831 100.269L448.922 152.304H472.784L471.663 99.2295H471.675Z" fill="#F8F3E0"/>
<path d="M436.998 114.683C438.61 107.441 433.109 106.845 435.281 103.587C436.566 101.683 438.856 100.153 442.278 99.9072C446.249 99.6269 450.945 97.8398 450.945 97.8398L459.354 117.054L470.871 98.4239C470.871 98.4239 480.507 100.351 484.735 100.643C492.106 101.169 493.601 106.483 495.201 113.725C496.813 120.955 499.289 133.64 500.001 136.957C501.286 142.879 501.263 145.542 500.387 149.081C499.604 152.234 496.789 154.582 494.15 155.703H491.814C491.814 155.703 484.432 157.128 482.633 155.703C479.479 153.204 483.018 164.756 483.859 168.996C483.964 169.498 483.684 169.977 483.194 170.14C479.187 171.483 461.165 176.681 438.482 170.093C437.991 169.953 437.664 169.498 437.723 168.996C438.295 163.845 441.168 143.731 438.645 135.018C437.699 131.759 435.375 121.901 436.975 114.671L436.998 114.683Z" fill="#D1213D"/>
<path d="M483.216 170.152C483.706 169.988 483.987 169.51 483.882 169.007C483.041 164.767 479.502 153.204 482.655 155.715C483.111 156.077 483.94 156.253 484.91 156.323L479.093 152.9L477.271 164.732C477.271 164.732 448.012 168.178 438.294 163.576C438.049 166.052 437.85 167.991 437.733 169.031C437.675 169.533 438.002 169.988 438.493 170.129C461.175 176.716 479.198 171.519 483.204 170.175L483.216 170.152Z" fill="#B0172F"/>
<path d="M480.528 147.188C480.528 147.188 487.525 143.311 487.84 142.785C488.179 142.259 480.528 118.175 480.528 118.175C480.528 118.175 481.673 138.405 481.778 139.888C481.895 141.372 480.528 147.188 480.528 147.188Z" fill="#B0172F"/>
<path d="M484.91 145.343C483.018 145.88 477.318 148.205 477.715 150.202C478.112 152.199 479.117 152.059 479.105 152.888C479.105 153.718 479.409 154.22 480.004 155.259C480.612 156.299 482.107 156.895 482.644 157.747C483.17 158.588 484.116 160.235 486.218 159.336C488.321 158.46 491.322 156.614 491.825 155.843C492.315 155.084 492.245 153.741 491.486 153.04C490.738 152.328 490.715 150.996 490.236 150.401C489.722 149.805 489.01 149.268 488.729 148.532C488.449 147.796 487.585 147.34 487.445 146.967C487.304 146.604 486.428 144.911 484.898 145.343H484.91Z" fill="#F0BB8F"/>
<path d="M445.805 100.655C445.805 100.655 439.439 99.2184 436.052 102.652C430.901 107.862 429.277 116.961 427.595 128.723C426.649 135.369 425.154 143.042 425.026 145.706C424.909 148.369 436.916 150.646 436.916 150.646L442.885 127.006C442.885 127.006 443.889 124.938 445.361 119.799C448.071 110.385 445.793 100.655 445.793 100.655H445.805Z" fill="#D1213D"/>
<path d="M439.544 140.216L439.976 110.758C439.976 110.758 434.603 127.519 431.999 130.615L432.279 149.548C434.755 150.226 436.916 150.634 436.916 150.634L439.544 140.216Z" fill="#B0172F"/>
<path d="M423.25 129.925C423.25 129.925 416.522 128.045 415.366 126.795C414.209 125.569 412.13 119.39 413.333 117.451C414.571 115.5 416.429 113.375 417.083 114.461C417.76 115.559 417.048 116.131 417.048 116.131C417.048 116.131 419.045 113.55 419.933 114.075C420.82 114.613 420.131 118.199 419.606 119.343C419.08 120.476 421.007 120.955 422.175 120.92C423.308 120.897 427.046 119.343 431.94 125.16C431.94 125.16 431.531 129.622 429.394 130.393C427.268 131.164 423.904 131.094 423.238 129.925H423.25Z" fill="#F0BB8F"/>
<g opacity="0.5">
<path opacity="0.5" d="M429.404 130.393C427.279 131.164 423.915 131.094 423.249 129.926C423.249 129.926 416.521 128.045 415.365 126.795C414.208 125.557 412.129 119.39 413.332 117.451C414.033 124.191 426.835 131.853 431.951 125.16C431.951 125.16 431.542 129.622 429.404 130.393Z" fill="#E8AB79"/>
</g>
<path d="M423.25 129.925C423.25 129.925 420.821 155.622 433.354 153.683C445.232 151.861 431.952 125.16 431.952 125.16C431.952 125.16 429.709 132.612 423.25 129.925Z" fill="#D1213D"/>
<path d="M271.042 118.467C268.636 117.03 262.27 115.302 260.646 113.036C259.035 110.77 258.497 110.384 256.477 108.317C254.444 106.25 253.685 102.909 251.991 102.944C250.298 102.979 251.162 106.752 252.377 108.107C253.592 109.462 254.689 111.763 253.93 111.903C253.171 112.043 249.831 112.043 248.347 111.681C246.654 111.26 238.98 108.994 238.034 109.929C237.041 110.922 237.917 111.809 239.248 112.475C240.568 113.141 246.817 114.402 247.226 114.718C247.494 114.916 244.084 114.239 241.911 113.631C239.739 113.024 237.742 112.907 237.847 114.356C237.975 116.084 243.255 117.194 243.371 117.696C243.488 118.198 244.341 120.453 245.801 120.628C245.801 120.628 246.981 122.789 248.441 122.941C249.901 123.092 251.688 123.046 253.802 123.992C255.344 124.681 257.831 124.377 259.817 124.225C260.553 124.167 266.136 127.706 266.65 127.753C269.395 127.986 271.042 118.455 271.042 118.455V118.467Z" fill="#F0BB8F"/>
<path d="M377.53 307.289C377.647 309.625 380.544 311.961 382.541 314.075C384.55 316.189 385.099 317.533 382.985 320.196C380.871 322.871 371.702 323.396 368.081 321.913C365.64 320.908 363.28 311.844 361.388 311.284C359.496 310.735 358.982 310.992 358.632 309.135C358.27 307.277 358.632 303.166 358.632 303.166L377.518 307.289H377.53Z" fill="#412332"/>
<path d="M339.488 302.045C339.78 303.586 340.481 305.549 338.799 306.95C337.117 308.352 335.435 308.772 334.115 308.772C332.795 308.772 332.573 311.295 330.471 313.258C328.368 315.22 326.137 316.622 321.442 317.042C316.758 317.463 312.623 316.622 312.133 316.131C311.642 315.64 311.152 311.646 312.133 310.244C313.114 308.843 317.599 307.371 318.37 306.53C319.141 305.689 321.033 303.446 321.524 301.624C322.014 299.802 339.511 302.045 339.511 302.045H339.488Z" fill="#412332"/>
<path d="M365.382 179.145C366.06 185.254 368.127 200.719 369.681 215.658C370.931 227.747 373.944 248.409 373.944 251.855C373.944 255.3 379.048 306.167 379.048 306.167C379.048 306.167 378.499 308.025 375.182 307.067C369.365 305.397 361.178 307.23 358.503 307.616C355.828 308.001 357.884 284.372 354.438 265.626C350.992 246.879 339.896 196.385 339.896 196.385C339.896 196.385 339.125 235.794 339.896 244.59C340.667 253.385 341.041 300.152 340.667 301.297C340.282 302.441 335.306 302.827 332.246 301.682C329.186 300.538 320.005 302.64 319.433 301.869C318.86 301.098 320.005 287.713 320.963 280.249C321.92 272.797 320.46 254.144 319.281 248.409C318.101 242.674 316.758 222.783 316.372 216.277C315.987 209.771 315.73 179.134 315.73 179.134H365.394L365.382 179.145Z" fill="#294490"/>
<path d="M332.107 296.111C331.651 297.337 319.13 301.379 319.34 297.84C319.235 300.07 319.235 301.624 319.422 301.869C319.994 302.64 329.175 300.526 332.235 301.682C335.295 302.827 340.271 302.453 340.657 301.297C341.042 300.152 340.657 253.385 339.886 244.59C339.115 235.783 339.886 196.385 339.886 196.385L338.472 179.146H326.582C326.582 179.146 326.734 213.018 328.346 226.041C329.958 239.065 332.562 294.884 332.107 296.111Z" fill="#183178"/>
<path d="M375.181 307.079C378.498 308.036 379.047 306.179 379.047 306.179C379.047 306.179 373.942 255.312 373.942 251.866C373.942 248.421 370.929 227.758 369.679 215.669C368.137 200.731 366.058 185.254 365.381 179.157H351.937C353.572 190.253 364.201 248.514 365.568 254.494C367.051 260.989 369.796 302.558 369.796 302.558C369.796 302.558 361.748 303.084 357.263 304.088C357.508 306.378 357.871 307.721 358.49 307.628C361.164 307.242 369.364 305.408 375.169 307.079H375.181Z" fill="#183178"/>
<path d="M433.899 178.678C433.806 177.872 425.373 170.397 425.513 170.222C425.653 170.047 427.802 171.764 430.815 174.041C433.829 176.319 434.612 176.588 434.915 175.186C435.219 173.784 428.082 168.481 426.447 166.87C424.8 165.258 422.651 162.852 423.107 161.964C423.562 161.065 425.63 162.139 428.176 162.746C430.71 163.342 432.24 162.104 432.392 161.403C432.544 160.702 428.608 159.803 425.665 158.588C422.733 157.374 421.436 157.514 418.668 157.502C416.986 157.49 415.608 157.128 414.545 156.755C413.494 156.229 412.454 155.692 411.567 155.166C408.81 153.543 389.771 132.086 389.771 132.086C388.93 131.864 388.043 131.724 387.155 131.642C380.941 131.093 374.167 133.826 373.022 136.641C374.879 139.888 394.759 153.975 402.339 158.88C403.577 159.686 405.388 161.462 405.691 161.8C406.766 163.015 407.992 162.968 409.628 164.755C409.756 164.942 409.908 165.106 410.025 165.304C411.099 167.103 413.295 171.039 414.825 171.939C416.355 172.85 418.037 174.076 420.268 176.599C422.499 179.122 424.999 181.47 425.98 180.652C426.704 180.045 423.749 176.599 422.347 175.046C426.786 179.916 429.472 181.773 430.559 180.384C431.072 179.729 422.885 172.161 423.235 172.032C423.574 171.892 430.652 179.624 432.252 180.267C433.467 180.757 433.993 179.496 433.899 178.678Z" fill="#F0BB8F"/>
<path d="M344.884 72.7974C344.067 77.8315 349.113 81.0903 353.317 82.4919C357.522 83.8935 368.735 81.9313 373.22 88.9394C377.706 95.9475 386.115 127.904 388.638 130.427C391.161 132.95 413.681 153.858 413.681 153.858C413.681 153.858 412.197 164.066 404.628 167.15C404.628 167.15 376.035 143.042 372.952 138.557C369.868 134.072 363.14 116.131 363.14 116.131C363.14 116.131 363.701 145.635 364.542 151.802C365.383 157.969 369.541 174.929 366.75 179.134C366.75 179.134 338.402 191.959 313.243 179.134C313.243 179.134 311.467 153.227 313.243 139.678C313.908 134.55 312.752 122.578 312.752 122.578C312.752 122.578 296.423 141.64 293.912 141.08C291.389 140.519 275.761 136.63 266.51 130.182C266.51 130.182 264.933 121.037 270.19 117.895L290.046 123.77C289.929 124.634 301.259 109.637 303.233 99.872C304.085 95.6555 307.554 90.598 313.126 88.332C318.686 86.066 324.199 85.2484 327.107 81.429C330.015 77.6096 344.908 72.809 344.908 72.809L344.884 72.7974Z" fill="#523646"/>
<path d="M319.596 53.7235C319.958 56.8071 320.157 62.18 321.944 64.4226C323.743 66.6652 327.048 59.7505 327.048 59.7505C327.048 59.7505 324.023 52.8475 323.614 52.8125C323.217 52.7774 319.584 53.7235 319.584 53.7235H319.596Z" fill="#B38644"/>
<path d="M349.405 80.6581C346.578 78.9061 344.312 76.2897 344.884 72.7974C344.884 72.7974 329.992 77.6096 327.084 81.4173C326.698 81.9196 326.266 82.3634 325.799 82.7722C325.799 82.7722 329.256 88.9394 335.832 88.297C342.42 87.6546 349.428 80.6815 349.428 80.6815L349.405 80.6348V80.6581Z" fill="#412332"/>
<path d="M321.709 54.2963C320.634 56.1535 322.141 60.9423 321.569 62.2272C321.008 63.512 320.541 69.0834 322.351 73.6153C324.162 78.1472 335.725 78.778 335.725 78.778L341.448 76.1032L345.104 67.7869L347.23 55.149L338.201 49.0986L321.697 54.308L321.709 54.2963Z" fill="#F0BB8F"/>
<path d="M339.312 49.8225C338.412 54.4362 344.871 60.031 344.042 62.0283C343.201 64.0373 343.657 68.8846 341.04 72.5522C338.424 76.2081 335.504 75.1802 335.504 75.1802C335.504 75.1802 332.923 70.8936 329.056 71.0104C325.19 71.1272 325.961 73.2413 324.665 73.9655C323.368 74.6897 322.364 73.6034 322.364 73.6034C322.364 73.6034 321.791 74.7714 322.48 76.4183C323.415 78.6843 325.868 81.8379 327.655 83.7885C330.68 87.094 335.878 84.4076 337.887 83.3213C339.896 82.2351 346.67 75.2386 347.418 72.4938C348.165 69.7489 347.184 67.2611 347.184 67.2611C347.184 67.2611 348.644 65.4273 349.275 62.3554C349.894 59.2835 350.992 55.0903 349.181 51.2942C347.371 47.4982 343.119 44.9986 340.573 45.7345L339.323 49.7875L339.312 49.8225Z" fill="#B38644"/>
<path d="M339.244 51.0374C339.244 51.0374 337.748 52.077 335.693 51.4579C333.637 50.8389 333.065 56.3169 326.115 56.6439C319.165 56.971 314.668 48.4328 314.668 48.4328C314.668 48.4328 320.929 50.0329 323.183 47.0078C325.438 43.9943 329.117 40.537 335.389 41.9386C341.661 43.3519 340.54 45.7463 340.54 45.7463L339.22 51.0258L339.244 51.0374Z" fill="#B38644"/>
<path d="M344.859 65.0535C344.894 64.1308 344.672 60.9888 346.027 60.6151C347.382 60.2413 346.144 64.4695 346.027 66.0464C345.91 67.6232 346.483 69.0248 345.677 69.6789C344.871 70.333 344.439 68.8262 344.555 68.1254C344.661 67.4246 344.836 65.988 344.871 65.0652L344.859 65.0535Z" fill="#F0BB8F"/>
<path d="M330.179 72.8214C333.204 73.1017 334.828 75.1223 335.166 76.0684C335.493 77.0145 333.718 77.2131 331.382 77.4817C328.684 77.8088 326.651 76.816 326.511 76.267C326.371 75.7297 326.768 72.4943 330.179 72.8097V72.8214Z" fill="#F0BB8F"/>
<path d="M312.484 107.044C312.484 107.044 295.933 135.941 294.111 136.735C292.289 137.541 267.889 128.22 266.651 127.765C266.651 127.765 266.499 127.846 266.289 127.951C266.347 129.248 266.475 130.171 266.475 130.171C275.726 136.618 291.366 140.508 293.877 141.068C296.4 141.629 312.717 122.567 312.717 122.567L312.472 107.021L312.484 107.044Z" fill="#412332"/>
<path d="M379.958 135.906C377.049 131.362 363.126 100.328 363.126 100.328V116.131C363.126 116.131 369.854 134.072 372.938 138.557C376.021 143.043 404.614 167.15 404.614 167.15C406.355 166.45 407.756 165.352 408.913 164.102C404.801 160.353 382.597 140.017 379.969 135.906H379.958Z" fill="#412332"/>
<path d="M363.772 129.563C364.181 137.354 363.609 161.555 356.869 163.763C349.592 166.145 337.83 166.881 333.719 165.97C333.719 165.97 337.959 169.241 355.047 168.33C372.123 167.418 342.245 183.56 313.115 172.861C312.94 172.791 312.8 172.756 312.625 172.686C312.858 176.646 313.209 179.145 313.209 179.145C338.368 191.97 366.715 179.145 366.715 179.145C369.519 174.941 365.349 157.981 364.508 151.814C364.228 149.711 363.971 132.939 363.76 129.575L363.772 129.563Z" fill="#412332"/>
<path d="M303.981 228.156H235.138V251.096H303.981V228.156Z" fill="#7A553C"/>
<path d="M303.981 228.156H235.138V237.196C235.138 237.196 241.994 231.917 244.202 231.59C246.409 231.251 303.981 230.433 303.981 230.433V228.156Z" fill="#694329"/>
<path d="M282.419 240.654H256.688L269.559 244.286L282.419 240.654Z" fill="#694329"/>
<g style="mix-blend-mode:screen" opacity="0.3">
<g style="mix-blend-mode:screen" opacity="0.3">
<path d="M282.419 240.653H256.688L269.559 238.177L282.419 240.653Z" fill="#7A553C"/>
</g>
</g>
<path d="M186.291 225.878L195.483 327.297H194.28L177.169 225.878H186.291Z" fill="#694329"/>
<path d="M142.768 246.494L134.463 318.572H135.374L149.741 246.494H142.768Z" fill="#694329"/>
<path d="M109.214 258.688L100.91 330.755H101.832L116.199 258.688H109.214Z" fill="#7A553C"/>
<path d="M142.372 262.39L150.677 334.457H149.754L135.387 262.39H142.372Z" fill="#7A553C"/>
<path d="M175.918 250.196L184.222 322.263H183.311L168.945 250.196H175.918Z" fill="#694329"/>
<path d="M102.367 253.513L132.093 246.447H168.571L149.707 257.052C148.889 257.52 147.943 257.718 147.009 257.648L102.426 254.308C101.958 254.272 101.912 253.618 102.367 253.513Z" fill="#BBAFA3"/>
<path d="M102.064 253.992L102.426 264.645L147.255 267.378V257.648L102.064 253.992Z" fill="#B0A294"/>
<path d="M192.072 238.668V248.993L147.255 267.378V257.648L192.072 238.668Z" fill="#A39484"/>
<path d="M186.84 315.162C186.548 316.318 185.345 321.574 185.403 322.906C185.509 325.429 186.116 327.87 186.84 328.687C187.95 329.949 192.715 331.397 193.521 330.463C194.327 329.528 195.881 328.839 196.359 329.633C196.827 330.428 200.401 333.862 206.077 334.457C211.754 335.053 217.804 335.088 220.059 333.009C222.301 330.93 222.032 328.442 220.736 326.737C219.439 325.031 204.103 320.78 202.34 317.101L186.84 315.173V315.162Z" fill="#694329"/>
<path d="M147.921 222.666C147.921 222.666 193.403 236.998 203.063 240.735C212.722 244.473 218.632 249.46 218.329 255.067C218.025 260.673 211.788 279.981 211.473 285.903C211.157 291.824 207.046 319.74 206.52 320.266C205.995 320.791 191.394 322.228 185.531 317.661C185.531 317.661 190.483 284.793 190.483 282.842C190.483 280.892 186.185 255.849 186.185 255.849C186.185 255.849 140.807 235.503 142.373 235.9C143.938 236.297 147.932 222.678 147.932 222.678L147.921 222.666Z" fill="#412332"/>
<path d="M230.686 328.033C231.889 331.28 235.417 334.948 237.04 335.345C238.664 335.754 243.417 334.259 243.558 333.044C243.686 331.818 244.585 330.369 245.426 330.755C246.267 331.14 251.15 331.958 256.172 329.248C261.195 326.538 266.217 323.139 266.895 320.161C267.572 317.171 265.949 315.278 263.916 314.601C261.884 313.924 246.816 319.074 243.289 317.042L230.698 328.045L230.686 328.033Z" fill="#694329"/>
<path d="M47.8908 325.44C47.5288 323.186 47.1667 319.308 49.1523 318.876C49.1523 318.876 49.0472 320.488 52.7381 320.92C56.4291 321.352 60.996 321.282 62.8765 318.584C62.8765 318.584 64.757 318.152 65.0374 319.308C65.3294 320.476 65.1775 321.282 68.6582 322.298C72.1272 323.314 80.5253 324.19 80.4552 329.283C80.3851 334.376 79.3689 334.305 76.9862 335.111C74.5917 335.906 67.6537 336.863 62.5144 334.971C57.3752 333.079 57.4569 331.619 55.9268 332.343C54.4084 333.067 48.615 331.397 48.2529 331.105C47.8908 330.813 47.8908 325.429 47.8908 325.429V325.44Z" fill="#C3C6D5"/>
<path d="M76.9867 335.123C79.0657 334.422 80.1053 334.387 80.3856 331C79.2877 331.782 77.3254 332.822 73.8564 333.616C67.4673 335.088 61.0899 332.109 59.7934 331.21C58.4969 330.31 56.6982 329.902 55.5068 330.31C54.3154 330.708 50.4259 330.614 47.9614 328.512C48.0081 329.785 48.1016 330.988 48.2651 331.128C48.6272 331.42 54.4206 333.09 55.939 332.366C57.4574 331.642 57.3873 333.09 62.5266 334.994C67.6659 336.898 74.6156 335.94 76.9984 335.134L76.9867 335.123Z" fill="#523646"/>
<path d="M49.4788 316.19L48.9766 320.5C48.9766 320.5 49.1167 322.368 56.1716 322.368C63.2264 322.368 62.7942 319.916 62.7942 319.916L62.2219 313.585L49.4905 316.178L49.4788 316.19Z" fill="#F0BB8F"/>
<path d="M28.5124 321.668L27.9868 326.199C27.9868 326.199 28.1387 328.162 35.5322 328.162C42.9258 328.162 42.4702 325.592 42.4702 325.592L41.2672 317.977L28.5124 321.668Z" fill="#F0BB8F"/>
<path d="M47.7979 195.417C45.0063 202.892 46.186 209.059 48.2067 217.679C50.2274 226.299 49.0944 255.92 47.5877 260.136C46.0809 264.353 42.8572 277.517 44.2938 290.26C45.7422 303.003 48.3118 317.848 48.3118 317.848C48.3118 317.848 58.3685 317.895 64.6874 314.823C64.6874 314.823 62.585 277.949 62.8653 273.534C63.1457 269.118 66.4628 260.195 68.647 254.892C70.8312 249.589 73.3541 198.231 73.3541 198.231L47.8096 195.417H47.7979Z" fill="#294490"/>
<g opacity="0.5">
<path opacity="0.5" d="M59.9578 233.295C57.54 242.733 57.1662 263.372 55.8697 269.305C54.7251 274.55 57.2013 309.053 57.7853 316.949C60.1564 316.505 62.6209 315.839 64.6766 314.834C64.6766 314.834 62.5741 277.96 62.8545 273.545C63.1348 269.13 66.452 260.206 68.6362 254.903C70.8204 249.601 73.3433 198.243 73.3433 198.243L67.2462 197.577L63.8239 199.037L59.9578 233.318V233.295Z" fill="#183178"/>
</g>
<path d="M36.6192 190.09C32.8932 197.892 33.5706 204.678 34.9255 214.174C36.2804 223.67 32.2157 255.546 30.1717 259.961C28.1393 264.364 23.3855 278.275 23.7242 292.175C24.063 306.086 25.4179 322.356 25.4179 322.356C25.4179 322.356 36.2687 323.372 43.3937 320.663C43.3937 320.663 44.6551 280.646 45.3793 275.892C46.1035 271.15 50.5302 261.841 53.4036 256.316C56.2769 250.792 67.8052 200.322 67.8052 200.322L36.6075 190.09H36.6192Z" fill="#294490"/>
<path d="M26.8554 331.409C26.4816 329.073 26.0961 325.066 28.1752 324.611C28.1752 324.611 28.0701 326.27 31.9129 326.725C35.7556 327.181 40.5212 327.099 42.4834 324.307C42.4834 324.307 44.434 323.852 44.7377 325.055C45.0414 326.258 44.8896 327.099 48.5104 328.15C52.1313 329.213 60.8914 330.112 60.8096 335.392C60.7396 340.683 59.6767 340.601 57.1888 341.43C54.7009 342.26 47.4592 343.241 42.098 341.279C36.7368 339.316 36.8185 337.81 35.23 338.557C33.6415 339.316 27.6029 337.576 27.2291 337.272C26.8554 336.969 26.8554 331.385 26.8554 331.385V331.409Z" fill="#DBDFE8"/>
<path d="M76.1108 125.756C82.5232 127.998 84.5906 133.874 85.9572 142.599C87.3354 151.324 91.6571 168.178 91.2834 169.183C90.9096 170.176 81.5654 174.252 81.5654 174.252L72.9922 155.33L76.0991 125.756H76.1108Z" fill="#E4E7F4"/>
<g opacity="0.5">
<path opacity="0.5" d="M67.8177 200.322L63.8231 199.014C58.7071 198.675 52.7736 197.612 52.7736 197.612C51.7574 206.641 45.602 251.108 42.4717 257.672C39.3414 264.224 33.5597 310.817 34.7628 322.38C37.6595 322.146 40.7781 321.656 43.4061 320.663C43.4061 320.663 44.6676 280.647 45.3917 275.893C46.1159 271.151 50.5427 261.842 53.416 256.317C56.2894 250.792 67.8177 200.322 67.8177 200.322Z" fill="#183178"/>
</g>
<path d="M80.2465 75.858C83.6454 74.7367 91.331 80.0629 92.9311 87.8185C94.5313 95.5742 89.8826 124.354 90.49 129.622C90.49 129.622 78.8682 128.664 73.8107 123.058C72.1755 121.247 69.8628 118.21 69.8628 118.21L73.18 105.572L80.2348 75.858H80.2465Z" fill="#B1611A"/>
<path d="M77.582 113.854C75.6665 116.739 74.6036 122.333 77.0914 129.342C77.0914 129.342 71.4382 128.045 68.4131 125.23C65.3879 122.404 68.6116 102.372 68.6116 102.372L79.2873 105.222L77.582 113.854Z" fill="#F0BB8F"/>
<g opacity="0.3">
<path opacity="0.3" d="M67.2821 121.843C71.6856 123.653 74.5939 124.961 76.1124 125.756C77.6308 126.55 79.6865 133.815 81.2516 139.27C82.8285 144.713 85.2229 149.887 82.2211 156.066C79.2193 162.233 78.1214 164.148 77.7476 175.245C77.3738 186.341 74.8159 204.036 74.8159 204.036C74.8159 204.036 52.168 205.578 33.6899 193.244C33.6899 193.244 41.0134 176.202 42.9757 170.094C44.938 163.985 44.6343 154.769 43.8751 145.577C43.1159 136.396 41.4806 132.098 45.0898 126.585C48.699 121.072 55.929 118.339 57.7511 118.012C59.5732 117.673 67.2938 121.854 67.2938 121.854L67.2821 121.843Z" fill="#D3EFFC"/>
</g>
<path d="M67.2792 121.843C71.6826 123.653 74.591 124.961 76.1094 125.756C77.6279 126.55 79.6836 133.815 81.2487 139.27C82.8255 144.713 85.22 149.887 82.2182 156.066C79.2164 162.233 78.1184 164.148 77.7447 175.245C77.3709 186.341 74.8129 204.036 74.8129 204.036C74.8129 204.036 52.1651 205.578 33.687 193.244C33.687 193.244 41.0105 176.202 42.9728 170.094C44.935 163.985 44.6313 154.769 43.8721 145.577C43.1129 136.396 41.4777 132.098 45.0869 126.585C48.696 121.072 55.9261 118.339 57.7482 118.012C59.5703 117.673 67.2909 121.854 67.2909 121.854L67.2792 121.843Z" fill="#FCFFFF"/>
<g opacity="0.5">
<path opacity="0.5" d="M78.5624 108.878L69.4169 102.664C69.4169 102.664 69.0548 102.687 68.5525 102.758C68.3773 103.89 67.8167 107.698 67.4546 111.903C70.9703 114.414 77.0323 114.835 77.0323 114.835L77.0557 114.811C77.2192 114.484 77.3944 114.157 77.5813 113.865L78.5624 108.878Z" fill="#E8AB79"/>
</g>
<path d="M50.647 183.269C54.2094 193.221 60.5634 202.355 61.6614 206.197C62.7593 210.04 61.5563 217.153 64.3011 220.903C66.7306 224.232 69.9777 224.488 69.8025 223.262C69.6039 221.919 68.798 213.603 69.2185 213.019C69.6273 212.435 72.4305 218.31 72.9328 217.27C73.435 216.231 71.426 210.542 70.7719 208.907C70.1178 207.272 68.4242 206.886 67.0576 204.469C65.691 202.051 61.8132 180.302 61.8132 180.302L52.3056 177.23L50.6703 183.246L50.647 183.269Z" fill="#F0BB8F"/>
<path d="M69.4292 102.664C69.7096 105.853 70.1884 129.75 70.1884 129.75C70.1884 129.75 51.395 120.009 49.7715 115.933C49.7715 115.933 54.8056 102.594 55.378 96.8239C56.3591 87.0475 62.2693 72.5057 80.2334 75.8463L87.9774 86.0197L78.8318 97.3845L69.4176 102.652L69.4292 102.664Z" fill="#BD6A22"/>
<path d="M87.9774 86.0313L82.149 78.3691C85.4428 85.2137 68.7985 87.1877 66.1004 91.7663C63.3906 96.3449 65.785 112.802 64.0213 115.863C62.2576 118.923 50.5657 113.772 50.5657 113.772C50.0868 115.103 49.7715 115.933 49.7715 115.933C51.395 120.009 70.1884 129.75 70.1884 129.75C70.1884 129.75 69.7096 105.853 69.4292 102.664L78.8435 97.3962L87.989 86.0313H87.9774Z" fill="#B1611A"/>
<path d="M69.4297 102.664C68.1098 107.733 71.6956 111.658 77.5824 113.865C83.4809 116.061 87.3704 107.534 88.1296 104.72C88.8888 101.905 88.5384 99.8489 89.8349 98.1553C91.1198 96.4617 91.0964 87.9234 87.9778 86.0313C84.8709 84.1274 74.5339 89.1148 72.9688 94.0438C72.9688 94.0438 70.3057 91.4275 68.3668 95.3403C67.3155 97.4778 67.5141 102.384 69.4063 102.664H69.4297Z" fill="#F0BB8F"/>
<path d="M44.1065 148.812C44.3518 152.316 44.4919 155.762 44.4335 158.974C44.7489 164.254 45.3212 166.94 46.4542 170.573C48.1478 176.016 50.6474 183.257 50.6474 183.257C50.6474 183.257 57.562 179.169 61.7903 180.302C61.7903 180.302 57.4803 165.55 57.1649 164.184C56.8612 162.817 61.2647 147.107 62.3392 141.734C63.1919 137.448 63.2269 126.328 56.5342 122.684C54.8522 121.761 52.5863 120.675 50.1101 121.586C47.9726 122.368 46.4191 124.541 45.0876 126.573C41.4784 132.098 43.1137 136.385 43.8729 145.565C43.9663 146.64 44.0364 147.714 44.1182 148.777V148.801L44.1065 148.812Z" fill="#E4E7F4"/>
<path d="M82.1485 78.369C82.1485 78.369 86.1899 84.8866 89.6122 84.2208C90.8269 83.9872 90.8035 83.0294 90.2779 81.8964C87.2528 77.5864 82.6625 75.0635 80.233 75.8578L79.6606 78.2756C81.0272 78.3223 82.1485 78.3573 82.1485 78.3573V78.369Z" fill="#BD6A22"/>
<path d="M57.1876 341.442C59.3601 340.718 60.4464 340.683 60.7384 337.167C59.5938 337.985 57.538 339.048 53.9289 339.877C47.2712 341.407 40.6135 338.312 39.2586 337.377C37.9037 336.443 36.0348 336.023 34.785 336.443C33.5353 336.852 29.4822 336.747 26.9126 334.574C26.9593 335.894 27.0528 337.144 27.228 337.284C27.6017 337.588 33.6404 339.316 35.2289 338.569C36.8174 337.81 36.7356 339.328 42.0968 341.29C47.458 343.253 54.6998 342.271 57.1876 341.442Z" fill="#523646"/>
<path d="M110.227 241.354C115.518 249.448 118.322 256.001 132.034 256.305C145.735 256.62 148.55 259.108 161.001 265.333C173.464 271.559 182.492 275.612 182.492 275.612C182.492 275.612 209.287 313.304 212.709 318.291C216.131 323.279 221.399 330.754 224.366 330.754C227.333 330.754 242.926 321.095 245.414 316.423C245.414 316.423 217.685 281.534 215.197 278.731C212.709 275.927 204.918 260.346 199.931 255.37C194.944 250.383 136.075 218.297 136.075 218.297C136.075 218.297 118.625 227.326 114.269 231.064C109.912 234.801 110.215 241.342 110.215 241.342L110.227 241.354Z" fill="#523646"/>
<path d="M110.111 156.404C112.868 152.258 111.595 145.974 111.595 145.974L129.103 143.883C129.103 143.883 129.839 154.594 131.918 158.285C133.997 161.976 118.007 166.765 110.123 156.404H110.111Z" fill="#F0BB8F"/>
<path d="M218.294 172.406C219.252 172.628 218.971 173.294 219.275 173.855C219.591 174.415 218.948 175.443 218.843 176.191C218.75 176.938 218.609 177.557 217.617 178.41C216.624 179.263 210.597 180.991 209.697 181.961C209.697 181.961 206.684 179.613 207.023 179.169C207.361 178.725 218.294 172.418 218.294 172.418V172.406Z" fill="#E8AB79"/>
<path d="M184.222 258.688C175.59 250.628 130.049 240.478 127.421 236.262C127.421 236.262 116.255 236.741 110.38 238.995C110.193 240.385 110.228 241.354 110.228 241.354C115.519 249.449 118.323 256.001 132.035 256.305C145.736 256.62 148.551 259.108 161.002 265.334C173.465 271.559 182.493 275.612 182.493 275.612C182.493 275.612 209.288 313.304 212.71 318.292C216.132 323.279 221.4 330.754 224.367 330.754C225.92 330.754 230.873 328.138 235.627 324.973C235.627 324.973 192.842 266.747 184.21 258.688H184.222Z" fill="#412332"/>
<path d="M105.79 158.122L85.4897 161.532C81.8455 162.151 79.4627 165.702 80.292 169.311L96.5391 239.661C97.2983 242.955 100.487 245.092 103.816 244.555L117.54 242.347L105.79 158.122Z" fill="#BBAFA3"/>
<path d="M80.2793 169.322L96.5264 239.672C97.2856 242.966 100.474 245.103 103.803 244.566L115.577 242.674C114.748 240.84 113.206 238.913 110.694 236.974C98.4303 227.536 92.1931 183 85.477 161.532C81.8328 162.151 79.45 165.702 80.2793 169.311V169.322Z" fill="#B0A294"/>
<path d="M200.293 186.854C199.733 184.448 198.857 181.715 198.191 181.19L197.817 181.306C197.221 181.493 196.602 181.68 195.96 181.89L191.475 183.28L183.357 185.815C178.113 187.357 172.308 188.875 171.432 188.338C170.1 187.52 154.063 164.989 149.379 161.111C144.696 157.222 144.497 157.911 131.917 155.353C131.917 155.353 142.932 186.341 144.555 188.104C146.167 189.868 166.175 203.452 167.811 203.674C169.446 203.908 178.323 202.156 185.167 197.635C186.417 196.806 187.69 195.895 188.963 194.972C188.975 194.972 188.987 194.972 189.01 194.949C191.965 192.858 200.842 190.569 200.842 190.569C200.971 190.16 200.725 188.607 200.317 186.878L200.293 186.854Z" fill="#FFD765"/>
<path d="M130.4 154.5L139.137 156.731C139.137 156.731 145.047 170.794 145.199 177.148C145.35 183.502 148.971 199.072 150.571 202.483C152.172 205.905 157.86 224.71 157.907 225.656C157.953 226.614 141.391 226.147 134.336 231.414C127.281 236.694 112.471 246.003 110.216 245.477C107.962 244.952 105.906 235.514 104.762 231.59C103.617 227.665 102.87 194.295 102.87 194.295C102.87 194.295 112.529 172.535 112.985 172.196C113.452 171.857 125.412 161.03 125.412 161.03L130.388 154.489L130.4 154.5Z" fill="#FFD765"/>
<path d="M134.347 231.438C141.402 226.17 157.964 226.626 157.917 225.68C157.871 224.734 152.183 205.917 150.582 202.506C149.181 199.504 146.226 187.182 145.42 179.905C144.03 177.207 143.177 175.537 143.177 175.537C145.501 184.495 146.004 208.498 103.5 213.906C103.827 221.965 104.259 229.838 104.784 231.625C105.929 235.549 107.985 244.987 110.227 245.513C112.482 246.038 127.292 236.729 134.347 231.45V231.438Z" fill="#FFC92E"/>
<path d="M110.112 156.404C106.2 158.285 93.5266 162.022 91.9498 164.23C90.373 166.438 88.4107 178.97 86.8222 189.588C85.2337 200.205 83.8204 213.661 84.7898 216.359C85.7593 219.045 90.4197 220.505 92.7791 221.229C95.1385 221.953 120.613 216.721 121.898 215.167C121.898 215.167 121.758 210.495 120.531 205.718C120.531 205.718 106.211 205.613 99.939 206.407C99.939 206.407 102.03 199.668 102.882 194.318L125.425 161.041L110.112 156.404Z" fill="#FFD765"/>
<path d="M128.018 206.84C110.976 206.653 103.279 184.963 103.232 181.599L102.882 192.146L103.279 206.22L128.018 206.84Z" fill="#FFC92E"/>
<path d="M129.654 196.818L132.258 213.684C132.258 213.684 138.017 216.523 143.168 213.147L142.315 195.837L129.642 196.806L129.654 196.818Z" fill="#F8F3E0"/>
<path d="M128.016 195.428C128.121 195.79 128.962 197.612 128.962 197.612L143.037 196.432L142.908 193.781L128.028 195.428H128.016Z" fill="#7A553C"/>
<path d="M130.517 192.835L129.583 195.265L141.508 193.933L140.177 191.69L130.517 192.835Z" fill="#694329"/>
<path d="M139.277 190.919C138.273 189.366 137.852 188.268 139.055 186.481C140.27 184.682 138.016 182.509 138.016 182.509C138.016 182.509 141.625 184.869 140.235 186.644C138.833 188.408 138.401 188.373 139.265 190.931L139.277 190.919Z" fill="#F8EBE0"/>
<path d="M140.2 204.445C140.422 207.458 139.067 210.016 137.174 210.157C135.271 210.297 133.554 207.972 133.32 204.971C133.086 201.957 134.453 199.399 136.345 199.259C138.237 199.119 139.966 201.443 140.2 204.445Z" fill="#759EE0"/>
<path d="M93.3513 160.212C95.699 159.815 97.1357 162.7 100.92 164.055C104.704 165.398 107.519 165.351 108.045 164.055C108.571 162.758 105.253 157.082 104.272 156.404C103.291 155.727 96.0378 156.428 93.8536 157.128C91.6694 157.829 89.7305 160.819 89.7305 160.819L93.3513 160.212Z" fill="#F0BB8F"/>
<path d="M133.976 199.96C132.949 200.17 126.875 204.726 125.87 205.403C124.924 206.034 123.231 206.256 120.766 206.735C121.257 208.895 121.537 210.951 121.701 212.505C123.406 211.944 126.688 210.893 128.043 210.834C129.9 210.741 132.236 209.328 133.871 208.603C135.507 207.879 138.66 209.76 139.571 209.339C140.482 208.919 143.87 206.069 143.437 204.796C143.005 203.523 135.028 199.75 134 199.96H133.976Z" fill="#F0BB8F"/>
<path d="M213.737 175.478C217.23 173.446 219.437 171.834 218.351 171.682C217.265 171.53 215.606 172.839 209.965 175.058C204.323 177.289 204.65 178.702 202.151 179.777C201.053 180.256 199.546 180.758 197.817 181.295L198.191 181.178C198.869 181.704 199.733 184.449 200.294 186.843C201.029 186.458 201.684 186.154 202.139 186.119C204.79 185.885 206.542 186.458 209.871 185.115C213.2 183.771 216.237 183.923 216.214 183.047C216.179 182.171 213.06 182.171 211.507 182.171C209.953 182.171 209.451 181.447 209.381 180.454C209.311 179.461 210.233 177.511 213.737 175.467V175.478Z" fill="#F0BB8F"/>
<path d="M92.603 212.867C94.8339 208.872 99.9381 206.407 99.9381 206.407C99.9381 206.407 102.029 199.668 102.882 194.318L103.22 181.19C102.858 190.195 92.5913 212.867 92.5913 212.867H92.603Z" fill="#FFC92E"/>
<path d="M168.573 197.554C166.891 196.374 143.168 175.525 143.168 175.525C143.986 179.812 147.186 190.172 147.186 190.172C153.073 194.494 166.47 203.464 167.802 203.651C169.437 203.884 178.314 202.132 185.159 197.612C186.408 196.783 187.682 195.872 188.955 194.949C188.966 194.949 188.978 194.949 189.001 194.926C191.957 192.835 200.834 190.546 200.834 190.546C200.962 190.137 200.717 188.583 200.308 186.855C200.308 186.855 184.808 192.893 179.202 195.755C173.595 198.617 170.266 198.745 168.585 197.565L168.573 197.554Z" fill="#FFC92E"/>
<path d="M130.867 123.583C131.509 117.136 125.693 109.508 112.506 112.16C107.74 113.118 103.29 115.5 102.823 120.079C102.799 120.336 102.566 120.511 102.437 120.745C100.709 123.933 100.51 127.543 101.141 130.428C102.379 136.092 104.773 139.316 105.451 140.344C106.14 141.372 110.263 143.72 112.132 146.967C114.001 150.214 130.867 123.583 130.867 123.583Z" fill="#3B2012"/>
<path d="M110.112 142.505C111.338 144.269 111.899 146.348 115.847 148.065C119.795 149.782 125.915 151.779 127.585 151.347C129.244 150.915 130.669 151.055 132.094 146.219C133.519 141.395 134.874 138.989 133.904 134.679C132.935 130.381 132.351 121.282 126.114 119.472C121.5 118.105 115.321 120.92 112.822 125.265C110.299 129.61 110.567 130.918 110.813 136.688C110.813 136.688 107.472 133.897 106.292 134.037C105.113 134.165 104.318 135.146 105.592 137.307C106.865 139.456 106.818 138.709 107.203 139.877C107.601 141.033 108.044 142.19 108.769 142.458C109.668 142.774 110.1 142.505 110.1 142.505H110.112Z" fill="#F0BB8F"/>
<path d="M125.693 118.853C125.693 118.853 122.283 119.203 119.596 121.259C116.688 123.49 112.67 126.678 112.705 130.311C112.728 133.932 112.635 137.658 112.635 137.658L111.257 137.798L108.278 125.978L113.745 117.556L125.693 118.864V118.853Z" fill="#3B2012"/>
<path d="M124.62 119.822C124.62 119.822 129.233 120.126 130.868 123.583L128.147 117.813L123.697 115.5L124.62 119.81V119.822Z" fill="#3B2012"/>
<path d="M110.812 136.688C111.209 140.94 109.573 140.928 109.714 143.007C109.842 145.074 110.228 146.546 115.145 150.015C120.051 153.472 125.961 155.4 128.799 154.5C131.637 153.613 132.817 150.634 132.922 149.221C133.027 147.808 133.483 141.816 133.483 141.816C133.483 141.816 132.689 144.724 129.85 146.254C127.012 147.772 120.378 146.978 117.983 145.156C115.589 143.334 112.634 137.646 112.634 137.646L110.461 132.098L109.048 133.733L110.823 136.676L110.812 136.688Z" fill="#3B2012"/>
<path d="M132.737 144.14C133.134 142.902 133.484 141.816 133.753 140.776C132.97 140.461 131.697 140.215 130.004 140.753C127.89 141.418 127.936 141.757 125.028 143.871C121.898 146.149 120.274 146.464 117.237 145.612C115.018 144.981 117.097 147.609 118.382 149.069C119.071 149.326 119.772 149.583 120.473 149.828L124.35 149.291L124.479 147.013C127.539 146.032 127.679 144.268 129.116 143.404C130.868 142.353 131.534 142.972 132.737 144.14Z" fill="#3B2012"/>
<path d="M129.605 121.796C128.694 120.733 127.572 119.892 126.112 119.46C121.499 118.105 115.32 120.908 112.82 125.253C112.528 125.767 112.283 126.211 112.061 126.643C112.271 126.959 112.423 127.204 112.423 127.204H113.603C115.67 124.564 118.322 122.637 121.09 123.583C123.846 124.518 126.626 124.097 128.156 122.217C128.694 121.563 129.184 121.551 129.593 121.796H129.605Z" fill="#3B2012"/>
<path d="M141.603 225.878L130.74 350.938H131.943L150.737 225.878H141.603Z" fill="#694329"/>
<path d="M491.518 225.878L500.71 334.819H499.507L482.396 225.878H491.518Z" fill="#694329"/>
<path d="M452.4 225.878L441.526 326.456H442.729L461.534 225.878H452.4Z" fill="#694329"/>
<path d="M495.792 217.877H137.339V228.74H495.792V217.877Z" fill="#7A553C"/>
<path d="M137.339 217.877L166.388 210.519L509.376 212.504L495.792 217.877H137.339Z" fill="#966A4D"/>
<path d="M495.794 228.74L509.378 222.666V212.504L495.794 217.877V228.74Z" fill="#694329"/>
<path d="M219.874 129.376L226.052 199.551H323.675L326.42 129.376H219.874Z" fill="#DBDFE8"/>
<g opacity="0.5">
<path opacity="0.5" d="M225.329 191.246L226.064 199.551H323.687L326.432 129.376H313.631C307.627 162.537 302.324 188.081 225.329 191.246Z" fill="#C3C6D5"/>
</g>
<path d="M283.834 159.979C283.834 163.693 280.272 166.695 275.868 166.695C271.465 166.695 267.902 163.681 267.902 159.979C267.902 156.276 271.465 153.263 275.868 153.263C280.272 153.263 283.834 156.276 283.834 159.979Z" fill="white"/>
<path d="M268.732 189.95L274.07 211.943H254.413V214.548H294.347L277.201 189.95H268.732Z" fill="#C3C6D5"/>
<path d="M331.361 215.027L332.821 175.022H341.324L343.754 215.027H331.361Z" fill="#F0E6FF"/>
<path d="M348.379 177.943L341.324 175.022L343.753 215.027H352.023L348.379 177.943Z" fill="#D5BFF2"/>
<path d="M335.192 211.909H341.324L338.673 178.585H335.192V211.909Z" fill="white"/>
<path d="M353.692 201.887C351.578 196.257 346.812 180.349 353.622 178.609C360.443 176.868 359.334 190.639 359.334 190.639C359.334 190.639 361.6 183.584 364.823 185.874C368.059 188.163 359.626 194.891 359.626 194.891C359.626 194.891 359.369 200.684 359.065 202.88C358.761 205.064 353.68 201.887 353.68 201.887H353.692Z" fill="#C9C94F"/>
<g opacity="0.5">
<path opacity="0.5" d="M353.692 201.887C351.578 196.257 346.812 180.349 353.622 178.609C360.443 176.868 359.333 190.639 359.333 190.639C359.333 190.639 361.599 183.584 364.823 185.874C368.058 188.163 359.625 194.891 359.625 194.891C359.625 194.891 359.368 200.684 359.065 202.88C358.761 205.064 353.68 201.887 353.68 201.887H353.692Z" fill="#B0B54F"/>
</g>
<path d="M351.681 190.312C349.216 186.399 345.747 185.839 344.789 187.474C343.621 189.459 345.548 191.971 352.019 192.414L351.681 190.312Z" fill="#C9C94F"/>
<g opacity="0.5">
<path opacity="0.5" d="M351.681 190.312C349.216 186.399 345.747 185.839 344.79 187.474C343.622 189.459 345.549 191.971 352.02 192.414L351.681 190.312Z" fill="#B0B54F"/>
</g>
<path d="M361.877 186.201C360.616 184.694 359.868 181.867 361.025 181.365C362.193 180.863 364.225 182.031 363.957 185.862C363.688 189.693 361.866 186.201 361.866 186.201H361.877Z" fill="#C9C94F"/>
<path d="M345.538 186.995C344.79 186.259 343.727 184.308 345.117 183.736C346.495 183.164 347.266 187.555 347.266 187.555L345.538 186.983V186.995Z" fill="#C9C94F"/>
<g opacity="0.5">
<path opacity="0.5" d="M345.538 186.995C344.79 186.259 343.727 184.308 345.117 183.736C346.495 183.164 347.266 187.555 347.266 187.555L345.538 186.983V186.995Z" fill="#B0B54F"/>
</g>
<path d="M362.405 182.79C361.903 181.563 362.557 178.62 363.959 179.531C365.349 180.442 363.071 183.28 363.071 183.28L362.405 182.79Z" fill="#C9C94F"/>
<path d="M361.506 193.256C364.893 193.256 366.155 192.274 366.295 191.492C366.435 190.709 365.384 189.798 362.919 191.492L361.506 193.256Z" fill="#C9C94F"/>
<g opacity="0.5">
<path opacity="0.5" d="M361.505 193.256C364.892 193.256 366.154 192.274 366.294 191.492C366.434 190.709 365.383 189.798 362.918 191.492L361.505 193.256Z" fill="#B0B54F"/>
</g>
<path d="M352.021 180.08C348.377 177.943 348.902 175.291 350.806 174.088C352.71 172.885 355.525 175.572 354.964 179.017C354.403 182.463 352.032 180.08 352.032 180.08H352.021Z" fill="#C9C94F"/>
<g opacity="0.5">
<path opacity="0.5" d="M352.278 173.866C354.275 174.742 353.341 178.83 350.981 179.356C351.285 179.601 351.612 179.846 352.021 180.08C352.021 180.08 354.392 182.475 354.953 179.017C355.385 176.401 353.866 174.24 352.278 173.866Z" fill="#B0B54F"/>
</g>
<g opacity="0.5">
<path opacity="0.5" d="M360.875 184.472C361.132 185.103 361.471 185.722 361.88 186.2C361.88 186.2 363.69 189.693 363.971 185.862C364.041 184.822 363.936 183.993 363.725 183.327C364.017 184.986 362.592 186.095 360.887 184.472H360.875Z" fill="#B0B54F"/>
</g>
<path d="M346.718 191.223C347.722 191.702 349.124 192.064 350.899 192.274C350.619 191.025 350.315 188.77 350.28 188.56C349.381 187.649 348.458 187.053 347.605 186.796C347.617 186.808 349.801 189.448 348.738 190.522C347.734 191.539 346.846 191.27 346.729 191.223H346.718Z" fill="#B0B54F"/>
<path d="M365.162 188.758C364.636 189.272 363.784 189.786 362.429 189.915C360.723 190.078 360.361 189.132 360.326 188.338C359.801 189.342 359.462 190.288 359.369 190.557L359.345 190.639C359.59 192.274 359.637 194.89 359.637 194.89C359.637 194.89 363.83 191.538 365.162 188.758Z" fill="#B0B54F"/>
<path d="M359.345 190.639C359.345 190.639 359.882 183.865 357.838 180.419C358.668 186.341 359.392 195.907 352.033 196.783C352.617 198.815 353.225 200.614 353.703 201.887C353.703 201.887 358.784 205.076 359.088 202.88C359.392 200.684 359.649 194.891 359.649 194.891C359.649 194.891 359.684 194.867 359.742 194.821L359.964 189.097C359.567 189.962 359.357 190.639 359.357 190.639H359.345Z" fill="#B0B54F"/>
<path d="M349.922 215.027L348.497 201.069H363.961L362.816 215.027H349.922Z" fill="#DBDFE8"/>
<path d="M361.543 201.069L360.27 209.701L349.501 210.916L349.921 215.027H362.816L363.961 201.069H361.543Z" fill="#C3C6D5"/>
<path d="M349.92 215.027L349.604 211.909H363.072L362.815 215.027H349.92Z" fill="#FFC92E"/>
<path d="M191.327 214.548V212.411L234.392 209.351V214.548H191.327Z" fill="#DBDFE8"/>
<path d="M521.967 285.622H516.395L514.83 265.638H523.532L521.967 285.622Z" fill="#523646"/>
<path d="M521.957 285.623H516.397V308.539H521.957V285.623Z" fill="#C3C6D5"/>
<path d="M521.957 308.539H516.397V328.255H521.957V308.539Z" fill="#523646"/>
<path d="M542.093 339.947H539.815V332.869C539.815 330.953 538.262 329.4 536.346 329.4H499.157C497.241 329.4 495.676 330.953 495.676 332.869V339.947H493.398V332.869C493.398 329.703 495.98 327.122 499.145 327.122H536.335C539.512 327.122 542.093 329.703 542.093 332.869V339.947Z" fill="#4D4136"/>
<path d="M529.699 339.947H527.422V332.869C527.422 330.883 526.499 329.4 525.681 329.4H511.069C510.252 329.4 509.329 330.883 509.329 332.869V339.947H507.051V332.869C507.051 329.645 508.815 327.122 511.058 327.122H525.669C527.924 327.122 529.687 329.645 529.687 332.869V339.947H529.699Z" fill="#4D4136"/>
<path d="M516.397 298.669L521.968 293.098V289.652L516.397 295.224V298.669Z" fill="#DBDFE8"/>
<path d="M516.397 303.108L521.968 297.548V295.819L516.397 301.391V303.108Z" fill="#DBDFE8"/>
<g style="mix-blend-mode:multiply" opacity="0.5">
<g style="mix-blend-mode:multiply" opacity="0.5">
<path d="M520.228 285.623V306.588H516.397V308.539H521.968V285.623H520.228Z" fill="#C3C6D5"/>
</g>
</g>
<path d="M514.982 267.752L521.196 268.523L520.226 285.622H521.967L523.532 265.638H514.83L514.982 267.752Z" fill="#412332"/>
<path d="M520.473 308.539H516.397V309.228L520.473 309.684V327.192H521.968V309.859V308.539H520.473Z" fill="#412332"/>
<path d="M544.348 340.286C544.348 342.295 542.923 343.93 541.159 343.93C539.395 343.93 537.97 342.295 537.97 340.286C537.97 338.277 539.395 336.642 541.159 336.642C542.923 336.642 544.348 338.277 544.348 340.286Z" fill="#523646"/>
<path d="M543.366 340.286C543.366 341.442 542.793 342.376 542.092 342.376C541.392 342.376 540.808 341.442 540.808 340.286C540.808 339.129 541.38 338.195 542.092 338.195C542.805 338.195 543.366 339.129 543.366 340.286Z" fill="#412332"/>
<path d="M531.847 340.286C531.847 342.295 530.422 343.93 528.658 343.93C526.895 343.93 525.47 342.295 525.47 340.286C525.47 338.277 526.895 336.642 528.658 336.642C530.422 336.642 531.847 338.277 531.847 340.286Z" fill="#523646"/>
<path d="M530.986 340.286C530.986 341.442 530.413 342.376 529.713 342.376C529.012 342.376 528.428 341.442 528.428 340.286C528.428 339.129 529 338.195 529.713 338.195C530.425 338.195 530.986 339.129 530.986 340.286Z" fill="#412332"/>
<path d="M511.011 340.286C511.011 342.295 509.586 343.93 507.834 343.93C506.082 343.93 504.645 342.295 504.645 340.286C504.645 338.277 506.07 336.642 507.834 336.642C509.597 336.642 511.011 338.277 511.011 340.286Z" fill="#523646"/>
<path d="M508.336 340.286C508.336 341.442 507.764 342.376 507.051 342.376C506.339 342.376 505.778 341.442 505.778 340.286C505.778 339.129 506.351 338.195 507.051 338.195C507.752 338.195 508.336 339.129 508.336 340.286Z" fill="#412332"/>
<path d="M497.754 340.286C497.754 342.295 496.329 343.93 494.566 343.93C492.802 343.93 491.377 342.295 491.377 340.286C491.377 338.277 492.802 336.642 494.566 336.642C496.329 336.642 497.754 338.277 497.754 340.286Z" fill="#523646"/>
<path d="M494.928 340.286C494.928 341.442 494.355 342.376 493.643 342.376C492.93 342.376 492.358 341.442 492.358 340.286C492.358 339.129 492.93 338.195 493.643 338.195C494.355 338.195 494.928 339.129 494.928 340.286Z" fill="#412332"/>
<path d="M526.125 163.564C533.74 164.581 546.624 166.449 547.395 171.892C548.177 177.335 550.128 241.787 547.395 243.831C544.661 245.875 528.905 249.776 528.484 249.274C528.064 248.76 526.113 163.564 526.113 163.564H526.125Z" fill="#BBAFA3"/>
<path d="M547.397 243.83C550.13 241.786 548.179 177.335 547.397 171.892C547.081 169.696 544.792 168.096 541.685 166.881C542.935 185.231 547.572 231.66 537.468 236.227C527.365 240.794 528.498 249.273 528.498 249.273C528.918 249.787 544.675 245.874 547.408 243.83H547.397Z" fill="#B0A294"/>
<path d="M548.808 256.037C548.855 260.814 549.521 265.334 545.83 267.331C542.139 269.317 495.745 271.922 490.921 266.549C486.109 261.176 490.617 254.413 490.617 254.413L548.808 256.037Z" fill="#B0A294"/>
<path d="M548.809 256.036C548.809 259.073 531.721 262.087 514.142 262.087C496.564 262.087 482.302 259.634 482.302 256.597C482.302 253.56 496.564 251.107 514.142 251.107C531.721 251.107 548.809 253 548.809 256.036Z" fill="#BBAFA3"/>
<path d="M528.836 251.563C516.805 254.612 498.888 259.681 512.448 259.833C531.837 260.043 538.799 257.94 541.415 252.953C538.016 252.346 533.683 251.878 528.836 251.563Z" fill="#B0A294"/>
<path d="M548.878 259.973L548.808 259.844C547.815 267.098 499.12 269.609 490.921 266.549C495.745 271.922 542.138 269.317 545.829 267.331C548.469 265.906 548.878 263.161 548.878 259.973Z" fill="#A39484"/>
<path d="M461.837 328.138C463.333 328.559 463.578 331.28 463.554 333.967C463.554 334.819 463.519 335.941 462.97 336.641C460.775 339.375 457.235 339.036 456.558 338.615C455.764 338.125 454.082 339.702 452.552 340.274C449.293 341.489 444.831 342.505 438.711 341.021C429.892 338.884 435.837 333.137 441.234 331.619C446.63 330.112 461.849 328.138 461.849 328.138H461.837Z" fill="#412332"/>
<path d="M461.769 319.939C460.203 324.272 462.796 330.614 462.493 331.011C462.259 331.303 459.374 333.406 452.401 334.2C450.03 334.469 445.241 336.536 442.309 335.754C434.157 333.604 442.508 331.607 448.185 329.294C450.544 328.337 451.303 327.145 451.829 326.444C453.616 324.038 452.413 317.03 452.413 317.03L461.769 319.939Z" fill="#F0BB8F"/>
<path d="M479.686 332.191C481.181 332.612 481.427 335.333 481.403 338.02C481.403 338.861 481.368 339.994 480.819 340.695C478.623 343.439 475.084 343.089 474.407 342.669C473.601 342.178 471.942 343.755 470.401 344.327C467.142 345.542 462.68 346.558 456.56 345.075C447.753 342.937 453.686 337.191 459.082 335.684C464.479 334.165 479.698 332.203 479.698 332.203L479.686 332.191Z" fill="#523646"/>
<path d="M479.604 323.992C478.039 328.337 480.632 334.668 480.328 335.065C480.106 335.357 477.21 337.459 470.237 338.253C467.865 338.522 463.077 340.589 460.145 339.807C451.992 337.646 460.343 335.66 466.02 333.348C468.391 332.39 469.139 331.21 469.664 330.498C471.463 328.092 470.248 321.083 470.248 321.083L479.604 323.98V323.992Z" fill="#F0BB8F"/>
<path d="M505.393 229.522C505.393 229.522 505.299 230.293 499.004 231.064C492.708 231.835 453.159 243.352 449.935 245.326C446.712 247.311 446.069 255.067 446.233 264.68C446.396 274.293 448.277 321.854 448.277 321.854C448.277 321.854 456.289 324.366 464.816 322.637C464.816 322.637 465.961 273.452 462.9 265.486L483.89 264.703L505.393 229.522Z" fill="#183178"/>
<path d="M537.875 230.492C540.982 246.809 538.074 256.749 528.321 258.069C518.568 259.388 502.402 260.989 500.183 261.596C497.964 262.203 483.878 264.691 483.878 264.691C483.878 264.691 484.31 308.071 482.453 327.542C482.453 327.542 468.799 331.876 464.127 324.891C464.127 324.891 462.421 284.232 461.861 269.62C461.3 255.008 459.91 251.388 462.888 247.965C465.867 244.555 491.622 238.995 493.572 237.313C495.523 235.631 502.169 230.609 502.169 230.609L537.864 230.492H537.875Z" fill="#294490"/>
<path d="M522.433 160.282C525.516 161.649 532.606 173.598 534.37 178.48C536.122 183.362 538.33 193.279 538.551 204.725C538.773 216.172 538.586 234.767 538.586 234.767C538.586 234.767 514.268 239.322 500.579 231.368C498.29 230.036 497.799 216.791 496.596 208.673C494.447 194.178 489.95 175.455 489.95 175.455L495.323 164.23L513.451 160.294H522.444L522.433 160.282Z" fill="#D5BFF2"/>
<path d="M475.819 142.645C474.161 138.978 480.923 128.898 489.94 128.606C498.958 128.325 503.618 131.607 505.79 135.625C507.951 139.643 511.047 147.878 519.865 153.73C530.377 160.703 533.8 171.437 533.8 177.102C533.8 177.102 526.955 162.478 520.134 161.485C513.312 160.492 513.441 160.294 513.441 160.294C513.441 160.294 512.985 164.125 510.322 167.127C507.659 170.129 505.136 174.672 505.136 174.672C505.136 174.672 498.537 164.207 500.628 156.802L475.819 142.657V142.645Z" fill="#B38644"/>
<g style="mix-blend-mode:multiply" opacity="0.3">
<g style="mix-blend-mode:multiply" opacity="0.3">
<path d="M519.863 153.73C511.045 147.878 507.95 139.644 505.789 135.626C504.072 132.437 500.731 129.739 494.938 128.898C501.981 131.269 504.96 137.179 503.827 143.708C502.694 150.273 490.616 148.24 482.207 143.708C482.207 143.708 483.351 145.39 485.08 147.937L500.615 156.802C498.524 164.207 505.123 174.673 505.123 174.673C505.123 174.673 507.646 170.129 510.309 167.127C512.972 164.125 513.428 160.294 513.428 160.294C513.428 160.294 513.299 160.493 520.12 161.486C525.587 162.28 531.053 171.799 533.015 175.56C533.237 175.537 533.459 175.514 533.681 175.49C533.12 169.58 529.465 160.107 519.852 153.73H519.863Z" fill="#B38644"/>
</g>
</g>
<path d="M475.818 142.645C474.486 151.802 478.154 152.305 478.481 154.465C478.808 156.626 476.32 158.623 481.81 165.118C487.299 171.612 490.804 171.939 493.291 169.615C495.791 167.29 501.946 162.279 500.615 156.79C500.615 156.79 505.777 153.8 503.944 149.968C502.11 146.137 498.454 150.471 498.454 150.471C498.454 150.471 491.458 149.303 486.295 146.137C481.132 142.972 479.474 141.804 475.806 142.645H475.818Z" fill="#F0BB8F"/>
<g opacity="0.5">
<path opacity="0.5" d="M503.955 149.969C502.121 146.138 498.465 150.471 498.465 150.471C498.465 150.471 491.469 149.303 486.306 146.138C484.624 145.11 483.328 144.316 482.207 143.708C487.416 151.219 483.643 166.975 483.62 167.092C488.093 171.636 491.095 171.671 493.303 169.615C495.802 167.291 501.958 162.28 500.626 156.79C500.626 156.79 505.789 153.8 503.955 149.969Z" fill="#E8AB79"/>
</g>
<path d="M493.631 179.987C493.631 178.223 493.374 175.969 493.666 175.385C493.946 174.789 494.542 172.523 497.088 171.402C499.646 170.269 500.347 169.369 501.27 166.987C502.192 164.604 501.772 164.254 500.943 162.256C500.125 160.259 499.938 158.308 498.665 159.5C498.665 159.5 497.485 150.296 496.446 149.817C495.418 149.338 494.869 149.758 494.869 149.758C494.869 149.758 494.425 148.252 493.28 148.135C492.136 148.03 491.587 148.988 491.75 149.688C491.75 149.688 490.185 148.929 489.66 149.735C489.134 150.529 489.379 152.795 489.379 152.795C489.379 152.795 487.908 152.118 487.674 153.952C487.429 155.785 488.597 161.882 488.562 162.35C488.515 162.805 484.731 167.641 485.011 172.29C485.28 176.938 485.478 181.984 485.478 181.984L493.643 179.998L493.631 179.987Z" fill="#FAC396"/>
<path d="M520.272 161.287L513.451 160.282C513.451 160.282 512.785 163.284 510.122 166.274C509.62 166.846 509.129 167.512 508.662 168.19C505.987 172.92 503.067 178.41 502.343 180.711C501.011 184.869 498.442 191.76 498.442 191.76C498.442 191.76 494.447 177.113 493.945 176.775C493.443 176.436 483.62 180.431 483.62 180.431C483.62 180.431 484.612 189.086 485.278 194.248C485.944 199.411 489.974 213.999 490.301 214.502C490.628 215.004 491.796 216.662 496.456 216.499C501.117 216.335 507.471 208.51 512.598 201.817C518.158 194.552 524.091 185.909 526.755 180.244C529.418 174.59 528.261 170.596 525.295 164.417C523.764 162.758 522.059 161.532 520.272 161.275V161.287Z" fill="#F0E6FF"/>
<g opacity="0.3">
<path opacity="0.3" d="M521.593 175.56C520.741 182.346 503.606 206.676 500.043 210.367C496.726 213.789 494.297 214.104 489.508 211.979C489.928 213.427 490.232 214.396 490.314 214.513C490.641 215.015 491.809 216.674 496.469 216.511C501.13 216.347 507.484 208.521 512.611 201.829C518.171 194.563 524.105 185.92 526.768 180.255C529.431 174.602 528.274 170.607 525.308 164.429C523.777 162.77 522.072 161.544 520.285 161.287C520.285 161.287 522.458 168.774 521.605 175.56H521.593Z" fill="#D5BFF2"/>
</g>
<g opacity="0.3">
<path opacity="0.3" d="M505.136 174.672C503.816 177.207 502.742 179.45 502.333 180.723C501.001 184.881 498.432 191.772 498.432 191.772C498.432 191.772 500.008 197.25 500.441 199.084L505.136 174.672Z" fill="#D5BFF2"/>
</g>
<path d="M464.446 215.098H480.646L479.817 212.271H462.601L464.446 215.098Z" fill="#C3C6D5"/>
<path d="M479.816 212.271L474.898 210.928H464.176L464.456 212.271H479.816Z" fill="#DBDFE8"/>
<path d="M424.79 215.098L416.392 179.263H460.391L468.509 215.098H424.79Z" fill="#DBDFE8"/>
<g opacity="0.5">
<path opacity="0.5" d="M457.355 179.263C457.846 195.825 446.995 210.285 423.938 211.43L424.803 215.086H468.522L460.404 179.251H457.367L457.355 179.263Z" fill="#C3C6D5"/>
</g>
<path d="M446.222 196.047C446.222 197.986 444.155 199.563 441.597 199.563C439.039 199.563 436.972 197.986 436.972 196.047C436.972 194.108 439.039 192.531 441.597 192.531C444.155 192.531 446.222 194.108 446.222 196.047Z" fill="white"/>
<path d="M491.775 228.74H482.816L501.189 350.938H502.392L491.775 228.74Z" fill="#694329"/>
<path d="M285.293 28.2376C296.599 24.9438 307.147 30.5853 310.032 40.5018C312.239 48.0705 308.782 56.0831 301.996 60.9304L305.371 66.2916L294.801 64.4344C283.494 67.7283 272.223 63.2197 269.338 53.3032C266.441 43.3868 273.998 31.5314 285.305 28.2376H285.293Z" fill="white"/>
<path d="M170.197 90.0494L135.576 82.3755L130.939 106.752L144.594 111.938L145.843 120.394L152.361 114.881L159.719 117.673L170.197 90.0494Z" fill="white"/>
<path d="M245.908 18.6251C245.336 18.1812 244.74 17.8075 244.121 17.4804C245.184 15.4481 244.682 12.8901 242.813 11.4301C241.89 10.7059 240.792 10.3905 239.706 10.4256C238.842 7.6457 237.16 5.09942 234.695 3.16051C228.248 -1.89701 218.915 -0.764029 213.858 5.69511C212.795 7.05001 212.024 8.5334 211.498 10.0635C208.964 10.3205 206.523 11.5586 204.829 13.7311C201.523 17.9476 202.271 24.0447 206.488 27.3502C208.24 28.7284 210.33 29.3942 212.398 29.4059C212.246 32.4661 213.519 35.5497 216.112 37.5703C220.352 40.8875 226.472 40.14 229.79 35.9117C229.825 35.865 229.86 35.8066 229.895 35.7599C230.338 36.2622 230.829 36.7294 231.378 37.1615C236.494 41.1678 243.887 40.2685 247.894 35.1525C251.9 30.0366 251.001 22.6431 245.885 18.6368L245.908 18.6251Z" fill="#FEF2D0"/>
<path d="M232.722 43.4921C232.489 45.1974 230.924 46.4004 229.218 46.1668C227.513 45.9332 226.31 44.3681 226.544 42.6628C226.777 40.9574 228.342 39.7544 230.048 39.988C231.753 40.2216 232.956 41.7867 232.722 43.4921Z" fill="#FEF2D0"/>
<path d="M229.135 50.138C228.96 51.4111 227.792 52.3105 226.507 52.147C225.234 51.9717 224.334 50.8037 224.498 49.5189C224.673 48.2458 225.841 47.3464 227.126 47.5099C228.399 47.6851 229.298 48.8531 229.135 50.138Z" fill="#FEF2D0"/>
<path d="M225.201 55.1137C225.084 56.0248 224.243 56.6672 223.332 56.5387C222.421 56.4219 221.779 55.5809 221.907 54.6699C222.024 53.7588 222.865 53.1164 223.776 53.2449C224.687 53.3617 225.329 54.2027 225.201 55.1137Z" fill="#FEF2D0"/>
</svg>
