<svg width="354" height="349" viewBox="0 0 354 349" fill="none" xmlns="http://www.w3.org/2000/svg">
<g clip-path="url(#clip0_1248_5522)">
<path d="M264.079 215.998H321.646V171.698H264.079V215.998Z" fill="#EBEBEB"/>
<path d="M268.2 212.135H275.139V204.315H268.2V212.135Z" fill="white"/>
<path d="M304.097 171.817H297.557V181.267H304.097V171.817Z" fill="#FAFAFA"/>
<path d="M304.097 206.413H297.557V215.863H304.097V206.413Z" fill="#FAFAFA"/>
<path d="M278.453 216.308C278.349 216.308 278.27 206.564 278.27 194.547C278.27 182.531 278.349 172.787 278.453 172.787C278.556 172.787 278.636 182.531 278.636 194.547C278.636 206.564 278.556 216.308 278.453 216.308Z" fill="#E0E0E0"/>
<path d="M240.609 292.286H339.938V215.855H240.609V292.286Z" fill="#EBEBEB"/>
<path d="M247.708 285.61H259.674V272.115H247.708V285.61Z" fill="white"/>
<path d="M309.632 216.054H298.352V232.362H309.632V216.054Z" fill="#FAFAFA"/>
<path d="M309.632 275.748H298.352V292.056H309.632V275.748Z" fill="#FAFAFA"/>
<path d="M265.393 292.811C265.218 292.811 265.074 276.002 265.074 255.267C265.074 234.532 265.218 217.723 265.393 217.723C265.568 217.723 265.712 234.532 265.712 255.267C265.712 276.002 265.568 292.811 265.393 292.811Z" fill="#E0E0E0"/>
<path opacity="0.1" d="M336.777 56.8882L342.098 67.6412L354.001 69.3658L345.389 77.7425L347.42 89.5605L336.777 83.9813L326.141 89.5605L328.173 77.7425L319.561 69.3658L331.463 67.6412L336.777 56.8882Z" fill="#EBEBEB"/>
<path opacity="0.1" d="M19.9327 195.771L23.2866 202.551L30.7913 203.64L25.366 208.917L26.6406 216.364L19.9327 212.851L13.2327 216.364L14.5073 208.917L9.08203 203.64L16.5867 202.551L19.9327 195.771Z" fill="#EBEBEB"/>
<path opacity="0.1" d="M24.0992 136.721L31.5401 151.774L48.1985 154.182L36.1449 165.905L38.989 182.443L24.0992 174.639L9.20153 182.443L12.0456 165.905L0 154.182L16.6504 151.774L24.0992 136.721Z" fill="#EBEBEB"/>
<path opacity="0.1" d="M332.043 105.456L335.253 111.941L342.423 112.982L337.229 118.037L338.456 125.165L332.043 121.796L325.622 125.165L326.849 118.037L321.654 112.982L328.832 111.941L332.043 105.456Z" fill="#EBEBEB"/>
<path opacity="0.1" d="M226.701 0.349609L229.911 6.8348L237.089 7.87592L231.895 12.9226L233.122 20.0515L226.701 16.6897L220.288 20.0515L221.515 12.9226L216.32 7.87592L223.498 6.8348L226.701 0.349609Z" fill="#EBEBEB"/>
<path opacity="0.1" d="M300.137 69.7632L302.241 74.0072L306.933 74.6907L303.539 77.9889L304.336 82.662L300.137 80.4526L295.939 82.662L296.736 77.9889L293.342 74.6907L298.034 74.0072L300.137 69.7632Z" fill="#EBEBEB"/>
<path opacity="0.1" d="M106.307 284.108L110.394 292.374L119.548 293.701L112.927 300.139L114.489 309.231L106.307 304.939L98.1253 309.231L99.6867 300.139L93.0664 293.701L102.212 292.374L106.307 284.108Z" fill="#EBEBEB"/>
<path opacity="0.1" d="M117.11 275.883L118.799 279.3L122.575 279.849L119.842 282.511L120.488 286.262L117.11 284.49L113.724 286.262L114.369 282.511L111.637 279.849L115.413 279.3L117.11 275.883Z" fill="#EBEBEB"/>
<path d="M268.198 244.22L271.799 251.492L279.837 252.652L274.022 258.319L275.392 266.306L268.198 262.531L261.004 266.306L262.374 258.319L256.559 252.652L264.605 251.492L268.198 244.22Z" fill="#FF725E"/>
<path d="M285.358 237.774L287.055 241.2L290.847 241.748L288.107 244.419L288.752 248.186L285.358 246.405L281.972 248.186L282.617 244.419L279.877 241.748L283.669 241.2L285.358 237.774Z" fill="#FF725E"/>
<path d="M262.87 48.504L265.682 39.7141C263.492 35.335 262.456 30.3121 262.926 25.0827C264.288 10.038 277.64 -1.05678 292.737 0.310196C307.842 1.66922 318.98 14.9734 317.609 30.0181C316.247 45.0628 302.895 56.1575 287.798 54.7905C281.488 54.2183 276.302 51.9453 271.992 47.9557L262.862 48.504H262.87Z" fill="#FAFAFA"/>
<path d="M262.87 48.5038C262.87 48.5038 263.085 48.48 263.475 48.4561C263.882 48.4243 264.471 48.3846 265.228 48.329C266.773 48.2256 269.044 48.0667 271.992 47.868H272.031L272.063 47.8918C274.66 50.284 278.62 52.9306 283.981 54.0671C285.312 54.3532 286.714 54.5757 288.172 54.6631C288.905 54.687 289.646 54.7188 290.403 54.7506C291.159 54.7506 291.924 54.6631 292.705 54.6234C295.812 54.3373 299.062 53.5028 302.185 51.9769C305.308 50.4589 308.288 48.2574 310.781 45.4202C313.267 42.5829 315.291 39.1178 316.414 35.2314C317.537 31.353 317.816 27.1011 317.091 22.9048C316.964 21.8478 316.629 20.8225 316.366 19.7814C316.247 19.2569 316.024 18.7562 315.84 18.2475C315.649 17.7469 315.466 17.2303 315.259 16.7296C314.319 14.7745 313.291 12.8114 311.889 11.0868C311.251 10.1729 310.471 9.39399 309.73 8.58335C309.379 8.16213 308.933 7.82833 308.535 7.4548C308.121 7.09716 307.738 6.70773 307.308 6.38188L306.001 5.42023L305.348 4.94338L304.655 4.5301L303.269 3.70356C302.807 3.44129 302.305 3.23466 301.827 3.00418C297.971 1.20009 293.796 0.32586 289.749 0.413283C285.702 0.492758 281.823 1.47825 278.421 3.11544C275.019 4.75264 272.095 7.02563 269.801 9.61653C267.498 12.2074 265.825 15.1083 264.718 18.0171C264.583 18.3827 264.455 18.7482 264.328 19.1059C264.192 19.4635 264.073 19.8212 263.993 20.1947C263.81 20.9259 263.635 21.6491 263.451 22.3564C263.26 23.8029 262.989 25.1937 262.965 26.5527C262.742 31.9968 264.184 36.5189 265.754 39.69L265.77 39.7218V39.7536C264.83 42.5829 264.113 44.7605 263.619 46.2467C263.372 46.9779 263.188 47.5422 263.061 47.9316C262.934 48.3131 262.862 48.5118 262.862 48.5118C262.862 48.5118 262.91 48.329 263.021 47.9554C263.141 47.566 263.316 47.0097 263.539 46.2785C264.009 44.7685 264.694 42.559 265.586 39.69V39.7536C263.985 36.5825 262.495 32.0286 262.687 26.5289C262.71 25.154 262.965 23.7552 263.157 22.2928C263.332 21.5776 263.507 20.8464 263.69 20.1073C263.77 19.7337 263.889 19.3681 264.025 19.0026C264.152 18.637 264.288 18.2714 264.415 17.8979C265.515 14.9573 267.204 12.0087 269.53 9.3781C271.848 6.74747 274.796 4.43473 278.245 2.76575C281.687 1.09677 285.631 0.0953814 289.733 0.00795858C293.836 -0.0874118 298.075 0.794764 301.994 2.6227C302.48 2.86112 302.982 3.06776 303.452 3.33003L304.854 4.16452L305.555 4.58574L306.217 5.07054L307.547 6.04808C307.985 6.38188 308.375 6.77926 308.798 7.13689C309.204 7.51838 309.65 7.85217 310.009 8.28134C310.758 9.10788 311.554 9.89469 312.2 10.8166C313.618 12.5651 314.669 14.5599 315.617 16.5468C315.832 17.0554 316.008 17.58 316.207 18.0886C316.39 18.6052 316.621 19.1059 316.741 19.6463C317.011 20.7033 317.354 21.7445 317.481 22.8174C318.214 27.0773 317.92 31.3928 316.78 35.3268C315.633 39.2688 313.578 42.7816 311.044 45.6506C308.511 48.5276 305.484 50.745 302.313 52.2709C299.142 53.8048 295.844 54.6393 292.705 54.9175C291.916 54.9572 291.144 55.0287 290.379 55.0367C289.614 55.0049 288.865 54.9731 288.124 54.9413C286.65 54.8459 285.24 54.6155 283.894 54.3214C278.484 53.1531 274.501 50.443 271.92 48.0111L271.984 48.0349C269.004 48.1938 266.718 48.3131 265.156 48.3925C264.407 48.4323 263.826 48.4561 263.419 48.48C263.037 48.4959 262.846 48.5038 262.846 48.5038H262.87Z" fill="#263238"/>
<path d="M274.709 26.5131L279.226 22.6109L286.842 30.4074L303.899 16.229L307.516 20.7114L285.655 38.4741L274.709 26.5131Z" fill="#FF725E"/>
<path d="M215.603 243.878L62.8342 277.846C59.1296 278.672 55.449 276.336 54.6205 272.64L5.03579 50.7052C4.20726 47.0096 6.54947 43.3379 10.254 42.5113L163.031 8.55151C166.736 7.72496 170.416 10.0615 171.245 13.7571L220.822 235.692C221.65 239.388 219.316 243.059 215.603 243.886V243.878Z" fill="#E0E0E0"/>
<path d="M215.603 243.878C215.603 243.878 215.77 243.822 216.113 243.727C216.447 243.632 216.941 243.441 217.547 243.107C218.136 242.757 218.837 242.233 219.474 241.43C220.104 240.635 220.669 239.547 220.869 238.211C220.98 237.552 220.972 236.829 220.853 236.089C220.725 235.35 220.526 234.579 220.351 233.769C219.984 232.147 219.586 230.367 219.156 228.444C218.287 224.597 217.292 220.155 216.168 215.148C211.683 195.144 205.198 166.191 197.192 130.427C193.192 112.537 188.803 92.9464 184.102 71.9173C181.752 61.4027 179.314 50.5225 176.813 39.3244C175.562 33.7214 174.287 28.0389 173.005 22.277C172.359 19.4 171.706 16.4991 171.053 13.5824C170.702 12.1598 169.842 10.8802 168.687 9.9583C167.516 9.06023 166.058 8.52774 164.568 8.53569C163.819 8.53569 163.094 8.67875 162.353 8.85359C161.612 9.02049 160.863 9.18739 160.123 9.35429C158.633 9.68808 157.135 10.0219 155.637 10.3557C152.634 11.0233 149.622 11.6909 146.587 12.3664C140.517 13.7175 134.382 15.0845 128.176 16.4594C115.764 19.2172 103.097 22.0385 90.1989 24.9076C64.4028 30.6457 37.6904 36.5825 10.3328 42.6703C8.65982 43.0359 7.14615 44.0612 6.20608 45.4838C5.25007 46.8905 4.86767 48.6707 5.17041 50.3477C5.88741 53.7333 6.67611 57.119 7.41701 60.4887C8.92272 67.2282 10.4205 73.928 11.9023 80.5721C14.8738 93.8683 17.7976 106.966 20.6736 119.833C26.4176 145.575 31.9624 170.403 37.2443 194.063C42.5262 217.715 47.5373 240.19 52.2297 261.227C52.8192 263.858 53.4008 266.465 53.9744 269.048C54.2691 270.335 54.54 271.639 54.8507 272.894C55.1773 274.142 55.8784 275.271 56.8264 276.129C57.7745 276.987 58.9615 277.56 60.2043 277.782C60.8257 277.885 61.4631 277.901 62.0924 277.838C62.7138 277.758 63.3352 277.607 63.9646 277.464C66.4582 276.908 68.9358 276.36 71.3816 275.819C81.1727 273.649 90.5654 271.559 99.5279 269.572C135.394 261.625 164.417 255.187 184.469 250.745C194.499 248.527 202.282 246.811 207.564 245.642C210.201 245.062 212.217 244.617 213.571 244.323C214.925 244.029 215.619 243.886 215.619 243.886C215.619 243.886 214.925 244.053 213.579 244.355C212.225 244.657 210.217 245.11 207.58 245.706C202.298 246.89 194.515 248.631 184.493 250.872C164.441 255.346 135.426 261.816 99.5677 269.803C90.6052 271.798 81.2125 273.888 71.4214 276.073C68.9756 276.622 66.506 277.17 64.0044 277.727C63.383 277.862 62.7616 278.021 62.1084 278.1C61.4551 278.164 60.7939 278.148 60.1486 278.044C58.85 277.814 57.6151 277.226 56.6352 276.328C55.6553 275.438 54.9144 274.261 54.5798 272.966C54.2612 271.678 53.9983 270.399 53.7035 269.103C53.1219 266.521 52.5404 263.914 51.9508 261.283C47.2505 240.246 42.2235 217.77 36.9336 194.119C31.6437 170.467 26.0989 145.639 20.339 119.897C17.463 107.029 14.5392 93.924 11.5677 80.6357C10.0859 73.9916 8.58812 67.2918 7.08241 60.5523C6.33354 57.1746 5.56077 53.8128 4.82784 50.3953C4.51714 48.6469 4.91547 46.7713 5.91927 45.293C6.90714 43.8068 8.49252 42.726 10.2532 42.3445C37.6108 36.2646 64.3231 30.3278 90.1193 24.5897C103.017 21.7206 115.692 18.9072 128.096 16.1494C134.303 14.7745 140.437 13.4075 146.508 12.0564C149.543 11.3809 152.562 10.7133 155.558 10.0457C157.055 9.71193 158.553 9.37813 160.043 9.05228C160.792 8.88538 161.533 8.71848 162.274 8.55953C163.007 8.38469 163.779 8.22574 164.56 8.23368C166.114 8.23368 167.643 8.78206 168.862 9.71987C170.065 10.6736 170.965 12.0167 171.332 13.5029C171.985 16.4196 172.638 19.3205 173.284 22.2054C174.566 27.9674 175.841 33.6499 177.092 39.2529C179.593 50.4589 182.015 61.3311 184.365 71.8537C189.058 92.8908 193.423 112.481 197.415 130.371C205.381 166.151 211.834 195.104 216.296 215.116C217.411 220.115 218.399 224.565 219.251 228.412C219.682 230.335 220.072 232.116 220.43 233.745C220.606 234.563 220.805 235.326 220.924 236.074C221.044 236.821 221.052 237.552 220.932 238.219C220.725 239.562 220.144 240.659 219.506 241.462C218.861 242.265 218.152 242.789 217.554 243.139C216.941 243.465 216.447 243.655 216.113 243.751C215.77 243.838 215.603 243.886 215.603 243.886V243.878Z" fill="#263238"/>
<g opacity="0.3">
<path opacity="0.3" d="M70.5761 269.986L209.77 238.243L205.365 211.023L197.478 195.771L64.3223 247.955L70.5761 269.986Z" fill="black"/>
</g>
<g opacity="0.3">
<path opacity="0.3" d="M128.686 16.6899L133.952 25.3607L134.979 29.9544L131.402 30.7491L128.686 16.6899Z" fill="black"/>
</g>
<path d="M12.9707 51.9932L61.2648 268.166L212.64 234.508L204.004 195.859L164.346 18.3354L12.9707 51.9932Z" fill="white"/>
<path d="M12.9707 51.993C14.0462 51.7546 72.3146 38.7445 164.314 18.2081L164.441 18.1763L164.473 18.3114C177.905 78.3868 194.659 153.356 212.791 234.46V234.476L212.831 234.635L212.672 234.675C158.554 246.7 107.169 258.12 61.2967 268.317L61.1453 268.349L61.1134 268.198C32.6883 140.544 13.2655 53.3044 12.9707 51.993C13.2655 53.3123 32.8078 140.521 61.4082 268.134L61.225 268.023C107.097 257.818 158.482 246.39 212.6 234.357L212.473 234.556V234.54C194.364 153.427 177.626 78.4583 164.21 18.375L164.37 18.4783C72.3385 38.8478 14.0462 51.7546 12.9707 51.993Z" fill="#263238"/>
<path d="M55.5958 26.2834L122.353 11.4461C125.067 10.8429 127.766 12.5474 128.372 15.2624L132.225 32.5148L55.6232 49.5401L51.7685 32.28C51.1639 29.5727 52.8725 26.8805 55.5941 26.2756L55.5958 26.2834Z" fill="#FF725E"/>
<path d="M96.8578 8.36084L77.3633 12.6922L83.3702 28.8575L98.0528 25.5911L96.8578 8.36084Z" fill="#FF725E"/>
<path d="M122.351 11.4365C122.367 11.5239 107.445 14.9175 89.01 19.0185C70.5751 23.1194 55.6136 26.3699 55.5977 26.2825C55.5817 26.1951 70.5034 22.8015 88.9383 18.7006C107.365 14.5996 122.327 11.3491 122.351 11.4445V11.4365Z" fill="#455A64"/>
<path d="M56.5471 45.5792C56.4595 45.5951 55.6867 42.4796 54.8263 38.6171C53.9659 34.7467 53.3365 31.5995 53.4242 31.5836C53.5118 31.5677 54.2846 34.6831 55.1529 38.5456C56.0133 42.4081 56.6427 45.5633 56.5551 45.5792H56.5471Z" fill="#455A64"/>
<path d="M128.574 27.8244C128.486 27.8403 127.777 25.011 126.996 21.5061C126.215 17.9933 125.65 15.1322 125.737 15.1163C125.825 15.1004 126.534 17.9297 127.315 21.4346C128.096 24.9474 128.661 27.8085 128.574 27.8244Z" fill="#455A64"/>
<path d="M125.539 31.5915C125.555 31.6789 110.235 35.16 91.3142 39.3722C72.3853 43.5764 57.0335 46.9144 57.0176 46.8269C57.0017 46.7395 72.3216 43.2585 91.2425 39.0463C110.163 34.8421 125.515 31.5041 125.539 31.5915Z" fill="#455A64"/>
<path d="M85.2192 94.4805C85.2431 94.5679 74.9023 96.9442 62.1397 99.7815C49.3691 102.619 39.0044 104.852 38.9805 104.757C38.9566 104.669 49.2894 102.293 62.06 99.4556C74.8227 96.6184 85.1953 94.3851 85.2112 94.4805H85.2192Z" fill="#263238"/>
<path d="M162.266 85.8254C162.29 85.9128 135.283 91.9927 101.958 99.4078C68.6173 106.823 41.5863 112.752 41.5703 112.664C41.5464 112.577 68.5535 106.497 101.886 99.0819C135.211 91.6748 162.25 85.738 162.266 85.8254Z" fill="#263238"/>
<path d="M163.922 93.2563C163.946 93.3437 136.939 99.4236 103.614 106.839C70.2735 114.254 43.2425 120.183 43.2266 120.095C43.2027 120.008 70.2098 113.928 103.542 106.513C136.867 99.1057 163.906 93.1689 163.922 93.2563Z" fill="#263238"/>
<path d="M165.588 100.687C165.612 100.775 138.605 106.855 105.28 114.27C71.9395 121.685 44.9085 127.614 44.8926 127.526C44.8687 127.439 71.8758 121.359 105.208 113.944C138.533 106.537 165.572 100.6 165.588 100.687Z" fill="#263238"/>
<path d="M167.244 108.11C167.268 108.198 140.261 114.278 106.936 121.693C73.5958 129.108 46.5648 135.037 46.5488 134.949C46.5249 134.862 73.532 128.782 106.865 121.367C140.189 113.96 167.228 108.023 167.244 108.11Z" fill="#263238"/>
<path d="M168.902 115.541C168.926 115.629 141.919 121.709 108.595 129.124C75.254 136.539 48.223 142.468 48.207 142.38C48.1831 142.293 75.1902 136.213 108.523 128.798C141.848 121.391 168.886 115.454 168.902 115.541Z" fill="#263238"/>
<path d="M71.6135 167.836C71.6135 167.836 71.5817 167.749 71.5418 167.582C71.494 167.399 71.4383 167.16 71.3666 166.874C71.2152 166.231 71.0001 165.341 70.7372 164.22C70.2034 161.923 69.4546 158.696 68.5623 154.834L68.7376 154.945C64.9374 155.796 60.4522 156.805 55.6801 157.87C55.6483 157.91 55.9192 157.496 55.8076 157.671V157.727L55.8315 157.782L55.8554 157.894L55.9032 158.116L55.9988 158.561C56.0625 158.855 56.1343 159.149 56.198 159.443C56.3255 160.032 56.4609 160.612 56.5883 161.184C56.8433 162.336 57.0903 163.457 57.3372 164.554C57.8232 166.739 58.2773 168.806 58.6916 170.705L58.5163 170.594C62.404 169.759 65.6465 169.068 67.9568 168.567C69.0881 168.329 69.9883 168.146 70.6336 168.011C70.9284 167.955 71.1594 167.908 71.3506 167.868C71.5179 167.836 71.6056 167.82 71.6135 167.828C71.6135 167.828 71.5418 167.852 71.3905 167.892C71.2152 167.939 70.9842 167.995 70.7053 168.059C70.068 168.21 69.1837 168.416 68.0763 168.678C65.75 169.211 62.4837 169.966 58.5721 170.864L58.4287 170.896L58.3968 170.753C57.9666 168.853 57.5045 166.795 57.0106 164.609C56.7636 163.513 56.5087 162.392 56.2538 161.24C56.1263 160.667 55.9909 160.087 55.8634 159.499C55.7997 159.205 55.728 158.911 55.6642 158.617L55.5686 158.172L55.5208 157.949L55.4969 157.838L55.481 157.782V157.743H55.473C55.3615 157.91 55.6244 157.488 55.6005 157.528C60.3805 156.471 64.8657 155.486 68.6738 154.643L68.8172 154.611L68.8491 154.754C69.6936 158.665 70.3946 161.939 70.8965 164.268C71.1276 165.38 71.3108 166.27 71.4462 166.906C71.502 167.184 71.5498 167.415 71.5817 167.598C71.6135 167.749 71.6215 167.828 71.6135 167.828V167.836Z" fill="#263238"/>
<path d="M168.725 135.711L77.5742 155.97L79.2686 163.556L170.419 143.297L168.725 135.711Z" fill="#E0E0E0"/>
<path d="M76.6643 190.447C76.6643 190.447 76.6324 190.359 76.5926 190.193C76.5448 190.01 76.489 189.771 76.4173 189.485C76.266 188.841 76.0509 187.951 75.788 186.831C75.2542 184.534 74.5053 181.307 73.6131 177.445L73.7883 177.556C69.9882 178.406 65.503 179.416 60.7309 180.481C60.6991 180.52 60.9699 180.107 60.8584 180.282V180.338L60.8823 180.393L60.9062 180.504L60.954 180.727L61.0496 181.172C61.1133 181.466 61.185 181.76 61.2488 182.054C61.3762 182.642 61.5117 183.223 61.6391 183.795C61.8941 184.947 62.141 186.068 62.388 187.165C62.874 189.35 63.3281 191.416 63.7423 193.316L63.5671 193.205C67.4548 192.37 70.6973 191.679 73.0076 191.178C74.1389 190.94 75.0391 190.757 75.6844 190.622C75.9792 190.566 76.2102 190.518 76.4014 190.479C76.5687 190.447 76.6563 190.431 76.6643 190.439C76.6643 190.439 76.5926 190.463 76.4412 190.502C76.266 190.55 76.0349 190.606 75.7561 190.669C75.1188 190.82 74.2345 191.027 73.1271 191.289C70.8008 191.822 67.5345 192.577 63.6228 193.475L63.4794 193.507L63.4476 193.364C63.0174 191.464 62.5553 189.406 62.0614 187.22C61.8144 186.123 61.5595 185.003 61.3045 183.85C61.1771 183.278 61.0416 182.698 60.9142 182.11C60.8504 181.816 60.7787 181.522 60.715 181.228L60.6194 180.783L60.5716 180.56L60.5477 180.449L60.5318 180.393V180.353H60.5238C60.4123 180.52 60.6752 180.099 60.6513 180.139C65.4313 179.082 69.9165 178.096 73.7246 177.254L73.868 177.222L73.8999 177.365C74.7443 181.275 75.4454 184.55 75.9473 186.878C76.1783 187.991 76.3616 188.881 76.497 189.517C76.5528 189.795 76.6006 190.026 76.6324 190.208C76.6643 190.359 76.6723 190.439 76.6643 190.439V190.447Z" fill="#263238"/>
<path d="M173.772 158.322L82.6211 178.581L84.3154 186.168L175.466 165.909L173.772 158.322Z" fill="#E0E0E0"/>
<path d="M81.7152 213.058C81.7152 213.058 81.6834 212.97 81.6435 212.803C81.5957 212.621 81.54 212.382 81.4683 212.096C81.3169 211.452 81.1018 210.562 80.8389 209.442C80.3051 207.145 79.5563 203.918 78.664 200.056L78.8393 200.167C75.0392 201.017 70.5539 202.027 65.7819 203.091C65.75 203.131 66.0209 202.718 65.9093 202.893V202.948L65.9332 203.004L65.9571 203.115L66.0049 203.338L66.1005 203.783C66.1643 204.077 66.236 204.371 66.2997 204.665C66.4272 205.253 66.5626 205.833 66.6901 206.406C66.945 207.558 67.192 208.679 67.4389 209.775C67.9249 211.961 68.379 214.027 68.7933 215.927L68.618 215.815C72.5057 214.981 75.7482 214.29 78.0585 213.789C79.1898 213.55 80.09 213.368 80.7353 213.233C81.0301 213.177 81.2611 213.129 81.4523 213.089C81.6196 213.058 81.7073 213.042 81.7073 213.05C81.7073 213.05 81.6356 213.074 81.4842 213.113L80.7991 213.28C80.1617 213.431 79.2774 213.638 78.1701 213.9C75.8438 214.433 72.5775 215.188 68.6658 216.086L68.5224 216.117L68.4905 215.974C68.0603 214.075 67.5983 212.017 67.1043 209.831C66.8574 208.734 66.6024 207.614 66.3475 206.461C66.22 205.889 66.0926 205.309 65.9571 204.721C65.8934 204.427 65.8217 204.133 65.758 203.839L65.6624 203.393L65.6146 203.171L65.5907 203.06L65.5747 203.004V202.964H65.5668C65.4552 203.131 65.7181 202.71 65.6942 202.75C70.4742 201.693 74.9595 200.707 78.7676 199.865L78.911 199.833L78.9428 199.976C79.7873 203.886 80.4884 207.161 80.9903 209.489C81.2213 210.602 81.4045 211.492 81.54 212.128C81.5957 212.406 81.6435 212.636 81.6754 212.819C81.7073 212.97 81.7152 213.05 81.7073 213.05L81.7152 213.058Z" fill="#263238"/>
<path d="M178.819 180.933L87.668 201.192L89.3623 208.779L180.513 188.52L178.819 180.933Z" fill="#E0E0E0"/>
<path d="M59.0566 163.163L60.4269 161.017L64.4979 163.274L69.732 155.39L71.7635 156.781L64.9998 166.715L59.0566 163.163Z" fill="#FF725E"/>
<path d="M63.9414 185.019L65.3117 182.873L69.3827 185.13L74.6168 177.246L76.6483 178.637L69.8846 188.571L63.9414 185.019Z" fill="#FF725E"/>
<path d="M68.9434 207.431L70.3136 205.285L74.3846 207.534L79.6187 199.658L81.6502 201.049L74.8865 210.983L68.9434 207.431Z" fill="#FF725E"/>
<path d="M110.665 235.549C110.689 235.636 102.993 237.424 93.4807 239.539C83.9684 241.653 76.2408 243.298 76.2169 243.202C76.193 243.115 83.8888 241.327 93.409 239.213C102.921 237.099 110.649 235.453 110.665 235.549Z" fill="#263238"/>
<path d="M127.834 231.456C127.858 231.543 125.022 232.251 121.509 233.029C117.995 233.808 115.135 234.373 115.111 234.277C115.088 234.19 117.924 233.482 121.437 232.704C124.95 231.925 127.81 231.36 127.834 231.456Z" fill="#263238"/>
<path d="M184.668 213.614C184.692 213.701 177.761 215.323 169.205 217.222C160.641 219.13 153.686 220.6 153.67 220.505C153.646 220.417 160.569 218.796 169.133 216.896C177.69 214.997 184.652 213.527 184.668 213.614Z" fill="#263238"/>
<path d="M177.267 234.532C177.267 234.532 177.339 234.317 177.418 233.896C177.514 233.483 177.514 232.839 177.323 232.06C177.124 231.273 176.709 230.375 176.223 229.326C175.753 228.285 175.14 227.045 175.132 225.535C175.156 224.057 175.809 222.412 177.148 221.259C178.47 220.083 180.557 219.67 182.445 220.274C183.386 220.576 184.294 221.108 184.963 221.927C185.282 222.34 185.545 222.841 185.56 223.413C185.608 223.993 185.162 224.573 184.628 224.756C184.095 224.955 183.585 225.019 183.059 225.146C182.533 225.257 182.007 225.36 181.474 225.472C180.406 225.678 179.323 225.877 178.215 226.02C176 226.314 173.778 226.354 171.698 226.06C170.679 225.948 169.603 225.932 168.838 226.529C168.074 227.109 167.683 228.054 167.118 228.849C166.839 229.247 166.48 229.636 166.01 229.843C165.548 230.057 165.006 230.049 164.552 229.906C163.636 229.596 162.959 228.984 162.226 228.571C161.867 228.356 161.493 228.19 161.103 228.15C160.72 228.11 160.338 228.205 160.035 228.42C159.422 228.857 159.095 229.58 158.689 230.184C157.884 231.472 156.498 232.076 155.327 232.124C154.124 232.179 153.152 231.671 152.538 231.138C151.909 230.59 151.598 230.01 151.439 229.612C151.28 229.207 151.256 228.984 151.256 228.984C151.272 228.984 151.32 229.199 151.495 229.588C151.678 229.97 151.997 230.526 152.618 231.043C153.232 231.551 154.172 232.012 155.311 231.941C156.434 231.885 157.733 231.289 158.49 230.065C158.888 229.477 159.191 228.73 159.892 228.221C160.234 227.975 160.688 227.856 161.135 227.896C161.581 227.935 161.987 228.126 162.369 228.349C163.126 228.778 163.811 229.374 164.64 229.644C165.054 229.771 165.5 229.771 165.891 229.588C166.289 229.413 166.608 229.08 166.871 228.69C167.42 227.935 167.795 226.958 168.655 226.29C169.085 225.956 169.619 225.789 170.145 225.734C170.679 225.678 171.212 225.71 171.738 225.758C173.818 226.052 175.977 226.004 178.183 225.718C179.283 225.575 180.358 225.384 181.426 225.177C181.959 225.066 182.485 224.963 183.003 224.852C183.521 224.732 184.063 224.661 184.517 224.486C184.971 224.319 185.282 223.922 185.25 223.453C185.242 222.992 185.019 222.531 184.724 222.157C184.11 221.41 183.25 220.894 182.358 220.6C180.565 220.02 178.598 220.401 177.339 221.506C176.056 222.595 175.411 224.16 175.379 225.575C175.379 227.005 175.945 228.237 176.407 229.286C176.877 230.335 177.283 231.265 177.466 232.068C177.642 232.871 177.618 233.53 177.498 233.944C177.395 234.365 177.283 234.564 177.283 234.564L177.267 234.532Z" fill="#263238"/>
<path d="M193.734 224.359C193.734 224.359 193.59 224.415 193.32 224.486C193.009 224.558 192.61 224.653 192.117 224.772C191.025 225.027 189.519 225.376 187.671 225.798C183.919 226.664 178.74 227.888 173.052 229.326C167.356 230.765 162.218 232.156 158.505 233.173C156.681 233.674 155.183 234.087 154.107 234.381C153.614 234.508 153.215 234.619 152.912 234.699C152.634 234.77 152.49 234.802 152.49 234.786C152.49 234.778 152.626 234.723 152.897 234.635C153.199 234.54 153.59 234.413 154.076 234.254C155.103 233.928 156.593 233.483 158.441 232.942C162.138 231.862 167.268 230.439 172.965 229C178.661 227.562 183.847 226.37 187.615 225.559C189.496 225.154 191.025 224.836 192.085 224.637C192.587 224.542 192.993 224.47 193.304 224.407C193.582 224.359 193.734 224.335 193.734 224.351V224.359Z" fill="#263238"/>
<path d="M128.388 49.9707L66.5137 63.7227L69.1037 75.3199L130.978 61.5679L128.388 49.9707Z" fill="#E0E0E0"/>
<path d="M186.924 238.164L206.92 343.524L225.188 309.85L259.811 330.124L223.053 227.53L186.924 238.164Z" fill="#FF725E"/>
<g opacity="0.3">
<path opacity="0.3" d="M193.648 273.602C197.344 274.365 201.654 273.061 204.275 270.351C206.1 268.468 207.31 265.916 209.605 264.661C211.668 263.532 214.21 263.691 216.472 264.319C218.735 264.947 220.878 265.988 223.148 266.584C227.61 267.736 232.533 267.013 236.469 264.613L230.701 248.639L203.933 245.301L191.17 260.6L193.64 273.61L193.648 273.602Z" fill="black"/>
</g>
<path d="M223.882 305.662C223.77 305.694 220.791 294.75 217.237 281.223C213.676 267.697 210.88 256.705 210.992 256.681C211.103 256.649 214.075 267.593 217.644 281.12C221.205 294.647 224.001 305.63 223.89 305.662H223.882Z" fill="#263238"/>
<path d="M189.854 243.647L169.858 349L151.59 315.326L116.967 335.6L153.725 233.014L189.854 243.647Z" fill="#FF725E"/>
<g opacity="0.3">
<path opacity="0.3" d="M142.733 263.699C142.733 263.699 148.421 268.364 155.2 266.218C161.98 264.064 166.194 263.611 169.867 266.218C173.54 268.825 183.474 277.313 183.474 277.313L185.777 265.161L172.432 246.882L158.499 249.687L148.572 250.673L144.884 257.635L142.725 263.699H142.733Z" fill="black"/>
</g>
<path d="M307.053 148.539C307.053 156.098 297.365 162.607 295.947 169.751C294.489 177.111 300.91 186.815 298.098 193.586C295.23 200.477 283.782 202.797 279.679 208.917C275.536 215.092 277.743 226.521 272.501 231.75C267.259 236.98 255.795 234.778 249.613 238.911C243.47 243.012 241.152 254.432 234.245 257.286C227.457 260.091 217.73 253.685 210.353 255.14C203.191 256.554 196.666 266.219 189.09 266.219C181.513 266.219 174.989 256.554 167.827 255.14C160.45 253.685 150.722 260.091 143.935 257.286C137.027 254.424 134.701 243.004 128.567 238.911C122.377 234.778 110.921 236.98 105.678 231.75C100.436 226.521 102.643 215.084 98.5005 208.917C94.3897 202.789 82.9416 200.477 80.0815 193.586C77.2693 186.815 83.6904 177.111 82.2325 169.751C80.8145 162.607 71.127 156.098 71.127 148.539C71.127 140.981 80.8145 134.472 82.2325 127.328C83.6904 119.968 77.2693 110.264 80.0815 103.493C82.9495 96.6023 94.3977 94.2817 98.5005 88.1621C102.643 81.9868 100.436 70.5583 105.678 65.3288C110.921 60.0993 122.385 62.3008 128.567 58.1681C134.709 54.0671 137.027 42.6465 143.935 39.7934C150.722 36.9879 160.45 43.3936 167.827 41.9392C174.989 40.5246 181.513 30.8604 189.09 30.8604C196.666 30.8604 203.191 40.5246 210.353 41.9392C217.73 43.3936 227.457 36.9879 234.245 39.7934C241.152 42.6545 243.478 54.0751 249.613 58.1681C255.803 62.3008 267.259 60.0993 272.501 65.3288C277.743 70.5583 275.536 81.9948 279.679 88.1621C283.79 94.2896 295.238 96.6023 298.098 103.493C300.91 110.264 294.489 119.968 295.947 127.328C297.365 134.472 307.053 140.981 307.053 148.539Z" fill="#FF725E"/>
<path d="M161.47 82.5748C161.47 82.5748 161.382 82.4715 161.255 82.2489C161.103 81.9867 160.928 81.6688 160.713 81.2793C160.243 80.4369 159.606 79.1971 158.833 77.6553C157.295 74.5716 155.304 70.2323 153.384 65.3366C151.472 60.433 149.99 55.8949 149.026 52.5888C148.54 50.9357 148.182 49.5846 147.95 48.6547C147.847 48.2256 147.759 47.8679 147.696 47.5739C147.64 47.3275 147.616 47.1924 147.632 47.1924C147.648 47.1924 147.696 47.3116 147.775 47.558L148.11 48.615C148.413 49.6005 148.819 50.9118 149.313 52.5093C150.348 55.7916 151.862 60.2979 153.774 65.1935C155.686 70.0813 157.63 74.4286 159.096 77.5361C159.821 79.0461 160.41 80.2859 160.857 81.2158C161.048 81.6131 161.199 81.9469 161.327 82.2172C161.43 82.4476 161.478 82.5748 161.47 82.5827V82.5748Z" fill="#263238"/>
<path d="M171.97 78.5929C171.97 78.5929 171.835 78.2909 171.668 77.7186C171.5 77.1464 171.269 76.3199 171.006 75.2867C170.481 73.2203 169.827 70.3513 169.238 67.1564C168.648 63.9615 168.234 61.0447 167.995 58.9307C167.876 57.8737 167.788 57.0153 167.748 56.4193C167.7 55.8232 167.692 55.4973 167.724 55.4894C167.756 55.4815 167.82 55.8073 167.915 56.3954C168.019 57.071 168.146 57.9054 168.298 58.883C168.616 60.9811 169.071 63.882 169.66 67.0769C170.25 70.2639 170.855 73.1409 171.301 75.2152C171.508 76.1848 171.692 77.0113 171.835 77.6789C171.955 78.2591 172.01 78.5849 171.986 78.5929H171.97Z" fill="#263238"/>
<path d="M190.493 76.7574C190.381 76.7574 190.086 67.8482 189.831 56.8488C189.584 45.8494 189.473 36.9323 189.584 36.9243C189.696 36.9243 189.991 45.8335 190.246 56.8329C190.493 67.8323 190.604 76.7494 190.493 76.7494V76.7574Z" fill="#263238"/>
<path d="M209.133 58.4382C209.245 58.4699 207.954 62.9285 206.257 68.3964C204.561 73.8643 203.095 78.2673 202.991 78.2275C202.88 78.1957 204.17 73.7372 205.867 68.2693C207.564 62.8014 209.03 58.4064 209.133 58.4382Z" fill="#263238"/>
<path d="M216.734 81.4699C216.734 81.4699 216.758 81.3348 216.838 81.0964C216.934 80.8102 217.053 80.4685 217.204 80.0473C217.523 79.1413 218.017 77.8379 218.638 76.2245C219.881 73.0137 221.674 68.6028 223.713 63.7628C225.753 58.9148 227.649 54.5516 229.043 51.4044C229.728 49.8784 230.294 48.6227 230.724 47.6849C230.915 47.2876 231.074 46.9538 231.202 46.6835C231.313 46.4531 231.385 46.3418 231.393 46.3418C231.401 46.3418 231.369 46.4769 231.274 46.7153C231.162 46.9935 231.027 47.3352 230.867 47.7485C230.477 48.7022 229.951 49.9738 229.314 51.5156C227.959 54.7423 226.127 59.1055 224.096 63.9217C222.08 68.7379 220.264 73.1011 218.909 76.3358C218.272 77.8856 217.746 79.1572 217.356 80.1029C217.181 80.5082 217.037 80.842 216.918 81.1202C216.814 81.3507 216.75 81.4699 216.742 81.4699H216.734Z" fill="#263238"/>
<path d="M226.701 86.6518C226.701 86.6518 226.837 86.3498 227.155 85.8412C227.466 85.3326 227.944 84.6173 228.541 83.7351C229.736 81.9707 231.457 79.5785 233.457 77.0194C235.465 74.4603 237.369 72.2112 238.795 70.6217C239.504 69.8269 240.093 69.1911 240.507 68.7699C240.922 68.3407 241.161 68.1182 241.185 68.1341C241.209 68.15 241.009 68.4202 240.627 68.8812C240.189 69.4057 239.655 70.0574 239.018 70.8204C237.655 72.4496 235.783 74.7226 233.784 77.2817C231.784 79.8408 230.031 82.2012 228.78 83.9179C228.191 84.7206 227.689 85.3961 227.291 85.9525C226.932 86.4293 226.725 86.6836 226.701 86.6677V86.6518Z" fill="#263238"/>
<path d="M241.184 98.5015C241.105 98.4141 247.406 92.4376 255.261 85.1576C263.117 77.8697 269.546 72.0283 269.625 72.1157C269.705 72.2031 263.403 78.1717 255.548 85.4676C247.693 92.7555 241.264 98.5969 241.192 98.5095L241.184 98.5015Z" fill="#263238"/>
<path d="M266.487 100.965C266.511 101.021 265.579 101.49 264.089 102.269C262.591 103.048 260.56 104.168 258.313 105.432C256.066 106.688 253.995 107.776 252.465 108.492C251.701 108.849 251.071 109.127 250.633 109.302C250.195 109.477 249.948 109.565 249.932 109.541C249.908 109.485 250.84 109.016 252.33 108.237C253.828 107.458 255.859 106.338 258.106 105.074C260.353 103.818 262.424 102.73 263.953 102.014C264.718 101.657 265.348 101.379 265.786 101.204C266.224 101.029 266.471 100.941 266.487 100.965Z" fill="#263238"/>
<path d="M289.909 110.661C289.949 110.772 282.444 113.498 273.155 116.765C263.858 120.031 256.298 122.59 256.258 122.479C256.218 122.368 263.723 119.642 273.02 116.375C282.309 113.109 289.877 110.55 289.917 110.661H289.909Z" fill="#263238"/>
<path d="M297.364 153.157C297.356 153.268 289.199 152.593 279.153 151.639C269.107 150.685 260.965 149.819 260.98 149.708C260.988 149.597 269.146 150.272 279.192 151.226C289.238 152.179 297.372 153.046 297.364 153.157Z" fill="#263238"/>
<path d="M291.375 191.265C291.327 191.369 283.703 187.88 274.35 183.469C264.997 179.058 257.452 175.402 257.5 175.299C257.548 175.195 265.172 178.684 274.525 183.095C283.878 187.506 291.422 191.162 291.375 191.265Z" fill="#263238"/>
<path d="M266.295 227.53C266.207 227.602 260.71 221.244 254.018 213.32C247.318 205.396 241.964 198.919 242.052 198.839C242.139 198.768 247.637 205.126 254.336 213.05C261.029 220.973 266.39 227.451 266.302 227.522L266.295 227.53Z" fill="#263238"/>
<path d="M245.358 232.322C245.358 232.322 245.095 232.02 244.697 231.432C244.291 230.844 243.717 229.978 243.032 228.905C241.646 226.751 239.789 223.747 237.838 220.361C235.886 216.984 234.197 213.868 233.026 211.595C232.436 210.459 231.974 209.537 231.663 208.885C231.353 208.241 231.193 207.876 231.217 207.868C231.241 207.86 231.448 208.194 231.807 208.814C232.197 209.505 232.691 210.395 233.281 211.46C234.523 213.693 236.244 216.777 238.196 220.155C240.148 223.532 241.964 226.56 243.279 228.746C243.9 229.787 244.426 230.661 244.832 231.345C245.199 231.965 245.382 232.306 245.358 232.322Z" fill="#263238"/>
<path d="M232.358 250.562C232.358 250.562 232.27 250.458 232.151 250.236C232.007 249.974 231.84 249.648 231.633 249.266C231.187 248.424 230.565 247.184 229.832 245.634C228.366 242.543 226.478 238.203 224.686 233.3C222.893 228.388 221.539 223.858 220.671 220.544C220.232 218.891 219.906 217.548 219.707 216.61C219.619 216.181 219.539 215.823 219.476 215.529C219.428 215.283 219.412 215.147 219.428 215.147C219.444 215.147 219.484 215.267 219.563 215.513C219.643 215.799 219.747 216.149 219.866 216.57C220.145 217.556 220.511 218.867 220.957 220.464C221.898 223.747 223.292 228.253 225.076 233.157C226.869 238.052 228.701 242.4 230.103 245.515C230.788 247.025 231.354 248.273 231.776 249.195C231.959 249.592 232.103 249.926 232.23 250.196C232.326 250.427 232.374 250.554 232.366 250.562H232.358Z" fill="#263238"/>
<path d="M206.012 237.774C205.948 237.774 205.853 236.717 205.669 235.009C205.486 233.3 205.199 230.939 204.761 228.357C204.323 225.774 203.829 223.445 203.447 221.768C203.064 220.091 202.809 219.058 202.873 219.042C202.897 219.042 203.001 219.28 203.152 219.741C203.303 220.202 203.51 220.87 203.733 221.696C204.188 223.358 204.737 225.686 205.175 228.285C205.614 230.884 205.853 233.26 205.964 234.977C206.02 235.835 206.052 236.535 206.052 237.019C206.052 237.504 206.052 237.766 206.02 237.774H206.012Z" fill="#263238"/>
<path d="M188.787 260.655C188.787 260.655 188.763 260.512 188.755 260.25C188.755 259.932 188.747 259.55 188.739 259.082C188.731 258.064 188.739 256.602 188.771 254.782C188.835 251.158 189.002 246.143 189.289 240.619C189.576 235.088 189.934 230.089 190.229 226.473C190.38 224.669 190.508 223.206 190.611 222.197C190.667 221.728 190.707 221.347 190.739 221.037C190.771 220.774 190.803 220.631 190.811 220.631C190.826 220.631 190.826 220.774 190.819 221.037C190.803 221.355 190.787 221.736 190.763 222.205C190.699 223.278 190.611 224.732 190.508 226.489C190.293 230.168 190.006 235.136 189.695 240.635C189.4 246.159 189.193 251.166 189.058 254.79C188.994 256.554 188.938 258.009 188.899 259.082C188.875 259.55 188.859 259.932 188.843 260.25C188.827 260.52 188.811 260.655 188.795 260.655H188.787Z" fill="#263238"/>
<path d="M174.773 220.623C174.829 220.631 174.741 221.41 174.534 222.65C174.327 223.89 173.993 225.598 173.554 227.474C173.116 229.35 172.654 231.027 172.288 232.227C171.921 233.435 171.65 234.166 171.595 234.15C171.539 234.134 171.706 233.371 172.001 232.147C172.328 230.78 172.718 229.167 173.148 227.371C173.562 225.575 173.929 223.953 174.248 222.586C174.526 221.362 174.718 220.607 174.773 220.615V220.623Z" fill="#263238"/>
<path d="M149.455 208.487C149.543 208.559 147.99 210.761 145.966 213.415C143.95 216.069 142.238 218.16 142.15 218.096C142.062 218.025 143.616 215.823 145.639 213.169C147.655 210.514 149.368 208.424 149.455 208.487Z" fill="#263238"/>
<path d="M136.167 199.578C136.255 199.65 131.307 205.443 125.125 212.509C118.943 219.582 113.86 225.249 113.773 225.169C113.685 225.098 118.632 219.304 124.814 212.231C130.997 205.165 136.079 199.491 136.167 199.57V199.578Z" fill="#263238"/>
<path d="M129.524 189.723C129.595 189.811 126.847 192.195 123.381 195.04C119.916 197.893 117.048 200.126 116.976 200.039C116.904 199.952 119.653 197.567 123.118 194.722C126.584 191.877 129.452 189.636 129.524 189.723Z" fill="#263238"/>
<path d="M121.74 174.853C121.787 174.957 114.904 178.366 106.364 182.475C97.8156 186.584 90.8527 189.827 90.8049 189.723C90.7571 189.62 97.6404 186.211 106.189 182.102C114.729 177.993 121.7 174.75 121.748 174.853H121.74Z" fill="#263238"/>
<path d="M118.617 167.43C118.617 167.43 118.37 167.534 117.9 167.645C117.438 167.756 116.753 167.899 115.916 168.05C114.235 168.36 111.893 168.718 109.296 168.98C106.699 169.242 104.333 169.354 102.62 169.378C101.767 169.393 101.074 169.386 100.596 169.378C100.118 169.362 99.8555 169.338 99.8555 169.314C99.8555 169.25 100.907 169.195 102.612 169.091C104.317 168.988 106.667 168.829 109.256 168.567C111.845 168.305 114.18 168.003 115.869 167.764C117.557 167.526 118.601 167.375 118.617 167.438V167.43Z" fill="#263238"/>
<path d="M116.091 150.312C116.091 150.312 115.589 150.327 114.697 150.28C113.733 150.232 112.458 150.169 110.905 150.089C107.702 149.938 103.281 149.787 98.397 149.811C93.5134 149.843 89.0919 150.033 85.8893 150.224C84.3437 150.32 83.0691 150.399 82.1051 150.463C81.2128 150.518 80.7109 150.534 80.7109 150.51C80.7109 150.478 81.1969 150.407 82.0892 150.304C82.9814 150.192 84.2721 150.065 85.8734 149.938C89.068 149.676 93.4975 149.437 98.397 149.406C103.297 149.382 107.726 149.572 110.921 149.803C112.522 149.914 113.813 150.033 114.705 150.129C115.597 150.224 116.091 150.288 116.083 150.32L116.091 150.312Z" fill="#263238"/>
<path d="M117.661 135.275C117.629 135.386 112.474 134.043 106.141 132.287C99.8073 130.522 94.7007 129.004 94.7326 128.893C94.7644 128.782 99.9189 130.125 106.252 131.881C112.586 133.646 117.693 135.164 117.661 135.275Z" fill="#263238"/>
<path d="M120.99 122.662C120.99 122.662 120.854 122.646 120.615 122.575C120.328 122.487 119.978 122.384 119.564 122.257C118.647 121.979 117.341 121.534 115.732 120.946C112.521 119.777 108.139 117.997 103.455 115.7C98.7706 113.395 94.6837 111.019 91.7997 109.183C90.3577 108.269 89.2026 107.506 88.4218 106.95C88.0633 106.696 87.7686 106.489 87.5296 106.314C87.3304 106.163 87.2268 106.084 87.2348 106.068C87.2428 106.052 87.3623 106.116 87.5774 106.243C87.8323 106.402 88.143 106.584 88.5174 106.815C89.3221 107.324 90.5011 108.047 91.9591 108.929C94.8749 110.693 98.9777 113.022 103.646 115.319C108.315 117.608 112.664 119.428 115.843 120.66C117.437 121.279 118.727 121.764 119.619 122.09C120.026 122.249 120.368 122.376 120.647 122.479C120.878 122.575 120.998 122.63 120.998 122.646L120.99 122.662Z" fill="#263238"/>
<path d="M128.495 109.986C128.432 110.081 124.392 107.363 119.485 103.914C114.577 100.465 110.65 97.5956 110.714 97.5002C110.777 97.4049 114.809 100.123 119.724 103.572C124.631 107.021 128.559 109.89 128.495 109.986Z" fill="#263238"/>
<path d="M112.641 71.353C112.641 71.353 112.753 71.4166 112.944 71.5756C113.167 71.7663 113.43 71.9968 113.757 72.267C114.498 72.9266 115.493 73.8009 116.688 74.8579C119.206 77.0991 122.592 80.1112 126.336 83.4492C130.096 86.7633 133.498 89.7675 136.024 92.0007C137.219 93.0657 138.214 93.9399 138.955 94.5996C139.266 94.8857 139.521 95.1241 139.736 95.3228C139.911 95.4897 139.999 95.5851 139.991 95.593C139.983 95.6009 139.871 95.5294 139.68 95.3864C139.449 95.2036 139.178 94.989 138.844 94.7267C138.127 94.1466 137.091 93.2882 135.832 92.2232C133.299 90.0933 129.841 87.113 126.057 83.7671C122.281 80.4212 118.903 77.3375 116.481 75.0884C115.27 73.9598 114.298 73.0379 113.637 72.3942C113.334 72.1001 113.087 71.8537 112.88 71.6471C112.713 71.4722 112.625 71.3769 112.633 71.3689L112.641 71.353Z" fill="#263238"/>
<path d="M137.498 72.0762C137.498 72.0762 137.713 72.259 138.04 72.6245C138.366 72.9981 138.828 73.5465 139.378 74.2379C140.486 75.6208 141.959 77.5679 143.489 79.7932C145.019 82.0185 146.301 84.1008 147.194 85.6347C147.64 86.3976 147.982 87.0255 148.213 87.4626C148.444 87.8997 148.556 88.154 148.532 88.162C148.476 88.1938 147.895 87.2719 146.947 85.7777C145.999 84.2915 144.676 82.2411 143.154 80.0237C141.633 77.8063 140.199 75.8354 139.155 74.4127C138.111 72.9901 137.458 72.1159 137.506 72.0762H137.498Z" fill="#263238"/>
<g opacity="0.2">
<path opacity="0.2" d="M105.654 65.3206L140.309 95.5927L148.921 88.7181L128.813 57.9771C128.813 57.9771 127.276 59.1056 123.269 60.25C119.389 61.3548 107.965 61.6488 105.654 65.3285V65.3206Z" fill="black"/>
</g>
<g opacity="0.2">
<path opacity="0.2" d="M144.229 39.7135L161.15 81.9705L171.961 78.5928L168.36 41.9388C168.36 41.9388 166.495 42.3759 162.369 41.8514C158.369 41.3427 148.65 37.5518 144.229 39.7135Z" fill="black"/>
</g>
<g opacity="0.3">
<path opacity="0.3" d="M189.361 30.8604L190.493 76.7494L200.626 77.2342L210.887 42.0107C210.688 41.9949 208.043 41.5339 204.92 39.547C201.407 37.3058 194.261 30.4948 189.354 30.8604H189.361Z" fill="black"/>
</g>
<g opacity="0.2">
<path opacity="0.2" d="M233.56 39.5309L216.742 81.8356L225.896 86.1988L249.039 57.699C248.864 57.6036 246.673 55.7836 244.642 52.541C242.435 49.0123 238.674 40.9376 233.552 39.5229L233.56 39.5309Z" fill="black"/>
</g>
<g opacity="0.2">
<path opacity="0.2" d="M273.052 65.9326L241.727 98.5016L248.705 107.888L279.313 87.5102C279.313 87.5102 278.031 85.4756 277.298 81.5654C276.565 77.6075 276.453 70.3991 273.052 65.9406V65.9326Z" fill="black"/>
</g>
<g opacity="0.2">
<path opacity="0.2" d="M297.779 102.698L255.596 120.016L259.093 130.769L295.796 126.795C295.796 126.795 295.565 125.666 296.051 121.534C296.521 117.536 300.727 108.603 297.779 102.69V102.698Z" fill="black"/>
</g>
<g opacity="0.2">
<path opacity="0.2" d="M307.116 148.539L261.132 150.145L260.75 160.262L295.835 170.498C295.851 170.3 296.162 168.329 297.229 166.318C299.811 161.446 307.124 154.579 307.124 148.531L307.116 148.539Z" fill="black"/>
</g>
<g opacity="0.2">
<path opacity="0.2" d="M298.649 191.925L256.306 175.458L252.02 184.637L280.827 207.43C280.915 207.256 282.596 205.698 285.83 203.647C289.343 201.414 297.677 197.798 298.649 191.925Z" fill="black"/>
</g>
<g opacity="0.2">
<path opacity="0.2" d="M236.365 191.266L225.889 200.04C226.685 200.866 240.651 224.55 249.255 239.189C249.374 239.102 249.486 238.998 249.606 238.919C255.278 235.136 265.356 236.654 271.044 232.903L236.365 191.258V191.266Z" fill="black"/>
<path opacity="0.2" d="M217.109 207.868L201.463 213.193L208.872 255.569C209.358 255.402 209.852 255.259 210.346 255.164C217.723 253.709 227.45 260.115 234.238 257.31C235.17 256.92 236.014 256.372 236.803 255.712L217.109 207.876V207.868Z" fill="black"/>
<path opacity="0.2" d="M188.533 266.211L191.035 210.848L177.507 207.431L167.438 255.1C167.565 255.124 167.684 255.14 167.812 255.164C174.799 256.546 181.188 265.774 188.533 266.219V266.211Z" fill="black"/>
<path opacity="0.2" d="M154.515 201.454C154.515 201.454 136.638 225.344 127.293 238.211C127.731 238.426 128.153 238.664 128.552 238.935C134.694 243.036 137.012 254.456 143.919 257.309C144.238 257.437 144.565 257.548 144.891 257.635L169.867 210.475L154.523 201.454H154.515Z" fill="black"/>
<path opacity="0.2" d="M136.168 182.221L98.0391 208.368C98.1825 208.559 98.3418 208.742 98.4772 208.933C102.62 215.108 100.413 226.537 105.655 231.766C106.141 232.251 106.691 232.648 107.264 233.014C120.736 217.866 144.923 190.669 145.799 189.724L136.168 182.213V182.221Z" fill="black"/>
<path opacity="0.2" d="M127.429 163.552L82.3452 170.816C83.0622 178.033 77.366 187.141 80.0428 193.594C80.2101 193.991 80.4092 194.365 80.6243 194.73C96.3984 186.894 129.365 170.594 130.735 170.506L127.421 163.552H127.429Z" fill="black"/>
<path opacity="0.2" d="M124.966 138.502L82.3526 126.231C82.3208 126.604 82.273 126.97 82.2013 127.327C80.7832 134.472 71.0957 140.981 71.0957 148.539C71.0957 149.048 71.1435 149.549 71.2232 150.049H123.238L124.966 138.502Z" fill="black"/>
<path opacity="0.2" d="M80.2246 103.151C96.15 111.663 127.292 128.885 127.292 128.885L134.956 114.365L98.9543 87.3276C98.8029 87.6058 98.6516 87.8919 98.4763 88.1542C94.4372 94.1784 83.3237 96.5229 80.2246 103.151Z" fill="black"/>
</g>
<path d="M307.053 148.539C307.053 148.539 307.029 148.372 307.005 148.039C306.965 147.705 306.981 147.196 306.798 146.56C306.551 145.265 305.818 143.397 304.408 141.236C303.038 139.042 300.966 136.586 298.807 133.479C297.756 131.913 296.656 130.149 296.075 128.035C295.493 125.913 295.605 123.52 296.059 121.112C296.497 118.688 297.222 116.193 297.859 113.546C298.441 110.916 299.078 108.039 298.489 105.114C298.178 103.668 297.485 102.293 296.513 101.093C295.525 99.9004 294.282 98.899 292.968 97.9533C290.323 96.0776 287.287 94.5835 284.372 92.6284C282.922 91.6509 281.488 90.5541 280.309 89.1633C279.114 87.7725 278.341 86.0399 277.815 84.2438C276.787 80.6276 276.564 76.7651 275.783 72.8947C275.385 70.9714 274.851 69.0163 273.824 67.2837C272.82 65.5353 271.187 64.1842 269.283 63.3656C267.387 62.5232 265.299 62.094 263.188 61.7443C261.077 61.3946 258.91 61.1482 256.743 60.7668C254.576 60.3773 252.361 59.8687 250.354 58.764C248.338 57.6672 246.761 55.9029 245.446 54.0193C244.124 52.1198 242.985 50.0853 241.774 48.0825C240.563 46.0797 239.288 44.069 237.631 42.3523C235.982 40.6595 233.775 39.4356 231.345 39.2766C228.923 39.0938 226.478 39.5548 224.064 40.127C221.642 40.7072 219.22 41.4145 216.702 41.8834C214.209 42.3682 211.532 42.5431 209.007 41.7404C206.521 40.882 204.33 39.372 202.211 37.8222C200.092 36.2645 198.021 34.6035 195.742 33.2286C193.48 31.8934 190.898 30.7887 188.214 31.0827L187.712 31.1225C187.544 31.1542 187.385 31.194 187.226 31.2258C186.899 31.3053 186.572 31.3609 186.246 31.4563C185.616 31.6867 184.963 31.8775 184.366 32.1874C183.131 32.7358 181.976 33.4749 180.836 34.2299C178.566 35.7718 176.431 37.5441 174.105 39.1177C172.957 39.9204 171.723 40.6277 170.44 41.2317C169.141 41.8198 167.723 42.1695 166.289 42.2808C163.405 42.4238 160.569 41.7722 157.789 41.0728C155 40.3734 152.212 39.5786 149.344 39.3005C147.91 39.1813 146.46 39.2448 145.066 39.5866C143.664 39.9204 142.421 40.7151 141.322 41.637C139.123 43.5524 137.585 46.1274 136.064 48.6547C134.542 51.1979 133.092 53.8524 131.069 56.1333C130.049 57.2539 128.87 58.2792 127.483 58.9706C126.097 59.6461 124.631 60.0992 123.134 60.4489C120.138 61.1005 117.079 61.3867 114.068 61.9271C111.088 62.4675 107.981 63.31 105.774 65.4478C104.707 66.5367 103.966 67.9036 103.416 69.3342C102.858 70.7727 102.54 72.2986 102.253 73.8246C101.695 76.8923 101.44 80.0395 100.692 83.1311C100.333 84.6809 99.8072 86.2068 98.9946 87.6056C98.182 89.0043 97.0667 90.2124 95.8 91.2058C93.2825 93.2245 90.4224 94.7186 87.6819 96.3876C86.3196 97.23 84.9732 98.1043 83.7304 99.1136C82.5115 100.139 81.4041 101.315 80.6393 102.706C79.8666 104.089 79.516 105.686 79.532 107.284C79.532 108.889 79.771 110.494 80.0896 112.076C80.7668 115.255 81.7706 118.378 82.3123 121.645C82.5912 123.274 82.6947 124.959 82.4796 126.62C82.2645 128.289 81.6192 129.871 80.8146 131.333C79.1575 134.242 76.9906 136.785 75.0706 139.487C74.0987 140.83 73.2064 142.237 72.4974 143.731C71.7963 145.217 71.3024 146.823 71.2944 148.468C71.3024 150.113 71.7883 151.718 72.4814 153.205C73.1825 154.699 74.0748 156.105 75.0467 157.448C76.9667 160.159 79.1336 162.702 80.7987 165.603C81.6033 167.057 82.2566 168.647 82.4717 170.316C82.6947 171.977 82.5991 173.661 82.3123 175.291C81.7786 178.557 80.7668 181.688 80.0896 184.867C79.763 186.457 79.524 188.062 79.524 189.668C79.5081 191.273 79.8586 192.863 80.6234 194.254C81.3802 195.644 82.4876 196.829 83.7065 197.854C84.9493 198.863 86.2957 199.745 87.658 200.588C90.3906 202.257 93.2586 203.751 95.7761 205.769C97.0348 206.763 98.1661 207.971 98.9707 209.37C99.7833 210.768 100.317 212.302 100.668 213.844C101.416 216.944 101.671 220.091 102.229 223.159C102.508 224.693 102.835 226.218 103.392 227.649C103.942 229.08 104.683 230.447 105.742 231.535C107.949 233.673 111.056 234.524 114.036 235.064C117.055 235.612 120.114 235.891 123.11 236.542C124.6 236.892 126.073 237.345 127.46 238.021C128.846 238.712 130.025 239.737 131.045 240.858C133.068 243.139 134.518 245.793 136.04 248.344C137.569 250.872 139.107 253.447 141.298 255.362C142.397 256.284 143.64 257.079 145.042 257.413C146.436 257.762 147.886 257.818 149.32 257.699C152.196 257.421 154.985 256.626 157.765 255.926C160.545 255.227 163.381 254.575 166.265 254.718C167.699 254.83 169.117 255.179 170.416 255.767C171.699 256.371 172.933 257.079 174.081 257.881C176.407 259.455 178.542 261.227 180.813 262.769C181.952 263.524 183.107 264.263 184.342 264.812C184.947 265.13 185.593 265.312 186.222 265.543C186.541 265.63 186.875 265.694 187.202 265.773C187.369 265.805 187.528 265.853 187.688 265.877L188.19 265.916C190.874 266.218 193.456 265.106 195.718 263.771C197.989 262.396 200.06 260.735 202.187 259.177C204.306 257.627 206.497 256.125 208.983 255.267C211.508 254.464 214.185 254.639 216.679 255.124C219.188 255.593 221.618 256.3 224.04 256.88C226.454 257.452 228.907 257.913 231.321 257.73C233.751 257.564 235.95 256.348 237.599 254.647C239.248 252.938 240.523 250.919 241.742 248.917C242.953 246.906 244.092 244.871 245.414 242.98C246.737 241.096 248.314 239.332 250.33 238.235C252.337 237.13 254.552 236.622 256.719 236.232C258.894 235.851 261.053 235.605 263.164 235.255C265.275 234.905 267.355 234.468 269.259 233.626C271.163 232.807 272.788 231.456 273.792 229.707C274.82 227.975 275.353 226.02 275.752 224.096C276.532 220.234 276.755 216.364 277.783 212.755C278.301 210.959 279.082 209.227 280.277 207.844C281.456 206.453 282.898 205.356 284.34 204.379C287.248 202.424 290.291 200.929 292.928 199.054C294.242 198.116 295.477 197.107 296.473 195.915C297.453 194.714 298.138 193.34 298.449 191.893C298.791 190.447 298.704 188.968 298.568 187.562C298.425 186.147 298.114 184.788 297.819 183.461C297.182 180.814 296.465 178.319 296.019 175.895C295.565 173.487 295.453 171.094 296.035 168.972C296.624 166.85 297.716 165.086 298.767 163.528C300.926 160.421 303.006 157.973 304.368 155.772C305.778 153.602 306.503 151.742 306.758 150.447C306.941 149.811 306.925 149.302 306.965 148.968C306.997 148.635 307.013 148.468 307.013 148.468C307.013 148.468 307.013 148.635 306.981 148.968C306.949 149.302 306.965 149.811 306.79 150.455C306.551 151.758 305.834 153.642 304.432 155.819C303.069 158.029 301.006 160.492 298.863 163.6C297.819 165.166 296.736 166.922 296.162 169.012C295.597 171.102 295.708 173.471 296.162 175.863C296.608 178.271 297.333 180.767 297.979 183.413C298.273 184.74 298.6 186.107 298.743 187.538C298.879 188.96 298.967 190.455 298.624 191.933C298.313 193.411 297.604 194.826 296.616 196.05C295.613 197.266 294.362 198.283 293.039 199.229C290.378 201.12 287.343 202.622 284.451 204.569C283.017 205.547 281.599 206.628 280.436 207.995C279.273 209.354 278.508 211.047 277.998 212.827C276.986 216.403 276.763 220.266 275.991 224.152C275.592 226.091 275.059 228.07 274.007 229.85C272.979 231.647 271.29 233.053 269.354 233.888C267.418 234.746 265.315 235.191 263.196 235.541C261.077 235.891 258.91 236.137 256.751 236.526C254.6 236.916 252.409 237.425 250.457 238.505C248.498 239.57 246.96 241.295 245.653 243.163C244.347 245.038 243.216 247.073 241.997 249.084C240.786 251.094 239.503 253.129 237.814 254.877C236.141 256.61 233.831 257.889 231.337 258.056C228.852 258.247 226.374 257.77 223.944 257.206C221.514 256.626 219.092 255.918 216.599 255.457C214.129 254.981 211.516 254.822 209.07 255.593C206.649 256.427 204.482 257.913 202.37 259.463C200.259 261.021 198.18 262.682 195.878 264.081C195.288 264.398 194.722 264.772 194.093 265.034C193.782 265.177 193.48 265.328 193.169 265.455L192.205 265.797C190.906 266.195 189.52 266.457 188.134 266.274L187.616 266.234C187.449 266.21 187.281 266.163 187.106 266.131C186.772 266.052 186.429 265.988 186.094 265.893C185.449 265.654 184.78 265.463 184.167 265.138C182.9 264.573 181.737 263.826 180.581 263.063C178.295 261.506 176.152 259.733 173.85 258.176C172.71 257.381 171.499 256.689 170.241 256.093C168.966 255.521 167.612 255.187 166.218 255.076C163.413 254.941 160.609 255.577 157.837 256.276C155.056 256.967 152.26 257.778 149.328 258.056C147.862 258.176 146.365 258.12 144.915 257.762C143.449 257.413 142.15 256.578 141.011 255.632C138.748 253.661 137.203 251.055 135.665 248.519C134.144 245.968 132.694 243.33 130.71 241.096C129.706 239.999 128.575 239.022 127.237 238.346C125.898 237.695 124.448 237.25 122.982 236.9C120.019 236.256 116.967 235.97 113.924 235.422C112.411 235.128 110.881 234.818 109.423 234.238C107.965 233.673 106.563 232.894 105.424 231.782C104.308 230.637 103.536 229.223 102.978 227.752C102.404 226.282 102.086 224.732 101.799 223.19C101.233 220.099 100.978 216.952 100.237 213.9C99.8869 212.374 99.3611 210.88 98.5803 209.529C97.7996 208.186 96.7161 207.017 95.4733 206.04C93.0036 204.061 90.1516 202.567 87.3951 200.89C86.0248 200.039 84.6625 199.157 83.3958 198.124C82.153 197.075 81.0058 195.859 80.2091 194.405C79.4125 192.958 79.038 191.273 79.0619 189.628C79.0619 187.975 79.3089 186.346 79.6355 184.74C80.3127 181.537 81.3245 178.406 81.8503 175.187C82.1291 173.582 82.2247 171.937 82.0016 170.331C81.7865 168.726 81.1651 167.2 80.3764 165.77C78.7433 162.916 76.5843 160.373 74.6484 157.647C73.6764 156.288 72.7603 154.873 72.0433 153.34C71.3263 151.814 70.8244 150.145 70.8164 148.428C70.8323 146.703 71.3422 145.042 72.0592 143.516C72.7762 141.991 73.6924 140.568 74.6643 139.209C76.6002 136.491 78.7592 133.948 80.3844 131.094C81.1731 129.664 81.7945 128.13 82.0016 126.525C82.2088 124.919 82.1132 123.282 81.8423 121.677C81.3085 118.458 80.3047 115.327 79.6196 112.124C79.293 110.518 79.046 108.889 79.054 107.236C79.038 105.591 79.4045 103.914 80.2171 102.467C81.0138 101.013 82.161 99.7971 83.4038 98.756C84.6705 97.7228 86.0328 96.8406 87.4031 95.9902C90.1516 94.3133 93.0036 92.8192 95.4733 90.8402C96.7161 89.8627 97.7916 88.6944 98.5724 87.3513C99.3531 86.0002 99.8709 84.506 100.221 82.9801C100.954 79.9283 101.217 76.781 101.783 73.6974C102.07 72.1556 102.396 70.6058 102.962 69.1355C103.52 67.6652 104.292 66.2505 105.408 65.1061C106.547 63.9935 107.957 63.2146 109.415 62.6503C110.873 62.0781 112.403 61.7602 113.916 61.4741C116.959 60.9257 120.011 60.6475 122.966 59.9958C124.44 59.6541 125.882 59.2011 127.221 58.5494C128.559 57.8818 129.69 56.8963 130.694 55.7995C132.678 53.5663 134.12 50.9277 135.641 48.3845C137.179 45.8492 138.717 43.2504 140.987 41.2715C142.126 40.3178 143.425 39.4912 144.891 39.1415C146.341 38.7839 147.838 38.7203 149.296 38.8475C152.22 39.1336 155.024 39.9363 157.805 40.6277C160.577 41.3271 163.381 41.9629 166.186 41.8278C167.58 41.7245 168.934 41.3827 170.209 40.8184C171.468 40.2224 172.679 39.5309 173.818 38.7362C176.12 37.1785 178.263 35.4062 180.55 33.8485C181.705 33.0855 182.868 32.3384 184.135 31.7742C184.748 31.4563 185.417 31.2576 186.063 31.0191C186.397 30.9238 186.74 30.8602 187.074 30.7807C187.242 30.7489 187.409 30.7012 187.584 30.6694L188.102 30.6297C189.48 30.4469 190.874 30.7171 192.173 31.1066L193.137 31.4483C193.456 31.5755 193.75 31.7344 194.061 31.8695C194.691 32.1318 195.256 32.5053 195.846 32.8232C198.148 34.222 200.219 35.883 202.339 37.4407C204.45 38.9905 206.617 40.4688 209.039 41.3112C211.476 42.0821 214.089 41.9311 216.559 41.4463C219.045 40.9853 221.467 40.278 223.904 39.6978C226.334 39.1256 228.812 38.6567 231.297 38.8395C233.799 38.9985 236.101 40.278 237.782 42.0106C239.471 43.759 240.746 45.7936 241.965 47.7964C243.176 49.8071 244.307 51.8417 245.614 53.7173C246.92 55.585 248.458 57.3096 250.418 58.3745C252.369 59.4554 254.56 59.9641 256.711 60.3535C258.87 60.735 261.029 60.9893 263.156 61.339C265.275 61.6887 267.379 62.1337 269.314 62.9921C271.25 63.8266 272.947 65.2333 273.975 67.0215C275.027 68.8017 275.568 70.7806 275.959 72.7198C276.739 76.6062 276.955 80.4687 277.966 84.0451C278.484 85.8174 279.233 87.5182 280.404 88.8772C281.559 90.2442 282.977 91.333 284.411 92.3026C287.303 94.2497 290.339 95.7518 292.999 97.6433C294.322 98.5891 295.573 99.6063 296.577 100.822C297.572 102.046 298.273 103.461 298.592 104.931C298.935 106.409 298.839 107.904 298.712 109.326C298.568 110.757 298.242 112.124 297.947 113.451C297.309 116.105 296.577 118.593 296.13 121.001C295.668 123.401 295.557 125.762 296.13 127.852C296.704 129.942 297.787 131.706 298.831 133.264C300.974 136.372 303.046 138.835 304.4 141.045C305.802 143.222 306.519 145.106 306.758 146.409C306.933 147.053 306.909 147.562 306.949 147.896C306.973 148.229 306.981 148.396 306.981 148.396L307.053 148.539Z" fill="#263238"/>
<path d="M166.951 257.762C167.062 257.794 164.122 269.684 160.386 284.323C156.65 298.97 153.527 310.812 153.415 310.788C153.304 310.764 156.243 298.867 159.98 284.228C163.716 269.588 166.839 257.738 166.951 257.77V257.762Z" fill="#263238"/>
<path d="M189.074 220.687C229.016 220.687 261.395 188.385 261.395 148.539C261.395 108.693 229.016 76.3916 189.074 76.3916C149.131 76.3916 116.752 108.693 116.752 148.539C116.752 188.385 149.131 220.687 189.074 220.687Z" fill="white"/>
<path d="M144.548 123.544C143.552 124.538 138.063 134.488 137.569 142.69C137.067 150.9 138.254 196.987 138.254 196.987L138.469 200.039C151.487 215.227 198.809 237.83 241.431 199.96L243.821 171.611L236.786 111.599L212.352 105.631L206.624 96.3638L168.44 105.281L165.038 113.308L144.548 123.528V123.544Z" fill="#455A64"/>
<path d="M203.972 72.2427C205.653 66.0118 207.31 59.7253 207.892 53.2958C208.473 46.8662 207.932 40.2221 205.374 34.2932C204.984 33.3952 201.757 27.3948 200.786 27.5458C200.092 27.6491 202.18 33.2918 201.861 33.9117C198.794 39.8485 198.236 46.8185 199.12 53.4388C199.997 60.0591 201.694 65.9641 203.98 72.2427" fill="#263238"/>
<path d="M203.343 47.6133C203.032 31.4241 193.337 18.112 177.116 18.867L175.619 19.026C160.586 20.6075 149.281 33.4428 149.647 48.5193C149.99 62.5467 150.556 78.0444 151.432 85.4992C153.256 100.933 168.998 101.704 168.998 101.704C169.03 101.704 169.723 111.853 169.723 111.853L176.376 119.062L207.215 100.003L203.327 47.6133H203.343Z" fill="#FFBF9D"/>
<path d="M169.014 101.824C169.014 101.824 178.837 101.371 188.548 93.7568C188.548 93.7568 185.298 107.752 169.691 107.983L169.006 101.824H169.014Z" fill="#FF9A6C"/>
<path d="M158.561 61.1002C158.641 62.2685 159.701 63.1666 160.928 63.103C162.154 63.0394 163.079 62.046 162.999 60.8697C162.919 59.7014 161.86 58.8034 160.633 58.8669C159.406 58.9305 158.482 59.9319 158.561 61.1002Z" fill="#263238"/>
<path d="M153.638 54.5833C153.941 54.8456 155.486 53.4309 157.868 53.1845C160.242 52.9064 162.122 53.9475 162.345 53.6296C162.457 53.4865 162.122 52.9938 161.302 52.5249C160.497 52.056 159.159 51.6507 157.677 51.8176C156.195 51.9845 155.008 52.66 154.347 53.2879C153.678 53.9237 153.479 54.472 153.63 54.5833H153.638Z" fill="#263238"/>
<path d="M179.587 59.3204C179.666 60.4887 180.726 61.3868 181.953 61.3232C183.18 61.2596 184.104 60.2662 184.024 59.0899C183.945 57.9217 182.885 57.0236 181.658 57.0872C180.431 57.1507 179.507 58.1521 179.587 59.3204Z" fill="#263238"/>
<path d="M177.06 53.0892C177.362 53.3514 178.908 51.9368 181.29 51.6904C183.664 51.4122 185.536 52.4534 185.767 52.1355C185.879 51.9924 185.552 51.4997 184.724 51.0307C183.919 50.5618 182.581 50.1565 181.099 50.3234C179.617 50.4903 178.43 51.1659 177.769 51.7937C177.1 52.4295 176.9 52.9779 177.052 53.0892H177.06Z" fill="#263238"/>
<path d="M170.448 72.2348C170.448 72.0997 168.943 71.9964 166.513 71.9487C165.899 71.9487 165.31 71.8931 165.167 71.4877C164.975 71.0665 165.167 70.383 165.382 69.6439C165.796 68.118 166.234 66.5126 166.688 64.8357C168.489 58.0008 169.723 52.4057 169.453 52.3342C169.174 52.2627 167.493 57.7465 165.692 64.5813C165.262 66.2662 164.848 67.8716 164.465 69.4055C164.306 70.1208 163.995 70.9394 164.402 71.8215C164.617 72.2587 165.095 72.5368 165.493 72.6004C165.892 72.6799 166.234 72.6481 166.537 72.6322C168.967 72.505 170.464 72.362 170.456 72.2269L170.448 72.2348Z" fill="#263238"/>
<path d="M177.626 73.1411C177.236 73.157 177.507 75.74 175.483 77.7984C173.468 79.8647 170.687 79.8647 170.703 80.2303C170.687 80.3972 171.373 80.6674 172.536 80.58C173.683 80.5005 175.308 79.9601 176.543 78.6964C177.77 77.4328 178.192 75.8751 178.168 74.8101C178.152 73.7213 177.794 73.1173 177.618 73.1491L177.626 73.1411Z" fill="#263238"/>
<path d="M176.169 43.4408C176.472 44.0607 178.814 43.5044 181.642 43.5441C184.471 43.5282 186.813 44.1084 187.116 43.4885C187.251 43.1944 186.797 42.6301 185.817 42.0977C184.845 41.5652 183.347 41.1281 181.65 41.1201C179.954 41.1201 178.448 41.5413 177.476 42.0579C176.496 42.5745 176.034 43.1388 176.161 43.4328L176.169 43.4408Z" fill="#263238"/>
<path d="M153.789 46.5802C154.267 47.073 155.845 46.3418 157.812 46.1113C159.772 45.8093 161.493 46.0875 161.82 45.4834C161.955 45.1894 161.636 44.6807 160.856 44.2436C160.083 43.8145 158.84 43.5204 157.486 43.7032C156.131 43.886 155.016 44.4979 154.387 45.1258C153.749 45.7537 153.582 46.3338 153.789 46.5723V46.5802Z" fill="#263238"/>
<path d="M203.287 59.1848C203.542 59.0418 213.596 54.925 214.377 65.527C215.157 76.129 204.331 74.7223 204.283 74.4123C204.243 74.1103 203.287 59.1848 203.287 59.1848Z" fill="#FFBF9D"/>
<path d="M207.231 70.1608C207.278 70.1211 207.422 70.28 207.748 70.3992C208.067 70.5184 208.593 70.5741 209.135 70.3277C210.226 69.8349 211.039 67.9911 210.951 66.0758C210.903 65.1062 210.64 64.2081 210.242 63.469C209.86 62.714 209.318 62.2133 208.744 62.1497C208.171 62.0623 207.796 62.4279 207.693 62.7378C207.573 63.0478 207.653 63.2544 207.597 63.2703C207.573 63.3021 207.358 63.1113 207.406 62.6663C207.438 62.4517 207.541 62.1894 207.772 61.9748C208.011 61.7523 208.378 61.6172 208.776 61.6331C209.597 61.6331 210.393 62.3245 210.832 63.1352C211.318 63.9458 211.644 64.9552 211.692 66.044C211.78 68.1819 210.832 70.2641 209.326 70.8204C208.593 71.0668 207.956 70.892 207.613 70.6615C207.262 70.4231 207.191 70.1926 207.231 70.1687V70.1608Z" fill="#FF9A6C"/>
<path d="M155.399 30.5024C153.614 29.6679 158.418 23.7788 162.529 21.5933C168.735 18.2871 178.375 15.8869 184.373 17.1744C191.599 18.7242 197.718 21.8714 201.693 28.0784C205.668 34.2934 207.493 41.7085 207.764 49.0758C207.843 51.325 207.764 53.6774 206.688 55.6484C205.358 58.0883 202.601 59.7494 202.936 62.9761C203.055 64.1523 202.8 65.3683 202.044 66.2822C200.235 68.4678 197.726 66.6876 196.507 64.8119C193.902 60.8064 193.32 55.863 192.81 51.1183C192.444 47.7486 192.085 44.2994 192.834 40.9852C193.24 39.1811 193.965 37.4565 194.276 35.6365C194.579 33.8166 194.396 31.782 193.185 30.3912C192.985 30.1607 192.667 29.8825 192.268 29.5726C189.09 27.1327 184.82 26.6161 181.131 28.1897C175.283 30.6852 165.261 34.5 162.457 32.6403C158.426 29.97 157.382 28.1261 157.382 28.1261L155.415 30.4865L155.399 30.5024Z" fill="#263238"/>
<path d="M144.549 123.544C143.936 124.395 135.228 127.28 131.922 132.772C128.616 138.263 125.349 162.917 125.349 162.917L123.246 179.145C127.389 185.686 132.942 194.341 138.845 200.445L144.549 123.552V123.544Z" fill="#455A64"/>
<g opacity="0.3">
<path opacity="0.3" d="M209.971 147.347C210.337 150.653 210.712 153.999 211.851 157.131C212.99 160.254 214.99 163.195 217.913 164.808C219.132 165.483 220.519 165.929 221.538 166.874C222.638 167.892 223.187 169.37 224.183 170.49C225.338 171.794 227.011 172.517 228.653 173.105C233.52 174.83 238.324 175.648 243.487 175.466C243.646 173.765 243.654 167.518 243.813 165.817L209.971 147.355V147.347Z" fill="black"/>
</g>
<path d="M236.778 111.607C236.778 111.607 247.756 114.85 250.975 119.515C254.193 124.18 259.889 142.269 261.06 145.623C262.231 148.976 261.204 156.757 259.013 162.344C256.822 167.931 253.014 172.748 246.442 173.479C239.869 174.21 229.48 170.419 227.146 167.939C224.812 165.46 223.832 159.896 223.832 159.896C226.748 159.388 229.632 158.665 232.452 157.743" fill="#455A64"/>
<path d="M232.453 157.727C232.453 157.727 232.405 157.751 232.317 157.79C232.206 157.83 232.07 157.878 231.903 157.941C231.536 158.068 230.987 158.251 230.262 158.466C228.812 158.895 226.661 159.483 223.856 160L223.944 159.873C224.191 161.112 224.542 162.471 225.067 163.894C225.33 164.601 225.633 165.332 226.015 166.04C226.406 166.747 226.86 167.462 227.489 168.035C228.119 168.607 228.899 169.068 229.712 169.497C230.525 169.934 231.393 170.316 232.293 170.681C234.102 171.404 236.053 172.032 238.125 172.525C240.196 173.002 242.395 173.359 244.673 173.367C245.247 173.391 245.813 173.32 246.386 173.288C246.952 173.193 247.533 173.145 248.099 172.986C249.238 172.732 250.354 172.302 251.397 171.706C253.501 170.546 255.277 168.734 256.631 166.612C258.002 164.49 259.006 162.082 259.738 159.571C260.312 157.639 260.734 155.684 261.005 153.745C261.284 151.806 261.419 149.867 261.292 147.983C261.22 147.037 261.045 146.147 260.718 145.265C260.424 144.375 260.129 143.493 259.842 142.618C259.26 140.878 258.687 139.169 258.129 137.508C256.998 134.186 255.883 131.047 254.767 128.13C253.628 125.229 252.568 122.511 251.238 120.23C250.585 119.086 249.7 118.188 248.76 117.464C247.836 116.717 246.88 116.121 245.964 115.597C244.132 114.556 242.467 113.825 241.096 113.252C239.726 112.688 238.643 112.291 237.902 112.028C237.551 111.901 237.272 111.806 237.065 111.734C236.874 111.671 236.778 111.631 236.778 111.623C236.778 111.623 236.882 111.639 237.073 111.695C237.288 111.758 237.567 111.846 237.926 111.949C238.674 112.187 239.766 112.553 241.152 113.101C242.538 113.65 244.219 114.373 246.076 115.398C247 115.915 247.972 116.511 248.92 117.258C249.876 117.981 250.816 118.911 251.485 120.079C252.855 122.384 253.931 125.102 255.086 128.003C256.217 130.92 257.348 134.059 258.488 137.381C259.053 139.042 259.627 140.751 260.216 142.491C260.511 143.365 260.806 144.24 261.101 145.13C261.427 146.012 261.627 146.99 261.698 147.951C261.834 149.882 261.698 151.846 261.419 153.801C261.141 155.764 260.718 157.735 260.137 159.69C259.388 162.233 258.376 164.673 256.974 166.842C255.596 169.012 253.763 170.872 251.589 172.064C250.513 172.676 249.358 173.113 248.187 173.375C247.605 173.534 247.008 173.59 246.426 173.685C245.837 173.717 245.247 173.789 244.673 173.765C242.347 173.749 240.124 173.383 238.037 172.891C235.95 172.39 233.982 171.746 232.166 171.007C231.258 170.633 230.381 170.244 229.561 169.791C228.74 169.354 227.951 168.877 227.282 168.273C226.621 167.661 226.159 166.914 225.768 166.191C225.378 165.46 225.075 164.721 224.82 163.997C224.311 162.551 223.968 161.184 223.729 159.928L223.705 159.817L223.817 159.801C226.621 159.324 228.772 158.768 230.23 158.37C230.939 158.172 231.489 158.013 231.887 157.902C232.062 157.854 232.198 157.814 232.309 157.782C232.405 157.758 232.453 157.743 232.453 157.751V157.727Z" fill="#263238"/>
<path d="M252.593 151.877C252.513 151.893 252.258 150.526 251.342 148.508C250.442 146.497 248.824 143.834 246.387 141.49C245.176 140.314 243.829 139.424 242.539 138.756C242.204 138.605 241.885 138.462 241.567 138.327C241.256 138.184 240.922 138.12 240.619 138.017C240.005 137.794 239.408 137.739 238.858 137.651L238.46 137.588C238.332 137.588 238.205 137.588 238.077 137.588C237.83 137.588 237.599 137.588 237.376 137.588C236.938 137.564 236.564 137.643 236.253 137.683C235.64 137.771 235.297 137.81 235.289 137.778C235.289 137.755 235.616 137.659 236.229 137.524C236.54 137.453 236.914 137.349 237.36 137.357C237.591 137.349 237.83 137.333 238.077 137.325C238.205 137.325 238.34 137.318 238.468 137.31C238.603 137.325 238.739 137.341 238.882 137.357C239.448 137.429 240.069 137.469 240.706 137.683C241.025 137.778 241.368 137.842 241.694 137.985C242.021 138.128 242.356 138.271 242.698 138.414C244.037 139.082 245.431 139.988 246.665 141.188C249.151 143.58 250.76 146.314 251.605 148.388C251.82 148.905 252.011 149.382 252.131 149.811C252.258 150.24 252.386 150.598 252.433 150.908C252.561 151.52 252.617 151.861 252.585 151.869L252.593 151.877Z" fill="#263238"/>
<path d="M258.583 142.046C258.495 142.078 258.192 140.64 256.926 138.708C255.683 136.809 253.309 134.433 249.931 133.423C246.561 132.398 243.287 132.716 241 132.939C239.909 133.066 239.001 133.177 238.268 133.264C237.622 133.344 237.264 133.376 237.256 133.344C237.256 133.312 237.598 133.233 238.236 133.105C238.873 132.978 239.797 132.811 240.952 132.644C243.239 132.35 246.561 131.977 250.034 133.026C251.763 133.551 253.277 134.433 254.464 135.442C255.667 136.443 256.535 137.556 257.157 138.549C257.778 139.551 258.129 140.433 258.328 141.061C258.527 141.681 258.583 142.038 258.567 142.046H258.583Z" fill="#263238"/>
<path d="M250.306 130.292C250.274 130.427 247.414 129.505 243.782 129.672C240.141 129.799 237.36 130.936 237.321 130.801C237.305 130.753 237.966 130.411 239.121 130.046C240.268 129.68 241.917 129.33 243.766 129.251C245.614 129.179 247.279 129.402 248.458 129.68C249.637 129.958 250.322 130.244 250.306 130.292Z" fill="#263238"/>
<path d="M232.54 114.341C232.604 114.349 232.444 115.462 232.317 117.25C232.189 119.046 232.126 121.534 232.373 124.268C232.596 126.89 233.074 129.251 233.496 130.96L233.209 131.055C232.883 130.133 232.628 129.394 232.46 128.869C232.293 128.345 232.213 128.059 232.237 128.051C232.261 128.043 232.397 128.313 232.612 128.814C232.827 129.314 233.13 130.046 233.488 130.952L233.201 131.047C232.707 129.338 232.182 126.97 231.958 124.315C231.712 121.558 231.815 119.038 232.022 117.242C232.126 116.344 232.237 115.621 232.341 115.12C232.444 114.619 232.508 114.349 232.54 114.357V114.341Z" fill="#263238"/>
<path d="M217.021 93.9478C217.021 93.9478 211.325 93.9478 210.608 100.783C210.058 106.028 210.608 111.122 210.608 113.419C210.608 115.716 209.596 123.886 209.596 123.886C209.596 123.886 205.709 127.327 205.772 131.46C205.836 135.617 208.8 136.88 208.8 136.88C208.8 136.88 206.991 140.814 210.441 144.43C210.441 144.43 208.784 148.237 210.146 150.804C211.198 152.791 213.564 153.451 213.564 153.451C213.564 153.451 211.883 157.202 215.922 158.784C218.312 159.714 221.841 159.507 221.841 159.507L226.095 159.427L229.84 161.494C229.84 161.494 236.253 158.704 236.42 154.929L236.587 151.154C236.587 151.154 234.779 144.923 234.612 142.952C234.444 140.981 236.093 136.229 235.106 134.091C234.118 131.961 230.668 130.705 230.995 127.725C231.321 124.744 230.668 123.099 229.186 121.462C227.705 119.825 221.164 116.543 221.164 116.543C221.164 116.543 219.483 111.782 219.483 108.5C219.483 105.217 222.773 95.2114 217.013 93.9557L217.021 93.9478Z" fill="#FFBF9D"/>
<path d="M220.861 117.775C220.893 117.822 220.288 118.212 219.284 118.792C218.28 119.38 216.886 120.159 215.332 121.001C213.779 121.844 212.353 122.591 211.317 123.107C210.282 123.624 209.62 123.926 209.596 123.87C209.572 123.815 210.178 123.433 211.174 122.845C212.178 122.257 213.572 121.478 215.125 120.636C216.679 119.793 218.097 119.054 219.14 118.53C220.176 118.013 220.837 117.711 220.861 117.767V117.775Z" fill="#FF9A6C"/>
<path d="M224.598 130.625C224.598 130.625 224.439 130.808 224.104 131.071C223.769 131.341 223.268 131.698 222.622 132.112C221.34 132.946 219.467 133.963 217.285 134.798C215.094 135.632 213.022 136.117 211.509 136.356C210.752 136.475 210.138 136.546 209.708 136.57C209.278 136.594 209.047 136.602 209.039 136.57C209.039 136.507 209.963 136.38 211.453 136.07C212.943 135.76 214.974 135.235 217.133 134.416C219.292 133.59 221.156 132.628 222.471 131.865C223.785 131.102 224.566 130.578 224.606 130.633L224.598 130.625Z" fill="#FF9A6C"/>
<path d="M229.488 126.541C229.592 126.573 229.377 127.304 228.7 127.916C228.03 128.528 227.282 128.671 227.258 128.567C227.218 128.456 227.831 128.162 228.421 127.606C229.026 127.065 229.377 126.485 229.488 126.541Z" fill="#FF9A6C"/>
<path d="M227.147 141.879C227.163 141.927 226.263 142.293 224.765 142.754C223.268 143.215 221.156 143.739 218.79 144.121C216.424 144.502 214.257 144.661 212.688 144.693C211.118 144.733 210.146 144.661 210.146 144.613C210.146 144.55 211.11 144.51 212.672 144.399C214.225 144.288 216.376 144.089 218.727 143.707C221.077 143.326 223.172 142.849 224.686 142.468C226.199 142.086 227.131 141.816 227.147 141.879Z" fill="#FF9A6C"/>
<path d="M232.349 140.934C232.294 140.902 232.541 140.465 232.788 139.718C233.035 138.971 233.242 137.89 233.098 136.706C232.955 135.521 232.501 134.512 232.087 133.852C231.672 133.185 231.33 132.819 231.378 132.772C231.409 132.732 231.832 133.026 232.334 133.686C232.827 134.337 233.369 135.394 233.521 136.658C233.672 137.922 233.401 139.074 233.074 139.821C232.748 140.576 232.405 140.966 232.365 140.934H232.349Z" fill="#FF9A6C"/>
<path d="M227.442 153.38C227.45 153.427 226.685 153.642 225.419 153.856C224.152 154.071 222.375 154.254 220.408 154.246C218.44 154.246 216.671 154.047 215.404 153.825C214.138 153.61 213.373 153.387 213.381 153.34C213.397 153.276 214.178 153.395 215.444 153.538C216.711 153.682 218.464 153.825 220.408 153.833C222.351 153.833 224.104 153.705 225.379 153.562C226.645 153.427 227.434 153.316 227.442 153.38Z" fill="#FF9A6C"/>
<path d="M217.324 108.587C217.348 108.635 217.069 108.841 216.536 109.032C216.01 109.223 215.213 109.358 214.353 109.255C213.492 109.151 212.751 108.833 212.281 108.523C211.811 108.213 211.588 107.943 211.62 107.904C211.692 107.8 212.775 108.667 214.401 108.841C216.026 109.048 217.277 108.468 217.324 108.579V108.587Z" fill="#FF9A6C"/>
<path d="M233.537 141.41C233.537 141.41 233.609 141.625 233.625 142.022C233.632 142.42 233.585 143 233.425 143.699C233.274 144.399 233.011 145.201 232.756 146.083C232.517 146.966 232.286 147.967 232.461 148.976C232.597 149.978 233.354 150.796 233.473 151.822C233.609 152.823 233.21 153.673 232.844 154.277C232.461 154.889 232.087 155.326 231.816 155.613C231.545 155.899 231.378 156.05 231.362 156.026C231.298 155.978 231.912 155.326 232.597 154.126C232.915 153.53 233.242 152.736 233.099 151.869C233.003 151.003 232.238 150.192 232.055 149.04C231.864 147.911 232.135 146.862 232.398 145.972C232.676 145.074 232.963 144.295 233.147 143.62C233.545 142.277 233.465 141.402 233.537 141.402V141.41Z" fill="#FF9A6C"/>
<path d="M235.679 146.409C235.679 146.409 235.806 146.664 235.95 147.156C236.093 147.641 236.284 148.356 236.467 149.254C236.643 150.152 236.818 151.225 236.85 152.441C236.874 153.649 236.754 155.032 236.133 156.336C235.495 157.615 234.571 158.625 233.687 159.451C232.795 160.27 231.91 160.921 231.154 161.43C230.397 161.939 229.767 162.32 229.321 162.574C228.875 162.821 228.62 162.948 228.604 162.924C228.572 162.869 229.52 162.272 230.986 161.2C231.711 160.659 232.564 159.999 233.424 159.181C234.277 158.354 235.161 157.377 235.758 156.169C236.34 154.961 236.475 153.641 236.467 152.457C236.467 151.273 236.316 150.208 236.181 149.31C235.886 147.53 235.623 146.433 235.687 146.417L235.679 146.409Z" fill="#263238"/>
<path d="M175.563 119.952C175.563 119.952 175.22 119.729 174.639 119.261C174.01 118.744 173.197 118.068 172.225 117.266C171.715 116.837 171.157 116.368 170.568 115.875C170.273 115.629 169.97 115.366 169.628 115.199C169.285 115.032 168.903 114.985 168.56 115.16C167.875 115.517 167.413 116.399 166.824 117.131C166.258 117.894 165.668 118.68 165.071 119.491C164.107 120.779 163.183 122.01 162.33 123.155L161.812 123.838L161.98 122.996C162.537 120.119 163.318 117.719 163.964 116.066C164.282 115.239 164.569 114.587 164.776 114.15C164.983 113.713 165.111 113.483 165.127 113.491C165.151 113.499 165.063 113.745 164.896 114.198C164.728 114.651 164.481 115.311 164.195 116.145C163.621 117.822 162.896 120.214 162.37 123.067L162.02 122.916C162.872 121.772 163.788 120.532 164.744 119.245C165.35 118.442 165.939 117.655 166.505 116.892C166.792 116.511 167.071 116.137 167.349 115.772C167.636 115.406 167.955 115.032 168.401 114.818C168.855 114.587 169.405 114.667 169.795 114.874C170.193 115.08 170.504 115.358 170.799 115.613C171.373 116.121 171.914 116.598 172.416 117.043C173.356 117.886 174.137 118.593 174.742 119.133C175.284 119.634 175.579 119.92 175.563 119.944V119.952Z" fill="#263238"/>
<path d="M209.206 113.229C209.206 113.229 209.11 113.332 208.895 113.507C208.64 113.705 208.329 113.944 207.955 114.238C207.079 114.898 205.892 115.788 204.442 116.876C201.406 119.102 197.288 122.13 192.723 125.484L192.547 125.611L192.428 125.428C192.332 125.285 192.237 125.126 192.141 124.975C189.982 121.573 187.967 118.402 186.262 115.708L186.477 115.78C183.665 116.892 181.45 118.116 179.944 119.03C179.187 119.483 178.614 119.865 178.215 120.119C177.817 120.373 177.61 120.508 177.594 120.493C177.586 120.477 177.777 120.318 178.152 120.032C178.526 119.745 179.092 119.34 179.833 118.855C181.314 117.894 183.513 116.614 186.341 115.454L186.477 115.398L186.557 115.525C188.277 118.204 190.309 121.367 192.492 124.752C192.587 124.911 192.691 125.062 192.779 125.205L192.484 125.15C197.081 121.836 201.223 118.847 204.282 116.646C205.764 115.605 206.975 114.746 207.867 114.119C208.266 113.848 208.592 113.626 208.855 113.451C209.086 113.3 209.206 113.229 209.214 113.236L209.206 113.229Z" fill="#263238"/>
<path d="M137.706 144.835C137.706 144.835 137.738 145.026 137.746 145.4C137.754 145.805 137.77 146.345 137.794 147.005C137.818 148.452 137.857 150.462 137.905 152.918C138.001 157.909 138.2 164.808 138.463 172.429C138.726 180.051 138.877 186.957 138.893 191.948C138.901 194.444 138.893 196.471 138.869 197.869C138.853 198.537 138.845 199.069 138.837 199.475C138.821 199.84 138.813 200.039 138.797 200.039C138.782 200.039 138.766 199.848 138.758 199.475C138.75 199.069 138.734 198.529 138.71 197.869C138.686 196.423 138.646 194.42 138.598 191.956C138.503 186.965 138.304 180.067 138.041 172.445C137.778 164.823 137.626 157.925 137.61 152.926C137.602 150.431 137.61 148.404 137.634 147.005C137.65 146.338 137.658 145.805 137.666 145.4C137.682 145.034 137.69 144.835 137.706 144.835Z" fill="#263238"/>
<path d="M175.826 216.626C175.826 216.626 175.802 216.546 175.786 216.395C175.77 216.22 175.738 215.998 175.706 215.72C175.643 215.1 175.563 214.226 175.451 213.121C175.228 210.864 174.973 207.589 174.719 203.544C174.456 199.499 174.248 194.675 174.105 189.31C173.986 183.946 173.962 178.048 174.089 171.865C174.233 165.674 174.519 159.785 174.87 154.428C175.244 149.08 175.667 144.264 176.097 140.234C176.527 136.205 176.925 132.946 177.244 130.697C177.403 129.6 177.523 128.734 177.61 128.114C177.65 127.836 177.69 127.621 177.714 127.447C177.738 127.296 177.754 127.216 177.762 127.216C177.762 127.216 177.762 127.296 177.754 127.447C177.738 127.621 177.714 127.844 177.69 128.122C177.618 128.742 177.523 129.616 177.395 130.713C177.124 132.962 176.774 136.229 176.384 140.258C175.985 144.287 175.595 149.104 175.244 154.452C174.918 159.801 174.639 165.69 174.495 171.873C174.368 178.056 174.384 183.946 174.48 189.302C174.599 194.659 174.774 199.483 174.997 203.528C175.212 207.574 175.428 210.848 175.595 213.113C175.667 214.218 175.73 215.092 175.77 215.72C175.786 215.998 175.794 216.22 175.802 216.395C175.802 216.546 175.802 216.626 175.802 216.626H175.826Z" fill="#263238"/>
<path d="M152.085 86.5326C152.085 86.5326 151.806 86.7313 151.241 87.0969C150.675 87.4624 149.839 88.0029 148.747 88.7102C147.656 89.4175 146.389 90.4269 144.843 91.5475C144.079 92.1197 143.322 92.8111 142.469 93.5026C142.047 93.8523 141.617 94.2178 141.171 94.5914C140.733 94.9729 140.31 95.402 139.856 95.8232C136.231 99.1851 132.121 103.699 128.336 109.62C127.874 110.367 127.396 111.122 126.918 111.893C126.416 112.656 126.034 113.499 125.572 114.309C125.142 115.144 124.656 115.962 124.242 116.837C123.843 117.719 123.429 118.609 123.015 119.515C122.815 119.968 122.584 120.421 122.401 120.89C122.218 121.359 122.043 121.836 121.859 122.312C121.501 123.274 121.111 124.236 120.76 125.221C120.171 127.24 119.43 129.266 118.984 131.436C117.876 135.712 117.271 140.321 117.024 145.13C116.745 149.938 117.032 154.977 117.86 160.103C119.541 170.331 123.58 180.981 130.456 190.447C137.243 199.944 146.835 208.201 158.347 213.63C169.843 219.089 183.291 221.45 196.722 220.067C210.17 218.676 222.774 213.391 232.867 205.674C235.409 203.767 237.751 201.645 239.99 199.475C240.531 198.911 241.065 198.354 241.607 197.79C242.149 197.234 242.674 196.669 243.176 196.073C243.686 195.493 244.188 194.905 244.69 194.325C245.168 193.721 245.638 193.117 246.116 192.521C249.9 187.713 252.888 182.475 255.254 177.142C257.612 171.802 259.173 166.278 260.129 160.842C260.623 158.124 260.894 155.406 261.077 152.728C261.165 151.392 261.157 150.057 261.205 148.738C261.181 147.419 261.109 146.115 261.061 144.812C261.038 144.16 261.014 143.516 260.982 142.873C260.942 142.229 260.838 141.601 260.767 140.965C260.615 139.702 260.464 138.446 260.313 137.198C260.113 135.966 259.827 134.75 259.596 133.55C259.349 132.35 259.142 131.142 258.767 129.998C258.432 128.837 258.106 127.693 257.771 126.556C257.628 125.984 257.421 125.436 257.206 124.887C256.998 124.339 256.791 123.799 256.592 123.258C256.17 122.185 255.819 121.088 255.349 120.063C254.871 119.038 254.393 118.029 253.923 117.027C250.075 109.064 245.136 102.626 240.181 97.6591C235.202 92.676 230.199 89.1871 225.976 86.62C224.901 86.008 223.889 85.4199 222.933 84.8795C222.463 84.5934 221.985 84.3708 221.515 84.1483C221.053 83.9258 220.607 83.7192 220.176 83.5125C219.316 83.0992 218.519 82.7257 217.794 82.376C217.077 82.0104 216.368 81.8038 215.771 81.5574C214.56 81.0885 213.636 80.7309 212.998 80.4845C212.377 80.2381 212.058 80.103 212.058 80.103C212.058 80.103 212.385 80.2143 213.014 80.4448C213.652 80.6832 214.584 81.0249 215.803 81.4779C216.408 81.7243 217.117 81.923 217.842 82.2806C218.575 82.6224 219.372 82.9959 220.24 83.4013C220.67 83.5999 221.124 83.8145 221.587 84.0291C222.057 84.2437 222.543 84.4662 223.013 84.7523C223.969 85.2928 224.988 85.8729 226.072 86.4849C230.31 89.044 235.345 92.5171 240.356 97.5002C245.343 102.467 250.322 108.913 254.202 116.908C254.672 117.909 255.15 118.927 255.636 119.952C256.114 120.977 256.465 122.082 256.895 123.155C257.102 123.695 257.309 124.244 257.516 124.792C257.731 125.34 257.939 125.889 258.082 126.469C258.417 127.605 258.743 128.758 259.086 129.918C259.46 131.071 259.675 132.279 259.93 133.487C260.169 134.695 260.456 135.911 260.655 137.15C260.807 138.398 260.966 139.662 261.117 140.933C261.189 141.569 261.293 142.205 261.332 142.849C261.356 143.493 261.388 144.144 261.412 144.796C261.46 146.099 261.532 147.411 261.563 148.738C261.516 150.065 261.524 151.4 261.436 152.743C261.261 155.43 260.99 158.164 260.496 160.898C259.54 166.366 257.97 171.913 255.612 177.293C253.246 182.658 250.243 187.927 246.443 192.759C245.965 193.363 245.487 193.967 245.009 194.571C244.499 195.152 243.997 195.74 243.487 196.328C242.985 196.924 242.459 197.496 241.91 198.052C241.368 198.617 240.826 199.181 240.284 199.745C238.03 201.923 235.68 204.061 233.122 205.984C222.981 213.757 210.306 219.066 196.778 220.464C183.275 221.863 169.747 219.487 158.188 213.987C146.604 208.519 136.972 200.214 130.153 190.661C123.254 181.14 119.199 170.427 117.526 160.151C116.697 155.001 116.418 149.946 116.705 145.114C116.96 140.282 117.581 135.656 118.697 131.365C119.151 129.187 119.9 127.152 120.497 125.134C120.856 124.14 121.238 123.179 121.605 122.217C121.788 121.74 121.971 121.263 122.154 120.786C122.345 120.318 122.569 119.865 122.776 119.412C123.19 118.506 123.604 117.607 124.01 116.725C124.425 115.851 124.919 115.024 125.357 114.19C125.819 113.371 126.209 112.529 126.711 111.766C127.197 110.995 127.675 110.232 128.137 109.493C131.953 103.564 136.096 99.0499 139.745 95.704C140.199 95.2828 140.629 94.8536 141.067 94.4722C141.521 94.0986 141.951 93.733 142.382 93.3834C143.234 92.6919 144.007 92.0084 144.772 91.4362C146.325 90.3315 147.6 89.3301 148.707 88.6307C149.807 87.9393 150.651 87.4068 151.225 87.0492C151.79 86.6915 152.085 86.5246 152.085 86.5246V86.5326Z" fill="#263238"/>
</g>
<defs>
<clipPath id="clip0_1248_5522">
<rect width="354" height="349" fill="white"/>
</clipPath>
</defs>
</svg>
