<svg width="30" height="27" viewBox="0 0 30 27" fill="none" xmlns="http://www.w3.org/2000/svg">
<path opacity="0.2" d="M22.672 0.744004C24.912 0.744004 26.704 1.544 28.048 3.144C29.328 4.808 29.968 6.952 29.968 9.576C29.968 13.16 29.008 16.392 27.088 19.272C25.104 22.216 22.096 24.68 18.064 26.664L17.008 25.128C18.928 23.976 20.688 22.344 22.288 20.232C23.824 18.184 24.592 16.104 24.592 13.992C24.592 13.416 24.432 12.936 24.112 12.552C23.792 12.232 23.312 12.072 22.672 12.072C21.072 12.072 19.728 11.496 18.64 10.344C17.488 9.25601 16.912 7.912 16.912 6.312C16.912 4.712 17.488 3.368 18.64 2.28C19.728 1.256 21.072 0.744004 22.672 0.744004ZM6.06399 0.744006C8.30399 0.744006 10.096 1.544 11.44 3.144C12.72 4.808 13.36 6.95201 13.36 9.57601C13.36 13.16 12.4 16.392 10.48 19.272C8.496 22.216 5.488 24.68 1.456 26.664L0.399995 25.128C2.31999 23.976 4.08 22.344 5.68 20.232C7.21599 18.184 7.98399 16.104 7.98399 13.992C7.98399 13.416 7.82399 12.936 7.50399 12.552C7.18399 12.232 6.70399 12.072 6.064 12.072C4.46399 12.072 3.12 11.496 2.032 10.344C0.879995 9.25601 0.303995 7.91201 0.303995 6.312C0.303994 4.712 0.879995 3.368 2.03199 2.28C3.11999 1.25601 4.46399 0.744006 6.06399 0.744006Z" fill="white"/>
</svg>
