<svg width="46" height="32" viewBox="0 0 46 32" fill="none" xmlns="http://www.w3.org/2000/svg">
<path d="M40.5472 24.1155C39.2149 26.2063 36.091 29.1472 31.6348 31.6975L30.9687 30.7554C36.091 26.6887 37.7908 20.1407 36.091 19.865C33.7251 19.6812 31.3592 18.923 29.4527 17.1079C25.5707 13.225 25.5707 7.06754 29.3608 3.09275C33.2427 -0.698234 39.3987 -0.698234 43.1887 3.09275C49.1609 9.06642 43.8549 19.4744 40.5472 24.1155ZM14.3154 24.1155C12.9832 26.2063 9.85923 29.1472 5.40305 31.6975L4.7369 30.7554C9.85921 26.6887 11.559 20.1407 9.85924 19.865C7.49332 19.6812 5.12741 18.923 3.2209 17.1079C-0.661034 13.225 -0.661053 7.06754 3.129 3.09275C7.01094 -0.698234 13.1669 -0.698234 16.957 3.09275C22.9292 9.06642 17.6231 19.4744 14.3154 24.1155Z" fill="#8D6913"/>
</svg>
