<svg width="32" height="27" viewBox="0 0 32 27" fill="none" xmlns="http://www.w3.org/2000/svg">
<path opacity="0.2" d="M18.184 26.472C17.864 25.512 17.704 24.712 17.704 24.072C17.704 23.496 17.8 22.728 17.992 21.768C22.28 21.768 24.424 19.56 24.424 15.144C24.424 13.544 23.592 12.648 21.928 12.456C19.496 12.264 18.28 10.696 18.28 7.752C18.28 5.512 18.824 3.784 19.912 2.568C20.936 1.416 22.824 0.840003 25.576 0.840003C29.352 0.840003 31.24 3.4 31.24 8.52C31.24 13.64 30.216 17.896 28.168 21.288C26.12 24.744 22.792 26.472 18.184 26.472ZM0.807998 26.472C0.487996 25.512 0.327996 24.712 0.327995 24.072C0.327995 23.496 0.423996 22.728 0.615997 21.768C4.904 21.768 7.048 19.56 7.048 15.144C7.048 13.544 6.216 12.648 4.55199 12.456C2.12 12.264 0.903995 10.696 0.903995 7.752C0.903995 5.51201 1.44799 3.78401 2.53599 2.56801C3.55999 1.41601 5.44799 0.840005 8.2 0.840005C11.976 0.840004 13.864 3.4 13.864 8.52001C13.864 13.64 12.84 17.896 10.792 21.288C8.744 24.744 5.416 26.472 0.807998 26.472Z" fill="white"/>
</svg>
