<svg width="46" height="33" viewBox="0 0 46 33" fill="none" xmlns="http://www.w3.org/2000/svg">
<path d="M5.56122 8.50384C6.89348 6.41306 10.0174 3.47217 14.4736 0.921875L15.1397 1.86388C10.0174 5.93057 8.31762 12.4786 10.0174 12.7543C12.3833 12.9381 14.7492 13.6963 16.6557 15.5114C20.5377 19.3943 20.5377 25.5518 16.7476 29.5266C12.8657 33.3175 6.70972 33.3175 2.91966 29.5266C-3.05254 23.5529 2.25353 13.1449 5.56122 8.50384ZM31.793 8.50384C33.1252 6.41306 36.2492 3.47217 40.7054 0.921875L41.3715 1.86388C36.2492 5.93057 34.5494 12.4786 36.2492 12.7543C38.6151 12.9381 40.981 13.6963 42.8875 15.5114C46.7694 19.3943 46.7694 25.5518 42.9794 29.5266C39.0975 33.3175 32.9415 33.3175 29.1514 29.5266C23.1792 23.5529 28.4853 13.1449 31.793 8.50384Z" fill="#8D6913"/>
</svg>
