<svg width="30" height="27" viewBox="0 0 30 27" fill="none" xmlns="http://www.w3.org/2000/svg">
<path opacity="0.2" d="M7.328 26.256C5.088 26.256 3.296 25.456 1.952 23.856C0.672 22.192 0.0320003 20.048 0.0320003 17.424C0.0320003 13.84 0.992 10.608 2.912 7.72799C4.896 4.78399 7.904 2.32 11.936 0.335999L12.992 1.872C11.072 3.024 9.312 4.656 7.712 6.768C6.176 8.816 5.408 10.896 5.408 13.008C5.408 13.584 5.568 14.064 5.888 14.448C6.208 14.768 6.688 14.928 7.328 14.928C8.928 14.928 10.272 15.504 11.36 16.656C12.512 17.744 13.088 19.088 13.088 20.688C13.088 22.288 12.512 23.632 11.36 24.72C10.272 25.744 8.928 26.256 7.328 26.256ZM23.936 26.256C21.696 26.256 19.904 25.456 18.56 23.856C17.28 22.192 16.64 20.048 16.64 17.424C16.64 13.84 17.6 10.608 19.52 7.72799C21.504 4.78399 24.512 2.32 28.544 0.335999L29.6 1.872C27.68 3.024 25.92 4.656 24.32 6.768C22.784 8.816 22.016 10.896 22.016 13.008C22.016 13.584 22.176 14.064 22.496 14.448C22.816 14.768 23.296 14.928 23.936 14.928C25.536 14.928 26.88 15.504 27.968 16.656C29.12 17.744 29.696 19.088 29.696 20.688C29.696 22.288 29.12 23.632 27.968 24.72C26.88 25.744 25.536 26.256 23.936 26.256Z" fill="white"/>
</svg>
