<svg width="17" height="14" viewBox="0 0 17 14" fill="none" xmlns="http://www.w3.org/2000/svg">
<path opacity="0.2" d="M1.12 13.08C0.96 12.6 0.88 12.216 0.88 11.928C0.88 11.608 0.928 11.208 1.024 10.728C3.168 10.728 4.24 9.624 4.24 7.416C4.24 6.616 3.824 6.168 2.992 6.072C1.776 5.976 1.168 5.192 1.168 3.72C1.168 2.6 1.424 1.752 1.936 1.176C2.48 0.567998 3.44 0.263998 4.816 0.263998C6.704 0.263998 7.648 1.544 7.648 4.104C7.648 6.664 7.136 8.808 6.112 10.536C5.088 12.232 3.424 13.08 1.12 13.08ZM9.808 13.08C9.648 12.6 9.568 12.216 9.568 11.928C9.568 11.608 9.616 11.208 9.712 10.728C11.856 10.728 12.928 9.624 12.928 7.416C12.928 6.616 12.512 6.168 11.68 6.072C10.464 5.976 9.856 5.192 9.856 3.72C9.856 2.6 10.112 1.752 10.624 1.176C11.168 0.567998 12.128 0.263998 13.504 0.263998C15.392 0.263998 16.336 1.544 16.336 4.104C16.336 6.664 15.824 8.808 14.8 10.536C13.776 12.232 12.112 13.08 9.808 13.08Z" fill="white"/>
</svg>
