<svg width="32" height="27" viewBox="0 0 32 27" fill="none" xmlns="http://www.w3.org/2000/svg">
<path opacity="0.2" d="M13.816 0.527996C14.136 1.488 14.296 2.288 14.296 2.928C14.296 3.504 14.2 4.272 14.008 5.232C9.72 5.232 7.576 7.44 7.576 11.856C7.576 13.456 8.408 14.352 10.072 14.544C12.504 14.736 13.72 16.304 13.72 19.248C13.72 21.488 13.176 23.216 12.088 24.432C11.064 25.584 9.176 26.16 6.424 26.16C2.648 26.16 0.76 23.6 0.76 18.48C0.76 13.36 1.784 9.104 3.832 5.712C5.88 2.256 9.208 0.527996 13.816 0.527996ZM31.192 0.527996C31.512 1.488 31.672 2.288 31.672 2.928C31.672 3.504 31.576 4.272 31.384 5.232C27.096 5.232 24.952 7.44 24.952 11.856C24.952 13.456 25.784 14.352 27.448 14.544C29.88 14.736 31.096 16.304 31.096 19.248C31.096 21.488 30.552 23.216 29.464 24.432C28.44 25.584 26.552 26.16 23.8 26.16C20.024 26.16 18.136 23.6 18.136 18.48C18.136 13.36 19.16 9.104 21.208 5.712C23.256 2.256 26.584 0.527996 31.192 0.527996Z" fill="white"/>
</svg>
