<svg width="22" height="18" viewBox="0 0 22 18" fill="none" xmlns="http://www.w3.org/2000/svg">
<g opacity="0.2">
<path d="M21.5584 1.96355e-06H13.6418C13.3993 1.96355e-06 13.2001 0.194884 13.2001 0.441723V8.36268C13.2001 8.6052 13.395 8.8044 13.6418 8.8044H19.8V8.81307C19.8 10.5064 18.9598 12.0741 17.5523 13.0137L13.6894 15.5904C13.1827 15.9282 13.0571 16.6038 13.3862 17.1148C13.9102 17.9377 14.7244 17.5436 14.9106 17.418L18.7736 14.8412C20.7917 13.4901 22 11.2381 22 8.80856V0.437405C22 0.194886 21.8051 0 21.5582 0L21.5584 1.96355e-06Z" fill="white"/>
<path d="M8.35833 0H0.441721C0.199202 0 0 0.194882 0 0.437405V8.35837C0 8.60088 0.19921 8.80009 0.441721 8.80009H6.59992V8.80875C6.59992 10.5021 5.75975 12.0697 4.35227 13.0094L0.489314 15.5861C-0.0173821 15.9239 -0.121319 16.5865 0.186168 17.1105C0.640875 17.8987 1.52436 17.5393 1.71057 17.4137L5.57353 14.8369C7.59596 13.4901 8.79988 11.2381 8.79988 8.8086V0.437443C8.79988 0.194924 8.605 3.77606e-05 8.35816 3.77606e-05L8.35833 0Z" fill="white"/>
</g>
</svg>
