<svg width="22" height="18" viewBox="0 0 22 18" fill="none" xmlns="http://www.w3.org/2000/svg">
<g opacity="0.2">
<path d="M0.441664 17.623H8.35827C8.60079 17.623 8.79999 17.4282 8.79999 17.1813V9.26036C8.79999 9.01785 8.60511 8.81864 8.35827 8.81864H2.20007V8.80998C2.20007 7.11667 3.04024 5.54898 4.44772 4.60936L8.31067 2.0326C8.81737 1.69481 8.94296 1.01921 8.61382 0.508198C8.08982 -0.314625 7.27563 0.079464 7.08942 0.205051L3.22646 2.78181C1.20835 4.13298 0.000106812 6.38494 0.000106812 8.81449V17.1856C0.000106812 17.4282 0.194989 17.623 0.441828 17.623L0.441664 17.623Z" fill="white"/>
<path d="M13.6417 17.623H21.5583C21.8008 17.623 22 17.4282 22 17.1856V9.26468C22 9.02216 21.8008 8.82296 21.5583 8.82296H15.4001V8.8143C15.4001 7.12098 16.2402 5.5533 17.6477 4.61368L21.5107 2.03692C22.0174 1.69913 22.1213 1.03651 21.8138 0.512516C21.3591 -0.275661 20.4756 0.0837822 20.2894 0.20937L16.4265 2.78613C14.404 4.13299 13.2001 6.38495 13.2001 8.81445V17.1856C13.2001 17.4281 13.395 17.623 13.6418 17.623L13.6417 17.623Z" fill="white"/>
</g>
</svg>
