<svg width="19" height="12" viewBox="0 0 19 12" fill="none" xmlns="http://www.w3.org/2000/svg">
<path d="M18.4332 5.68333C18.3935 5.58103 18.334 5.48758 18.2582 5.40833L14.0915 1.24166C14.0138 1.16396 13.9216 1.10233 13.82 1.06028C13.7185 1.01823 13.6097 0.996582 13.4998 0.996582C13.2779 0.996582 13.0651 1.08474 12.9082 1.24166C12.8305 1.31936 12.7688 1.4116 12.7268 1.51312C12.6847 1.61464 12.6631 1.72344 12.6631 1.83333C12.6631 2.05524 12.7513 2.26807 12.9082 2.42499L15.6582 5.16666H0.999837C0.778823 5.16666 0.566862 5.25446 0.410582 5.41074C0.254301 5.56702 0.166504 5.77898 0.166504 5.99999C0.166504 6.22101 0.254301 6.43297 0.410582 6.58925C0.566862 6.74553 0.778823 6.83333 0.999837 6.83333H15.6582L12.9082 9.57499C12.8301 9.65246 12.7681 9.74463 12.7258 9.84618C12.6835 9.94773 12.6617 10.0566 12.6617 10.1667C12.6617 10.2767 12.6835 10.3856 12.7258 10.4871C12.7681 10.5887 12.8301 10.6809 12.9082 10.7583C12.9856 10.8364 13.0778 10.8984 13.1794 10.9407C13.2809 10.983 13.3898 11.0048 13.4998 11.0048C13.6098 11.0048 13.7188 10.983 13.8203 10.9407C13.9219 10.8984 14.014 10.8364 14.0915 10.7583L18.2582 6.59166C18.334 6.51241 18.3935 6.41895 18.4332 6.31666C18.5165 6.11377 18.5165 5.88621 18.4332 5.68333Z" fill="white"/>
</svg>
