<svg width="19" height="12" viewBox="0 0 19 12" fill="none" xmlns="http://www.w3.org/2000/svg">
<path d="M18.4327 5.68333C18.393 5.58103 18.3335 5.48758 18.2577 5.40833L14.091 1.24166C14.0133 1.16396 13.9211 1.10233 13.8196 1.06028C13.718 1.01823 13.6092 0.996582 13.4993 0.996582C13.2774 0.996582 13.0646 1.08474 12.9077 1.24166C12.83 1.31936 12.7683 1.4116 12.7263 1.51312C12.6842 1.61464 12.6626 1.72344 12.6626 1.83333C12.6626 2.05524 12.7508 2.26807 12.9077 2.42499L15.6577 5.16666H0.999349C0.778335 5.16666 0.566374 5.25446 0.410093 5.41074C0.253813 5.56702 0.166016 5.77898 0.166016 5.99999C0.166016 6.22101 0.253813 6.43297 0.410093 6.58925C0.566374 6.74553 0.778335 6.83333 0.999349 6.83333H15.6577L12.9077 9.57499C12.8296 9.65246 12.7676 9.74463 12.7253 9.84618C12.683 9.94773 12.6612 10.0566 12.6612 10.1667C12.6612 10.2767 12.683 10.3856 12.7253 10.4871C12.7676 10.5887 12.8296 10.6809 12.9077 10.7583C12.9852 10.8364 13.0773 10.8984 13.1789 10.9407C13.2804 10.983 13.3893 11.0048 13.4993 11.0048C13.6094 11.0048 13.7183 10.983 13.8198 10.9407C13.9214 10.8984 14.0135 10.8364 14.091 10.7583L18.2577 6.59166C18.3335 6.51241 18.393 6.41895 18.4327 6.31666C18.516 6.11377 18.516 5.88621 18.4327 5.68333Z" fill="white"/>
</svg>
