<svg width="19" height="11" viewBox="0 0 19 11" fill="none" xmlns="http://www.w3.org/2000/svg">
<path d="M13.3915 10.5756C13.5225 10.5684 13.6469 10.5154 13.7433 10.4261L16.592 7.88505C16.719 7.79084 16.8006 7.64737 16.8165 7.48997C16.8326 7.33257 16.7816 7.17575 16.676 7.05779C16.5706 6.93984 16.4203 6.87174 16.2621 6.87016C16.1039 6.86879 15.9524 6.93395 15.8446 7.04974L12.987 9.58192C12.8075 9.73285 12.7401 9.97936 12.8184 10.2005C12.8968 10.4217 13.1042 10.5713 13.3387 10.5756C13.3562 10.5764 13.3738 10.5764 13.3915 10.5756L13.3915 10.5756ZM18.4822 6.0649C18.7077 6.04685 18.9007 5.89533 18.9715 5.68042C19.0426 5.46551 18.978 5.22901 18.8075 5.08026L13.7429 0.578328C13.5097 0.369505 13.1515 0.38913 12.9427 0.622291C12.7339 0.855452 12.7535 1.21366 12.9867 1.42247L16.9434 4.93953L1.54718 4.93953C1.39665 4.93737 1.25141 4.99566 1.14406 5.10145C1.0369 5.20724 0.97645 5.35149 0.97645 5.50222C0.97645 5.65296 1.0369 5.79721 1.14406 5.903C1.25141 6.00879 1.39665 6.06707 1.54718 6.06492L18.4291 6.06492C18.4467 6.0657 18.4642 6.0657 18.4819 6.06492L18.4822 6.0649Z" fill="#616161"/>
</svg>
