<svg width="369" height="355" viewBox="0 0 369 355" fill="none" xmlns="http://www.w3.org/2000/svg">
<g clip-path="url(#clip0_1806_595)">
<path d="M288.124 41.7817H252.037V43.3491H288.124V41.7817Z" fill="#CDCDCD"/>
<path d="M163.659 222.283H124.283V224.489H163.659V222.283Z" fill="#60A4C2"/>
<path d="M141.909 211.249H83.0676L68.3438 198.033L69.8123 196.392L83.91 209.043H141.909V211.249Z" fill="#9900A6"/>
<path d="M71.8383 85.6552L70.4785 87.3906L148.386 148.61L149.746 146.875L71.8383 85.6552Z" fill="#EEBD3A"/>
<path d="M84.7607 105.714L84.084 106.584L151.022 158.788L151.699 157.918L84.7607 105.714Z" fill="#CACACA"/>
<path d="M220.974 141.464L220.162 140.717L229.286 130.856V110.975H230.388V131.285L220.974 141.464Z" fill="#C84B2A"/>
<path d="M222.387 148.364L220.768 146.87L233.694 132.845V70.9545H228.412V68.7485H235.897V133.708L222.387 148.364Z" fill="#CDCDCD"/>
<path d="M270.571 168.574H233.947V170.78H270.571V168.574Z" fill="#CDCDCD"/>
<path d="M299.755 175.191H239.453V177.397H299.755V175.191Z" fill="#CDCDCD"/>
<path d="M273.805 174.081C271.227 174.081 269.133 171.979 269.133 169.402C269.133 166.824 271.227 164.723 273.805 164.723C276.383 164.723 278.477 166.82 278.477 169.402C278.477 171.983 276.383 174.081 273.805 174.081ZM273.805 166.774C272.36 166.774 271.181 167.954 271.181 169.402C271.181 170.849 272.36 172.029 273.805 172.029C275.25 172.029 276.429 170.849 276.429 169.402C276.429 167.954 275.25 166.774 273.805 166.774Z" fill="#CDCDCD"/>
<path d="M364.328 175.737C361.751 175.737 359.656 173.64 359.656 171.058C359.656 168.477 361.751 166.379 364.328 166.379C366.906 166.379 369.001 168.481 369.001 171.058C369.001 173.636 366.906 175.737 364.328 175.737ZM364.328 168.431C362.883 168.431 361.704 169.611 361.704 171.058C361.704 172.506 362.883 173.686 364.328 173.686C365.774 173.686 366.952 172.506 366.952 171.058C366.952 169.611 365.774 168.431 364.328 168.431Z" fill="#CDCDCD"/>
<path d="M93.7503 302.053C91.1727 302.053 89.0781 299.956 89.0781 297.374C89.0781 294.793 91.1727 292.695 93.7503 292.695C96.328 292.695 98.4225 294.793 98.4225 297.374C98.4225 299.956 96.328 302.053 93.7503 302.053ZM93.7503 294.746C92.305 294.746 91.1263 295.927 91.1263 297.374C91.1263 298.822 92.305 300.002 93.7503 300.002C95.1957 300.002 96.3743 298.822 96.3743 297.374C96.3743 295.927 95.1957 294.746 93.7503 294.746Z" fill="#CDCDCD"/>
<path d="M174.703 355C172.126 355 170.031 352.902 170.031 350.321C170.031 347.74 172.126 345.642 174.703 345.642C177.281 345.642 179.376 347.744 179.376 350.321C179.376 352.899 177.281 355 174.703 355ZM174.703 347.693C173.258 347.693 172.079 348.874 172.079 350.321C172.079 351.768 173.258 352.949 174.703 352.949C176.149 352.949 177.327 351.768 177.327 350.321C177.327 348.874 176.149 347.693 174.703 347.693Z" fill="#CDCDCD"/>
<path d="M247.368 21.6802C244.79 21.6802 242.695 19.5787 242.695 17.0012C242.695 14.4237 244.79 12.3223 247.368 12.3223C249.945 12.3223 252.04 14.4199 252.04 17.0012C252.04 19.5826 249.945 21.6802 247.368 21.6802ZM247.368 14.3734C245.922 14.3734 244.744 15.5538 244.744 17.0012C244.744 18.4486 245.922 19.629 247.368 19.629C248.813 19.629 249.992 18.4486 249.992 17.0012C249.992 15.5538 248.813 14.3734 247.368 14.3734Z" fill="#CDCDCD"/>
<path d="M68.9359 89.1474C66.3582 89.1474 64.2637 87.0498 64.2637 84.4685C64.2637 81.8871 66.3582 79.7896 68.9359 79.7896C71.5135 79.7896 73.6081 81.8871 73.6081 84.4685C73.6081 87.0498 71.5135 89.1474 68.9359 89.1474ZM68.9359 81.8407C67.4906 81.8407 66.3119 83.0211 66.3119 84.4685C66.3119 85.9159 67.4906 87.0963 68.9359 87.0963C70.3812 87.0963 71.5599 85.9159 71.5599 84.4685C71.5599 83.0211 70.3812 81.8407 68.9359 81.8407Z" fill="#EEBD3A"/>
<path d="M99.7777 177.734C97.2 177.734 95.1055 175.637 95.1055 173.055C95.1055 170.474 97.2 168.376 99.7777 168.376C102.355 168.376 104.45 170.474 104.45 173.055C104.45 175.637 102.355 177.734 99.7777 177.734ZM99.7777 170.428C98.3323 170.428 97.1537 171.608 97.1537 173.055C97.1537 174.503 98.3323 175.683 99.7777 175.683C101.223 175.683 102.402 174.503 102.402 173.055C102.402 171.608 101.223 170.428 99.7777 170.428Z" fill="#CDCDCD"/>
<path d="M137.983 261.77C135.405 261.77 133.311 259.672 133.311 257.091C133.311 254.509 135.405 252.412 137.983 252.412C140.56 252.412 142.655 254.509 142.655 257.091C142.655 259.672 140.56 261.77 137.983 261.77ZM137.983 254.463C136.537 254.463 135.359 255.643 135.359 257.091C135.359 258.538 136.537 259.718 137.983 259.718C139.428 259.718 140.607 258.538 140.607 257.091C140.607 255.643 139.428 254.463 137.983 254.463Z" fill="#CDCDCD"/>
<path d="M260.035 259.014C257.458 259.014 255.363 256.917 255.363 254.335C255.363 251.754 257.458 249.656 260.035 249.656C262.613 249.656 264.708 251.754 264.708 254.335C264.708 256.917 262.613 259.014 260.035 259.014ZM260.035 251.707C258.59 251.707 257.411 252.888 257.411 254.335C257.411 255.783 258.59 256.963 260.035 256.963C261.481 256.963 262.66 255.783 262.66 254.335C262.66 252.888 261.481 251.707 260.035 251.707Z" fill="#CDCDCD"/>
<path d="M137.983 19.6562C135.405 19.6562 133.311 17.5586 133.311 14.9773C133.311 12.3959 135.405 10.2983 137.983 10.2983C140.56 10.2983 142.655 12.3998 142.655 14.9773C142.655 17.5548 140.56 19.6562 137.983 19.6562ZM137.983 12.3495C136.537 12.3495 135.359 13.5299 135.359 14.9773C135.359 16.4247 136.537 17.6051 137.983 17.6051C139.428 17.6051 140.607 16.4247 140.607 14.9773C140.607 13.5299 139.428 12.3495 137.983 12.3495Z" fill="#CDCDCD"/>
<path d="M293.448 199.55H238.742V200.653H293.448V199.55Z" fill="#60A4C2"/>
<path d="M286.469 194.217H240.76V196.423H286.469V194.217Z" fill="#EEBD3A"/>
<path d="M163.849 169.677H127.225V170.78H163.849V169.677Z" fill="#CDCDCD"/>
<path d="M162.747 180.157H126.123V181.26H162.747V180.157Z" fill="#CDCDCD"/>
<path d="M153.101 187.599H109.131V188.702H153.101V187.599Z" fill="#CDCDCD"/>
<path d="M37.4095 123.201L23.6016 109.938V100.832H25.6498V109.063L38.8278 121.718L37.4095 123.201Z" fill="#CDCDCD"/>
<path d="M229.615 147.629L228 146.131L263.801 107.449H302.809V109.655H264.763L229.615 147.629Z" fill="#CDCDCD"/>
<path d="M216.399 173.736L214.783 172.235L250.584 133.553H265.725V135.759H251.546L216.399 173.736Z" fill="#CDCDCD"/>
<path d="M229.942 152.404L229.135 151.653L264.773 113.146H303.542V114.249H265.256L229.942 152.404Z" fill="#CDCDCD"/>
<path d="M141.819 176.004H118.227V178.056H141.819V176.004Z" fill="#CDCDCD"/>
<path d="M137.778 192.824H97.3008V194.875H137.778V192.824Z" fill="#CDCDCD"/>
<path d="M138.802 17.7368H136.754V53.5855H138.802V17.7368Z" fill="#CDCDCD"/>
<path d="M347.324 290.656H315.705L274.965 264.018L276.086 262.3L316.315 288.605H347.324V290.656Z" fill="#A9C732"/>
<path d="M143.068 59.1001H141.02V32.4003L156.725 15.9253L158.205 17.3417L143.068 33.2207V59.1001Z" fill="#CDCDCD"/>
<path d="M67.2848 242.384H40.2988V243.487H67.2848V242.384Z" fill="#CDCDCD"/>
<path d="M203.889 319.418L202.297 317.894L214.459 305.146H240.262V307.351H215.401L203.889 319.418Z" fill="#CDCDCD"/>
<path d="M241.363 299.63H221.812V300.733H241.363V299.63Z" fill="#CACACA"/>
<path d="M145.556 288.113H143.354V227.175H159.322V229.377H145.556V288.113Z" fill="#CDCDCD"/>
<path d="M138.945 260.539H136.742V290.872H138.945V260.539Z" fill="#CDCDCD"/>
<path d="M146.199 308.958H143.996V341.613H146.199V308.958Z" fill="#CDCDCD"/>
<path d="M217.652 208.327L217.051 209.251L260.618 237.661L261.219 236.736L217.652 208.327Z" fill="#CDCDCD"/>
<path d="M204.154 235.766H203.053V278.233H204.154V235.766Z" fill="#CACACA"/>
<path d="M199.568 235.584H197.365V262.056H199.568V235.584Z" fill="#CDCDCD"/>
<path d="M151.845 144.695L78.5508 86.9417V46.0464H79.6522V86.4076L152.529 143.828L151.845 144.695Z" fill="#EEBD3A"/>
<path d="M172.47 104.322H170.268V144.583H172.47V104.322Z" fill="#CDCDCD"/>
<path d="M96.5249 140.98H72.5764L33.3477 107.74L34.7698 106.052L73.3841 138.774H96.5249V140.98Z" fill="#CDCDCD"/>
<path d="M319.881 128.847H305.254L266.025 95.6068L267.448 93.9233L306.062 126.641H319.881V128.847Z" fill="#CDCDCD"/>
<path d="M331.128 124.435H307.385L307.23 124.304L268.311 91.3227L269.022 90.4829L307.787 123.332H331.128V124.435Z" fill="#CDCDCD"/>
<path d="M270.868 87.1917L270.156 88.0337L309.075 121.017L309.787 120.175L270.868 87.1917Z" fill="#CDCDCD"/>
<path d="M338.238 283.09H317.93V285.141H338.238V283.09Z" fill="#CDCDCD"/>
<path d="M198.131 28.0581H195.928V133.12H198.131V28.0581Z" fill="#CDCDCD"/>
<path d="M162.375 117.558H161.273V148.995H162.375V117.558Z" fill="#CACACA"/>
<path d="M166.337 124.455H164.289V148.995H166.337V124.455Z" fill="#CDCDCD"/>
<path d="M272.966 46.0928H251.773V46.8745H272.966V46.0928Z" fill="#CDCDCD"/>
<path d="M49.2961 182.452H19.5586V183.555H49.2961V182.452Z" fill="#CDCDCD"/>
<path d="M78.3 146.56C78.3387 148.054 77.1638 149.3 75.6721 149.339C74.1804 149.378 72.9361 148.201 72.8974 146.703C72.8588 145.21 74.0336 143.963 75.5253 143.925C77.017 143.886 78.2614 145.063 78.3 146.556V146.56Z" fill="#CDCDCD"/>
<path d="M56.1092 130.493L55.4258 131.358L73.8736 145.975L74.557 145.11L56.1092 130.493Z" fill="#CDCDCD"/>
<path d="M53.163 133.64L51.7734 135.352L96.333 171.629L97.7225 169.918L53.163 133.64Z" fill="#CDCDCD"/>
<path d="M29.13 100.831C29.13 103.153 27.2518 105.034 24.9293 105.034C22.6067 105.034 20.7285 103.153 20.7285 100.831C20.7285 98.5093 22.6067 96.6284 24.9293 96.6284C27.2518 96.6284 29.13 98.5093 29.13 100.831Z" fill="#828282"/>
<path d="M128.051 223.699C128.051 226.087 126.119 228.022 123.739 228.022C121.358 228.022 119.426 226.087 119.426 223.699C119.426 221.312 121.358 219.38 123.739 219.38C126.119 219.38 128.051 221.315 128.051 223.699Z" fill="#60A4C2"/>
<path d="M226.523 69.5266C226.523 71.6784 224.78 73.4238 222.632 73.4238C220.483 73.4238 218.74 71.6784 218.74 69.5266C218.74 67.3748 220.483 65.6294 222.632 65.6294C224.78 65.6294 226.523 67.3748 226.523 69.5266Z" fill="#BDC2C5"/>
<path d="M222.631 75.3161C219.443 75.3161 216.85 72.7193 216.85 69.5265C216.85 66.3336 219.443 63.7368 222.631 63.7368C225.819 63.7368 228.412 66.3336 228.412 69.5265C228.412 72.7193 225.819 75.3161 222.631 75.3161ZM222.631 64.6076C219.922 64.6076 217.719 66.8135 217.719 69.5226C217.719 72.2317 219.922 74.4415 222.631 74.4415C225.34 74.4415 227.543 72.2355 227.543 69.5226C227.543 66.8097 225.34 64.6076 222.631 64.6076Z" fill="#BDC2C5"/>
<path d="M226.412 276.112C226.412 278.264 224.669 280.009 222.52 280.009C220.372 280.009 218.629 278.264 218.629 276.112C218.629 273.96 220.372 272.215 222.52 272.215C224.669 272.215 226.412 273.96 226.412 276.112Z" fill="#BDC2C5"/>
<path d="M222.52 281.902C219.331 281.902 216.738 279.305 216.738 276.112C216.738 272.919 219.331 270.322 222.52 270.322C225.708 270.322 228.301 272.919 228.301 276.112C228.301 279.305 225.708 281.902 222.52 281.902ZM222.52 271.193C219.811 271.193 217.608 273.399 217.608 276.112C217.608 278.825 219.811 281.027 222.52 281.027C225.229 281.027 227.431 278.821 227.431 276.112C227.431 273.403 225.229 271.193 222.52 271.193Z" fill="#BDC2C5"/>
<path d="M68.9746 193.118C68.9746 195.27 67.2317 197.015 65.083 197.015C62.9343 197.015 61.1914 195.27 61.1914 193.118C61.1914 190.966 62.9343 189.221 65.083 189.221C67.2317 189.221 68.9746 190.966 68.9746 193.118Z" fill="#9900A6"/>
<path d="M65.0821 198.907C61.8939 198.907 59.3008 196.311 59.3008 193.118C59.3008 189.925 61.8939 187.324 65.0821 187.324C68.2703 187.324 70.8634 189.921 70.8634 193.118C70.8634 196.314 68.2703 198.907 65.0821 198.907ZM65.0821 188.199C62.3731 188.199 60.1703 190.405 60.1703 193.118C60.1703 195.831 62.3731 198.037 65.0821 198.037C67.7911 198.037 69.9939 195.831 69.9939 193.118C69.9939 190.405 67.7911 188.199 65.0821 188.199Z" fill="#9900A6"/>
<path d="M155.249 141.986L82.6809 85.1267L82.6113 36.8588L87.5695 36.8511L87.6352 82.704L158.302 138.077L155.249 141.986Z" fill="#979797"/>
<path d="M207.993 133.828H203.035V103.034C203.035 94.6703 209.829 87.8667 218.18 87.8667H223.506V92.8282H218.18C212.561 92.8282 207.993 97.4065 207.993 103.03V133.824V133.828Z" fill="#979797"/>
<path d="M258.108 158.093H236.629V163.055H258.108V158.093Z" fill="#979797"/>
<path d="M269.399 163.059H255.908V158.097H269.399C275.018 158.097 279.586 153.519 279.586 147.896V130.983H284.544V147.896C284.544 156.259 277.75 163.063 269.399 163.063V163.059Z" fill="#979797"/>
<path d="M192.622 97.5415H187.664V129.969H192.622V97.5415Z" fill="#979797"/>
<path d="M192.622 99.7477H187.664V69.1391C187.664 63.512 183.092 58.9375 177.477 58.9375H172.469V53.9761H177.477C185.828 53.9761 192.622 60.7797 192.622 69.143V99.7516V99.7477Z" fill="#979797"/>
<path d="M146.45 213.614H130.988V218.575H146.45V213.614Z" fill="#979797"/>
<path d="M106.208 234.296H101.25V228.781C101.25 220.417 108.044 213.614 116.395 213.614H133.19V218.575H116.395C110.776 218.575 106.208 223.154 106.208 228.777V234.292V234.296Z" fill="#979797"/>
<path d="M91.0642 254.977H89.0469V250.016H91.0642C96.6832 250.016 101.251 245.438 101.251 239.814V228.142H106.209V239.814C106.209 248.178 99.4154 254.981 91.0642 254.981V254.977Z" fill="#979797"/>
<path d="M154.202 273.039H149.244C149.244 264.676 156.038 257.873 164.389 257.873H171.971V262.834H164.389C158.77 262.834 154.202 267.412 154.202 273.036V273.039Z" fill="#979797"/>
<path d="M174.198 262.834H166.82V257.872H174.198C179.817 257.872 184.385 253.294 184.385 247.671V235.217H189.343V247.671C189.343 256.034 182.549 262.838 174.198 262.838V262.834Z" fill="#979797"/>
<path d="M224.893 96.5935C228.442 96.5396 231.275 93.6147 231.221 90.0606C231.167 86.5065 228.246 83.6691 224.697 83.7231C221.148 83.777 218.315 86.7019 218.369 90.256C218.423 93.8101 221.344 96.6475 224.893 96.5935Z" fill="#979797"/>
<path d="M258.91 207.147L268.127 207.213L261.194 216.091L258.91 207.147Z" fill="#979797"/>
<path d="M309.838 256.851L300.621 256.862L307.481 247.93L309.838 256.851Z" fill="#505050"/>
<path d="M304.381 255.481L297.757 251.08L300.497 246.943L307.121 251.344L304.381 255.481ZM290.874 246.506L283.992 241.932L286.732 237.794L293.614 242.369L290.874 246.506ZM277.109 237.357L270.226 232.783L272.966 228.645L279.849 233.22L277.109 237.357ZM263.343 228.208L256.461 223.634L259.201 219.497L266.083 224.071L263.343 228.208ZM249.578 219.059L242.695 214.485L245.435 210.348L252.318 214.922L249.578 219.059Z" fill="#505050"/>
<path d="M263.42 207.938L260.693 212.085L319.523 250.873L322.249 246.726L263.42 207.938Z" fill="#979797"/>
<path d="M132.201 206.814H123.939V201.853H132.201V206.814ZM115.681 206.814H107.418V201.853H115.681V206.814ZM99.1598 206.814H94.5572C93.0925 206.814 91.6395 206.605 90.2444 206.191L91.6549 201.431C92.594 201.709 93.5678 201.849 94.5572 201.849H99.1598V206.81V206.814ZM82.3221 200.587C80.4169 197.979 79.4121 194.886 79.4121 191.647V191.372H84.3703V191.647C84.3703 193.826 85.0466 195.904 86.3257 197.657L82.326 200.587H82.3221ZM84.3703 183.098H79.4121V174.828H84.3703V183.098Z" fill="#505050"/>
<path d="M17.5294 162.501H15.1412C6.78992 162.501 -0.00390625 155.697 -0.00390625 147.334V140.716H4.95814V147.334C4.95814 152.961 9.52987 157.536 15.145 157.536H17.5333V162.497L17.5294 162.501Z" fill="#505050"/>
<path d="M17.5294 162.501H15.1412C6.78992 162.501 -0.00390625 155.697 -0.00390625 147.334V140.716H4.95814V147.334C4.95814 152.961 9.52987 157.536 15.145 157.536H17.5333V162.497L17.5294 162.501Z" fill="#505050"/>
<path d="M4.95818 141.228H0V138.836C0 130.473 6.79383 123.669 15.1451 123.669H16.7991V128.63H15.1451C9.52605 128.63 4.95818 133.209 4.95818 138.832V141.224V141.228Z" fill="#505050"/>
<path d="M4.95818 141.228H0V138.836C0 130.473 6.79383 123.669 15.1451 123.669H16.7991V128.63H15.1451C9.52605 128.63 4.95818 133.209 4.95818 138.832V141.224V141.228Z" fill="#505050"/>
<path d="M24.9136 126.076L15.4688 133.363V118.785L24.9136 126.076Z" fill="#505050"/>
<path d="M84.3588 175.098H79.4007V172.707C79.4007 167.079 74.8289 162.505 69.2138 162.505H16.8418V157.543H69.2138C77.565 157.543 84.3588 164.347 84.3588 172.71V175.102V175.098Z" fill="#505050"/>
<path d="M290.6 181.81H241.033V186.771H290.6V181.81Z" fill="#979797"/>
<path d="M275.888 267.73C273.57 267.73 271.688 265.849 271.688 263.523C271.688 261.197 273.566 259.32 275.888 259.32C278.211 259.32 280.089 261.201 280.089 263.523C280.089 265.845 278.211 267.73 275.888 267.73Z" fill="#A9C732"/>
<path d="M115.56 180.776C113.241 180.776 111.359 178.891 111.359 176.569C111.359 174.247 113.238 172.362 115.56 172.362C117.883 172.362 119.761 174.243 119.761 176.569C119.761 178.895 117.879 180.776 115.56 180.776Z" fill="#CDCDCD"/>
<path d="M223.544 270.322H221.496V236.827L203.924 225.271L205.048 223.556L223.544 235.716V270.322Z" fill="#CDCDCD"/>
<path d="M213.04 221.362L211.908 223.072L256.789 252.855L257.921 251.145L213.04 221.362Z" fill="#CDCDCD"/>
<path d="M290.327 325.192C287.749 325.192 285.654 323.095 285.654 320.513C285.654 317.932 287.749 315.834 290.327 315.834C292.904 315.834 294.999 317.932 294.999 320.513C294.999 323.095 292.904 325.192 290.327 325.192ZM290.327 317.886C288.881 317.886 287.702 319.066 287.702 320.513C287.702 321.961 288.881 323.141 290.327 323.141C291.772 323.141 292.951 321.961 292.951 320.513C292.951 319.066 291.772 317.886 290.327 317.886Z" fill="#CDCDCD"/>
<path d="M276.93 309.599L275.775 311.293L287.066 319.015L288.221 317.321L276.93 309.599Z" fill="#CDCDCD"/>
<path d="M164.799 12.7712C164.799 14.923 163.056 16.6684 160.907 16.6684C158.759 16.6684 157.016 14.923 157.016 12.7712C157.016 10.6194 158.759 8.87402 160.907 8.87402C163.056 8.87402 164.799 10.6194 164.799 12.7712Z" fill="#A9C732"/>
<path d="M160.906 18.5646C157.718 18.5646 155.125 15.9678 155.125 12.7711C155.125 9.57441 157.718 6.98145 160.906 6.98145C164.095 6.98145 166.688 9.57828 166.688 12.7711C166.688 15.9639 164.095 18.5646 160.906 18.5646ZM160.906 7.85609C158.197 7.85609 155.995 10.062 155.995 12.7711C155.995 15.4802 158.197 17.69 160.906 17.69C163.615 17.69 165.814 15.484 165.814 12.7711C165.814 10.0582 163.611 7.85609 160.906 7.85609Z" fill="#A9C732"/>
<path d="M202.98 322.905C202.98 325.057 201.238 326.803 199.089 326.803C196.94 326.803 195.197 325.057 195.197 322.905C195.197 320.754 196.94 319.008 199.089 319.008C201.238 319.008 202.98 320.754 202.98 322.905Z" fill="#BDC2C5"/>
<path d="M199.088 328.695C195.9 328.695 193.307 326.098 193.307 322.905C193.307 319.713 195.9 317.116 199.088 317.116C202.276 317.116 204.869 319.713 204.869 322.905C204.869 326.098 202.276 328.695 199.088 328.695ZM199.088 317.986C196.379 317.986 194.176 320.192 194.176 322.905C194.176 325.618 196.379 327.824 199.088 327.824C201.797 327.824 203.996 325.618 203.996 322.905C203.996 320.192 201.793 317.986 199.088 317.986Z" fill="#BDC2C5"/>
<path d="M171.863 348.742L159.133 336.559V322.457H161.336V335.615L173.385 347.148L171.863 348.742Z" fill="#CDCDCD"/>
<path d="M232.45 109.214C232.489 110.708 231.314 111.954 229.823 111.993C228.331 112.032 227.086 110.855 227.048 109.357C227.009 107.863 228.184 106.617 229.676 106.579C231.167 106.54 232.412 107.716 232.45 109.21V109.214Z" fill="#C84B2A"/>
<path d="M298.534 200.03C298.573 201.523 297.398 202.77 295.903 202.808C294.411 202.847 293.167 201.67 293.128 200.173C293.089 198.679 294.264 197.433 295.756 197.394C297.247 197.355 298.492 198.532 298.53 200.03H298.534Z" fill="#60A4C2"/>
<path d="M164.528 115.739C164.567 117.233 163.392 118.479 161.897 118.518C160.405 118.556 159.161 117.38 159.122 115.886C159.083 114.392 160.258 113.146 161.75 113.107C163.242 113.069 164.486 114.245 164.525 115.739H164.528Z" fill="#60A4C2"/>
<path d="M334.15 123.735C334.188 125.228 333.013 126.475 331.522 126.513C330.03 126.552 328.786 125.376 328.747 123.882C328.708 122.388 329.883 121.142 331.375 121.103C332.867 121.064 334.111 122.241 334.15 123.739V123.735Z" fill="#828282"/>
<path d="M85.8429 104.802C85.8816 106.296 84.7068 107.542 83.2112 107.581C81.7195 107.619 80.4751 106.443 80.4365 104.949C80.3978 103.455 81.5726 102.209 83.0643 102.17C84.5561 102.132 85.8004 103.308 85.8391 104.806L85.8429 104.802Z" fill="#828282"/>
<path d="M109.958 188.149C109.997 189.643 108.822 190.889 107.326 190.927C105.835 190.966 104.59 189.79 104.552 188.296C104.513 186.802 105.688 185.556 107.18 185.517C108.671 185.478 109.916 186.655 109.954 188.149H109.958Z" fill="#828282"/>
<path d="M206.747 276.271C206.786 277.765 205.611 279.011 204.115 279.049C202.624 279.088 201.379 277.912 201.341 276.418C201.302 274.924 202.477 273.678 203.969 273.639C205.46 273.6 206.705 274.777 206.743 276.275L206.747 276.271Z" fill="#828282"/>
<path d="M150.922 294.092H149.82V336.559H150.922V294.092Z" fill="#CACACA"/>
<path d="M153.515 334.597C153.553 336.091 152.379 337.337 150.887 337.376C149.395 337.414 148.151 336.238 148.112 334.744C148.074 333.25 149.248 332.004 150.744 331.965C152.236 331.927 153.48 333.103 153.519 334.597H153.515Z" fill="#828282"/>
<path d="M224.792 300.107C224.831 301.601 223.656 302.847 222.164 302.885C220.673 302.924 219.428 301.748 219.39 300.25C219.351 298.756 220.526 297.51 222.017 297.471C223.509 297.432 224.754 298.609 224.792 300.103V300.107Z" fill="#828282"/>
<path d="M262.9 240.689C261.451 241.053 259.982 240.174 259.619 238.723C259.256 237.272 260.133 235.801 261.582 235.437C263.032 235.073 264.5 235.952 264.863 237.403C265.227 238.854 264.349 240.325 262.9 240.689Z" fill="#CDCDCD"/>
<path d="M43.5541 242.678C43.5966 244.172 42.4179 245.418 40.9262 245.457C39.4345 245.496 38.1902 244.319 38.1515 242.822C38.109 241.328 39.2877 240.082 40.7794 240.043C42.2711 240.004 43.5155 241.181 43.5541 242.678Z" fill="#636363"/>
<path d="M69.0292 270.025L67.5605 271.455L91.0418 295.644L92.5104 294.214L69.0292 270.025Z" fill="#CDCDCD"/>
<path d="M100.971 139.687C100.971 142.075 99.0391 144.006 96.6585 144.006C94.278 144.006 92.3457 142.071 92.3457 139.687C92.3457 137.303 94.278 135.364 96.6585 135.364C99.0391 135.364 100.971 137.299 100.971 139.687Z" fill="#BDC2C5"/>
<path d="M148.17 348.757C149.855 347.07 149.855 344.336 148.17 342.649C146.486 340.962 143.755 340.962 142.071 342.649C140.387 344.336 140.387 347.07 142.071 348.757C143.755 350.444 146.486 350.444 148.17 348.757Z" fill="#BDC2C5"/>
<path d="M122.634 286.782H94.1868L94.0245 286.623L73.1406 266.263L73.9097 265.473L94.6351 285.675H122.634V286.782Z" fill="#CACACA"/>
<path d="M125.241 286.062C125.28 287.556 124.105 288.802 122.61 288.841C121.118 288.879 119.874 287.703 119.835 286.209C119.796 284.715 120.971 283.469 122.463 283.43C123.954 283.391 125.199 284.568 125.238 286.066L125.241 286.062Z" fill="#828282"/>
<path d="M46.4091 183.261C46.3705 181.767 47.5453 180.521 49.0409 180.482C50.5326 180.443 51.777 181.62 51.8156 183.114C51.8542 184.607 50.6794 185.854 49.1877 185.892C47.696 185.931 46.4516 184.754 46.413 183.261H46.4091Z" fill="#CDCDCD"/>
<path d="M358.798 218.119H317.861V219.222H358.798V218.119Z" fill="#CDCDCD"/>
<path d="M355.911 218.924C355.872 217.43 357.047 216.184 358.543 216.145C360.035 216.106 361.279 217.283 361.318 218.777C361.356 220.27 360.181 221.517 358.69 221.555C357.198 221.594 355.954 220.418 355.915 218.92L355.911 218.924Z" fill="#CDCDCD"/>
<path d="M344.112 220.874H314.375V221.977H344.112V220.874Z" fill="#CDCDCD"/>
<path d="M243.7 15.5308H213.043V16.6337H243.7V15.5308Z" fill="#CDCDCD"/>
<path d="M215.927 15.8249C215.966 17.3188 214.791 18.565 213.299 18.6037C211.807 18.6424 210.563 17.4659 210.524 15.9681C210.486 14.4743 211.661 13.2281 213.152 13.1894C214.644 13.1507 215.888 14.3272 215.927 15.8249Z" fill="#9900A6"/>
<path d="M244.523 18.2861H224.238V19.3891H244.523V18.2861Z" fill="#CDCDCD"/>
<path d="M175.569 101.842C175.569 104.164 173.687 106.044 171.369 106.044C169.05 106.044 167.168 104.164 167.168 101.842C167.168 99.5195 169.046 97.6348 171.369 97.6348C173.691 97.6348 175.569 99.5156 175.569 101.842Z" fill="#CDCDCD"/>
<path d="M361.367 170.033H329.906V172.084H361.367V170.033Z" fill="#CDCDCD"/>
<path d="M73.1167 269.133L72.3379 269.913L87.392 284.989L88.1708 284.209L73.1167 269.133Z" fill="#CDCDCD"/>
<path d="M86.4155 112.159L85.7383 113.029L149.553 162.851L150.23 161.981L86.4155 112.159Z" fill="#CDCDCD"/>
<path d="M35.6762 112.597L34.9219 113.401L44.1012 122.042L44.8555 121.239L35.6762 112.597Z" fill="#CDCDCD"/>
<path d="M207.644 225.839H206.543V253.781H207.644V225.839Z" fill="#CDCDCD"/>
<path d="M240.262 295.126H228.146V296.229H240.262V295.126Z" fill="#CDCDCD"/>
<path d="M229.735 220.279L229.145 221.21L240.978 228.74L241.569 227.809L229.735 220.279Z" fill="#CDCDCD"/>
<path d="M354.322 174.182H326.42V175.285H354.322V174.182Z" fill="#CDCDCD"/>
<path d="M337.504 88.5981C334.927 88.5981 332.832 86.5005 332.832 83.9192C332.832 81.3378 334.927 79.2402 337.504 79.2402C340.082 79.2402 342.176 81.3417 342.176 83.9192C342.176 86.4967 340.082 88.5981 337.504 88.5981ZM337.504 81.2914C336.059 81.2914 334.88 82.4718 334.88 83.9192C334.88 85.3666 336.059 86.547 337.504 86.547C338.95 86.547 340.128 85.3666 340.128 83.9192C340.128 82.4718 338.95 81.2914 337.504 81.2914Z" fill="#CDCDCD"/>
<path d="M334.543 82.8936H305.289V84.9447H334.543V82.8936Z" fill="#CDCDCD"/>
<path d="M327.5 87.0425H301.801V88.1455H327.5V87.0425Z" fill="#CDCDCD"/>
<path d="M72.6175 325.316C70.0399 325.316 67.9453 323.219 67.9453 320.637C67.9453 318.056 70.0399 315.958 72.6175 315.958C75.1952 315.958 77.2897 318.056 77.2897 320.637C77.2897 323.219 75.1952 325.316 72.6175 325.316ZM72.6175 318.01C71.1722 318.01 69.9935 319.19 69.9935 320.637C69.9935 322.085 71.1722 323.265 72.6175 323.265C74.0628 323.265 75.2415 322.085 75.2415 320.637C75.2415 319.19 74.0628 318.01 72.6175 318.01Z" fill="#CDCDCD"/>
<path d="M107.039 319.612H75.5781V321.663H107.039V319.612Z" fill="#CDCDCD"/>
<path d="M110.525 325.142H82.623V326.245H110.525V325.142Z" fill="#CDCDCD"/>
<path d="M133.926 27.6636H132.824V51.1938H133.926V27.6636Z" fill="#CDCDCD"/>
<path d="M147.138 34.8311H146.037V58.3612H147.138V34.8311Z" fill="#CDCDCD"/>
<path d="M130.068 35.5664H128.967V60.8459H130.068V35.5664Z" fill="#CDCDCD"/>
<path d="M351.823 198.493H346.88L340.682 194.26L341.304 193.35L347.22 197.39H351.823V198.493Z" fill="#CDCDCD"/>
<path d="M351.454 202.352H344.579L328.418 190.808L329.056 189.91L344.931 201.249H351.454V202.352Z" fill="#CDCDCD"/>
<path d="M275.639 135.001C275.639 137.152 273.896 138.898 271.747 138.898C269.598 138.898 267.855 137.152 267.855 135.001C267.855 132.849 269.598 131.104 271.747 131.104C273.896 131.104 275.639 132.849 275.639 135.001Z" fill="#60A4C2"/>
<path d="M271.746 140.79C268.558 140.79 265.961 138.193 265.961 135.001C265.961 131.808 268.554 129.211 271.746 129.211C274.938 129.211 277.527 131.808 277.527 135.001C277.527 138.193 274.934 140.79 271.746 140.79ZM271.746 130.082C269.037 130.082 266.834 132.288 266.834 135.001C266.834 137.714 269.037 139.919 271.746 139.919C274.455 139.919 276.654 137.714 276.654 135.001C276.654 132.288 274.451 130.082 271.746 130.082Z" fill="#60A4C2"/>
<path d="M297.295 42.552C297.295 44.7037 295.552 46.4492 293.403 46.4492C291.255 46.4492 289.512 44.7037 289.512 42.552C289.512 40.4002 291.255 38.6548 293.403 38.6548C295.552 38.6548 297.295 40.4002 297.295 42.552Z" fill="#BDC2C5"/>
<path d="M293.402 48.3454C290.214 48.3454 287.621 45.7486 287.621 42.5558C287.621 39.3629 290.214 36.7661 293.402 36.7661C296.591 36.7661 299.184 39.3629 299.184 42.5558C299.184 45.7486 296.591 48.3454 293.402 48.3454ZM293.402 37.6369C290.693 37.6369 288.491 39.8428 288.491 42.5519C288.491 45.261 290.693 47.4708 293.402 47.4708C296.111 47.4708 298.314 45.2648 298.314 42.5519C298.314 39.839 296.111 37.6369 293.402 37.6369Z" fill="#BDC2C5"/>
<path d="M243.952 27.8684H241.251V26.5371H240.664V27.8684H236.173V26.5371H235.59V27.8684H232.888C232.571 27.8684 232.316 28.1277 232.316 28.4412V35.6164C232.316 35.9337 232.571 36.1891 232.888 36.1891H243.952C244.269 36.1891 244.524 35.9337 244.524 35.6164V28.4412C244.524 28.1238 244.269 27.8684 243.952 27.8684ZM234.535 30.7168C234.535 30.1324 235.006 29.6603 235.59 29.6603C236.173 29.6603 236.645 30.1324 236.645 30.7168C236.645 31.3012 236.173 31.7733 235.59 31.7733C235.006 31.7733 234.535 31.3012 234.535 30.7168ZM241.97 34.7185H234.875V33.9522H241.97V34.7185ZM241.255 31.7733C240.672 31.7733 240.2 31.3012 240.2 30.7168C240.2 30.1324 240.672 29.6603 241.255 29.6603C241.839 29.6603 242.31 30.1324 242.31 30.7168C242.31 31.3012 241.839 31.7733 241.255 31.7733Z" fill="#999999"/>
<path d="M230.717 43.0859H228.521V36.9092H230.717V43.0859Z" fill="#999999"/>
<path d="M230.717 49.7152H228.521V43.5347H230.717V49.7152Z" fill="#999999"/>
<path d="M229.618 49.8545C228.273 49.8545 227.184 50.9459 227.184 52.2926C227.184 53.3724 227.887 54.2858 228.857 54.607V53.7749C228.32 53.4962 227.945 52.939 227.945 52.2926C227.945 51.3677 228.695 50.6169 229.618 50.6169C230.542 50.6169 231.292 51.3677 231.292 52.2926C231.292 52.9428 230.921 53.4962 230.38 53.7749V54.607C231.35 54.2858 232.053 53.3724 232.053 52.2926C232.053 50.9459 230.963 49.8545 229.618 49.8545Z" fill="#999999"/>
<path d="M248.388 43.0859H246.193V36.9092H248.388V43.0859Z" fill="#999999"/>
<path d="M248.388 49.7152H246.193V43.5347H248.388V49.7152Z" fill="#999999"/>
<path d="M247.29 49.8545C245.945 49.8545 244.855 50.9459 244.855 52.2926C244.855 53.3724 245.559 54.2858 246.529 54.607V53.7749C245.992 53.4962 245.617 52.939 245.617 52.2926C245.617 51.3677 246.367 50.6169 247.29 50.6169C248.214 50.6169 248.963 51.3677 248.963 52.2926C248.963 52.9428 248.592 53.4962 248.051 53.7749V54.607C249.021 54.2858 249.725 53.3724 249.725 52.2926C249.725 50.9459 248.635 49.8545 247.29 49.8545Z" fill="#999999"/>
<path d="M245.157 36.5762H231.689C231.372 36.5762 231.117 36.8355 231.117 37.1489V47.3389C231.117 47.6563 231.372 47.9117 231.689 47.9117H245.157C245.474 47.9117 245.729 47.6563 245.729 47.3389V37.1489C245.729 36.8316 245.474 36.5762 245.157 36.5762ZM243.001 44.5021C243.001 44.9743 242.618 45.3535 242.15 45.3535H239.48L241.289 43.5385C241.497 43.3295 241.497 42.9928 241.289 42.7838C241.08 42.5748 240.744 42.5748 240.535 42.7838L237.973 45.3497H234.696C234.224 45.3497 233.846 44.9665 233.846 44.4983V41.5105C233.846 41.0384 234.228 40.6591 234.696 40.6591H242.15C242.622 40.6591 243.001 41.0423 243.001 41.5105V44.4983V44.5021Z" fill="#999999"/>
<path d="M237.594 48.5347H233.973V54.185H237.594V48.5347Z" fill="#999999"/>
<path d="M237.594 54.7695H233.973V57.4515H237.594V54.7695Z" fill="#999999"/>
<path d="M238.174 59.0147C238.174 59.6765 237.71 60.2144 237.134 60.2144H233.034C232.462 60.2144 231.994 59.6765 231.994 59.0147C231.994 58.3529 232.458 57.8149 233.034 57.8149H237.134C237.706 57.8149 238.174 58.3529 238.174 59.0147Z" fill="#999999"/>
<path d="M242.939 48.5347H239.318V54.185H242.939V48.5347Z" fill="#999999"/>
<path d="M242.939 54.7695H239.318V57.4515H242.939V54.7695Z" fill="#999999"/>
<path d="M238.734 59.0147C238.734 59.6765 239.198 60.2144 239.774 60.2144H243.874C244.446 60.2144 244.914 59.6765 244.914 59.0147C244.914 58.3529 244.45 57.8149 243.874 57.8149H239.774C239.202 57.8149 238.734 58.3529 238.734 59.0147Z" fill="#999999"/>
<path d="M48.429 210.057C48.429 206.922 45.376 204.287 41.2409 203.524C41.4149 204.163 41.4999 204.817 41.4999 205.479C41.4999 206.884 41.1096 208.238 40.3444 209.508C39.6294 210.692 38.6169 211.744 37.3339 212.642C35.8268 213.695 34.0336 214.473 32.082 214.93C33.8172 216.098 36.1746 216.818 38.7754 216.818C39.1502 216.818 39.5174 216.803 39.8806 216.776L46.4619 219.829L43.4785 215.963C46.431 214.806 48.429 212.596 48.429 210.061V210.057Z" fill="#BDC2C5"/>
<path d="M40.229 205.479C40.229 200.699 34.6912 196.825 27.8626 196.825C21.034 196.825 15.4961 200.699 15.4961 205.479C15.4961 209.113 18.6959 212.224 23.2367 213.505L21.204 218.962L28.6702 214.113C35.124 213.823 40.229 210.069 40.229 205.479Z" fill="#BDC2C5"/>
<path d="M207.416 291.596C207.478 290.962 207.312 289.963 206.644 289.239C206.303 288.876 205.697 288.442 204.731 288.442H200.24C200.232 287.792 200.232 286.77 200.279 285.865C200.348 284.557 199.618 282.958 198.895 282.122C198.516 281.681 198.13 281.433 197.747 281.387C197.624 281.372 197.5 281.364 197.373 281.364C196.542 281.364 195.564 281.697 195.375 282.42C195.29 282.738 195.367 283.07 195.452 283.423C195.564 283.891 195.699 284.475 195.556 285.288C195.309 286.681 193.191 290.068 192.534 290.64C192.341 290.811 192.051 290.954 191.75 291.066C191.556 290.555 191.043 290.176 190.494 290.176H185.559C184.933 290.176 184.484 290.675 184.542 291.298L184.488 301.008C184.488 301.035 184.488 301.063 184.492 301.094C184.577 301.74 185.172 302.262 185.818 302.262H192.117C192.762 302.262 193.214 301.74 193.125 301.094L193.083 300.772C193.303 300.803 193.481 300.846 193.593 300.892C194.123 301.105 196.824 302.177 198.138 302.177H203.757C204.139 302.177 205.419 302.092 205.801 301.016C205.987 300.498 205.917 300.01 205.735 299.592C205.735 299.553 205.735 299.518 205.732 299.495C205.732 299.487 205.732 299.476 205.732 299.464C206.435 299.278 206.887 298.81 207.007 298.117C207.154 297.281 206.902 296.705 206.651 296.353C207.393 296.004 207.784 295.312 207.702 294.371C207.641 293.636 207.27 293.098 206.787 292.715C207.15 292.455 207.366 292.076 207.413 291.6L207.416 291.596Z" fill="#BDC2C5"/>
<path d="M125.777 153.898C125.568 153.898 125.367 153.91 125.166 153.929C125.178 153.77 125.182 153.612 125.182 153.453C125.182 149.641 122.098 146.553 118.291 146.553C114.701 146.553 111.752 149.304 111.432 152.815C112.657 153.77 113.453 155.257 113.472 156.925H113.522C115.903 156.925 117.843 158.782 117.843 161.062C117.843 162.478 117.093 163.732 115.953 164.479H125.808C128.857 164.464 131.326 162.099 131.326 159.185C131.326 156.271 128.841 153.89 125.777 153.89V153.898Z" fill="#636363"/>
<path d="M117.094 161.065C117.094 159.196 115.49 157.675 113.523 157.675C113.392 157.675 113.26 157.683 113.129 157.695L112.688 157.741L112.719 157.296C112.727 157.188 112.731 157.083 112.731 156.983C112.731 154.482 110.702 152.447 108.205 152.447C107.062 152.447 105.968 152.876 105.129 153.654C104.295 154.432 103.784 155.481 103.696 156.611L103.665 157.006L103.274 156.955C103.108 156.932 102.942 156.924 102.776 156.924C100.704 156.924 99.0156 158.612 99.0156 160.69C99.0156 162.768 100.693 164.444 102.756 164.456H113.55C115.509 164.444 117.102 162.927 117.102 161.065H117.094Z" fill="#636363"/>
<path d="M171.642 240.093H171.135V239.601C171.135 239.505 171.054 239.423 170.958 239.423H168.21C168.113 239.423 168.032 239.501 168.032 239.601V240.093H165.949L165.064 238.75C165.064 238.638 164.956 238.545 164.825 238.545H161.207C161.076 238.545 160.972 238.638 160.972 238.75L160.087 240.093H154.398C153.788 240.093 153.289 240.588 153.289 241.204V251.881C153.289 252.493 153.784 252.988 154.398 252.988H171.638C172.248 252.988 172.747 252.493 172.747 251.881V241.204C172.747 240.592 172.252 240.093 171.638 240.093H171.642ZM163.02 251.2C160.45 251.2 158.371 249.114 158.371 246.544C158.371 243.975 160.454 241.889 163.02 241.889C165.586 241.889 167.669 243.975 167.669 246.544C167.669 249.114 165.586 251.2 163.02 251.2Z" fill="#CDCDCD"/>
<path d="M163.019 243.437C161.307 243.437 159.92 244.826 159.92 246.54C159.92 248.255 161.307 249.644 163.019 249.644C164.731 249.644 166.119 248.255 166.119 246.54C166.119 244.826 164.731 243.437 163.019 243.437Z" fill="#CDCDCD"/>
<path d="M320.147 216.694C320.147 221.722 311.058 228.104 311.058 228.104C311.058 228.104 301.969 221.726 301.969 216.694C301.969 211.663 308.596 210.862 311.058 215.15C313.373 210.947 320.147 211.667 320.147 216.694Z" fill="#999999"/>
<path d="M128.104 324.48H127.127V338.432C126.269 338.2 125.137 338.277 124.008 338.711C121.991 339.489 120.731 341.11 121.202 342.333C121.674 343.56 123.691 343.92 125.708 343.146C127.401 342.496 128.549 341.253 128.607 340.147H128.615V329.364C129.905 329.922 131.389 331.876 131.424 334.04C131.459 336.203 130.875 337.12 130.547 337.383C130.091 337.747 130.585 337.999 130.879 337.774C131.428 337.364 132.692 336.412 132.692 333.095C132.692 329.779 130.694 328.389 129.275 326.845C128.019 325.479 128.104 324.473 128.104 324.473V324.48Z" fill="#636363"/>
<path d="M200.537 18.6345L200.835 16.2815C202.891 15.1205 204.607 13.8085 206.137 11.9509C210.79 6.316 210.318 1.69123 210.318 1.69123L211.683 0L209.843 1.13781C209.843 1.13781 205.352 -0.0348306 199.08 3.71529C197.017 4.94598 195.463 6.43984 194.002 8.29749L191.622 8.23169C191.622 8.23169 188.256 8.81995 184.635 13.1235C184.635 13.1235 188.379 12.4385 190.265 13.8279C189.972 14.3 189.666 14.7838 189.353 15.2869C189.353 15.2869 189.203 16.1615 190.768 17.9882C192.333 19.8149 193.226 19.811 193.226 19.811C193.77 19.5749 194.296 19.3505 194.806 19.1299C195.881 21.2081 194.64 24.8034 194.64 24.8034C199.44 21.8815 200.533 18.6345 200.533 18.6345H200.537ZM203.15 7.36479C202.585 6.70688 202.663 5.71613 203.32 5.15497C203.977 4.58993 204.962 4.66734 205.526 5.32525C206.091 5.98317 206.013 6.97391 205.356 7.53508C204.699 8.10011 203.714 8.02271 203.15 7.36479Z" fill="#9900A6"/>
<path d="M46.431 289.58C44.0002 289.58 42.0293 292.56 42.0293 296.237C42.0293 296.411 42.0332 296.589 42.0409 296.759H48.1623C48.313 294.828 48.827 293.063 49.5999 291.627C48.7999 290.366 47.6754 289.58 46.4271 289.58H46.431Z" fill="#60A4C2"/>
<path d="M46.4307 283.868C44.8849 283.868 43.6328 285.064 43.6328 286.542C43.6328 288.02 44.8849 289.216 46.4307 289.216C47.9765 289.216 49.2286 288.02 49.2286 286.542C49.2286 285.064 47.9765 283.868 46.4307 283.868Z" fill="#60A4C2"/>
<path d="M61.097 291.952C59.9183 289.565 58.0363 288.017 55.9146 288.017C53.793 288.017 52.081 289.429 50.8985 291.635C50.1526 293.028 49.6503 294.743 49.5034 296.616C49.4725 297.003 49.457 297.394 49.457 297.789C49.457 298.048 49.4648 298.303 49.4764 298.555H62.3568C62.3684 298.303 62.3761 298.048 62.3761 297.789C62.3761 297.595 62.3761 297.405 62.3645 297.212C62.2911 295.246 61.8312 293.435 61.1008 291.952H61.097Z" fill="#60A4C2"/>
<path d="M55.9146 279.634C53.6462 279.634 51.8066 281.395 51.8066 283.562C51.8066 285.729 53.6462 287.49 55.9146 287.49C58.1831 287.49 60.0187 285.733 60.0187 283.562C60.0187 281.391 58.1831 279.634 55.9146 279.634Z" fill="#60A4C2"/>
<path d="M97.6132 267.315C97.6132 273.492 102.629 278.519 108.801 278.519C110.93 278.519 113.006 277.904 114.779 276.782L116.093 279.08L118.219 275.063L120.344 271.046L115.807 270.841L111.27 270.64L112.53 272.85C111.44 273.593 110.157 273.995 108.797 273.995C105.122 273.995 102.131 271 102.131 267.323C102.131 263.647 105.122 260.651 108.797 260.651C110.695 260.651 112.511 261.468 113.775 262.888C114.606 263.821 116.035 263.906 116.967 263.074C117.469 262.629 117.724 262.006 117.724 261.383C117.724 260.848 117.535 260.307 117.152 259.877C115.031 257.489 111.985 256.123 108.797 256.123C102.629 256.123 97.6094 261.146 97.6094 267.323L97.6132 267.315Z" fill="#CDCDCD"/>
<path d="M16.9847 187.866C14.4071 187.866 12.3125 185.769 12.3125 183.187C12.3125 180.606 14.4071 178.508 16.9847 178.508C19.5623 178.508 21.6569 180.606 21.6569 183.187C21.6569 185.769 19.5623 187.866 16.9847 187.866ZM16.9847 180.559C15.5394 180.559 14.3607 181.74 14.3607 183.187C14.3607 184.635 15.5394 185.815 16.9847 185.815C18.43 185.815 19.6087 184.635 19.6087 183.187C19.6087 181.74 18.43 180.559 16.9847 180.559Z" fill="#C84B2A"/>
<path d="M339.293 195.92C338.041 195.107 337.681 193.431 338.493 192.173C339.304 190.92 340.978 190.56 342.234 191.372C343.486 192.185 343.845 193.861 343.034 195.119C342.222 196.373 340.549 196.732 339.293 195.92Z" fill="#CDCDCD"/>
<path d="M178.002 301.214C178.235 288.118 167.823 277.312 154.746 277.079C141.669 276.846 130.879 287.273 130.646 300.369C130.413 313.465 140.826 324.271 153.903 324.504C166.98 324.737 177.769 314.31 178.002 301.214Z" fill="#C84B2A"/>
<path d="M119.445 320.885C120.303 328.869 114.537 336.04 106.564 336.9C98.5917 337.759 91.4346 331.985 90.5729 324.004C89.7149 316.02 95.4808 308.849 103.453 307.99C111.426 307.131 118.587 312.905 119.445 320.885Z" fill="#EEBD3A"/>
<path d="M289.061 294.607C291.013 308.814 281.097 321.914 266.91 323.869C252.723 325.823 239.642 315.893 237.69 301.685C235.739 287.478 245.655 274.378 259.842 272.424C274.029 270.469 287.11 280.4 289.061 294.607Z" fill="#9900A6"/>
<path d="M338.264 174.247C338.264 186.736 328.155 196.86 315.684 196.86C303.213 196.86 293.104 186.736 293.104 174.247C293.104 161.758 303.213 151.634 315.684 151.634C328.155 151.634 338.264 161.758 338.264 174.247Z" fill="#A9C732"/>
<path d="M63.3547 126.278C63.3547 134.351 56.8198 140.895 48.7584 140.895C40.697 140.895 34.1621 134.351 34.1621 126.278C34.1621 118.205 40.697 111.664 48.7584 111.664C56.8198 111.664 63.3547 118.208 63.3547 126.278Z" fill="#60A4C2"/>
<path d="M240.609 202.658C251.418 174.027 237.003 142.041 208.413 131.216C179.822 120.391 147.883 134.827 137.074 163.458C126.264 192.09 140.679 224.076 169.27 234.901C197.86 245.725 229.8 231.29 240.609 202.658Z" fill="#60A4C2"/>
<path d="M85.8588 251.394C85.8588 262.664 76.7346 271.801 65.4811 271.801C54.2277 271.801 45.1035 262.664 45.1035 251.394C45.1035 240.124 54.2277 230.991 65.4811 230.991C76.7346 230.991 85.8588 240.128 85.8588 251.394Z" fill="#A9C732"/>
<path d="M316.377 91.1256C316.377 110.925 300.351 126.974 280.58 126.974C260.809 126.974 244.783 110.925 244.783 91.1256C244.783 71.3261 260.809 55.2769 280.58 55.2769C300.351 55.2769 316.377 71.3261 316.377 91.1256Z" fill="#EEBD3A"/>
<path d="M170.347 71.446C170.347 88.1222 156.848 101.64 140.196 101.64C123.544 101.64 110.045 88.1222 110.045 71.446C110.045 54.7697 123.544 41.2515 140.196 41.2515C156.848 41.2515 170.347 54.7697 170.347 71.446Z" fill="#C84B2A"/>
<path d="M283.555 85.6415L285.669 84.3025C285.449 83.1917 285.097 82.1275 284.633 81.1367L282.133 81.3186C281.889 80.8852 281.619 80.4711 281.321 80.0763L282.484 77.8626C281.75 77.0267 280.915 76.2797 280.003 75.6412L277.932 77.046C277.507 76.7945 277.066 76.57 276.61 76.3726L276.514 73.8725C275.474 73.5165 274.381 73.2882 273.256 73.1914L272.166 75.4438C271.803 75.4438 271.436 75.4554 271.069 75.4864C270.941 75.498 270.814 75.5135 270.69 75.5289L269.353 73.4081C268.24 73.6287 267.181 73.9809 266.188 74.4453L266.369 76.9493C265.937 77.1931 265.523 77.464 265.129 77.762L262.915 76.5971C262.08 77.3363 261.334 78.1683 260.696 79.0817L262.103 81.1561C261.852 81.5818 261.628 82.023 261.431 82.4796L258.934 82.5764C258.582 83.6213 258.351 84.7127 258.254 85.8427L260.503 86.9341C260.503 87.2979 260.511 87.6656 260.546 88.0371C260.557 88.1648 260.573 88.2925 260.588 88.4164L258.47 89.7515C258.691 90.8661 259.038 91.9265 259.506 92.9212L262.002 92.7393C262.25 93.1727 262.52 93.5868 262.814 93.9816L261.651 96.1953C262.385 97.0351 263.22 97.7781 264.132 98.4167L266.203 97.0118C266.628 97.2634 267.069 97.4879 267.525 97.6852L267.625 100.185C268.665 100.538 269.759 100.77 270.883 100.866L271.973 98.6141C272.336 98.6141 272.703 98.6025 273.074 98.5715C273.202 98.5599 273.326 98.5444 273.453 98.5289L274.786 100.65C275.899 100.429 276.958 100.077 277.951 99.6126L277.77 97.1125C278.203 96.8648 278.616 96.5939 279.01 96.2997L281.221 97.4646C282.055 96.7255 282.801 95.8934 283.439 94.98L282.036 92.9057C282.287 92.48 282.511 92.0388 282.709 91.5821L285.205 91.4853C285.557 90.4443 285.789 89.3491 285.885 88.219L283.636 87.1276C283.636 86.7638 283.624 86.3962 283.594 86.0246C283.582 85.8969 283.567 85.7731 283.551 85.6454L283.555 85.6415ZM277.77 86.5278C278.044 89.6819 275.714 92.4567 272.568 92.7315C269.419 93.0063 266.648 90.6726 266.373 87.5224C266.099 84.3721 268.429 81.5934 271.575 81.3186C274.724 81.0438 277.499 83.3775 277.77 86.5278Z" fill="white"/>
<path d="M300.153 91.969C299.817 91.5975 299.457 91.2569 299.071 90.9473L299.535 89.1167C298.878 88.6678 298.182 88.2924 297.452 87.9983L296.184 89.3993C295.713 89.2483 295.23 89.1322 294.743 89.0587L294.225 87.2397C293.44 87.1817 292.652 87.2049 291.867 87.3171L291.466 89.1593C290.986 89.2638 290.515 89.4109 290.047 89.5928L288.691 88.2769C288.339 88.4433 287.991 88.633 287.651 88.842C287.315 89.0509 286.99 89.2793 286.685 89.5192L287.261 91.3227C286.89 91.6594 286.55 92.0193 286.245 92.4024L284.417 91.9419C283.968 92.596 283.597 93.2964 283.3 94.024L284.699 95.2973C284.548 95.7694 284.436 96.2532 284.359 96.7408L282.542 97.2594C282.481 98.045 282.508 98.8346 282.616 99.6241L284.459 100.023C284.564 100.503 284.706 100.979 284.888 101.447L283.574 102.801C283.74 103.154 283.93 103.502 284.142 103.839C284.351 104.179 284.579 104.504 284.819 104.81L286.616 104.233C286.952 104.605 287.315 104.945 287.698 105.251L287.238 107.082C287.891 107.531 288.59 107.902 289.317 108.196L290.588 106.799C291.06 106.954 291.539 107.062 292.03 107.14L292.548 108.959C293.328 109.017 294.12 108.994 294.905 108.885L295.303 107.039C295.782 106.935 296.258 106.791 296.725 106.606L298.082 107.922C298.433 107.755 298.777 107.565 299.117 107.356C299.457 107.148 299.778 106.919 300.087 106.675L299.511 104.876C299.882 104.539 300.223 104.175 300.528 103.792L302.356 104.253C302.804 103.599 303.179 102.898 303.469 102.171L302.07 100.897C302.221 100.429 302.333 99.9453 302.41 99.4576L304.226 98.939C304.288 98.1534 304.261 97.3639 304.153 96.5744L302.313 96.1758C302.209 95.6959 302.062 95.2199 301.88 94.7555L303.194 93.4009C303.024 93.0488 302.835 92.7004 302.626 92.3599C302.418 92.0232 302.19 91.6981 301.95 91.3885L300.153 91.9651V91.969ZM296.814 96.2068C298.008 98.1379 297.413 100.677 295.489 101.873C293.56 103.068 291.029 102.472 289.831 100.545C288.633 98.6139 289.228 96.079 291.156 94.8793C293.085 93.6796 295.62 94.2756 296.814 96.2068Z" fill="white"/>
<path d="M220.27 152.501H155.81C154.484 152.501 153.41 153.503 153.41 154.738V199.735C153.41 200.97 154.484 201.972 155.81 201.972H220.27C221.592 201.972 222.67 200.97 222.67 199.735V154.738C222.67 153.503 221.596 152.501 220.27 152.501ZM215.996 194.53C215.996 195.478 215.13 196.249 214.06 196.249H162.024C160.954 196.249 160.088 195.478 160.088 194.53V159.939C160.088 158.991 160.954 158.221 162.024 158.221H214.06C215.13 158.221 215.996 158.991 215.996 159.939V194.53Z" fill="white"/>
<path d="M148.857 203.811V206.794C148.857 208.431 150.071 209.755 151.57 209.755H224.509C226.009 209.755 227.222 208.428 227.222 206.794V203.811H148.854H148.857ZM193.438 207.267H182.645C182.239 207.267 181.911 206.922 181.911 206.5C181.911 206.078 182.239 205.734 182.645 205.734H193.438C193.844 205.734 194.173 206.078 194.173 206.5C194.173 206.922 193.844 207.267 193.438 207.267Z" fill="white"/>
<path d="M301.861 167.827V180.683C301.861 181.589 302.619 182.324 303.554 182.324H327.448C328.384 182.324 329.141 181.589 329.141 180.683V167.838L315.499 175.18L301.865 167.827H301.861Z" fill="white"/>
<path d="M327.444 165.311H303.55C302.615 165.311 301.857 166.07 301.857 167.006V167.289L315.495 174.046L329.133 167.289V167.006C329.133 166.07 328.376 165.311 327.441 165.311H327.444Z" fill="white"/>
<path d="M278.353 309.155L279.269 309.701C280.019 310.146 281.124 309.673 281.735 308.64C282.349 307.611 282.237 306.411 281.488 305.966L280.529 305.397C280.239 306.241 279.899 306.957 279.536 307.564C279.15 308.214 278.74 308.737 278.35 309.155H278.353Z" fill="white"/>
<path d="M246.757 287.784C243.34 293.528 245.223 300.958 250.957 304.379C256.059 307.421 262.485 306.268 266.249 301.937L276.981 308.338C277.727 307.56 278.569 306.365 279.168 304.584L268.468 298.203C270.473 292.827 268.425 286.616 263.328 283.574C257.593 280.152 250.173 282.037 246.757 287.78V287.784ZM264.441 298.326C262.041 302.363 256.828 303.683 252.801 301.283C248.77 298.88 247.452 293.659 249.848 289.626C252.248 285.59 257.458 284.266 261.488 286.67C265.519 289.073 266.837 294.29 264.441 298.326Z" fill="white"/>
<path d="M159.082 59.9438H121.975V62.1769H159.082V59.9438Z" fill="white"/>
<path d="M159.082 64.2554H121.975V66.4884H159.082V64.2554Z" fill="white"/>
<path d="M159.082 68.5625H121.975V70.7955H159.082V68.5625Z" fill="white"/>
<path d="M159.082 72.874H121.975V75.1071H159.082V72.874Z" fill="white"/>
<path d="M159.082 77.1812H121.975V79.4142H159.082V77.1812Z" fill="white"/>
<path d="M140.428 81.4888H121.975V83.7218H140.428V81.4888Z" fill="white"/>
<path d="M164.578 294.858H163.793V292.347C163.793 287.076 159.511 282.788 154.248 282.788C148.984 282.788 144.702 287.076 144.702 292.347V294.858H143.918C142.314 294.858 141.012 296.163 141.012 297.769V311.577C141.012 313.183 142.314 314.488 143.918 314.488H164.578C166.181 314.488 167.484 313.183 167.484 311.577V297.769C167.484 296.163 166.185 294.858 164.578 294.858ZM148.888 292.347C148.888 289.386 151.291 286.979 154.248 286.979C157.204 286.979 159.608 289.386 159.608 292.347V294.858H148.888V292.347Z" fill="white"/>
<path d="M105.397 313.075L108.23 318.826L114.564 319.747L109.98 324.221L111.063 330.537L105.397 327.553L99.7317 330.537L100.814 324.221L96.2305 319.747L102.564 318.826L105.397 313.075Z" fill="white"/>
<path d="M53.6506 124.497L52.0236 124.478C51.0729 123.162 50.0488 122.094 48.6653 121.192C44.4685 118.448 41.3575 119.129 41.3575 119.129L40.1016 118.328L41.0175 119.497C41.0175 119.497 40.5653 122.655 43.6028 126.649C44.5999 127.965 45.7399 128.909 47.1157 129.76L47.2548 131.39C47.2548 131.39 47.9156 133.646 51.127 135.782C51.127 135.782 50.3735 133.278 51.1734 131.881C51.5174 132.048 51.8729 132.214 52.24 132.392C52.24 132.392 52.8468 132.427 53.9713 131.216C55.0959 130.004 55.0225 129.397 55.0225 129.397C54.8215 129.044 54.6244 128.7 54.4351 128.371C55.7683 127.477 58.3112 128.046 58.3112 128.046C55.95 124.992 53.6544 124.497 53.6544 124.497H53.6506ZM45.7747 123.584C45.3689 124.017 44.6926 124.044 44.2559 123.638C43.8231 123.232 43.796 122.554 44.2018 122.117C44.6076 121.684 45.2839 121.656 45.7206 122.063C46.1534 122.469 46.1805 123.146 45.7747 123.584Z" fill="white"/>
<path d="M66.4762 255.705C64.6212 255.728 63.1372 257.253 63.1604 259.111C63.1836 260.968 64.7062 262.454 66.5612 262.431C68.4162 262.408 69.9002 260.883 69.877 259.025C69.8538 257.168 68.3312 255.682 66.4762 255.705Z" fill="white"/>
<path d="M66.3341 247.91C62.601 247.957 59.2852 249.884 57.1211 252.864L60.603 255.883C61.9711 254.017 64.054 252.814 66.3998 252.783C68.8306 252.752 71.0141 253.994 72.4246 255.944L75.864 252.887C73.6265 249.814 70.1793 247.86 66.338 247.91H66.3341Z" fill="white"/>
<path d="M66.2367 240.143C60.293 240.22 55.0257 243.32 51.6172 248.096L55.0991 251.115C57.7077 247.454 61.7422 245.074 66.2985 245.015C70.9707 244.957 75.1599 247.353 77.8573 251.111L81.2967 248.05C77.7761 243.173 72.3194 240.066 66.2405 240.143H66.2367Z" fill="white"/>
</g>
<defs>
<clipPath id="clip0_1806_595">
<rect width="369" height="355" fill="white"/>
</clipPath>
</defs>
</svg>
