<svg width="90" height="81" viewBox="0 0 90 81" fill="none" xmlns="http://www.w3.org/2000/svg">
<path d="M85.9109 -0.0537109H4.08948C2.96722 -0.0537109 1.89022 0.389825 1.09684 1.17918C0.303449 1.96853 -0.142578 3.03986 -0.142578 4.15608V60.2877C-0.142578 61.404 0.303304 62.4753 1.09684 63.2646C1.89037 64.0538 2.96736 64.4974 4.08948 64.4974H37.55L35.4339 72.9172H33.714C32.2177 72.9172 30.7823 73.5086 29.7237 74.561C28.6657 75.6141 28.0711 77.0419 28.0711 78.5303V79.9336C28.0711 80.3057 28.2198 80.6628 28.4843 80.926C28.7488 81.1891 29.1078 81.3369 29.4819 81.3369H60.5176C60.8917 81.3369 61.2507 81.1891 61.5152 80.926C61.7797 80.6628 61.9283 80.3057 61.9283 79.9336V78.5303C61.9283 77.0419 61.3338 75.6141 60.2757 74.561C59.2171 73.5086 57.7818 72.9172 56.2854 72.9172H54.5655L52.4494 64.4974H85.91C87.0322 64.4974 88.1092 64.0539 88.9026 63.2646C89.696 62.4752 90.142 61.4039 90.142 60.2877V4.15608C90.142 3.03972 89.6961 1.96839 88.9026 1.17918C88.1091 0.389969 87.0321 -0.0537109 85.91 -0.0537109H85.9109ZM51.6572 72.9173H50.6426C49.8635 72.9173 49.2319 73.5457 49.2319 74.3206C49.2319 75.0956 49.8635 75.7239 50.6426 75.7239H56.2854C57.0336 75.7239 57.7516 76.0196 58.2806 76.5458C58.8096 77.0721 59.1069 77.7863 59.1069 78.5305H30.8926C30.8926 77.7863 31.1898 77.0721 31.7189 76.5458C32.2479 76.0196 32.9658 75.7239 33.714 75.7239H44.9997C45.7788 75.7239 46.4104 75.0956 46.4104 74.3206C46.4104 73.5457 45.7788 72.9173 44.9997 72.9173H38.3423L40.4584 64.4976H49.5405L51.6572 72.9173ZM87.3216 60.2877C87.3216 60.6599 87.173 61.0169 86.9085 61.2801C86.644 61.5432 86.285 61.691 85.9109 61.691H4.08948C3.31045 61.691 2.67877 61.0627 2.67877 60.2877V53.2713H6.91091C7.68995 53.2713 8.32163 52.6429 8.32163 51.868C8.32163 51.0931 7.68995 50.4647 6.91091 50.4647H2.67877V4.15616C2.67877 3.38122 3.31045 2.75287 4.08948 2.75287H85.9109C86.285 2.75287 86.644 2.90072 86.9085 3.16383C87.173 3.42695 87.3216 3.78404 87.3216 4.15616V50.4647H12.5538C11.7747 50.4647 11.1431 51.0931 11.1431 51.868C11.1431 52.6429 11.7747 53.2713 12.5538 53.2713H87.3216V60.2877Z" fill="white"/>
<path d="M42.7203 37.5541C42.9666 37.7376 43.2663 37.836 43.5737 37.8347C43.6392 37.8347 43.704 37.8303 43.7683 37.8209C44.1405 37.7689 44.4768 37.5722 44.7023 37.2734L53.1665 26.0471C53.6345 25.4269 53.5079 24.5473 52.8844 24.0825C52.2615 23.6176 51.3773 23.7429 50.9094 24.3631L43.2915 34.4668L38.8113 31.0795C38.1909 30.6285 37.3212 30.7544 36.8558 31.3633C36.391 31.9722 36.5012 32.8393 37.1046 33.3135L42.7203 37.5541Z" fill="white"/>
</svg>
