<svg width="16" height="16" viewBox="0 0 16 16" fill="none" xmlns="http://www.w3.org/2000/svg">
<path d="M15.1198 14.2012L12.2877 11.3692C13.3438 10.1851 13.9998 8.61717 13.9998 6.90517C13.9998 3.20917 10.9918 0.201172 7.2958 0.201172C3.5998 0.201172 0.591797 3.20917 0.591797 6.90517C0.591797 10.6012 3.5998 13.6092 7.2958 13.6092C8.60785 13.6092 9.8238 13.2251 10.8478 12.5852L13.7918 15.5292C13.9678 15.7052 14.2078 15.8012 14.4478 15.8012C14.6878 15.8012 14.9279 15.7052 15.1039 15.5292C15.4878 15.1612 15.4878 14.5691 15.1198 14.2012L15.1198 14.2012ZM2.46377 6.9052C2.46377 4.24917 4.62382 2.0732 7.29577 2.0732C9.96771 2.0732 12.1118 4.2492 12.1118 6.9052C12.1118 9.56123 9.95171 11.7372 7.29577 11.7372C4.63982 11.7372 2.46377 9.57714 2.46377 6.9052Z" fill="white"/>
</svg>
