<svg width="20" height="22" viewBox="0 0 20 22" fill="none" xmlns="http://www.w3.org/2000/svg">
<path d="M19.256 19.0619L15.5744 15.3802C16.9472 13.841 17.8 11.8026 17.8 9.57702C17.8 4.77222 13.8896 0.861816 9.08483 0.861816C4.28003 0.861816 0.369629 4.77222 0.369629 9.57702C0.369629 14.3818 4.28003 18.2922 9.08483 18.2922C10.7905 18.2922 12.3712 17.793 13.7024 16.961L17.5296 20.7882C17.7584 21.017 18.0704 21.1418 18.3825 21.1418C18.6944 21.1418 19.0065 21.017 19.2353 20.7882C19.7344 20.3099 19.7344 19.5401 19.2561 19.0618L19.256 19.0619ZM2.80319 9.57705C2.80319 6.12422 5.61127 3.29545 9.08479 3.29545C12.5583 3.29545 15.3456 6.12425 15.3456 9.57705C15.3456 13.0299 12.5375 15.8587 9.08479 15.8587C5.63207 15.8587 2.80319 13.0506 2.80319 9.57705Z" fill="#222222"/>
</svg>
