<svg width="139" height="39" viewBox="0 0 139 39" fill="none" xmlns="http://www.w3.org/2000/svg">
<path d="M0.480469 16.8203C0.480469 16.5703 0.496094 16.2969 0.527344 16C0.558594 15.6875 0.628906 15.4062 0.738281 15.1562C0.847656 14.9062 1.00391 14.6953 1.20703 14.5234C1.42578 14.3516 1.71484 14.2656 2.07422 14.2656C2.07422 14.4688 2.05078 14.6562 2.00391 14.8281C1.97266 15 1.92578 15.1719 1.86328 15.3438C1.81641 15.5156 1.76953 15.7031 1.72266 15.9062C1.69141 16.0938 1.67578 16.3047 1.67578 16.5391C1.67578 17.1328 1.75391 17.6875 1.91016 18.2031C2.06641 18.7188 2.30078 19.1719 2.61328 19.5625C2.94141 19.9375 3.33984 20.2344 3.80859 20.4531C4.29297 20.6719 4.86328 20.7812 5.51953 20.7812C5.80078 20.7812 6.14453 20.7188 6.55078 20.5938C6.95703 20.4688 7.36328 20.3203 7.76953 20.1484C8.17578 19.9766 8.55078 19.8047 8.89453 19.6328C9.23828 19.4609 9.48047 19.3359 9.62109 19.2578C9.96484 19.0703 10.2383 18.8125 10.4414 18.4844C10.6445 18.1406 10.8008 17.7734 10.9102 17.3828C11.0195 16.9766 11.0898 16.5703 11.1211 16.1641C11.1523 15.7422 11.168 15.3672 11.168 15.0391C11.168 14.5078 11.1133 13.9922 11.0039 13.4922C10.9102 12.9766 10.8008 12.4688 10.6758 11.9688C10.5664 11.4688 10.457 10.9688 10.3477 10.4688C10.2539 9.96875 10.207 9.46094 10.207 8.94531C10.3789 8.46094 10.6445 8.02344 11.0039 7.63281C11.3789 7.22656 11.8008 6.88281 12.2695 6.60156C12.7539 6.30469 13.2695 6.07031 13.8164 5.89844C14.3633 5.72656 14.8945 5.625 15.4102 5.59375C15.832 5.70312 16.1523 5.84375 16.3711 6.01562C16.5898 6.17187 16.7383 6.34375 16.8164 6.53125C16.9102 6.71875 16.9336 6.89844 16.8867 7.07031C16.8398 7.24219 16.7617 7.39844 16.6523 7.53906C16.4805 7.16406 16.2539 6.91406 15.9727 6.78906C15.707 6.66406 15.4023 6.625 15.0586 6.67188C14.7305 6.71875 14.3945 6.83594 14.0508 7.02344C13.707 7.21094 13.3789 7.42188 13.0664 7.65625C12.7539 7.89062 12.4805 8.14062 12.2461 8.40625C12.0117 8.65625 11.8398 8.875 11.7305 9.0625C11.7305 9.53125 11.7773 9.99219 11.8711 10.4453C11.9805 10.8828 12.0898 11.3281 12.1992 11.7812C12.3242 12.2188 12.4336 12.6641 12.5273 13.1172C12.6367 13.5547 12.6914 14.0078 12.6914 14.4766C12.6914 15.6016 12.5117 16.6328 12.1523 17.5703C11.8086 18.4922 11.3008 19.2891 10.6289 19.9609C9.97266 20.6172 9.16797 21.125 8.21484 21.4844C7.27734 21.8438 6.22266 22.0234 5.05078 22.0234C4.31641 22.0234 3.66016 21.875 3.08203 21.5781C2.51953 21.2812 2.04297 20.8906 1.65234 20.4062C1.27734 19.9062 0.988281 19.3438 0.785156 18.7188C0.582031 18.0938 0.480469 17.4609 0.480469 16.8203ZM22.4648 22.0234C22.0742 22.0859 21.7148 22.0234 21.3867 21.8359C21.0742 21.6328 20.8242 21.375 20.6367 21.0625C20.4492 20.7344 20.3398 20.3828 20.3086 20.0078C20.2773 19.6172 20.3555 19.2656 20.543 18.9531C21.2305 18.0625 21.6992 17.3594 21.9492 16.8438C22.1992 16.3125 22.2852 15.9453 22.207 15.7422C22.1445 15.5234 21.9492 15.4375 21.6211 15.4844C21.3086 15.5156 20.9258 15.6562 20.4727 15.9062C20.0195 16.1406 19.5273 16.4531 18.9961 16.8438C18.4805 17.2344 17.9961 17.6641 17.543 18.1328C17.0898 18.6016 16.6914 19.0938 16.3477 19.6094C16.0195 20.1094 15.8086 20.6016 15.7148 21.0859C15.5586 21.1797 15.4258 21.2578 15.3164 21.3203C15.207 21.3672 15.082 21.3906 14.9414 21.3906C14.707 21.3906 14.5664 21.3125 14.5195 21.1562C14.4727 21 14.4492 20.8359 14.4492 20.6641C14.4492 20.2734 14.5664 19.875 14.8008 19.4688C15.0508 19.0469 15.332 18.6562 15.6445 18.2969C15.9727 17.9219 16.2852 17.5859 16.582 17.2891C16.8789 16.9766 17.0898 16.7266 17.2148 16.5391C17.6055 15.8984 17.9961 15.2109 18.3867 14.4766C18.7773 13.7266 19.168 12.9688 19.5586 12.2031C19.9492 11.4219 20.3477 10.6562 20.7539 9.90625C21.1758 9.14062 21.6133 8.41406 22.0664 7.72656C22.1445 7.60156 22.207 7.51562 22.2539 7.46875C22.3164 7.42188 22.4023 7.39844 22.5117 7.39844C22.6367 7.39844 22.7305 7.42188 22.793 7.46875C22.8555 7.51562 22.918 7.60156 22.9805 7.72656C22.9805 7.78906 22.9648 7.89062 22.9336 8.03125C22.918 8.17188 22.8945 8.32812 22.8633 8.5C22.8477 8.65625 22.8164 8.80469 22.7695 8.94531C22.7383 9.08594 22.7148 9.17969 22.6992 9.22656C22.6055 9.41406 22.4492 9.74219 22.2305 10.2109C22.0117 10.6797 21.7695 11.1797 21.5039 11.7109C21.2539 12.2422 21.0117 12.7656 20.7773 13.2812C20.543 13.7812 20.3711 14.1562 20.2617 14.4062C20.4961 14.25 20.707 14.1328 20.8945 14.0547C21.082 13.9609 21.2617 13.8984 21.4336 13.8672C21.6211 13.8203 21.8086 13.7969 21.9961 13.7969C22.1992 13.7812 22.418 13.7734 22.6523 13.7734C23.2148 13.9141 23.582 14.125 23.7539 14.4062C23.9414 14.6875 23.9961 15.0156 23.918 15.3906C23.8555 15.75 23.707 16.1484 23.4727 16.5859C23.2383 17.0234 22.9883 17.4688 22.7227 17.9219C22.4727 18.3594 22.2461 18.7891 22.043 19.2109C21.8398 19.6172 21.7461 19.9922 21.7617 20.3359C21.7617 20.4766 21.793 20.5781 21.8555 20.6406C21.918 20.7031 21.9961 20.75 22.0898 20.7812C22.1836 20.8125 22.2852 20.8281 22.3945 20.8281C22.5039 20.8281 22.6055 20.8281 22.6992 20.8281C23.0273 20.8281 23.3398 20.7812 23.6367 20.6875C23.9492 20.5781 24.2539 20.4609 24.5508 20.3359C24.8477 20.2109 25.1445 20.1016 25.4414 20.0078C25.7539 19.8984 26.0742 19.8438 26.4023 19.8438C26.4023 20.1406 26.2539 20.4219 25.957 20.6875C25.6602 20.9531 25.3008 21.1875 24.8789 21.3906C24.4727 21.5781 24.043 21.7344 23.5898 21.8594C23.1367 21.9688 22.7617 22.0234 22.4648 22.0234ZM25.6758 20.4766C25.8164 19.5859 26.082 18.7656 26.4727 18.0156C26.8633 17.2656 27.3086 16.6172 27.8086 16.0703C28.3242 15.5078 28.8789 15.0469 29.4727 14.6875C30.0664 14.3281 30.6445 14.1016 31.207 14.0078C31.7695 13.8984 32.2852 13.9219 32.7539 14.0781C33.2383 14.2344 33.6289 14.5469 33.9258 15.0156C33.9258 15.375 33.8398 15.7188 33.668 16.0469C33.5117 16.375 33.332 16.7031 33.1289 17.0312C32.9414 17.3594 32.7617 17.6953 32.5898 18.0391C32.4336 18.3828 32.3555 18.75 32.3555 19.1406C32.3555 19.5469 32.4414 19.875 32.6133 20.125C32.8008 20.3594 33.1211 20.4766 33.5742 20.4766C33.9492 20.4766 34.3086 20.4219 34.6523 20.3125C35.0117 20.2031 35.3711 20.1484 35.7305 20.1484C35.793 20.1484 35.8945 20.1562 36.0352 20.1719C36.1914 20.1719 36.293 20.1719 36.3398 20.1719C36.1523 20.4375 35.9102 20.6641 35.6133 20.8516C35.3164 21.0391 35.0039 21.2031 34.6758 21.3438C34.3477 21.4688 34.0039 21.5625 33.6445 21.625C33.3008 21.6875 32.9805 21.7188 32.6836 21.7188C32.4023 21.7188 32.1523 21.6562 31.9336 21.5312C31.7148 21.4062 31.5273 21.2422 31.3711 21.0391C31.2148 20.8359 31.0898 20.6094 30.9961 20.3594C30.918 20.0938 30.8789 19.8359 30.8789 19.5859C30.6445 19.8516 30.3867 20.1328 30.1055 20.4297C29.8398 20.7109 29.5508 20.9688 29.2383 21.2031C28.9414 21.4375 28.6133 21.6328 28.2539 21.7891C27.9102 21.9453 27.5508 22.0234 27.1758 22.0234C26.7695 22.0234 26.418 21.875 26.1211 21.5781C25.8242 21.2656 25.6758 20.8984 25.6758 20.4766ZM27.2227 19.75C27.2227 19.875 27.2227 20.0156 27.2227 20.1719C27.2383 20.3281 27.3398 20.4297 27.5273 20.4766C27.918 20.3828 28.3633 20.1797 28.8633 19.8672C29.3633 19.5391 29.832 19.1641 30.2695 18.7422C30.707 18.3047 31.0742 17.8438 31.3711 17.3594C31.668 16.8594 31.8164 16.3828 31.8164 15.9297C31.8164 15.8984 31.8086 15.8516 31.793 15.7891C31.793 15.7109 31.793 15.6562 31.793 15.625C31.2617 15.625 30.7227 15.7344 30.1758 15.9531C29.6289 16.1719 29.1367 16.4766 28.6992 16.8672C28.2617 17.2422 27.9023 17.6797 27.6211 18.1797C27.3555 18.6797 27.2227 19.2031 27.2227 19.75ZM35.9648 20.9453C35.9648 20.8047 35.9648 20.6953 35.9648 20.6172C35.9648 20.5391 35.9727 20.4688 35.9883 20.4062C36.0195 20.3281 36.0586 20.25 36.1055 20.1719C36.1523 20.0938 36.2148 19.9922 36.293 19.8672C36.418 19.6484 36.6523 19.2656 36.9961 18.7188C37.3398 18.1719 37.707 17.5938 38.0977 16.9844C38.4883 16.375 38.8555 15.7969 39.1992 15.25C39.5586 14.7031 39.8086 14.3203 39.9492 14.1016C39.9648 14.0859 40.0039 14.0781 40.0664 14.0781C40.1445 14.0781 40.1992 14.0781 40.2305 14.0781C40.2617 14.0781 40.3164 14.0781 40.3945 14.0781C40.4727 14.0781 40.5195 14.0859 40.5352 14.1016C40.5508 14.1172 40.582 14.1562 40.6289 14.2188C40.6914 14.2812 40.7539 14.3516 40.8164 14.4297C40.8945 14.4922 40.957 14.5547 41.0039 14.6172C41.0664 14.6797 41.1133 14.7109 41.1445 14.7109C41.2852 14.7109 41.4336 14.6641 41.5898 14.5703C41.7461 14.4766 41.9023 14.375 42.0586 14.2656C42.2305 14.1406 42.4023 14.0312 42.5742 13.9375C42.7461 13.8438 42.9258 13.7969 43.1133 13.7969C43.3164 13.7969 43.5039 13.8438 43.6758 13.9375C43.8477 14.0312 43.9961 14.1484 44.1211 14.2891C44.2461 14.4297 44.3398 14.5859 44.4023 14.7578C44.4805 14.9297 44.5195 15.1016 44.5195 15.2734C44.5195 15.6328 44.4648 15.9766 44.3555 16.3047C44.2617 16.6328 44.1523 16.9609 44.0273 17.2891C43.9023 17.6016 43.7852 17.9219 43.6758 18.25C43.582 18.5625 43.5352 18.8906 43.5352 19.2344C43.5352 19.5781 43.5742 19.8281 43.6523 19.9844C43.7305 20.125 43.9492 20.1953 44.3086 20.1953C44.7305 20.1953 45.1289 20.1328 45.5039 20.0078C45.8945 19.8828 46.293 19.8203 46.6992 19.8203C46.6992 20.1953 46.582 20.5078 46.3477 20.7578C46.1289 21.0078 45.8477 21.2109 45.5039 21.3672C45.1758 21.5078 44.8164 21.6094 44.4258 21.6719C44.0508 21.7188 43.707 21.7422 43.3945 21.7422C42.8008 21.7422 42.3633 21.5781 42.082 21.25C41.8164 20.9062 41.6836 20.4531 41.6836 19.8906C41.6836 19.5156 41.7461 19.1641 41.8711 18.8359C42.0117 18.5078 42.1602 18.1875 42.3164 17.875C42.4883 17.5625 42.6445 17.25 42.7852 16.9375C42.9258 16.625 42.9961 16.2891 42.9961 15.9297C42.9961 15.8359 42.9805 15.7109 42.9492 15.5547C42.918 15.3984 42.8164 15.3203 42.6445 15.3203C42.1289 15.3203 41.6602 15.4844 41.2383 15.8125C40.832 16.1406 40.457 16.5547 40.1133 17.0547C39.7852 17.5547 39.4805 18.0938 39.1992 18.6719C38.9336 19.25 38.6758 19.7891 38.4258 20.2891C38.1914 20.7891 37.9648 21.2031 37.7461 21.5312C37.5273 21.8594 37.3008 22.0234 37.0664 22.0234C36.7383 22.0234 36.4727 21.9219 36.2695 21.7188C36.0664 21.5156 35.9648 21.2578 35.9648 20.9453ZM49.3242 18.6719C49.1367 18.9219 48.9805 19.2031 48.8555 19.5156C48.7305 19.8281 48.5898 20.125 48.4336 20.4062C48.2773 20.6875 48.0898 20.9219 47.8711 21.1094C47.6523 21.2969 47.3633 21.3906 47.0039 21.3906C46.707 21.3906 46.5039 21.3438 46.3945 21.25C46.2852 21.1406 46.2305 20.9297 46.2305 20.6172C46.2305 20.2422 46.332 19.8281 46.5352 19.375C46.7539 18.9219 47.0117 18.4844 47.3086 18.0625C47.6055 17.625 47.9102 17.2188 48.2227 16.8438C48.5352 16.4688 48.793 16.1641 48.9961 15.9297L53.332 6.55469C53.4414 6.28906 53.6367 6.03906 53.918 5.80469C54.2148 5.57031 54.5195 5.45312 54.832 5.45312V6.22656L52.3477 11.9688V12.5312C52.6133 12.5312 52.8633 12.4922 53.0977 12.4141C53.332 12.3203 53.5664 12.2188 53.8008 12.1094C54.0352 12 54.2773 11.9062 54.5273 11.8281C54.793 11.7344 55.082 11.6875 55.3945 11.6875C55.6758 11.875 55.8242 12.1094 55.8398 12.3906C55.8555 12.6562 55.7852 12.9531 55.6289 13.2812C55.4727 13.5938 55.2539 13.9141 54.9727 14.2422C54.707 14.5703 54.4258 14.8906 54.1289 15.2031C53.832 15.5 53.543 15.7656 53.2617 16C52.9961 16.2344 52.793 16.4141 52.6523 16.5391C52.418 16.7266 52.1992 16.8594 51.9961 16.9375C51.8086 17 51.6445 17.0625 51.5039 17.125C51.3633 17.1875 51.2539 17.2812 51.1758 17.4062C51.1133 17.5312 51.082 17.7422 51.082 18.0391C51.082 18.4766 51.1992 18.8359 51.4336 19.1172C51.668 19.3828 51.9727 19.5938 52.3477 19.75C52.7383 19.9062 53.168 20.0156 53.6367 20.0781C54.1211 20.125 54.6055 20.1484 55.0898 20.1484C55.5742 20.1484 56.0352 20.1328 56.4727 20.1016C56.9102 20.0547 57.2852 20.0078 57.5977 19.9609L57.8789 20.2422C57.707 20.4766 57.4414 20.7031 57.082 20.9219C56.7383 21.125 56.3555 21.3125 55.9336 21.4844C55.5273 21.6406 55.1211 21.7734 54.7148 21.8828C54.3086 21.9766 53.9727 22.0234 53.707 22.0234C53.207 22.0234 52.7227 21.9453 52.2539 21.7891C51.7852 21.6172 51.3555 21.3828 50.9648 21.0859C50.5742 20.7891 50.2305 20.4375 49.9336 20.0312C49.6523 19.6094 49.4492 19.1562 49.3242 18.6719ZM53.9414 13.3984C53.8008 13.3984 53.5898 13.4531 53.3086 13.5625C53.0273 13.6719 52.7461 13.8125 52.4648 13.9844C52.1836 14.1562 51.9414 14.3438 51.7383 14.5469C51.5352 14.75 51.4336 14.9531 51.4336 15.1562V15.3203C51.543 15.2734 51.7305 15.1953 51.9961 15.0859C52.2773 14.9766 52.5586 14.8438 52.8398 14.6875C53.1367 14.5156 53.3945 14.3203 53.6133 14.1016C53.832 13.8828 53.9414 13.6484 53.9414 13.3984ZM55.7695 29.0781C56.2695 28.2656 56.8477 27.5391 57.5039 26.8984C58.1602 26.2734 58.832 25.6797 59.5195 25.1172C60.2227 24.5547 60.918 24.0078 61.6055 23.4766C62.293 22.9453 62.9258 22.375 63.5039 21.7656C64.0977 21.1562 64.6055 20.4844 65.0273 19.75C65.4492 19 65.7383 18.1328 65.8945 17.1484C65.8945 17.1172 65.8867 17.0703 65.8711 17.0078C65.8711 16.9297 65.8711 16.875 65.8711 16.8438C65.5117 17.2656 65.0742 17.7422 64.5586 18.2734C64.0586 18.8047 63.5117 19.3047 62.918 19.7734C62.3398 20.2422 61.7305 20.6328 61.0898 20.9453C60.4492 21.2578 59.8242 21.4141 59.2148 21.4141C59.0586 21.4141 58.8555 21.4062 58.6055 21.3906C58.3711 21.3594 58.1367 21.3047 57.9023 21.2266C57.668 21.1484 57.4648 21.0391 57.293 20.8984C57.1211 20.7578 57.0352 20.5703 57.0352 20.3359C57.0352 20.1328 57.0898 19.8203 57.1992 19.3984C57.3086 18.9766 57.457 18.5078 57.6445 17.9922C57.832 17.4766 58.043 16.9531 58.2773 16.4219C58.5117 15.8906 58.7617 15.4062 59.0273 14.9688C59.293 14.5312 59.5508 14.1719 59.8008 13.8906C60.0664 13.6094 60.3086 13.4688 60.5273 13.4688C60.7461 13.4688 60.9336 13.5156 61.0898 13.6094C61.2461 13.7031 61.3242 13.8594 61.3242 14.0781C61.3242 14.4688 61.1836 14.8594 60.9023 15.25C60.6211 15.6406 60.3164 16.0625 59.9883 16.5156C59.6602 16.9531 59.3555 17.4297 59.0742 17.9453C58.793 18.4609 58.6523 19.0469 58.6523 19.7031C59.6836 19.7031 60.6133 19.4922 61.4414 19.0703C62.2695 18.6328 63.0195 18.0938 63.6914 17.4531C64.3633 16.8125 64.957 16.1172 65.4727 15.3672C65.9883 14.6172 66.4414 13.9219 66.832 13.2812C67.2383 12.6406 67.582 12.1094 67.8633 11.6875C68.1602 11.25 68.4102 11.0312 68.6133 11.0312C68.9102 11.0312 69.082 11.125 69.1289 11.3125C69.1914 11.4844 69.2227 11.7031 69.2227 11.9688C69.082 12.4531 68.8867 13.0234 68.6367 13.6797C68.3867 14.3203 68.1289 15 67.8633 15.7188C67.6133 16.4219 67.3789 17.125 67.1602 17.8281C66.957 18.5312 66.8242 19.1719 66.7617 19.75C66.7617 19.7656 66.7617 19.7891 66.7617 19.8203C66.7773 19.8516 66.7852 19.875 66.7852 19.8906C67.0664 19.7969 67.332 19.6328 67.582 19.3984C67.832 19.1641 68.0742 18.9297 68.3086 18.6953C68.5586 18.4453 68.8086 18.2266 69.0586 18.0391C69.3086 17.8359 69.5664 17.7344 69.832 17.7344C69.8477 17.7344 69.9023 17.8438 69.9961 18.0625C70.1055 18.2812 70.1055 18.5469 69.9961 18.8594C69.8555 18.9688 69.5977 19.1562 69.2227 19.4219C68.8633 19.6875 68.4805 19.9688 68.0742 20.2656C67.668 20.5469 67.2852 20.8281 66.9258 21.1094C66.5664 21.375 66.3164 21.5781 66.1758 21.7188C65.957 21.9375 65.7305 22.25 65.4961 22.6562C65.2617 23.0625 65.0273 23.5156 64.793 24.0156C64.5586 24.5312 64.3242 25.0703 64.0898 25.6328C63.8711 26.1953 63.6523 26.7422 63.4336 27.2734C63.2148 27.8203 62.9961 28.3203 62.7773 28.7734C62.5742 29.2422 62.3867 29.625 62.2148 29.9219C62.1367 30.0469 61.9727 30.2891 61.7227 30.6484C61.4883 31.0234 61.2227 31.4219 60.9258 31.8438C60.6445 32.2656 60.3633 32.6641 60.082 33.0391C59.8164 33.4297 59.6133 33.7031 59.4727 33.8594C59.4102 33.9375 59.2383 34.1172 58.957 34.3984C58.6758 34.6953 58.3555 35.0156 57.9961 35.3594C57.6523 35.7188 57.3086 36.0703 56.9648 36.4141C56.6055 36.7578 56.332 37.0156 56.1445 37.1875C55.957 37.2969 55.707 37.4297 55.3945 37.5859C55.082 37.7578 54.7617 37.8984 54.4336 38.0078C54.0898 38.1172 53.7617 38.1875 53.4492 38.2188C53.1211 38.25 52.8555 38.1797 52.6523 38.0078C52.4492 37.8516 52.332 37.5781 52.3008 37.1875C52.2539 36.8125 52.3398 36.2734 52.5586 35.5703C52.7617 34.8828 53.1211 34.0078 53.6367 32.9453C54.1523 31.8828 54.8633 30.5938 55.7695 29.0781ZM63.1289 24.0391C63.0977 24.0391 63.043 24.0469 62.9648 24.0625C62.9023 24.0938 62.8555 24.1172 62.8242 24.1328C62.793 24.1641 62.7227 24.2188 62.6133 24.2969C62.5039 24.375 62.3789 24.4609 62.2383 24.5547C62.1133 24.6484 61.9883 24.7422 61.8633 24.8359C61.7539 24.9297 61.6758 25 61.6289 25.0469C61.1914 25.3594 60.6914 25.7969 60.1289 26.3594C59.5664 26.9375 58.9805 27.5703 58.3711 28.2578C57.7773 28.9609 57.1914 29.6953 56.6133 30.4609C56.0352 31.2422 55.5195 31.9844 55.0664 32.6875C54.5977 33.4062 54.2227 34.0625 53.9414 34.6562C53.6602 35.25 53.5117 35.7266 53.4961 36.0859C53.4805 36.4453 53.6289 36.6562 53.9414 36.7188C54.2539 36.7812 54.7852 36.6328 55.5352 36.2734C55.6914 36.1328 55.918 35.9219 56.2148 35.6406C56.4961 35.375 56.7773 35.0938 57.0586 34.7969C57.3555 34.5156 57.6211 34.25 57.8555 34C58.0898 33.7656 58.2305 33.6172 58.2773 33.5547C58.3555 33.4453 58.4805 33.2734 58.6523 33.0391C58.8242 32.8047 59.0117 32.5391 59.2148 32.2422C59.418 31.9453 59.6289 31.6328 59.8477 31.3047C60.0664 30.9766 60.2695 30.6562 60.457 30.3438C60.6602 30.0469 60.832 29.7812 60.9727 29.5469C61.1289 29.3125 61.2383 29.1328 61.3008 29.0078C61.4414 28.7578 61.6133 28.3984 61.8164 27.9297C62.0352 27.4766 62.2383 27 62.4258 26.5C62.6133 26.0156 62.7773 25.5469 62.918 25.0938C63.0586 24.6406 63.1289 24.2891 63.1289 24.0391ZM83.2148 20.7812C83.168 20.6875 83.082 20.5312 82.957 20.3125C82.8477 20.0781 82.7227 19.8359 82.582 19.5859C82.457 19.3203 82.3398 19.0703 82.2305 18.8359C82.1211 18.6016 82.043 18.4375 81.9961 18.3438C81.9492 18.25 81.8867 18.0859 81.8086 17.8516C81.7305 17.6172 81.6914 17.4766 81.6914 17.4297C81.6914 17.2578 81.7305 17.0625 81.8086 16.8438C81.9023 16.625 82.0195 16.4219 82.1602 16.2344C82.3008 16.0469 82.4648 15.8906 82.6523 15.7656C82.8398 15.6406 83.0273 15.5781 83.2148 15.5781C83.2461 15.5781 83.293 15.5859 83.3555 15.6016C83.4336 15.6172 83.4883 15.625 83.5195 15.625C83.2695 15.9375 83.0977 16.2188 83.0039 16.4688C82.9102 16.7031 82.8633 16.9766 82.8633 17.2891C82.8633 17.4453 82.918 17.6562 83.0273 17.9219C83.1367 18.1719 83.2773 18.4219 83.4492 18.6719C83.6211 18.9219 83.8086 19.1406 84.0117 19.3281C84.2148 19.5 84.4023 19.5859 84.5742 19.5859H84.7383C84.8633 19.4922 85.082 19.3203 85.3945 19.0703C85.7227 18.8047 86.0664 18.5234 86.4258 18.2266C86.7852 17.9297 87.1211 17.6562 87.4336 17.4062C87.7461 17.1406 87.9648 16.9531 88.0898 16.8438C88.1992 16.75 88.3945 16.5625 88.6758 16.2812C88.957 16 89.2539 15.6953 89.5664 15.3672C89.8945 15.0391 90.1992 14.7266 90.4805 14.4297C90.7773 14.1328 90.9883 13.9219 91.1133 13.7969C91.1445 13.7812 91.1914 13.7344 91.2539 13.6562C91.3164 13.5625 91.3789 13.4688 91.4414 13.375C91.5039 13.2656 91.5586 13.1719 91.6055 13.0938C91.668 13 91.707 12.9297 91.7227 12.8828V12.7422C91.7227 12.4922 91.668 12.2734 91.5586 12.0859C91.4492 11.8828 91.3945 11.6484 91.3945 11.3828C91.3945 10.9141 91.543 10.3125 91.8398 9.57812C92.1367 8.84375 92.5273 8.0625 93.0117 7.23438C93.4961 6.39062 94.043 5.54688 94.6523 4.70312C95.2773 3.85938 95.9023 3.10156 96.5273 2.42969C97.168 1.74219 97.7852 1.1875 98.3789 0.765625C98.9727 0.328125 99.4961 0.109375 99.9492 0.109375C100.262 0.109375 100.488 0.21875 100.629 0.4375C100.785 0.65625 100.863 0.898437 100.863 1.16406C100.863 1.50781 100.754 1.91406 100.535 2.38281C100.316 2.83594 100.051 3.29688 99.7383 3.76562C99.4414 4.23438 99.1367 4.6875 98.8242 5.125C98.5273 5.5625 98.293 5.92188 98.1211 6.20312C98.0586 6.29688 97.9023 6.52344 97.6523 6.88281C97.418 7.22656 97.1602 7.60938 96.8789 8.03125C96.5977 8.4375 96.3398 8.82031 96.1055 9.17969C95.8711 9.53906 95.7227 9.76562 95.6602 9.85938C95.6289 9.89062 95.5742 9.98438 95.4961 10.1406C95.4336 10.2969 95.3945 10.3984 95.3789 10.4453C95.957 10.2266 96.543 9.90625 97.1367 9.48438C97.7305 9.0625 98.2539 8.67188 98.707 8.3125H99.0117C99.293 8.3125 99.5195 8.36719 99.6914 8.47656C99.8633 8.57031 99.9492 8.77344 99.9492 9.08594C99.9492 9.13281 99.9414 9.21875 99.9258 9.34375C99.9258 9.46875 99.918 9.53906 99.9023 9.55469L96.293 17.7578C95.9492 18.5234 95.5039 19.1484 94.957 19.6328C94.4258 20.1172 93.8242 20.5078 93.1523 20.8047C92.4961 21.0859 91.793 21.2891 91.043 21.4141C90.293 21.5234 89.5352 21.5938 88.7695 21.625C88.0039 21.6562 87.2461 21.6719 86.4961 21.6719C85.7617 21.6562 85.0742 21.6641 84.4336 21.6953C84.4023 21.6953 84.3242 21.7109 84.1992 21.7422C84.0898 21.7734 83.9648 21.8047 83.8242 21.8359C83.6836 21.8672 83.5508 21.9062 83.4258 21.9531C83.3164 21.9844 83.2461 22 83.2148 22C83.168 22 83.082 22 82.957 22C82.832 22.0156 82.6992 22.0234 82.5586 22.0234C82.418 22.0391 82.2852 22.0469 82.1602 22.0469C82.0352 22.0625 81.9492 22.0703 81.9023 22.0703C81.9023 21.6953 81.957 21.4688 82.0664 21.3906C82.1758 21.2969 82.3008 21.2422 82.4414 21.2266C82.582 21.2109 82.7227 21.1953 82.8633 21.1797C83.0195 21.1484 83.1367 21.0156 83.2148 20.7812ZM87.1758 19.5859C86.9102 19.6641 86.6758 19.7812 86.4727 19.9375C86.2852 20.0938 86.1055 20.2734 85.9336 20.4766H87.7617C88.6367 20.4766 89.4414 20.4297 90.1758 20.3359C90.9102 20.2422 91.5898 20.0547 92.2148 19.7734C92.8398 19.4922 93.4102 19.0938 93.9258 18.5781C94.4414 18.0625 94.9258 17.3828 95.3789 16.5391C95.4727 16.3516 95.6211 16.0156 95.8242 15.5312C96.043 15.0469 96.2617 14.5312 96.4805 13.9844C96.7148 13.4219 96.9258 12.8984 97.1133 12.4141C97.3008 11.9141 97.4258 11.5625 97.4883 11.3594H97.418H97.3711C97.3555 11.3594 97.3477 11.3516 97.3477 11.3359C96.832 11.3359 96.3008 11.4453 95.7539 11.6641C95.2227 11.8828 94.707 12.1641 94.207 12.5078C93.707 12.8359 93.2383 13.2031 92.8008 13.6094C92.3789 14 92.0195 14.3672 91.7227 14.7109C91.6133 14.8359 91.4414 15.0234 91.207 15.2734C90.9727 15.5234 90.707 15.8125 90.4102 16.1406C90.1133 16.4531 89.793 16.7891 89.4492 17.1484C89.1211 17.5078 88.8086 17.8516 88.5117 18.1797C88.2148 18.4922 87.9414 18.7734 87.6914 19.0234C87.457 19.2734 87.2852 19.4609 87.1758 19.5859ZM99.0117 1.65625C98.6836 1.9375 98.3164 2.29688 97.9102 2.73438C97.5039 3.15625 97.082 3.63281 96.6445 4.16406C96.2227 4.69531 95.8008 5.25781 95.3789 5.85156C94.9727 6.42969 94.6055 7.00781 94.2773 7.58594C93.9648 8.14844 93.707 8.69531 93.5039 9.22656C93.3164 9.74219 93.2227 10.2031 93.2227 10.6094C93.2227 10.6406 93.2227 10.7188 93.2227 10.8438C93.2383 10.9531 93.2461 11.0234 93.2461 11.0547C93.3555 10.9297 93.5352 10.6953 93.7852 10.3516C94.0508 10.0078 94.3242 9.64844 94.6055 9.27344C94.9023 8.88281 95.1758 8.50781 95.4258 8.14844C95.6914 7.78906 95.8711 7.53906 95.9648 7.39844C96.1992 7.05469 96.4883 6.60156 96.832 6.03906C97.1758 5.47656 97.5039 4.92188 97.8164 4.375C98.1445 3.8125 98.4258 3.32813 98.6602 2.92188C98.8945 2.51562 99.0117 2.28906 99.0117 2.24219V1.65625ZM98.3555 20.8281C98.3555 20.5938 98.4258 20.2656 98.5664 19.8438C98.707 19.4062 98.8867 18.9375 99.1055 18.4375C99.3398 17.9375 99.5977 17.4297 99.8789 16.9141C100.176 16.3984 100.473 15.9297 100.77 15.5078C101.066 15.0859 101.348 14.7422 101.613 14.4766C101.879 14.2109 102.113 14.0781 102.316 14.0781C102.754 14.0781 102.973 14.2891 102.973 14.7109C102.973 14.8984 102.934 15.0547 102.855 15.1797C102.793 15.3047 102.715 15.4219 102.621 15.5312C102.527 15.6406 102.426 15.75 102.316 15.8594C102.207 15.9531 102.113 16.0703 102.035 16.2109C101.895 16.4453 101.723 16.7656 101.52 17.1719C101.316 17.5781 101.113 17.9766 100.91 18.3672C100.723 18.7422 100.559 19.0781 100.418 19.375C100.277 19.6719 100.207 19.8359 100.207 19.8672V20.1719C100.816 20.0625 101.402 19.8047 101.965 19.3984C102.527 18.9766 103.059 18.4844 103.559 17.9219C104.074 17.3594 104.559 16.7734 105.012 16.1641C105.48 15.5391 105.918 14.9688 106.324 14.4531C106.73 13.9219 107.113 13.4844 107.473 13.1406C107.832 12.7969 108.168 12.625 108.48 12.625C108.48 13.2031 108.363 13.7266 108.129 14.1953C107.895 14.6641 107.637 15.125 107.355 15.5781C107.09 16.0312 106.84 16.5 106.605 16.9844C106.371 17.4531 106.254 17.9844 106.254 18.5781C106.254 18.8281 106.402 19.0547 106.699 19.2578C107.012 19.4453 107.363 19.6094 107.754 19.75C108.16 19.875 108.551 19.9766 108.926 20.0547C109.301 20.1328 109.559 20.1797 109.699 20.1953V20.8047C109.34 20.8203 108.895 20.8281 108.363 20.8281C107.832 20.8125 107.301 20.75 106.77 20.6406C106.238 20.5312 105.754 20.3516 105.316 20.1016C104.895 19.8359 104.613 19.4531 104.473 18.9531C104.066 19.2188 103.676 19.5312 103.301 19.8906C102.926 20.25 102.535 20.5859 102.129 20.8984C101.738 21.2109 101.324 21.4766 100.887 21.6953C100.449 21.9141 99.9727 22.0234 99.457 22.0234C99.1445 22.0234 98.8789 21.8906 98.6602 21.625C98.457 21.3594 98.3555 21.0938 98.3555 20.8281ZM106.699 28.5625C106.699 28.5469 106.707 28.5156 106.723 28.4688C106.723 28.4219 106.723 28.3906 106.723 28.375C106.738 28.3281 106.762 28.2578 106.793 28.1641C106.824 28.0859 106.855 28 106.887 27.9062C106.918 27.8125 106.949 27.7188 106.98 27.625C107.012 27.5469 107.035 27.4922 107.051 27.4609C107.145 27.2422 107.301 26.8906 107.52 26.4062C107.738 25.9375 107.988 25.3984 108.27 24.7891C108.551 24.1953 108.848 23.5703 109.16 22.9141C109.457 22.2578 109.746 21.6328 110.027 21.0391C110.309 20.4297 110.559 19.8906 110.777 19.4219C111.012 18.9375 111.184 18.5781 111.293 18.3438C111.496 18.0156 111.777 17.6328 112.137 17.1953C112.512 16.7578 112.926 16.3125 113.379 15.8594C113.832 15.4062 114.316 14.9688 114.832 14.5469C115.363 14.1094 115.879 13.7266 116.379 13.3984C116.895 13.0547 117.395 12.7812 117.879 12.5781C118.363 12.3594 118.793 12.25 119.168 12.25C119.73 12.25 120.129 12.3516 120.363 12.5547C120.598 12.7578 120.715 13.1719 120.715 13.7969C120.715 14.4688 120.582 15.1406 120.316 15.8125C120.066 16.4688 119.723 17.0938 119.285 17.6875C118.848 18.2812 118.332 18.8203 117.738 19.3047C117.16 19.7891 116.543 20.1875 115.887 20.5C115.246 20.8125 114.582 21.0312 113.895 21.1562C113.207 21.2656 112.543 21.2422 111.902 21.0859L111.598 21.3906L108.551 28.9844C108.504 29.125 108.371 29.2109 108.152 29.2422C107.934 29.2891 107.754 29.3125 107.613 29.3125C107.41 29.3125 107.207 29.2422 107.004 29.1016C106.801 28.9766 106.699 28.7969 106.699 28.5625ZM117.668 17.1484C118.402 16.3672 118.879 15.75 119.098 15.2969C119.316 14.8281 119.363 14.5 119.238 14.3125C119.113 14.125 118.863 14.0547 118.488 14.1016C118.113 14.1484 117.691 14.2812 117.223 14.5C116.754 14.7188 116.277 15.0078 115.793 15.3672C115.324 15.7266 114.934 16.1172 114.621 16.5391C114.48 16.6953 114.309 16.9062 114.105 17.1719C113.902 17.4219 113.699 17.6797 113.496 17.9453C113.309 18.1953 113.145 18.4219 113.004 18.625C112.863 18.8281 112.793 18.9453 112.793 18.9766V19.4688C113.871 19.4688 114.793 19.3125 115.559 19C116.324 18.6719 117.027 18.0547 117.668 17.1484ZM121.465 19.7266C121.465 19.2734 121.551 18.8203 121.723 18.3672C121.895 17.9141 122.098 17.4688 122.332 17.0312C122.566 16.5781 122.801 16.1328 123.035 15.6953C123.285 15.2578 123.473 14.8281 123.598 14.4062C123.301 14.5781 123.043 14.6797 122.824 14.7109C122.621 14.7266 122.371 14.7344 122.074 14.7344C122.043 14.7344 121.941 14.7344 121.77 14.7344C121.613 14.7188 121.512 14.7109 121.465 14.7109C121.559 14.3672 121.73 14.0625 121.98 13.7969C122.23 13.5156 122.512 13.2812 122.824 13.0938C123.152 12.8906 123.488 12.7266 123.832 12.6016C124.191 12.4609 124.512 12.3516 124.793 12.2734C125.262 11.5391 125.645 10.8047 125.941 10.0703C126.238 9.32031 126.535 8.59375 126.832 7.89062C127.145 7.17188 127.504 6.49219 127.91 5.85156C128.332 5.19531 128.895 4.59375 129.598 4.04688L129.715 4.9375L126.785 11.8047C126.957 11.7578 127.168 11.7109 127.418 11.6641C127.668 11.6172 127.918 11.5703 128.168 11.5234C128.434 11.4766 128.684 11.4375 128.918 11.4062C129.168 11.3594 129.379 11.3125 129.551 11.2656C129.566 11.2656 129.613 11.2656 129.691 11.2656C129.77 11.25 129.832 11.2422 129.879 11.2422C130.098 11.2422 130.277 11.2812 130.418 11.3594C130.559 11.4375 130.676 11.6094 130.77 11.875C129.707 12.1875 128.746 12.5156 127.887 12.8594C127.027 13.2031 126.277 13.6562 125.637 14.2188C125.012 14.7656 124.496 15.4688 124.09 16.3281C123.699 17.1719 123.426 18.2578 123.27 19.5859C123.27 19.8672 123.285 20.125 123.316 20.3594C123.348 20.5938 123.543 20.7344 123.902 20.7812C124.262 20.7812 124.598 20.7109 124.91 20.5703C125.223 20.4297 125.527 20.2812 125.824 20.125C126.121 19.9531 126.418 19.7969 126.715 19.6562C127.027 19.5156 127.363 19.4453 127.723 19.4453C127.723 19.8203 127.559 20.1641 127.23 20.4766C126.902 20.7891 126.504 21.0625 126.035 21.2969C125.582 21.5312 125.113 21.7109 124.629 21.8359C124.145 21.9609 123.746 22.0234 123.434 22.0234C123.121 22.0234 122.84 21.9609 122.59 21.8359C122.34 21.7109 122.129 21.5469 121.957 21.3438C121.801 21.125 121.676 20.875 121.582 20.5938C121.504 20.3125 121.465 20.0234 121.465 19.7266ZM127.934 20.4766C128.074 19.5859 128.34 18.7656 128.73 18.0156C129.121 17.2656 129.566 16.6172 130.066 16.0703C130.582 15.5078 131.137 15.0469 131.73 14.6875C132.324 14.3281 132.902 14.1016 133.465 14.0078C134.027 13.8984 134.543 13.9219 135.012 14.0781C135.496 14.2344 135.887 14.5469 136.184 15.0156C136.184 15.375 136.098 15.7188 135.926 16.0469C135.77 16.375 135.59 16.7031 135.387 17.0312C135.199 17.3594 135.02 17.6953 134.848 18.0391C134.691 18.3828 134.613 18.75 134.613 19.1406C134.613 19.5469 134.699 19.875 134.871 20.125C135.059 20.3594 135.379 20.4766 135.832 20.4766C136.207 20.4766 136.566 20.4219 136.91 20.3125C137.27 20.2031 137.629 20.1484 137.988 20.1484C138.051 20.1484 138.152 20.1562 138.293 20.1719C138.449 20.1719 138.551 20.1719 138.598 20.1719C138.41 20.4375 138.168 20.6641 137.871 20.8516C137.574 21.0391 137.262 21.2031 136.934 21.3438C136.605 21.4688 136.262 21.5625 135.902 21.625C135.559 21.6875 135.238 21.7188 134.941 21.7188C134.66 21.7188 134.41 21.6562 134.191 21.5312C133.973 21.4062 133.785 21.2422 133.629 21.0391C133.473 20.8359 133.348 20.6094 133.254 20.3594C133.176 20.0938 133.137 19.8359 133.137 19.5859C132.902 19.8516 132.645 20.1328 132.363 20.4297C132.098 20.7109 131.809 20.9688 131.496 21.2031C131.199 21.4375 130.871 21.6328 130.512 21.7891C130.168 21.9453 129.809 22.0234 129.434 22.0234C129.027 22.0234 128.676 21.875 128.379 21.5781C128.082 21.2656 127.934 20.8984 127.934 20.4766ZM129.48 19.75C129.48 19.875 129.48 20.0156 129.48 20.1719C129.496 20.3281 129.598 20.4297 129.785 20.4766C130.176 20.3828 130.621 20.1797 131.121 19.8672C131.621 19.5391 132.09 19.1641 132.527 18.7422C132.965 18.3047 133.332 17.8438 133.629 17.3594C133.926 16.8594 134.074 16.3828 134.074 15.9297C134.074 15.8984 134.066 15.8516 134.051 15.7891C134.051 15.7109 134.051 15.6562 134.051 15.625C133.52 15.625 132.98 15.7344 132.434 15.9531C131.887 16.1719 131.395 16.4766 130.957 16.8672C130.52 17.2422 130.16 17.6797 129.879 18.1797C129.613 18.6797 129.48 19.2031 129.48 19.75Z" fill="#222222"/>
</svg>
