<svg width="621" height="171" viewBox="0 0 621 171" fill="none" xmlns="http://www.w3.org/2000/svg">
<path d="M13.7217 131.247C13.5752 131.198 12.6963 131.052 11.085 130.808C9.47363 130.563 7.83789 130.075 6.17773 129.343C4.56641 128.659 3.27246 127.658 2.2959 126.34C0.879883 124.436 0.171875 122.312 0.171875 119.968C0.171875 117.282 0.977539 114.597 2.58887 111.911C4.24902 109.226 6.22656 106.857 8.52148 104.807C11.8418 101.828 14.8447 99.4844 17.5303 97.7754C24.8057 93.0391 31.9346 89.4014 38.917 86.8623C46.4365 84.1768 52.6377 82.834 57.5205 82.834C60.6943 82.834 63.2822 83.3223 65.2842 84.2988C66.8467 85.0312 68.0918 86.1543 69.0195 87.668C69.9961 89.1328 70.4844 90.8662 70.4844 92.8682C70.4844 93.6006 70.4111 94.3574 70.2646 95.1387C69.4346 99.6797 68.2139 101.95 66.6025 101.95C65.9189 101.95 65.2842 101.584 64.6982 100.852C64.1123 100.119 63.8193 99.46 63.8193 98.874C63.8193 98.5811 64.1367 97.5801 64.7715 95.8711C65.4551 94.1621 65.7969 92.7949 65.7969 91.7695C65.7969 89.7188 64.5762 88.4248 62.1348 87.8877C61.0117 87.6436 59.8643 87.5215 58.6924 87.5215C52.4424 87.5215 44.4834 89.7188 34.8154 94.1133C25.1963 98.5078 18.165 102.878 13.7217 107.224C13.4775 107.468 13.1113 107.785 12.623 108.176C12.1836 108.566 11.8418 108.884 11.5977 109.128C10.4258 110.349 9.20508 111.789 7.93555 113.449C5.88477 116.232 4.85938 118.845 4.85938 121.286C4.85938 122.849 5.44531 124.021 6.61719 124.802C8.375 125.925 11.7197 126.486 16.6514 126.486C17.8721 126.486 19.2148 126.438 20.6797 126.34C28.9805 125.803 37.8428 123.996 47.2666 120.92C55.9092 118.137 63.3066 114.841 69.459 111.032C79.6152 104.733 84.6934 98.4834 84.6934 92.2822C84.6934 90.5244 84.2783 88.8154 83.4482 87.1553C82.0322 84.3232 79.542 81.54 75.9775 78.8057C72.4619 76.0713 67.9941 73.1172 62.5742 69.9434C57.2031 66.7695 53.4678 64.4258 51.3682 62.9121C49.8057 61.7891 48.4385 60.7393 47.2666 59.7627C46.0947 58.7373 44.752 57.3945 43.2383 55.7344C41.7734 54.0742 40.626 52.2432 39.7959 50.2412C39.0146 48.2393 38.624 46.1641 38.624 44.0156C38.624 41.7207 39.0879 39.5479 40.0156 37.4971C40.9434 35.3975 41.8955 33.7861 42.8721 32.6631C43.8975 31.4912 45.3623 29.9775 47.2666 28.1221C48.6338 26.7549 50.9043 25.1191 54.0781 23.2148C57.252 21.3105 59.9375 19.8457 62.1348 18.8203C66.2363 16.8672 70.0205 15.3047 73.4873 14.1328C82.2764 11.1543 90.9678 9.15234 99.5615 8.12695C103.468 7.63867 107.105 7.39453 110.475 7.39453C117.604 7.39453 123.463 8.39551 128.053 10.3975C134.156 13.0342 137.208 17.3555 137.208 23.3613C137.208 25.8027 136.622 28.4395 135.45 31.2715C134.425 33.8594 132.374 37.1797 129.298 41.2324C128.175 42.7949 127.198 43.5762 126.368 43.5762C125.636 43.5762 124.952 43.1855 124.317 42.4043C123.341 41.3789 123.243 40.3291 124.024 39.2549C124.171 39.0596 124.342 38.8398 124.537 38.5957C124.732 38.3516 124.952 38.1074 125.196 37.8633C125.44 37.5703 125.636 37.3262 125.782 37.1309C126.808 35.959 127.906 34.3477 129.078 32.2969C130.25 30.2461 131.104 28.4639 131.642 26.9502C132.276 25.1924 132.594 23.5811 132.594 22.1162C132.594 19.333 131.3 17.1357 128.712 15.5244C125.196 13.3271 119.508 12.2285 111.646 12.2285C108.131 12.2285 104.493 12.4482 100.733 12.8877C92.6768 13.9131 84.0342 15.9883 74.8057 19.1133C71.8271 20.1387 68.7266 21.4326 65.5039 22.9951C62.2812 24.5088 58.9121 26.3887 55.3965 28.6348C51.8809 30.832 48.9756 33.3955 46.6807 36.3252C44.4346 39.2061 43.3115 42.1113 43.3115 45.041C43.3115 46.75 43.7998 48.5811 44.7764 50.5342C46.1924 53.3174 49.0488 56.2227 53.3457 59.25C57.6426 62.2285 62.4766 65.3047 67.8477 68.4785C73.2676 71.6523 77.125 74.2158 79.4199 76.1689C86.1582 81.833 89.5273 87.5459 89.5273 93.3076C89.5273 95.6025 88.9414 97.9951 87.7695 100.485C86.2559 103.659 83.8877 106.638 80.665 109.421L76.124 112.937C70.6553 116.989 63.502 120.578 54.6641 123.703C45.8262 126.877 37.3789 129.099 29.3223 130.368C28.9316 130.417 28.3213 130.49 27.4912 130.588C26.71 130.686 26.124 130.759 25.7334 130.808C25.5381 130.856 25.2451 130.881 24.8545 130.881C24.5127 130.881 24.2441 130.905 24.0488 130.954C23.7559 130.954 23.4141 131.003 23.0234 131.101C22.7793 131.149 22.6328 131.149 22.584 131.101C22.584 131.101 22.4863 131.149 22.291 131.247H13.7217Z" fill="black"/>
<path d="M104.542 81.1494C104.835 80.6123 105.274 79.7822 105.86 78.6592C106.495 77.4873 107.008 76.6084 107.398 76.0225C107.594 75.6807 108.058 74.8994 108.79 73.6787C109.522 72.458 110.084 71.5059 110.475 70.8223C112.184 67.8438 114.186 64.4014 116.48 60.4951L128.712 40.0605C134.229 31.0273 137.33 25.9736 138.014 24.8994C139.479 22.6533 140.553 20.9688 141.236 19.8457C141.48 19.4551 144.63 14.4502 150.685 4.83105L153.102 1.0957C153.248 0.802734 153.517 0.53418 153.907 0.290039L154.2 0.0703125H155.299L156.617 0.875977C157.838 1.9502 157.936 3.29297 156.91 4.9043C156.568 5.44141 156.056 6.22266 155.372 7.24805C154.688 8.27344 154.176 9.05469 153.834 9.5918C152.369 11.8867 150.318 15.1582 147.682 19.4062C145.045 23.6543 143.116 26.7549 141.896 28.708C138.868 33.4932 133.961 41.5498 127.174 52.8779L118.458 67.5264C117.774 68.7471 116.773 70.4561 115.455 72.6533C114.186 74.8506 113.307 76.3887 112.818 77.2676C113.697 77.0234 114.869 76.6572 116.334 76.1689C117.799 75.6807 119.166 75.2656 120.436 74.9238C121.705 74.5332 122.95 74.2158 124.171 73.9717C125.392 73.7275 126.368 73.6055 127.101 73.6055C128.321 73.6055 129.347 73.9229 130.177 74.5576C131.153 75.29 131.642 76.5352 131.642 78.293C131.642 78.7324 131.593 79.3916 131.495 80.2705H131.788C133.595 80.2705 137.599 79.0254 143.8 76.5352C144.093 76.4375 144.483 76.2666 144.972 76.0225C145.509 75.7295 145.973 75.5342 146.363 75.4365C146.754 75.29 147.12 75.2168 147.462 75.2168C148.194 75.2168 148.854 75.5098 149.439 76.0957C150.465 77.1211 150.685 78.1221 150.099 79.0986C149.903 79.4404 149.049 79.9287 147.535 80.5635C140.797 83.542 135.89 85.0312 132.813 85.0312C128.663 85.0312 126.661 82.8828 126.808 78.5859C125.343 78.7324 123.268 79.2451 120.582 80.124C115.211 81.8818 111.402 83.2002 109.156 84.0791C107.887 84.5674 106.91 84.6162 106.227 84.2256C105.836 84.0303 105.543 83.8105 105.348 83.5664C105.152 83.3223 104.981 83.0537 104.835 82.7607C104.688 82.4678 104.591 82.2725 104.542 82.1748V81.1494Z" fill="black"/>
<path d="M238.575 78.5127C238.526 78.5615 238.502 78.6104 238.502 78.6592C238.453 78.7568 238.429 78.8301 238.429 78.8789C238.429 78.9277 238.404 79.001 238.355 79.0986C238.355 79.1963 238.331 79.2695 238.282 79.3184C238.185 79.4648 237.989 79.6357 237.696 79.8311C237.306 80.0264 236.769 80.2705 236.085 80.5635C231.446 82.4678 228.102 83.7129 226.051 84.2988C224 84.8848 222.315 85.1777 220.997 85.1777C218.556 85.1777 216.798 84.3232 215.724 82.6143C215.528 82.3701 215.333 81.8086 215.138 80.9297C215.04 80.3926 214.991 79.6602 214.991 78.7324C212.892 79.123 209.84 79.9043 205.836 81.0762C205.006 81.3203 204.078 81.6133 203.053 81.9551C202.076 82.248 200.978 82.6143 199.757 83.0537C198.536 83.4443 197.633 83.7373 197.047 83.9326C196.266 84.1768 195.143 84.5674 193.678 85.1045C192.262 85.5928 191.236 85.9346 190.602 86.1299C189.674 86.4229 188.917 86.4229 188.331 86.1299C187.696 85.8369 187.159 85.3486 186.72 84.665C186.329 83.9326 186.329 83.2002 186.72 82.4678C186.817 82.3213 187.159 81.7109 187.745 80.6367C188.38 79.5137 188.722 78.8789 188.771 78.7324L186.134 79.7578C181.642 81.418 177.906 82.248 174.928 82.248C173.365 82.248 172.047 81.9551 170.973 81.3691C170.631 81.1738 170.289 80.9053 169.947 80.5635L169.508 80.124C169.117 79.6846 168.824 79.0498 168.629 78.2197V76.4619C160.23 78.708 154.469 80.0508 151.344 80.4902C150.27 80.5879 149.513 80.6367 149.073 80.6367C146.974 80.6367 145.558 79.9043 144.825 78.4395C144.19 77.2188 144.508 75.9736 145.777 74.7041C147.584 72.8975 151.124 71.7012 156.397 71.1152C157.179 70.9688 157.911 70.9443 158.595 71.042C159.278 71.0908 159.889 71.4326 160.426 72.0674C160.523 72.165 160.743 72.5557 161.085 73.2393L164.088 72.5068C165.357 72.1162 166.334 71.8232 167.018 71.6279C169.654 70.9443 171.632 70.4072 172.95 70.0166C173.731 69.8213 174.244 69.748 174.488 69.7969C175.172 69.9434 175.758 70.334 176.246 70.9688C176.783 71.6035 177.003 72.2871 176.905 73.0195C176.856 73.3125 176.563 73.8008 176.026 74.4844L174.928 75.7295C174.342 76.4619 173.951 77.0234 173.756 77.4141C173.805 77.4141 173.878 77.4385 173.976 77.4873C174.073 77.4873 174.171 77.4873 174.269 77.4873C176.026 77.4873 178.883 76.8281 182.838 75.5098C183.961 75.168 185.279 74.6553 186.793 73.9717L189.576 72.6533C191.041 71.9209 192.237 71.2617 193.165 70.6758C193.214 70.627 193.336 70.5537 193.531 70.4561C193.775 70.3096 193.922 70.2119 193.971 70.1631C194.068 70.1143 194.215 70.0654 194.41 70.0166C194.605 69.9678 194.776 69.9434 194.923 69.9434C195.069 69.9434 195.24 69.9922 195.436 70.0898C195.68 70.1387 195.924 70.2363 196.168 70.3828C196.363 70.4805 196.51 70.5781 196.607 70.6758C196.656 70.7246 196.705 70.7734 196.754 70.8223C196.803 70.9199 196.852 70.9932 196.9 71.042C197.193 71.335 197.389 71.6035 197.486 71.8477C197.828 72.5312 197.828 73.2393 197.486 73.9717L194.483 79.3916L201.661 77.0479C201.759 76.999 203.59 76.4619 207.154 75.4365C207.789 75.2412 208.399 75.0703 208.985 74.9238C209.913 74.6309 211.207 74.3379 212.867 74.0449C214.039 73.8496 214.869 73.752 215.357 73.752C217.359 73.752 218.751 74.582 219.532 76.2422C219.825 76.8281 219.972 77.4873 219.972 78.2197C219.972 78.4639 219.923 78.8545 219.825 79.3916C219.776 79.8799 219.752 80.2217 219.752 80.417C221.119 80.3682 222.95 79.9775 225.245 79.2451C227.687 78.415 230.86 77.1455 234.767 75.4365C235.597 75.0947 236.451 75.2656 237.33 75.9492C237.867 76.3398 238.233 76.8037 238.429 77.3408C238.429 77.3896 238.429 77.5117 238.429 77.707C238.478 77.9023 238.526 78.0244 238.575 78.0732V78.5127Z" fill="black"/>
<path d="M282.667 4.61133C282.032 5.63672 281.08 7.05273 279.811 8.85938C278.59 10.6172 277.735 11.8623 277.247 12.5947C271.827 20.6514 266.651 28.7812 261.72 36.9844C261.183 37.9121 260.328 39.2793 259.156 41.0859C257.984 42.8926 257.13 44.2598 256.593 45.1875C256.056 46.1152 255.226 47.5068 254.103 49.3623C252.979 51.1689 252.125 52.5361 251.539 53.4639C245.631 63.1807 242.335 68.7471 241.651 70.1631L251.832 63.5713C252.271 63.2783 252.711 63.1318 253.15 63.1318C253.785 63.1318 254.347 63.3516 254.835 63.791C255.372 64.2305 255.738 64.7188 255.934 65.2559C256.178 65.8906 255.958 66.6963 255.274 67.6729C254.835 68.2588 254.298 68.8447 253.663 69.4307C252.833 70.1143 248.951 72.9463 242.018 77.9268C241.041 78.6592 240.431 79.1475 240.187 79.3916C240.968 79.3916 242.53 79.1963 244.874 78.8057C245.411 78.708 246.192 78.5859 247.218 78.4395C248.243 78.2441 248.976 78.1221 249.415 78.0732L267.213 74.9971C267.848 74.9971 268.434 75.2168 268.971 75.6562C269.557 76.0957 269.923 76.6084 270.069 77.1943C270.362 77.8291 270.362 78.3418 270.069 78.7324C269.825 79.123 269.532 79.3916 269.19 79.5381C268.897 79.6846 268.434 79.8066 267.799 79.9043C255.641 82.1992 246.607 83.6641 240.699 84.2988C238.697 84.4941 237.159 84.5918 236.085 84.5918H234.986C234.791 84.5918 234.645 84.6162 234.547 84.665C234.449 84.665 234.352 84.6895 234.254 84.7383C234.156 84.7383 234.034 84.7871 233.888 84.8848C233.79 84.9824 233.692 85.0801 233.595 85.1777C233.546 85.2754 233.399 85.4707 233.155 85.7637C232.911 86.0078 232.691 86.252 232.496 86.4961C232.203 86.7891 230.909 89.0107 228.614 93.1611C226.856 96.2373 224.659 100.51 222.022 105.979C219.386 111.398 217.652 115.427 216.822 118.063C216.822 118.112 216.749 118.43 216.603 119.016C216.456 119.65 216.334 120.139 216.236 120.48C216.09 120.822 215.87 121.164 215.577 121.506C215.284 121.848 214.918 122.019 214.479 122.019C214.039 122.019 213.624 121.921 213.233 121.726C212.062 121.14 211.476 120.212 211.476 118.942C211.476 118.601 211.671 117.722 212.062 116.306C213.722 110.69 217.896 101.804 224.586 89.6455C224.732 89.4014 224.806 89.0596 224.806 88.6201C224.806 88.1807 224.903 87.8145 225.099 87.5215C225.489 86.8867 226.026 86.1543 226.71 85.3242C227.345 84.4453 227.882 83.6152 228.321 82.834C228.858 82.0039 229.176 81.4668 229.273 81.2227C229.322 81.0762 229.371 80.832 229.42 80.4902C229.42 80.1484 229.444 79.8799 229.493 79.6846C229.542 79.4404 229.688 79.123 229.933 78.7324C230.177 78.3418 230.494 77.9756 230.885 77.6338C231.422 77.1455 231.837 76.6572 232.13 76.1689L248.536 48.3369C249.22 47.165 250.245 45.5049 251.612 43.3564C252.979 41.1592 253.956 39.5479 254.542 38.5225C255.177 37.4482 256.178 35.8369 257.545 33.6885C258.912 31.54 259.913 29.9287 260.548 28.8545C261.817 26.7061 263.16 24.582 264.576 22.4824L268.678 16.0371C268.775 15.8418 268.946 15.5732 269.19 15.2314C269.435 14.8896 269.63 14.6211 269.776 14.4258C269.923 14.2305 270.094 13.9619 270.289 13.6201C270.484 13.2783 270.631 13.0342 270.729 12.8877L276.002 5.05078C276.1 4.95312 276.246 4.7334 276.441 4.3916C276.686 4.00098 276.881 3.70801 277.027 3.5127C277.223 3.31738 277.442 3.02441 277.687 2.63379C277.931 2.24316 278.126 1.97461 278.272 1.82812C278.419 1.63281 278.614 1.48633 278.858 1.38867C279.151 1.24219 279.493 1.16895 279.884 1.16895C280.323 1.16895 280.714 1.29102 281.056 1.53516C281.446 1.73047 281.715 1.9502 281.861 2.19434C282.008 2.38965 282.179 2.6582 282.374 3C282.569 3.3418 282.667 3.53711 282.667 3.58594V4.61133Z" fill="black"/>
<path d="M274.83 104.44C274.537 104.44 274.098 104.514 273.512 104.66C272.975 104.758 272.608 104.807 272.413 104.807C262.794 106.125 254.493 108.2 247.511 111.032C243.36 112.741 239.674 114.719 236.451 116.965L236.085 117.331C234.864 118.356 233.985 119.113 233.448 119.602C229.64 123.41 227.735 127.731 227.735 132.565C227.735 133.835 227.833 135.031 228.028 136.154C228.37 138.156 229.054 140.305 230.079 142.6C230.323 143.137 230.689 143.698 231.178 144.284C232.984 146.579 235.23 147.727 237.916 147.727C238.404 147.727 238.771 147.702 239.015 147.653C241.993 147.263 245.582 145.188 249.781 141.428C250.514 140.793 252.125 139.108 254.615 136.374C254.713 136.325 254.811 136.203 254.908 136.008C255.006 135.812 255.104 135.666 255.201 135.568C256.227 134.396 257.472 132.81 258.937 130.808L262.452 125.827C264.161 123.239 265.26 121.53 265.748 120.7L268.897 115.354C269.044 115.158 269.215 114.865 269.41 114.475C269.605 114.084 269.776 113.791 269.923 113.596C270.362 112.912 271.266 111.276 272.633 108.688C274.049 106.052 274.781 104.636 274.83 104.44ZM222.975 129.27L223.121 128.83V128.464C223.121 128.366 223.17 128.122 223.268 127.731C223.902 124.313 225.343 121.14 227.589 118.21C228.858 116.55 230.934 114.621 233.814 112.424C234.449 111.936 235.865 111.032 238.062 109.714C239.381 108.981 240.919 108.225 242.677 107.443C251.515 103.684 262.623 100.998 276.002 99.3867C276.734 99.3867 277.247 99.3135 277.54 99.167C277.589 99.1182 277.735 98.8496 277.979 98.3613C278.272 97.8242 278.614 97.165 279.005 96.3838C279.396 95.6025 279.762 94.8457 280.104 94.1133C280.445 93.3809 280.738 92.7217 280.982 92.1357C281.275 91.501 281.446 91.1592 281.495 91.1104C281.739 90.5732 282.105 89.792 282.594 88.7666C283.082 87.6924 283.448 86.8867 283.692 86.3496C283.839 86.0566 284.034 85.666 284.278 85.1777C284.522 84.6895 284.693 84.2988 284.791 84.0059C285.426 82.6387 285.768 81.8086 285.816 81.5156C285.523 81.6133 285.035 81.833 284.352 82.1748C280.299 83.8838 276.979 85.1533 274.391 85.9834C271.656 86.9111 269.508 87.3994 267.945 87.4482H267.799C266.725 87.4482 265.772 87.1553 264.942 86.5693C264.112 85.9346 263.551 85.1777 263.258 84.2988C263.111 83.8105 263.038 83.2734 263.038 82.6875C263.038 80.5879 264.21 77.7314 266.554 74.1182C267.188 73.3857 267.848 73.0928 268.531 73.2393C269.264 73.3857 269.898 73.7764 270.436 74.4111C270.777 74.8506 270.973 75.29 271.021 75.7295C271.07 76.1689 271.07 76.5107 271.021 76.7549C270.973 76.9502 270.802 77.292 270.509 77.7803C270.216 78.2197 270.045 78.4639 269.996 78.5127C268.727 80.8564 268.092 82.1748 268.092 82.4678C268.482 82.3213 269.044 82.1748 269.776 82.0283C270.509 81.8818 271.046 81.7354 271.388 81.5889C274.708 80.4658 277.784 79.2939 280.616 78.0732C283.302 76.9502 286.256 75.6807 289.479 74.2646C289.771 74.1182 290.04 74.0449 290.284 74.0449C291.017 74.0449 291.676 74.3379 292.262 74.9238C292.896 75.4609 293.214 76.1445 293.214 76.9746C293.214 77.4141 293.116 77.8291 292.921 78.2197C292.774 78.5615 292.555 79.0742 292.262 79.7578C292.018 80.3926 291.822 80.8809 291.676 81.2227C291.383 81.9062 290.943 82.8828 290.357 84.1523C289.82 85.4219 289.405 86.3984 289.112 87.082C288.771 87.8633 288.233 89.0107 287.501 90.5244C286.817 91.9893 286.451 92.7949 286.402 92.9414C284.986 95.7734 284.083 97.6777 283.692 98.6543L289.625 98.2881C290.26 98.2393 291.236 98.2148 292.555 98.2148C293.922 98.166 294.923 98.1172 295.558 98.0684C296.095 98.0195 296.974 97.9951 298.194 97.9951H301.783C309.303 97.9951 316.163 98.3613 322.364 99.0938C322.511 99.0938 322.828 99.1182 323.316 99.167C323.854 99.2158 324.22 99.2646 324.415 99.3135C324.61 99.3623 324.879 99.4355 325.221 99.5332C325.611 99.6309 325.929 99.8018 326.173 100.046C326.417 100.241 326.637 100.485 326.832 100.778C327.418 101.56 327.54 102.341 327.198 103.122C326.905 103.806 326.295 104.147 325.367 104.147C325.074 104.147 324.586 104.099 323.902 104.001C323.268 103.854 322.779 103.781 322.438 103.781C315.504 103.098 308.668 102.756 301.93 102.756C296.51 102.756 291.48 102.927 286.842 103.269C286.451 103.269 285.499 103.342 283.985 103.488C282.472 103.635 281.52 103.708 281.129 103.708C280.934 104.099 280.616 104.733 280.177 105.612C279.737 106.442 279.42 107.053 279.225 107.443C279.127 107.639 278.956 107.956 278.712 108.396C278.517 108.786 278.37 109.079 278.272 109.274C277.833 110.153 277.149 111.423 276.222 113.083C275.294 114.694 274.659 115.817 274.317 116.452C271.925 120.749 269.459 124.802 266.92 128.61C266.285 129.587 265.919 130.148 265.821 130.295C265.772 130.344 265.577 130.563 265.235 130.954C264.942 131.394 264.747 131.711 264.649 131.906C263.966 132.932 263.185 134.03 262.306 135.202C260.938 137.058 259.693 138.62 258.57 139.89L256.593 142.087C256.3 142.38 256.08 142.624 255.934 142.819C255.689 143.112 255.177 143.625 254.396 144.357C253.565 145.139 253.126 145.554 253.077 145.603C253.028 145.651 252.979 145.7 252.931 145.749C252.833 145.798 252.76 145.847 252.711 145.896C249.928 148.386 247.291 150.168 244.801 151.242C243.922 151.633 242.848 151.95 241.578 152.194C241.285 152.292 241.09 152.341 240.992 152.341L240.553 152.414H240.479H240.406H237.477L236.524 152.268C236.427 152.268 236.305 152.243 236.158 152.194C235.963 152.146 235.816 152.097 235.719 152.048C234.303 151.706 232.887 151.047 231.471 150.07C230.641 149.484 229.688 148.63 228.614 147.507C227.491 146.433 226.734 145.529 226.344 144.797C225.953 144.064 225.343 142.6 224.513 140.402C224.171 139.426 223.878 138.352 223.634 137.18L222.975 133.664V129.27Z" fill="black"/>
<path d="M347.34 165.744C352.955 165.744 359.01 164.035 365.504 160.617C371.998 157.248 377.516 153.684 382.057 149.924C386.061 146.555 389.381 143.527 392.018 140.842C394.703 138.205 397.657 134.934 400.88 131.027C403.663 127.658 405.519 125.314 406.446 123.996C401.759 124.387 393.287 126.169 381.031 129.343C373.414 131.345 365.895 134.03 358.473 137.399C351.344 140.622 345.265 144.797 340.235 149.924C339.063 151.096 338.014 152.609 337.086 154.465C336.256 156.125 335.841 157.663 335.841 159.079C335.841 161.276 336.866 162.937 338.917 164.06C341.017 165.183 343.824 165.744 347.34 165.744ZM345.436 170.505C344.996 170.358 344.117 170.163 342.799 169.919C341.48 169.724 340.504 169.504 339.869 169.26C336.158 167.893 333.595 165.671 332.179 162.595C331.495 161.13 331.153 159.567 331.153 157.907C331.153 157.272 331.178 156.784 331.227 156.442C331.764 152.097 334.498 147.702 339.43 143.259C343.141 139.89 347.804 136.789 353.419 133.957C359.034 131.174 365.04 128.806 371.437 126.853C377.882 124.948 384.034 123.337 389.894 122.019C395.802 120.749 401.832 119.675 407.984 118.796C408.277 118.747 408.644 118.698 409.083 118.649C409.571 118.601 409.864 118.552 409.962 118.503C410.06 118.454 410.23 118.381 410.475 118.283C410.719 118.234 410.914 118.088 411.061 117.844C411.207 117.648 411.354 117.404 411.5 117.111C411.695 116.867 411.964 116.477 412.306 115.939C412.599 115.451 413.062 114.743 413.697 113.815C414.381 112.839 414.869 112.106 415.162 111.618C423.17 98.9717 429.884 86.5938 435.304 74.4844C438.038 68.332 439.503 64.9629 439.698 64.377L433.326 69.5771C432.057 70.749 430.226 72.2871 427.833 74.1914C425.489 76.0957 423.829 77.4873 422.853 78.3662L392.237 101.73C391.7 102.072 390.919 102.609 389.894 103.342C388.868 104.025 388.087 104.538 387.55 104.88C381.69 108.884 375.27 112.497 368.287 115.72C361.354 118.894 355.006 120.48 349.244 120.48C346.998 120.48 344.801 120.139 342.652 119.455C339.186 118.283 336.28 116.013 333.937 112.644C331.642 109.274 330.494 105.393 330.494 100.998C330.494 94.3574 333.399 86.7891 339.21 78.293C340.333 76.6328 341.407 75.168 342.433 73.8984C345.46 70.0898 347.853 67.3066 349.61 65.5488C357.765 57.541 363.087 52.6338 365.577 50.8271C365.968 50.5342 366.651 49.9727 367.628 49.1426C368.604 48.3125 369.386 47.7021 369.972 47.3115C370.558 46.9209 371.363 46.3105 372.389 45.4805C373.463 44.6504 374.098 44.1621 374.293 44.0156C379.615 40.0605 384.205 36.8623 388.062 34.4209C402.711 24.9971 416.407 18.0146 429.151 13.4736C438.233 10.2021 445.851 8.56641 452.003 8.56641C453.272 8.56641 454.2 8.59082 454.786 8.63965C459.913 9.12793 463.648 10.7637 465.992 13.5469C468.336 16.2812 469.508 19.7725 469.508 24.0205C469.508 28.1709 468.556 32.6387 466.651 37.4238C466.505 37.7168 466.31 38.1807 466.065 38.8154C465.821 39.4502 465.65 39.9141 465.553 40.207C465.162 41.1836 464.796 41.7451 464.454 41.8916C464.21 42.0381 463.893 42.1113 463.502 42.1113C462.818 42.1113 462.159 41.8672 461.524 41.3789C460.938 40.8418 460.646 40.1338 460.646 39.2549C460.646 38.7178 460.792 38.1318 461.085 37.4971C463.575 31.833 464.82 26.9502 464.82 22.8486C464.82 18.6982 463.404 15.9639 460.572 14.6455C458.57 13.6689 456.031 13.1807 452.955 13.1807C441.627 13.1807 424.903 19.333 402.784 31.6377C397.706 34.4209 392.945 37.3506 388.502 40.4268C379.225 46.7256 371.534 52.5361 365.431 57.8584C361.524 61.2764 358.399 64.1816 356.056 66.5742C353.761 68.918 350.807 72.1895 347.193 76.3887C344.166 79.8555 341.407 83.9814 338.917 88.7666C336.476 93.5029 335.255 97.9951 335.255 102.243C335.255 104.88 335.865 107.321 337.086 109.567C339.381 113.718 343.067 115.793 348.146 115.793C349.952 115.793 351.832 115.573 353.785 115.134C363.99 112.985 377.491 105.905 394.288 93.8936L402.052 88.1807C404.737 86.1299 409.034 82.7363 414.942 78C420.899 73.2148 424.806 69.9678 426.661 68.2588L437.208 59.4697C437.696 59.1279 438.404 58.5664 439.332 57.7852C440.26 57.0039 440.968 56.4424 441.456 56.1006C442.921 55.0264 444.068 54.4893 444.898 54.4893C445.631 54.4893 446.314 54.8066 446.949 55.4414C447.486 55.9785 447.755 56.6621 447.755 57.4922C447.755 58.127 447.389 59.3232 446.656 61.0811L439.698 77.4141C433.692 90.3535 427.369 102.121 420.729 112.717C420.533 113.01 420.045 113.742 419.264 114.914C418.531 116.037 418.019 116.867 417.726 117.404L437.062 115.72C448.048 114.987 459.571 114.621 471.632 114.621C475.685 114.621 481.52 114.719 489.137 114.914C489.869 114.914 490.699 114.914 491.627 114.914C492.555 114.914 493.189 114.938 493.531 114.987C493.873 114.987 494.264 115.012 494.703 115.061C495.191 115.109 495.558 115.231 495.802 115.427C496.046 115.622 496.314 115.866 496.607 116.159C496.9 116.452 497.242 116.843 497.633 117.331V118.649C497.047 119.479 496.339 119.895 495.509 119.895C495.46 119.895 494.459 119.846 492.506 119.748L473.829 119.455C473.585 119.455 473.146 119.431 472.511 119.382C471.876 119.382 471.388 119.382 471.046 119.382C463.185 119.382 453.077 119.724 440.724 120.407C428.37 121.091 419.703 121.896 414.723 122.824C414.381 122.873 414.088 122.971 413.844 123.117C413.648 123.264 413.526 123.361 413.478 123.41C413.429 123.508 413.258 123.776 412.965 124.216C412.818 124.46 412.599 124.777 412.306 125.168C412.013 125.559 411.793 125.852 411.646 126.047L406.227 133.005C406.08 133.2 405.494 133.859 404.469 134.982C403.492 136.154 402.882 136.862 402.638 137.106C402.394 137.399 401.832 138.059 400.953 139.084C400.074 140.109 399.439 140.817 399.049 141.208C398.658 141.599 398.072 142.209 397.291 143.039C396.51 143.918 395.851 144.602 395.313 145.09C394.825 145.627 394.215 146.237 393.482 146.921C392.799 147.653 392.14 148.312 391.505 148.898C390.87 149.484 390.211 150.07 389.527 150.656C385.23 154.367 381.104 157.517 377.149 160.104C374.562 161.765 371.949 163.278 369.312 164.646C364.674 167.038 360.06 168.723 355.47 169.699C355.274 169.748 354.444 169.87 352.979 170.065C351.515 170.261 350.636 170.407 350.343 170.505H345.436Z" fill="black"/>
<path d="M455.079 77.707C456.642 77.6582 458.888 77.0479 461.817 75.876C464.747 74.6553 467.286 73.459 469.435 72.2871C470.655 71.6035 471.437 71.2861 471.778 71.335C472.218 71.3838 472.608 71.5059 472.95 71.7012C473.341 71.8965 473.634 72.165 473.829 72.5068C474.073 72.7998 474.244 73.0928 474.342 73.3857C474.488 73.6299 474.61 73.9473 474.708 74.3379C474.854 74.6797 474.928 74.875 474.928 74.9238C476.051 77.4629 478.419 78.7324 482.032 78.7324C485.499 78.7324 489.698 77.6826 494.63 75.583C495.948 75.0459 496.754 74.7773 497.047 74.7773C497.779 74.8262 498.438 75.1436 499.024 75.7295C499.61 76.2666 499.903 76.9014 499.903 77.6338C499.903 77.7803 499.854 78.0488 499.757 78.4395C499.562 78.9277 498.927 79.3916 497.853 79.8311C496.925 80.2705 496.168 80.5879 495.582 80.7832C490.797 82.5898 486.671 83.4932 483.204 83.4932C477.882 83.4932 473.902 81.3936 471.266 77.1943L466.358 79.5381C461.964 81.4912 458.546 82.4678 456.104 82.4678C455.519 82.4678 455.104 82.4434 454.859 82.3945C453.59 82.1504 452.491 81.5156 451.563 80.4902C450.636 79.4648 450.172 78.293 450.172 76.9746C450.172 75.8516 450.514 74.7773 451.197 73.752C451.588 73.2148 452.198 72.5312 453.028 71.7012C453.858 70.8711 454.493 70.3828 454.933 70.2363C455.079 70.1875 455.274 70.1631 455.519 70.1631C456.251 70.1631 456.91 70.4805 457.496 71.1152C458.131 71.7012 458.448 72.3604 458.448 73.0928C458.448 73.3857 458.424 73.6055 458.375 73.752C458.277 74.0449 458.009 74.3623 457.569 74.7041C457.276 74.9482 456.959 75.2412 456.617 75.583C455.689 76.5107 455.177 77.2188 455.079 77.707Z" fill="black"/>
<path d="M453.102 152.487C453.346 152.097 453.932 150.998 454.859 149.191C455.738 147.385 456.3 146.237 456.544 145.749L467.091 126.12C474.513 112.595 484.181 95.3828 496.095 74.4844C496.339 74.0938 496.51 73.8252 496.607 73.6787C496.705 73.5322 496.9 73.3369 497.193 73.0928C497.535 72.7998 497.828 72.7021 498.072 72.7998C498.316 72.8486 498.707 72.9219 499.244 73.0195C499.781 73.2637 500.245 73.6787 500.636 74.2646C501.026 74.8506 501.173 75.4609 501.075 76.0957C501.075 76.291 500.343 77.6826 498.878 80.2705C497.413 82.8584 495.729 85.8125 493.824 89.1328C491.92 92.4531 490.797 94.4307 490.455 95.0654C490.455 95.1143 490.431 95.1875 490.382 95.2852C490.333 95.334 490.309 95.3828 490.309 95.4316L497.853 87.7412C498.634 87.1064 499.098 86.6914 499.244 86.4961L501.954 84.0791C502.296 83.7861 502.955 83.2246 503.932 82.3945C504.908 81.5645 505.641 80.9541 506.129 80.5635C506.471 80.3193 506.959 79.9531 507.594 79.4648C508.229 78.9766 508.717 78.6104 509.059 78.3662C509.352 78.1709 509.645 77.9756 509.938 77.7803C510.279 77.5361 510.646 77.292 511.036 77.0479C511.476 76.8037 511.817 76.584 512.062 76.3887C517.335 72.9219 521.729 71.1885 525.245 71.1885C526.026 71.1885 526.588 71.2373 526.93 71.335C528.053 71.6279 529.005 72.2139 529.786 73.0928C530.567 73.9229 530.958 74.9482 530.958 76.1689C530.958 76.4619 530.909 76.9014 530.812 77.4873C530.616 78.3174 530.055 79.4404 529.127 80.8564C528.248 82.2236 527.516 83.1514 526.93 83.6396L527.003 83.7129H527.076C528.004 83.7129 529.713 83.3467 532.203 82.6143C534.693 81.8818 536.524 81.2959 537.696 80.8564C541.7 79.2939 545.484 77.3408 549.049 74.9971C549.439 74.7041 549.952 74.5576 550.587 74.5576C551.319 74.5576 551.954 74.8506 552.491 75.4365C553.077 76.0225 553.37 76.6816 553.37 77.4141C553.37 78.0977 553.102 78.6348 552.564 79.0254L548.316 81.5889C546.314 82.6143 544.801 83.3711 543.775 83.8594C536.939 86.9355 529.591 88.7178 521.729 89.2061C520.118 89.3037 519.093 89.2305 518.653 88.9863C517.872 88.5469 517.335 87.9365 517.042 87.1553C516.944 86.7646 516.896 86.4961 516.896 86.3496C516.896 86.0566 516.969 85.7637 517.115 85.4707C517.311 85.1289 517.481 84.8848 517.628 84.7383C517.823 84.5918 518.141 84.3477 518.58 84.0059C519.068 83.6152 519.41 83.3467 519.605 83.2002C523.707 79.5381 525.782 77.1211 525.831 75.9492C524.171 76.0957 522.022 76.8525 519.386 78.2197C516.798 79.5381 514.747 80.7832 513.233 81.9551L510.523 83.9326C510.23 84.1768 509.791 84.5186 509.205 84.958C508.619 85.3975 508.18 85.7393 507.887 85.9834C507.74 86.1299 507.521 86.3008 507.228 86.4961C506.983 86.6914 506.788 86.8623 506.642 87.0088L502.906 90.3047C502.564 90.5977 502.125 91.0127 501.588 91.5498C501.051 92.0869 500.685 92.4287 500.489 92.5752C499.366 93.6006 496.363 96.7988 491.48 102.17L484.083 111.179C483.644 111.716 482.96 112.619 482.032 113.889C481.056 115.158 480.396 116.013 480.055 116.452C479.957 116.599 479.786 116.818 479.542 117.111C479.298 117.404 479.127 117.624 479.029 117.771C478.785 118.112 478.443 118.625 478.004 119.309C477.516 119.992 477.223 120.407 477.125 120.554C476.246 121.726 475.611 122.629 475.221 123.264C472.73 127.023 470.948 129.929 469.874 131.979C469.142 133.347 468.043 135.349 466.578 137.985C466.139 138.718 465.553 139.792 464.82 141.208C464.088 142.673 463.6 143.625 463.355 144.064L458.595 153.22C458.546 153.366 458.473 153.537 458.375 153.732C458.277 153.928 458.204 154.074 458.155 154.172C458.106 154.27 458.058 154.367 458.009 154.465C457.911 154.611 457.838 154.709 457.789 154.758C457.691 154.855 457.618 154.953 457.569 155.051C457.472 155.197 457.374 155.295 457.276 155.344C457.179 155.441 457.081 155.539 456.983 155.637C456.837 155.734 456.69 155.832 456.544 155.93H455.592C455.494 155.881 455.25 155.759 454.859 155.563C454.469 155.368 454.176 155.173 453.98 154.978C453.834 154.831 453.736 154.66 453.688 154.465C453.59 154.318 453.492 154.123 453.395 153.879C453.297 153.684 453.199 153.513 453.102 153.366V152.487ZM453.102 155.93V153.366C453.15 153.464 453.272 153.708 453.468 154.099C453.614 154.489 453.785 154.782 453.98 154.978C454.176 155.173 454.469 155.368 454.859 155.563C455.25 155.759 455.494 155.881 455.592 155.93H453.102Z" fill="black"/>
<path d="M429.151 48.4834C429.2 48.3369 429.273 48.166 429.371 47.9707C429.469 47.7266 429.566 47.5557 429.664 47.458C429.762 47.3604 429.908 47.2627 430.104 47.165C430.348 47.0674 435.377 46.7012 445.191 46.0664C461.793 44.9434 479.273 43.918 497.633 42.9902C501.588 42.7949 507.496 42.5264 515.357 42.1846C523.219 41.8428 529.103 41.5742 533.009 41.3789C535.304 41.2812 538.551 41.1836 542.75 41.0859C546.9 40.9395 549.635 40.8418 550.953 40.793C558.863 40.5 564.894 40.3535 569.044 40.3535C569.142 40.3047 569.508 39.7676 570.143 38.7422C570.826 37.668 571.534 36.5693 572.267 35.4463C572.999 34.2744 573.438 33.5908 573.585 33.3955C574.073 32.6631 575.099 31.0273 576.661 28.4883C578.272 25.9492 579.493 24.0938 580.323 22.9219L585.963 14.3525C586.354 13.7666 586.842 13.2783 587.428 12.8877H588.453C588.502 12.9365 588.624 12.9854 588.819 13.0342C589.063 13.083 589.234 13.1562 589.332 13.2539C590.357 13.9375 590.87 14.7188 590.87 15.5977C590.87 16.2324 590.187 17.5752 588.819 19.626L584.278 26.4375C583.546 27.5117 582.423 29.2695 580.909 31.7109C579.444 34.1035 578.37 35.7881 577.687 36.7646L575.489 40.2803C576.563 40.2803 579.322 40.3047 583.766 40.3535C588.209 40.3535 591.603 40.3779 593.946 40.4268C596.339 40.4756 599.269 40.6221 602.735 40.8662C606.251 41.0615 609.181 41.3545 611.524 41.7451C614.991 42.3311 617.359 43.0879 618.629 44.0156C619.02 44.3574 619.288 44.6016 619.435 44.748C619.581 44.9434 619.703 45.1631 619.801 45.4072C619.898 45.6025 619.972 45.749 620.021 45.8467V46.8721C619.972 46.9209 619.874 47.0674 619.728 47.3115C619.63 47.5557 619.557 47.7021 619.508 47.751C619.459 47.751 619.361 47.8242 619.215 47.9707C619.068 48.0684 618.897 48.1416 618.702 48.1904C618.556 48.1904 618.36 48.1904 618.116 48.1904C617.726 48.1904 617.262 48.0439 616.725 47.751C616.236 47.458 615.919 47.2871 615.772 47.2383C612.843 46.2617 606.959 45.627 598.121 45.334C593.775 45.1387 588.819 45.041 583.253 45.041C582.032 45.041 580.25 45.0654 577.906 45.1143C575.562 45.1143 573.78 45.1143 572.56 45.1143C572.364 45.2119 572.169 45.4316 571.974 45.7734C571.827 46.1152 571.729 46.3105 571.681 46.3594L569.337 50.0947C568.995 50.6318 568.482 51.4619 567.799 52.585C567.115 53.708 566.603 54.5381 566.261 55.0752C565.675 56.0518 563.502 59.665 559.742 65.915C555.982 72.1162 553.15 76.9258 551.246 80.3438C541.529 97.8242 535.279 110.373 532.496 117.99C530.982 122.141 530.152 125.314 530.006 127.512C529.957 128.488 529.884 129.074 529.786 129.27C529.64 129.465 529.225 129.758 528.541 130.148H527.662C527.027 129.855 526.612 129.611 526.417 129.416C525.587 128.732 525.172 127.854 525.172 126.779C525.172 126.438 525.221 125.778 525.318 124.802C525.465 123.776 525.685 122.702 525.978 121.579C526.222 120.505 526.588 119.309 527.076 117.99C527.516 116.721 527.906 115.622 528.248 114.694C528.541 113.767 529.029 112.546 529.713 111.032C530.396 109.47 530.885 108.371 531.178 107.736C531.422 107.102 531.935 105.954 532.716 104.294C533.497 102.634 533.961 101.657 534.107 101.364C536.988 95.2119 539.723 89.9629 542.311 85.6172C542.994 84.4453 543.482 83.5664 543.775 82.9805L566.114 45.1875C564.259 45.2852 562.745 45.334 561.573 45.334C558.253 45.334 553.81 45.4316 548.243 45.627C547.95 45.627 542.042 45.8467 530.519 46.2861C508.497 47.1162 479.64 48.6787 443.946 50.9736L432.228 51.7061C431.69 51.7061 431.373 51.6816 431.275 51.6328C430.787 51.4863 430.421 51.291 430.177 51.0469C429.884 50.7539 429.64 50.3877 429.444 49.9482L429.151 49.2891V48.4834Z" fill="black"/>
<path d="M564.283 77.3408L564.43 77.1943C564.869 76.3154 565.235 75.7295 565.528 75.4365C566.017 74.9482 566.603 74.5332 567.286 74.1914C569.776 73.0195 573.048 72.1895 577.101 71.7012C577.101 71.7012 577.247 71.7012 577.54 71.7012C578.37 71.7012 579.103 71.9209 579.737 72.3604C580.372 72.7998 580.738 73.3369 580.836 73.9717C581.275 73.874 585.206 72.7998 592.628 70.749C593.849 70.4072 594.825 70.5293 595.558 71.1152C597.071 72.3359 597.267 73.6055 596.144 74.9238C594.874 76.3398 594.166 77.4629 594.02 78.293H595.045C598.316 78.293 602.516 77.585 607.643 76.1689C607.643 76.1689 608.668 75.876 610.719 75.29C610.865 75.2412 611.109 75.2168 611.451 75.2168C612.281 75.2168 612.965 75.5342 613.502 76.1689C614.088 76.8037 614.381 77.4873 614.381 78.2197C614.381 78.5127 614.308 78.8057 614.161 79.0986C613.966 79.4893 613.087 79.9043 611.524 80.3438C608.351 81.2227 606.251 81.7842 605.226 82.0283C603.321 82.4678 601.075 82.834 598.487 83.127C598.097 83.1758 597.511 83.2002 596.729 83.2002C594.532 83.2002 592.701 82.7363 591.236 81.8086C589.771 80.832 589.063 79.2695 589.112 77.1211C588.575 77.1211 586.427 77.6582 582.667 78.7324C582.13 78.8789 579.981 79.3916 576.222 80.2705C572.706 81.0029 570.387 81.3691 569.264 81.3691C567.75 81.3691 566.651 81.125 565.968 80.6367C565.675 80.4414 565.406 80.2217 565.162 79.9775C564.967 79.7334 564.82 79.5381 564.723 79.3916C564.674 79.1963 564.601 78.9766 564.503 78.7324C564.405 78.4883 564.332 78.3174 564.283 78.2197V77.3408Z" fill="black"/>
</svg>
