<svg width="273" height="756" viewBox="0 0 273 756" fill="none" xmlns="http://www.w3.org/2000/svg">
<path d="M142.58 753.054L142.39 752.865C160.458 751.737 177.541 744.589 192.961 732.778H217.693H220.193V730.278V704.782C221.884 702.532 223.562 700.224 225.186 697.829H230.176C252.339 697.829 270.29 679.902 270.29 657.757V97.7651C270.29 75.6536 252.34 57.6927 230.176 57.6927H225.177C223.544 55.3076 221.888 53.0012 220.193 50.7406V25.2438V22.7438H217.693H192.994C176.145 9.83793 157.31 2.5 137.343 2.5H137.341H137.339H137.338H137.336H137.334H137.332H137.331H137.329H137.327H137.326H137.324H137.322H137.321H137.319H137.317H137.315H137.314H137.312H137.31H137.309H137.307H137.305H137.304H137.302H137.3H137.299H137.297H137.295H137.293H137.292H137.29H137.288H137.287H137.285H137.283H137.282H137.28H137.278H137.277H137.275H137.273H137.272H137.27H137.268H137.266H137.265H137.263H137.261H137.26H137.258H137.256H137.255H137.253H137.251H137.25H137.248H137.246H137.245H137.243H137.241H137.24H137.238H137.236H137.235H137.233H137.231H137.23H137.228H137.226H137.225H137.223H137.221H137.22H137.218H137.216H137.215H137.213H137.211H137.21H137.208H137.206H137.205H137.203H137.201H137.2H137.198H137.196H137.195H137.193H137.191H137.19H137.188H137.187H137.185H137.183H137.182H137.18H137.178H137.177H137.175H137.173H137.172H137.17H137.168H137.167H137.165H137.163H137.162H137.16H137.158H137.157H137.155H137.154H137.152H137.15H137.149H137.147H137.145H137.144H137.142H137.14H137.139H137.137H137.135H137.134H137.132H137.131H137.129H137.127H137.126H137.124H137.122H137.121H137.119H137.117H137.116H137.114H137.113H137.111H137.109H137.108H137.106H137.104H137.103H137.101H137.099H137.098H137.096H137.095H137.093H137.091H137.09H137.088H137.086H137.085H137.083H137.082H137.08H137.078H137.077H137.075H137.073H137.072H137.07H137.069H137.067H137.065H137.064H137.062H137.06H137.059H137.057H137.056H137.054H137.052H137.051H137.049H137.047H137.046H137.044H137.043H137.041H137.039H137.038H137.036H137.034H137.033H137.031H137.03H137.028H137.026H137.025H137.023H137.021H137.02H137.018H137.017H137.015H137.013H137.012H137.01H137.008H137.007H137.005H137.004H137.002H137H136.999H136.997H136.996H136.994H136.992H136.991H136.989H136.987H136.986H136.984H136.983H136.981H136.979H136.978H136.976H136.975H136.973H136.971H136.97H136.968H136.966H136.965H136.963H136.962H136.96H136.958H136.957H136.955H136.954H136.952H136.95H136.949H136.947H136.945H136.944H136.942H136.941H136.939H136.937H136.936H136.934H136.933H136.931H136.929H136.928H136.926H136.924H136.923H136.921H136.92H136.918H136.916H136.915H136.913H136.912H136.91H136.908H136.907H136.905H136.903H136.902H136.9H136.899H136.897H136.895H136.894H136.892H136.891H136.889H136.887H136.886H136.884H136.882H136.881H136.879H136.878H136.876H136.874H136.873H136.871H136.87H136.868H136.866H136.865H136.863H136.861H136.86H136.858H136.857H136.855H136.853H136.852H136.85H136.848H136.847H136.845H136.844H136.842H136.84H136.839H136.837H136.836H136.834H136.832H136.831H136.829H136.827H136.826H136.824H136.823H136.821H136.819H136.818H136.816H136.814H136.813H136.811H136.81H136.808H136.806H136.805H136.803H136.801H136.8H136.798H136.797H136.795H136.793H136.792H136.79H136.789H136.787H136.785H136.784H136.782H136.78H136.779H136.777H136.775H136.774H136.772H136.771H136.769H136.767H136.766H136.764H136.762H136.761H136.759H136.758H136.756H136.754H136.753H136.751H136.749H136.748H136.746H136.745H136.743H136.741H136.74H136.738H136.736H136.735H136.733H136.731H136.73H136.728H136.727H136.725H136.723H136.722H136.72H136.718H136.717H136.715H136.713H136.712H136.71H136.709H136.707H136.705H136.704H136.702H136.7H136.699H136.697H136.695H136.694H136.692H136.69H136.689H136.687H136.686H136.684H136.682H136.681H136.679H136.677H136.676H136.674H136.672H136.671H136.669H136.667H136.666H136.664H136.662H136.661H136.659H136.658H136.656H136.654H136.653H136.651H136.649H136.648H136.646H136.644H136.643H136.641H136.639H136.638H136.636H136.634H136.633H136.631H136.629H136.628H136.626H136.624H136.623H136.621H136.619H136.618H136.616H136.614H136.613H136.611H136.609H136.608H136.606H136.604H136.603H136.601H136.599H136.598H136.596H136.594H136.593H136.591H136.589H136.588H136.586H136.584H136.583H136.581H136.579H136.578H136.576H136.574H136.573H136.571H136.569H136.568H136.566H136.564H136.562H136.561H136.559H136.557H136.556H136.554H136.552H136.551H136.549H136.547H136.546H136.544H136.542H136.54H136.539H136.537H136.535H136.534H136.532H136.53H136.529H136.527H136.525H136.524H136.522H136.52H136.518H136.517H136.515H136.513H136.512H136.51H136.508H136.507H136.505H136.503H136.501H136.5H136.498H136.496H136.495H136.493H136.491H136.489H136.488H136.486H136.484H136.483H136.481H136.479H136.477H136.476H136.474H136.472H136.471H136.469H136.467H136.466H136.464H136.462H136.461H136.459H136.457H136.455H136.454H136.452H136.45H136.449H136.447H136.445H136.444H136.442H136.44H136.439H136.437H136.435H136.434H136.432H136.43H136.428H136.427H136.425H136.423H136.422H136.42H136.418H136.417H136.415H136.413H136.412H136.41H136.408H136.407H136.405H136.403H136.402H136.4H136.398H136.397H136.395H136.393H136.392H136.39H136.388H136.387H136.385H136.383H136.382H136.38H136.378H136.377H136.375H136.373H136.372H136.37H136.368H136.367H136.365H136.363H136.362H136.36H136.358H136.357H136.355H136.353H136.352H136.35H136.348H136.347H136.345H136.343H136.342H136.34H136.339H136.337H136.335H136.334H136.332H136.33H136.329H136.327H136.325H136.324H136.322H136.32H136.319H136.317H136.315H136.314H136.312H136.31H136.309H136.307H136.306H136.304H136.302H136.301H136.299H136.297H136.296H136.294H136.292H136.291H136.289H136.288H136.286H136.284H136.283H136.281H136.279H136.278H136.276H136.274H136.273H136.271H136.27H136.268H136.266H136.265H136.263H136.261H136.26H136.258H136.256H136.255H136.253H136.252H136.25H136.248H136.247H136.245H136.243H136.242H136.24H136.238H136.237H136.235H136.234H136.232H136.23H136.229H136.227H136.225H136.224H136.222H136.221H136.219H136.217H136.216H136.214H136.212H136.211H136.209H136.208H136.206H136.204H136.203H136.201H136.199H136.198H136.196H136.195H136.193H136.191H136.19H136.188H136.186H136.185H136.183H136.182H136.18H136.178H136.177H136.175H136.174H136.172H136.17H136.169H136.167H136.165H136.164H136.162H136.161H136.159H136.157H136.156H136.154H136.152H136.151H136.149H136.148H136.146H136.144H136.143H136.141H136.14H136.138H136.136H136.135H136.133H136.131H136.13H136.128H136.127H136.125H136.123H136.122H136.12H136.119H136.117H136.115H136.114H136.112H136.11H136.109H136.107H136.106H136.104H136.102H136.101H136.099H136.098H136.096H136.094H136.093H136.091H136.089H136.088H136.086H136.085H136.083H136.081H136.08H136.078H136.077H136.075H136.073H136.072H136.07H136.068H136.067H136.065H136.064H136.062H136.06H136.059H136.057H136.056H136.054H136.052H136.051H136.049H136.047H136.046H136.044H136.043H136.041H136.039H136.038H136.036H136.035H136.033H136.031H136.03H136.028H136.026H136.025H136.023H136.022H136.02H136.018H136.017H136.015H136.014H136.012H136.01H136.009H136.007H136.005H136.004H136.002H136.001H135.999H135.997H135.996H135.994H135.992H135.991H135.989H135.988H135.986H135.984H135.983H135.981H135.98H135.978H135.976H135.975H135.973H135.971H135.97H135.968H135.967H135.965H135.963H135.962H135.96H135.958H135.957H135.955H135.954H135.952H135.95H135.949H135.947H135.945H135.944H135.942H135.941H135.939H135.937H135.936H135.934H135.932H135.931H135.929H135.928H135.926H135.924H135.923H135.921H135.919H135.918H135.916H135.915H135.913H135.911H135.91H135.908H135.906H135.905H135.903H135.901H135.9H135.898H135.897H135.895H135.893H135.892H135.89H135.888H135.887H135.885H135.884H135.882H135.88H135.879H135.877H135.875H135.874H135.872H135.87H135.869H135.867H135.865H135.864H135.862H135.861H135.859H135.857H135.856H135.854H135.852H135.851H135.849H135.847H135.846H135.844H135.842H135.841H135.839H135.838H135.836H135.834H135.833H135.831H135.829H135.828H135.826H135.824H135.823H135.821H135.819H135.818H135.816H135.814H135.813H135.811H135.81H135.808H135.806H135.805H135.803H135.801H135.8H135.798H135.796H135.795H135.793H135.791H135.79H135.788H135.786H135.785H135.783H135.781H135.78H135.778H135.776H135.775H135.773H135.771H135.77H135.768H135.766H135.765H135.763H135.761H135.76H135.758H135.756H135.755H135.753H135.751H135.75H135.748H135.746H135.745H135.743H135.741H135.74H135.738H135.736H135.735H135.733H135.731H135.729H135.728H135.726H135.724H135.723H135.721H135.719H135.718H135.716H135.714H135.713H135.711H135.709H135.708H135.706H135.704H135.703H135.701H135.699H135.697H135.696H135.694H135.692H135.691H135.689H135.687H135.686H135.684H135.682H135.68H135.679H135.677H135.675H135.674H135.672H135.67H135.669H135.667H135.665H135.663H135.662H135.66H135.658H135.657C115.72 2.5 96.8865 9.83825 80.0379 22.7438H55.3392H52.8392V25.2438V50.7398C51.1474 52.9903 49.4702 55.2983 47.8455 57.6927H42.8555C20.6928 57.6927 2.74219 75.6198 2.74219 97.7651V657.789C2.74219 679.934 20.6927 697.862 42.8555 697.862H47.8547C49.4874 700.247 51.1434 702.553 52.8392 704.814V730.311V732.811H55.3392H80.0704C96.9177 745.716 115.72 753.054 135.689 753.054H135.691H135.692H135.694H135.696H135.698H135.699H135.701H135.703H135.704H135.706H135.708H135.71H135.711H135.713H135.715H135.716H135.718H135.72H135.721H135.723H135.725H135.726H135.728H135.73H135.732H135.733H135.735H135.737H135.738H135.74H135.742H135.743H135.745H135.747H135.748H135.75H135.752H135.754H135.755H135.757H135.759H135.76H135.762H135.764H135.765H135.767H135.769H135.77H135.772H135.774H135.775H135.777H135.779H135.78H135.782H135.784H135.785H135.787H135.789H135.79H135.792H135.794H135.795H135.797H135.799H135.8H135.802H135.804H135.805H135.807H135.809H135.81H135.812H135.814H135.815H135.817H135.819H135.82H135.822H135.824H135.825H135.827H135.829H135.83H135.832H135.834H135.835H135.837H135.839H135.84H135.842H135.844H135.845H135.847H135.849H135.85H135.852H135.854H135.855H135.857H135.858H135.86H135.862H135.863H135.865H135.867H135.868H135.87H135.872H135.873H135.875H135.877H135.878H135.88H135.882H135.883H135.885H135.886H135.888H135.89H135.891H135.893H135.895H135.896H135.898H135.9H135.901H135.903H135.904H135.906H135.908H135.909H135.911H135.913H135.914H135.916H135.918H135.919H135.921H135.922H135.924H135.926H135.927H135.929H135.931H135.932H135.934H135.936H135.937H135.939H135.94H135.942H135.944H135.945H135.947H135.949H135.95H135.952H135.953H135.955H135.957H135.958H135.96H135.962H135.963H135.965H135.967H135.968H135.97H135.971H135.973H135.975H135.976H135.978H135.98H135.981H135.983H135.984H135.986H135.988H135.989H135.991H135.992H135.994H135.996H135.997H135.999H136.001H136.002H136.004H136.005H136.007H136.009H136.01H136.012H136.014H136.015H136.017H136.018H136.02H136.022H136.023H136.025H136.027H136.028H136.03H136.031H136.033H136.035H136.036H136.038H136.039H136.041H136.043H136.044H136.046H136.048H136.049H136.051H136.052H136.054H136.056H136.057H136.059H136.061H136.062H136.064H136.065H136.067H136.069H136.07H136.072H136.073H136.075H136.077H136.078H136.08H136.081H136.083H136.085H136.086H136.088H136.09H136.091H136.093H136.094H136.096H136.098H136.099H136.101H136.102H136.104H136.106H136.107H136.109H136.111H136.112H136.114H136.115H136.117H136.119H136.12H136.122H136.123H136.125H136.127H136.128H136.13H136.132H136.133H136.135H136.136H136.138H136.14H136.141H136.143H136.144H136.146H136.148H136.149H136.151H136.153H136.154H136.156H136.157H136.159H136.161H136.162H136.164H136.165H136.167H136.169H136.17H136.172H136.174H136.175H136.177H136.178H136.18H136.182H136.183H136.185H136.187H136.188H136.19H136.191H136.193H136.195H136.196H136.198H136.199H136.201H136.203H136.204H136.206H136.208H136.209H136.211H136.212H136.214H136.216H136.217H136.219H136.221H136.222H136.224H136.225H136.227H136.229H136.23H136.232H136.234H136.235H136.237H136.238H136.24H136.242H136.243H136.245H136.247H136.248H136.25H136.251H136.253H136.255H136.256H136.258H136.26H136.261H136.263H136.264H136.266H136.268H136.269H136.271H136.273H136.274H136.276H136.277H136.279H136.281H136.282H136.284H136.286H136.287H136.289H136.29H136.292H136.294H136.295H136.297H136.299H136.3H136.302H136.304H136.305H136.307H136.308H136.31H136.312H136.313H136.315H136.317H136.318H136.32H136.322H136.323H136.325H136.326H136.328H136.33H136.331H136.333H136.335H136.336H136.338H136.34H136.341H136.343H136.345H136.346H136.348H136.35H136.351H136.353H136.354H136.356H136.358H136.359H136.361H136.363H136.364H136.366H136.368H136.369H136.371H136.373H136.374H136.376H136.378H136.379H136.381H136.383H136.384H136.386H136.387H136.389H136.391H136.392H136.394H136.396H136.397H136.399H136.401H136.402H136.404H136.406H136.407H136.409H136.411H136.412H136.414H136.416H136.417H136.419H136.421H136.422H136.424H136.426H136.427H136.429H136.431H136.432H136.434H136.436H136.437H136.439H136.441H136.442H136.444H136.446H136.447H136.449H136.451H136.453H136.454H136.456H136.458H136.459H136.461H136.463H136.464H136.466H136.468H136.469H136.471H136.473H136.474H136.476H136.478H136.479H136.481H136.483H136.485H136.486H136.488H136.49H136.491H136.493H136.495H136.496H136.498H136.5H136.501H136.503H136.505H136.507H136.508H136.51H136.512H136.513H136.515H136.517H136.518H136.52H136.522H136.524H136.525H136.527H136.529H136.53H136.532H142.58Z" fill="#5935AF" stroke="#A654C6" stroke-width="5"/>
</svg>
