<svg width="500" height="618" viewBox="0 0 500 618" fill="none" xmlns="http://www.w3.org/2000/svg">
<g clip-path="url(#clip0_546_9230)">
<path d="M145.042 553.683H361.916C428.131 553.683 481.19 496.435 486.047 426.045C489.236 374.519 493.911 323.07 498.913 271.62C511.163 161.262 419.723 60.6827 296.173 57.4744C240.106 56.7013 184.003 57.4744 127.972 59.6777C51.0654 63.4272 -6.59621 126.125 0.616023 195.587C8.08196 272.355 16.1278 349.123 20.9118 426.045C25.7682 496.435 78.8271 553.683 145.042 553.683Z" fill="#A6E6D8"/>
<path d="M68.6794 524.357L171.644 608L150.768 521.561L68.6794 524.357Z" fill="#A6E6D8"/>
<path d="M196.615 71.7302C196.615 71.7302 190.744 102.856 221.731 115.422C252.718 127.989 262.105 95.0471 249.348 94.0665C236.627 93.0859 237.75 119.78 261.525 127.117C285.3 134.453 316.106 107.577 305.451 97.4442C294.796 87.3111 285.844 117.274 313.424 133.146C341.005 149.054 383.553 122.395 367.897 85.3862C354.306 53.2438 316.251 63.5947 324.188 76.2338C332.125 88.8729 348.688 46.5974 315.563 28.5831C272.724 5.3025 237.17 48.8855 251.921 59.527C262.069 66.8635 267.94 36.3554 239.671 33.1956C204.226 29.2005 194.803 68.171 196.615 71.7302Z" fill="#606060"/>
<path d="M238.801 48.3769C238.801 48.3769 228.617 83.207 262.54 101.04C296.463 118.872 310.851 82.3353 296.463 79.793C282.075 77.2506 280.371 107.831 306.647 118.872C332.923 129.913 371.086 102.747 360.068 89.9987C349.05 77.2507 335.496 110.374 365.142 131.62C394.825 152.867 446.325 127.262 432.589 83.2796C420.665 45.0719 376.16 52.6263 383.771 67.9166C391.418 83.207 415.048 36.8637 379.277 12.6025C333.068 -18.7772 287.583 26.9123 303.24 40.7136C314.004 50.2292 324.116 16.0892 292.222 9.2975C252.247 0.726178 237.134 44.1276 238.801 48.3769Z" fill="white" stroke="#606060" stroke-miterlimit="10"/>
<path d="M46.4264 428.421C46.4264 428.421 42.0411 482.246 103.436 524.013" stroke="#606060" stroke-width="2" stroke-miterlimit="10"/>
<path d="M437.808 139.72C437.808 139.72 483.292 197.721 475.029 269.198" stroke="#606060" stroke-width="2" stroke-miterlimit="10"/>
<path d="M205.339 510.816C205.339 511.888 204.587 512.512 203.355 512.512H200.891V509.04H203.291C204.507 509.04 205.339 509.712 205.339 510.816ZM205.051 505.968C205.051 506.992 204.331 507.552 203.147 507.552H200.891V504.368H203.147C204.331 504.368 205.051 504.96 205.051 505.968ZM207.163 511.008C207.163 509.68 206.203 508.496 205.019 508.288C206.091 507.904 206.907 507.088 206.907 505.744C206.907 504.176 205.659 502.88 203.307 502.88H199.067V514H203.515C205.787 514 207.163 512.704 207.163 511.008ZM212.617 511.904L210.137 505.184H208.105L211.577 513.856L209.785 518.144H211.673L217.081 505.184H215.193L212.617 511.904ZM222.806 508.976H229.382V507.44H222.806V508.976ZM236.13 514H237.954V506.384L241.362 514H242.626L246.018 506.384V514H247.842V502.88H245.89L242.002 511.6L238.098 502.88H236.13V514ZM249.631 509.552C249.631 512.272 251.471 514.144 253.759 514.144C255.231 514.144 256.287 513.44 256.847 512.688V514H258.687V505.184H256.847V506.464C256.303 505.744 255.279 505.04 253.791 505.04C251.471 505.04 249.631 506.832 249.631 509.552ZM256.847 509.584C256.847 511.488 255.551 512.56 254.175 512.56C252.815 512.56 251.503 511.456 251.503 509.552C251.503 507.648 252.815 506.624 254.175 506.624C255.551 506.624 256.847 507.696 256.847 509.584ZM267.339 514H269.147V508.8C269.147 506.336 267.595 505.04 265.531 505.04C264.475 505.04 263.499 505.472 262.907 506.192V505.184H261.083V514H262.907V509.072C262.907 507.456 263.787 506.624 265.131 506.624C266.459 506.624 267.339 507.456 267.339 509.072V514ZM273.297 506.48V505.184H271.473V518.192H273.297V512.72C273.873 513.408 274.913 514.144 276.369 514.144C278.689 514.144 280.513 512.272 280.513 509.552C280.513 506.832 278.689 505.04 276.369 505.04C274.929 505.04 273.857 505.744 273.297 506.48ZM278.657 509.552C278.657 511.456 277.345 512.56 275.969 512.56C274.609 512.56 273.297 511.488 273.297 509.584C273.297 507.696 274.609 506.624 275.969 506.624C277.345 506.624 278.657 507.648 278.657 509.552ZM284.141 509.36C284.141 507.488 284.973 506.928 286.317 506.928H286.781V505.04C285.533 505.04 284.653 505.584 284.141 506.464V505.184H282.317V514H284.141V509.36ZM292.17 506.576C293.53 506.576 294.602 507.44 294.634 508.8H289.754C289.946 507.408 290.938 506.576 292.17 506.576ZM296.298 511.376H294.33C293.994 512.064 293.37 512.608 292.25 512.608C290.906 512.608 289.866 511.728 289.738 510.272H296.474C296.522 509.968 296.538 509.68 296.538 509.376C296.538 506.784 294.762 505.04 292.25 505.04C289.642 505.04 287.85 506.816 287.85 509.584C287.85 512.352 289.722 514.144 292.25 514.144C294.41 514.144 295.802 512.912 296.298 511.376ZM302.045 506.576C303.405 506.576 304.477 507.44 304.509 508.8H299.629C299.821 507.408 300.813 506.576 302.045 506.576ZM306.173 511.376H304.205C303.869 512.064 303.245 512.608 302.125 512.608C300.781 512.608 299.741 511.728 299.613 510.272H306.349C306.397 509.968 306.413 509.68 306.413 509.376C306.413 506.784 304.637 505.04 302.125 505.04C299.517 505.04 297.725 506.816 297.725 509.584C297.725 512.352 299.597 514.144 302.125 514.144C304.285 514.144 305.677 512.912 306.173 511.376ZM308.496 511.552C308.496 513.344 309.472 514 311.04 514H312.48V512.48H311.36C310.592 512.48 310.336 512.208 310.336 511.552V506.672H312.48V505.184H310.336V502.992H308.496V505.184H307.456V506.672H308.496V511.552Z" fill="#222222"/>
</g>
<defs>
<clipPath id="clip0_546_9230">
<rect width="500" height="618" fill="white"/>
</clipPath>
</defs>
</svg>
