<svg width="417" height="327" viewBox="0 0 417 327" fill="none" xmlns="http://www.w3.org/2000/svg">
<path opacity="0.3" d="M417 273.356H0V273.565H417V273.356Z" fill="#EBEBEB"/>
<path opacity="0.3" d="M144.466 278.683H125.134V278.891H144.466V278.683Z" fill="#EBEBEB"/>
<path opacity="0.3" d="M382.614 283.158H335.352V283.366H382.614V283.158Z" fill="#EBEBEB"/>
<path opacity="0.3" d="M82.8917 283.158H35.6289V283.366H82.8917V283.158Z" fill="#EBEBEB"/>
<path opacity="0.3" d="M197.658 236.118H36.621C33.9939 236.118 31.8672 233.981 31.8672 231.351V4.7257C31.8922 2.11237 34.0106 0.00834929 36.621 0H197.658C200.285 0 202.42 2.13742 202.42 4.76745V231.351C202.42 233.981 200.285 236.118 197.658 236.118ZM36.621 0.166986C34.1106 0.166986 32.0757 2.21256 32.0757 4.7257V231.351C32.0757 233.864 34.1106 235.901 36.621 235.909H197.658C200.168 235.909 202.203 233.864 202.212 231.351V4.7257C202.212 2.21256 200.168 0.175335 197.658 0.166986H36.621Z" fill="#EBEBEB"/>
<path opacity="0.3" d="M378.06 236.118H217.015C214.388 236.118 212.261 233.981 212.253 231.351V4.7257C212.278 2.11237 214.405 0.00834929 217.015 0H378.06C380.671 0.00834929 382.781 2.11237 382.806 4.7257V231.351C382.806 233.981 380.688 236.11 378.06 236.118ZM217.015 0.166986C214.505 0.166986 212.47 2.21256 212.461 4.7257V231.351C212.461 233.864 214.505 235.901 217.015 235.909H378.06C380.571 235.909 382.606 233.864 382.614 231.351V4.7257C382.614 2.21256 380.571 0.175335 378.06 0.166986H217.015Z" fill="#EBEBEB"/>
<path opacity="0.3" d="M375.834 299.164H357.819V299.372H375.834V299.164Z" fill="#EBEBEB"/>
<path d="M390.429 198.955C388.686 193.954 374.925 200.759 369.387 209.05C365.676 214.569 363.407 220.472 362.357 228.387C362.482 219.336 362.632 209.634 362.765 200.483C363.9 198.204 366.468 192.927 368.32 188.761C374.491 174.834 389.178 169.658 394.24 160.858C400.887 149.336 400.846 132.061 395.191 125.824C390.279 120.405 373.991 157.042 372.156 161.133C365.851 175.218 364.016 185.663 362.84 195.783C362.965 187.175 363.099 179.284 363.207 173.156C363.549 153.276 363.983 146.881 364.175 144.91C364.859 143.95 365.659 142.831 366.11 142.23C370.046 137.154 378.795 131.109 383.157 123.728C389.537 112.949 388.503 100.05 384.032 95.2822C379.354 90.256 371.08 102.129 366.702 113.893C362.323 125.657 364.183 136.912 362.957 146.68C362.699 148.618 362.432 155.873 362.181 165.967C360.847 155.105 358.195 147.833 353.283 141.045C347.228 132.704 342.015 122.551 337.028 123.862C332.041 125.173 334.726 138.607 338.671 148.041C342.174 156.449 359.496 164.823 362.048 171.57C361.748 185.254 361.481 202.604 361.289 218.727C359.93 210.394 360.864 209.676 355.268 196.927C351.94 189.337 338.304 179.977 336.678 185.196C335.077 190.314 337.52 200.258 342.674 207.179C346.828 212.748 356.043 212.74 358.178 216.197C358.679 217.007 360.313 220.079 361.256 221.866C361.031 241.57 360.93 258.962 361.039 264.89L361.931 264.948C361.89 263.42 362.006 253.401 362.173 240.134C364.408 233.079 379.479 228.963 384.132 221.624C389.011 213.926 392.506 204.959 390.421 198.955H390.429Z" fill="#74DB7E"/>
<path d="M376.26 273.807H347.353C345.786 273.798 344.434 272.688 344.126 271.143L342.074 261.016H381.597L379.546 271.143C379.229 272.705 377.853 273.823 376.268 273.807H376.26Z" fill="#C9C9C9"/>
<path d="M382.397 264.931H341.214C340.222 264.931 339.388 264.197 339.28 263.211L338.437 255.722C338.312 254.662 339.079 253.693 340.139 253.576C340.214 253.568 340.297 253.56 340.372 253.568H383.24C384.307 253.568 385.183 254.428 385.191 255.497C385.191 255.572 385.191 255.655 385.183 255.73L384.332 263.203C384.224 264.188 383.39 264.94 382.397 264.94V264.931Z" fill="white"/>
<path d="M102.34 28.396H44.127V92.385H102.34V28.396Z" fill="#442490"/>
<path d="M107.319 28.396H44.9023V92.385H107.319V28.396Z" fill="#442491"/>
<path d="M103.341 32.3784H48.8809V88.3938H103.341V32.3784Z" fill="#6942C7"/>
<path d="M67.9543 80.3121C61.4658 73.8247 61.4658 63.2962 67.946 56.8004H67.9543L84.259 40.4692C90.7392 46.965 90.7392 57.4934 84.259 63.9892L67.9543 80.3121Z" fill="#442490"/>
<path d="M91 126H45V171H91V126Z" fill="#442490"/>
<path d="M90.3396 126.125H45.9541V170.893H90.3396V126.125Z" fill="#442490"/>
<path d="M85.7692 130.708H50.541V166.318H85.7692V130.708Z" fill="#6942C7"/>
<path d="M64.9546 141.279L60.915 145.323C59.1562 147.084 59.1562 149.939 60.915 151.699L64.9546 155.743C66.7134 157.504 69.5649 157.504 71.3237 155.743L75.3633 151.699C77.1221 149.939 77.1221 147.084 75.3633 145.323L71.3237 141.279C69.5649 139.518 66.7134 139.518 64.9546 141.279Z" fill="#442490"/>
<path d="M171.688 182.048H153.632V273.23H171.688V182.048Z" fill="#7149D2"/>
<path d="M153.631 182.056H75.7275V273.239H153.631V182.056Z" fill="#6942C7"/>
<path d="M146.534 217.131H82.8252V238.147H146.534V217.131Z" fill="#442490"/>
<path d="M146.534 242.839H82.8252V263.854H146.534V242.839Z" fill="#442490"/>
<path d="M107.52 219.954H121.823C122.79 219.954 123.574 219.16 123.582 218.192C123.582 217.215 122.798 216.43 121.823 216.422H107.52C106.544 216.422 105.76 217.215 105.76 218.192C105.76 219.16 106.552 219.945 107.52 219.954Z" fill="#6942C7"/>
<path d="M146.534 191.433H82.8252V212.448H146.534V191.433Z" fill="#442490"/>
<path d="M107.52 194.246H121.823C122.798 194.246 123.582 193.453 123.582 192.476C123.582 191.508 122.79 190.723 121.823 190.714H107.52C106.552 190.714 105.768 191.508 105.76 192.476C105.76 193.453 106.544 194.238 107.52 194.246Z" fill="#6942C7"/>
<path d="M107.52 245.661H121.823C122.798 245.661 123.582 244.868 123.582 243.891C123.582 242.923 122.79 242.138 121.823 242.129H107.52C106.552 242.129 105.768 242.923 105.76 243.891C105.76 244.868 106.544 245.653 107.52 245.661Z" fill="#6942C7"/>
<path d="M153.632 177.255H73.3174V182.048H153.632V177.255Z" fill="#7149D2"/>
<path d="M174.207 177.264H153.632V182.056H174.207V177.264Z" fill="#E0E0E0"/>
<path d="M213.504 326.992C294.188 326.992 359.596 321.825 359.596 315.453C359.596 309.08 294.188 303.914 213.504 303.914C132.82 303.914 67.4121 309.08 67.4121 315.453C67.4121 321.825 132.82 326.992 213.504 326.992Z" fill="#673FC7"/>
<path d="M331.632 61.6427C330.431 57.6601 328.838 53.8027 326.878 50.1291L329.838 40.4188L310.706 21.2656L300.999 24.2463C297.346 22.2591 293.493 20.6644 289.506 19.4788L284.752 10.52H257.664L252.902 19.4788C248.915 20.6728 245.071 22.2675 241.409 24.2463L231.71 21.2656L212.553 40.4439L215.514 50.1541C213.545 53.8194 211.953 57.6768 210.76 61.6678L201.803 66.4269V93.5454L210.752 98.3128C211.944 102.295 213.537 106.153 215.505 109.818L212.545 119.512L231.702 138.69L241.401 135.726C245.062 137.696 248.915 139.291 252.902 140.477L257.664 149.444H284.752L289.506 140.485C293.484 139.291 297.337 137.688 300.999 135.718L310.706 138.682L329.863 119.503L326.903 109.793C328.854 106.128 330.439 102.27 331.64 98.2878L340.589 93.5203V66.4018L331.64 61.6427H331.632ZM271.2 129.13C244.078 129.13 222.086 107.113 222.086 79.9611C222.086 52.8092 244.078 30.7921 271.2 30.7921C298.322 30.7921 320.314 52.8092 320.314 79.9611C320.314 107.113 298.322 129.13 271.2 129.13Z" fill="#5935AF"/>
<path d="M271.2 37.6885C247.873 37.6885 228.966 56.633 228.975 79.986C228.983 103.339 247.898 122.267 271.225 122.258C294.544 122.258 313.45 103.322 313.45 79.9776C313.425 56.633 294.519 37.7135 271.2 37.6968V37.6885ZM271.2 116.623C250.984 116.623 234.587 100.225 234.579 79.9776C234.579 59.739 250.959 43.3242 271.183 43.3159C291.4 43.3159 307.796 59.7139 307.804 79.9609C307.779 100.2 291.408 116.598 271.2 116.623Z" fill="#5935AF"/>
<path opacity="0.4" d="M331.632 61.6427C330.431 57.6601 328.838 53.8027 326.878 50.1291L329.838 40.4188L310.706 21.2656L300.999 24.2463C297.346 22.2591 293.493 20.6644 289.506 19.4788L284.752 10.52H257.664L252.902 19.4788C248.915 20.6728 245.071 22.2675 241.409 24.2463L231.71 21.2656L212.553 40.4439L215.514 50.1541C213.545 53.8194 211.953 57.6768 210.76 61.6678L201.803 66.4269V93.5454L210.752 98.3128C211.944 102.295 213.537 106.153 215.505 109.818L212.545 119.512L231.702 138.69L241.401 135.726C245.062 137.696 248.915 139.291 252.902 140.477L257.664 149.444H284.752L289.506 140.485C293.484 139.291 297.337 137.688 300.999 135.718L310.706 138.682L329.863 119.503L326.903 109.793C328.854 106.128 330.439 102.27 331.64 98.2878L340.589 93.5203V66.4018L331.64 61.6427H331.632ZM271.2 129.13C244.078 129.13 222.086 107.113 222.086 79.9611C222.086 52.8092 244.078 30.7921 271.2 30.7921C298.322 30.7921 320.314 52.8092 320.314 79.9611C320.314 107.113 298.322 129.13 271.2 129.13Z" fill="white"/>
<path opacity="0.4" d="M271.2 37.6885C247.873 37.6885 228.966 56.633 228.975 79.986C228.983 103.339 247.898 122.267 271.225 122.258C294.544 122.258 313.45 103.322 313.45 79.9776C313.425 56.633 294.519 37.7135 271.2 37.6968V37.6885ZM271.2 116.623C250.984 116.623 234.587 100.225 234.579 79.9776C234.579 59.739 250.959 43.3242 271.183 43.3159C291.4 43.3159 307.796 59.7139 307.804 79.9609C307.779 100.2 291.408 116.598 271.2 116.623Z" fill="white"/>
<path d="M161.229 115.32C160.587 113.208 159.744 111.162 158.702 109.217L160.27 104.065L150.112 93.8875L144.966 95.4571C143.023 94.4135 140.979 93.5619 138.869 92.9273L136.342 88.21H121.964L119.445 92.9273C117.335 93.5619 115.292 94.4135 113.349 95.4571L108.203 93.8875L98.0366 104.065L99.6045 109.217C98.5704 111.162 97.7197 113.208 97.0858 115.32L92.332 117.85V132.244L97.0858 134.766C97.728 136.878 98.5704 138.924 99.6045 140.869L98.0366 146.02L108.203 156.198L113.349 154.629C115.292 155.672 117.335 156.516 119.445 157.15L121.964 161.867H136.342L138.869 157.15C140.979 156.507 143.023 155.664 144.966 154.629L150.112 156.198L160.278 146.02L158.71 140.869C159.753 138.924 160.603 136.878 161.237 134.766L165.991 132.244V117.85L161.229 115.32ZM129.161 145.486C117.886 145.486 108.737 136.335 108.737 125.039C108.737 113.742 117.877 104.591 129.161 104.591C140.445 104.591 149.586 113.742 149.586 125.039C149.586 136.335 140.445 145.486 129.161 145.486Z" fill="#263238"/>
<path d="M161.229 115.32C160.587 113.208 159.744 111.162 158.702 109.217L160.27 104.065L150.112 93.8875L144.966 95.4571C143.023 94.4135 140.979 93.5619 138.869 92.9273L136.342 88.21H121.964L119.445 92.9273C117.335 93.5619 115.292 94.4135 113.349 95.4571L108.203 93.8875L98.0366 104.065L99.6045 109.217C98.5704 111.162 97.7197 113.208 97.0858 115.32L92.332 117.85V132.244L97.0858 134.766C97.728 136.878 98.5704 138.924 99.6045 140.869L98.0366 146.02L108.203 156.198L113.349 154.629C115.292 155.672 117.335 156.516 119.445 157.15L121.964 161.867H136.342L138.869 157.15C140.979 156.507 143.023 155.664 144.966 154.629L150.112 156.198L160.278 146.02L158.71 140.869C159.753 138.924 160.603 136.878 161.237 134.766L165.991 132.244V117.85L161.229 115.32ZM129.161 145.486C117.886 145.486 108.737 136.335 108.737 125.039C108.737 113.742 117.877 104.591 129.161 104.591C140.445 104.591 149.586 113.742 149.586 125.039C149.586 136.335 140.445 145.486 129.161 145.486Z" fill="#5935AF"/>
<path d="M129.153 118.268C125.417 118.268 122.381 121.298 122.381 125.047C122.381 128.796 125.408 131.827 129.153 131.827C132.898 131.827 135.925 128.796 135.925 125.047C135.925 121.307 132.898 118.268 129.153 118.268Z" fill="#5935AF"/>
<path opacity="0.4" d="M161.229 115.32C160.587 113.208 159.744 111.162 158.702 109.217L160.27 104.065L150.112 93.8875L144.966 95.4571C143.023 94.4135 140.979 93.5619 138.869 92.9273L136.342 88.21H121.964L119.445 92.9273C117.335 93.5619 115.292 94.4135 113.349 95.4571L108.203 93.8875L98.0366 104.065L99.6045 109.217C98.5704 111.162 97.7197 113.208 97.0858 115.32L92.332 117.85V132.244L97.0858 134.766C97.728 136.878 98.5704 138.924 99.6045 140.869L98.0366 146.02L108.203 156.198L113.349 154.629C115.292 155.672 117.335 156.516 119.445 157.15L121.964 161.867H136.342L138.869 157.15C140.979 156.507 143.023 155.664 144.966 154.629L150.112 156.198L160.278 146.02L158.71 140.869C159.753 138.924 160.603 136.878 161.237 134.766L165.991 132.244V117.85L161.229 115.32ZM129.161 145.486C117.886 145.486 108.737 136.335 108.737 125.039C108.737 113.742 117.877 104.591 129.161 104.591C140.445 104.591 149.586 113.742 149.586 125.039C149.586 136.335 140.445 145.486 129.161 145.486Z" fill="white"/>
<path opacity="0.2" d="M129.153 118.268C125.417 118.268 122.381 121.298 122.381 125.047C122.381 128.796 125.408 131.827 129.153 131.827C132.898 131.827 135.925 128.796 135.925 125.047C135.925 121.307 132.898 118.268 129.153 118.268Z" fill="white"/>
<path d="M174.339 102.27L168.843 99.9992L168.643 97.9285C168.126 97.4944 167.651 97.0185 167.217 96.5092L165.157 96.3088L162.889 90.8066L164.206 89.2369C164.148 88.5606 164.148 87.8843 164.206 87.208L162.889 85.6384L165.157 80.1362L167.217 79.9358C167.659 79.4265 168.135 78.9423 168.643 78.5081L168.843 76.4458L174.339 74.1748L175.907 75.494C176.583 75.4355 177.258 75.4355 177.934 75.494L179.502 74.1748L184.998 76.4458L185.198 78.5081C185.707 78.9506 186.191 79.4265 186.624 79.9358L188.684 80.1362L190.953 85.6384L189.635 87.208C189.693 87.8843 189.693 88.5606 189.635 89.2369L190.953 90.8066L188.684 96.3088L186.624 96.5092C186.191 97.0268 185.707 97.5027 185.198 97.9369L184.998 99.9992L179.502 102.27L177.934 100.951C177.258 101.009 176.591 101.009 175.916 100.951L174.339 102.27ZM178.326 99.732L179.752 100.909L183.922 99.1809L184.097 97.3441L184.297 97.1855C184.881 96.7095 185.423 96.1835 185.907 95.6158L186.057 95.4154L187.9 95.2401L189.627 91.0654L188.451 89.6377V89.3956C188.526 88.6358 188.526 87.876 188.451 87.1162V86.8741L189.627 85.4463L187.9 81.2717L186.066 81.0964L185.907 80.896C185.423 80.3199 184.881 79.7939 184.297 79.3263L184.097 79.1677L183.922 77.3308L179.752 75.6025L178.326 76.7798H178.084C177.325 76.7046 176.566 76.7046 175.807 76.7798H175.565L174.139 75.6025L169.969 77.3308L169.794 79.1677L169.602 79.3263C169.01 79.7939 168.468 80.3199 167.984 80.896L167.826 81.0964L165.991 81.2717L164.248 85.413L165.424 86.8407V87.0828C165.349 87.8426 165.349 88.6024 165.424 89.3622V89.6043L164.248 91.032L165.974 95.2067L167.809 95.382L167.968 95.574C168.451 96.1668 168.985 96.7012 169.577 97.1855L169.778 97.3441L169.953 99.1893L174.123 100.918L175.549 99.7403H175.791C176.55 99.8155 177.309 99.8155 178.067 99.7403H178.326V99.732Z" fill="#9B86CF"/>
<path d="M179.385 94.1129C176.124 95.4655 172.387 93.9125 171.045 90.6563C169.694 87.3917 171.245 83.6512 174.497 82.307C177.758 80.9544 181.495 82.5074 182.837 85.7636C184.189 89.0198 182.646 92.7603 179.393 94.1129H179.385Z" fill="#9B86CF"/>
<path d="M133.473 89.2206C133.256 89.2206 133.081 89.0452 133.081 88.8281V86.8661C133.081 86.649 133.256 86.4736 133.473 86.4736C133.69 86.4736 133.865 86.649 133.865 86.8661V88.8281C133.865 89.0452 133.69 89.2206 133.473 89.2206Z" fill="#9B86CF"/>
<path d="M133.473 83.3176C133.256 83.3176 133.081 83.1423 133.081 82.9252V78.9843C133.081 78.7673 133.256 78.5919 133.473 78.5919C133.69 78.5919 133.865 78.7673 133.865 78.9843V82.9252C133.865 83.1423 133.69 83.3176 133.473 83.3176ZM133.473 75.4359C133.256 75.4359 133.081 75.2606 133.081 75.0435V71.1026C133.081 70.8855 133.256 70.7102 133.473 70.7102C133.69 70.7102 133.865 70.8855 133.865 71.1026V75.0435C133.865 75.2606 133.69 75.4359 133.473 75.4359ZM133.473 67.5542C133.256 67.5542 133.081 67.3788 133.081 67.1617V63.2209C133.081 63.0038 133.256 62.8285 133.473 62.8285C133.69 62.8285 133.865 63.0038 133.865 63.2209V67.1617C133.865 67.3788 133.69 67.5542 133.473 67.5542ZM133.473 59.6474C133.256 59.6474 133.081 59.4971 133.081 59.28V59.2216C133.081 57.869 133.306 56.5414 133.74 55.2807C133.815 55.072 134.032 54.9718 134.24 55.0386C134.449 55.1137 134.557 55.3308 134.482 55.5395C134.074 56.7168 133.865 57.9608 133.865 59.2216C133.865 59.4386 133.69 59.639 133.473 59.639V59.6474ZM136.008 52.3751C135.925 52.3751 135.833 52.3501 135.767 52.2917C135.6 52.1581 135.566 51.9076 135.708 51.7406C136.559 50.6719 137.576 49.7702 138.727 49.0438C138.911 48.9269 139.153 48.9853 139.269 49.169C139.386 49.3527 139.328 49.5948 139.144 49.7117C138.068 50.388 137.118 51.2313 136.317 52.2332C136.242 52.3334 136.125 52.3835 136.008 52.3835V52.3751ZM142.555 48.284C142.372 48.284 142.213 48.1588 142.172 47.9751C142.122 47.7663 142.255 47.5493 142.472 47.5075C143.323 47.3155 144.198 47.2236 145.082 47.2236H146.475C146.692 47.2236 146.867 47.399 146.867 47.616C146.867 47.8331 146.692 48.0085 146.475 48.0085H145.082C144.257 48.0085 143.439 48.1003 142.647 48.2756C142.622 48.2756 142.589 48.284 142.564 48.284H142.555ZM209.434 48.0085H205.497C205.28 48.0085 205.105 47.8331 205.105 47.616C205.105 47.399 205.28 47.2236 205.497 47.2236H209.434C209.651 47.2236 209.826 47.399 209.826 47.616C209.826 47.8331 209.651 48.0085 209.434 48.0085ZM201.561 48.0085H197.624C197.407 48.0085 197.232 47.8331 197.232 47.616C197.232 47.399 197.407 47.2236 197.624 47.2236H201.561C201.778 47.2236 201.953 47.399 201.953 47.616C201.953 47.8331 201.778 48.0085 201.561 48.0085ZM193.688 48.0085H189.751C189.535 48.0085 189.359 47.8331 189.359 47.616C189.359 47.399 189.535 47.2236 189.751 47.2236H193.688C193.905 47.2236 194.08 47.399 194.08 47.616C194.08 47.8331 193.905 48.0085 193.688 48.0085ZM185.815 48.0085H181.878C181.662 48.0085 181.486 47.8331 181.486 47.616C181.486 47.399 181.662 47.2236 181.878 47.2236H185.815C186.032 47.2236 186.207 47.399 186.207 47.616C186.207 47.8331 186.032 48.0085 185.815 48.0085ZM177.942 48.0085H174.005C173.789 48.0085 173.613 47.8331 173.613 47.616C173.613 47.399 173.789 47.2236 174.005 47.2236H177.942C178.159 47.2236 178.334 47.399 178.334 47.616C178.334 47.8331 178.159 48.0085 177.942 48.0085ZM170.069 48.0085H166.132C165.916 48.0085 165.74 47.8331 165.74 47.616C165.74 47.399 165.916 47.2236 166.132 47.2236H170.069C170.286 47.2236 170.461 47.399 170.461 47.616C170.461 47.8331 170.286 48.0085 170.069 48.0085ZM162.196 48.0085H158.26C158.043 48.0085 157.868 47.8331 157.868 47.616C157.868 47.399 158.043 47.2236 158.26 47.2236H162.196C162.413 47.2236 162.588 47.399 162.588 47.616C162.588 47.8331 162.413 48.0085 162.196 48.0085ZM154.323 48.0085H150.387C150.17 48.0085 149.995 47.8331 149.995 47.616C149.995 47.399 150.17 47.2236 150.387 47.2236H154.323C154.54 47.2236 154.715 47.399 154.715 47.616C154.715 47.8331 154.54 48.0085 154.323 48.0085Z" fill="#9B86CF"/>
<path d="M215.347 48.0085H213.387C213.17 48.0085 212.995 47.8331 212.995 47.616C212.995 47.399 213.17 47.2236 213.387 47.2236H215.347C215.564 47.2236 215.739 47.399 215.739 47.616C215.739 47.8331 215.564 48.0085 215.347 48.0085Z" fill="#407BFF"/>
<path d="M133.24 314.576H137.352L137.352 185.939H133.24L133.24 314.576Z" fill="white"/>
<path d="M302.633 243.632H234.729V234.206H302.633C304.343 234.206 305.728 235.592 305.728 237.304V240.535C305.728 242.246 304.343 243.632 302.633 243.632Z" fill="#36C8BF"/>
<path d="M300.023 315.286L295.103 237.429" stroke="#36C8BF" stroke-width="2.83" stroke-linecap="round" stroke-linejoin="round"/>
<path d="M281.183 319.143L276.263 241.286" stroke="#36C8BF" stroke-width="2.83" stroke-linecap="round" stroke-linejoin="round"/>
<path d="M231.802 315.286L236.722 237.429" stroke="#36C8BF" stroke-width="2.83" stroke-linecap="round" stroke-linejoin="round"/>
<path d="M250.642 319.143L255.562 241.286" stroke="#36C8BF" stroke-width="2.83" stroke-linecap="round" stroke-linejoin="round"/>
<path d="M308.663 237.429H240.758V228.002H308.663C310.372 228.002 311.757 229.388 311.757 231.1V234.331C311.757 236.043 310.372 237.429 308.663 237.429Z" fill="#36C8BF"/>
<path opacity="0.2" d="M308.663 237.429H240.758V228.002H308.663C310.372 228.002 311.757 229.388 311.757 231.1V234.331C311.757 236.043 310.372 237.429 308.663 237.429Z" fill="black"/>
<path d="M240.275 317.649H244.387L244.387 189.011H240.275L240.275 317.649Z" fill="white"/>
<path d="M254.287 198.797C254.287 198.797 207.291 200.567 199.484 219.453C199.484 219.453 200.569 275.694 206.857 294.154L220.309 292.635L218.158 237.938L266.771 198.797H254.287Z" fill="#263238"/>
<path opacity="0.2" d="M254.287 198.797C254.287 198.797 207.291 200.567 199.484 219.453C199.484 219.453 200.569 275.694 206.857 294.154L220.309 292.635L218.158 237.938L266.771 198.797H254.287Z" fill="black"/>
<path d="M218.075 306.711H209.685L209.576 301.109L209.484 296.726L217.691 297.218L217.849 301.109L218.075 306.711Z" fill="#B55B52"/>
<path opacity="0.2" d="M217.849 301.109H209.576L209.484 296.726L217.691 297.218L217.849 301.109Z" fill="black"/>
<path d="M221.836 298.504L203.855 299.047L200.577 292.367L221.344 292.175L221.836 298.504Z" fill="#36C8BF"/>
<path d="M207.533 307.98C207.533 307.98 207.958 303.046 206.249 303.731C204.522 304.424 206.449 306.937 207.533 307.98Z" stroke="#36C8BF" stroke-width="0.94" stroke-miterlimit="10"/>
<path d="M207.533 307.98C207.533 307.98 203.838 305.4 202.896 306.711C201.962 308.03 207.533 307.98 207.533 307.98Z" stroke="#36C8BF" stroke-width="0.94" stroke-miterlimit="10"/>
<path d="M210.46 305.576L217.099 305.643C218.066 305.651 218.875 306.411 218.95 307.388L219.417 313.299C219.501 314.393 218.641 315.311 217.557 315.278C213.946 315.169 206.515 314.977 203.88 315.052C200.352 315.153 195.34 315.211 194.622 313.867C193.905 312.531 195.048 311.646 195.048 311.646C195.048 311.646 204.655 310.752 209.084 306.177C209.451 305.801 209.935 305.559 210.46 305.568V305.576Z" fill="#263238"/>
<path d="M296.454 198.797C296.454 198.797 297.338 209.759 297.005 218.234C296.621 228.003 275.612 236.611 245.03 231.618C245.03 231.618 242.644 248.124 234.188 263.32C225.731 278.524 212.495 301.109 212.495 301.109L199.477 292.643C199.477 292.643 216.615 245.085 219.868 231.835C223.12 218.585 224.422 212.289 233.754 208.165C243.078 204.04 263.469 198.797 263.469 198.797H296.454Z" fill="#263238"/>
<path d="M207.533 298.621L205.99 300.992L202.596 306.227L196.082 302.429L199.493 297.118L200.819 295.064L207.533 298.621Z" fill="#B55B52"/>
<path opacity="0.2" d="M207.533 298.621L205.99 300.992L199.493 297.118L200.819 295.064L207.533 298.621Z" fill="black"/>
<path d="M215.898 296.726L198.843 286.498L196.082 293.319L212.27 302.679L215.898 296.726Z" fill="#36C8BF"/>
<path d="M191.62 302.679C191.62 302.679 192.862 298.404 191.461 298.329C190.06 298.254 191.62 302.679 191.62 302.679Z" stroke="#36C8BF" stroke-width="0.94" stroke-miterlimit="10"/>
<path d="M191.294 302.521C191.294 302.521 189.376 297.878 187.825 298.914C186.274 299.949 191.294 302.521 191.294 302.521Z" stroke="#36C8BF" stroke-width="0.94" stroke-miterlimit="10"/>
<path d="M196.924 301.961L202.612 305.326C203.438 305.818 203.755 306.862 203.321 307.722L200.735 312.957C200.26 313.925 199.051 314.276 198.133 313.708C195.073 311.821 188.759 307.964 186.449 306.72C183.355 305.05 179.001 302.604 179.068 301.118C179.127 299.623 180.561 299.448 180.561 299.448C180.561 299.448 189.301 303.472 195.431 301.802C195.94 301.66 196.474 301.702 196.924 301.969V301.961Z" fill="#263238"/>
<path d="M243.661 150.889C243.661 150.889 241.91 170.042 242.619 174.968C242.619 174.968 224.338 177.64 215.047 176.379L208.859 174.826L201.119 176.713L203.229 182.85H209.417C209.417 182.85 213.921 184.119 215.889 182.85C215.889 182.85 231.36 185.947 240.501 184.962C249.641 183.977 252.477 180.495 252.877 173.557C253.269 166.886 257.664 151.999 254.145 148.618L243.653 150.88L243.661 150.889Z" fill="#ED8E84"/>
<path d="M306.445 153.042C306.445 153.042 299.431 135.208 292.609 131.184C285.787 127.151 254.204 134.866 254.204 134.866C254.204 134.866 240.651 139.233 239.867 160.431L252.319 165.717L254.287 198.805H296.454L296.229 155.948L306.445 153.051V153.042Z" fill="#36C8BF"/>
<path d="M254.771 99.9077C254.771 99.9077 250.592 99.39 249.466 96.2507C248.332 93.1114 252.686 94.6977 252.319 89.0369C251.952 83.3761 258.449 82.0152 263.169 84.5116C267.89 86.9997 275.354 84.2862 278.181 87.6843C281.008 91.0825 279.766 94.2469 279.766 94.2469C279.766 94.2469 287.872 103.423 277.597 109.701C267.331 115.98 254.771 99.9077 254.771 99.9077Z" fill="#222222"/>
<path d="M279.29 130.424C274.787 137.296 270.733 138.005 265.296 137.997C259.208 137.972 261.242 133.655 261.242 133.655C263.794 132.378 265.654 131.009 265.946 127.861C266.005 127.226 266.021 126.609 265.988 126.024C265.888 123.686 265.262 121.866 265.262 121.866C256.63 122.651 253.586 118.426 252.502 110.478C251.426 102.521 255.054 96.2422 255.054 96.2422C260.058 102.137 269.474 97.5196 269.474 97.5196C266.83 105.184 273.302 107.931 273.302 107.931C275.846 106.362 277.806 107.731 277.614 110.778C277.414 113.826 274.77 114.611 274.77 114.611C274.278 128.153 279.274 130.416 279.274 130.416L279.29 130.424Z" fill="#ED8E84"/>
<path d="M257.448 113.601C257.306 113.601 257.189 113.492 257.181 113.35C257.181 113.2 257.289 113.075 257.431 113.066C260.442 112.899 261.626 111.455 261.634 111.438C261.726 111.321 261.893 111.304 262.01 111.396C262.126 111.488 262.143 111.655 262.06 111.772C262.01 111.839 260.742 113.425 257.464 113.601H257.448Z" fill="#222222"/>
<path d="M257.448 110.311L256.956 105.243L254.771 109.851C254.771 109.851 255.921 110.887 257.448 110.311Z" fill="#BA584D"/>
<path d="M260.816 105.243C260.816 105.878 261.117 106.395 261.475 106.395C261.834 106.395 262.134 105.878 262.134 105.243C262.134 104.608 261.834 104.091 261.475 104.091C261.117 104.091 260.816 104.608 260.816 105.243Z" fill="#263238"/>
<path d="M253.453 105.243C253.453 105.878 253.745 106.395 254.112 106.395C254.479 106.395 254.771 105.878 254.771 105.243C254.771 104.608 254.471 104.091 254.112 104.091C253.753 104.091 253.453 104.608 253.453 105.243Z" fill="#263238"/>
<path d="M265.187 102.663C265.078 102.663 264.97 102.613 264.895 102.513C264.853 102.446 263.76 100.976 261.225 101.444C261.033 101.477 260.85 101.352 260.808 101.16C260.775 100.968 260.9 100.784 261.092 100.743C264.094 100.191 265.42 102.02 265.47 102.095C265.587 102.254 265.545 102.479 265.387 102.588C265.328 102.629 265.253 102.654 265.187 102.654V102.663Z" fill="#222222"/>
<path d="M252.994 102.229C252.936 102.229 252.886 102.22 252.836 102.187C252.661 102.095 252.594 101.886 252.677 101.711C253.47 100.15 255.379 100.384 255.455 100.4C255.646 100.425 255.788 100.601 255.763 100.801C255.738 100.993 255.555 101.135 255.363 101.11C255.304 101.11 253.878 100.935 253.311 102.037C253.253 102.162 253.128 102.229 252.994 102.229Z" fill="#222222"/>
<path d="M252.427 109.192C250.251 109.192 248.482 107.422 248.482 105.243C248.482 103.064 250.251 101.293 252.427 101.293C254.604 101.293 256.372 103.064 256.372 105.243C256.372 107.422 254.604 109.192 252.427 109.192ZM252.427 101.819C250.542 101.819 249.016 103.356 249.016 105.243C249.016 107.13 250.551 108.658 252.427 108.658C254.304 108.658 255.847 107.121 255.847 105.243C255.847 103.364 254.312 101.819 252.427 101.819Z" fill="white"/>
<path d="M261.851 109.192C259.674 109.192 257.906 107.422 257.906 105.243C257.906 103.064 259.674 101.293 261.851 101.293C264.028 101.293 265.796 103.064 265.796 105.243C265.796 107.422 264.028 109.192 261.851 109.192ZM261.851 101.819C259.966 101.819 258.44 103.356 258.44 105.243C258.44 107.13 259.975 108.658 261.851 108.658C263.728 108.658 265.27 107.121 265.27 105.243C265.27 103.364 263.736 101.819 261.851 101.819Z" fill="white"/>
<path d="M256.38 105.243H257.898" stroke="white" stroke-width="0.94" stroke-miterlimit="10"/>
<path d="M265.537 105.969L272.935 107.748" stroke="white" stroke-width="0.94" stroke-linecap="round" stroke-linejoin="round"/>
<path opacity="0.2" d="M268.131 121.098C268.131 121.098 267.364 124.02 265.996 126.033C265.896 123.695 265.271 121.875 265.271 121.875L268.131 121.09V121.098Z" fill="#6B180F"/>
<path opacity="0.2" d="M252.319 165.708V160.423L250.184 164.807L252.319 165.708Z" fill="black"/>
<path opacity="0.2" d="M287.121 158.653L285.495 149.144L285.036 159.488L287.121 158.653Z" fill="black"/>
<path d="M298.756 178.608C298.647 185.563 295.52 189.028 286.379 190.013C277.238 190.999 261.768 187.901 261.768 187.901C259.799 189.179 255.296 187.901 255.296 187.901H249.108L247.006 181.773L254.737 179.877L260.925 181.43C270.208 182.7 288.489 180.019 288.489 180.019C287.964 176.329 287.371 164.281 287.121 158.654L298.03 155.422C299.106 162.761 298.847 172.605 298.756 178.608Z" fill="#ED8E84"/>
<path d="M137.418 142.289L144.807 179.952C145.141 181.639 146.608 182.849 148.326 182.849H210.818C213.053 182.849 214.746 180.829 214.354 178.625L207.649 140.961C207.34 139.249 205.856 137.997 204.113 137.997H140.937C138.677 137.997 136.984 140.059 137.418 142.28V142.289Z" fill="#36C8BF"/>
<path opacity="0.2" d="M205.055 137.997L212.861 182.841C214.029 182.841 214.904 181.789 214.704 180.637L207.39 139.533C207.231 138.64 206.456 137.989 205.547 137.989H205.055V137.997Z" fill="black"/>
<path d="M145.532 186.448H241.642C241.642 185.455 241.234 184.553 240.592 183.91C239.941 183.259 239.04 182.858 238.056 182.858H149.143C147.15 182.858 145.541 184.469 145.541 186.456L145.532 186.448Z" fill="#36C8BF"/>
<path opacity="0.2" d="M209.893 186.448H241.643C241.643 185.455 241.234 184.553 240.592 183.91C239.942 183.259 239.041 182.858 238.057 182.858H213.504C211.511 182.858 209.901 184.469 209.901 186.456L209.893 186.448Z" fill="black"/>
<path opacity="0.4" d="M168.243 161.826C168.918 166.51 172.154 169.925 175.474 169.449C178.793 168.973 180.936 164.782 180.269 160.098C179.594 155.414 176.358 151.999 173.038 152.475C169.719 152.951 167.576 157.142 168.243 161.826Z" fill="white"/>
<path opacity="0.2" d="M145.532 186.448H241.642C241.642 185.455 241.234 184.553 240.592 183.91C239.941 183.259 239.04 182.858 238.056 182.858H149.143C147.15 182.858 145.541 184.469 145.541 186.456L145.532 186.448Z" fill="black"/>
<path d="M106.168 191.107H272.134C272.134 187.826 269.473 185.162 266.196 185.162H112.114C108.837 185.162 106.176 187.826 106.176 191.107H106.168Z" fill="white"/>
</svg>
