<svg width="374" height="370" viewBox="0 0 374 370" fill="none" xmlns="http://www.w3.org/2000/svg">
<g clip-path="url(#clip0_1531_961)">
<path d="M131.13 316.31V5.77979" stroke="#6540BF" stroke-miterlimit="10" stroke-linecap="round"/>
<path d="M53.6006 235.44V69.3101" stroke="#6540BF" stroke-miterlimit="10" stroke-linecap="round"/>
<path d="M148.54 274.81V28.3398" stroke="#6540BF" stroke-miterlimit="10" stroke-linecap="round"/>
<path d="M222.62 274.81V30.98" stroke="#6540BF" stroke-miterlimit="10" stroke-linecap="round"/>
<path d="M294.67 322.08V36.75" stroke="#6540BF" stroke-miterlimit="10" stroke-linecap="round"/>
<path d="M56.24 66.6698C56.24 68.1298 55.06 69.3098 53.6 69.3098C52.14 69.3098 50.96 68.1298 50.96 66.6698C50.96 65.2098 52.14 64.0298 53.6 64.0298C55.06 64.0298 56.24 65.2098 56.24 66.6698Z" stroke="#6540BF" stroke-miterlimit="10" stroke-linecap="round"/>
<path d="M133.77 3.14C133.77 4.6 132.59 5.78 131.13 5.78C129.67 5.78 128.49 4.6 128.49 3.14C128.49 1.68 129.67 0.5 131.13 0.5C132.59 0.5 133.77 1.68 133.77 3.14Z" stroke="#6540BF" stroke-miterlimit="10" stroke-linecap="round"/>
<path d="M151.19 25.7001C151.19 27.1601 150.01 28.3401 148.55 28.3401C147.09 28.3401 145.91 27.1601 145.91 25.7001C145.91 24.2401 147.09 23.0601 148.55 23.0601C150.01 23.0601 151.19 24.2401 151.19 25.7001Z" stroke="#6540BF" stroke-miterlimit="10" stroke-linecap="round"/>
<path d="M297.31 33.62C297.31 35.08 296.13 36.26 294.67 36.26C293.21 36.26 292.03 35.08 292.03 33.62C292.03 32.16 293.21 30.98 294.67 30.98C296.13 30.98 297.31 32.16 297.31 33.62Z" stroke="#6540BF" stroke-miterlimit="10" stroke-linecap="round"/>
<path d="M328.689 163.21V55.8101" stroke="#6540BF" stroke-miterlimit="10" stroke-linecap="round"/>
<path d="M331.33 52.7601C331.33 54.2201 330.15 55.4001 328.69 55.4001C327.23 55.4001 326.05 54.2201 326.05 52.7601C326.05 51.3001 327.23 50.1201 328.69 50.1201C330.15 50.1201 331.33 51.3001 331.33 52.7601Z" stroke="#6540BF" stroke-miterlimit="10" stroke-linecap="round"/>
<path d="M369.979 274.71V125.61" stroke="#6540BF" stroke-miterlimit="10" stroke-linecap="round"/>
<path d="M372.62 122.56C372.62 124.02 371.44 125.2 369.98 125.2C368.52 125.2 367.34 124.02 367.34 122.56C367.34 121.1 368.52 119.92 369.98 119.92C371.44 119.92 372.62 121.1 372.62 122.56Z" stroke="#6540BF" stroke-miterlimit="10" stroke-linecap="round"/>
<path d="M15.4199 267.63V118.53" stroke="#6540BF" stroke-miterlimit="10" stroke-linecap="round"/>
<path d="M18.0603 115.48C18.0603 116.94 16.8803 118.12 15.4203 118.12C13.9603 118.12 12.7803 116.94 12.7803 115.48C12.7803 114.02 13.9603 112.84 15.4203 112.84C16.8803 112.84 18.0603 114.02 18.0603 115.48Z" stroke="#6540BF" stroke-miterlimit="10" stroke-linecap="round"/>
<path d="M225.26 28.3402C225.26 29.8002 224.08 30.9802 222.62 30.9802C221.16 30.9802 219.98 29.8002 219.98 28.3402C219.98 26.8802 221.16 25.7002 222.62 25.7002C224.08 25.7002 225.26 26.8802 225.26 28.3402Z" stroke="#6540BF" stroke-miterlimit="10" stroke-linecap="round"/>
<path d="M354.22 173.06V142.62C354.22 139.87 352.09 137.6 349.35 137.42L335.86 136.54C334.04 129.82 331.37 123.45 327.98 117.55L336.9 107.38C338.71 105.32 338.61 102.2 336.67 100.26L315.14 78.7302C313.2 76.7902 310.08 76.6902 308.02 78.5002L297.85 87.4202C291.94 84.0302 285.58 81.3702 278.86 79.5402L277.98 66.0502C277.8 63.3102 275.53 61.1802 272.78 61.1802H242.34C239.59 61.1802 237.32 63.3102 237.14 66.0502L236.26 79.5402C229.54 81.3602 223.17 84.0302 217.27 87.4202L207.1 78.5002C205.04 76.6902 201.92 76.7902 199.98 78.7302L178.45 100.26C176.51 102.2 176.41 105.32 178.22 107.38L187.14 117.55C183.75 123.46 181.09 129.82 179.26 136.54L165.77 137.42C163.03 137.6 160.9 139.87 160.9 142.62V173.06C160.9 175.81 163.03 178.08 165.77 178.26L179.26 179.14C181.08 185.86 183.75 192.23 187.14 198.13L178.22 208.3C176.41 210.36 176.51 213.48 178.45 215.42L199.98 236.95C201.92 238.89 205.04 238.99 207.1 237.18L217.27 228.26C223.18 231.65 229.54 234.31 236.26 236.14L237.14 249.63C237.32 252.37 239.59 254.5 242.34 254.5H272.78C275.53 254.5 277.8 252.37 277.98 249.63L278.86 236.14C285.58 234.32 291.95 231.65 297.85 228.26L308.02 237.18C310.08 238.99 313.2 238.89 315.14 236.95L336.67 215.42C338.61 213.48 338.71 210.36 336.9 208.3L327.98 198.13C331.37 192.22 334.03 185.86 335.86 179.14L349.35 178.26C352.09 178.08 354.22 175.81 354.22 173.06V173.06ZM262.46 205.59C232.1 208.6 206.8 183.29 209.81 152.94C212.04 130.48 230.2 112.31 252.67 110.08C283.03 107.07 308.33 132.38 305.32 162.73C303.1 185.19 284.93 203.36 262.46 205.59V205.59Z" stroke="#6540BF" stroke-miterlimit="10"/>
<path d="M157.21 211.06V190.27C157.21 188.4 155.76 186.84 153.88 186.72L144.67 186.12C143.42 181.53 141.6 177.18 139.29 173.15L145.39 166.2C146.63 164.79 146.56 162.66 145.23 161.34L130.53 146.64C129.2 145.31 127.08 145.24 125.67 146.48L118.72 152.58C114.69 150.27 110.34 148.45 105.75 147.2L105.15 137.99C105.03 136.12 103.47 134.66 101.6 134.66H80.8102C78.9402 134.66 77.3802 136.12 77.2602 137.99L76.6602 147.2C72.0702 148.45 67.7202 150.27 63.6902 152.58L56.7402 146.48C55.3302 145.24 53.2002 145.31 51.8802 146.64L37.1802 161.34C35.8502 162.67 35.7802 164.79 37.0202 166.2L43.1202 173.15C40.8102 177.18 38.9902 181.53 37.7402 186.12L28.5302 186.72C26.6602 186.84 25.2002 188.4 25.2002 190.27V211.06C25.2002 212.93 26.6502 214.49 28.5302 214.61L37.7402 215.21C38.9902 219.8 40.8102 224.15 43.1202 228.18L37.0202 235.13C35.7802 236.54 35.8502 238.67 37.1802 239.99L51.8802 254.69C53.2102 256.02 55.3302 256.09 56.7402 254.85L63.6902 248.75C67.7202 251.06 72.0702 252.88 76.6602 254.13L77.2602 263.34C77.3802 265.21 78.9402 266.67 80.8102 266.67H101.6C103.47 266.67 105.03 265.22 105.15 263.34L105.75 254.13C110.34 252.88 114.69 251.06 118.72 248.75L125.67 254.85C127.08 256.09 129.21 256.02 130.53 254.69L145.23 239.99C146.56 238.66 146.63 236.54 145.39 235.13L139.29 228.18C141.6 224.15 143.42 219.8 144.67 215.21L153.88 214.61C155.75 214.49 157.21 212.93 157.21 211.06V211.06ZM94.5402 233.28C73.8102 235.33 56.5302 218.05 58.5802 197.32C60.1002 181.98 72.5102 169.57 87.8502 168.05C108.58 166 125.86 183.28 123.81 204.01C122.29 219.35 109.88 231.76 94.5402 233.28Z" stroke="#6540BF" stroke-miterlimit="10"/>
<path d="M360.66 370H15.4199L82.6499 317.64H293.43L360.66 370Z" fill="#4F3197"/>
<path d="M293.429 163.21H82.6494V285.69H293.429V163.21Z" fill="#A3CAEF"/>
<path d="M287.219 166.82H88.8594V282.08H287.219V166.82Z" fill="#4E6D84"/>
<path d="M145.589 191.89H101.099C100.189 191.89 99.4492 191.15 99.4492 190.24C99.4492 189.33 100.189 188.59 101.099 188.59H145.589C146.499 188.59 147.239 189.33 147.239 190.24C147.239 191.15 146.499 191.89 145.589 191.89Z" fill="#66E29E"/>
<path d="M197.919 191.89H153.429C152.519 191.89 151.779 191.15 151.779 190.24C151.779 189.33 152.519 188.59 153.429 188.59H197.919C198.829 188.59 199.569 189.33 199.569 190.24C199.569 191.15 198.829 191.89 197.919 191.89Z" fill="#66E29E"/>
<path d="M218.969 191.89H206.769C205.859 191.89 205.119 191.15 205.119 190.24C205.119 189.33 205.859 188.59 206.769 188.59H218.969C219.879 188.59 220.619 189.33 220.619 190.24C220.619 191.15 219.879 191.89 218.969 191.89Z" fill="#80AEFF"/>
<path d="M159.869 223.19H101.099C100.189 223.19 99.4492 222.45 99.4492 221.54C99.4492 220.63 100.189 219.89 101.099 219.89H159.869C160.779 219.89 161.519 220.63 161.519 221.54C161.519 222.45 160.779 223.19 159.869 223.19Z" fill="#66E29E"/>
<path d="M203.909 223.19H168.859C167.949 223.19 167.209 222.45 167.209 221.54C167.209 220.63 167.949 219.89 168.859 219.89H203.909C204.819 219.89 205.559 220.63 205.559 221.54C205.559 222.45 204.819 223.19 203.909 223.19Z" fill="#80AEFF"/>
<path d="M122.599 202.32H101.099C100.189 202.32 99.4492 201.58 99.4492 200.67C99.4492 199.76 100.189 199.02 101.099 199.02H122.599C123.509 199.02 124.249 199.76 124.249 200.67C124.249 201.58 123.509 202.32 122.599 202.32Z" fill="#80AEFF"/>
<path d="M166.639 202.32H128.629C127.719 202.32 126.979 201.58 126.979 200.67C126.979 199.76 127.719 199.02 128.629 199.02H166.639C167.549 199.02 168.289 199.76 168.289 200.67C168.289 201.58 167.549 202.32 166.639 202.32Z" fill="#66E29E"/>
<path d="M140.289 181.45H101.099C100.189 181.45 99.4492 180.71 99.4492 179.8C99.4492 178.89 100.189 178.15 101.099 178.15H140.289C141.199 178.15 141.939 178.89 141.939 179.8C141.939 180.71 141.199 181.45 140.289 181.45Z" fill="#66E29E"/>
<path d="M239.859 181.45H148.529C147.619 181.45 146.879 180.71 146.879 179.8C146.879 178.89 147.619 178.15 148.529 178.15H239.859C240.769 178.15 241.509 178.89 241.509 179.8C241.509 180.71 240.769 181.45 239.859 181.45Z" fill="#80AEFF"/>
<path d="M218.969 212.76H199.479C198.569 212.76 197.829 212.02 197.829 211.11C197.829 210.2 198.569 209.46 199.479 209.46H218.969C219.879 209.46 220.619 210.2 220.619 211.11C220.619 212.02 219.879 212.76 218.969 212.76Z" fill="#80AEFF"/>
<path d="M192.429 212.76H101.099C100.189 212.76 99.4492 212.02 99.4492 211.11C99.4492 210.2 100.189 209.46 101.099 209.46H192.429C193.339 209.46 194.079 210.2 194.079 211.11C194.079 212.02 193.339 212.76 192.429 212.76Z" fill="#66E29E"/>
<path d="M145.589 244.06H101.099C100.189 244.06 99.4492 243.32 99.4492 242.41C99.4492 241.5 100.189 240.76 101.099 240.76H145.589C146.499 240.76 147.239 241.5 147.239 242.41C147.239 243.32 146.499 244.06 145.589 244.06Z" fill="#66E29E"/>
<path d="M197.919 244.06H153.429C152.519 244.06 151.779 243.32 151.779 242.41C151.779 241.5 152.519 240.76 153.429 240.76H197.919C198.829 240.76 199.569 241.5 199.569 242.41C199.569 243.32 198.829 244.06 197.919 244.06Z" fill="#66E29E"/>
<path d="M218.969 244.06H206.769C205.859 244.06 205.119 243.32 205.119 242.41C205.119 241.5 205.859 240.76 206.769 240.76H218.969C219.879 240.76 220.619 241.5 220.619 242.41C220.619 243.32 219.879 244.06 218.969 244.06Z" fill="#80AEFF"/>
<path d="M159.869 275.36H101.099C100.189 275.36 99.4492 274.62 99.4492 273.71C99.4492 272.8 100.189 272.06 101.099 272.06H159.869C160.779 272.06 161.519 272.8 161.519 273.71C161.519 274.62 160.779 275.36 159.869 275.36Z" fill="#66E29E"/>
<path d="M203.909 275.36H168.859C167.949 275.36 167.209 274.62 167.209 273.71C167.209 272.8 167.949 272.06 168.859 272.06H203.909C204.819 272.06 205.559 272.8 205.559 273.71C205.559 274.62 204.819 275.36 203.909 275.36Z" fill="#80AEFF"/>
<path d="M122.599 254.49H101.099C100.189 254.49 99.4492 253.75 99.4492 252.84C99.4492 251.93 100.189 251.19 101.099 251.19H122.599C123.509 251.19 124.249 251.93 124.249 252.84C124.249 253.75 123.509 254.49 122.599 254.49Z" fill="#80AEFF"/>
<path d="M166.639 254.49H128.629C127.719 254.49 126.979 253.75 126.979 252.84C126.979 251.93 127.719 251.19 128.629 251.19H166.639C167.549 251.19 168.289 251.93 168.289 252.84C168.289 253.75 167.549 254.49 166.639 254.49Z" fill="#66E29E"/>
<path d="M140.289 233.63H101.099C100.189 233.63 99.4492 232.89 99.4492 231.98C99.4492 231.07 100.189 230.33 101.099 230.33H140.289C141.199 230.33 141.939 231.07 141.939 231.98C141.939 232.89 141.199 233.63 140.289 233.63Z" fill="#66E29E"/>
<path d="M148.449 230.32H230.729C231.599 230.32 232.299 231.02 232.299 231.89V232.06C232.299 232.93 231.599 233.63 230.729 233.63H148.449C147.579 233.63 146.879 232.93 146.879 232.06V231.89C146.879 231.02 147.579 230.32 148.449 230.32Z" fill="#80AEFF"/>
<path d="M218.969 264.93H199.479C198.569 264.93 197.829 264.19 197.829 263.28C197.829 262.37 198.569 261.63 199.479 261.63H218.969C219.879 261.63 220.619 262.37 220.619 263.28C220.619 264.19 219.879 264.93 218.969 264.93Z" fill="#80AEFF"/>
<path d="M192.429 264.93H101.099C100.189 264.93 99.4492 264.19 99.4492 263.28C99.4492 262.37 100.189 261.63 101.099 261.63H192.429C193.339 261.63 194.079 262.37 194.079 263.28C194.079 264.19 193.339 264.93 192.429 264.93Z" fill="#66E29E"/>
<path d="M360.66 338.05H15.4199L82.6499 285.69H293.43L360.66 338.05Z" fill="#B3D6FF"/>
<path d="M67.46 288.95L76.74 281.96" stroke="#8AB7CE" stroke-miterlimit="10" stroke-linecap="round"/>
<path d="M34.1094 314.08L64.1094 291.48" stroke="#8AB7CE" stroke-miterlimit="10" stroke-linecap="round"/>
<path d="M50.9596 349.39H7.17962C0.779624 349.39 -1.95038 341.24 3.16962 337.39L12.7796 330.15" stroke="#8AB7CE" stroke-miterlimit="10" stroke-linecap="round"/>
<path d="M235.799 349.39H82.6494" stroke="#8AB7CE" stroke-miterlimit="10" stroke-linecap="round"/>
<path d="M337.49 349.39H263.52" stroke="#8AB7CE" stroke-miterlimit="10" stroke-linecap="round"/>
<path d="M334.84 309.71L348.09 319.69" stroke="#8AB7CE" stroke-miterlimit="10" stroke-linecap="round"/>
<path d="M306.88 288.65L332.22 307.74" stroke="#8AB7CE" stroke-miterlimit="10" stroke-linecap="round"/>
<path d="M104.159 290.59H92.6895L96.8695 287.31H107.839L104.159 290.59Z" fill="#6E89A0"/>
<path d="M97.6104 296.7H84.9004L89.7804 292.87H101.89L97.6104 296.7Z" fill="#6E89A0"/>
<path d="M116.96 296.7H104.26L108.23 292.87H120.33L116.96 296.7Z" fill="#6E89A0"/>
<path d="M136.32 296.7H123.62L126.67 292.87H138.77L136.32 296.7Z" fill="#6E89A0"/>
<path d="M155.68 296.7H142.97L145.11 292.87H157.21L155.68 296.7Z" fill="#6E89A0"/>
<path d="M175.03 296.7H162.33L163.55 292.87H175.65L175.03 296.7Z" fill="#6E89A0"/>
<path d="M194.389 296.7H181.689L181.989 292.87H194.089L194.389 296.7Z" fill="#6E89A0"/>
<path d="M213.75 296.7H201.05L200.43 292.87H212.53L213.75 296.7Z" fill="#6E89A0"/>
<path d="M233.11 296.7H220.4L218.87 292.87H230.97L233.11 296.7Z" fill="#6E89A0"/>
<path d="M252.46 296.7H239.76L237.31 292.87H249.41L252.46 296.7Z" fill="#6E89A0"/>
<path d="M271.82 296.7H259.12L255.75 292.87H267.85L271.82 296.7Z" fill="#6E89A0"/>
<path d="M291.179 296.7H278.469L274.189 292.87H286.299L291.179 296.7Z" fill="#6E89A0"/>
<path d="M90.4502 303.11H76.7402L82.4002 298.66H95.4202L90.4502 303.11Z" fill="#6E89A0"/>
<path d="M111.34 303.11H97.6299L102.23 298.66H115.24L111.34 303.11Z" fill="#6E89A0"/>
<path d="M132.23 303.11H118.52L122.06 298.66H135.07L132.23 303.11Z" fill="#6E89A0"/>
<path d="M153.12 303.11H139.41L141.88 298.66H154.89L153.12 303.11Z" fill="#6E89A0"/>
<path d="M174.01 303.11H160.3L161.71 298.66H174.72L174.01 303.11Z" fill="#6E89A0"/>
<path d="M194.889 303.11H181.189L181.529 298.66H194.549L194.889 303.11Z" fill="#6E89A0"/>
<path d="M215.78 303.11H202.07L201.36 298.66H214.37L215.78 303.11Z" fill="#6E89A0"/>
<path d="M236.669 303.11H222.959L221.189 298.66H234.199L236.669 303.11Z" fill="#6E89A0"/>
<path d="M257.56 303.11H243.85L241.01 298.66H254.02L257.56 303.11Z" fill="#6E89A0"/>
<path d="M278.45 303.11H264.74L260.84 298.66H273.85L278.45 303.11Z" fill="#6E89A0"/>
<path d="M299.34 303.11H285.63L280.66 298.66H293.67L299.34 303.11Z" fill="#6E89A0"/>
<path d="M81.6199 311.01H66.6699L73.3799 305.75H87.4999L81.6199 311.01Z" fill="#6E89A0"/>
<path d="M104.4 311.01H89.4502L94.9002 305.75H109.02L104.4 311.01Z" fill="#6E89A0"/>
<path d="M240.719 311.01H112.229L116.419 305.75H237.809L240.719 311.01Z" fill="#6E89A0"/>
<path d="M263.85 311.01H248.9L245.54 305.75H259.66L263.85 311.01Z" fill="#6E89A0"/>
<path d="M286.63 311.01H271.68L267.06 305.75H281.18L286.63 311.01Z" fill="#6E89A0"/>
<path d="M309.41 311.01H294.46L288.58 305.75H302.7L309.41 311.01Z" fill="#6E89A0"/>
<path d="M127.38 290.59H115.91L119.08 287.31H130.05L127.38 290.59Z" fill="#6E89A0"/>
<path d="M143.78 290.59H132.3L134.75 287.31H145.72L143.78 290.59Z" fill="#6E89A0"/>
<path d="M160.17 290.59H148.7L150.42 287.31H161.39L160.17 290.59Z" fill="#6E89A0"/>
<path d="M176.56 290.59H165.09L166.1 287.31H177.07L176.56 290.59Z" fill="#6E89A0"/>
<path d="M192.96 290.59H181.479L181.77 287.31H192.74L192.96 290.59Z" fill="#6E89A0"/>
<path d="M209.349 290.59H197.879L197.439 287.31H208.419L209.349 290.59Z" fill="#6E89A0"/>
<path d="M226.29 290.59H214.82L213.64 287.31H224.61L226.29 290.59Z" fill="#6E89A0"/>
<path d="M252.25 290.59H240.77L238.46 287.31H249.43L252.25 290.59Z" fill="#6E89A0"/>
<path d="M267.82 290.59H256.35L253.35 287.31H264.32L267.82 290.59Z" fill="#6E89A0"/>
<path d="M283.39 290.59H271.92L268.24 287.31H279.21L283.39 290.59Z" fill="#6E89A0"/>
<path d="M227.4 330.95H148.68L154.89 316.31H221.19L227.4 330.95Z" fill="#85AED6"/>
<path d="M15.4192 338.05H360.659V338.7C360.659 341.52 358.369 343.82 355.539 343.82H20.5292C17.7092 343.82 15.4092 341.53 15.4092 338.7V338.05H15.4192Z" fill="#96C1EA"/>
<g opacity="0.85">
<path opacity="0.85" d="M147.74 97.4302H233.1C234.58 97.4302 235.79 98.6402 235.79 100.12V248.5C235.79 249.98 234.58 251.19 233.1 251.19H147.74C146.26 251.19 145.05 249.98 145.05 248.5V100.12C145.05 98.6402 146.26 97.4302 147.74 97.4302Z" fill="#96A8EA"/>
<path opacity="0.85" d="M232.3 103.34H148.54V231.97H232.3V103.34Z" fill="#C0E0FC"/>
<path opacity="0.85" d="M195.539 241.86C195.539 244.68 193.249 246.97 190.429 246.97C187.609 246.97 185.319 244.68 185.319 241.86C185.319 239.04 187.609 236.75 190.429 236.75C193.249 236.75 195.539 239.04 195.539 241.86Z" fill="#C0E0FC"/>
</g>
<path d="M82.5597 122.73H46.3997C40.0871 122.73 34.9697 127.847 34.9697 134.16V170.32C34.9697 176.633 40.0871 181.75 46.3997 181.75H82.5597C88.8723 181.75 93.9897 176.633 93.9897 170.32V134.16C93.9897 127.847 88.8723 122.73 82.5597 122.73Z" fill="#958ED6"/>
<path d="M84.6997 119.23H44.2497C37.1915 119.23 31.4697 124.952 31.4697 132.01V172.46C31.4697 179.518 37.1915 185.24 44.2497 185.24H84.6997C91.7579 185.24 97.4797 179.518 97.4797 172.46V132.01C97.4797 124.952 91.7579 119.23 84.6997 119.23Z" stroke="#958ED6" stroke-miterlimit="10"/>
<path d="M43.3193 144.75H49.2293C52.5393 144.75 55.2793 145.81 55.2793 149.58C55.2793 153.35 52.7393 154.46 49.3893 154.46H46.8293V160.67H43.3193V144.75ZM46.8293 151.5H49.1693C50.4093 151.5 51.6393 151.07 51.6393 149.59C51.6393 147.95 49.9793 147.72 48.6293 147.72H46.8293V151.5Z" fill="#E1F4FF"/>
<path d="M57.4893 144.75H60.9993V150.69H67.8093V144.75H71.3193V160.67H67.8093V153.79H60.9993V160.67H57.4893V144.75Z" fill="#E1F4FF"/>
<path d="M74.5596 144.75H80.4696C83.7796 144.75 86.5196 145.81 86.5196 149.58C86.5196 153.35 83.9796 154.46 80.6296 154.46H78.0696V160.67H74.5596V144.75ZM78.0696 151.5H80.4096C81.6496 151.5 82.8796 151.07 82.8796 149.59C82.8796 147.95 81.2196 147.72 79.8696 147.72H78.0696V151.5Z" fill="#E1F4FF"/>
<path d="M323.42 200.81H287.26C280.947 200.81 275.83 205.927 275.83 212.24V248.4C275.83 254.713 280.947 259.83 287.26 259.83H323.42C329.733 259.83 334.85 254.713 334.85 248.4V212.24C334.85 205.927 329.733 200.81 323.42 200.81Z" fill="#679AF4"/>
<path d="M325.56 197.31H285.11C278.052 197.31 272.33 203.032 272.33 210.09V250.54C272.33 257.598 278.052 263.32 285.11 263.32H325.56C332.618 263.32 338.34 257.598 338.34 250.54V210.09C338.34 203.032 332.618 197.31 325.56 197.31Z" stroke="#80AEFF" stroke-miterlimit="10"/>
<path d="M295.53 224.35C294.8 223.48 293.74 222.99 292.38 222.99C289.61 222.99 287.56 225.25 287.56 228.35C287.56 231.45 289.6 233.71 292.26 233.71C293.74 233.71 294.94 233.05 295.69 231.92L298.75 234.2C297.36 236.17 295.01 237.09 292.73 237.09C287.54 237.09 283.75 233.68 283.75 228.35C283.75 223.02 287.53 219.61 292.73 219.61C294.59 219.61 296.94 220.24 298.35 222.05L295.53 224.35Z" fill="#E1F4FF"/>
<path d="M300.44 228.06H305.4V223.1H308.36V228.06H313.32V231.02H308.36V235.98H305.4V231.02H300.44V228.06Z" fill="#E1F4FF"/>
<path d="M316.09 228.06H321.05V223.1H324.01V228.06H328.97V231.02H324.01V235.98H321.05V231.02H316.09V228.06Z" fill="#E1F4FF"/>
<path d="M291.951 137.13H266.311C261.837 137.13 258.211 140.757 258.211 145.23V170.87C258.211 175.344 261.837 178.97 266.311 178.97H291.951C296.424 178.97 300.051 175.344 300.051 170.87V145.23C300.051 140.757 296.424 137.13 291.951 137.13Z" fill="#F79B48"/>
<path d="M293.47 134.66H264.79C259.787 134.66 255.73 138.716 255.73 143.72V172.4C255.73 177.404 259.787 181.46 264.79 181.46H293.47C298.474 181.46 302.53 177.404 302.53 172.4V143.72C302.53 138.716 298.474 134.66 293.47 134.66Z" stroke="#F79B48" stroke-miterlimit="10"/>
<path d="M263.631 153.37H265.561V156.64H269.311V153.37H271.241V162.14H269.311V158.35H265.561V162.14H263.631V153.37Z" fill="#E1F4FF"/>
<path d="M274.73 155.08H272.23V153.37H279.17V155.08H276.67V162.14H274.74V155.08H274.73Z" fill="#E1F4FF"/>
<path d="M280.141 153.37H283.061L285.081 159.09H285.101L287.131 153.37H290.041V162.14H288.111V155.41H288.091L285.791 162.14H284.321L282.101 155.41H282.081V162.14H280.151V153.37H280.141Z" fill="#E1F4FF"/>
<path d="M291.921 153.37H293.851V160.36H297.431V162.14H291.921V153.37Z" fill="#E1F4FF"/>
<path d="M152.02 57.0303H115.86C109.547 57.0303 104.43 62.1477 104.43 68.4603V104.62C104.43 110.933 109.547 116.05 115.86 116.05H152.02C158.332 116.05 163.45 110.933 163.45 104.62V68.4603C163.45 62.1477 158.332 57.0303 152.02 57.0303Z" fill="#F78C57"/>
<path d="M154.16 53.54H113.71C106.651 53.54 100.93 59.2618 100.93 66.32V106.77C100.93 113.828 106.651 119.55 113.71 119.55H154.16C161.218 119.55 166.94 113.828 166.94 106.77V66.32C166.94 59.2618 161.218 53.54 154.16 53.54Z" stroke="#F78C57" stroke-miterlimit="10"/>
<path d="M120.219 88.1399C120.219 90.3699 119.639 92.4799 116.379 92.4799C114.479 92.4799 113.079 91.5999 112.689 89.6699L115.119 89.0799C115.189 89.6599 115.729 90.1299 116.309 90.1299C117.549 90.1299 117.569 88.7499 117.569 87.8499V80.1299H120.219V88.1399Z" fill="#E1F4FF"/>
<path d="M126.46 80.1299H128.65L133.89 92.1699H130.9L129.86 89.6199H125.19L124.19 92.1699H121.27L126.47 80.1299H126.46ZM127.48 83.6299L126.02 87.3699H128.96L127.48 83.6299Z" fill="#E1F4FF"/>
<path d="M132.85 80.1299H135.88L138.86 88.0199H138.89L141.92 80.1299H144.76L139.8 92.1699H137.67L132.86 80.1299H132.85Z" fill="#E1F4FF"/>
<path d="M148.919 80.1299H151.109L156.35 92.1699H153.359L152.32 89.6199H147.649L146.649 92.1699H143.729L148.929 80.1299H148.919ZM149.939 83.6299L148.479 87.3699H151.419L149.939 83.6299Z" fill="#E1F4FF"/>
<path d="M110.85 213.64H84.1197C79.4584 213.64 75.6797 217.419 75.6797 222.08V248.81C75.6797 253.471 79.4584 257.25 84.1197 257.25H110.85C115.511 257.25 119.29 253.471 119.29 248.81V222.08C119.29 217.419 115.511 213.64 110.85 213.64Z" fill="#F9BF3E"/>
<path d="M112.42 211.06H82.5298C77.3163 211.06 73.0898 215.286 73.0898 220.5V250.39C73.0898 255.604 77.3163 259.83 82.5298 259.83H112.42C117.633 259.83 121.86 255.604 121.86 250.39V220.5C121.86 215.286 117.633 211.06 112.42 211.06Z" stroke="#F9BF3E" stroke-miterlimit="10"/>
<path d="M94.5895 237.22C94.5895 240.35 93.7795 243.31 89.1995 243.31C86.5295 243.31 84.5695 242.07 84.0195 239.37L87.4295 238.53C87.5295 239.34 88.2895 240.01 89.0995 240.01C90.8395 240.01 90.8695 238.08 90.8695 236.81V225.98H94.5895V237.22Z" fill="#E1F4FF"/>
<path d="M106.14 230.1C105.54 229.34 104.35 228.98 103.44 228.98C102.39 228.98 100.93 229.46 100.93 230.72C100.93 233.8 108.71 231.82 108.71 237.74C108.71 241.51 105.68 243.3 102.2 243.3C100.03 243.3 98.1195 242.66 96.5195 241.18L99.1695 238.27C99.9295 239.27 101.17 239.87 102.41 239.87C103.65 239.87 104.99 239.3 104.99 238.1C104.99 235 97.0695 236.67 97.0695 231.04C97.0695 227.44 100.2 225.55 103.51 225.55C105.42 225.55 107.26 226.05 108.69 227.32L106.14 230.11V230.1Z" fill="#E1F4FF"/>
<path d="M340.13 274.7C340.13 276.16 338.95 277.34 337.49 277.34C336.03 277.34 334.85 276.16 334.85 274.7C334.85 273.24 336.03 272.06 337.49 272.06C338.95 272.06 340.13 273.24 340.13 274.7Z" stroke="#96C1EA" stroke-width="1.33" stroke-miterlimit="10"/>
<path d="M301.98 103.34C301.98 104.8 300.8 105.98 299.34 105.98C297.88 105.98 296.7 104.8 296.7 103.34C296.7 101.88 297.88 100.7 299.34 100.7C300.8 100.7 301.98 101.88 301.98 103.34Z" stroke="#96C1EA" stroke-width="1.33" stroke-miterlimit="10"/>
<path d="M322.53 167.66C322.53 168.61 321.76 169.37 320.82 169.37C319.88 169.37 319.11 168.6 319.11 167.66C319.11 166.72 319.88 165.95 320.82 165.95C321.76 165.95 322.53 166.72 322.53 167.66Z" fill="#F78C57"/>
<path d="M59.1905 268.39C60.1349 268.39 60.9005 267.625 60.9005 266.68C60.9005 265.736 60.1349 264.97 59.1905 264.97C58.2461 264.97 57.4805 265.736 57.4805 266.68C57.4805 267.625 58.2461 268.39 59.1905 268.39Z" fill="#F78C57"/>
<path d="M80.5401 105.05C81.4845 105.05 82.2501 104.284 82.2501 103.34C82.2501 102.395 81.4845 101.63 80.5401 101.63C79.5957 101.63 78.8301 102.395 78.8301 103.34C78.8301 104.284 79.5957 105.05 80.5401 105.05Z" fill="#F78C57"/>
<path d="M311.12 280.64C311.12 281.59 310.35 282.35 309.41 282.35C308.47 282.35 307.7 281.58 307.7 280.64C307.7 279.7 308.47 278.93 309.41 278.93C310.35 278.93 311.12 279.7 311.12 280.64Z" fill="#F78C57"/>
<path d="M126.89 132.02C126.89 133.48 125.71 134.66 124.25 134.66C122.79 134.66 121.61 133.48 121.61 132.02C121.61 130.56 122.79 129.38 124.25 129.38C125.71 129.38 126.89 130.56 126.89 132.02Z" stroke="#96C1EA" stroke-width="1.33" stroke-miterlimit="10"/>
<path d="M34.1101 273.71C34.1101 275.17 32.9301 276.35 31.4701 276.35C30.0101 276.35 28.8301 275.17 28.8301 273.71C28.8301 272.25 30.0101 271.07 31.4701 271.07C32.9301 271.07 34.1101 272.25 34.1101 273.71Z" stroke="#96C1EA" stroke-width="1.33" stroke-miterlimit="10"/>
<path d="M64.4802 103.34C64.4802 104.8 63.3002 105.98 61.8402 105.98C60.3802 105.98 59.2002 104.8 59.2002 103.34C59.2002 101.88 60.3802 100.7 61.8402 100.7C63.3002 100.7 64.4802 101.88 64.4802 103.34Z" stroke="#96C1EA" stroke-width="1.33" stroke-miterlimit="10"/>
</g>
<defs>
<clipPath id="clip0_1531_961">
<rect width="373.12" height="370" fill="white"/>
</clipPath>
</defs>
</svg>
