<svg width="120" height="24" viewBox="0 0 120 24" fill="none" xmlns="http://www.w3.org/2000/svg">
<path d="M22 9.67002C21.9368 9.48711 21.822 9.32645 21.6693 9.20753C21.5167 9.0886 21.3328 9.01652 21.14 9.00002L15.45 8.17002L12.9 3.00002C12.8181 2.83095 12.6902 2.68837 12.5311 2.5886C12.3719 2.48883 12.1878 2.43591 12 2.43591C11.8121 2.43591 11.6281 2.48883 11.4689 2.5886C11.3097 2.68837 11.1819 2.83095 11.1 3.00002L8.54998 8.16002L2.85998 9.00002C2.6749 9.02633 2.5009 9.10399 2.35773 9.22418C2.21455 9.34438 2.10794 9.5023 2.04998 9.68002C1.99692 9.8537 1.99216 10.0385 2.03621 10.2147C2.08025 10.3909 2.17144 10.5517 2.29998 10.68L6.42998 14.68L5.42998 20.36C5.39428 20.5475 5.41297 20.7413 5.48385 20.9185C5.55473 21.0957 5.67483 21.2489 5.82998 21.36C5.98119 21.4681 6.15955 21.5319 6.34503 21.5443C6.5305 21.5567 6.71575 21.5171 6.87998 21.43L12 18.76L17.1 21.44C17.2403 21.5192 17.3988 21.5606 17.56 21.56C17.7718 21.5608 17.9784 21.4942 18.15 21.37C18.3051 21.2589 18.4252 21.1057 18.4961 20.9285C18.567 20.7513 18.5857 20.5575 18.55 20.37L17.55 14.69L21.68 10.69C21.8244 10.5677 21.9311 10.4069 21.9877 10.2264C22.0444 10.0458 22.0486 9.8529 22 9.67002ZM15.85 13.67C15.7327 13.7835 15.645 13.9239 15.5944 14.079C15.5439 14.2341 15.532 14.3993 15.56 14.56L16.28 18.75L12.52 16.75C12.3753 16.673 12.2139 16.6327 12.05 16.6327C11.8861 16.6327 11.7247 16.673 11.58 16.75L7.81998 18.75L8.53998 14.56C8.56791 14.3993 8.55609 14.2341 8.50554 14.079C8.45499 13.9239 8.36725 13.7835 8.24998 13.67L5.24998 10.67L9.45998 10.06C9.62198 10.0375 9.77598 9.97556 9.90848 9.87967C10.041 9.78379 10.1479 9.65686 10.22 9.51002L12 5.70002L13.88 9.52002C13.952 9.66686 14.059 9.79379 14.1915 9.88968C14.324 9.98556 14.478 10.0475 14.64 10.07L18.85 10.68L15.85 13.67Z" fill="#FFE03A"/>
<path d="M9 9L4.5 10H3.5L7.5 14.5L7 20L12.5 18L17.5 20L17 14L20.5 10L15 9L12 4L9 9Z" fill="#FFE03A"/>
<path d="M46 9.67002C45.9368 9.48711 45.822 9.32645 45.6693 9.20753C45.5167 9.0886 45.3328 9.01652 45.14 9.00002L39.45 8.17002L36.9 3.00002C36.8181 2.83095 36.6902 2.68837 36.5311 2.5886C36.3719 2.48883 36.1878 2.43591 36 2.43591C35.8121 2.43591 35.6281 2.48883 35.4689 2.5886C35.3097 2.68837 35.1819 2.83095 35.1 3.00002L32.55 8.16002L26.86 9.00002C26.6749 9.02633 26.5009 9.10399 26.3577 9.22418C26.2146 9.34438 26.1079 9.5023 26.05 9.68002C25.9969 9.8537 25.9922 10.0385 26.0362 10.2147C26.0802 10.3909 26.1714 10.5517 26.3 10.68L30.43 14.68L29.43 20.36C29.3943 20.5475 29.413 20.7413 29.4838 20.9185C29.5547 21.0957 29.6748 21.2489 29.83 21.36C29.9812 21.4681 30.1596 21.5319 30.345 21.5443C30.5305 21.5567 30.7157 21.5171 30.88 21.43L36 18.76L41.1 21.44C41.2403 21.5192 41.3988 21.5606 41.56 21.56C41.7718 21.5608 41.9784 21.4942 42.15 21.37C42.3051 21.2589 42.4252 21.1057 42.4961 20.9285C42.567 20.7513 42.5857 20.5575 42.55 20.37L41.55 14.69L45.68 10.69C45.8244 10.5677 45.9311 10.4069 45.9877 10.2264C46.0444 10.0458 46.0486 9.8529 46 9.67002ZM39.85 13.67C39.7327 13.7835 39.645 13.9239 39.5944 14.079C39.5439 14.2341 39.532 14.3993 39.56 14.56L40.28 18.75L36.52 16.75C36.3753 16.673 36.2139 16.6327 36.05 16.6327C35.8861 16.6327 35.7247 16.673 35.58 16.75L31.82 18.75L32.54 14.56C32.5679 14.3993 32.5561 14.2341 32.5055 14.079C32.455 13.9239 32.3673 13.7835 32.25 13.67L29.25 10.67L33.46 10.06C33.622 10.0375 33.776 9.97556 33.9085 9.87967C34.041 9.78379 34.1479 9.65686 34.22 9.51002L36 5.70002L37.88 9.52002C37.952 9.66686 38.059 9.79379 38.1915 9.88968C38.324 9.98556 38.478 10.0475 38.64 10.07L42.85 10.68L39.85 13.67Z" fill="#FFE03A"/>
<path d="M33 9L28.5 10H27.5L31.5 14.5L31 20L36.5 18L41.5 20L41 14L44.5 10L39 9L36 4L33 9Z" fill="#FFE03A"/>
<path d="M70 9.67002C69.9368 9.48711 69.822 9.32645 69.6693 9.20753C69.5167 9.0886 69.3328 9.01652 69.14 9.00002L63.45 8.17002L60.9 3.00002C60.8181 2.83095 60.6902 2.68837 60.5311 2.5886C60.3719 2.48883 60.1878 2.43591 60 2.43591C59.8121 2.43591 59.6281 2.48883 59.4689 2.5886C59.3097 2.68837 59.1819 2.83095 59.1 3.00002L56.55 8.16002L50.86 9.00002C50.6749 9.02633 50.5009 9.10399 50.3577 9.22418C50.2146 9.34438 50.1079 9.5023 50.05 9.68002C49.9969 9.8537 49.9922 10.0385 50.0362 10.2147C50.0802 10.3909 50.1714 10.5517 50.3 10.68L54.43 14.68L53.43 20.36C53.3943 20.5475 53.413 20.7413 53.4838 20.9185C53.5547 21.0957 53.6748 21.2489 53.83 21.36C53.9812 21.4681 54.1596 21.5319 54.345 21.5443C54.5305 21.5567 54.7157 21.5171 54.88 21.43L60 18.76L65.1 21.44C65.2403 21.5192 65.3988 21.5606 65.56 21.56C65.7718 21.5608 65.9784 21.4942 66.15 21.37C66.3051 21.2589 66.4252 21.1057 66.4961 20.9285C66.567 20.7513 66.5857 20.5575 66.55 20.37L65.55 14.69L69.68 10.69C69.8244 10.5677 69.9311 10.4069 69.9877 10.2264C70.0444 10.0458 70.0486 9.8529 70 9.67002ZM63.85 13.67C63.7327 13.7835 63.645 13.9239 63.5944 14.079C63.5439 14.2341 63.532 14.3993 63.56 14.56L64.28 18.75L60.52 16.75C60.3753 16.673 60.2139 16.6327 60.05 16.6327C59.8861 16.6327 59.7247 16.673 59.58 16.75L55.82 18.75L56.54 14.56C56.5679 14.3993 56.5561 14.2341 56.5055 14.079C56.455 13.9239 56.3673 13.7835 56.25 13.67L53.25 10.67L57.46 10.06C57.622 10.0375 57.776 9.97556 57.9085 9.87967C58.041 9.78379 58.1479 9.65686 58.22 9.51002L60 5.70002L61.88 9.52002C61.952 9.66686 62.059 9.79379 62.1915 9.88968C62.324 9.98556 62.478 10.0475 62.64 10.07L66.85 10.68L63.85 13.67Z" fill="#FFE03A"/>
<path d="M57 9L52.5 10H51.5L55.5 14.5L55 20L60.5 18L65.5 20L65 14L68.5 10L63 9L60 4L57 9Z" fill="#FFE03A"/>
<path d="M94 9.67002C93.9368 9.48711 93.822 9.32645 93.6693 9.20753C93.5167 9.0886 93.3328 9.01652 93.14 9.00002L87.45 8.17002L84.9 3.00002C84.8181 2.83095 84.6902 2.68837 84.5311 2.5886C84.3719 2.48883 84.1878 2.43591 84 2.43591C83.8121 2.43591 83.6281 2.48883 83.4689 2.5886C83.3097 2.68837 83.1819 2.83095 83.1 3.00002L80.55 8.16002L74.86 9.00002C74.6749 9.02633 74.5009 9.10399 74.3577 9.22418C74.2146 9.34438 74.1079 9.5023 74.05 9.68002C73.9969 9.8537 73.9922 10.0385 74.0362 10.2147C74.0802 10.3909 74.1714 10.5517 74.3 10.68L78.43 14.68L77.43 20.36C77.3943 20.5475 77.413 20.7413 77.4838 20.9185C77.5547 21.0957 77.6748 21.2489 77.83 21.36C77.9812 21.4681 78.1596 21.5319 78.345 21.5443C78.5305 21.5567 78.7157 21.5171 78.88 21.43L84 18.76L89.1 21.44C89.2403 21.5192 89.3988 21.5606 89.56 21.56C89.7718 21.5608 89.9784 21.4942 90.15 21.37C90.3051 21.2589 90.4252 21.1057 90.4961 20.9285C90.567 20.7513 90.5857 20.5575 90.55 20.37L89.55 14.69L93.68 10.69C93.8244 10.5677 93.9311 10.4069 93.9877 10.2264C94.0444 10.0458 94.0486 9.8529 94 9.67002ZM87.85 13.67C87.7327 13.7835 87.645 13.9239 87.5944 14.079C87.5439 14.2341 87.532 14.3993 87.56 14.56L88.28 18.75L84.52 16.75C84.3753 16.673 84.2139 16.6327 84.05 16.6327C83.8861 16.6327 83.7247 16.673 83.58 16.75L79.82 18.75L80.54 14.56C80.5679 14.3993 80.5561 14.2341 80.5055 14.079C80.455 13.9239 80.3673 13.7835 80.25 13.67L77.25 10.67L81.46 10.06C81.622 10.0375 81.776 9.97556 81.9085 9.87967C82.041 9.78379 82.1479 9.65686 82.22 9.51002L84 5.70002L85.88 9.52002C85.952 9.66686 86.059 9.79379 86.1915 9.88968C86.324 9.98556 86.478 10.0475 86.64 10.07L90.85 10.68L87.85 13.67Z" fill="#FFE03A"/>
<path d="M81 9L76.5 10H75.5L79.5 14.5L79 20L84.5 18L89.5 20L89 14L92.5 10L87 9L84 4L81 9Z" fill="#FFE03A"/>
<path d="M118 9.67002C117.937 9.48711 117.822 9.32645 117.669 9.20753C117.517 9.0886 117.333 9.01652 117.14 9.00002L111.45 8.17002L108.9 3.00002C108.818 2.83095 108.69 2.68837 108.531 2.5886C108.372 2.48883 108.188 2.43591 108 2.43591C107.812 2.43591 107.628 2.48883 107.469 2.5886C107.31 2.68837 107.182 2.83095 107.1 3.00002L104.55 8.16002L98.86 9.00002C98.6749 9.02633 98.5009 9.10399 98.3577 9.22418C98.2146 9.34438 98.1079 9.5023 98.05 9.68002C97.9969 9.8537 97.9922 10.0385 98.0362 10.2147C98.0802 10.3909 98.1714 10.5517 98.3 10.68L102.43 14.68L101.43 20.36C101.394 20.5475 101.413 20.7413 101.484 20.9185C101.555 21.0957 101.675 21.2489 101.83 21.36C101.981 21.4681 102.16 21.5319 102.345 21.5443C102.53 21.5567 102.716 21.5171 102.88 21.43L108 18.76L113.1 21.44C113.24 21.5192 113.399 21.5606 113.56 21.56C113.772 21.5608 113.978 21.4942 114.15 21.37C114.305 21.2589 114.425 21.1057 114.496 20.9285C114.567 20.7513 114.586 20.5575 114.55 20.37L113.55 14.69L117.68 10.69C117.824 10.5677 117.931 10.4069 117.988 10.2264C118.044 10.0458 118.049 9.8529 118 9.67002ZM111.85 13.67C111.733 13.7835 111.645 13.9239 111.594 14.079C111.544 14.2341 111.532 14.3993 111.56 14.56L112.28 18.75L108.52 16.75C108.375 16.673 108.214 16.6327 108.05 16.6327C107.886 16.6327 107.725 16.673 107.58 16.75L103.82 18.75L104.54 14.56C104.568 14.3993 104.556 14.2341 104.506 14.079C104.455 13.9239 104.367 13.7835 104.25 13.67L101.25 10.67L105.46 10.06C105.622 10.0375 105.776 9.97556 105.908 9.87967C106.041 9.78379 106.148 9.65686 106.22 9.51002L108 5.70002L109.88 9.52002C109.952 9.66686 110.059 9.79379 110.191 9.88968C110.324 9.98556 110.478 10.0475 110.64 10.07L114.85 10.68L111.85 13.67Z" fill="#FFE03A"/>
<path d="M105 9L100 10L103.5 14.5L103 20L108 17.5L110.5 18.5L111 9L108 4L105 9Z" fill="#FFE03A"/>
</svg>
