<svg width="68" height="68" viewBox="0 0 68 68" fill="none" xmlns="http://www.w3.org/2000/svg">
<g opacity="0.2">
<path d="M1.00589 35.4352C1.11432 35.5381 1.24295 35.6241 1.3882 35.6848C2.38128 36.1062 26.0757 45.8725 58.836 35.7454C59.5123 35.5366 59.8911 34.8194 59.6819 34.1443C59.4723 33.4696 58.7559 33.0891 58.0799 33.2992C26.2606 43.1351 2.62177 33.4265 2.3862 33.3269C1.73443 33.0522 0.982609 33.3569 0.707521 34.0083C0.4943 34.5122 0.629464 35.0784 1.00529 35.4353L1.00589 35.4352Z" fill="white"/>
<path d="M54.4327 44.2615C54.9455 44.7484 55.756 44.7278 56.2433 44.2147L66.2896 33.6352C66.6038 33.3043 66.718 32.8328 66.5903 32.3946C66.4644 31.9571 66.1123 31.6203 65.6704 31.5104L53.368 28.4459C52.6814 28.2745 51.9856 28.6923 51.8163 29.3793C51.6441 30.0651 52.0645 30.7616 52.7493 30.9314L62.9181 33.4651L54.3857 42.4509C53.8985 42.9641 53.9199 43.7747 54.4326 44.2615L54.4327 44.2615Z" fill="white"/>
</g>
</svg>
