<svg width="301" height="347" viewBox="0 0 301 347" fill="none" xmlns="http://www.w3.org/2000/svg">
<g clip-path="url(#clip0_1284_3310)">
<path d="M300.187 346.301C283.82 259.505 223.013 195.052 150.5 195.052C77.9864 195.052 17.1794 259.505 0.8125 346.301H300.187Z" fill="white"/>
<path d="M59.2155 325.043C59.2155 329.902 55.3496 333.841 50.5804 333.841C45.8112 333.841 41.9453 329.902 41.9453 325.043C41.9453 320.185 45.8112 316.246 50.5804 316.246C55.3496 316.246 59.2155 320.185 59.2155 325.043Z" fill="#F089D5"/>
<path d="M85.4281 286.743C90.1971 286.743 94.0632 282.804 94.0632 277.946C94.0632 273.087 90.1971 269.148 85.4281 269.148C80.659 269.148 76.793 273.087 76.793 277.946C76.793 282.804 80.659 286.743 85.4281 286.743Z" fill="#F089D5"/>
<path d="M90.3773 237.99C95.1463 237.99 99.0124 234.051 99.0124 229.192C99.0124 224.334 95.1463 220.395 90.3773 220.395C85.6082 220.395 81.7422 224.334 81.7422 229.192C81.7422 234.051 85.6082 237.99 90.3773 237.99Z" fill="#F089D5"/>
<path d="M131.422 266.461C136.191 266.461 140.057 262.523 140.057 257.664C140.057 252.805 136.191 248.867 131.422 248.867C126.653 248.867 122.787 252.805 122.787 257.664C122.787 262.523 126.653 266.461 131.422 266.461Z" fill="#F089D5"/>
<path d="M131.422 319.724C136.191 319.724 140.057 315.785 140.057 310.927C140.057 306.068 136.191 302.129 131.422 302.129C126.653 302.129 122.787 306.068 122.787 310.927C122.787 315.785 126.653 319.724 131.422 319.724Z" fill="#F089D5"/>
<path d="M90.3773 339.528C95.1463 339.528 99.0124 335.589 99.0124 330.73C99.0124 325.872 95.1463 321.933 90.3773 321.933C85.6082 321.933 81.7422 325.872 81.7422 330.73C81.7422 335.589 85.6082 339.528 90.3773 339.528Z" fill="#F089D5"/>
<path d="M184.153 284.369C184.153 289.228 180.287 293.167 175.518 293.167C170.749 293.167 166.883 289.228 166.883 284.369C166.883 279.51 170.749 275.572 175.518 275.572C180.287 275.572 184.153 279.51 184.153 284.369Z" fill="#F089D5"/>
<path d="M221.964 313.117C221.964 317.976 218.098 321.915 213.328 321.915C208.559 321.915 204.693 317.976 204.693 313.117C204.693 308.258 208.559 304.32 213.328 304.32C218.098 304.32 221.964 308.258 221.964 313.117Z" fill="#F089D5"/>
<path d="M233.922 272.388C238.691 272.388 242.557 268.449 242.557 263.59C242.557 258.732 238.691 254.793 233.922 254.793C229.153 254.793 225.287 258.732 225.287 263.59C225.287 268.449 229.153 272.388 233.922 272.388Z" fill="#F089D5"/>
<path d="M197.198 257.646C201.967 257.646 205.833 253.707 205.833 248.848C205.833 243.99 201.967 240.051 197.198 240.051C192.429 240.051 188.562 243.99 188.562 248.848C188.562 253.707 192.429 257.646 197.198 257.646Z" fill="#F089D5"/>
<path d="M231.196 229.192C232.786 229.192 234.249 228.732 235.514 227.978C231.431 224.481 227.186 221.26 222.832 218.278C222.669 218.959 222.543 219.659 222.543 220.395C222.543 225.254 226.409 229.192 231.178 229.192H231.196Z" fill="#F089D5"/>
<path d="M272.744 295.559C276.954 295.559 280.44 292.486 281.217 288.437C279.609 285.124 277.947 281.866 276.195 278.701C275.129 278.222 273.973 277.964 272.744 277.964C267.975 277.964 264.109 281.903 264.109 286.762C264.109 291.621 267.975 295.559 272.744 295.559Z" fill="#F089D5"/>
<path d="M292.49 316.338C292.183 316.301 291.876 316.246 291.551 316.246C286.782 316.246 282.916 320.185 282.916 325.043C282.916 329.902 286.782 333.841 291.551 333.841C293.629 333.841 295.489 333.068 296.989 331.835C295.652 326.571 294.152 321.399 292.509 316.338H292.49Z" fill="#F089D5"/>
<path d="M254.337 344.938C254.337 340.08 250.471 336.141 245.701 336.141C240.932 336.141 237.066 340.08 237.066 344.938C237.066 345.399 237.139 345.859 237.193 346.3H254.21C254.282 345.859 254.337 345.399 254.337 344.938Z" fill="#F089D5"/>
<path d="M178.932 344.938C178.932 340.08 175.066 336.141 170.297 336.141C165.528 336.141 161.662 340.08 161.662 344.938C161.662 345.399 161.734 345.859 161.789 346.3H178.806C178.878 345.859 178.932 345.399 178.932 344.938Z" fill="#F089D5"/>
<path d="M17.1605 337.503C12.3913 337.503 8.52539 341.442 8.52539 346.301H25.7956C25.7956 341.442 21.9297 337.503 17.1605 337.503Z" fill="#F089D5"/>
<path d="M18.5698 291.51C23.339 291.51 27.2049 287.572 27.2049 282.713C27.2049 280.743 26.5546 278.94 25.4707 277.486C22.9235 282.013 20.5389 286.688 18.2988 291.492C18.3892 291.492 18.4795 291.51 18.5698 291.51Z" fill="#F089D5"/>
<path d="M43.3906 250.854C44.9442 253.228 47.5817 254.774 50.5805 254.774C55.3497 254.774 59.2156 250.836 59.2156 245.977C59.2156 242.572 57.3007 239.664 54.5368 238.192C50.6528 242.167 46.9494 246.419 43.3906 250.854Z" fill="#F089D5"/>
<path d="M300.187 346.301C283.82 259.505 223.013 195.052 150.5 195.052C77.9864 195.052 17.1794 259.505 0.8125 346.301H300.187Z" stroke="black" stroke-width="0.75" stroke-miterlimit="10"/>
<path d="M54.1953 293.167V346.301H246.805V293.167" stroke="black" stroke-width="0.75" stroke-linecap="round" stroke-linejoin="round"/>
<path d="M150.5 244.763V346.301" stroke="black" stroke-width="0.75" stroke-linecap="round" stroke-linejoin="round"/>
<path d="M182.625 48.9457C193.617 37.7477 193.617 19.5921 182.625 8.3941C171.634 -2.80393 153.813 -2.80393 142.822 8.3941C131.83 19.5921 131.83 37.7477 142.822 48.9457C153.813 60.1438 171.634 60.1438 182.625 48.9457Z" fill="black"/>
<path d="M230.655 159.163C234.467 129.531 217.16 139.562 210.259 110.851V110.814C210.892 88.6733 198.842 71.9251 188.979 67.324C174.617 60.6247 162.17 65.5387 162.17 65.5387C111.516 56.0604 93.8662 74.2441 89.4402 95.4094C88.4286 98.6486 87.8866 102.293 88.2479 106.323C88.2479 106.36 88.2479 106.397 88.2479 106.434C88.2118 108.477 88.2479 110.52 88.3563 112.526C87.6518 123.605 81.311 124.544 75.5482 137.537C68.8461 152.611 65.8834 162.954 78.7818 176.058C92.5655 190.101 102.086 185.849 118.453 186.42C123.637 186.604 128.226 186.181 132.435 185.684C134.224 186.199 136.066 186.659 138.035 187.009C145.623 188.353 152.65 188.389 159.099 187.469C174.346 192.015 226.446 192.033 230.673 159.181L230.655 159.163Z" fill="black"/>
<path d="M146.708 244.763H154.657L182.531 199.414C177.852 198.144 173.101 197.113 168.26 196.395C168.657 194.978 168.856 193.487 168.82 191.923L168.476 176.684C168.296 168.439 161.576 161.905 153.482 162.108L144.45 162.328C136.357 162.512 129.944 169.359 130.142 177.604L130.486 192.843C130.522 194.168 130.72 195.42 131.064 196.635C127.83 197.168 124.633 197.849 121.453 198.622L146.708 244.763Z" fill="white" stroke="black" stroke-width="0.75" stroke-linecap="round" stroke-linejoin="round"/>
<path d="M150.916 244.763C150.916 244.763 157.979 257.351 177.996 257.646C198.012 257.94 215.95 240.861 213.006 220.469C212.5 216.953 211.741 213.751 210.838 210.825C199.565 204.641 187.588 200.15 175.123 197.573L150.916 244.744V244.763Z" fill="white" stroke="black" stroke-width="0.75" stroke-linecap="round" stroke-linejoin="round"/>
<path d="M87.9958 220.487C85.0512 240.879 103.008 257.958 123.006 257.664C143.022 257.37 150.085 244.781 150.085 244.781L125.878 197.61C113.413 200.187 101.436 204.677 90.1636 210.861C89.2603 213.787 88.5016 216.99 87.9958 220.505V220.487Z" fill="white" stroke="black" stroke-width="0.75" stroke-linecap="round" stroke-linejoin="round"/>
<path d="M90.3793 144.402C90.3251 150.954 95.564 156.31 102.049 156.365C108.535 156.421 113.828 151.138 113.882 144.586C113.936 138.034 108.697 132.679 102.212 132.623C95.7266 132.568 90.4335 137.85 90.3793 144.402Z" fill="white" stroke="black" stroke-width="0.75" stroke-miterlimit="10"/>
<path d="M108.625 144.531C108.643 140.905 105.771 137.942 102.176 137.924" stroke="black" stroke-width="0.5" stroke-linecap="round" stroke-linejoin="round"/>
<path d="M205.815 141.66C206.159 148.212 201.191 153.807 194.705 154.157C188.22 154.507 182.692 149.501 182.349 142.949C182.006 136.397 186.973 130.802 193.459 130.452C199.944 130.102 205.472 135.108 205.815 141.66Z" fill="white" stroke="black" stroke-width="0.75" stroke-miterlimit="10"/>
<path d="M187.588 142.654C187.389 139.028 190.153 135.936 193.73 135.734" stroke="black" stroke-width="0.5" stroke-linecap="round" stroke-linejoin="round"/>
<path d="M142.038 79.4869L152.406 79.3467C170.036 79.1085 184.532 93.4903 184.766 111.452L185.223 146.546C185.457 164.507 171.34 179.276 153.71 179.514L143.342 179.654C125.712 179.892 111.216 165.511 110.982 147.549L110.525 112.455C110.291 94.4936 124.408 79.7251 142.038 79.4869Z" fill="white" stroke="black" stroke-width="0.75" stroke-miterlimit="10"/>
<path d="M158.972 150.881C158.448 155.684 154.51 159.476 149.633 159.549C144.755 159.623 140.727 155.942 140.076 151.139L158.972 150.881Z" stroke="black" stroke-width="0.5" stroke-linecap="round" stroke-linejoin="round"/>
<path d="M128.099 128.998C128.063 131.409 126.094 133.341 123.728 133.305C121.361 133.268 119.464 131.262 119.501 128.851C119.537 126.44 121.506 124.507 123.872 124.544C126.239 124.581 128.136 126.587 128.099 129.016V128.998Z" fill="black"/>
<path d="M173.588 127.912C173.552 130.323 171.583 132.255 169.216 132.219C166.849 132.182 164.953 130.176 164.989 127.765C165.025 125.354 166.994 123.421 169.361 123.458C171.727 123.495 173.624 125.501 173.588 127.912Z" fill="black"/>
<path d="M164.771 118.397C164.771 118.397 170.823 116.869 175.502 120.182" stroke="black" stroke-width="0.75" stroke-linecap="round" stroke-linejoin="round"/>
<path d="M127.81 119.28C127.81 119.28 121.686 118.047 117.17 121.581" stroke="black" stroke-width="0.75" stroke-linecap="round" stroke-linejoin="round"/>
<path d="M151.854 138.955L144.068 139.139L147.392 121.783" stroke="black" stroke-width="0.75" stroke-linecap="round" stroke-linejoin="round"/>
<path d="M100.297 125.151C100.297 125.151 153.174 124.175 161.953 92.4644C161.953 92.4644 169.974 113.74 187.949 123.071C187.949 123.071 192.881 103.82 185.528 90.127C178.194 76.4524 170.119 72.293 149.236 73.25C128.352 74.1886 91.879 86.7958 100.279 125.151H100.297Z" fill="black"/>
</g>
<defs>
<clipPath id="clip0_1284_3310">
<rect width="301" height="347" fill="white"/>
</clipPath>
</defs>
</svg>
