<svg width="375" height="347" viewBox="0 0 375 347" fill="none" xmlns="http://www.w3.org/2000/svg">
<path d="M373.255 346.146C352.894 240.144 277.25 161.43 187.043 161.43C96.8361 161.43 21.1917 240.167 0.853516 346.146H373.255Z" fill="white"/>
<path d="M41.665 326.096C31.1926 319.983 18.6751 318.274 6.92166 320.904C6.44973 322.545 5.95532 324.208 5.50586 325.872C16.8772 322.747 29.0576 323.939 39.3953 329.985C46.3394 334.053 51.7105 339.717 56.2276 346.146H61.5537C56.3624 338.189 49.9576 330.929 41.665 326.096V326.096Z" fill="#866AC9"/>
<path d="M242.373 311.913C230.17 305.395 217.046 305.013 203.517 305.013C196.326 305.013 189.089 304.856 182.055 303.147C176.28 301.754 170.774 299.484 165.605 296.517C155.155 290.515 146.345 281.951 138.884 272.534C124.007 253.72 116.007 230.659 101.534 211.621C97.399 206.181 92.6123 201.079 87.1962 196.854C86.0052 197.775 84.8366 198.742 83.668 199.708C89.2188 203.866 94.0505 209.081 98.1406 214.543C112.007 233.019 119.94 255.159 134.008 273.545C147.941 291.774 166.773 306.766 190.28 309.036C204.236 310.385 218.596 307.935 232.148 312.385C243.362 316.072 252.755 323.826 260.374 332.66C264.037 336.93 267.273 341.471 270.239 346.168H275.498C273.251 342.46 270.846 338.818 268.239 335.334C261.205 325.984 252.71 317.465 242.328 311.913H242.373Z" fill="#866AC9"/>
<path d="M93.0605 307.103C79.9812 299.304 65.0816 294.988 50.0695 292.965C39.1476 291.482 28.1808 291.212 17.1914 291.437C16.5622 292.943 15.9779 294.449 15.3711 295.977C41.1702 295.348 67.3064 297.348 89.9593 310.52C104.747 319.129 115.107 331.918 123.534 346.191H128.815C127.085 343.134 125.264 340.122 123.332 337.178C115.399 325.152 105.511 314.543 93.0605 307.126V307.103Z" fill="#866AC9"/>
<path d="M327.095 283.57C313.252 289.526 300.824 299.663 297.026 314.835C294.442 325.197 295.767 336.278 299.88 346.168H304.802C300.532 336.908 298.891 326.411 301.273 316.454C304.937 301.147 318.128 291.751 332.106 286.379C338.601 283.884 345.276 282.041 351.973 280.176C351.343 278.805 350.669 277.479 349.995 276.13C342.242 278.265 334.489 280.401 327.117 283.57H327.095Z" fill="#866AC9"/>
<path d="M169.469 162.464C169.176 173.32 169.648 184.199 170.884 194.988C172.592 209.823 175.109 225.309 181.447 238.93C187.492 251.922 198.009 261.34 211.134 266.869C224.235 272.399 239.045 274.399 253.136 272.219C265.496 270.308 276.62 264.532 285.857 256.193C296.936 246.191 305.004 233.648 313.049 221.106C311.993 219.96 310.937 218.836 309.858 217.712C304.689 225.736 299.543 233.783 293.61 241.246C287.003 249.517 279.317 257.069 269.901 262.059C256.732 269.027 241.158 270.016 226.752 267.004C213.471 264.24 200.302 258.103 191.739 247.269C182.503 235.604 179.312 220.027 176.93 205.687C174.525 191.257 173.581 176.624 174.008 162.014C172.502 162.149 170.997 162.261 169.513 162.419L169.469 162.464Z" fill="#866AC9"/>
<path d="M67.2383 281.277V346.146H306.846V281.277" stroke="black" stroke-width="0.75" stroke-linecap="round" stroke-linejoin="round"/>
<path d="M373.255 346.146C352.894 240.144 277.25 161.43 187.043 161.43C96.8361 161.43 21.1917 240.167 0.853516 346.146H373.255Z" stroke="black" stroke-width="0.75" stroke-linecap="round" stroke-linejoin="round"/>
<path d="M196.188 230.481C241.662 230.076 278.314 205.909 278.052 176.502C277.791 147.095 240.715 123.584 195.24 123.989C149.766 124.394 113.115 148.561 113.376 177.968C113.638 207.375 150.714 230.886 196.188 230.481Z" fill="white" stroke="black" stroke-width="0.75" stroke-miterlimit="10"/>
<path d="M245.338 51.3823H136.726C136.726 51.3823 133.377 57.069 133.624 84.5134C133.872 111.98 157.131 139.425 157.131 139.425H224.91C224.91 139.425 248.17 111.98 248.417 84.5134C248.664 57.0465 245.316 51.3823 245.316 51.3823H245.338Z" fill="black"/>
<path d="M197.504 125.698L186.248 125.962C176.185 126.197 168.218 134.547 168.454 144.612L168.889 163.24C169.125 173.305 177.473 181.273 187.536 181.038L198.792 180.774C208.855 180.539 216.822 172.189 216.587 162.124L216.151 143.496C215.915 133.431 207.567 125.463 197.504 125.698Z" fill="white" stroke="black" stroke-width="0.75" stroke-miterlimit="10"/>
<path d="M118.995 104.068C118.927 112.07 125.444 118.611 133.512 118.678C141.58 118.746 148.165 112.295 148.232 104.293C148.3 96.2914 141.782 89.7506 133.715 89.6831C125.647 89.6157 119.062 96.0666 118.995 104.068V104.068Z" fill="white" stroke="black" stroke-width="0.75" stroke-miterlimit="10"/>
<path d="M141.693 104.226C141.715 99.798 138.142 96.1792 133.67 96.1567" stroke="black" stroke-width="0.5" stroke-linecap="round" stroke-linejoin="round"/>
<path d="M262.598 100.719C263.025 108.721 256.845 115.554 248.777 115.981C240.709 116.408 233.833 110.295 233.406 102.293C232.979 94.2909 239.159 87.4579 247.227 87.0308C255.294 86.6038 262.171 92.7175 262.598 100.719Z" fill="white" stroke="black" stroke-width="0.75" stroke-miterlimit="10"/>
<path d="M239.923 101.933C239.675 97.5053 243.114 93.7292 247.564 93.4819" stroke="black" stroke-width="0.5" stroke-linecap="round" stroke-linejoin="round"/>
<path d="M183.243 24.7981L196.141 24.627C218.073 24.336 236.106 41.9001 236.397 63.8357L236.965 106.696C237.256 128.631 219.695 146.668 197.763 146.959L184.865 147.13C162.933 147.421 144.9 129.857 144.609 107.921L144.041 65.061C143.75 43.1254 161.311 25.0891 183.243 24.7981V24.7981Z" fill="white" stroke="black" stroke-width="0.75" stroke-miterlimit="10"/>
<path d="M204.325 111.981C203.673 117.847 198.774 122.478 192.707 122.568C186.639 122.658 181.627 118.162 180.818 112.296L204.325 111.981V111.981Z" stroke="black" stroke-width="0.5" stroke-linecap="round" stroke-linejoin="round"/>
<path d="M165.918 85.2555C165.873 88.2 163.424 90.5601 160.48 90.5151C157.536 90.4702 155.176 88.0202 155.244 85.0757C155.289 82.1312 157.738 79.7711 160.682 79.8161C163.626 79.861 165.986 82.311 165.941 85.278L165.918 85.2555Z" fill="black"/>
<path d="M222.506 83.9293C222.461 86.8738 220.012 89.2339 217.068 89.189C214.124 89.144 211.764 86.694 211.809 83.7495C211.854 80.805 214.304 78.4449 217.248 78.4899C220.192 78.5348 222.551 80.9848 222.506 83.9293Z" fill="black"/>
<path d="M211.539 72.3313C211.539 72.3313 219.068 70.4657 224.888 74.5116" stroke="black" stroke-width="0.75" stroke-linecap="round" stroke-linejoin="round"/>
<path d="M165.559 73.3877C165.559 73.3877 157.941 71.8818 152.322 76.1973" stroke="black" stroke-width="0.75" stroke-linecap="round" stroke-linejoin="round"/>
<path d="M195.471 97.4379L185.785 97.6402L189.92 76.4443" stroke="black" stroke-width="0.75" stroke-linecap="round" stroke-linejoin="round"/>
<path d="M254.709 55.6755C254.305 25.1067 228.978 0.426978 198.414 0.831564L180.369 1.07881C149.805 1.4834 125.13 26.815 125.534 57.3837L125.669 67.2511L176.705 65.5204L190.526 41.9645L187.987 65.5204L202.505 65.4754L207.876 41.9645L213.696 64.2167H254.822L254.709 55.6755V55.6755Z" fill="white" stroke="black" stroke-width="0.75" stroke-miterlimit="10"/>
<path d="M144.727 148.213L131.625 183.412L203.112 213.644L208.326 198.922L237.046 185.3L228.619 153.765L194.055 175.815L191.763 177.366C191.763 177.366 190.392 179.254 184.729 175.411C179.066 171.567 144.704 148.236 144.704 148.236L144.727 148.213Z" fill="white"/>
<path d="M142.053 146.37L208.685 191.616L208.236 200.854" stroke="black" stroke-width="0.75" stroke-linecap="round" stroke-linejoin="round"/>
<path d="M230.395 153.833L189.449 178.557" stroke="black" stroke-width="0.75" stroke-linecap="round" stroke-linejoin="round"/>
<path d="M226.461 195.909C226.461 195.909 240.125 267.296 279.048 267.791" stroke="black" stroke-width="0.75" stroke-linecap="round" stroke-linejoin="round"/>
<path d="M233.248 196.224C232.956 199.281 230.237 201.551 227.18 201.259C224.124 200.967 221.854 198.247 222.146 195.19C222.439 192.133 225.158 189.863 228.214 190.155C231.27 190.447 233.54 193.167 233.248 196.224Z" stroke="black" stroke-width="0.75" stroke-linecap="round" stroke-linejoin="round"/>
<path d="M163.02 202.383C162.728 205.529 159.919 207.867 156.773 207.575C153.626 207.283 151.289 204.473 151.581 201.326C151.873 198.179 154.683 195.842 157.829 196.134C160.975 196.426 163.312 199.236 162.998 202.383H163.02Z" stroke="black" stroke-width="0.75" stroke-linecap="round" stroke-linejoin="round"/>
<path d="M157.312 201.843C157.312 201.843 142.749 266.802 119.018 285.705" stroke="black" stroke-width="0.75" stroke-linecap="round" stroke-linejoin="round"/>
</svg>
