<svg width="523" height="295" viewBox="0 0 523 295" fill="none" xmlns="http://www.w3.org/2000/svg">
<g clip-path="url(#clip0_1817_1333)">
<path d="M20.0924 293.769C20.2152 291.622 -30.3803 227.161 28.541 167.645C55.1397 140.779 100.13 155.336 93.0142 76.851C86.8687 9.08711 193.004 -30.7308 258.963 29.77C301.579 68.86 344.721 16.7121 412.33 46.3C479.938 75.8879 435.418 156.307 463.161 163.885C517.81 178.812 544.951 244.498 501.382 293.039L20.0944 293.767L20.0924 293.769Z" fill="#2F2C50"/>
<path d="M247.891 137.096C247.604 136.505 247.289 135.906 246.951 135.315L247.903 134.775C248.251 135.387 248.578 136.008 248.875 136.62L247.891 137.096ZM245.901 133.594C245.538 133.037 245.151 132.479 244.75 131.933L245.633 131.285C246.046 131.847 246.445 132.422 246.818 132.994L245.901 133.592V133.594ZM137.162 145.648C136.47 145.721 135.774 145.78 135.092 145.819L135.029 144.727C135.692 144.689 136.372 144.631 137.045 144.56L137.162 145.648ZM139.221 145.378L139.053 144.298C139.713 144.196 140.384 144.077 141.049 143.944L141.264 145.016C140.583 145.153 139.895 145.273 139.221 145.378ZM133.016 145.891C132.32 145.897 131.62 145.883 130.936 145.852L130.988 144.76C131.651 144.791 132.33 144.803 133.008 144.799L133.016 145.893V145.891ZM143.289 144.566L143.029 143.505C143.678 143.347 144.337 143.171 144.99 142.983L145.293 144.034C144.628 144.224 143.952 144.404 143.289 144.566ZM128.861 145.699C128.169 145.627 127.475 145.537 126.797 145.427L126.973 144.347C127.628 144.453 128.302 144.543 128.973 144.611L128.861 145.699ZM147.271 143.427L146.929 142.388C147.563 142.18 148.208 141.955 148.847 141.72L149.226 142.746C148.577 142.985 147.918 143.214 147.271 143.427ZM151.156 141.996L150.743 140.983C151.363 140.73 151.991 140.462 152.612 140.184L153.058 141.182C152.427 141.464 151.787 141.738 151.156 141.996ZM124.752 145.03C124.07 144.877 123.393 144.699 122.733 144.505L123.045 143.456C123.679 143.644 124.336 143.813 124.993 143.963L124.752 145.028V145.03ZM243.512 130.34C243.088 129.825 242.642 129.31 242.189 128.811L243 128.075C243.467 128.588 243.923 129.116 244.359 129.647L243.514 130.34H243.512ZM154.933 140.309L154.454 139.325C155.056 139.033 155.668 138.726 156.272 138.411L156.78 139.38C156.168 139.701 155.545 140.012 154.933 140.309ZM120.754 143.846C120.101 143.605 119.45 143.339 118.821 143.055L119.272 142.059C119.878 142.331 120.504 142.589 121.133 142.82L120.754 143.844V143.846ZM158.598 138.397L158.063 137.442C158.649 137.115 159.242 136.773 159.826 136.426L160.387 137.364C159.793 137.718 159.191 138.063 158.598 138.397ZM240.789 127.347C240.314 126.874 239.819 126.406 239.319 125.956L240.052 125.145C240.564 125.607 241.071 126.087 241.561 126.572L240.789 127.347ZM116.948 142.131C116.336 141.799 115.73 141.443 115.147 141.071L115.736 140.151C116.295 140.509 116.879 140.853 117.468 141.169L116.948 142.131ZM162.147 136.287L161.562 135.362C162.129 135.004 162.702 134.632 163.271 134.254L163.879 135.164C163.304 135.548 162.721 135.925 162.147 136.287ZM165.582 134L164.954 133.105C165.503 132.72 166.059 132.32 166.61 131.917L167.259 132.798C166.704 133.207 166.139 133.612 165.585 134H165.582ZM113.431 139.881C112.874 139.462 112.33 139.018 111.81 138.56L112.534 137.74C113.032 138.18 113.556 138.605 114.09 139.008L113.431 139.881ZM237.786 124.639C237.266 124.214 236.729 123.797 236.189 123.396L236.842 122.519C237.397 122.93 237.947 123.359 238.48 123.795L237.786 124.639ZM168.907 131.559L168.24 130.692L168.401 130.567C168.895 130.187 169.386 129.813 169.875 129.447L170.53 130.322C170.045 130.686 169.558 131.056 169.069 131.434L168.905 131.561L168.907 131.559ZM234.535 122.229C233.978 121.854 233.403 121.488 232.828 121.141L233.395 120.204C233.986 120.56 234.574 120.936 235.147 121.319L234.537 122.227L234.535 122.229ZM110.299 137.119C109.816 136.62 109.347 136.094 108.905 135.561L109.75 134.865C110.174 135.379 110.622 135.88 111.087 136.358L110.301 137.119H110.299ZM172.178 129.116L171.54 128.228C172.099 127.827 172.666 127.427 173.225 127.042L173.847 127.942C173.294 128.324 172.731 128.719 172.178 129.116ZM231.071 120.137C230.481 119.818 229.874 119.507 229.268 119.217L229.742 118.231C230.365 118.53 230.987 118.849 231.591 119.176L231.069 120.137H231.071ZM175.538 126.803L174.934 125.891C175.511 125.511 176.095 125.134 176.668 124.774L177.251 125.701C176.684 126.057 176.109 126.429 175.538 126.805V126.803ZM107.642 133.896C107.245 133.328 106.864 132.735 106.514 132.134L107.46 131.582C107.797 132.156 108.16 132.725 108.54 133.27L107.644 133.896H107.642ZM178.989 124.633L178.426 123.695C179.016 123.341 179.616 122.993 180.209 122.656L180.75 123.607C180.164 123.938 179.573 124.284 178.989 124.633ZM227.425 118.382C226.805 118.121 226.172 117.869 225.544 117.638L225.922 116.612C226.567 116.849 227.218 117.107 227.853 117.376L227.425 118.382ZM182.535 122.623L182.017 121.66C182.623 121.335 183.239 121.016 183.849 120.709L184.341 121.687C183.739 121.989 183.131 122.304 182.533 122.625L182.535 122.623ZM223.628 116.982C222.987 116.779 222.334 116.591 221.683 116.419L221.963 115.362C222.631 115.538 223.302 115.732 223.957 115.941L223.628 116.984V116.982ZM186.175 120.795L185.708 119.806C186.332 119.513 186.965 119.227 187.589 118.953L188.028 119.955C187.413 120.223 186.789 120.505 186.173 120.793L186.175 120.795ZM105.529 130.285C105.228 129.661 104.946 129.017 104.694 128.369L105.713 127.972C105.955 128.594 106.225 129.212 106.514 129.811L105.527 130.287L105.529 130.285ZM219.715 115.947C219.06 115.806 218.391 115.679 217.726 115.569L217.906 114.491C218.588 114.604 219.273 114.735 219.945 114.88L219.715 115.949V115.947ZM189.905 119.172L189.497 118.158C190.138 117.9 190.787 117.65 191.428 117.417L191.805 118.444C191.176 118.675 190.535 118.92 189.905 119.172ZM215.721 115.283C215.054 115.203 214.377 115.137 213.705 115.088L213.785 113.998C214.473 114.05 215.167 114.115 215.85 114.197L215.721 115.283ZM193.725 117.773L193.381 116.734C194.038 116.518 194.703 116.309 195.356 116.119L195.665 117.168C195.023 117.356 194.372 117.56 193.725 117.773ZM211.682 114.986C211.015 114.968 210.333 114.962 209.656 114.972L209.639 113.878C210.331 113.868 211.029 113.872 211.713 113.892L211.682 114.986ZM197.625 116.63L197.352 115.571C198.02 115.399 198.697 115.24 199.367 115.092L199.6 116.16C198.943 116.303 198.28 116.462 197.625 116.63ZM207.631 115.045C206.962 115.084 206.282 115.137 205.611 115.203L205.502 114.115C206.188 114.048 206.884 113.992 207.568 113.953L207.631 115.045ZM201.592 115.763L201.398 114.688C202.079 114.565 202.767 114.454 203.445 114.36L203.596 115.444C202.933 115.536 202.259 115.645 201.592 115.763ZM104.012 126.394C103.811 125.735 103.633 125.055 103.482 124.374L104.551 124.136C104.696 124.791 104.868 125.443 105.06 126.077L104.012 126.394ZM103.101 122.321C103.064 122.069 103.029 121.818 103.001 121.566C102.948 121.129 102.905 120.685 102.872 120.247L103.963 120.166C103.996 120.587 104.037 121.016 104.088 121.435C104.117 121.679 104.149 121.92 104.186 122.161L103.103 122.321H103.101ZM103.879 118.153L102.784 118.162C102.78 117.475 102.796 116.773 102.837 116.078L103.93 116.141C103.891 116.814 103.873 117.491 103.879 118.153ZM104.11 114.133L103.023 114.003C103.105 113.332 103.208 112.649 103.33 111.974L104.413 112.138L104.405 112.181C104.288 112.823 104.188 113.485 104.11 114.133ZM104.819 110.154L103.75 109.913C103.902 109.24 104.071 108.563 104.25 107.903L105.306 108.189C105.13 108.835 104.966 109.496 104.817 110.154H104.819ZM142.267 104.621C141.545 104.691 140.83 104.707 140.14 104.676L140.192 103.584C140.828 103.615 141.492 103.597 142.163 103.533L142.265 104.621H142.267ZM144.358 104.29L144.122 103.222C144.757 103.083 145.404 102.904 146.04 102.689L146.39 103.726C145.715 103.952 145.031 104.143 144.358 104.292V104.29ZM138.017 104.4C137.299 104.243 136.607 104.022 135.966 103.74L136.406 102.738C136.982 102.989 137.602 103.19 138.251 103.331L138.017 104.398V104.4ZM148.349 102.953L147.899 101.957C148.501 101.685 149.099 101.378 149.678 101.047L150.223 101.996C149.613 102.343 148.984 102.666 148.349 102.953ZM151.995 100.871L151.365 99.9754C151.909 99.593 152.442 99.18 152.945 98.7526L153.656 99.5848C153.128 100.037 152.569 100.468 151.995 100.871ZM105.881 106.249L104.839 105.915C105.05 105.259 105.277 104.599 105.515 103.957L106.54 104.335C106.309 104.963 106.086 105.607 105.881 106.249ZM134.089 102.656C133.508 102.225 132.975 101.726 132.509 101.17L133.346 100.466C133.759 100.957 134.23 101.399 134.742 101.779L134.089 102.656ZM155.189 98.1453L154.403 97.3847C154.868 96.9041 155.31 96.3991 155.717 95.8838L156.577 96.5606C156.147 97.1045 155.68 97.6362 155.191 98.1433L155.189 98.1453ZM107.286 102.454L106.276 102.028C106.544 101.392 106.831 100.756 107.126 100.137L108.115 100.607C107.826 101.212 107.548 101.832 107.286 102.452V102.454ZM131.305 99.3722C130.983 98.7608 130.709 98.0921 130.49 97.3887L131.536 97.0636C131.735 97.7036 131.984 98.3089 132.275 98.863L131.307 99.3722H131.305ZM157.789 94.845L156.862 94.2623C157.218 93.6979 157.541 93.1152 157.826 92.5263L158.813 93.0027C158.512 93.6264 158.166 94.248 157.789 94.845ZM109.028 98.8058L108.063 98.2905C108.389 97.6832 108.733 97.0759 109.085 96.4849L110.025 97.0452C109.681 97.6218 109.345 98.2148 109.028 98.8058ZM130.013 95.3194C129.984 95.1293 129.956 94.935 129.933 94.7387C129.874 94.25 129.833 93.7388 129.815 93.2174L130.908 93.1745C130.926 93.6652 130.965 94.1478 131.02 94.6058C131.043 94.7898 131.067 94.9698 131.096 95.1497L130.015 95.3174L130.013 95.3194ZM159.617 91.0499L158.583 90.6941C158.798 90.0684 158.978 89.4264 159.113 88.7864L160.184 89.0133C160.039 89.6963 159.848 90.3813 159.617 91.0499ZM111.099 95.3317L110.186 94.7285C110.565 94.1559 110.962 93.5834 111.37 93.0252L112.254 93.6693C111.857 94.2132 111.468 94.7714 111.099 95.3317ZM130.914 91.1706L129.821 91.1276C129.847 90.4283 129.898 89.729 129.974 89.0501L131.063 89.1687C130.992 89.8231 130.942 90.4978 130.916 91.1706H130.914ZM160.495 86.9236L159.404 86.8295C159.459 86.1772 159.478 85.5106 159.453 84.8522L160.546 84.8134C160.571 85.5188 160.555 86.2283 160.493 86.9256L160.495 86.9236ZM113.484 92.0621L112.631 91.3791C113.061 90.8434 113.509 90.3097 113.965 89.7924L114.786 90.5142C114.342 91.0193 113.904 91.5407 113.482 92.0641L113.484 92.0621ZM116.16 89.0236L115.372 88.2649C115.851 87.7681 116.346 87.2773 116.846 86.805L117.599 87.5983C117.112 88.0605 116.629 88.5389 116.16 89.0236ZM131.35 87.1853L130.273 86.987C130.4 86.302 130.554 85.617 130.732 84.9524L131.79 85.2346C131.62 85.8726 131.471 86.5289 131.35 87.1874V87.1853ZM159.21 82.9281C159.062 82.2962 158.843 81.6889 158.563 81.1266L159.543 80.64C159.863 81.2779 160.108 81.965 160.276 82.6807L159.21 82.9301V82.9281ZM119.1 86.2386L118.381 85.4125C118.901 84.9626 119.437 84.5169 119.978 84.0895L120.658 84.9463C120.129 85.3654 119.605 85.7989 119.098 86.2386H119.1ZM132.386 83.3248L131.354 82.9587C131.587 82.3044 131.849 81.6521 132.134 81.0203L133.133 81.4701C132.861 82.0734 132.609 82.697 132.386 83.3248ZM157.513 79.5317C157.109 79.0532 156.638 78.6075 156.116 78.2046L156.784 77.3377C157.369 77.7875 157.897 78.2885 158.352 78.8263L157.515 79.5317H157.513ZM122.275 83.7235L121.632 82.8381C122.191 82.4332 122.764 82.0366 123.339 81.6583L123.943 82.5702C123.382 82.9403 122.821 83.3268 122.275 83.7215V83.7235ZM125.659 81.4926L125.096 80.5541C125.687 80.2003 126.293 79.8548 126.899 79.5276L127.421 80.4887C126.83 80.8076 126.238 81.145 125.661 81.4926H125.659ZM134.028 79.681L133.069 79.1534C133.364 78.6177 133.686 78.086 134.021 77.5667C133.661 77.6934 133.301 77.8243 132.945 77.9593L132.556 76.9369C133.203 76.6915 133.862 76.4584 134.515 76.2457L134.855 77.2845C134.672 77.3438 134.488 77.4051 134.306 77.4685L135.065 77.9715C134.697 78.5298 134.347 79.1043 134.028 79.683V79.681ZM154.466 77.1679C153.905 76.8796 153.295 76.622 152.653 76.4012L153.007 75.3665C153.699 75.6037 154.358 75.8818 154.966 76.1946L154.464 77.1659L154.466 77.1679ZM129.223 79.5644L128.744 78.5809C129.364 78.2803 129.999 77.9879 130.631 77.7159L131.065 78.7199C130.449 78.9858 129.829 79.27 129.223 79.5644ZM150.739 75.8736C150.11 75.7386 149.447 75.6303 148.767 75.5505L148.892 74.4647C149.606 74.5465 150.305 74.661 150.968 74.8042L150.736 75.8736H150.739ZM136.793 76.6997L136.576 75.9124C136.46 76.0556 136.347 76.1987 136.234 76.3419L135.37 75.6712C135.792 75.1293 136.243 74.5915 136.713 74.0721L137.526 74.8042C137.307 75.0475 137.09 75.2949 136.881 75.5444C137.43 75.3992 137.981 75.2663 138.523 75.1457L138.759 76.213C138.108 76.3562 137.446 76.5197 136.793 76.6997ZM146.767 75.4053C146.114 75.3849 145.436 75.3869 144.755 75.4156L144.712 74.3237C145.42 74.295 146.122 74.2909 146.802 74.3134L146.767 75.4053ZM140.744 75.8327L140.566 74.7531C141.26 74.6385 141.954 74.5465 142.632 74.475L142.746 75.5628C142.089 75.6323 141.418 75.7223 140.744 75.8327ZM138.924 73.3606L138.163 72.5754C138.654 72.101 139.172 71.6307 139.706 71.1788L140.415 72.011C139.899 72.4486 139.397 72.9025 138.924 73.3606ZM141.989 70.7514L141.33 69.8783C141.872 69.4694 142.441 69.0645 143.023 68.6739L143.635 69.5818C143.07 69.9601 142.517 70.3547 141.991 70.7514H141.989ZM145.338 68.4981L144.773 67.5616C145.354 67.2119 145.962 66.8643 146.577 66.531L147.099 67.4921C146.499 67.8172 145.905 68.1546 145.338 68.496V68.4981ZM148.904 66.5658L148.425 65.5843C149.035 65.2878 149.668 64.9933 150.307 64.7132L150.749 65.7131C150.122 65.9891 149.502 66.2754 148.906 66.5658H148.904ZM152.624 64.9279L152.221 63.9116C152.851 63.6601 153.504 63.4148 154.159 63.1796L154.53 64.2081C153.885 64.4392 153.244 64.6805 152.626 64.9259L152.624 64.9279ZM156.456 63.5538L156.12 62.513C156.769 62.3045 157.437 62.1 158.1 61.9078L158.405 62.9567C157.752 63.1469 157.095 63.3473 156.456 63.5518V63.5538ZM160.372 62.419L160.098 61.3598C160.759 61.188 161.437 61.0244 162.11 60.8711L162.354 61.9364C161.691 62.0877 161.023 62.2513 160.37 62.419H160.372ZM164.352 61.509L164.137 60.4376C164.819 60.3006 165.505 60.1738 166.176 60.0613L166.36 61.1389C165.699 61.2514 165.024 61.3761 164.352 61.5111V61.509ZM170.387 60.5909C170.387 60.5909 169.636 60.6523 168.377 60.8261L168.227 59.7424C169.527 59.5624 170.279 59.5011 170.301 59.499L170.389 60.5889L170.387 60.5909Z" fill="#DBE1FF"/>
<path d="M175.705 181.014H132.158V292.71H175.705V181.014Z" fill="#BDD1F9"/>
<path d="M243.45 144.506H199.902V292.71H243.45V144.506Z" fill="#BDD1F9"/>
<path d="M309.182 105.104H261.5V292.708H309.182V105.104Z" fill="#BDD1F9"/>
<path d="M369.719 79.1328H326.172V292.71H369.719V79.1328Z" fill="#BDD1F9"/>
<path d="M309.182 167.625L400.706 123.37L359.888 210.275L352.987 170.845L309.182 167.625Z" fill="#F77D48"/>
<path d="M222.01 66.9725C219.484 67.6023 217.07 68.2055 214.814 68.5899C207.508 69.8372 201.864 68.8087 199.43 59.0796C196.998 49.3506 201.494 45.7906 208.53 43.4596C210.702 42.7398 213.115 42.1386 215.641 41.5089C221.042 40.1613 227.02 40.7564 231.779 42.3165C236.461 43.8542 239.966 46.3264 240.588 48.8108C241.296 51.6387 239.368 55.4706 235.937 58.9385C232.449 62.4678 227.411 65.6229 222.01 66.9704V66.9725Z" fill="#739AF0"/>
<path d="M208.53 43.4617L200.233 38.0471L187.131 40.8362L200.738 50.3853L208.53 43.4617Z" fill="#FFB93E"/>
<path d="M214.793 68.5103L210.017 77.1842L197.143 80.8771L204.658 66.0586L214.793 68.5103Z" fill="#FFB93E"/>
<path d="M214.814 68.59C207.508 69.8373 201.864 68.8088 199.43 59.0798C196.998 49.3507 201.494 45.7908 208.53 43.4597L214.814 68.588V68.59Z" fill="#FFB93E"/>
<path d="M182.373 63.3348C182.373 63.3348 186.019 54.847 192.404 56.1536C198.916 57.4868 198.095 64.4963 193.209 65.1383C188.322 65.7804 185.225 62.6233 182.373 63.3328V63.3348Z" fill="#F77D48"/>
<path d="M221.21 46.7641C224.584 45.9216 228.003 47.9726 228.846 51.3423C229.69 54.7121 227.636 58.1269 224.263 58.9694C220.889 59.8118 217.47 57.7609 216.627 54.3911C215.783 51.0213 217.837 47.6065 221.21 46.7641Z" fill="#FFB93E"/>
<path d="M222.736 59.5765C219.727 59.5765 216.982 57.5379 216.218 54.4932C215.322 50.9046 217.514 47.2547 221.107 46.3591C224.7 45.4614 228.354 47.6534 229.25 51.242C229.684 52.9801 229.416 54.7836 228.493 56.3212C227.57 57.8569 226.102 58.9426 224.362 59.3782C223.817 59.5131 223.271 59.5786 222.734 59.5786L222.736 59.5765ZM222.736 46.995C222.266 46.995 221.789 47.0523 221.314 47.1709C219.791 47.5512 218.507 48.5 217.698 49.8454C216.89 51.1889 216.654 52.7674 217.035 54.2887C217.821 57.4295 221.017 59.3455 224.161 58.5623C225.684 58.182 226.968 57.2332 227.777 55.8877C228.585 54.5423 228.821 52.9658 228.44 51.4444C227.772 48.7801 225.371 46.995 222.736 46.995Z" fill="#BDD1F9"/>
<path d="M235.937 58.9406L231.781 42.3186C236.463 43.8563 239.968 46.3284 240.59 48.8128C241.298 51.6407 239.37 55.4727 235.939 58.9406H235.937Z" fill="#F77D48"/>
<path d="M424.242 150.216C424.242 150.216 436.965 163.392 437.567 168.353C438.169 173.311 431.473 181.055 431.473 181.055L424.242 150.216Z" fill="#ED7D2B"/>
<path d="M418.494 286.78C418.494 286.78 418.045 293.769 416.69 293.867C416.51 293.879 409.822 293.867 409.822 293.867L401.285 293.8C401.285 293.8 401.345 291.745 403.842 291.315C406.338 290.886 410.52 289.144 412.037 285.854C413.634 282.392 418.492 286.782 418.492 286.782L418.494 286.78Z" fill="#2E5A99"/>
<path d="M437.507 286.821C437.507 286.821 437.059 293.81 435.704 293.908C435.524 293.92 428.835 293.908 428.835 293.908L420.299 293.841C420.299 293.841 420.358 291.786 422.856 291.358C425.351 290.929 429.534 289.187 431.051 285.897C432.647 282.435 437.505 286.825 437.505 286.825L437.507 286.821Z" fill="#18417C"/>
<path d="M409.201 211.63C409.201 211.63 411.402 225.899 419.677 251.236C427.951 276.572 429.061 287.539 429.061 287.539L437.997 287.308C437.997 287.308 438.134 259.638 434.322 246.897C430.51 234.156 433.593 200.993 433.593 200.993L409.199 211.628L409.201 211.63Z" fill="#163560"/>
<path d="M404.875 201.713C404.875 201.713 404.513 223.206 408.177 249.604C411.844 276.002 410.556 287.201 410.556 287.201L419.473 287.516C419.473 287.516 424.859 261.128 423.361 247.915C421.862 234.704 430.757 202.605 430.757 202.605L404.875 201.711V201.713Z" fill="#1C468A"/>
<path d="M422.247 151.455L417.489 154.554L410.625 153.262C410.721 152.708 411.18 150.416 411.597 148.338C411.622 148.216 411.649 148.093 411.671 147.974C412.029 146.206 412.336 144.688 412.336 144.688L418.756 141.877L421.149 140.828C421.143 140.865 420.959 142.789 420.934 143.071C420.474 148.062 422.247 151.457 422.247 151.457V151.455Z" fill="#FFB27D"/>
<path d="M412.39 149.864C412.523 149.809 420.665 147.429 421.547 147.721C422.429 148.013 422.949 149.723 422.949 149.723L409.637 152.698C409.637 152.698 410.689 150.573 412.39 149.862V149.864Z" fill="#ED7D2B"/>
<path d="M434.179 204.431C432.787 210.71 409.836 211.405 403.932 205.69C403.261 205.038 403.234 202.014 403.496 197.936C404.01 189.97 405.629 177.988 405.705 171.864C405.742 168.907 406.155 165.883 406.704 163.138C407.869 157.288 409.638 152.698 409.638 152.698C409.638 152.698 420.854 149.103 422.95 149.723C433.049 152.71 435.571 198.151 434.179 204.431Z" fill="#F99746"/>
<path d="M403.498 197.937C404.012 189.97 405.631 177.988 405.707 171.864C405.744 168.907 406.157 165.883 406.706 163.139L413.451 161.965C413.451 161.965 419.986 188.876 403.498 197.937Z" fill="#ED7D2B"/>
<path d="M407.173 186.839C407.173 186.839 407.63 187.937 406.663 188.672C405.697 189.406 405.069 190.598 405.288 191.471C405.507 192.344 407.622 193.771 408.356 193.544C409.091 193.317 410.588 192.17 410.428 191.71C410.269 191.25 411.442 187.674 409.654 186.293C407.869 184.913 407.175 186.839 407.175 186.839H407.173Z" fill="#FFB27D"/>
<path d="M414.79 151.097C414.79 151.097 408.211 152.312 402.956 160.014C397.699 167.715 394.239 173.442 395.199 176.225C396.157 179.008 404.935 188.668 406.452 188.672C407.969 188.676 410.42 187.578 410.563 185.1C410.563 185.1 404.389 175.812 405.613 174.426C406.135 173.833 413.669 167.752 414.737 170.508C416.504 175.07 414.792 151.099 414.792 151.099L414.79 151.097Z" fill="#F99746"/>
<path d="M420.454 143.157C419.041 145.537 413.788 147.586 411.598 148.338C411.622 148.216 411.649 148.093 411.671 147.974C412.03 146.206 412.337 144.688 412.337 144.688L418.757 141.877C420.173 141.86 421.037 142.179 420.454 143.159V143.157Z" fill="#FCA56B"/>
<path d="M409.921 144.292C409.921 144.292 420.245 147.533 422.165 141.079C424.088 134.628 426.714 130.7 420.204 128.359C413.694 126.018 411.674 128.097 410.509 130.095C409.344 132.093 407.285 143.284 409.921 144.292Z" fill="#FFB27D"/>
<path d="M410.917 129.473C410.917 129.473 411.56 136.988 413.116 136.665C414.672 136.342 416.084 136.102 415.851 138.368C415.618 140.632 413.456 143.243 418.248 143.654C423.041 144.065 429.96 131.731 428.648 129.389C424.863 122.636 405.441 121.231 410.917 129.473Z" fill="#161616"/>
<g opacity="0.7">
<path d="M472.779 265.424C472.779 265.424 477.631 259.771 473.078 256.18C473.078 256.18 469.754 254.17 467.041 254.332C467.041 254.332 470.884 260.766 469.641 261.406C468.398 262.046 465.878 253.927 465.878 253.927C465.878 253.927 458.312 253.193 455.878 254.362C455.878 254.362 462.347 259.65 460.984 259.965C459.622 260.28 452.633 255.09 452.633 255.09C452.633 255.09 445.591 256.286 445.966 260.578C446.342 264.87 448.768 266.195 449.835 266.081C450.901 265.966 457.141 263.588 457.276 264.461C457.411 265.334 453.657 268.187 451.026 268.32C451.026 268.32 455.991 273.79 459.293 272.211C462.593 270.632 462.875 268.13 464.931 267.191C466.988 266.253 468.744 266.255 467.895 267.212C467.045 268.169 463.323 269.099 462.146 271.176C460.969 273.254 459.915 274.657 463.33 274.143C466.744 273.63 472.294 271.135 472.538 268.277L472.781 265.42L472.779 265.424Z" fill="#77A4E5"/>
<path d="M449.428 260.697C449.428 260.697 468.556 259.961 472.782 265.425C472.782 265.425 473.715 268.22 476.591 270.763L477.04 271.984C477.04 271.984 473.725 268.494 472.538 268.281C472.538 268.281 474.393 261.511 449.428 260.695V260.697Z" fill="#77A4E5"/>
<path d="M476.589 270.764C476.589 270.764 480.696 273.796 480.98 279.215L480.235 279.282C480.235 279.282 478.923 273.679 476.554 271.487C474.184 269.295 476.589 270.764 476.589 270.764Z" fill="#77A4E5"/>
<path d="M487.739 260.799C487.739 260.799 480.937 256.994 484.112 251.829C484.112 251.829 486.652 248.657 489.373 247.841C489.373 247.841 487.922 255.542 489.373 255.724C490.825 255.906 490.37 247.026 490.37 247.026C490.37 247.026 497.535 243.582 500.348 243.854C500.348 243.854 495.904 251.375 497.355 251.193C498.806 251.011 503.795 243.4 503.795 243.4C503.795 243.4 511.143 242.04 512.322 246.39C513.501 250.739 511.597 252.913 510.508 253.184C509.419 253.456 502.434 253.366 502.616 254.272C502.798 255.178 507.515 256.628 510.146 255.812C510.146 255.812 507.243 262.969 503.433 262.607C499.623 262.245 498.444 259.889 496.086 259.707C493.727 259.525 492.004 260.161 493.183 260.795C494.362 261.429 498.354 261.004 500.258 262.621C502.164 264.239 503.705 265.234 500.168 265.96C496.63 266.684 490.28 266.232 489.011 263.515L487.742 260.797L487.739 260.799Z" fill="#77A4E5"/>
<path d="M508.965 247.751C508.965 247.751 489.916 253.912 487.738 260.799C487.738 260.799 487.828 263.881 485.924 267.414V268.774C485.924 268.774 487.92 264.153 489.009 263.519C489.009 263.519 484.745 257.538 508.965 247.754V247.751Z" fill="#77A4E5"/>
<path d="M485.926 267.412C485.926 267.412 482.988 271.868 484.662 277.292L485.418 277.09C485.418 277.09 484.685 271.115 486.22 268.111C487.758 265.108 485.923 267.414 485.923 267.414L485.926 267.412Z" fill="#77A4E5"/>
<path d="M477.465 252.36C477.465 252.36 487.638 246.67 482.89 238.947C482.89 238.947 479.093 234.205 475.023 232.986C475.023 232.986 477.193 244.502 475.023 244.774C472.853 245.044 473.531 231.767 473.531 231.767C473.531 231.767 462.816 226.619 458.611 227.026C458.611 227.026 465.258 238.27 463.088 238C460.918 237.728 453.456 226.349 453.456 226.349C453.456 226.349 442.469 224.316 440.706 230.821C438.944 237.323 441.791 240.576 443.419 240.981C445.046 241.388 455.491 241.253 455.221 242.607C454.949 243.96 447.896 246.13 443.961 244.909C443.961 244.909 448.301 255.612 453.999 255.07C459.696 254.528 461.459 251.005 464.986 250.735C468.513 250.463 471.09 251.412 469.326 252.36C467.563 253.309 461.594 252.671 458.746 255.09C455.898 257.509 453.591 259 458.881 260.083C464.171 261.167 473.666 260.49 475.565 256.425L477.465 252.36Z" fill="#9FC1F4"/>
<path d="M445.725 232.851C445.725 232.851 474.209 242.065 477.464 252.36C477.464 252.36 477.329 256.967 480.176 262.251V264.283C480.176 264.283 477.192 257.374 475.564 256.425C475.564 256.425 481.939 247.483 445.723 232.851H445.725Z" fill="#9FC1F4"/>
<path d="M480.179 262.251C480.179 262.251 484.572 268.915 482.067 277.025L480.937 276.722C480.937 276.722 482.034 267.788 479.735 263.296C477.436 258.803 480.177 262.251 480.177 262.251H480.179Z" fill="#9FC1F4"/>
<path d="M477.217 292.798C467.516 292.798 459.65 284.942 459.65 275.252H494.784C494.784 284.942 486.919 292.798 477.217 292.798Z" fill="#9FC1F4"/>
<path d="M459.253 275.787H495.363V275.25H459.253V275.787Z" fill="#77A4E5"/>
<path d="M484.72 292.798H468.273C468.273 292.021 468.904 291.391 469.682 291.391H483.312C484.09 291.391 484.72 292.021 484.72 292.798Z" fill="#77A4E5"/>
</g>
<path d="M370.147 174.992C347.545 193.375 320.465 207.504 289.659 216.99C264.637 224.692 236.914 229.412 207.259 231.021C199.173 231.461 191.295 231.651 183.712 231.651C168.381 231.651 154.244 230.872 141.924 229.788L146.909 206.23C163.896 207.612 184.185 208.338 206.104 207.15C234.013 205.641 260.006 201.227 283.354 194.039C311.449 185.386 336.023 172.604 356.386 156.039L370.145 174.99L370.147 174.992Z" fill="#F77D48"/>
<path d="M201.617 128.017C198.475 126.39 195.955 127.412 195.955 127.412C186.337 126.283 183.533 137.487 183.664 141.341C183.793 145.196 184.235 149.336 179.94 154.344C167.534 168.809 193.517 169.447 193.517 169.447C193.736 157.89 207.607 162.106 206.999 163.278C224.779 167.539 208.768 131.721 201.619 128.017H201.617Z" fill="#161616"/>
<path d="M164.519 176.198C164.519 176.198 162.828 173.626 161.465 173.577C160.101 173.526 157.577 172.82 157.78 173.326C157.983 173.831 159.547 173.88 159.698 174.182C159.85 174.485 157.377 174.939 156.668 174.99C155.962 175.041 154.296 174.99 154.347 175.344C154.398 175.697 157.35 177.159 159.432 176.957C161.516 176.755 164.089 177.562 164.089 177.562L164.519 176.2V176.198Z" fill="#FFB27D"/>
<path d="M188.979 177.031C188.979 177.031 188.06 178.849 186.391 180.938C184.381 183.453 181.284 186.357 177.392 186.93C175.533 187.204 173.715 186.805 172.045 186.063C172.041 186.063 172.039 186.063 172.039 186.063C167.314 183.967 163.76 179.149 163.76 179.149C162.927 176.879 164.29 175.342 164.29 175.342C164.29 175.342 173.832 177.485 174.741 177.031C175.65 176.577 180.95 161.325 182.213 159.407C183.476 157.491 187.777 156.495 187.777 156.495L188.979 177.031Z" fill="#F99746"/>
<path d="M186.393 180.938C184.383 183.453 181.286 186.357 177.394 186.929C175.535 187.203 173.717 186.805 172.047 186.062C172.231 186.087 176.952 186.67 178.831 183.308C180.749 179.879 182.825 174.434 185.675 176.248C186.905 177.031 186.85 178.977 186.391 180.936L186.393 180.938Z" fill="#ED7D2B"/>
<path d="M224.577 279.905C224.577 279.905 227.488 282.56 226.921 284.445C226.354 286.33 223.726 287.588 223.371 289.892C223.015 292.197 221.597 293.454 220.317 293.454H214.223C214.223 293.454 213.281 291.833 215.553 291.344C217.826 290.855 218.683 288.148 218.54 285.633C218.399 283.118 218.753 279.766 218.753 279.766L223.582 278.65L224.577 279.907V279.905Z" fill="#36599E"/>
<path d="M199.936 281.032C199.936 281.032 200.984 292.274 199.705 292.904L183.346 292.871C183.346 292.871 183.346 290.986 185.972 290.567C188.599 290.148 193.215 288.612 193.997 285.189C194.779 281.766 199.934 281.034 199.934 281.034L199.936 281.032Z" fill="#2B478B"/>
<path d="M211.592 200.374C208.226 192.833 206.167 190.669 206.56 188.328C206.853 186.586 205.67 155.851 205.67 155.851C205.27 155.728 204.47 155.616 204.032 155.52C202.65 155.213 201.508 154.246 201.033 152.915C200.46 151.311 200.005 148.946 200.015 145.981L199.583 146.065L192.332 147.498C192.332 147.498 192.498 149.778 192.502 151.925C192.502 151.943 192.502 151.96 192.502 151.978C192.51 153.843 191.286 155.489 189.493 156.006C188.578 156.27 187.779 156.495 187.779 156.495C187.779 156.495 185.116 164.087 184.608 171.886C184.101 179.685 189.45 183.073 184.567 198.658C179.585 214.577 213.451 204.539 211.59 200.372L211.592 200.374Z" fill="#FFB27D"/>
<path d="M192.332 147.498C192.332 147.498 192.498 149.778 192.502 151.925C196.559 151.811 198.703 148.114 199.583 146.065L192.332 147.498Z" fill="#E8945B"/>
<path d="M190.977 149.53C190.977 149.53 200.576 149.688 200.582 143.715C200.588 137.742 201.833 133.741 195.704 133.387C189.575 133.033 188.381 135.311 187.894 137.305C187.407 139.298 188.479 149.334 190.977 149.53Z" fill="#FFB27D"/>
<path d="M191.33 133.244C191.33 133.244 193.959 140.251 197.992 141.286C202.024 142.323 203.775 141.243 203.775 141.243C203.775 141.243 200.681 138.787 200.039 134.503C200.039 134.503 193.312 129.909 191.33 133.244Z" fill="#161616"/>
<path d="M191.982 133.812C191.982 133.812 190.033 134.54 189.23 135.959C188.446 137.348 187.777 139.186 187.932 141.441C187.932 141.441 185.953 136.679 188.178 133.984C190.538 131.127 191.982 133.81 191.982 133.81V133.812Z" fill="#161616"/>
<path d="M193.065 145.825C193.065 145.825 192.402 146.696 191.078 146.633C190.011 146.582 189.6 145.658 189.6 145.658C189.6 145.658 191.561 145.187 193.065 145.825Z" fill="#EBF3FA"/>
<path d="M212.517 169.447C212.517 169.447 212.761 172.88 212.517 176.998C212.355 179.728 209.589 183.386 209.196 184.29C208.212 186.559 207.102 186.927 207.102 186.927L198.512 189.029L195.493 189.768L185.969 186.927C185.969 186.927 181.631 174.835 183.374 168.028C185.116 161.221 187.777 156.493 187.777 156.493C187.777 156.493 195.548 164.093 205.667 155.849L212.517 169.445V169.447Z" fill="#F99746"/>
<path d="M186.578 188.766C186.578 188.766 181.861 203.429 181.558 208.42C181.255 213.411 190.574 279.337 190.948 281.637C191.302 283.805 193.997 285.187 193.997 285.187C193.997 285.187 195.237 285.917 197.006 285.418C199.46 284.725 200.236 283.897 200.236 283.897C200.236 283.897 203.907 236.879 201.637 220.084C199.364 203.288 199.338 188.764 199.338 188.764H186.578V188.766Z" fill="#233862"/>
<path d="M206.558 188.328C206.558 188.328 213.752 197.969 214.424 204.486C215.095 211.003 215.476 233.896 216.905 240.249C218.334 246.602 223.583 258.83 223.583 278.646C223.583 278.646 223.036 279.781 221.351 280.386C220.813 280.58 220.09 280.766 219.39 280.928C218 281.247 216.575 280.568 215.94 279.292C212.391 272.154 201.086 249.134 200.507 244.355C200.098 240.973 196.527 218.591 188.74 205.459C186.871 202.306 189.886 189.768 189.886 189.768L206.556 188.326L206.558 188.328Z" fill="#2B478B"/>
<path d="M192.852 145.987C192.852 145.987 192.686 146.69 190.934 146.582C190.934 146.582 189.462 146.49 189.507 145.717C189.507 145.717 190.934 145.167 192.852 145.987Z" fill="white"/>
<path d="M185.824 186.502C185.824 186.502 187.717 187.999 191.478 188.075C195.971 188.165 207.102 186.932 207.102 186.932C207.102 186.932 207.597 188.312 207.577 189.77C207.577 189.77 193.98 193.195 186.102 190.271C186.102 190.271 185.087 188.361 185.822 186.504L185.824 186.502Z" fill="#233862"/>
<path d="M190.401 191.941C189.271 191.941 188.352 190.903 188.352 189.625C188.352 188.347 189.271 187.308 190.401 187.308C191.531 187.308 192.45 188.347 192.45 189.625C192.45 190.903 191.531 191.941 190.401 191.941ZM190.401 187.985C189.645 187.985 189.029 188.719 189.029 189.623C189.029 190.526 189.643 191.262 190.401 191.262C191.158 191.262 191.772 190.526 191.772 189.623C191.772 188.719 191.158 187.985 190.401 187.985Z" fill="white"/>
<path d="M205.136 170.101L191.207 182.216L207.81 201.26L221.739 189.145L205.136 170.101Z" fill="#B5453C"/>
<path d="M203.962 189.199C203.962 189.199 198.859 189.794 198.875 191.005C198.891 192.215 200.146 194.702 200.777 194.812C201.407 194.923 204.931 191.451 204.931 191.451L203.962 189.199Z" fill="#FFB27D"/>
<path d="M205.668 155.851C205.668 155.851 212.483 156.327 215.093 162.67C217.705 169.013 222.661 179.66 222.661 181.452C222.661 183.243 219.894 188.766 205.025 191.939C205.025 191.939 203.488 190.324 203.58 189.046C203.58 189.046 212.859 181.083 212.835 180.153C212.788 178.393 211.314 176.07 203.166 167.927C200.951 165.715 205.666 155.849 205.666 155.849L205.668 155.851Z" fill="#F99746"/>
<path d="M58.2741 293.438H58.2065C57.8094 293.438 57.49 293.113 57.5002 292.716L58.5709 246.328L61.7276 245.96L59.0356 292.72C59.0131 293.123 58.6774 293.44 58.2741 293.44V293.438Z" fill="#95C0F4"/>
<path d="M109.03 293.438H109.097C109.494 293.438 109.814 293.113 109.804 292.716L108.733 246.328L105.576 245.96L108.268 292.72C108.291 293.123 108.626 293.44 109.03 293.44V293.438Z" fill="#B0D4FF"/>
<path d="M56.1836 243.451V211.663C56.1836 206.07 60.7221 201.535 66.3232 201.535H89.2514C94.8503 201.535 99.3909 206.068 99.3909 211.663V244.666L56.1836 243.451Z" fill="#B0D4FF"/>
<path d="M56.1836 243.451H103.5V248.469H59.2277C57.547 248.469 56.1836 247.107 56.1836 245.428V243.451Z" fill="#95C0F4"/>
<path d="M75.3105 243.451H108.804C110.047 243.451 111.056 244.459 111.056 245.7V246.222C111.056 247.463 110.047 248.471 108.804 248.471H75.3105C74.0678 248.471 73.0586 247.463 73.0586 246.222V245.7C73.0586 244.459 74.0678 243.451 75.3105 243.451Z" fill="#B0D4FF"/>
<path d="M107.503 235.53C104.218 241.241 100.086 243.445 100.086 243.445H82.8984C82.8984 243.445 110.009 231.174 107.503 235.53Z" fill="#233862"/>
<path d="M94.3039 279.711C93.8556 280.224 93.7983 280.797 94.0214 281.408C94.0214 281.41 94.0214 281.415 94.0255 281.417C94.435 282.547 95.7902 283.811 97.3624 285.073C97.563 285.234 97.7432 285.381 97.8988 285.518C97.9397 285.553 97.9806 285.59 98.0195 285.627C98.0502 285.655 98.081 285.684 98.1117 285.711C99.5795 287.062 99.0267 287.371 101.661 290.111C104.667 293.233 106.736 293.291 107.324 293.006C107.821 292.763 106.81 291.107 105.688 289.246C105.633 289.156 105.58 289.066 105.524 288.974C105.375 288.727 105.228 288.475 105.078 288.226C103.764 285.985 104.102 284.934 104.413 281.599C104.667 278.889 108.634 266.459 108.634 266.459L102.875 265.467C102.875 265.467 101.141 275.364 99.2294 276.889C98.2079 277.701 97.0635 277.711 96.0829 278.315C96.0133 278.358 95.9458 278.4 95.8782 278.443C95.3193 278.814 94.7523 279.194 94.3019 279.709L94.3039 279.711Z" fill="#FFB27D"/>
<path d="M94.3039 279.711C93.8556 280.224 93.7983 280.797 94.0214 281.408C94.0214 281.41 94.0214 281.414 94.0255 281.416C94.5271 282.547 95.8475 283.805 97.3685 285.062C97.5671 285.228 97.7432 285.379 97.8988 285.52C97.9397 285.555 97.9806 285.592 98.0195 285.629C98.0502 285.657 98.081 285.686 98.1117 285.713C99.5795 287.064 99.0267 287.373 101.661 290.113C104.667 293.235 106.736 293.293 107.324 293.008C107.821 292.765 106.81 291.109 105.688 289.248C105.103 289.033 102.386 287.931 100.331 285.306C98.5211 282.999 97.3153 280.036 96.0829 278.319C96.0133 278.362 95.9458 278.404 95.8782 278.447C95.3193 278.818 94.7523 279.198 94.3019 279.713L94.3039 279.711Z" fill="#233862"/>
<path d="M140.739 276.118C141.095 277.893 143.628 277.599 146.459 276.908C149.29 276.216 148.616 277.039 152.645 276.593C156.674 276.147 157.894 274.646 158.017 274.049C158.128 273.517 156.136 273.331 154.001 273.086C153.732 273.055 153.462 273.023 153.192 272.99C150.78 272.687 149.016 271.133 146.825 269.857C144.751 268.649 141.656 263.723 141.656 263.723L136.131 264.16C136.131 264.16 139.03 268.559 140.151 270.473C140.811 271.597 140.776 273.086 140.694 274.233C140.651 274.857 140.61 275.495 140.737 276.12L140.739 276.118Z" fill="#FFB27D"/>
<path d="M146.461 276.908C149.293 276.216 148.619 277.038 152.648 276.593C156.677 276.147 157.897 274.646 158.02 274.049C158.13 273.517 156.138 273.331 154.003 273.086L153.983 273.127C153.983 273.127 151.567 274.838 148.212 274.918C145.479 274.983 142.582 274.202 140.695 274.233C140.652 274.857 140.611 275.495 140.738 276.12C141.094 277.895 143.626 277.601 146.457 276.91L146.461 276.908Z" fill="#233862"/>
<path d="M119.564 240.828L114.399 254.712L107.656 272.839C107.656 272.839 105.826 273.014 104.073 272.511C102.46 272.045 100.607 270.827 100.607 270.827C100.607 270.827 102.481 251.362 105.973 240.19C106.868 237.321 107.871 235.002 108.978 233.695C114.393 227.303 119.564 240.828 119.564 240.828Z" fill="#233862"/>
<path d="M114.313 218.779C110.929 217.689 101.276 219.088 91.581 220.985L89.5502 217.64L68.6078 216.006C68.6078 216.006 61.6966 231.313 65.4797 241.067C66.0365 242.5 67.14 243.42 69.0234 243.449C69.0234 243.449 69.3284 243.449 69.3304 243.449C69.3304 243.449 81.7935 243.441 85.8428 243.441C96.2567 243.441 107.885 236.29 109.387 235.99C111.85 235.497 112.835 240.417 115.295 245.58C117.756 250.743 138.436 268.449 138.436 268.449C138.436 268.449 141.616 268.479 142.928 267.988C144.34 267.459 144.856 266.772 144.856 266.772C144.856 266.772 121.942 221.237 114.311 218.779H114.313Z" fill="#2B478B"/>
<path d="M88.7268 156.732C86.043 155.325 81.963 155.135 81.2997 155.045C73.3649 153.98 68.5889 165.498 68.3064 168.988C67.7884 175.421 64.382 176.403 59.5855 180.431C49.97 188.508 52.7889 197.895 58.0481 201.384C61.2027 203.478 66.7628 201.384 66.7628 201.384C66.8406 201.439 81.9691 192.937 89.4269 188.835C100.606 187.248 95.5622 160.319 88.7268 156.734V156.732Z" fill="#161616"/>
<path d="M83.1761 185.343C83.2089 185.363 79.5076 186.627 77.0326 185.531C74.7029 184.502 72.9403 180.676 72.9751 180.674C74.0335 180.625 75.1983 179.701 76.0929 173.63L76.5433 173.792L84.128 176.517C84.128 176.517 83.5794 178.949 83.2232 181.263C82.9243 183.206 82.7626 185.069 83.1782 185.343H83.1761Z" fill="#FFB27D"/>
<path d="M84.1297 176.519C84.1297 176.519 83.581 178.951 83.2248 181.265C78.8684 180.482 77.1591 176.147 76.5449 173.794L84.1297 176.519Z" fill="#ED975D"/>
<path d="M85.2575 178.93C85.2575 178.93 74.8805 177.54 75.8467 171.097C76.813 164.656 76.1251 160.137 82.7907 160.754C89.4562 161.37 90.3734 164.02 90.574 166.248C90.7746 168.477 87.9802 179.126 85.2575 178.93Z" fill="#FFB27D"/>
<path d="M90.1973 162.719C90.1973 162.719 83.5542 168.436 79.0361 168.899C74.5181 169.359 72.8066 167.911 72.8066 167.911C72.8066 167.911 75.47 165.703 77.0729 162.139C77.5458 161.088 78.5428 160.368 79.6912 160.268C82.9176 159.989 89.0345 159.863 90.1973 162.721V162.719Z" fill="#161616"/>
<path d="M86.0449 162.206C86.0449 162.206 88.2681 164.353 88.9662 165.944C89.6418 167.479 89.8444 171.154 89.306 172.614C89.306 172.614 92.7678 165.889 90.8087 162.621C88.7308 159.157 86.0449 162.206 86.0449 162.206Z" fill="#161616"/>
<path d="M91.9165 200.611C91.6033 221.593 91.8305 217.209 89.5316 219.198C88.9768 219.677 87.4209 219.963 85.3738 220.098C78.9334 220.525 67.6106 219.464 67.1807 218.276C65.6944 214.162 66.7446 212.884 65.5041 206.586C65.3751 205.915 65.2154 205.191 65.0271 204.402C63.9933 200.075 62.9881 198.605 66.6546 191.655C69.9791 185.359 73.4348 180.251 73.7439 180.435C82.516 185.637 83.2243 181.265 83.2243 181.265C83.2243 181.265 92.07 190.379 91.9165 200.613V200.611Z" fill="#8C9DF4"/>
<path d="M114.397 254.712L107.654 272.839C107.654 272.839 105.824 273.014 104.071 272.511C102.458 272.045 100.605 270.827 100.605 270.827C100.605 270.827 102.479 251.362 105.971 240.19L114.397 254.71V254.712Z" fill="#2B478B"/>
<path d="M83.2246 181.263C83.2246 181.263 92.2505 182.793 93.311 186.674C94.3714 190.557 100.609 213.376 100.609 213.376C100.609 213.376 96.0194 214.2 93.9005 212.082C91.7797 209.964 86.5246 192.438 86.5246 192.438L83.2246 181.263Z" fill="#8C9DF4"/>
<path d="M85.3736 220.1C78.9333 220.527 67.6104 219.466 67.1805 218.278C65.6943 214.164 66.7445 212.886 65.5039 206.588L68.6115 197.851C68.6115 197.851 68.0977 207.582 70.9698 210.14C73.8399 212.7 82.7328 215.08 84.129 217.219C84.8025 218.245 85.2467 219.274 85.3757 220.1H85.3736Z" fill="#6980E2"/>
<path d="M77.9942 216.006C77.9942 216.006 84.3486 214.593 85.3742 215.155C86.3999 215.718 88.9056 217.771 89.2188 218.484C89.532 219.198 86.9362 217.942 86.0907 217.715C85.5442 217.568 84.103 218.069 83.3905 218.306C80.3915 219.304 78.5531 218.791 78.5531 218.791L77.9922 216.006H77.9942Z" fill="#FFB27D"/>
<path d="M73.7373 180.431C73.7373 180.431 65.2048 180.957 62.2507 185.071C58.0929 190.864 49.8449 215.548 54.5718 218.842C59.8944 222.549 78.7999 219.812 78.7999 219.812C78.7999 219.812 79.4284 216.875 78.5543 215.454C77.6781 214.033 63.4544 211.739 62.7973 211.082C62.1402 210.426 71.0044 198.294 71.0044 196.327C71.0044 194.36 73.7373 180.431 73.7373 180.431Z" fill="#8C9DF4"/>
<path d="M85.6797 216.924C85.6797 216.924 87.0103 218.64 87.4484 218.844C87.8845 219.049 88.167 218.997 88.167 218.997L87.2703 217.384L85.6817 216.924H85.6797Z" fill="#FFB27D"/>
<path d="M85.373 215.157L89.2442 217.035C89.2442 217.035 89.0805 217.304 88.6035 217.282C88.1265 217.26 86.9248 216.822 86.9248 216.822L85.373 215.157Z" fill="#FFB27D"/>
<path d="M86.0488 221.472H118.707L128.531 198.593H95.9223L86.0488 221.472Z" fill="#F77D48"/>
<path d="M119.09 219.989H75.9629V221.435H118.708L119.09 219.989Z" fill="#F77D48"/>
<path d="M110.464 210.031C110.709 209.228 110.214 208.575 109.354 208.575C108.494 208.575 107.6 209.228 107.354 210.031C107.108 210.835 107.604 211.487 108.463 211.487C109.323 211.487 110.218 210.835 110.464 210.031Z" fill="#EBF3FA"/>
<path d="M166.997 294.076H167.087C167.611 294.076 168.033 293.599 168.02 293.023L166.604 225.338L162.43 224.803L165.99 293.029C166.02 293.618 166.463 294.078 166.997 294.078V294.076Z" fill="#233862"/>
<path d="M79.0062 294.076H78.9181C78.3941 294.076 77.9724 293.599 77.9846 293.023L79.4013 225.338L83.5754 224.803L80.0154 293.029C79.9847 293.618 79.5425 294.078 79.0082 294.078L79.0062 294.076Z" fill="#233862"/>
<path d="M73.5523 221.472H168.639C169.478 221.472 170.16 222.153 170.16 222.991V224.796C170.16 225.635 169.478 226.316 168.639 226.316H73.5523C72.713 226.316 72.0312 225.635 72.0312 224.796V222.991C72.0312 222.153 72.713 221.472 73.5523 221.472Z" fill="#233862"/>
<path d="M516.237 292.798H0.805619C0.395206 292.798 0.0625 293.13 0.0625 293.54V294.258C0.0625 294.668 0.395206 295 0.805619 295H516.237C516.648 295 516.98 294.668 516.98 294.258V293.54C516.98 293.13 516.648 292.798 516.237 292.798Z" fill="#2E3552"/>
</g>
<defs>
<clipPath id="clip0_1817_1333">
<rect width="523" height="295" fill="white"/>
</clipPath>
</defs>
</svg>
