<svg width="24" height="24" viewBox="0 0 24 24" fill="none" xmlns="http://www.w3.org/2000/svg">
<circle cx="12" cy="12" r="11.5" stroke="white"/>
<path d="M10.6063 17.0047C10.5341 16.9331 10.4864 16.8371 10.4148 16.7649C9.84166 16.1885 8.95842 15.901 7.76508 15.901C6.59431 15.901 5.71107 16.1885 5.13794 16.7649C5.06637 16.8371 5.01867 16.9086 4.94711 17.0047H10.6063ZM12.463 16.9763V7.95246H14.3707V9.07166C14.6324 8.61908 14.9425 8.28577 15.3242 8.04788C15.7245 7.82368 16.1767 7.70873 16.6355 7.71457C17.6129 7.71457 18.3762 8.04788 18.9242 8.69064C19.4722 9.33341 19.7584 10.2379 19.7584 11.381C19.7584 12.5002 19.4722 13.3808 18.9242 14.0474C18.3762 14.7141 17.6367 15.0474 16.7309 15.0474C16.1823 15.0474 15.729 14.9526 15.348 14.7379C14.9664 14.5477 14.6324 14.2144 14.3707 13.7857C14.3945 13.9527 14.4177 14.1429 14.4177 14.3569C14.4177 14.5477 14.4416 14.7856 14.4416 15.0474V16.9525H12.463V16.9763ZM14.2746 11.381C14.2746 11.9999 14.4177 12.4763 14.7278 12.8335C15.0379 13.1668 15.4673 13.357 15.9914 13.357C16.5394 13.357 16.9688 13.1906 17.2551 12.8335C17.5645 12.5002 17.7083 11.9999 17.7083 11.381C17.7083 10.7621 17.5652 10.2856 17.2551 9.92846C16.9456 9.5713 16.5162 9.40497 15.9676 9.40497C15.4434 9.40497 15.0141 9.59515 14.704 9.95296C14.4177 10.2624 14.2753 10.7621 14.2753 11.381H14.2746ZM9.26917 7.97631V11.5718C9.26917 12.1669 9.1499 12.5956 8.91136 12.8573C8.67282 13.1191 8.2918 13.2622 7.76702 13.2622C7.24288 13.2622 6.86122 13.1429 6.62268 12.8812C6.38414 12.6188 6.26487 12.1907 6.26487 11.5718V7.97567H4.28564V11.5712C4.28564 12.642 4.50033 13.4279 4.92905 13.9997C5.00062 14.0707 5.04832 14.1661 5.11988 14.2376C5.69238 14.8088 6.57433 15.0951 7.76637 15.0951C8.93457 15.0951 9.81652 14.8088 10.389 14.2376C10.4599 14.1661 10.5083 14.0945 10.5798 13.9991C11.0086 13.4279 11.2232 12.6181 11.2232 11.5712V7.97567L9.26917 7.97631Z" fill="white"/>
</svg>
