<svg width="68" height="58" viewBox="0 0 68 58" fill="none" xmlns="http://www.w3.org/2000/svg">
<path d="M55.1683 42.9998C58.1078 42.9998 60.9269 41.8321 63.0054 39.7536C65.084 37.675 66.2517 34.856 66.2517 31.9165C66.2517 28.977 65.084 26.1579 63.0054 24.0794C60.9269 22.0008 58.1078 20.8331 55.1683 20.8331H52.0017C52.4637 18.7747 52.4708 16.6544 52.0224 14.5935C51.574 12.5326 50.679 10.5714 49.3884 8.82174C48.0979 7.07213 46.437 5.56843 44.5008 4.39649C42.5645 3.22455 40.3907 2.40732 38.1035 1.99147C35.8163 1.57562 33.4605 1.56928 31.1706 1.97283C28.8807 2.37637 26.7015 3.18189 24.7575 4.3434C20.8314 6.68917 18.1015 10.3425 17.1683 14.4998C13.7925 14.3646 10.4726 15.3561 7.77686 17.3045C5.08118 19.253 3.17745 22.0372 2.39164 25.1804C1.60582 28.3237 1.9868 31.6305 3.46934 34.5346C4.95188 37.4387 7.44377 39.7596 10.5183 41.0998M33.0017 27.1665V55.6665M23.5017 46.1665L33.0017 55.6665L42.5017 46.1665" stroke="#AD5DF5" stroke-width="3" stroke-linecap="round" stroke-linejoin="round"/>
</svg>
