<svg width="515" height="418" viewBox="0 0 515 418" fill="none" xmlns="http://www.w3.org/2000/svg">
<g opacity="0.4">
<path opacity="0.4" d="M500.851 305.325C511.679 252.131 507.769 202.97 480.024 156.171C460.257 122.827 425.921 94.9758 386.647 94.241C349.6 93.5484 316.254 116.347 279.654 122.112C219.445 131.595 157.215 94.3155 98.7397 111.356C67.4469 120.477 42.0012 144.746 27.629 173.575C13.2568 202.403 9.1883 235.401 11.4489 267.395C15.4689 324.26 40.9598 380.807 84.5066 417.598H439.213C469.009 383.452 493.846 339.734 500.851 305.325Z" fill="#E0E0FF"/>
</g>
<path d="M179.174 355.808H208.039C209.251 355.808 210.234 356.792 210.234 358.005V365.773C210.234 366.987 209.251 367.971 208.039 367.971H179.174C177.962 367.971 176.979 366.987 176.979 365.773V358.005C176.979 356.792 177.962 355.808 179.174 355.808Z" fill="#E0E0FF"/>
<path d="M216.906 355.808H245.77C246.983 355.808 247.966 356.792 247.966 358.005V365.773C247.966 366.987 246.983 367.971 245.77 367.971H216.906C215.693 367.971 214.71 366.987 214.71 365.773V358.005C214.71 356.792 215.693 355.808 216.906 355.808Z" fill="#E0E0FF"/>
<path d="M197.77 339.084H226.634C227.847 339.084 228.83 340.068 228.83 341.282V349.05C228.83 350.263 227.847 351.247 226.634 351.247H197.77C196.557 351.247 195.574 350.263 195.574 349.05V341.282C195.574 340.068 196.557 339.084 197.77 339.084Z" fill="#E0E0FF"/>
<path d="M387.297 66.1503C387.297 61.9718 383.911 58.583 379.736 58.583H128.048C123.872 58.583 120.486 61.9718 120.486 66.1503V72.3549H387.297V66.1503Z" fill="white"/>
<path d="M387.695 72.7533H120.085V66.1473C120.085 61.7552 123.655 58.1787 128.047 58.1787H379.736C384.124 58.1787 387.698 61.752 387.698 66.1473V72.7533H387.695ZM120.884 71.9539H386.896V66.1506C386.896 62.1986 383.684 58.9846 379.736 58.9846H128.047C124.098 58.9846 120.887 62.1986 120.887 66.1506V71.9539H120.884Z" fill="#5254CF"/>
<path d="M120.486 72.3555V233.049C120.486 237.227 123.872 240.616 128.048 240.616H379.736C383.911 240.616 387.297 237.227 387.297 233.049V72.3555H120.486Z" fill="white"/>
<path d="M379.736 241.014H128.047C123.659 241.014 120.085 237.441 120.085 233.045V71.9541H387.695V233.045C387.695 237.437 384.124 241.014 379.732 241.014H379.736ZM120.884 72.7536V233.045C120.884 236.997 124.095 240.211 128.044 240.211H379.732C383.681 240.211 386.893 236.997 386.893 233.045V72.7536H120.884Z" fill="#5254CF"/>
<path d="M133.662 68.1597C135.144 68.0261 136.237 66.7155 136.103 65.2325C135.97 63.7494 134.66 62.6556 133.178 62.7892C131.696 62.9229 130.603 64.2335 130.737 65.7165C130.87 67.1995 132.18 68.2934 133.662 68.1597Z" fill="white"/>
<path d="M133.422 68.5715C131.715 68.5715 130.324 67.1798 130.324 65.4708C130.324 63.7619 131.715 62.3701 133.422 62.3701C135.13 62.3701 136.521 63.7619 136.521 65.4708C136.521 67.1798 135.13 68.5715 133.422 68.5715ZM133.422 63.176C132.158 63.176 131.133 64.2053 131.133 65.4676C131.133 66.7299 132.161 67.7591 133.422 67.7591C134.684 67.7591 135.712 66.7299 135.712 65.4676C135.712 64.2053 134.684 63.176 133.422 63.176Z" fill="#5254CF"/>
<path d="M144.172 68.1607C145.653 68.027 146.746 66.7165 146.613 65.2334C146.479 63.7504 145.17 62.6566 143.688 62.7902C142.206 62.9239 141.113 64.2345 141.247 65.7175C141.38 67.2005 142.69 68.2944 144.172 68.1607Z" fill="white"/>
<path d="M143.933 68.5715C142.226 68.5715 140.835 67.1798 140.835 65.4708C140.835 63.7619 142.226 62.3701 143.933 62.3701C145.641 62.3701 147.031 63.7619 147.031 65.4708C147.031 67.1798 145.641 68.5715 143.933 68.5715ZM143.933 63.176C142.669 63.176 141.643 64.2053 141.643 65.4676C141.643 66.7299 142.672 67.7591 143.933 67.7591C145.194 67.7591 146.223 66.7299 146.223 65.4676C146.223 64.2053 145.194 63.176 143.933 63.176Z" fill="#5254CF"/>
<path d="M154.682 68.1588C156.164 68.0251 157.257 66.7145 157.124 65.2315C156.99 63.7485 155.681 62.6546 154.199 62.7883C152.717 62.9219 151.624 64.2325 151.757 65.7155C151.891 67.1985 153.201 68.2924 154.682 68.1588Z" fill="white"/>
<path d="M154.444 68.5715C152.736 68.5715 151.346 67.1798 151.346 65.4708C151.346 63.7619 152.736 62.3701 154.444 62.3701C156.152 62.3701 157.542 63.7619 157.542 65.4708C157.542 67.1798 156.152 68.5715 154.444 68.5715ZM154.444 63.176C153.179 63.176 152.154 64.2053 152.154 65.4676C152.154 66.7299 153.183 67.7591 154.444 67.7591C155.705 67.7591 156.734 66.7299 156.734 65.4676C156.734 64.2053 155.705 63.176 154.444 63.176Z" fill="#5254CF"/>
<path opacity="0.4" d="M359.488 89.875H148.293V216.758H359.488V89.875Z" fill="#E0E0FF"/>
<path d="M292.279 240.152H223.329C220.78 216.324 220.127 194.962 222.407 180.76C223.028 176.892 223.863 173.558 224.936 170.849L253.968 164.933L287.722 167.959C293.398 182.653 294.288 209.074 292.273 240.152H292.279Z" fill="#FFB147"/>
<path d="M256.517 171.546H255.709V199.057H256.517V171.546Z" fill="#1B1B43"/>
<path opacity="0.2" d="M287.726 167.959C287.726 167.959 260.543 187.039 222.407 180.76C223.028 176.892 223.863 173.558 224.936 170.849L253.969 164.933L287.723 167.959H287.726Z" fill="#1B1B43"/>
<path d="M240.285 60.1241C240.285 60.1241 227.19 76.8349 230.344 91.0341L276.342 89.1115C276.342 89.1115 276.736 61.3054 266.688 58.9395L240.285 60.1241Z" fill="#1B1B43"/>
<path d="M279.896 87.4572H279.088C279.088 69.2413 269.621 60.8746 269.524 60.7904L270.052 60.1787C270.149 60.2629 279.893 68.8756 279.893 87.4572H279.896Z" fill="#1B1B43"/>
<path d="M229.086 155.061C229.031 156.964 228.656 158.792 228.019 160.505C226.353 165.02 222.86 168.684 218.355 170.483C217.272 170.93 216.124 171.253 214.927 171.454C212.76 171.826 210.238 172.037 207.272 172.037C192.395 172.037 181.594 160.728 180.316 157.281C179.039 153.824 182.641 155.054 182.641 155.054C183.954 152.122 186.881 154.484 186.881 154.484C187.764 151.426 190.529 154.284 190.529 154.284C190.529 154.284 190.626 152.607 192.201 152.704C193.172 152.769 196.347 154.704 198.644 156.177C199.824 156.931 201.182 157.32 202.557 157.32C203.107 157.32 203.656 157.261 204.196 157.135C207.02 156.488 209.187 154.213 209.711 151.364L214.164 127.073H224.707L228.087 131.41C229.413 136.761 229.332 147.717 229.079 155.064L229.086 155.061Z" fill="#FFBC96"/>
<path opacity="0.4" d="M228.019 160.509C226.353 165.024 222.861 168.688 218.356 170.487C217.984 169.587 217.773 168.6 217.773 167.564C217.773 163.399 221.153 160.017 225.325 160.017C226.273 160.017 227.178 160.195 228.019 160.509Z" fill="#FE5B52"/>
<path d="M251.869 80.5371L230.188 84.9584C222.216 86.5832 215.971 92.7911 214.286 100.756L208.391 128.653L228.096 131.414L251.873 80.5371H251.869Z" fill="#5254CF"/>
<path d="M259.422 80.5371L281.103 84.9584C289.075 86.5832 295.32 92.7911 297.005 100.756L299.683 120.568L280.569 123.921L259.422 80.5371Z" fill="#5254CF"/>
<path d="M228.093 131.411C228.093 131.411 227.042 163.224 224.939 170.85C224.939 170.85 254.363 181.103 287.729 167.956L285.103 109.324L259.421 80.5342H251.87L226.256 113.794L228.096 131.411H228.093Z" fill="#5254CF"/>
<path d="M324.902 81.3237C325.021 83.4049 321.603 89.6969 318.977 94.2056C317.043 97.5134 315.807 101.197 315.355 105.006C311.969 133.489 309.727 157.32 299.825 163.994C297.528 165.538 294.828 166.169 291.61 165.726C289.34 165.412 287.47 164.496 285.944 163.127C275.514 153.838 280.575 123.915 280.575 123.915L293.512 121.681C293.512 121.681 296.406 97.2286 298.24 88.8133C300.083 80.4078 302.971 84.8743 302.971 84.8743C304.022 82.2462 306.907 83.8224 306.907 83.8224C309.009 80.4078 311.635 83.0294 311.635 83.0294C313.21 79.8802 317.683 85.3987 317.683 85.3987C320.568 84.0813 324.643 76.951 324.902 81.3205V81.3237Z" fill="#FFBC96"/>
<path d="M228.949 104.693L227.678 131.385L228.485 131.423L229.757 104.732L228.949 104.693Z" fill="#1B1B43"/>
<path d="M280.203 124.393L278.551 103.132L279.356 103.07L280.941 123.445L293.44 121.286L293.58 122.082L280.203 124.393Z" fill="#1B1B43"/>
<path d="M296.187 98.9968L290.266 143.771L291.067 143.877L296.989 99.103L296.187 98.9968Z" fill="#D28572"/>
<path opacity="0.4" d="M299.821 163.994C297.525 165.538 294.824 166.169 291.607 165.726C289.336 165.412 287.467 164.496 285.94 163.127C287.176 160.641 289.74 158.936 292.7 158.936C295.989 158.936 298.796 161.046 299.821 163.991V163.994Z" fill="#FE5B52"/>
<path d="M303.368 84.7894L302.569 84.9131L303.318 89.7558L304.117 89.6322L303.368 84.7894Z" fill="#D28572"/>
<path d="M307.39 83.7122L306.622 83.9648L308.179 88.7064L308.947 88.4538L307.39 83.7122Z" fill="#D28572"/>
<path d="M312.043 82.5402L311.281 82.8115L313.039 87.7544L313.801 87.4831L312.043 82.5402Z" fill="#D28572"/>
<path d="M272.403 101.449H263.982C263.712 101.449 263.493 101.668 263.493 101.938V103.893C263.493 104.163 263.712 104.382 263.982 104.382H272.403C272.673 104.382 272.891 104.163 272.891 103.893V101.938C272.891 101.668 272.673 101.449 272.403 101.449Z" fill="#CBCBFF"/>
<path d="M254.984 95.2449C249.434 95.2449 245.589 91.8562 245.534 91.8044L246.074 91.2023C246.407 91.5001 254.305 98.4363 263.888 91.1797L264.376 91.8238C260.993 94.3872 257.772 95.2417 254.987 95.2417L254.984 95.2449Z" fill="#1B1B43"/>
<path d="M195.429 158.57C193.709 157.9 191.836 156.463 190.019 154.417L190.623 153.88C192.357 155.832 194.119 157.194 195.723 157.819L195.429 158.573V158.57Z" fill="#D28572"/>
<path d="M190.811 159.748C189.158 158.703 187.69 157 186.328 154.547L187.036 154.155C188.333 156.489 189.708 158.098 191.244 159.068L190.811 159.751V159.748Z" fill="#D28572"/>
<path d="M187.554 161.25C185.581 159.781 183.761 157.725 181.998 154.974L182.677 154.537C184.388 157.207 186.141 159.191 188.036 160.599L187.554 161.25Z" fill="#D28572"/>
<path d="M246.75 67.9141H263.17V81.7831C263.17 86.3176 259.493 90.0009 254.958 90.0009C250.427 90.0009 246.747 86.3209 246.747 81.7831V67.9141H246.75Z" fill="#FFBC96"/>
<path d="M246.747 69.3193C251.825 77.8576 257.271 78.5567 263.186 69.3873L246.747 69.3193Z" fill="#D28572"/>
<path d="M243.571 42.2188H266.348V61.4477C266.348 67.7397 261.245 72.8471 254.958 72.8471C248.671 72.8471 243.567 67.7397 243.567 61.4477V42.2188H243.571Z" fill="#FFBC96"/>
<path d="M254.745 61.7355C253.412 60.4765 252.911 59.4828 253.215 58.6931C253.503 57.9357 254.431 57.6962 254.977 57.6185L254.948 55.1328L255.757 55.123L255.796 58.3824L255.398 58.3921C255.003 58.405 254.133 58.5636 253.972 58.9811C253.894 59.1818 253.875 59.7903 255.304 61.1432L254.748 61.7323L254.745 61.7355Z" fill="#1B1B43"/>
<path d="M259.007 64.2154C259.509 63.4516 259.751 62.7881 259.751 62.7881C256.992 63.0179 251.148 63.0179 251.148 63.0179C251.148 63.0179 251.317 63.7008 251.802 64.4582C253.548 64.5294 256.41 64.5618 259.007 64.2154Z" fill="white"/>
<path d="M251.802 64.4615C252.397 65.3937 253.474 66.4456 255.317 66.5038C257.099 66.5621 258.309 65.2901 259.007 64.2188C256.41 64.5683 253.548 64.5327 251.802 64.4615Z" fill="#1B1B43"/>
<path d="M266.219 54.3173C266.229 54.7543 266.623 45.2159 251.766 43.1898C251.766 43.1898 243.377 47.9929 244.337 54.9226L239.781 54.0616C238.021 49.2585 238.626 36.4122 248.936 37.325C248.936 37.325 251.158 34.1466 254.796 34.0883C273.292 33.7841 270.372 54.3109 269.925 54.8999L266.216 54.3173H266.219Z" fill="#1B1B43"/>
<path d="M272.08 58.7238C272.951 56.0823 271.882 53.3555 269.694 52.6334C267.506 51.9112 265.026 53.4672 264.156 56.1087C263.286 58.7502 264.354 61.477 266.542 62.1991C268.73 62.9213 271.21 61.3653 272.08 58.7238Z" fill="#FFBC96"/>
<path d="M267.539 58.8619L266.737 58.7616C266.876 57.6449 267.678 55.5055 269.709 55.3857L269.758 56.1949C267.882 56.3049 267.546 58.8392 267.543 58.8651L267.539 58.8619Z" fill="#1B1B43"/>
<path d="M237.756 58.7318C238.626 61.3729 241.107 62.9297 243.296 62.2079C245.485 61.4862 246.553 58.7577 245.683 56.1166C244.813 53.4755 242.332 51.9186 240.143 52.6404C237.953 53.3622 236.886 56.0907 237.756 58.7318Z" fill="#FFBC96"/>
<path d="M242.306 58.8612C242.293 58.7577 241.957 56.301 240.091 56.191L240.139 55.3818C242.17 55.5016 242.972 57.6443 243.111 58.7577L242.309 58.858L242.306 58.8612Z" fill="#1B1B43"/>
<path d="M260.834 52.7571C260.834 53.4853 260.284 54.0776 259.609 54.0776C258.933 54.0776 258.383 53.4853 258.383 52.7571C258.383 52.0288 258.933 51.4365 259.609 51.4365C260.284 51.4365 260.834 52.0288 260.834 52.7571Z" fill="#1B1B43"/>
<path d="M261.986 48.3731L258.197 47.917C257.839 47.8738 257.514 48.1295 257.471 48.488L257.449 48.6712C257.406 49.0297 257.661 49.3552 258.019 49.3984L261.808 49.8546C262.166 49.8977 262.492 49.642 262.535 49.2835L262.557 49.1004C262.6 48.7419 262.345 48.4163 261.986 48.3731Z" fill="#1B1B43"/>
<path d="M249.011 52.7571C249.011 53.4853 249.561 54.0776 250.236 54.0776C250.912 54.0776 251.462 53.4853 251.462 52.7571C251.462 52.0288 250.912 51.4365 250.236 51.4365C249.561 51.4365 249.011 52.0288 249.011 52.7571Z" fill="#1B1B43"/>
<path d="M248.041 49.8556L251.83 49.3994C252.188 49.3563 252.444 49.0307 252.4 48.6722L252.378 48.489C252.335 48.1305 252.01 47.8748 251.652 47.918L247.863 48.3742C247.505 48.4173 247.249 48.7429 247.292 49.1014L247.314 49.2845C247.358 49.643 247.683 49.8987 248.041 49.8556Z" fill="#1B1B43"/>
<path opacity="0.4" d="M261.898 60.6223C263.359 60.6223 264.544 59.4369 264.544 57.9747C264.544 56.5125 263.359 55.3271 261.898 55.3271C260.437 55.3271 259.253 56.5125 259.253 57.9747C259.253 59.4369 260.437 60.6223 261.898 60.6223Z" fill="#FE5B52"/>
<path opacity="0.4" d="M247.946 60.6223C249.407 60.6223 250.592 59.4369 250.592 57.9747C250.592 56.5125 249.407 55.3271 247.946 55.3271C246.485 55.3271 245.301 56.5125 245.301 57.9747C245.301 59.4369 246.485 60.6223 247.946 60.6223Z" fill="#FE5B52"/>
<path d="M180.267 101.841H101.317C99.0681 101.841 97.2451 103.665 97.2451 105.916V138.405C97.2451 140.656 99.0681 142.48 101.317 142.48H180.267C182.516 142.48 184.339 140.656 184.339 138.405V105.916C184.339 103.665 182.516 101.841 180.267 101.841Z" fill="white"/>
<path d="M180.267 142.872H101.317C98.8593 142.872 96.8574 140.869 96.8574 138.409V105.919C96.8574 103.46 98.8593 101.456 101.317 101.456H180.267C182.725 101.456 184.727 103.46 184.727 105.919V138.409C184.727 140.869 182.725 142.872 180.267 142.872ZM101.317 102.233C99.2862 102.233 97.6336 103.887 97.6336 105.919V138.409C97.6336 140.441 99.2862 142.095 101.317 142.095H180.267C182.298 142.095 183.951 140.441 183.951 138.409V105.919C183.951 103.887 182.298 102.233 180.267 102.233H101.317Z" fill="#5254CF"/>
<path d="M174.646 111.846H106.935V112.655H174.646V111.846Z" fill="#E0E0FF"/>
<path d="M174.646 121.756H106.935V122.565H174.646V121.756Z" fill="#E0E0FF"/>
<path d="M174.646 131.67H106.935V132.479H174.646V131.67Z" fill="#E0E0FF"/>
<path d="M108.066 132.551L107.433 132.049L112.261 125.958L120.569 128.796L127.72 121.025L134.993 126.89L143.531 117.325L151.277 126.268L158.195 108.347L165.371 119.633L173.715 107.593L174.381 108.052L165.342 121.096L158.372 110.134L151.545 127.815L143.522 118.549L135.084 128L127.801 122.132L120.806 129.735L112.539 126.909L108.066 132.551Z" fill="#5254CF"/>
<path d="M326.353 32.198L322.456 0.650391C306.752 2.5762 294.585 15.9597 294.585 32.198C294.585 49.7568 308.808 63.9916 326.353 63.9916C343.898 63.9916 358.121 49.7568 358.121 32.198C358.121 31.2691 358.073 30.3499 357.995 29.4404L326.353 32.198Z" fill="white"/>
<path d="M326.353 64.3959C308.614 64.3959 294.181 49.9507 294.181 32.1977C294.181 15.9562 306.315 2.21986 322.408 0.248745L322.809 0.200195L326.709 31.7607L358.367 29.0031L358.403 29.4077C358.49 30.4111 358.532 31.3238 358.532 32.1977C358.532 49.9507 344.099 64.3959 326.36 64.3959H326.353ZM322.107 1.10322C306.619 3.2038 294.992 16.5 294.992 32.1977C294.992 49.5073 309.064 63.5867 326.356 63.5867C343.649 63.5867 357.72 49.504 357.72 32.1977C357.72 31.463 357.691 30.7024 357.627 29.8802L326.001 32.6346L322.107 1.10322Z" fill="#5254CF"/>
<path d="M342.928 25.7247L374.57 22.9671C374.059 17.0343 371.924 11.5676 368.606 7.01367L342.928 25.7247Z" fill="#9192FF"/>
<path d="M352.036 13.4901C346.259 5.56028 336.91 0.404297 326.357 0.404297C325.038 0.404297 323.737 0.494923 322.46 0.650282L326.357 32.1979L352.036 13.4868V13.4901Z" fill="#E0E0FF"/>
<path d="M326.036 32.9296L322.007 0.297772L322.408 0.249222C323.779 0.0809162 325.069 0 326.353 0C336.592 0 346.314 4.95207 352.359 13.2508L352.598 13.5777L326.036 32.9296ZM322.906 1.0066L326.67 31.4667L351.466 13.3997C345.557 5.50554 336.201 0.805925 326.353 0.805925C325.228 0.805925 324.096 0.870658 322.906 1.00336V1.0066Z" fill="#5254CF"/>
<path d="M406.08 122.941H348.044C345.274 122.941 343.028 125.189 343.028 127.961V191.681C343.028 194.454 345.274 196.701 348.044 196.701H406.08C408.85 196.701 411.096 194.454 411.096 191.681V127.961C411.096 125.189 408.85 122.941 406.08 122.941Z" fill="white"/>
<path d="M406.08 197.089H348.048C345.069 197.089 342.644 194.662 342.644 191.681V127.961C342.644 124.98 345.069 122.553 348.048 122.553H406.08C409.058 122.553 411.484 124.98 411.484 127.961V191.681C411.484 194.662 409.058 197.089 406.08 197.089ZM348.048 123.33C345.496 123.33 343.42 125.407 343.42 127.961V191.681C343.42 194.235 345.496 196.313 348.048 196.313H406.08C408.632 196.313 410.708 194.235 410.708 191.681V127.961C410.708 125.407 408.632 123.33 406.08 123.33H348.048Z" fill="#5254CF"/>
<path d="M403.341 133.502H350.787V134.353H403.341V133.502Z" fill="#E0E0FF"/>
<path d="M403.341 146.448H350.787V147.299H403.341V146.448Z" fill="#E0E0FF"/>
<path d="M403.341 159.396H350.787V160.247H403.341V159.396Z" fill="#E0E0FF"/>
<path d="M403.341 172.342H350.787V173.193H403.341V172.342Z" fill="#E0E0FF"/>
<path d="M403.341 185.288H350.787V186.139H403.341V185.288Z" fill="#E0E0FF"/>
<path d="M355.263 150.903H350.787V186.141H355.263V150.903Z" fill="#CBCBFF"/>
<path d="M364.995 163.998H360.519V186.143H364.995V163.998Z" fill="#E0E0FF"/>
<path d="M374.726 155.861H370.25V186.14H374.726V155.861Z" fill="#CBCBFF"/>
<path d="M384.457 150.395H379.981V186.14H384.457V150.395Z" fill="#E0E0FF"/>
<path d="M394.188 143.795H389.712V186.14H394.188V143.795Z" fill="#CBCBFF"/>
<path d="M403.919 136.769H399.443V186.14H403.919V136.769Z" fill="#E0E0FF"/>
<path d="M212.795 5.05859H173.155C170.552 5.05859 168.443 7.16889 168.443 9.77439V25.8346C168.443 28.4401 170.552 30.5504 173.155 30.5504H200.225L210.632 39.4512V30.5504H212.792C215.396 30.5504 217.504 28.4401 217.504 25.8346V9.77439C217.504 7.16889 215.396 5.05859 212.792 5.05859H212.795Z" fill="white"/>
<path d="M211.059 40.3706L200.069 30.9714H173.155C170.322 30.9714 168.02 28.6669 168.02 25.8316V9.77456C168.02 6.93926 170.322 4.63477 173.155 4.63477H212.795C215.628 4.63477 217.931 6.93926 217.931 9.77456V25.8348C217.931 28.6701 215.628 30.9746 212.795 30.9746H211.059V40.3738V40.3706ZM173.155 5.48277C170.791 5.48277 168.87 7.40857 168.87 9.77132V25.8316C168.87 28.1976 170.794 30.1201 173.155 30.1201H200.383L210.208 38.5225V30.1201H212.795C215.159 30.1201 217.08 28.1943 217.08 25.8316V9.77456C217.08 7.40857 215.156 5.486 212.795 5.486H173.155V5.48277Z" fill="#5254CF"/>
<path d="M206.185 11.5322H174.452V12.3414H206.185V11.5322Z" fill="#9192FF"/>
<path d="M210.431 16.9961H174.452V17.8053H210.431V16.9961Z" fill="#9192FF"/>
<path d="M199.717 22.4561H174.452V23.2652H199.717V22.4561Z" fill="#9192FF"/>
<path d="M202.224 280.009H190.904V417.566H202.224V280.009Z" fill="#B0B0D2"/>
<path d="M317.437 280.009H306.118V417.566H317.437V280.009Z" fill="#B0B0D2"/>
<path opacity="0.3" d="M202.224 279.634H190.904V303.879H202.224V279.634Z" fill="#1B1B43"/>
<path opacity="0.3" d="M317.437 279.634H306.118V303.879H317.437V279.634Z" fill="#1B1B43"/>
<path d="M381.281 275.319H127.063V286.719H381.281V275.319Z" fill="#B0B0D2"/>
<path d="M351.381 271.425H321.941V275.331H351.381V271.425Z" fill="#1B1B43"/>
<path d="M326.298 275.331H321.942L304.591 229.517C304.086 228.183 305.07 226.756 306.496 226.756C307.343 226.756 308.1 227.28 308.401 228.07L326.298 275.328V275.331Z" fill="#1B1B43"/>
<path d="M163.667 275.331H193.106V271.424H163.667V275.331Z" fill="#1B1B43"/>
<path d="M188.754 275.331H193.11L210.461 229.517C210.966 228.183 209.982 226.756 208.556 226.756C207.709 226.756 206.952 227.28 206.651 228.07L188.754 275.328V275.331Z" fill="#1B1B43"/>
<path d="M105.793 222.581L121.853 225.167L122.031 216.36L122.199 207.592L122.348 200.096L117.895 197.992L110.262 206.942L105.793 222.581Z" fill="#D28572"/>
<path d="M115.47 207.502C115.47 207.502 117.407 211.574 122.032 216.361L122.2 207.593L115.47 207.502Z" fill="#925D4F"/>
<path d="M133.324 196.662C133.512 196.766 138.408 204.275 136.209 204.954C134.007 205.634 131.229 205.372 131.229 205.372L133.324 196.662Z" fill="#925D4F"/>
<path d="M134.938 190.273L132.91 208.933C132.739 210.515 131.701 211.871 130.216 212.448C129.181 212.852 128.027 212.833 127.005 212.399L115.466 207.499L113.91 196.98L123.253 187.186L134.938 190.273Z" fill="#D28572"/>
<path d="M107.177 212.341L101.653 224.611L123.079 227.984L124.56 218.41L107.177 212.341Z" fill="#FED3D1"/>
<path d="M121.252 196.957C121.252 196.957 130.724 195.358 134.938 190.276C134.938 190.276 136.5 180.45 122.057 179.149C106.388 177.737 91.6924 199.928 91.6924 199.928L110.835 216.661L121.249 196.96L121.252 196.957Z" fill="#1B1B43"/>
<path d="M117.727 199.3C118.804 201.397 120.98 202.426 122.591 201.601C124.198 200.772 124.628 198.403 123.552 196.306C122.475 194.208 120.298 193.179 118.687 194.005C117.08 194.833 116.65 197.202 117.727 199.3Z" fill="#D28572"/>
<path d="M121.297 199.316C121.233 198.87 120.909 197.601 120.217 197.128C119.952 196.947 119.654 196.895 119.312 196.973L119.134 196.183C119.703 196.054 120.224 196.148 120.676 196.462C121.802 197.235 122.086 199.119 122.096 199.2L121.297 199.316Z" fill="#1B1B43"/>
<path opacity="0.3" d="M128.114 204.773C129.845 204.773 131.248 203.368 131.248 201.636C131.248 199.904 129.845 198.5 128.114 198.5C126.384 198.5 124.98 199.904 124.98 201.636C124.98 203.368 126.384 204.773 128.114 204.773Z" fill="#BE443D"/>
<path d="M130.068 252.128C128.813 256.783 125.55 260.77 120.915 262.69C120.64 262.803 120.365 262.907 120.084 263.013C119.809 263.11 119.544 263.214 119.275 263.314C110.634 266.713 103.865 273.833 101.165 282.75C101.009 283.268 100.88 283.76 100.777 284.223C100.777 284.223 82.7886 286.851 64.5938 276.74C64.5938 276.74 74.6194 241.143 96.7501 224.209C101.866 220.293 108.587 219.16 114.732 221.112C117.426 221.969 119.938 223.241 122.202 224.866C124.456 226.501 126.465 228.482 128.127 230.767L128.525 231.317L130.482 245.607C130.789 247.833 130.627 250.051 130.068 252.135V252.128Z" fill="#FE5B52"/>
<path d="M130.067 252.128C128.813 256.783 125.549 260.77 120.915 262.69C120.64 262.803 120.365 262.907 120.084 263.013C119.809 263.11 119.544 263.214 119.275 263.314C116.478 256.446 114.182 245.522 114.182 245.522L127.661 247.312L130.071 252.135L130.067 252.128Z" fill="#BE443D"/>
<path d="M159.191 236.883C159.191 236.883 171.027 224.218 174.753 225.151C176.37 225.555 171.519 230.614 171.519 230.614C171.519 230.614 176.147 230.705 183.563 226.869C184.374 226.452 185.374 226.808 185.723 227.653C185.943 228.183 185.856 228.789 185.497 229.235C183.928 231.184 179.248 236.421 172.732 238.706L169.967 242.282L163.03 245.584L159.188 236.883H159.191Z" fill="#D28572"/>
<path d="M169.97 242.283L154.485 269.908C152.561 273.329 148.949 275.458 145.016 275.458C143.441 275.458 141.905 275.112 140.504 274.471C139.104 273.83 137.843 272.892 136.808 271.694L114.176 245.519L128.519 231.311L144.227 252.867L159.184 236.884L169.96 242.28L169.97 242.283Z" fill="#FE5B52"/>
<path d="M148.644 260.871C139.562 246.682 127.499 229.883 121.031 224.345L121.555 223.73C129.023 230.12 142.525 249.808 149.326 260.434L148.644 260.871Z" fill="#1B1B43"/>
<path d="M145.423 276.222C143.77 276.222 142.043 275.759 140.316 274.827C135.361 272.15 114.744 246.849 113.871 245.775L114.499 245.263C114.712 245.526 135.889 271.513 140.701 274.115C146.176 277.073 149.892 274.383 151.619 272.516C154.371 269.541 169.465 242.36 169.617 242.085L170.325 242.477C169.701 243.6 155.031 270.017 152.214 273.066C150.28 275.157 147.936 276.222 145.426 276.222H145.423Z" fill="#1B1B43"/>
<path d="M119.977 385.634L106.035 413.152L109.082 413.582L114.137 406.4L129.983 417.596L139.275 417.557C139.275 417.557 141.16 415.686 136.335 410.663C130.659 404.759 127.416 397.02 127.564 388.945L127.577 388.249L123.777 384.368L119.98 385.634H119.977Z" fill="#1B1B43"/>
<path d="M120.563 394.233L117.487 417.546H120.563L124.563 409.723L139.33 417.245H151.018C151.018 417.245 152.622 415.125 147.141 410.833C140.695 405.784 136.397 398.58 135.414 390.559L135.33 389.866L131.022 386.559L120.563 394.229V394.233Z" fill="#393A8F"/>
<path d="M136.956 397.097L158.596 320.939C160.342 314.799 157.415 308.294 151.668 305.526L132.18 296.146L131.019 386.562L136.956 397.097Z" fill="#1B1B43"/>
<path d="M64.5937 276.736L60.2342 297.506C57.689 309.634 66.9352 321.036 79.3217 321.036H120.113C116.032 340.993 118.684 368.447 120.113 396.693L136.956 397.098L148.576 324.496C150.52 312.352 143.673 300.509 132.183 296.146L100.776 284.219L64.5937 276.736Z" fill="#5254CF"/>
<path opacity="0.4" d="M132.102 397.149L131.3 397.046C131.387 396.363 140.158 328.458 137.771 315.987C135.307 303.105 110.489 299.386 97.158 297.386C95.9711 297.208 94.8812 297.046 93.9078 296.891C90.567 296.36 88.1932 294.917 86.8446 292.602C84.1894 288.039 86.4856 281.779 86.5826 281.514L87.3394 281.798C87.3167 281.86 85.082 287.968 87.5431 292.198C88.7624 294.289 90.9454 295.6 94.0307 296.092C95.0009 296.247 96.0908 296.409 97.2744 296.587C110.806 298.613 135.99 302.39 138.564 315.835C139.576 321.13 138.797 336.427 136.245 361.3C134.347 379.804 132.122 396.978 132.099 397.149H132.102Z" fill="white"/>
<path d="M73.8595 324.322L71.0717 340.457L57.7215 417.677H52.1104L65.4606 340.457L68.2484 324.322H73.8595Z" fill="#B0B0D2"/>
<path d="M111.051 417.677H105.44L92.0928 340.457L89.3018 324.322H94.9129L97.7039 340.457L111.051 417.677Z" fill="#B0B0D2"/>
<path opacity="0.3" d="M73.8598 324.322L71.0721 340.457H65.4609L68.2487 324.322H73.8598Z" fill="#1B1B43"/>
<path opacity="0.3" d="M97.7039 340.457H92.0928L89.3018 324.322H94.9129L97.7039 340.457Z" fill="#1B1B43"/>
<path d="M106.366 328.724H53.8574V321.037H106.366C108.487 321.037 110.205 322.759 110.205 324.882C110.205 327.005 108.484 328.727 106.366 328.727V328.724Z" fill="#CBCBFF"/>
<path d="M61.2694 328.724H53.8569L28.822 267.312C28.1234 265.603 28.8867 263.645 30.5555 262.858C32.3568 262.01 34.501 262.845 35.2513 264.694L61.2662 328.727L61.2694 328.724Z" fill="#CBCBFF"/>
<path d="M402.322 196.132C402.132 196.229 396.938 203.473 399.095 204.246C401.252 205.016 404.024 204.877 404.024 204.877L402.319 196.132H402.322Z" fill="#D28572"/>
<path d="M428.551 223.086L411.255 225.135L411.575 216.36L411.898 207.625L412.177 200.158L417.054 198.206L424.683 207.366L428.551 223.086Z" fill="#FFBC96"/>
<path d="M419.091 207.754C419.091 207.754 416.785 211.745 411.575 216.361L411.902 207.625L419.094 207.754H419.091Z" fill="#D28572"/>
<path d="M400.996 189.716L402.199 208.346C402.303 209.926 403.273 211.317 404.722 211.958C405.734 212.405 406.879 212.437 407.914 212.049L419.595 207.683L421.6 197.296L412.742 187.159L400.996 189.719V189.716Z" fill="#FFBC96"/>
<path d="M414.515 197.287C414.515 197.287 411.646 191.714 408.658 190.862C408.658 190.862 397.157 194.614 394.625 185.787C394.625 185.787 401.106 185.849 406.659 181.958C412.212 178.068 418.007 179.935 422.018 183.567C422.018 183.567 435.122 184.214 424.789 207.356C424.789 207.356 422.192 208.217 415.579 198.973L414.511 197.29L414.515 197.287Z" fill="#1B1B43"/>
<path d="M417.736 199.194C416.575 201.233 414.376 202.165 412.827 201.281C411.278 200.398 410.964 198.029 412.128 195.99C413.293 193.95 415.488 193.018 417.038 193.902C418.587 194.785 418.9 197.155 417.736 199.194Z" fill="#FFBC96"/>
<path opacity="0.4" d="M407.761 203.913C409.519 203.913 410.944 202.464 410.944 200.676C410.944 198.889 409.519 197.439 407.761 197.439C406.004 197.439 404.579 198.889 404.579 200.676C404.579 202.464 406.004 203.913 407.761 203.913Z" fill="#FE5B52"/>
<path d="M413.981 199.015C413.823 197.967 414.114 195.814 416.342 195.177L416.565 195.954C414.454 196.556 414.767 198.799 414.783 198.892L413.985 199.012L413.981 199.015Z" fill="#1B1B43"/>
<path d="M411.255 225.136L411.449 216.115L426.678 212.205L431.125 223.397L411.255 225.136Z" fill="#CBCBFF"/>
<path d="M413.605 221.51C405.963 228.954 400.401 240.12 393.392 251.449C393.392 251.449 369.641 257.585 362.837 264.395L375.065 270.6L416.839 259.003L413.605 221.513V221.51Z" fill="#1B1B43"/>
<path d="M351.848 390.446L342.32 417.517L312.512 410.073C312.512 410.073 317.149 403.726 331.14 405.552L338.578 384.63L351.851 390.446H351.848Z" fill="#1B1B43"/>
<path d="M411.449 283.41L368.394 297.415C358.284 300.704 350.564 308.947 347.938 319.253L330.594 391.029L354.041 397.097C363.232 375.292 372.161 349.269 378.296 324.004L411.446 283.41H411.449Z" fill="#393A8F"/>
<path d="M395.819 392.498L399.321 417.582H366.712C366.712 417.582 369.678 410.3 383.691 408.681L382.882 393.576L395.819 392.498Z" fill="#1B1B43"/>
<path d="M450.48 276.261L454.84 297.03C457.385 309.158 448.291 321.237 435.908 321.237H396.695C398.897 341.402 401.022 367.971 399.592 396.217L378.118 396.622L366.498 324.021C364.554 311.877 371.401 300.034 382.892 295.671L411.448 283.411L450.48 276.261Z" fill="#5254CF"/>
<path d="M451.875 283.007C448.343 249.245 443.291 217.39 417.881 218.853C416.374 218.941 414.958 219.617 413.891 220.685C409.518 225.061 407.283 231.133 407.775 237.299L411.449 283.411C411.449 283.411 431.258 287.053 451.875 283.007Z" fill="#1B1B43"/>
<path d="M362.837 264.091C362.837 264.091 347.88 266.923 345.454 275.419H366.676L370.719 272.587L362.837 264.091Z" fill="#FFBC96"/>
<path d="M418.021 226.265L398.616 256.404L362.841 264.091L366.68 275.42L396.676 275.267C404.728 275.109 411.62 270.895 416.099 264.195L432.774 240.224L418.021 226.268V226.265Z" fill="#1B1B43"/>
<path d="M362.921 264.489L362.75 263.7L398.305 256.061C399.253 253.384 400.194 250.614 401.103 247.931C404.838 236.929 408.367 226.536 412.742 220.859L413.383 221.355C409.091 226.925 405.582 237.253 401.869 248.19C400.935 250.944 399.968 253.795 398.991 256.54L398.917 256.754L398.697 256.802L362.921 264.489Z" fill="#5254CF"/>
<path d="M384.279 275.983C375.958 275.983 367.32 275.837 366.67 275.824L366.683 275.015C366.974 275.022 395.883 275.51 399.434 274.721L399.544 274.698C408.121 272.788 415.239 266.778 418.59 258.621L422.597 248.866L423.344 249.174L419.337 258.929C415.886 267.328 408.554 273.517 399.719 275.488L399.612 275.51C397.953 275.879 391.226 275.983 384.279 275.983Z" fill="#5254CF"/>
<path d="M459.121 417.674H464.736L448.595 324.322H442.983L459.121 417.674Z" fill="#B0B0D2"/>
<path d="M411.403 417.674H405.792L421.93 324.322H427.544L411.403 417.674Z" fill="#B0B0D2"/>
<path opacity="0.3" d="M427.532 324.322L424.744 340.457H419.133L421.921 324.322H427.532Z" fill="#1B1B43"/>
<path opacity="0.3" d="M451.377 340.457H445.766L442.975 324.322H448.586L451.377 340.457Z" fill="#1B1B43"/>
<path d="M410.481 328.724H462.99V321.037H410.481C408.36 321.037 406.643 322.759 406.643 324.882C406.643 327.005 408.363 328.727 410.481 328.727V328.724Z" fill="#CBCBFF"/>
<path d="M455.577 328.724H462.99L488.025 267.312C488.723 265.603 487.96 263.645 486.291 262.858C484.49 262.01 482.346 262.845 481.595 264.694L455.58 328.727L455.577 328.724Z" fill="#CBCBFF"/>
<path d="M515 417.19H0V418H515V417.19Z" fill="#1B1B43"/>
</svg>
