<svg width="577" height="535" viewBox="0 0 577 535" fill="none" xmlns="http://www.w3.org/2000/svg">
<g clip-path="url(#clip0_1060_10442)">
<path d="M461.501 1.44367L481.967 59.0787C482.396 60.2907 483.782 60.8636 484.937 60.3127L540.107 34.0569C541.944 33.1754 543.87 35.1036 542.989 36.9436L516.769 92.1877C516.219 93.3446 516.791 94.7329 518.002 95.1626L575.558 115.656C577.484 116.339 577.484 119.061 575.558 119.744L518.002 140.237C516.791 140.667 516.219 142.055 516.769 143.212L542.989 198.456C543.87 200.296 541.944 202.224 540.107 201.343L484.937 175.087C483.782 174.536 482.396 175.109 481.967 176.321L461.501 233.956C460.819 235.884 458.101 235.884 457.419 233.956L436.953 176.321C436.524 175.109 435.138 174.536 433.982 175.087L378.813 201.343C376.975 202.224 375.05 200.296 375.93 198.456L402.15 143.212C402.701 142.055 402.128 140.667 400.918 140.237L343.361 119.744C341.436 119.061 341.436 116.339 343.361 115.656L400.918 95.1626C402.128 94.7329 402.701 93.3446 402.15 92.1877L375.93 36.9436C375.05 35.1036 376.975 33.1754 378.813 34.0569L433.982 60.3127C435.138 60.8636 436.524 60.2907 436.953 59.0787L457.419 1.44367C458.101 -0.484478 460.819 -0.484478 461.501 1.44367Z" fill="#572FAC"/>
<path opacity="0.1" d="M124.609 135.455L145.075 193.09C145.504 194.302 146.89 194.875 148.046 194.324L203.215 168.069C205.053 167.187 206.978 169.115 206.098 170.955L179.878 226.199C179.327 227.356 179.9 228.745 181.11 229.174L238.667 249.668C240.592 250.351 240.592 253.072 238.667 253.755L181.11 274.249C179.9 274.679 179.327 276.067 179.878 277.224L206.098 332.468C206.978 334.308 205.053 336.236 203.215 335.355L148.046 309.099C146.89 308.548 145.504 309.121 145.075 310.333L124.609 367.968C123.927 369.896 121.209 369.896 120.527 367.968L100.062 310.333C99.6324 309.121 98.246 308.548 97.0907 309.099L41.9214 335.355C40.0839 336.236 38.1583 334.308 39.0386 332.468L65.2589 277.224C65.809 276.067 65.2368 274.679 64.0265 274.249L6.46954 253.755C4.54401 253.072 4.54401 250.351 6.46954 249.668L64.0265 229.174C65.2368 228.745 65.809 227.356 65.2589 226.199L39.0386 170.955C38.1583 169.115 40.0839 167.187 41.9214 168.069L97.0907 194.324C98.246 194.875 99.6324 194.302 100.062 193.09L120.527 135.455C121.209 133.527 123.927 133.527 124.609 135.455Z" fill="#F5F0E8"/>
<path opacity="0.1" d="M448.242 292.472L467.233 345.943C467.629 347.067 468.917 347.595 469.984 347.089L521.17 322.728C522.876 321.912 524.658 323.697 523.844 325.405L499.516 376.661C499.01 377.741 499.538 379.019 500.66 379.415L554.058 398.432C555.841 399.071 555.841 401.594 554.058 402.223L500.66 421.24C499.538 421.636 499.01 422.925 499.516 423.994L523.844 475.25C524.658 476.957 522.876 478.742 521.17 477.927L469.984 453.566C468.906 453.059 467.629 453.588 467.233 454.712L448.242 508.182C447.604 509.967 445.084 509.967 444.457 508.182L425.466 454.712C425.07 453.588 423.782 453.059 422.715 453.566L371.529 477.927C369.823 478.742 368.041 476.957 368.855 475.25L393.183 423.994C393.689 422.914 393.161 421.636 392.038 421.24L338.641 402.223C336.858 401.583 336.858 399.06 338.641 398.432L392.038 379.415C393.161 379.019 393.689 377.73 393.183 376.661L368.855 325.405C368.041 323.697 369.823 321.912 371.529 322.728L422.715 347.089C423.793 347.595 425.07 347.067 425.466 345.943L444.457 292.472C445.095 290.688 447.615 290.688 448.242 292.472Z" fill="white"/>
<path d="M337.2 122.079L335.406 120.823C329.278 116.526 324.007 112.251 319.474 107.602L320.057 100.099C322.709 66.2183 297.424 36.5909 263.578 33.9466C234.31 31.6549 208.233 50.2973 200.014 77.3024C191.883 85.1031 186.029 95.2727 186.546 105.795C186.92 113.463 179.504 119.854 174.223 126.024C172.704 127.798 171.065 129.803 169.348 132.018C161.767 140.402 157.058 150.792 156.585 162.218C155.903 179.031 164.485 194.39 178.459 204.747C195.558 217.418 212.183 230.651 226.289 245.723C238.084 258.339 256.371 266.492 277.035 266.349C306.82 266.139 332.502 247.651 337.717 222.894C339.114 216.239 338.938 209.749 337.53 203.612C336.771 200.307 337.981 196.991 340.699 194.567C341.447 193.906 342.173 193.212 342.866 192.495L347.389 187.857C363.09 171.903 361.55 139.19 337.189 122.09L337.2 122.079Z" fill="#222222"/>
<path d="M285.012 162.57H217.86V234.584H285.012V162.57Z" fill="#F7997C"/>
<path d="M285.012 235.41H217.86C217.409 235.41 217.035 235.036 217.035 234.584V162.57C217.035 162.119 217.409 161.744 217.86 161.744H285.012C285.463 161.744 285.837 162.119 285.837 162.57V234.584C285.837 235.036 285.463 235.41 285.012 235.41ZM218.686 233.758H284.187V163.397H218.686V233.758Z" fill="#222222"/>
<path opacity="0.81" d="M251.508 185.642C249.825 185.51 248.174 185.279 246.546 184.981C256.427 190.964 273.052 200.043 285.013 201.321V174.768C276.045 182.403 264.173 186.634 251.508 185.642Z" fill="#222222"/>
<path d="M304.191 112.295L303.553 112.24L301.132 143.157C301.066 144.027 300.967 144.887 300.857 145.746L301.573 145.801C310.815 146.528 318.891 139.609 319.618 130.354C320.344 121.099 313.434 113.011 304.191 112.284V112.295Z" fill="#F7997C"/>
<path d="M302.893 146.694C302.43 146.694 301.968 146.671 301.506 146.638L300.78 146.583C300.56 146.561 300.34 146.451 300.208 146.275C300.065 146.099 299.999 145.867 300.032 145.647C300.142 144.809 300.241 143.961 300.307 143.102L302.728 112.185C302.75 111.965 302.849 111.767 303.014 111.623C303.179 111.48 303.399 111.414 303.619 111.425L304.257 111.48C313.94 112.24 321.202 120.746 320.442 130.431C319.716 139.664 311.992 146.694 302.904 146.694H302.893ZM301.781 144.997C310.518 145.603 318.11 139.036 318.792 130.299C319.474 121.573 312.993 113.915 304.312 113.133L301.957 143.223C301.913 143.818 301.847 144.402 301.781 144.986V144.997Z" fill="#222222"/>
<path d="M211.513 105.034L210.875 104.979C201.632 104.252 193.556 111.171 192.83 120.426C192.104 129.682 199.013 137.769 208.256 138.496L208.971 138.551C208.993 137.692 209.026 136.821 209.092 135.951L211.513 105.034Z" fill="#F7997C"/>
<path d="M208.971 139.389C208.971 139.389 208.927 139.389 208.905 139.389L208.178 139.334C198.496 138.573 191.234 130.067 191.993 120.383C192.752 110.687 201.225 103.415 210.918 104.175L211.556 104.23C212.008 104.263 212.349 104.66 212.316 105.123L209.895 136.039C209.829 136.899 209.785 137.747 209.774 138.595C209.774 138.827 209.675 139.036 209.499 139.19C209.345 139.334 209.147 139.4 208.949 139.4L208.971 139.389ZM209.543 105.773C201.302 105.773 194.293 112.141 193.643 120.504C192.961 129.241 199.464 136.91 208.167 137.67C208.189 137.075 208.222 136.491 208.266 135.896L210.621 105.806C210.258 105.784 209.906 105.773 209.543 105.773Z" fill="#222222"/>
<path d="M293.254 104.351C272.91 102.754 255.932 90.645 247.361 73.8315C240.319 87.4938 227.533 98.3135 211.59 104.032L211.513 105.045L209.092 135.962C209.026 136.832 208.982 137.703 208.971 138.562C208.421 162.912 226.972 183.725 251.509 185.642C276.057 187.57 297.601 169.897 300.846 145.757C300.956 144.897 301.055 144.038 301.121 143.168L303.542 112.251L304.169 104.252C304.169 104.252 304.169 104.164 304.169 104.131C300.604 104.55 296.962 104.649 293.243 104.351H293.254Z" fill="#F7997C"/>
<path d="M255.15 186.612C253.918 186.612 252.686 186.568 251.442 186.469C226.598 184.518 207.573 163.474 208.145 138.54C208.167 137.659 208.2 136.777 208.277 135.896L210.775 103.966C210.797 103.646 211.017 103.36 211.325 103.25C227.104 97.5975 239.647 87.0092 246.645 73.4571C246.788 73.1817 247.074 73.0054 247.382 73.0054C247.69 73.0054 247.976 73.1817 248.119 73.4571C256.933 90.7553 273.834 101.994 293.342 103.525C296.874 103.801 300.494 103.723 304.103 103.305C304.345 103.272 304.587 103.36 304.763 103.525C304.939 103.69 305.038 103.933 305.027 104.175V104.318L301.979 143.234C301.913 144.126 301.814 144.997 301.693 145.867C298.546 169.347 278.477 186.612 255.183 186.612H255.15ZM212.371 104.627L212.338 105.112L209.917 136.028C209.851 136.888 209.807 137.736 209.796 138.584C209.257 162.637 227.61 182.943 251.574 184.827C275.539 186.7 296.83 169.501 300.032 145.658C300.142 144.821 300.241 143.972 300.307 143.113L303.278 105.068C299.9 105.409 296.511 105.453 293.188 105.189C273.636 103.657 256.625 92.6394 247.36 75.6056C240.131 88.728 227.775 98.9858 212.371 104.638V104.627Z" fill="#222222"/>
<path d="M309.132 154.957C305.083 154.957 301.793 151.663 301.793 147.608C301.793 143.554 305.083 140.259 309.132 140.259C313.181 140.259 316.471 143.554 316.471 147.608C316.471 151.663 313.181 154.957 309.132 154.957ZM309.132 141.35C305.688 141.35 302.893 144.16 302.893 147.597C302.893 151.035 305.699 153.844 309.132 153.844C312.565 153.844 315.371 151.035 315.371 147.597C315.371 144.16 312.565 141.35 309.132 141.35Z" fill="white"/>
<path d="M199.948 143.564C195.899 143.564 192.609 140.27 192.609 136.215C192.609 132.161 195.899 128.866 199.948 128.866C203.998 128.866 207.287 132.161 207.287 136.215C207.287 140.27 203.998 143.564 199.948 143.564ZM199.948 129.957C196.504 129.957 193.71 132.767 193.71 136.204C193.71 139.642 196.515 142.451 199.948 142.451C203.381 142.451 206.187 139.642 206.187 136.204C206.187 132.767 203.381 129.957 199.948 129.957Z" fill="white"/>
<path d="M201.379 125.705C201.115 125.705 200.862 125.584 200.708 125.352C200.444 124.978 200.532 124.46 200.906 124.195L204.086 121.948L200.873 119.237C200.521 118.94 200.477 118.422 200.774 118.069C201.071 117.717 201.588 117.673 201.94 117.97L205.406 120.89C205.736 121.176 205.923 121.584 205.901 122.025C205.879 122.465 205.67 122.851 205.307 123.104L201.863 125.539C201.72 125.639 201.555 125.694 201.39 125.694L201.379 125.705Z" fill="#222222"/>
<path d="M310.475 134.254C310.266 134.254 310.057 134.177 309.903 134.023L306.877 131.081C306.569 130.772 306.415 130.354 306.459 129.924C306.503 129.494 306.756 129.109 307.13 128.888L311.003 126.542C311.399 126.299 311.905 126.431 312.136 126.817C312.367 127.203 312.246 127.72 311.861 127.952L308.263 130.133L311.058 132.844C311.388 133.163 311.388 133.681 311.08 134.012C310.915 134.177 310.706 134.265 310.486 134.265L310.475 134.254Z" fill="#222222"/>
<path d="M247.79 109.343C246.778 110.07 245.292 110.257 243.873 110.511C242.432 110.742 241.001 111.006 239.758 111.282C238.515 111.557 237.095 111.921 235.698 112.317C234.3 112.681 232.87 113.144 231.66 112.901C230.493 112.681 229.778 111.491 230.691 109.618C231.539 107.811 234.267 105.442 238.383 104.517C242.498 103.624 245.92 104.627 247.394 105.927C248.956 107.249 248.769 108.648 247.79 109.343Z" fill="#222222"/>
<path d="M273.988 110.455C274.857 111.359 276.277 111.811 277.63 112.317C279.006 112.802 280.37 113.32 281.536 113.827C282.714 114.323 284.034 114.94 285.343 115.59C286.653 116.207 287.973 116.912 289.205 116.901C290.394 116.901 291.318 115.854 290.757 113.849C290.251 111.91 287.995 109.089 284.122 107.436C280.238 105.806 276.695 106.18 275 107.183C273.218 108.197 273.152 109.607 273.988 110.466V110.455Z" fill="#222222"/>
<path d="M257.935 139.995C257.792 139.995 257.649 139.995 257.506 139.995L254.656 139.851C254.205 139.829 253.853 139.444 253.875 138.981C253.897 138.529 254.315 138.188 254.744 138.199L257.594 138.342C261.478 138.529 264.768 135.532 264.955 131.654C264.977 131.224 264.834 130.817 264.537 130.497C264.251 130.178 263.855 129.99 263.426 129.968C261.907 129.891 260.51 129.23 259.498 128.106C258.474 126.982 257.957 125.528 258.034 124.008L258.375 116.978C258.397 116.526 258.837 116.174 259.244 116.196C259.696 116.218 260.048 116.603 260.026 117.066L259.685 124.096C259.63 125.175 260.004 126.2 260.73 127.004C261.456 127.809 262.446 128.272 263.525 128.327C264.394 128.371 265.197 128.745 265.78 129.395C266.363 130.045 266.661 130.872 266.617 131.742C266.385 136.381 262.545 140.017 257.957 140.017L257.935 139.995Z" fill="#222222"/>
<path d="M246.084 174.227C246.084 174.227 249.077 171.682 254.05 175.153L246.084 174.227Z" fill="#F4B6B1"/>
<path d="M254.051 175.968C253.886 175.968 253.721 175.924 253.578 175.825C249.231 172.806 246.712 174.778 246.613 174.867C246.261 175.153 245.743 175.109 245.457 174.756C245.171 174.404 245.215 173.897 245.556 173.6C245.699 173.478 249.088 170.691 254.524 174.47C254.898 174.734 254.986 175.241 254.733 175.616C254.568 175.847 254.315 175.968 254.051 175.968Z" fill="#2E2E48"/>
<path d="M240.065 137.702C241.385 136.964 243.024 137.306 244.059 138.408C245.929 140.413 250.066 144.038 256.305 145.173C257.835 145.448 258.495 147.31 257.724 148.665C256.03 151.64 251.75 156.102 243.927 151.651C234.387 146.23 236.654 139.62 240.076 137.702H240.065Z" fill="#FFF9F3"/>
<path d="M250.067 154.351C248.207 154.351 246.029 153.8 243.509 152.368C237.204 148.787 236.28 144.864 236.291 142.848C236.291 140.424 237.622 138.121 239.669 136.976C241.287 136.072 243.344 136.425 244.664 137.835C246.502 139.807 250.474 143.267 256.46 144.358C257.384 144.523 258.154 145.129 258.572 146.021C259.023 147.002 258.979 148.148 258.451 149.073C257.593 150.583 254.941 154.351 250.089 154.351H250.067ZM240.461 138.419C239.295 139.069 237.942 140.623 237.931 142.848C237.92 145.702 240.186 148.566 244.312 150.924C251.64 155.089 255.403 151.035 256.988 148.247C257.252 147.784 257.274 147.189 257.054 146.704C256.944 146.473 256.691 146.065 256.141 145.977C249.693 144.809 245.413 141.074 243.443 138.959C242.64 138.099 241.419 137.879 240.461 138.408V138.419Z" fill="#222222"/>
<path d="M284.254 127.181C284.066 127.181 283.89 127.126 283.736 127.005C278.785 123.038 274.703 126.079 274.538 126.211C274.175 126.487 273.658 126.421 273.383 126.057C273.107 125.693 273.162 125.176 273.526 124.9C273.581 124.856 278.785 120.901 284.771 125.704C285.123 125.991 285.189 126.509 284.903 126.861C284.738 127.06 284.496 127.17 284.265 127.17L284.254 127.181Z" fill="#222222"/>
<path d="M243.455 123.985C243.279 123.985 243.092 123.93 242.938 123.809C237.986 119.843 233.904 122.884 233.739 123.016C233.376 123.291 232.859 123.225 232.584 122.862C232.309 122.498 232.364 121.98 232.727 121.705C232.782 121.661 237.986 117.705 243.972 122.509C244.324 122.796 244.39 123.313 244.104 123.666C243.939 123.864 243.697 123.974 243.466 123.974L243.455 123.985Z" fill="#222222"/>
<path d="M284.616 212.724C274.207 212.371 263.259 226.662 251.904 226.662C241.242 226.662 230.657 212.559 220.006 213.165C213.361 213.539 206.726 214.024 200.102 214.575C177.766 216.448 155.264 219.191 134.183 226.816C100.898 238.848 82.6773 253.832 63.741 283.999C59.4499 290.83 10.1122 363.395 10.1122 363.395C-8.72505 391.755 5.61192 428.335 39.2482 437.711L99.644 439.937L123.653 381.74L117.546 380.296L128.087 370.92V534.162H378.824V334.462C420.614 334.417 449.266 334.263 449.266 333.911C450.377 242.01 393.679 216.47 284.616 212.713V212.724Z" fill="#FFB800"/>
<path d="M378.824 535H128.087C127.636 535 127.261 534.625 127.261 534.174V372.771L119.284 379.867L123.84 380.947C124.071 381.002 124.28 381.156 124.39 381.376C124.5 381.597 124.511 381.839 124.423 382.07L100.414 440.256C100.282 440.576 99.9409 440.807 99.6218 440.763L39.226 438.538C39.16 438.538 39.094 438.527 39.039 438.504C22.4134 433.866 9.61683 422.44 3.93926 407.158C-1.50725 392.504 0.506309 376.385 9.44079 362.943C9.93592 362.216 58.8225 290.313 63.0586 283.57C82.1929 253.094 100.733 238.043 133.918 226.056C155.275 218.343 178.327 215.589 200.058 213.771C206.946 213.198 213.657 212.713 219.984 212.349C225.684 212.019 231.306 215.677 236.753 219.214C241.77 222.475 246.953 225.846 251.926 225.846C257.406 225.846 262.962 222.255 268.332 218.784C273.943 215.148 279.28 211.721 284.66 211.909C344.704 213.969 382.972 222.508 408.73 239.586C437.514 258.669 450.663 288.649 450.113 333.944C450.106 334.656 443.317 335.06 429.746 335.156C418.193 335.244 401.347 335.288 379.671 335.31V534.185C379.671 534.636 379.297 535.011 378.846 535.011L378.824 535ZM128.912 533.347H377.999V334.473C377.999 334.021 378.362 333.646 378.824 333.646C430.01 333.591 445.36 333.382 448.451 333.195C449.288 238.308 386.35 217.054 284.594 213.55C279.687 213.374 274.603 216.679 269.212 220.161C263.644 223.764 257.879 227.488 251.904 227.488C246.435 227.488 241.044 223.984 235.829 220.591C230.613 217.197 225.222 213.694 220.05 213.991C213.734 214.355 207.045 214.828 200.168 215.401C178.547 217.219 155.627 219.941 134.457 227.598C101.657 239.454 83.3373 254.328 64.434 284.44C60.1869 291.205 11.2783 363.13 10.7832 363.858C2.14576 376.859 0.198224 392.427 5.45768 406.574C10.9372 421.327 23.2936 432.367 39.3581 436.885L99.0826 439.088L122.497 382.324L117.337 381.101C117.04 381.035 116.798 380.792 116.721 380.495C116.644 380.197 116.743 379.878 116.974 379.679L127.515 370.303C127.757 370.083 128.109 370.039 128.406 370.171C128.703 370.303 128.89 370.601 128.89 370.92V533.336L128.912 533.347Z" fill="#222222"/>
<path opacity="0.81" d="M95.8261 318.717L95.6171 318.982L58.8999 366.271L96.7834 363.968L95.8261 318.717Z" fill="#765500"/>
<path d="M488.443 203.383C489.522 196.063 469.588 187.052 443.918 183.257C418.249 179.461 396.564 182.318 395.485 189.638C394.405 196.958 414.34 205.969 440.009 209.765C465.679 213.561 487.363 210.703 488.443 203.383Z" fill="#222222"/>
<path d="M461.545 212.239C454.69 212.239 447.208 211.666 439.88 210.586C416.63 207.149 393.359 198.334 394.657 189.52C395.956 180.706 420.779 178.998 444.028 182.435C456.517 184.286 468.059 187.416 476.542 191.239C482.748 194.048 489.999 198.455 489.251 203.502C488.359 209.54 476.432 212.239 461.545 212.239ZM422.308 182.38C406.838 182.38 396.924 185.487 396.297 189.751C395.417 195.756 412.812 204.901 440.122 208.945C467.432 212.988 486.731 209.264 487.622 203.259C488.084 200.163 483.793 196.329 475.871 192.748C467.531 188.98 456.142 185.895 443.797 184.066C435.875 182.898 428.635 182.38 422.308 182.38Z" fill="#222222"/>
<path d="M403.349 188.87C403.349 188.87 399.036 135.984 427.732 111.381C431.319 108.307 452.687 66.758 452.687 66.758C458.342 57.8775 463.327 54.7153 468.014 55.3323C474.814 56.2248 478.093 65.0061 475.1 72.5755L465.571 96.5726C476.552 102.864 484.486 115.975 484.486 115.975C497.656 127.07 500.605 146.209 491.384 160.763L480.954 177.224L475.375 244.897L400.653 234L403.36 188.881L403.349 188.87Z" fill="#F7997C"/>
<path d="M475.364 245.712C475.364 245.712 475.287 245.712 475.243 245.712L400.522 234.815C400.093 234.749 399.796 234.374 399.818 233.945L402.524 188.881C402.37 186.799 398.948 134.97 427.204 110.753C430.043 108.318 446.041 77.8971 451.961 66.3833C457.507 57.6791 462.788 53.8118 468.124 54.517C471.029 54.8916 473.527 56.6324 475.144 59.3979C477.378 63.1992 477.653 68.3666 475.86 72.8729L466.595 96.209C476.883 102.401 484.266 114.036 485.113 115.413C498.449 126.74 501.442 146.396 492.078 161.193L481.757 177.489L476.19 244.952C476.168 245.183 476.058 245.392 475.882 245.536C475.739 245.657 475.552 245.712 475.364 245.712ZM401.512 233.284L474.616 243.949L480.129 177.158C480.129 177.026 480.184 176.894 480.25 176.783L490.681 160.323C499.637 146.187 496.743 127.39 483.947 116.603C483.881 116.548 483.815 116.482 483.771 116.405C483.694 116.273 475.816 103.404 465.154 97.2998C464.802 97.0904 464.647 96.6607 464.802 96.2751L474.33 72.278C475.937 68.2344 475.706 63.6178 473.725 60.2463C472.361 57.9215 470.303 56.4782 467.915 56.1587C463.261 55.5527 458.519 59.1666 453.391 67.2097C451.235 71.4075 431.88 108.924 428.282 112.02C400.225 136.061 404.142 188.286 404.186 188.815C404.186 188.859 404.186 188.892 404.186 188.936L401.523 233.295L401.512 233.284Z" fill="#222222"/>
<path d="M490.285 125.561C489.371 126.178 488.535 126.894 487.743 127.665L472.614 142.396C468.851 146.065 469.126 152.533 473.593 155.298C476.674 157.205 480.8 156.885 486.687 153.282L501.145 141.251C505.436 137.681 507.108 131.588 504.666 126.564C502.696 122.509 498.636 119.986 490.285 125.572V125.561Z" fill="#F7997C"/>
<path d="M477.73 157.27C476.047 157.27 474.528 156.841 473.164 155.992C470.963 154.626 469.522 152.312 469.236 149.635C468.917 146.748 469.973 143.818 472.042 141.79L487.171 127.059C488.106 126.156 488.975 125.428 489.823 124.856C494.081 122.002 497.679 120.955 500.528 121.726C502.597 122.288 504.236 123.787 505.403 126.167C507.922 131.356 506.349 137.956 501.673 141.856L487.215 153.888C487.215 153.888 487.149 153.932 487.116 153.954C483.529 156.147 480.426 157.237 477.73 157.237V157.27ZM490.736 126.255C489.955 126.773 489.184 127.412 488.315 128.26L473.186 142.991C471.469 144.655 470.611 147.079 470.864 149.47C471.106 151.662 472.229 153.48 474.022 154.593C477.004 156.433 480.987 155.783 486.202 152.61L500.605 140.611C504.71 137.196 506.107 131.433 503.906 126.916C502.971 124.977 501.684 123.776 500.088 123.346C497.723 122.707 494.576 123.677 490.736 126.255Z" fill="#222222"/>
<path d="M478.764 112.692C477.851 113.309 477.015 114.025 476.222 114.796L461.093 129.527C457.33 133.185 457.605 139.664 462.072 142.418C465.153 144.324 469.279 144.005 475.166 140.402L489.624 128.37C493.915 124.8 495.588 118.707 493.145 113.683C491.176 109.629 487.115 107.105 478.764 112.692Z" fill="#F7997C"/>
<path d="M466.21 144.401C464.526 144.401 463.008 143.972 461.643 143.123C459.443 141.757 458.001 139.443 457.715 136.766C457.396 133.879 458.453 130.948 460.521 128.932L475.65 114.201C476.575 113.298 477.444 112.581 478.302 111.997C482.56 109.155 486.158 108.097 489.008 108.868C491.077 109.43 492.716 110.929 493.882 113.309C496.402 118.498 494.829 125.098 490.152 128.998L475.694 141.03C475.694 141.03 475.628 141.074 475.595 141.096C472.008 143.289 468.905 144.39 466.21 144.39V144.401ZM479.215 113.386C478.445 113.904 477.653 114.565 476.795 115.391L461.665 130.122C459.949 131.786 459.091 134.21 459.344 136.601C459.586 138.793 460.708 140.611 462.502 141.724C465.483 143.575 469.467 142.914 474.682 139.741L489.085 127.742C493.189 124.327 494.587 118.564 492.386 114.047C491.451 112.108 490.163 110.907 488.568 110.477C486.191 109.827 483.044 110.808 479.215 113.386Z" fill="#222222"/>
<path d="M469.159 94.0718C468.19 94.7219 467.299 95.4931 466.452 96.3085L450.354 111.987C446.349 115.887 446.646 122.774 451.4 125.715C454.679 127.743 459.069 127.401 465.329 123.567L480.712 110.764C485.278 106.963 487.06 100.484 484.453 95.1295C482.362 90.8105 478.038 88.1331 469.159 94.0718Z" fill="#F7997C"/>
<path d="M455.801 127.753C454.018 127.753 452.412 127.302 450.97 126.409C448.638 124.966 447.119 122.52 446.811 119.688C446.481 116.625 447.592 113.529 449.782 111.392L465.879 95.7132C466.881 94.7326 467.783 93.9944 468.696 93.3774C473.208 90.3585 477.026 89.2346 480.04 90.061C482.23 90.656 483.969 92.2315 485.19 94.7546C487.864 100.253 486.191 107.249 481.229 111.381L465.846 124.184C465.846 124.184 465.78 124.228 465.747 124.25C461.94 126.586 458.639 127.742 455.79 127.742L455.801 127.753ZM469.621 94.7546C468.784 95.3166 467.97 95.9887 467.035 96.9032L450.937 112.571C449.1 114.356 448.176 116.945 448.451 119.501C448.704 121.848 449.914 123.809 451.84 124.999C455.03 126.971 459.289 126.277 464.856 122.884L480.194 110.114C484.585 106.456 486.07 100.308 483.726 95.4818C482.714 93.4105 481.339 92.1214 479.633 91.6586C477.092 90.9755 473.736 92.0112 469.632 94.7546H469.621Z" fill="#222222"/>
<path d="M447.284 175.45C447.284 175.45 457.539 149.723 429.636 145.811C425.091 145.172 463.536 150.725 466.034 138.627C468.531 126.53 447.879 122.09 426.676 122.453" fill="#F7997C"/>
<path d="M447.285 176.276C447.186 176.276 447.076 176.254 446.977 176.221C446.558 176.056 446.349 175.571 446.514 175.152C446.558 175.042 450.806 164.112 445.986 155.816C443.103 150.858 437.569 147.773 429.515 146.649L429.339 146.627C429.339 146.627 429.262 146.616 429.218 146.605H429.185C428.425 146.429 428.403 145.9 428.436 145.679C428.458 145.503 428.623 144.919 429.394 144.963H429.405C429.405 144.963 429.471 144.963 429.504 144.963C445.007 146.682 463.657 146.021 465.22 138.463C465.737 135.95 465.209 133.791 463.602 131.841C458.904 126.167 445.084 122.96 426.687 123.269C426.225 123.258 425.851 122.916 425.851 122.453C425.851 122.002 426.203 121.616 426.665 121.616C445.579 121.286 459.861 124.723 464.878 130.783C466.804 133.108 467.464 135.796 466.848 138.793C465.165 146.935 449.573 147.762 438.394 147.288C442.454 149.04 445.48 151.607 447.439 154.979C452.654 163.98 448.253 175.274 448.066 175.747C447.934 176.067 447.626 176.265 447.296 176.265L447.285 176.276Z" fill="#222222"/>
<path d="M345.309 383.404L386.713 413.494C424.035 441.623 482.209 419.201 482.297 376.65L488.557 203.689C488.601 202.995 424.652 211.953 395.516 189.355L373.487 308.581" fill="#FFB800"/>
<path d="M424.773 426.847C410.986 426.847 397.353 422.55 386.218 414.166L344.824 384.087C344.45 383.822 344.373 383.304 344.637 382.93C344.913 382.566 345.419 382.478 345.793 382.743L387.197 412.833C405.968 426.98 432.002 429.183 453.546 418.441C470.996 409.748 481.438 394.124 481.471 376.65L487.699 204.494C487.061 204.527 486.071 204.604 484.992 204.681C442.917 207.854 413.021 203.183 396.088 190.809L374.291 308.724C374.203 309.175 373.784 309.473 373.333 309.385C372.882 309.297 372.585 308.867 372.673 308.426L394.712 189.201C394.767 188.914 394.965 188.683 395.229 188.584C395.505 188.485 395.802 188.529 396.033 188.705C412.427 201.431 442.322 206.245 484.882 203.05C487.494 202.852 488.913 202.87 489.14 203.105C489.305 203.271 489.404 203.513 489.393 203.755L483.133 376.705C483.1 394.785 472.317 410.96 454.294 419.939C444.985 424.578 434.84 426.858 424.795 426.858L424.773 426.847Z" fill="#222222"/>
<path d="M470.645 237.151C449.31 237.151 432.101 233.57 431.892 233.526C431.441 233.427 431.166 232.997 431.254 232.546C431.342 232.094 431.782 231.818 432.233 231.907C432.497 231.962 459.102 237.493 487.105 234.716C487.578 234.683 487.963 235.003 488.007 235.454C488.051 235.906 487.721 236.314 487.27 236.358C481.604 236.92 475.992 237.14 470.645 237.14V237.151Z" fill="#222222"/>
<path d="M476.168 225.835C473.593 225.835 471.491 223.742 471.491 221.153C471.491 218.564 473.582 216.47 476.168 216.47C478.753 216.47 480.844 218.564 480.844 221.153C480.844 223.742 478.753 225.835 476.168 225.835ZM476.168 218.134C474.506 218.134 473.142 219.489 473.142 221.164C473.142 222.839 474.495 224.194 476.168 224.194C477.84 224.194 479.193 222.839 479.193 221.164C479.193 219.489 477.84 218.134 476.168 218.134Z" fill="#222222"/>
<path d="M297.138 534.174L208.277 534.163L215.66 207.347L251.904 226.849L287.213 207.347L297.138 534.174Z" fill="white"/>
<path d="M297.138 535H208.277C208.057 535 207.837 534.901 207.683 534.747C207.529 534.592 207.441 534.372 207.452 534.152L214.835 207.336C214.835 207.05 215 206.785 215.242 206.642C215.495 206.499 215.792 206.488 216.045 206.631L251.893 225.924L286.806 206.631C287.059 206.488 287.367 206.499 287.609 206.631C287.862 206.774 288.016 207.039 288.027 207.325L297.952 534.152C297.952 534.372 297.875 534.592 297.721 534.747C297.567 534.912 297.358 535 297.127 535H297.138ZM209.125 533.336H296.291L286.432 208.725L252.301 227.576C252.058 227.709 251.761 227.709 251.508 227.576L216.453 208.714L209.125 533.336Z" fill="#222222"/>
<path d="M213.526 353.512C213.25 353.512 212.986 353.379 212.832 353.137L158.829 270.315C157.487 267.968 158.114 265.059 160.26 263.495L177.909 250.637L155.914 237.052C155.121 236.556 154.703 235.674 154.813 234.749C154.934 233.823 155.561 233.074 156.453 232.799L199.926 219.555C200.355 219.423 200.817 219.665 200.96 220.106C201.092 220.547 200.85 221.009 200.41 221.142L156.937 234.385C156.541 234.506 156.464 234.859 156.453 234.958C156.442 235.057 156.42 235.421 156.772 235.641L179.823 249.877C180.054 250.02 180.208 250.273 180.219 250.549C180.219 250.824 180.098 251.089 179.878 251.243L161.228 264.817C159.765 265.886 159.347 267.869 160.238 269.433L214.208 352.212C214.461 352.597 214.351 353.104 213.966 353.357C213.823 353.446 213.669 353.49 213.515 353.49L213.526 353.512Z" fill="#2E2E48"/>
<path d="M293.055 353.512C292.901 353.512 292.747 353.468 292.604 353.38C292.219 353.126 292.12 352.619 292.362 352.234L346.365 269.412C347.234 267.88 346.816 265.897 345.353 264.828L326.702 251.254C326.482 251.089 326.35 250.824 326.361 250.56C326.361 250.284 326.515 250.031 326.757 249.888L349.809 235.653C350.161 235.432 350.15 235.08 350.128 234.969C350.117 234.87 350.04 234.518 349.644 234.397L306.171 221.153C305.731 221.021 305.489 220.558 305.621 220.117C305.753 219.676 306.215 219.434 306.655 219.566L350.128 232.81C351.019 233.085 351.646 233.824 351.767 234.76C351.888 235.686 351.47 236.567 350.667 237.063L328.672 250.648L346.332 263.506C348.477 265.071 349.094 267.979 347.784 270.282L293.759 353.148C293.605 353.391 293.341 353.523 293.066 353.523L293.055 353.512Z" fill="#2E2E48"/>
<path d="M258.077 258.36C265.26 258.36 271.083 250.453 271.083 240.698C271.083 230.944 265.26 223.037 258.077 223.037C250.894 223.037 245.071 230.944 245.071 240.698C245.071 250.453 250.894 258.36 258.077 258.36Z" fill="#222222"/>
<path d="M258.077 259.187C250.452 259.187 244.246 250.89 244.246 240.699C244.246 230.507 250.452 222.21 258.077 222.21C265.702 222.21 271.908 230.507 271.908 240.699C271.908 250.89 265.702 259.187 258.077 259.187ZM258.077 223.874C251.365 223.874 245.897 231.421 245.897 240.71C245.897 249.998 251.365 257.545 258.077 257.545C264.789 257.545 270.257 249.998 270.257 240.71C270.257 231.421 264.789 223.874 258.077 223.874Z" fill="#222222"/>
<path d="M197.494 214.079L209.685 194.522C210.522 193.189 213.118 192.825 214.67 193.839L258.726 222.023L288.544 197.618C291.064 195.536 295.058 197.001 295.355 200.13L303.365 216.25C304.312 218.156 303.827 220.293 302.089 221.847L281.326 240.434C279.863 242.528 276.628 242.671 274.955 240.721L258.902 225.207L233.716 244.577C230.943 246.428 226.355 246.174 224.066 244.048L198.462 220.249C196.603 218.519 196.218 216.095 197.483 214.057L197.494 214.079Z" fill="white"/>
<path d="M229.205 246.659C227.048 246.659 224.914 245.976 223.505 244.665L197.901 220.866C195.734 218.85 195.305 216.018 196.79 213.627L208.981 194.07C209.443 193.321 210.291 192.781 211.358 192.539C212.689 192.241 214.087 192.462 215.11 193.123L258.66 220.987L288.016 196.957C289.469 195.756 291.471 195.47 293.243 196.197C294.86 196.869 295.938 198.235 296.148 199.877L304.103 215.864C305.225 218.111 304.653 220.635 302.639 222.442L281.943 240.974C281.095 242.131 279.764 242.836 278.279 242.902C276.749 242.979 275.297 242.373 274.328 241.238L258.847 226.276L234.222 245.216C232.803 246.163 230.998 246.626 229.216 246.626L229.205 246.659ZM198.187 214.509C197.12 216.216 197.45 218.189 199.024 219.654L224.628 243.453C226.619 245.304 230.811 245.524 233.254 243.894L258.396 224.557C258.715 224.304 259.177 224.337 259.474 224.623L275.528 240.136C276.221 240.93 277.178 241.326 278.202 241.282C279.214 241.227 280.105 240.753 280.655 239.971C280.688 239.916 280.732 239.872 280.776 239.828L301.539 221.241C303.002 219.929 303.41 218.211 302.628 216.635L294.618 200.516C294.574 200.428 294.541 200.328 294.541 200.229C294.431 199.139 293.716 198.213 292.627 197.761C291.416 197.265 290.052 197.453 289.073 198.268L259.243 222.673C258.968 222.904 258.583 222.926 258.275 222.728L214.219 194.544C213.57 194.114 212.612 193.982 211.721 194.18C211.094 194.324 210.61 194.61 210.379 194.974L198.187 214.531V214.509Z" fill="#222222"/>
<path d="M419.647 249.304H95.2109V490.575H419.647V249.304Z" fill="white"/>
<path d="M419.636 491.402H95.211C94.7598 491.402 94.3857 491.027 94.3857 490.576V249.304C94.3857 248.852 94.7598 248.478 95.211 248.478H419.636C420.087 248.478 420.461 248.852 420.461 249.304V490.576C420.461 491.027 420.087 491.402 419.636 491.402ZM96.0252 489.749H418.811V250.13H96.0362V489.749H96.0252Z" fill="#222222"/>
<path d="M196.429 317.367L182.355 360.767H169.211L160.903 334.355L152.223 360.767H139.079L125.005 317.367H137.653L146.395 345.081L155.571 317.367H166.855L175.597 345.329L184.711 317.367H196.429ZM235.672 351.281V360.767H200.828V317.367H234.866V326.853H212.98V334.169H232.262V343.345H212.98V351.281H235.672ZM289.605 352.335H271.253L267.843 360.767H255.319L274.477 317.367H286.567L305.787 360.767H293.015L289.605 352.335ZM286.009 343.283L280.429 329.395L274.849 343.283H286.009ZM328.239 349.235H321.543V360.767H309.267V317.367H329.107C333.034 317.367 336.444 318.028 339.337 319.351C342.23 320.632 344.462 322.492 346.033 324.931C347.604 327.328 348.389 330.159 348.389 333.425C348.389 336.566 347.645 339.315 346.157 341.671C344.71 343.985 342.623 345.804 339.895 347.127L349.257 360.767H336.113L328.239 349.235ZM335.989 333.425C335.989 331.399 335.348 329.829 334.067 328.713C332.786 327.597 330.884 327.039 328.363 327.039H321.543V339.749H328.363C330.884 339.749 332.786 339.211 334.067 338.137C335.348 337.021 335.989 335.45 335.989 333.425ZM390.006 351.281V360.767H355.162V317.367H389.2V326.853H367.314V334.169H386.596V343.345H367.314V351.281H390.006Z" fill="#222222"/>
<path d="M181.46 378.394V424.594H168.392V406.576H150.572V424.594H137.504V378.394H150.572V395.752H168.392V378.394H181.46ZM190.678 378.394H203.746V424.594H190.678V378.394ZM233.239 412.318H226.111V424.594H213.043V378.394H234.163C238.343 378.394 241.973 379.098 245.053 380.506C248.133 381.87 250.509 383.85 252.181 386.446C253.853 388.998 254.689 392.012 254.689 395.488C254.689 398.832 253.897 401.758 252.313 404.266C250.773 406.73 248.551 408.666 245.647 410.074L255.613 424.594H241.621L233.239 412.318ZM241.489 395.488C241.489 393.332 240.807 391.66 239.443 390.472C238.079 389.284 236.055 388.69 233.371 388.69H226.111V402.22H233.371C236.055 402.22 238.079 401.648 239.443 400.504C240.807 399.316 241.489 397.644 241.489 395.488ZM261.899 378.394H274.967V424.594H261.899V378.394ZM328.22 378.394V424.594H317.462L297.068 399.976V424.594H284.264V378.394H295.022L315.416 403.012V378.394H328.22ZM368.392 400.504H379.942V419.644C377.302 421.536 374.266 422.988 370.834 424C367.402 425.012 363.97 425.518 360.538 425.518C355.698 425.518 351.342 424.506 347.47 422.482C343.598 420.414 340.562 417.554 338.362 413.902C336.162 410.25 335.062 406.114 335.062 401.494C335.062 396.874 336.162 392.738 338.362 389.086C340.562 385.434 343.62 382.596 347.536 380.572C351.452 378.504 355.874 377.47 360.802 377.47C365.114 377.47 368.986 378.196 372.418 379.648C375.85 381.1 378.71 383.19 380.998 385.918L372.682 393.442C369.558 390.01 365.818 388.294 361.462 388.294C357.502 388.294 354.312 389.504 351.892 391.924C349.472 394.3 348.262 397.49 348.262 401.494C348.262 404.046 348.812 406.334 349.912 408.358C351.012 410.338 352.552 411.9 354.532 413.044C356.512 414.144 358.778 414.694 361.33 414.694C363.838 414.694 366.192 414.188 368.392 413.176V400.504Z" fill="#222222"/>
<path d="M7.46011 416.744C10.0348 422.165 13.1157 426.969 16.1965 430.506C26.7375 442.582 39.468 444.201 54.3661 443.298C72.103 442.218 89.6199 440.918 106.917 436.423C112.66 434.583 118.074 432.941 118.569 425.812C118.932 420.546 115.433 415.532 110.218 416.315C110.218 416.315 118.811 414.442 122.2 411.852C128.571 406.993 128.34 392.207 117.612 395.083C117.612 395.083 123.421 392.538 124.213 392.064C128.34 389.607 130.001 384.219 128.12 379.823C126.029 374.964 120.197 372.364 115.202 374.061C116.621 373.576 119.053 371.879 120.252 370.932C120.252 370.932 123.377 368.442 124.158 364.883C125.886 357.049 117.568 350.196 110.581 353.942C101.756 358.68 92.1176 361.544 82.2589 363.175C78.3748 363.814 74.4687 364.233 70.5956 364.949L66.2274 365.764L76.3832 354.658C81.1475 349.447 78.0997 341.018 71.1018 340.07L70.8597 340.037C66.9536 339.508 63.0695 340.566 59.9997 342.946C59.9997 342.946 40.6453 357.953 40.6343 357.964C29.6093 366.513 10.8601 363.517 3.67506 377.399C-1.87048 388.131 1.43044 404.085 7.46011 416.733V416.744Z" fill="#F7997C"/>
<path d="M47.9181 444.344C35.2426 444.344 24.6907 441.491 15.5801 431.057C12.4333 427.454 9.28638 422.496 6.71166 417.108C-0.638374 401.661 -2.04676 386.687 2.94862 377.036C7.38285 368.453 16.0863 366.084 24.4926 363.781C30.0491 362.26 35.7927 360.696 40.1279 357.324L59.4933 342.307C62.7612 339.773 66.8433 338.682 70.9695 339.233L71.2116 339.266C74.8096 339.751 77.6924 342.075 78.9357 345.491C80.179 348.907 79.4528 352.543 76.9992 355.231L68.5158 364.508L70.4523 364.144C72.708 363.726 75.0186 363.395 77.2522 363.087C78.8807 362.855 80.5091 362.635 82.1376 362.36C92.7005 360.619 102.141 357.545 110.206 353.215C113.639 351.375 117.633 351.738 120.868 354.195C124.301 356.795 125.875 360.96 124.983 365.059C124.147 368.849 120.923 371.46 120.791 371.571C120.373 371.89 119.823 372.309 119.207 372.728C123.322 373.014 127.217 375.57 128.901 379.482C130.969 384.285 129.099 390.114 124.664 392.758C124.323 392.968 123.168 393.496 121.914 394.069C123.85 394.51 125.369 395.722 126.315 397.639C128.581 402.256 126.865 409.34 122.728 412.491C120.747 414.001 117.182 415.257 114.388 416.072C115.081 416.403 115.741 416.832 116.324 417.383C118.481 419.378 119.636 422.551 119.405 425.856C118.877 433.448 113.056 435.321 107.423 437.128L107.181 437.205C90.0048 441.667 73.1371 442.978 54.4319 444.113C52.1983 444.245 50.0307 444.322 47.9291 444.322L47.9181 444.344ZM8.20808 416.392C10.7168 421.647 13.7756 426.473 16.8235 429.966C27.0013 441.623 39.1817 443.408 54.3219 442.471C72.939 441.336 89.7187 440.036 106.707 435.629L106.905 435.563C112.484 433.778 117.303 432.236 117.743 425.757C117.931 422.992 116.962 420.248 115.191 418.617C113.848 417.372 112.176 416.865 110.338 417.13C109.898 417.196 109.48 416.899 109.403 416.458C109.326 416.017 109.601 415.598 110.041 415.499C110.129 415.477 118.492 413.637 121.705 411.191C125.215 408.514 126.722 402.289 124.807 398.377C123.564 395.843 121.154 394.984 117.82 395.876C117.402 395.986 116.973 395.755 116.83 395.347C116.687 394.94 116.885 394.488 117.281 394.312C119.603 393.298 123.245 391.667 123.795 391.337C127.536 389.111 129.099 384.197 127.36 380.132C125.435 375.636 120.098 373.256 115.466 374.821C115.037 374.964 114.564 374.733 114.421 374.303C114.277 373.873 114.509 373.4 114.938 373.256C116.203 372.827 118.503 371.229 119.746 370.259C119.768 370.237 122.651 367.902 123.355 364.684C124.114 361.225 122.783 357.699 119.856 355.484C117.138 353.424 113.815 353.116 110.966 354.647C102.746 359.054 93.1296 362.194 82.3906 363.968C80.7512 364.233 79.1117 364.464 77.4723 364.695C75.2607 365.004 72.972 365.323 70.7494 365.742L66.3812 366.557C66.0291 366.624 65.677 366.458 65.512 366.15C65.3359 365.841 65.3799 365.456 65.622 365.191L75.7778 354.085C77.8024 351.87 78.4076 348.852 77.3843 346.031C76.361 343.199 73.9733 341.282 71.0025 340.875L70.7604 340.841C67.0634 340.346 63.4324 341.315 60.5166 343.585L41.1512 358.602C36.5519 362.172 30.6433 363.781 24.9327 365.345C16.4934 367.648 8.51616 369.83 4.42303 377.763C-1.17752 388.582 2.70655 404.801 8.21908 416.359L8.20808 416.392Z" fill="#222222"/>
<path d="M78.5723 420.512C78.5723 420.512 91.3688 422.848 111.339 416.05L78.5723 420.512Z" fill="#F9A775"/>
<path d="M84.6243 421.746C80.8062 421.746 78.6386 421.372 78.4295 421.328C77.9784 421.25 77.6813 420.821 77.7694 420.369C77.8464 419.917 78.2755 419.631 78.7266 419.708C78.8477 419.73 91.5782 421.923 111.087 415.279C111.516 415.135 111.989 415.367 112.132 415.797C112.275 416.226 112.044 416.7 111.615 416.843C99.6654 420.909 90.3238 421.757 84.6243 421.757V421.746Z" fill="#222222"/>
<path d="M77.9458 400.493C77.9458 400.493 97.1681 402.796 116.93 395.348L77.9458 400.493Z" fill="#F9A775"/>
<path d="M85.2075 401.639C80.7073 401.639 77.9125 401.319 77.8465 401.308C77.3953 401.253 77.0652 400.846 77.1203 400.394C77.1753 399.942 77.5824 399.623 78.0335 399.667C78.2206 399.689 97.2998 401.848 116.621 394.576C117.05 394.422 117.523 394.632 117.688 395.061C117.854 395.491 117.633 395.965 117.204 396.13C104.892 400.769 92.6896 401.65 85.2075 401.65V401.639Z" fill="#222222"/>
<path d="M75.3706 381.222C75.3706 381.222 96.3314 382.093 115.752 373.84L75.3706 381.222Z" fill="#F9A775"/>
<path d="M76.9991 382.071C75.9648 382.071 75.3706 382.049 75.3376 382.049C74.8865 382.027 74.5234 381.641 74.5454 381.189C74.5674 380.749 74.9305 380.396 75.3706 380.396C75.3706 380.396 75.3926 380.396 75.4036 380.396C75.6127 380.396 96.4084 381.156 115.433 373.08C115.851 372.904 116.335 373.102 116.511 373.521C116.687 373.939 116.489 374.424 116.071 374.601C99.8414 381.498 82.3575 382.071 76.9881 382.071H76.9991Z" fill="#222222"/>
</g>
<defs>
<clipPath id="clip0_1060_10442">
<rect width="577" height="535" fill="white"/>
</clipPath>
</defs>
</svg>
