<svg width="581" height="539" viewBox="0 0 581 539" fill="none" xmlns="http://www.w3.org/2000/svg">
<g clip-path="url(#clip0_1040_5586)">
<path d="M464.7 1.45424L485.308 59.5202C485.74 60.7412 487.136 61.3185 488.299 60.7634L543.851 34.3113C545.701 33.4233 547.64 35.3658 546.754 37.2196L520.352 92.8768C519.798 94.0423 520.374 95.441 521.593 95.8739L579.549 116.521C581.487 117.209 581.487 119.951 579.549 120.639L521.593 141.285C520.374 141.718 519.798 143.117 520.352 144.283L546.754 199.94C547.64 201.793 545.701 203.736 543.851 202.848L488.299 176.396C487.136 175.841 485.74 176.418 485.308 177.639L464.7 235.705C464.013 237.648 461.277 237.648 460.59 235.705L439.982 177.639C439.55 176.418 438.154 175.841 436.991 176.396L381.439 202.848C379.589 203.736 377.65 201.793 378.536 199.94L404.938 144.283C405.492 143.117 404.916 141.718 403.697 141.285L345.742 120.639C343.803 119.951 343.803 117.209 345.742 116.521L403.697 95.8739C404.916 95.441 405.492 94.0423 404.938 92.8768L378.536 37.2196C377.65 35.3658 379.589 33.4233 381.439 34.3113L436.991 60.7634C438.154 61.3185 439.55 60.7412 439.982 59.5202L460.59 1.45424C461.277 -0.488326 464.013 -0.488326 464.7 1.45424Z" fill="#39B1AA"/>
<path opacity="0.1" d="M125.473 136.468L146.081 194.534C146.513 195.755 147.909 196.332 149.072 195.777L204.624 169.325C206.474 168.437 208.413 170.379 207.527 172.233L181.125 227.89C180.571 229.056 181.147 230.455 182.366 230.888L240.322 251.534C242.261 252.222 242.261 254.964 240.322 255.652L182.366 276.299C181.147 276.732 180.571 278.131 181.125 279.296L207.527 334.953C208.413 336.807 206.474 338.75 204.624 337.862L149.072 311.41C147.909 310.855 146.513 311.432 146.081 312.653L125.473 370.719C124.786 372.661 122.05 372.661 121.363 370.719L100.755 312.653C100.323 311.432 98.9273 310.855 97.764 311.41L42.2122 337.862C40.362 338.75 38.4231 336.807 39.3095 334.953L65.7115 279.296C66.2655 278.131 65.6893 276.732 64.4706 276.299L6.51465 255.652C4.57577 254.964 4.57577 252.222 6.51465 251.534L64.4706 230.888C65.6893 230.455 66.2655 229.056 65.7115 227.89L39.3095 172.233C38.4231 170.379 40.362 168.437 42.2122 169.325L97.764 195.777C98.9273 196.332 100.323 195.755 100.755 194.534L121.363 136.468C122.05 134.525 124.786 134.525 125.473 136.468Z" fill="#F5F0E8"/>
<path opacity="0.61" d="M451.35 294.659L470.473 348.529C470.871 349.661 472.168 350.194 473.242 349.683L524.783 325.141C526.501 324.319 528.296 326.117 527.476 327.838L502.979 379.477C502.47 380.565 503.001 381.852 504.132 382.252L557.9 401.411C559.694 402.055 559.694 404.597 557.9 405.23L504.132 424.389C503.001 424.788 502.47 426.087 502.979 427.164L527.476 478.803C528.296 480.523 526.501 482.322 524.783 481.5L473.242 456.957C472.157 456.447 470.871 456.979 470.473 458.112L451.35 511.982C450.707 513.78 448.17 513.78 447.538 511.982L428.415 458.112C428.017 456.979 426.72 456.447 425.646 456.957L374.105 481.5C372.387 482.322 370.592 480.523 371.412 478.803L395.909 427.164C396.418 426.076 395.887 424.788 394.756 424.389L340.988 405.23C339.194 404.586 339.194 402.044 340.988 401.411L394.756 382.252C395.887 381.852 396.418 380.553 395.909 379.477L371.412 327.838C370.592 326.117 372.387 324.319 374.105 325.141L425.646 349.683C426.731 350.194 428.017 349.661 428.415 348.529L447.538 294.659C448.181 292.861 450.718 292.861 451.35 294.659Z" fill="#55D6CE"/>
<path d="M339.537 122.992L337.731 121.727C331.56 117.397 326.253 113.09 321.688 108.406L322.275 100.847C324.946 66.7132 299.485 36.8643 265.405 34.2002C235.934 31.8914 209.676 50.6732 201.4 77.8801C193.212 85.7392 187.318 95.9848 187.839 106.586C188.216 114.312 180.748 120.75 175.43 126.966C173.901 128.753 172.25 130.773 170.522 133.005C162.888 141.452 158.146 151.92 157.67 163.431C156.983 180.37 165.625 195.844 179.696 206.278C196.913 219.043 213.654 232.375 227.857 247.56C239.734 260.27 258.148 268.484 278.955 268.34C308.947 268.129 334.806 249.503 340.058 224.56C341.465 217.856 341.288 211.318 339.869 205.135C339.105 201.805 340.324 198.463 343.06 196.021C343.814 195.355 344.545 194.656 345.243 193.934L349.797 189.261C365.607 173.188 364.056 140.231 339.526 123.003L339.537 122.992Z" fill="#222222"/>
<path d="M286.988 163.786H219.371V236.338H286.988V163.786Z" fill="#F7997C"/>
<path d="M286.988 237.17H219.371C218.916 237.17 218.54 236.793 218.54 236.338V163.786C218.54 163.331 218.916 162.953 219.371 162.953H286.988C287.442 162.953 287.819 163.331 287.819 163.786V236.338C287.819 236.793 287.442 237.17 286.988 237.17ZM220.202 235.505H286.157V164.618H220.202V235.505Z" fill="#222222"/>
<path opacity="0.81" d="M253.251 187.03C251.556 186.897 249.894 186.664 248.255 186.364C258.204 192.391 274.945 201.538 286.988 202.826V176.074C277.958 183.767 266.004 188.029 253.251 187.03Z" fill="#222222"/>
<path d="M306.299 113.135L305.657 113.08L303.219 144.227C303.153 145.104 303.053 145.97 302.942 146.836L303.662 146.891C312.969 147.624 321.101 140.653 321.832 131.329C322.564 122.004 315.606 113.857 306.299 113.124V113.135Z" fill="#F7997C"/>
<path d="M304.992 147.79C304.526 147.79 304.061 147.768 303.596 147.735L302.865 147.679C302.643 147.657 302.421 147.546 302.288 147.368C302.144 147.191 302.078 146.958 302.111 146.736C302.222 145.892 302.322 145.037 302.388 144.172L304.826 113.024C304.848 112.802 304.947 112.602 305.114 112.458C305.28 112.314 305.501 112.247 305.723 112.258L306.366 112.314C316.115 113.079 323.428 121.649 322.663 131.406C321.932 140.708 314.154 147.79 305.003 147.79H304.992ZM303.873 146.081C312.67 146.691 320.314 140.075 321.001 131.273C321.688 122.481 315.163 114.767 306.421 113.979L304.05 144.294C304.006 144.893 303.939 145.481 303.873 146.07V146.081Z" fill="#222222"/>
<path d="M212.978 105.82L212.335 105.764C203.029 105.032 194.896 112.003 194.165 121.327C193.434 130.651 200.392 138.799 209.698 139.532L210.419 139.587C210.441 138.721 210.474 137.844 210.541 136.967L212.978 105.82Z" fill="#F7997C"/>
<path d="M210.419 140.431C210.419 140.431 210.374 140.431 210.352 140.431L209.621 140.375C199.871 139.609 192.559 131.04 193.323 121.283C194.088 111.514 202.619 104.188 212.38 104.954L213.022 105.009C213.477 105.043 213.82 105.442 213.787 105.909L211.349 137.056C211.283 137.922 211.238 138.777 211.227 139.631C211.227 139.865 211.128 140.075 210.95 140.231C210.795 140.375 210.596 140.442 210.396 140.442L210.419 140.431ZM210.995 106.563C202.696 106.563 195.639 112.979 194.985 121.405C194.298 130.207 200.846 137.933 209.61 138.699C209.632 138.1 209.665 137.511 209.71 136.912L212.081 106.597C211.715 106.575 211.36 106.563 210.995 106.563Z" fill="#222222"/>
<path d="M295.286 105.132C274.801 103.522 257.705 91.3227 249.074 74.3835C241.984 88.148 229.109 99.0485 213.055 104.81L212.978 105.831L210.54 136.978C210.474 137.855 210.43 138.732 210.419 139.598C209.865 164.13 228.544 185.098 253.251 187.03C277.969 188.973 299.663 171.168 302.931 146.847C303.042 145.981 303.141 145.115 303.208 144.238L305.645 113.09L306.277 105.032C306.277 105.032 306.277 104.943 306.277 104.91C302.687 105.331 299.02 105.431 295.275 105.132H295.286Z" fill="#F7997C"/>
<path d="M256.918 188.007C255.678 188.007 254.437 187.962 253.185 187.862C228.168 185.898 209.011 164.696 209.588 139.576C209.61 138.688 209.643 137.8 209.721 136.912L212.236 104.743C212.258 104.421 212.479 104.133 212.79 104.021C228.677 98.327 241.308 87.6596 248.354 74.0061C248.498 73.7286 248.786 73.551 249.096 73.551C249.407 73.551 249.695 73.7286 249.839 74.0061C258.713 91.4337 275.731 102.756 295.375 104.299C298.931 104.577 302.576 104.499 306.21 104.077C306.454 104.044 306.698 104.133 306.875 104.299C307.052 104.466 307.152 104.71 307.141 104.954V105.098L304.072 144.305C304.006 145.204 303.906 146.081 303.784 146.958C300.615 170.613 280.407 188.007 256.952 188.007H256.918ZM213.842 105.409L213.809 105.897L211.371 137.045C211.305 137.911 211.261 138.766 211.25 139.62C210.707 163.852 229.187 184.31 253.318 186.209C277.448 188.096 298.887 170.768 302.111 146.747C302.222 145.903 302.322 145.048 302.388 144.183L305.379 105.853C301.978 106.197 298.566 106.242 295.22 105.975C275.532 104.432 258.403 93.3319 249.074 76.1707C241.795 89.3912 229.353 99.7257 213.842 105.42V105.409Z" fill="#222222"/>
<path d="M311.274 156.115C307.197 156.115 303.884 152.796 303.884 148.712C303.884 144.627 307.197 141.308 311.274 141.308C315.351 141.308 318.664 144.627 318.664 148.712C318.664 152.796 315.351 156.115 311.274 156.115ZM311.274 142.407C307.806 142.407 304.992 145.237 304.992 148.7C304.992 152.164 307.817 154.994 311.274 154.994C314.73 154.994 317.556 152.164 317.556 148.7C317.556 145.237 314.73 142.407 311.274 142.407Z" fill="white"/>
<path d="M201.334 144.638C197.256 144.638 193.944 141.319 193.944 137.234C193.944 133.149 197.256 129.83 201.334 129.83C205.411 129.83 208.723 133.149 208.723 137.234C208.723 141.319 205.411 144.638 201.334 144.638ZM201.334 130.929C197.866 130.929 195.052 133.759 195.052 137.223C195.052 140.686 197.877 143.517 201.334 143.517C204.79 143.517 207.616 140.686 207.616 137.223C207.616 133.759 204.79 130.929 201.334 130.929Z" fill="white"/>
<path d="M202.774 126.644C202.508 126.644 202.253 126.522 202.098 126.289C201.832 125.912 201.921 125.39 202.297 125.123L205.499 122.859L202.264 120.128C201.91 119.829 201.865 119.307 202.165 118.952C202.464 118.596 202.984 118.552 203.339 118.852L206.829 121.793C207.161 122.082 207.35 122.493 207.327 122.937C207.305 123.381 207.095 123.769 206.729 124.024L203.261 126.478C203.117 126.578 202.951 126.633 202.785 126.633L202.774 126.644Z" fill="#222222"/>
<path d="M312.625 135.258C312.415 135.258 312.204 135.18 312.049 135.025L309.003 132.061C308.692 131.75 308.537 131.328 308.581 130.896C308.626 130.463 308.881 130.074 309.257 129.852L313.157 127.488C313.556 127.244 314.066 127.377 314.298 127.765C314.531 128.154 314.409 128.675 314.021 128.909L310.399 131.106L313.213 133.837C313.545 134.159 313.545 134.681 313.235 135.014C313.069 135.18 312.858 135.269 312.637 135.269L312.625 135.258Z" fill="#222222"/>
<path d="M249.506 110.16C248.487 110.893 246.991 111.081 245.562 111.337C244.111 111.57 242.67 111.836 241.419 112.114C240.167 112.391 238.737 112.758 237.33 113.157C235.923 113.523 234.483 113.99 233.264 113.745C232.09 113.523 231.37 112.325 232.289 110.438C233.142 108.617 235.89 106.231 240.034 105.298C244.177 104.399 247.623 105.409 249.108 106.719C250.681 108.051 250.492 109.461 249.506 110.16Z" fill="#222222"/>
<path d="M275.886 111.281C276.762 112.191 278.191 112.647 279.554 113.157C280.939 113.646 282.312 114.167 283.487 114.678C284.672 115.177 286.002 115.799 287.32 116.454C288.639 117.076 289.968 117.786 291.209 117.775C292.406 117.775 293.336 116.72 292.771 114.7C292.262 112.746 289.99 109.905 286.09 108.24C282.179 106.597 278.612 106.974 276.906 107.984C275.111 109.006 275.044 110.427 275.886 111.292V111.281Z" fill="#222222"/>
<path d="M259.722 141.041C259.578 141.041 259.434 141.041 259.29 141.041L256.42 140.897C255.966 140.875 255.611 140.486 255.633 140.02C255.656 139.565 256.077 139.221 256.509 139.232L259.378 139.376C263.289 139.565 266.602 136.546 266.79 132.638C266.812 132.205 266.668 131.795 266.369 131.473C266.081 131.151 265.682 130.962 265.25 130.94C263.721 130.862 262.314 130.196 261.295 129.064C260.265 127.932 259.744 126.466 259.821 124.935L260.165 117.853C260.187 117.397 260.63 117.042 261.04 117.064C261.494 117.087 261.849 117.475 261.827 117.941L261.483 125.023C261.428 126.111 261.805 127.144 262.536 127.954C263.267 128.764 264.264 129.23 265.35 129.286C266.225 129.33 267.034 129.708 267.621 130.363C268.208 131.018 268.508 131.85 268.463 132.727C268.231 137.4 264.364 141.063 259.744 141.063L259.722 141.041Z" fill="#222222"/>
<path d="M247.789 175.53C247.789 175.53 250.803 172.966 255.811 176.463L247.789 175.53Z" fill="#F4B6B1"/>
<path d="M255.811 177.284C255.644 177.284 255.478 177.24 255.334 177.14C250.958 174.098 248.421 176.085 248.321 176.174C247.966 176.463 247.446 176.418 247.158 176.063C246.87 175.708 246.914 175.197 247.257 174.897C247.401 174.775 250.814 171.967 256.287 175.774C256.664 176.041 256.752 176.551 256.497 176.929C256.331 177.162 256.076 177.284 255.811 177.284Z" fill="#2E2E48"/>
<path d="M241.729 138.732C243.058 137.988 244.709 138.333 245.751 139.443C247.634 141.463 251.8 145.115 258.082 146.258C259.622 146.536 260.287 148.412 259.511 149.777C257.805 152.774 253.495 157.27 245.618 152.785C236.012 147.324 238.294 140.664 241.74 138.732H241.729Z" fill="#FFF9F3"/>
<path d="M251.8 155.505C249.927 155.505 247.734 154.95 245.197 153.507C238.848 149.899 237.917 145.947 237.929 143.916C237.929 141.474 239.269 139.154 241.33 138C242.959 137.089 245.03 137.445 246.36 138.865C248.21 140.852 252.21 144.338 258.237 145.437C259.168 145.603 259.943 146.214 260.364 147.113C260.818 148.101 260.774 149.255 260.242 150.188C259.378 151.708 256.708 155.505 251.822 155.505H251.8ZM242.128 139.454C240.953 140.109 239.59 141.674 239.579 143.916C239.568 146.791 241.851 149.677 246.005 152.053C253.384 156.249 257.173 152.164 258.769 149.355C259.035 148.889 259.057 148.29 258.835 147.801C258.724 147.568 258.47 147.157 257.916 147.069C251.423 145.892 247.113 142.129 245.13 139.998C244.321 139.132 243.092 138.91 242.128 139.443V139.454Z" fill="#222222"/>
<path d="M286.223 128.131C286.035 128.131 285.858 128.076 285.703 127.954C280.717 123.958 276.606 127.021 276.44 127.155C276.075 127.432 275.554 127.366 275.277 126.999C275 126.633 275.055 126.111 275.421 125.834C275.476 125.789 280.717 121.804 286.744 126.644C287.099 126.933 287.165 127.454 286.877 127.81C286.711 128.009 286.467 128.12 286.234 128.12L286.223 128.131Z" fill="#222222"/>
<path d="M245.141 124.912C244.964 124.912 244.776 124.857 244.62 124.735C239.635 120.739 235.524 123.802 235.358 123.936C234.993 124.213 234.472 124.147 234.195 123.78C233.918 123.414 233.973 122.892 234.339 122.615C234.394 122.57 239.635 118.585 245.662 123.425C246.016 123.714 246.083 124.235 245.795 124.591C245.629 124.79 245.385 124.901 245.152 124.901L245.141 124.912Z" fill="#222222"/>
<path d="M286.589 214.315C276.108 213.959 265.084 228.357 253.65 228.357C242.914 228.357 232.256 214.148 221.531 214.759C214.839 215.136 208.158 215.624 201.489 216.179C178.998 218.066 156.34 220.83 135.112 228.512C101.597 240.634 83.2501 255.73 64.1826 286.123C59.8616 293.005 10.1819 366.112 10.1819 366.112C-8.78588 394.684 5.65048 431.537 39.52 440.984L100.334 443.226L124.51 384.594L118.36 383.14L128.974 373.693V538.156H381.45V336.962C423.53 336.918 452.38 336.763 452.38 336.407C453.499 243.819 396.407 218.089 286.589 214.303V214.315Z" fill="#FFB800"/>
<path d="M381.45 539H128.974C128.52 539 128.144 538.623 128.144 538.168V375.558L120.111 382.707L124.698 383.795C124.931 383.85 125.141 384.006 125.252 384.228C125.363 384.45 125.374 384.694 125.285 384.927L101.11 443.548C100.977 443.87 100.634 444.103 100.312 444.059L39.4978 441.816C39.4313 441.816 39.3649 441.805 39.3095 441.783C22.5686 437.11 9.68334 425.599 3.96641 410.203C-1.51786 395.439 0.509658 379.199 9.50607 365.657C10.0046 364.924 59.2301 292.483 63.4956 285.69C82.7626 254.986 101.431 239.823 134.847 227.746C156.351 219.976 179.563 217.201 201.444 215.369C208.38 214.792 215.138 214.304 221.509 213.937C227.248 213.604 232.91 217.29 238.394 220.853C243.446 224.138 248.664 227.535 253.672 227.535C259.19 227.535 264.785 223.916 270.192 220.42C275.842 216.757 281.216 213.305 286.633 213.493C347.093 215.569 385.627 224.172 411.564 241.377C440.547 260.603 453.787 290.807 453.233 336.441C453.226 337.159 446.39 337.566 432.725 337.662C421.092 337.751 404.13 337.795 382.303 337.817V538.179C382.303 538.634 381.927 539.011 381.472 539.011L381.45 539ZM129.805 537.335H380.619V336.974C380.619 336.518 380.985 336.141 381.45 336.141C432.991 336.086 448.447 335.875 451.56 335.686C452.402 240.09 389.028 218.677 286.567 215.147C281.625 214.97 276.507 218.3 271.078 221.807C265.472 225.437 259.666 229.189 253.65 229.189C248.144 229.189 242.715 225.659 237.463 222.24C232.212 218.821 226.783 215.291 221.575 215.591C215.216 215.958 208.48 216.435 201.555 217.012C179.784 218.844 156.706 221.585 135.389 229.3C102.362 241.244 83.9148 256.23 64.8806 286.567C60.6039 293.382 11.3563 365.846 10.8577 366.578C2.16048 379.677 0.199436 395.361 5.49536 409.614C11.0129 424.478 23.4549 435.6 39.6308 440.151L99.7694 442.371L123.346 385.182L118.15 383.95C117.851 383.884 117.607 383.639 117.53 383.34C117.452 383.04 117.552 382.718 117.784 382.518L128.398 373.072C128.642 372.85 128.997 372.806 129.296 372.939C129.595 373.072 129.783 373.372 129.783 373.694V537.324L129.805 537.335Z" fill="#222222"/>
<path opacity="0.81" d="M96.4899 321.1L96.2794 321.367L59.3077 369.009L97.4538 366.689L96.4899 321.1Z" fill="#765500"/>
<path d="M491.829 204.904C492.916 197.529 472.843 188.451 446.996 184.627C421.148 180.803 399.313 183.681 398.226 191.056C397.139 198.43 417.212 207.509 443.06 211.333C468.907 215.157 490.742 212.279 491.829 204.904Z" fill="#222222"/>
<path d="M464.745 213.826C457.842 213.826 450.308 213.249 442.929 212.161C419.519 208.698 396.086 199.818 397.393 190.937C398.701 182.057 423.696 180.336 447.106 183.8C459.681 185.665 471.304 188.817 479.846 192.669C486.095 195.5 493.396 199.94 492.642 205.024C491.745 211.107 479.735 213.826 464.745 213.826ZM425.236 183.744C409.658 183.744 399.676 186.875 399.044 191.17C398.158 197.22 415.674 206.433 443.173 210.507C470.672 214.581 490.105 210.829 491.003 204.779C491.468 201.66 487.147 197.797 479.17 194.19C470.772 190.393 459.305 187.285 446.874 185.443C438.897 184.266 431.606 183.744 425.236 183.744Z" fill="#222222"/>
<path d="M406.146 190.282C406.146 190.282 401.803 137.001 430.698 112.213C434.31 109.116 455.826 67.2571 455.826 67.2571C461.521 58.3102 466.54 55.1244 471.259 55.746C478.106 56.6451 481.408 65.4921 478.394 73.118L468.8 97.2946C479.857 103.633 487.845 116.842 487.845 116.842C501.107 128.02 504.076 147.302 494.792 161.965L484.289 178.549L478.671 246.728L403.432 235.749L406.157 190.293L406.146 190.282Z" fill="#F7997C"/>
<path d="M478.66 247.549C478.66 247.549 478.583 247.549 478.538 247.549L403.299 236.571C402.867 236.504 402.567 236.127 402.59 235.694L405.315 190.293C405.16 188.195 401.714 135.979 430.166 111.581C433.025 109.128 449.134 78.4795 455.095 66.8797C460.679 58.1104 465.997 54.2142 471.37 54.9246C474.295 55.302 476.81 57.0558 478.439 59.842C480.688 63.6717 480.965 68.8777 479.159 73.4178L469.83 96.9283C480.189 103.167 487.623 114.889 488.477 116.276C501.905 127.687 504.918 147.49 495.49 162.398L485.097 178.816L479.491 246.783C479.469 247.016 479.358 247.227 479.181 247.371C479.037 247.494 478.849 247.549 478.66 247.549ZM404.296 235.028L477.907 245.773L483.458 178.483C483.458 178.349 483.513 178.216 483.58 178.105L494.083 161.521C503.101 147.28 500.187 128.342 487.302 117.475C487.236 117.42 487.169 117.353 487.125 117.275C487.047 117.142 479.115 104.177 468.379 98.0273C468.024 97.8163 467.869 97.3834 468.024 96.9949L477.619 72.8183C479.236 68.7445 479.004 64.0935 477.009 60.6968C475.636 58.3546 473.564 56.9004 471.16 56.5785C466.473 55.968 461.698 59.6089 456.535 67.7122C454.363 71.9414 434.875 109.738 431.252 112.857C403 137.078 406.944 189.694 406.988 190.227C406.988 190.271 406.988 190.305 406.988 190.349L404.307 235.039L404.296 235.028Z" fill="#222222"/>
<path d="M493.684 126.5C492.764 127.121 491.922 127.843 491.125 128.62L475.89 143.461C472.101 147.157 472.378 153.673 476.877 156.459C479.979 158.38 484.134 158.058 490.061 154.428L504.619 142.306C508.94 138.71 510.624 132.571 508.165 127.51C506.181 123.425 502.093 120.883 493.684 126.511V126.5Z" fill="#F7997C"/>
<path d="M481.042 158.446C479.347 158.446 477.818 158.014 476.444 157.159C474.229 155.782 472.777 153.451 472.489 150.754C472.168 147.846 473.231 144.893 475.314 142.85L490.548 128.009C491.49 127.099 492.365 126.366 493.219 125.789C497.506 122.914 501.129 121.86 503.999 122.637C506.082 123.203 507.732 124.713 508.907 127.11C511.444 132.338 509.86 138.988 505.151 142.917L490.593 155.039C490.593 155.039 490.526 155.083 490.493 155.105C486.881 157.314 483.757 158.413 481.042 158.413V158.446ZM494.138 127.199C493.351 127.721 492.576 128.365 491.701 129.219L476.467 144.06C474.738 145.737 473.874 148.179 474.129 150.587C474.373 152.796 475.503 154.628 477.309 155.749C480.311 157.603 484.322 156.948 489.573 153.751L504.076 141.663C508.209 138.222 509.616 132.416 507.4 127.865C506.458 125.911 505.162 124.701 503.556 124.268C501.173 123.625 498.005 124.602 494.138 127.199Z" fill="#222222"/>
<path d="M482.084 113.535C481.164 114.156 480.322 114.878 479.524 115.655L464.29 130.496C460.501 134.181 460.778 140.708 465.276 143.483C468.379 145.404 472.533 145.082 478.461 141.452L493.019 129.33C497.34 125.734 499.024 119.595 496.564 114.534C494.581 110.449 490.493 107.907 482.084 113.535Z" fill="#F7997C"/>
<path d="M469.442 145.481C467.747 145.481 466.218 145.048 464.844 144.194C462.628 142.817 461.177 140.486 460.889 137.789C460.568 134.881 461.631 131.928 463.714 129.896L478.948 115.055C479.879 114.145 480.754 113.424 481.618 112.835C485.906 109.971 489.529 108.906 492.399 109.683C494.482 110.249 496.132 111.758 497.307 114.156C499.844 119.384 498.26 126.034 493.551 129.963L478.993 142.085C478.993 142.085 478.926 142.129 478.893 142.151C475.281 144.36 472.157 145.47 469.442 145.47V145.481ZM482.538 114.234C481.763 114.756 480.965 115.422 480.101 116.254L464.866 131.095C463.138 132.771 462.274 135.214 462.529 137.622C462.773 139.831 463.903 141.663 465.709 142.784C468.711 144.649 472.722 143.983 477.973 140.786L492.476 128.698C496.609 125.257 498.016 119.451 495.8 114.9C494.858 112.946 493.562 111.736 491.956 111.303C489.562 110.648 486.394 111.636 482.538 114.234Z" fill="#222222"/>
<path d="M472.412 94.775C471.437 95.4299 470.539 96.207 469.686 97.0284L453.477 112.824C449.444 116.754 449.743 123.691 454.53 126.655C457.831 128.698 462.252 128.354 468.556 124.491L484.045 111.592C488.643 107.762 490.438 101.235 487.812 95.8407C485.707 91.4893 481.353 88.7919 472.412 94.775Z" fill="#F7997C"/>
<path d="M458.961 128.709C457.166 128.709 455.549 128.254 454.097 127.354C451.749 125.9 450.22 123.436 449.909 120.583C449.577 117.497 450.696 114.378 452.901 112.225L469.11 96.4288C470.118 95.4409 471.027 94.6972 471.946 94.0756C476.489 91.0341 480.333 89.9018 483.369 90.7343C485.574 91.3338 487.324 92.9211 488.554 95.4631C491.246 101.002 489.562 108.051 484.566 112.214L469.077 125.112C469.077 125.112 469.01 125.157 468.977 125.179C465.144 127.532 461.82 128.698 458.95 128.698L458.961 128.709ZM472.877 95.4631C472.035 96.0292 471.215 96.7063 470.273 97.6277L454.064 113.412C452.214 115.211 451.283 117.819 451.56 120.394C451.815 122.759 453.034 124.735 454.973 125.934C458.186 127.921 462.473 127.221 468.08 123.802L483.524 110.937C487.945 107.252 489.441 101.058 487.081 96.1957C486.061 94.1089 484.676 92.8101 482.959 92.3439C480.4 91.6557 477.021 92.6991 472.888 95.4631H472.877Z" fill="#222222"/>
<path d="M450.386 176.762C450.386 176.762 460.712 150.843 432.615 146.902C428.039 146.258 466.75 151.853 469.265 139.665C471.78 127.476 450.984 123.003 429.634 123.369" fill="#F7997C"/>
<path d="M450.386 177.595C450.286 177.595 450.175 177.572 450.076 177.539C449.655 177.373 449.444 176.884 449.61 176.462C449.655 176.351 453.931 165.34 449.079 156.981C446.176 151.986 440.603 148.878 432.493 147.746L432.316 147.723C432.316 147.723 432.238 147.712 432.194 147.701H432.16C431.396 147.524 431.374 146.991 431.407 146.769C431.429 146.591 431.595 146.003 432.371 146.047H432.382C432.382 146.047 432.448 146.047 432.482 146.047C448.093 147.779 466.872 147.113 468.445 139.498C468.966 136.967 468.434 134.792 466.817 132.827C462.086 127.11 448.17 123.88 429.645 124.191C429.18 124.18 428.803 123.836 428.803 123.369C428.803 122.914 429.158 122.526 429.623 122.526C448.669 122.193 463.05 125.656 468.102 131.761C470.041 134.103 470.705 136.812 470.085 139.831C468.39 148.034 452.69 148.867 441.434 148.389C445.522 150.154 448.569 152.741 450.541 156.138C455.793 165.207 451.361 176.584 451.173 177.062C451.04 177.384 450.729 177.583 450.397 177.583L450.386 177.595Z" fill="#222222"/>
<path d="M347.703 386.27L389.394 416.585C426.975 444.925 485.552 422.335 485.64 379.466L491.944 205.212C491.989 204.513 427.596 213.538 398.258 190.771L376.077 310.888" fill="#FFB800"/>
<path d="M427.717 430.039C413.835 430.039 400.108 425.71 388.896 417.262L347.215 386.958C346.838 386.692 346.761 386.17 347.027 385.793C347.304 385.427 347.813 385.338 348.19 385.604L389.882 415.919C408.783 430.172 434.997 432.392 456.69 421.569C474.262 412.811 484.776 397.071 484.809 379.466L491.08 206.023C490.438 206.056 489.44 206.134 488.355 206.211C445.987 209.408 415.885 204.702 398.834 192.236L376.886 311.032C376.797 311.487 376.376 311.787 375.922 311.698C375.467 311.609 375.168 311.176 375.257 310.732L397.449 190.615C397.504 190.327 397.704 190.094 397.97 189.994C398.247 189.894 398.546 189.938 398.778 190.116C415.286 202.937 445.389 207.788 488.244 204.569C490.873 204.369 492.303 204.387 492.532 204.624C492.698 204.791 492.797 205.035 492.786 205.279L486.482 379.521C486.449 397.737 475.591 414.032 457.443 423.079C448.07 427.752 437.855 430.05 427.74 430.05L427.717 430.039Z" fill="#222222"/>
<path d="M473.907 238.924C452.424 238.924 435.096 235.316 434.886 235.272C434.432 235.172 434.155 234.739 434.243 234.284C434.332 233.829 434.775 233.551 435.229 233.64C435.495 233.696 462.285 239.268 490.482 236.471C490.958 236.438 491.346 236.759 491.39 237.215C491.435 237.67 491.102 238.08 490.648 238.125C484.942 238.691 479.292 238.913 473.907 238.913V238.924Z" fill="#222222"/>
<path d="M479.469 227.524C476.877 227.524 474.76 225.415 474.76 222.806C474.76 220.198 476.865 218.089 479.469 218.089C482.073 218.089 484.178 220.198 484.178 222.806C484.178 225.415 482.073 227.524 479.469 227.524ZM479.469 219.765C477.796 219.765 476.422 221.13 476.422 222.817C476.422 224.505 477.785 225.87 479.469 225.87C481.153 225.87 482.516 224.505 482.516 222.817C482.516 221.13 481.153 219.765 479.469 219.765Z" fill="#222222"/>
<path d="M299.197 538.168L209.721 538.157L217.155 208.898L253.65 228.545L289.204 208.898L299.197 538.168Z" fill="white"/>
<path d="M299.197 539H209.721C209.499 539 209.277 538.9 209.122 538.745C208.967 538.589 208.879 538.367 208.89 538.145L216.324 208.887C216.324 208.598 216.49 208.332 216.734 208.187C216.989 208.043 217.288 208.032 217.543 208.176L253.639 227.613L288.794 208.176C289.049 208.032 289.359 208.043 289.603 208.176C289.857 208.32 290.012 208.587 290.024 208.875L300.017 538.145C300.017 538.367 299.94 538.589 299.784 538.745C299.629 538.911 299.419 539 299.186 539H299.197ZM210.574 537.324H298.344L288.417 210.285L254.049 229.278C253.805 229.411 253.506 229.411 253.251 229.278L217.953 210.274L210.574 537.324Z" fill="#222222"/>
<path d="M215.005 356.155C214.728 356.155 214.463 356.022 214.307 355.777L159.93 272.336C158.578 269.972 159.21 267.041 161.37 265.465L179.142 252.511L156.994 238.824C156.196 238.325 155.775 237.437 155.886 236.504C156.008 235.572 156.64 234.817 157.537 234.539L201.311 221.197C201.743 221.063 202.209 221.308 202.353 221.752C202.486 222.196 202.242 222.662 201.799 222.795L158.024 236.138C157.626 236.26 157.548 236.615 157.537 236.715C157.526 236.815 157.504 237.181 157.858 237.403L181.069 251.745C181.302 251.889 181.457 252.144 181.468 252.422C181.468 252.699 181.346 252.966 181.125 253.121L162.345 266.797C160.872 267.874 160.451 269.872 161.348 271.448L215.692 354.845C215.947 355.234 215.836 355.744 215.449 355.999C215.305 356.088 215.149 356.133 214.994 356.133L215.005 356.155Z" fill="#2E2E48"/>
<path d="M295.087 356.155C294.932 356.155 294.777 356.11 294.633 356.022C294.245 355.766 294.145 355.256 294.389 354.867L348.766 271.426C349.641 269.883 349.22 267.885 347.747 266.808L328.967 253.132C328.746 252.966 328.613 252.699 328.624 252.433C328.624 252.155 328.779 251.9 329.023 251.756L352.234 237.414C352.589 237.192 352.577 236.837 352.555 236.726C352.544 236.626 352.467 236.271 352.068 236.149L308.293 222.806C307.85 222.673 307.606 222.207 307.739 221.763C307.872 221.319 308.338 221.074 308.781 221.208L352.555 234.55C353.453 234.828 354.084 235.572 354.206 236.515C354.328 237.448 353.907 238.336 353.098 238.835L330.951 252.522L348.733 265.476C350.893 267.052 351.514 269.983 350.195 272.303L295.796 355.788C295.641 356.033 295.375 356.166 295.098 356.166L295.087 356.155Z" fill="#2E2E48"/>
<path d="M259.866 260.292C267.098 260.292 272.961 252.326 272.961 242.498C272.961 232.671 267.098 224.704 259.866 224.704C252.633 224.704 246.77 232.671 246.77 242.498C246.77 252.326 252.633 260.292 259.866 260.292Z" fill="#222222"/>
<path d="M259.866 261.125C252.188 261.125 245.939 252.766 245.939 242.498C245.939 232.23 252.188 223.872 259.866 223.872C267.544 223.872 273.792 232.23 273.792 242.498C273.792 252.766 267.544 261.125 259.866 261.125ZM259.866 225.548C253.107 225.548 247.601 233.152 247.601 242.509C247.601 251.867 253.107 259.471 259.866 259.471C266.624 259.471 272.13 251.867 272.13 242.509C272.13 233.152 266.624 225.548 259.866 225.548Z" fill="#222222"/>
<path d="M198.863 215.68L211.139 195.977C211.981 194.634 214.595 194.267 216.158 195.288L260.519 223.683L290.544 199.096C293.081 196.998 297.103 198.474 297.402 201.627L305.468 217.867C306.421 219.787 305.933 221.94 304.183 223.506L283.276 242.232C281.803 244.341 278.545 244.485 276.861 242.52L260.697 226.891L235.336 246.406C232.544 248.27 227.924 248.015 225.619 245.873L199.838 221.896C197.965 220.153 197.578 217.711 198.852 215.658L198.863 215.68Z" fill="white"/>
<path d="M230.793 248.504C228.622 248.504 226.473 247.815 225.054 246.494L199.273 222.518C197.09 220.486 196.658 217.634 198.154 215.225L210.43 195.522C210.895 194.767 211.748 194.223 212.823 193.979C214.163 193.679 215.57 193.901 216.601 194.567L260.453 222.64L290.012 198.43C291.475 197.22 293.491 196.931 295.275 197.664C296.904 198.341 297.99 199.718 298.2 201.372L306.21 217.478C307.341 219.743 306.764 222.285 304.737 224.105L283.897 242.776C283.044 243.941 281.703 244.652 280.207 244.718C278.667 244.796 277.205 244.186 276.23 243.042L260.641 227.968L235.846 247.05C234.416 248.004 232.599 248.47 230.805 248.47L230.793 248.504ZM199.561 216.113C198.486 217.833 198.819 219.82 200.403 221.297L226.184 245.273C228.19 247.138 232.411 247.36 234.871 245.717L260.187 226.236C260.508 225.981 260.974 226.014 261.273 226.303L277.437 241.932C278.135 242.731 279.099 243.131 280.13 243.087C281.149 243.031 282.046 242.554 282.6 241.766C282.634 241.71 282.678 241.666 282.722 241.621L303.629 222.895C305.103 221.574 305.512 219.843 304.726 218.255L296.66 202.015C296.616 201.927 296.583 201.827 296.583 201.727C296.472 200.628 295.752 199.695 294.655 199.24C293.436 198.741 292.062 198.929 291.076 199.751L261.04 224.338C260.763 224.571 260.375 224.593 260.065 224.394L215.703 195.999C215.05 195.566 214.086 195.433 213.188 195.633C212.557 195.777 212.069 196.066 211.837 196.432L199.561 216.135V216.113Z" fill="#222222"/>
<path d="M422.556 251.168H95.871V494.243H422.556V251.168Z" fill="white"/>
<path d="M422.545 495.076H95.871C95.4168 495.076 95.0401 494.698 95.0401 494.243V251.168C95.0401 250.713 95.4168 250.335 95.871 250.335H422.545C422.999 250.335 423.376 250.713 423.376 251.168V494.243C423.376 494.698 422.999 495.076 422.545 495.076ZM96.6909 493.411H421.714V252H96.702V493.411H96.6909Z" fill="#222222"/>
<path d="M198.22 319.615L184.146 363.015H171.001L162.693 336.603L154.013 363.015H140.869L126.795 319.615H139.443L148.185 347.329L157.361 319.615H168.646L177.387 347.577L186.501 319.615H198.22ZM237.462 353.529V363.015H202.618V319.615H236.656V329.101H214.77V336.417H234.052V345.593H214.77V353.529H237.462ZM291.395 354.583H273.043L269.633 363.015H257.109L276.267 319.615H288.357L307.577 363.015H294.805L291.395 354.583ZM287.799 345.531L282.219 331.643L276.639 345.531H287.799ZM330.03 351.483H323.334V363.015H311.058V319.615H330.898C334.824 319.615 338.234 320.277 341.128 321.599C344.021 322.881 346.253 324.741 347.824 327.179C349.394 329.577 350.18 332.408 350.18 335.673C350.18 338.815 349.436 341.563 347.948 343.919C346.501 346.234 344.414 348.053 341.686 349.375L351.048 363.015H337.904L330.03 351.483ZM337.78 335.673C337.78 333.648 337.139 332.077 335.858 330.961C334.576 329.845 332.675 329.287 330.154 329.287H323.334V341.997H330.154C332.675 341.997 334.576 341.46 335.858 340.385C337.139 339.269 337.78 337.699 337.78 335.673ZM391.796 353.529V363.015H356.952V319.615H390.99V329.101H369.104V336.417H388.386V345.593H369.104V353.529H391.796Z" fill="#222222"/>
<path d="M183.251 381.09V427.29H170.183V409.272H152.363V427.29H139.295V381.09H152.363V398.448H170.183V381.09H183.251ZM192.468 381.09H205.536V427.29H192.468V381.09ZM235.03 415.014H227.902V427.29H214.834V381.09H235.954C240.134 381.09 243.764 381.794 246.844 383.202C249.924 384.566 252.3 386.546 253.972 389.142C255.644 391.694 256.48 394.708 256.48 398.184C256.48 401.528 255.688 404.454 254.104 406.962C252.564 409.426 250.342 411.362 247.438 412.77L257.404 427.29H243.412L235.03 415.014ZM243.28 398.184C243.28 396.028 242.598 394.356 241.234 393.168C239.87 391.98 237.846 391.386 235.162 391.386H227.902V404.916H235.162C237.846 404.916 239.87 404.344 241.234 403.2C242.598 402.012 243.28 400.34 243.28 398.184ZM263.689 381.09H276.757V427.29H263.689V381.09ZM330.01 381.09V427.29H319.252L298.858 402.672V427.29H286.054V381.09H296.812L317.206 405.708V381.09H330.01ZM370.182 403.2H381.732V422.34C379.092 424.232 376.056 425.684 372.624 426.696C369.192 427.708 365.76 428.214 362.328 428.214C357.488 428.214 353.132 427.202 349.26 425.178C345.388 423.11 342.352 420.25 340.152 416.598C337.952 412.946 336.852 408.81 336.852 404.19C336.852 399.57 337.952 395.434 340.152 391.782C342.352 388.13 345.41 385.292 349.326 383.268C353.242 381.2 357.664 380.166 362.592 380.166C366.904 380.166 370.776 380.892 374.208 382.344C377.64 383.796 380.5 385.886 382.788 388.614L374.472 396.138C371.348 392.706 367.608 390.99 363.252 390.99C359.292 390.99 356.102 392.2 353.682 394.62C351.262 396.996 350.052 400.186 350.052 404.19C350.052 406.742 350.602 409.03 351.702 411.054C352.802 413.034 354.342 414.596 356.322 415.74C358.302 416.84 360.568 417.39 363.12 417.39C365.628 417.39 367.982 416.884 370.182 415.872V403.2Z" fill="#222222"/>
<path d="M7.5118 419.86C10.1044 425.321 13.2066 430.161 16.3088 433.724C26.9228 445.89 39.7416 447.522 54.743 446.612C72.6029 445.524 90.2411 444.214 107.658 439.685C113.441 437.831 118.892 436.177 119.391 428.995C119.756 423.689 116.233 418.639 110.982 419.427C110.982 419.427 119.635 417.54 123.047 414.931C129.462 410.036 129.229 395.139 118.427 398.036C118.427 398.036 124.277 395.472 125.075 394.995C129.229 392.52 130.902 387.091 129.008 382.662C126.903 377.767 121.031 375.147 116.001 376.857C117.43 376.369 119.878 374.659 121.086 373.704C121.086 373.704 124.233 371.196 125.019 367.61C126.759 359.718 118.383 352.814 111.347 356.588C102.462 361.361 92.7562 364.247 82.8291 365.89C78.9181 366.534 74.9849 366.955 71.085 367.677L66.6865 368.498L76.9127 357.309C81.7101 352.059 78.6411 343.567 71.5946 342.612L71.3509 342.579C67.4177 342.046 63.5067 343.112 60.4156 345.51C60.4156 345.51 40.9271 360.628 40.916 360.639C29.8145 369.253 10.9353 366.234 3.70051 380.22C-1.88347 391.032 1.44033 407.105 7.5118 419.849V419.86Z" fill="#F7997C"/>
<path d="M48.2505 447.666C35.4871 447.666 24.862 444.791 15.6883 434.279C12.5196 430.649 9.35095 425.654 6.75839 420.226C-0.642603 404.663 -2.06076 389.578 2.96926 379.854C7.43423 371.207 16.198 368.82 24.6626 366.5C30.2576 364.969 36.0411 363.392 40.4063 359.996L59.9059 344.866C63.1965 342.313 67.3069 341.214 71.4617 341.769L71.7054 341.802C75.3284 342.291 78.2311 344.633 79.4831 348.074C80.7351 351.515 80.0038 355.178 77.5331 357.887L68.991 367.233L70.9409 366.867C73.2122 366.445 75.5389 366.112 77.788 365.801C79.4277 365.568 81.0675 365.346 82.7072 365.068C93.3433 363.315 102.849 360.218 110.971 355.855C114.427 354.001 118.449 354.368 121.706 356.843C125.163 359.463 126.748 363.659 125.85 367.788C125.008 371.607 121.762 374.237 121.629 374.348C121.208 374.67 120.654 375.092 120.033 375.514C124.177 375.802 128.099 378.378 129.794 382.318C131.877 387.158 129.994 393.03 125.529 395.694C125.185 395.905 124.022 396.438 122.759 397.015C124.709 397.459 126.238 398.68 127.191 400.612C129.473 405.263 127.745 412.4 123.579 415.575C121.585 417.096 117.995 418.361 115.181 419.183C115.879 419.516 116.543 419.949 117.131 420.504C119.302 422.513 120.466 425.71 120.233 429.04C119.701 436.688 113.84 438.575 108.167 440.395L107.924 440.473C90.6289 444.969 73.6443 446.29 54.8094 447.433C52.5603 447.566 50.3777 447.644 48.2616 447.644L48.2505 447.666ZM8.26518 419.505C10.7913 424.799 13.8713 429.661 16.9403 433.18C27.1887 444.924 39.4535 446.723 54.6986 445.779C73.4449 444.636 90.3409 443.326 107.447 438.886L107.647 438.819C113.264 437.021 118.117 435.467 118.56 428.94C118.748 426.154 117.773 423.39 115.989 421.747C114.638 420.493 112.954 419.982 111.104 420.248C110.66 420.315 110.239 420.015 110.162 419.571C110.084 419.127 110.361 418.705 110.804 418.605C110.893 418.583 119.313 416.729 122.548 414.265C126.083 411.568 127.601 405.296 125.673 401.356C124.421 398.802 121.994 397.937 118.637 398.836C118.216 398.947 117.784 398.714 117.64 398.303C117.496 397.892 117.696 397.437 118.095 397.259C120.432 396.238 124.1 394.595 124.654 394.262C128.421 392.02 129.994 387.069 128.243 382.973C126.304 378.444 120.931 376.047 116.266 377.623C115.834 377.767 115.358 377.534 115.214 377.101C115.07 376.668 115.303 376.191 115.735 376.047C117.009 375.614 119.324 374.004 120.576 373.027C120.598 373.005 123.501 370.652 124.21 367.411C124.975 363.925 123.634 360.373 120.687 358.142C117.951 356.066 114.605 355.755 111.735 357.298C103.459 361.738 93.7754 364.902 82.962 366.689C81.3112 366.955 79.6604 367.189 78.0096 367.422C75.7826 367.733 73.4781 368.054 71.2401 368.476L66.8416 369.298C66.4871 369.364 66.1325 369.198 65.9663 368.887C65.7891 368.576 65.8334 368.188 66.0771 367.921L76.3033 356.732C78.3419 354.501 78.9513 351.459 77.9209 348.618C76.8905 345.765 74.4863 343.833 71.4949 343.423L71.2512 343.389C67.5285 342.89 63.8723 343.867 60.9363 346.153L41.4367 361.283C36.8055 364.88 30.8559 366.5 25.1058 368.077C16.6079 370.397 8.5754 372.594 4.45389 380.587C-1.18549 391.487 2.72551 407.827 8.27626 419.471L8.26518 419.505Z" fill="#222222"/>
<path d="M79.1174 423.656C79.1174 423.656 92.0027 426.009 112.112 419.16L79.1174 423.656Z" fill="#F9A775"/>
<path d="M85.2111 424.899C81.3666 424.899 79.1839 424.522 78.9734 424.478C78.5192 424.4 78.22 423.967 78.3087 423.512C78.3862 423.057 78.8183 422.768 79.2726 422.846C79.3944 422.868 92.2132 425.077 111.857 418.383C112.289 418.239 112.765 418.472 112.909 418.905C113.053 419.338 112.821 419.815 112.389 419.96C100.357 424.056 90.9502 424.91 85.2111 424.91V424.899Z" fill="#222222"/>
<path d="M78.486 403.487C78.486 403.487 97.8415 405.807 117.74 398.303L78.486 403.487Z" fill="#F9A775"/>
<path d="M85.7983 404.641C81.2669 404.641 78.4527 404.319 78.3863 404.308C77.932 404.253 77.5996 403.842 77.655 403.387C77.7104 402.932 78.1204 402.61 78.5746 402.654C78.763 402.676 97.9745 404.852 117.43 397.526C117.862 397.37 118.338 397.581 118.504 398.014C118.671 398.447 118.449 398.925 118.017 399.091C105.619 403.764 93.3323 404.652 85.7983 404.652V404.641Z" fill="#222222"/>
<path d="M75.8934 384.072C75.8934 384.072 96.9995 384.949 116.555 376.635L75.8934 384.072Z" fill="#F9A775"/>
<path d="M77.5332 384.927C76.4917 384.927 75.8934 384.905 75.8602 384.905C75.4059 384.883 75.0403 384.494 75.0625 384.039C75.0846 383.595 75.4503 383.24 75.8934 383.24C75.8934 383.24 75.9156 383.24 75.9267 383.24C76.1372 383.24 97.0771 384.006 116.233 375.869C116.654 375.691 117.142 375.891 117.319 376.313C117.496 376.735 117.297 377.223 116.876 377.401C100.534 384.35 82.9288 384.927 77.5221 384.927H77.5332Z" fill="#222222"/>
</g>
<defs>
<clipPath id="clip0_1040_5586">
<rect width="581" height="539" fill="white"/>
</clipPath>
</defs>
</svg>
