<svg width="74" height="68" viewBox="0 0 74 68" fill="none" xmlns="http://www.w3.org/2000/svg">
<path d="M37.1147 67.1C37.5507 67.0937 37.9698 66.9401 38.305 66.6679V66.6828L38.4758 66.512L66.8829 38.1049C71.0085 33.98 73.326 28.3857 73.326 22.5521C73.326 16.7184 71.0086 11.1236 66.8829 6.99925C62.7538 2.86042 57.0704 0.653546 51.23 0.921909C46.0294 1.12123 41.0521 3.08094 37.1129 6.47941C33.1711 3.088 28.1941 1.13395 22.9959 0.940398C17.1544 0.66759 11.4697 2.87452 7.34293 7.01781C3.21745 11.1422 0.9 16.7369 0.9 22.5705C0.9 28.4035 3.21731 33.9983 7.343 38.1227L35.75 66.5297C36.109 66.8908 36.5963 67.0954 37.1054 67.0999L37.1069 67.1001L37.1147 67.1ZM22.1936 4.78738H22.1943L22.8615 4.78754C27.7208 4.97863 32.3257 7.01223 35.74 10.4754L35.7404 10.4758C36.1031 10.8392 36.5952 11.0427 37.1082 11.0427C37.6211 11.0427 38.1132 10.8392 38.4753 10.4757L38.4756 10.4754C41.8948 7.01296 46.5037 4.98262 51.3657 4.79631L51.3663 4.79628C56.1233 4.58268 60.7513 6.37783 64.1205 9.74328C67.5227 13.1431 69.4349 17.7555 69.4349 22.5653C69.4349 27.3756 67.5227 31.9881 64.1205 35.3879L64.1205 35.3879L37.1127 62.3957L10.105 35.3879L10.1049 35.3879C6.70273 31.9881 4.79056 27.3756 4.79056 22.5653C4.79056 17.7555 6.70273 13.1431 10.1049 9.74328L10.105 9.74324C13.3082 6.53873 17.6628 4.7537 22.1936 4.78738Z" fill="white" stroke="white" stroke-width="0.2"/>
<path d="M30.2354 39.7589L30.2323 39.7589C29.4423 39.7582 28.7204 39.311 28.3687 38.603C28.3686 38.6028 28.3685 38.6026 28.3684 38.6024L23.7515 29.4041L22.5485 31.3885C22.1805 32.0249 21.5043 32.4198 20.7693 32.4278L20.7666 32.4278L5.04154 32.4278C3.89092 32.4278 2.95898 31.4951 2.95898 30.3453C2.95898 29.1948 3.8909 28.2621 5.04154 28.2621H19.5621L22.11 24.0126L22.1102 24.0124C22.501 23.3623 23.2143 22.9758 23.9728 23.0041C24.7304 23.0325 25.4132 23.4704 25.7546 24.1475L25.7554 24.1491L30.1074 32.9315L36.6955 18.9401L30.2354 39.7589ZM30.2354 39.7589L30.2526 39.7587C30.2528 39.7587 30.253 39.7587 30.2532 39.7587C31.0397 39.7541 31.7564 39.3067 32.1063 38.6023L32.1064 38.6024L32.1087 38.5975L38.9903 23.969M30.2354 39.7589L38.9903 23.969M38.9903 23.969L44.2963 31.5421L44.2965 31.5423C44.6872 32.0985 45.3241 32.4291 46.0039 32.4278H46.0038V32.1778L46.0044 32.4278L38.9903 23.969ZM47.0858 28.262L40.2882 18.6278L40.0835 18.7713L40.2878 18.6271L40.2878 18.6272C39.8613 18.0188 39.1425 17.6836 38.4019 17.7475L38.4017 17.7475C37.6609 17.8121 37.011 18.2666 36.6957 18.9396L47.0858 28.262ZM47.0858 28.262L47.1605 28.3679L46.9562 28.512V28.262H47.0858Z" fill="white" stroke="white" stroke-width="0.5"/>
</svg>
