<svg width="81" height="77" viewBox="0 0 81 77" fill="none" xmlns="http://www.w3.org/2000/svg">
<path d="M59.1604 37.849C71.9194 25.0528 80.9399 15.6789 80.0658 14.2468C79.2846 12.9448 64.0892 16.4415 47.2012 20.9796C42.6816 10.9733 38.5899 2.97575 37.7157 1.71101C35.0188 -2.1576 32.4894 8.31368 30.5737 24.1787C13.8717 28.9958 0.982526 34.6686 0.722139 35.7101C0.443153 36.8261 11.119 40.2297 26.1285 46.0884C24.8637 57.099 22.4645 79.8829 25.1799 74.9728C25.1799 74.9728 34.5167 62.4742 43.3512 53.807C51.851 57.0246 61.5225 61.8604 66.4141 64.4085C67.5858 65.0037 68.8877 63.9063 68.46 62.6602C66.5815 57.1362 62.7315 46.0698 59.1232 37.849H59.1604Z" fill="white" stroke="#606060" stroke-miterlimit="10"/>
</svg>
