<svg width="49" height="43" viewBox="0 0 49 43" fill="none" xmlns="http://www.w3.org/2000/svg">
<path d="M30.4581 25.9677C40.8922 23.1221 48.369 20.9274 48.3504 19.9416C48.3504 19.0303 39.4042 16.3334 29.2863 13.6552C29.9187 7.10828 30.1605 1.73314 30.0861 0.821789C29.8443 -1.98667 25.3991 2.7003 19.6892 10.3631C9.57133 7.88945 1.05296 5.95514 0.606584 6.42011C0.123008 6.92229 4.80997 12.9112 10.8733 20.4066C6.94887 25.7446 -1.08593 36.8668 1.77833 35.1185C1.77833 35.1185 9.05056 33.4446 16.2112 31.5847C19.6706 35.788 24.5622 39.1359 26.3477 41.9071C26.7755 42.5581 27.7798 42.3721 27.9286 41.6096C28.5982 38.1873 29.8815 31.2871 30.4767 25.9491L30.4581 25.9677Z" fill="white"/>
</svg>
