<svg width="605" height="386" viewBox="0 0 605 386" fill="none" xmlns="http://www.w3.org/2000/svg">
<path d="M158.914 304.639H97.2754V385.502H158.914V304.639Z" fill="#B5D0B4"/>
<path d="M265.501 275.419H203.525V385.502H265.501V275.419Z" fill="#B5D0B4"/>
<path d="M373.663 239.822H308.779V385.499H373.663V239.822Z" fill="#B5D0B4"/>
<path d="M489.467 193.482H421.52V385.502H489.467V193.482Z" fill="#B5D0B4"/>
<path d="M100.349 242.189L100.154 230.222C117.904 229.928 166.347 225.352 222.644 210.152C263.901 199.012 303.443 183.976 340.168 165.46C386.007 142.349 427.573 113.717 463.707 80.3599L471.854 89.1432C434.844 123.31 392.286 152.617 345.362 176.251C307.86 195.141 267.502 210.466 225.406 221.805C153.686 241.122 102.491 242.154 100.347 242.189H100.349Z" fill="#B5D0B4"/>
<path d="M479.411 108.688L442.334 71.6963H479.411V108.688Z" fill="#B5D0B4"/>
<path d="M396.703 113.413L382.898 104.939C382.786 104.383 382.656 103.825 382.496 103.272C379.245 91.9732 367.431 85.4418 356.105 88.6851C345.766 91.6444 339.414 101.728 340.86 112.058L330.952 124.147C330.8 124.331 330.982 124.601 331.212 124.531L344.003 120.585C348.949 128.332 358.577 132.263 367.875 129.6C375.348 127.46 380.738 121.599 382.609 114.612L396.551 113.996C396.86 113.984 396.968 113.575 396.703 113.413Z" fill="#B5D0B4"/>
<path d="M361.97 130.808C359.325 130.808 356.694 130.318 354.17 129.344C349.962 127.717 346.305 124.768 343.84 121.024L331.321 124.885C331.059 124.967 330.78 124.867 330.627 124.641C330.475 124.414 330.487 124.12 330.662 123.908L340.467 111.946C339.798 106.882 340.962 101.723 343.748 97.4038C346.592 92.9972 350.944 89.7714 356.002 88.3241C367.507 85.031 379.555 91.6895 382.855 103.168C382.99 103.639 383.115 104.142 383.232 104.705L396.9 113.095C397.159 113.254 397.282 113.561 397.207 113.855C397.129 114.148 396.875 114.355 396.57 114.37L382.9 114.973C380.875 122.17 375.183 127.896 367.982 129.959C365.999 130.527 363.982 130.808 361.975 130.808H361.97ZM344.162 120.142L344.317 120.383C349.266 128.135 358.911 131.777 367.772 129.241C374.915 127.196 380.326 121.691 382.246 114.517L382.316 114.253L396.34 113.633L382.561 105.173L382.528 105.014C382.403 104.406 382.276 103.871 382.134 103.375C378.945 92.2923 367.315 85.863 356.207 89.044C346.235 91.8987 339.796 101.771 341.229 112.006L341.251 112.168L331.519 124.043L344.162 120.142Z" fill="white"/>
<path d="M366.735 116.223H357.617V112.387C357.617 111.926 357.485 111.491 357.23 111.122C356.374 109.874 356.024 108.354 356.251 106.842C356.643 104.227 358.84 102.112 361.48 101.815C363.187 101.624 364.895 102.162 366.166 103.295C367.437 104.429 368.168 106.055 368.168 107.754C368.168 108.967 367.801 110.138 367.11 111.137C366.865 111.491 366.735 111.924 366.735 112.385V116.221V116.223ZM358.366 115.476H365.986V112.387C365.986 111.772 366.161 111.194 366.493 110.713C367.097 109.839 367.419 108.815 367.419 107.754C367.419 106.267 366.78 104.845 365.669 103.851C364.541 102.844 363.083 102.386 361.564 102.558C359.257 102.817 357.335 104.665 356.993 106.952C356.796 108.277 357.098 109.607 357.849 110.698C358.189 111.192 358.366 111.775 358.366 112.385V115.474V115.476Z" fill="white"/>
<path d="M366.363 118.224H357.994V121.303H366.363V118.224Z" fill="#B5D0B4"/>
<path d="M366.735 121.676H357.617V117.85H366.735V121.676ZM358.366 120.929H365.986V118.597H358.366V120.929Z" fill="white"/>
<path d="M360.179 105.388C360.179 105.388 358.556 106.446 359.368 108.439L360.179 105.388Z" fill="#B5D0B4"/>
<path d="M359.02 108.579C358.286 106.778 359.322 105.497 359.974 105.074L360.383 105.699L360.179 105.385L360.386 105.696C360.331 105.734 359.033 106.623 359.714 108.295L359.02 108.576V108.579Z" fill="white"/>
<path d="M350.73 98.679L350.295 99.2871L355.102 102.713L355.537 102.105L350.73 98.679Z" fill="white"/>
<path d="M373.262 98.3666L368.455 101.792L368.89 102.401L373.697 98.9747L373.262 98.3666Z" fill="white"/>
<path d="M361.868 92.8939L361.68 98.7847L362.428 98.8085L362.617 92.9178L361.868 92.8939Z" fill="white"/>
<path d="M214.746 116.524C205.568 116.524 198.127 123.948 198.127 133.105C198.127 134.938 198.437 136.697 198.989 138.348L191.75 147.119C191.633 147.261 191.785 147.463 191.955 147.393L201.683 143.33C204.726 147.194 209.44 149.685 214.748 149.685C223.927 149.685 231.367 142.262 231.367 133.105C231.367 123.948 223.927 116.524 214.748 116.524H214.746Z" fill="#B5D0B4"/>
<path d="M214.746 150.059C209.603 150.059 204.816 147.774 201.565 143.784L192.098 147.737C191.863 147.834 191.593 147.762 191.443 147.558C191.291 147.353 191.299 147.077 191.461 146.88L198.569 138.266C198.027 136.58 197.753 134.843 197.753 133.102C197.753 123.754 205.375 116.148 214.746 116.148C224.116 116.148 231.739 123.754 231.739 133.102C231.739 142.451 224.116 150.056 214.746 150.056V150.059ZM201.8 142.875L201.977 143.099C205.086 147.047 209.74 149.311 214.748 149.311C223.707 149.311 230.993 142.04 230.993 133.105C230.993 124.17 223.704 116.898 214.748 116.898C205.792 116.898 198.504 124.17 198.504 133.105C198.504 134.834 198.789 136.557 199.346 138.229L199.411 138.426L192.549 146.738L201.8 142.875Z" fill="white"/>
<path d="M209.488 134.198L214.232 139.056L220.1 124.981" fill="#B5D0B4"/>
<path d="M214.36 139.723L209.219 134.46L209.756 133.939L214.102 138.39L219.753 124.839L220.444 125.126L214.36 139.723Z" fill="white"/>
<path d="M550.674 148.111C550.674 160.538 540.572 170.61 528.115 170.61C515.659 170.61 505.564 160.538 505.564 148.111C505.564 135.683 515.532 125.729 527.888 125.612C527.813 128.06 527.736 130.938 527.679 133.805C519.963 134.031 513.769 140.346 513.769 148.111C513.769 155.875 520.198 162.424 528.115 162.424C536.033 162.424 542.462 156.01 542.462 148.111C542.462 146.551 542.21 145.049 541.738 143.649L549.58 141.201C550.294 143.38 550.674 145.694 550.674 148.111Z" fill="#B5D0B4"/>
<path d="M549.58 141.203L541.738 143.652C539.873 137.925 534.477 133.8 528.113 133.8C527.97 133.8 527.818 133.8 527.676 133.807C527.736 130.94 527.811 128.063 527.886 125.614C527.96 125.607 528.038 125.607 528.113 125.607C538.147 125.607 546.661 132.156 549.578 141.203H549.58Z" fill="#EB4960"/>
<path d="M60.6998 347.671C70.3069 347.671 78.095 339.901 78.095 330.316C78.095 320.731 70.3069 312.961 60.6998 312.961C51.0928 312.961 43.3047 320.731 43.3047 330.316C43.3047 339.901 51.0928 347.671 60.6998 347.671Z" fill="#B5D0B4"/>
<path d="M59.2247 341.652V339.014C57.3571 338.93 55.5469 338.431 54.4883 337.819L55.3247 334.568C56.4932 335.205 58.1386 335.791 59.9488 335.791C61.5367 335.791 62.6228 335.181 62.6228 334.07C62.6228 332.959 61.7315 332.346 59.6716 331.651C56.6905 330.649 54.6581 329.262 54.6581 326.567C54.6581 324.12 56.3858 322.205 59.3645 321.619V318.979H62.0935V321.425C63.9611 321.51 65.2145 321.898 66.1333 322.342L65.3269 325.483C64.6028 325.177 63.3219 324.536 61.317 324.536C59.5068 324.536 58.9201 325.314 58.9201 326.093C58.9201 327.01 59.8963 327.593 62.2633 328.482C65.579 329.651 66.9148 331.177 66.9148 333.681C66.9148 336.184 65.1596 338.264 61.9562 338.822V341.655H59.2272L59.2247 341.652Z" fill="white"/>
<path d="M33.0121 305.682C38.0659 305.682 42.1628 301.595 42.1628 296.553C42.1628 291.511 38.0659 287.423 33.0121 287.423C27.9583 287.423 23.8613 291.511 23.8613 296.553C23.8613 301.595 27.9583 305.682 33.0121 305.682Z" fill="#B5D0B4"/>
<path d="M32.2359 302.516V301.129C31.2547 301.084 30.3009 300.823 29.7441 300.501L30.1836 298.79C30.7978 299.126 31.6642 299.433 32.6155 299.433C33.4494 299.433 34.0211 299.111 34.0211 298.526C34.0211 297.94 33.5517 297.619 32.4681 297.253C30.9002 296.727 29.829 295.995 29.829 294.578C29.829 293.29 30.7379 292.283 32.3058 291.974V290.584H33.7415V291.872C34.7227 291.917 35.3844 292.121 35.8663 292.356L35.4418 294.007C35.0598 293.848 34.3857 293.509 33.332 293.509C32.3783 293.509 32.0711 293.917 32.0711 294.328C32.0711 294.812 32.583 295.118 33.8289 295.586C35.5717 296.202 36.2757 297.004 36.2757 298.322C36.2757 299.639 35.3519 300.733 33.6666 301.027V302.516H32.2309H32.2359Z" fill="white"/>
<path d="M70.4672 281.534C75.521 281.534 79.6179 277.447 79.6179 272.405C79.6179 267.363 75.521 263.275 70.4672 263.275C65.4133 263.275 61.3164 267.363 61.3164 272.405C61.3164 277.447 65.4133 281.534 70.4672 281.534Z" fill="#B5D0B4"/>
<path d="M69.691 278.369V276.981C68.7098 276.936 67.756 276.675 67.1992 276.353L67.6386 274.642C68.2529 274.978 69.1193 275.285 70.0705 275.285C70.9045 275.285 71.4762 274.963 71.4762 274.378C71.4762 273.793 71.0068 273.471 69.9232 273.105C68.3552 272.579 67.2841 271.847 67.2841 270.43C67.2841 269.142 68.1929 268.135 69.7609 267.827V266.437H71.1966V267.724C72.1778 267.769 72.8395 267.973 73.3213 268.208L72.8969 269.859C72.5149 269.697 71.8408 269.361 70.7871 269.361C69.8333 269.361 69.5262 269.77 69.5262 270.181C69.5262 270.664 70.0381 270.97 71.284 271.439C73.0267 272.054 73.7308 272.856 73.7308 274.174C73.7308 275.491 72.807 276.585 71.1217 276.879V278.369H69.686H69.691Z" fill="white"/>
<path d="M529.083 311.214C539.311 311.214 547.602 302.942 547.602 292.739C547.602 282.535 539.311 274.263 529.083 274.263C518.856 274.263 510.564 282.535 510.564 292.739C510.564 302.942 518.856 311.214 529.083 311.214Z" fill="#B5D0B4"/>
<path d="M527.51 304.808V301.998C525.522 301.908 523.595 301.375 522.469 300.725L523.358 297.262C524.604 297.942 526.354 298.563 528.279 298.563C529.969 298.563 531.125 297.912 531.125 296.729C531.125 295.546 530.176 294.893 527.982 294.153C524.808 293.09 522.644 291.61 522.644 288.74C522.644 286.137 524.481 284.097 527.655 283.474V280.662H530.561V283.265C532.548 283.355 533.884 283.768 534.86 284.242L534.001 287.585C533.23 287.258 531.867 286.578 529.732 286.578C527.804 286.578 527.18 287.408 527.18 288.235C527.18 289.211 528.219 289.832 530.738 290.778C534.266 292.021 535.689 293.648 535.689 296.311C535.689 298.974 533.822 301.191 530.411 301.783V304.8H527.505L527.51 304.808Z" fill="white"/>
<path d="M550.428 248.275C554.853 243.86 554.853 236.703 550.428 232.288C546.003 227.874 538.829 227.874 534.404 232.288C529.98 236.703 529.98 243.86 534.404 248.275C538.829 252.69 546.003 252.69 550.428 248.275Z" fill="#B5D0B4"/>
<path d="M541.455 247.664V245.945C540.239 245.89 539.06 245.564 538.371 245.168L538.915 243.05C539.677 243.466 540.748 243.845 541.927 243.845C542.96 243.845 543.669 243.446 543.669 242.724C543.669 242.002 543.088 241.601 541.747 241.15C539.804 240.497 538.481 239.593 538.481 237.839C538.481 236.245 539.607 234.997 541.547 234.618V232.899H543.325V234.494C544.541 234.548 545.357 234.803 545.956 235.092L545.43 237.137C544.958 236.937 544.124 236.521 542.818 236.521C541.639 236.521 541.257 237.03 541.257 237.535C541.257 238.133 541.892 238.512 543.435 239.092C545.594 239.852 546.466 240.848 546.466 242.477C546.466 244.106 545.322 245.464 543.237 245.825V247.671H541.46L541.455 247.664Z" fill="white"/>
<path d="M314.387 133.959C314.676 134.103 318.811 138.662 316.998 139.531C315.186 140.401 312.719 140.037 312.719 140.037L314.387 133.959Z" fill="#D28572"/>
<path d="M296.221 143.669L291.197 158.406L304.53 165.411L307.986 145.781L296.226 143.671L296.221 143.669Z" fill="#FFBC96"/>
<path d="M307.716 146.459L305.958 156.931C301.574 151.421 299.746 145.283 299.746 145.283L302.213 145.144L307.716 146.459Z" fill="#D28572"/>
<path d="M314.306 127.186C314.306 127.186 317.299 147.852 311.552 149.406C305.804 150.958 296.227 143.672 296.227 143.672L299.1 126.469L307.482 123.721L314.306 127.186Z" fill="#FFBC96"/>
<path d="M314.305 127.186C314.305 127.186 308.917 125.036 305.324 134.233L303.529 137.339L294.668 136.383L296.104 125.153L303.886 121.33C303.886 121.33 312.627 115.476 314.303 127.184L314.305 127.186Z" fill="#222222"/>
<path d="M304.249 122.526C304.249 122.526 299.739 119.3 292.554 126.469C285.37 133.635 289.041 147.891 296.703 147.732C304.171 147.578 302.091 140.207 301.612 138.891C301.133 137.576 304.246 122.526 304.246 122.526H304.249Z" fill="#222222"/>
<path d="M305.226 140.099C306.876 139.148 307.333 136.856 306.247 134.978C305.16 133.1 302.941 132.349 301.291 133.299C299.641 134.25 299.184 136.543 300.27 138.42C301.357 140.298 303.576 141.05 305.226 140.099Z" fill="#FFBC96"/>
<path d="M304.241 138.186C304.241 138.174 304.226 136.933 303.477 136.253C303.092 135.905 302.561 135.758 301.901 135.817L301.834 135.073C302.713 134.993 303.437 135.205 303.984 135.703C304.977 136.607 304.987 138.122 304.987 138.184H304.238L304.241 138.186Z" fill="#1B1B43"/>
<path opacity="0.4" d="M309.795 141.671C311.381 141.671 312.666 140.389 312.666 138.807C312.666 137.224 311.381 135.942 309.795 135.942C308.209 135.942 306.924 137.224 306.924 138.807C306.924 140.389 308.209 141.671 309.795 141.671Z" fill="#FE5B52"/>
<path d="M291.915 130.051C292.895 126.625 290.905 123.054 287.471 122.076C284.037 121.098 280.458 123.083 279.478 126.509C278.498 129.936 280.487 133.506 283.921 134.484C287.356 135.462 290.934 133.477 291.915 130.051Z" fill="#222222"/>
<path d="M298.52 370.815C297.451 366.787 296.74 359.685 296.74 359.685L283.055 360.527L283.389 369.37C286.837 371.592 293.581 375.234 300.762 375.276C299.778 373.974 298.969 372.504 298.522 370.815H298.52Z" fill="#D28572"/>
<path d="M309.3 383.066C307.578 381.19 303.483 378.886 300.761 375.274C293.581 375.232 286.837 371.59 283.389 369.368L283.99 385.31H286.709L288.21 377.735C288.21 377.735 297.303 385.029 303.678 385.405C310.052 385.779 310.334 384.189 309.303 383.066H309.3Z" fill="#27363B"/>
<path d="M276.679 230.77C273.498 233.53 279.211 333.46 281.178 363.76L300.019 363.479L296.925 234.696L276.676 230.768L276.679 230.77Z" fill="#162226"/>
<path d="M311.176 370.815C310.107 366.787 309.396 359.685 309.396 359.685L295.711 360.527L296.045 369.37C299.494 371.592 306.237 375.234 313.418 375.276C312.434 373.974 311.625 372.504 311.179 370.815H311.176Z" fill="#FFBC96"/>
<path d="M321.955 383.066C320.232 381.19 316.137 378.886 313.416 375.274C306.235 375.232 299.491 371.59 296.043 369.368L296.645 385.31H299.364L300.864 377.735C300.864 377.735 309.958 385.029 316.332 385.405C322.706 385.779 322.988 384.189 321.957 383.066H321.955Z" fill="#27363B"/>
<path d="M282.865 232.454L293.502 363.745L313.236 364.321C313.236 364.321 314.08 258.545 309.581 234.136L282.865 232.452V232.454Z" fill="#27363B"/>
<path d="M311.55 296.408C311.505 296.408 311.46 296.408 311.415 296.403L309.453 296.239L309.515 295.494L311.478 295.658C311.889 295.691 312.266 295.424 312.366 295.023C312.429 294.771 312.374 294.51 312.217 294.306C312.059 294.101 311.82 293.979 311.56 293.977L305.23 293.877L305.243 293.13L311.572 293.23C312.062 293.237 312.514 293.464 312.811 293.852C313.108 294.238 313.213 294.734 313.093 295.207C312.913 295.922 312.276 296.413 311.55 296.413V296.408Z" fill="#485E66"/>
<path d="M292.521 154.829L293.835 148.982C293.835 148.982 300.164 151.929 304.194 155.018C305.894 156.321 306.955 158.284 307.105 160.416L307.475 165.675L296.227 162.588L292.524 154.826L292.521 154.829Z" fill="#FED3D1"/>
<path d="M363.295 219.827C356.944 219.515 352.279 217.281 348.672 213.841L348.484 204.208L364.983 205.518L369.577 209.82L363.298 219.827H363.295Z" fill="#FF9F68"/>
<path d="M324.018 217.117C324.018 217.117 331.049 215.528 331.705 202.059L325.518 206.921L324.018 217.114V217.117Z" fill="#D8D8D8"/>
<path d="M292.521 154.829L302.738 160.105C306.473 162.035 309.172 165.505 310.093 169.6C312.977 182.422 318.183 212.468 312.955 245.173C312.955 245.173 291.862 244.518 271.615 232.454L279.543 172.634C280.229 167.443 282.873 162.71 286.933 159.392L292.518 154.829H292.521Z" fill="#EB4960"/>
<path d="M325.706 201.777L344.187 202.594C346.068 202.676 347.915 203.159 349.568 204.056C352.145 205.454 354.599 207.155 356.931 209.163C358.292 210.336 358.624 212.319 357.738 213.881C357.508 214.289 357.203 214.648 356.839 214.944L354.582 216.785C354.389 216.942 354.185 217.079 353.965 217.194L350.744 218.908C350.257 219.167 349.72 219.326 349.169 219.346C347.441 219.413 343.581 219.132 340.515 215.756L316.893 213.091L320.83 204.253L325.704 201.774L325.706 201.777Z" fill="#FFBC96"/>
<path d="M364.983 205.519L353.837 201.857C353.298 201.68 352.726 201.645 352.172 201.76C349.518 202.305 341.705 204.114 343.049 206.221C344.032 207.763 351.86 205.332 351.86 205.332L364.983 205.519Z" fill="#FF9F68"/>
<path d="M338.128 216.596C337.441 216.128 337.264 215.194 337.733 214.506L339.434 212.023C339.903 211.338 340.839 211.161 341.528 211.629C342.215 212.097 342.392 213.032 341.923 213.719L340.223 216.203C339.753 216.888 338.817 217.065 338.128 216.596Z" fill="#FF9F68"/>
<path d="M340.272 217.844C339.586 217.376 339.408 216.442 339.878 215.754L342.147 212.441C342.617 211.756 343.553 211.579 344.242 212.048C344.929 212.516 345.106 213.45 344.637 214.138L342.367 217.451C341.898 218.136 340.961 218.312 340.272 217.844Z" fill="#FF9F68"/>
<path d="M342.872 219.042C342.185 218.574 342.008 217.64 342.477 216.953L344.178 214.469C344.647 213.784 345.583 213.607 346.273 214.075C346.959 214.544 347.136 215.478 346.667 216.165L344.967 218.649C344.497 219.334 343.561 219.511 342.872 219.042Z" fill="#FF9F68"/>
<path d="M347.917 216.201L347.826 216.139C347.249 215.745 346.462 215.893 346.067 216.469L344.853 218.242C344.459 218.818 344.607 219.604 345.184 219.997L345.275 220.059C345.852 220.453 346.64 220.305 347.034 219.729L348.248 217.956C348.643 217.38 348.494 216.594 347.917 216.201Z" fill="#FF9F68"/>
<path d="M301.522 165.49C301.522 165.49 308.083 161.749 309.771 197.848L331.706 202.058C328.038 206.609 325.468 211.626 324.018 217.116L305.339 215.114C302.738 214.835 300.291 213.734 298.358 211.973C296.054 209.87 294.638 206.971 294.398 203.864L291.959 172.226L301.522 165.493V165.49Z" fill="#EB4960"/>
<path d="M324.31 217.52L304.448 215.497C301.18 215.163 298.116 213.512 296.049 210.964C294.384 208.911 293.405 206.33 293.293 203.692L292.299 180.591L293.048 180.558L294.042 203.66C294.149 206.139 295.068 208.565 296.633 210.493C298.576 212.887 301.452 214.441 304.526 214.755L323.731 216.71C325.604 208.921 329.613 203.852 330.979 202.3L309.442 198.167L305.619 172.492L306.361 172.383L310.103 197.535L332.472 201.827L331.97 202.325C331.915 202.38 326.55 207.802 324.385 217.201L324.31 217.522V217.52Z" fill="white"/>
<path d="M295.595 221.571L295.428 222.299L307.746 225.123L307.913 224.395L295.595 221.571Z" fill="white"/>
<path d="M357.015 214.78L354.681 210.613L352.379 209.464L352.601 209.019L355.043 210.237L357.452 214.539L357.015 214.78Z" fill="#FF9F68"/>
<path d="M352.143 212.262L351.715 212.518L354.371 216.95L354.799 216.695L352.143 212.262Z" fill="#FF9F68"/>
<path d="M349.085 213.944L348.656 214.2L351.312 218.632L351.741 218.376L349.085 213.944Z" fill="#FF9F68"/>
<path d="M397.138 360.769L396.951 374.985L381.201 385.273H411.013L412.136 358.898L397.138 360.769Z" fill="#F4837D"/>
<path d="M397.247 374.595L396.662 375.402L401.577 378.944L402.161 378.136L397.247 374.595Z" fill="#FEFEFE"/>
<path d="M459.476 354.783L462.852 373.019L473.538 385.273H451.322L447.01 358.898L459.476 354.783Z" fill="#F4837D"/>
<path d="M462.488 372.736L458.762 376.914L459.508 377.576L463.234 373.398L462.488 372.736Z" fill="#FEFEFE"/>
<path d="M399.763 226.842C399.763 226.842 390.577 263.878 393.388 363.2H414.761C414.761 363.2 420.386 280.15 428.259 224.037L399.76 226.842H399.763Z" fill="#27363B"/>
<path d="M448.32 223.477L465.101 360.677L443.072 364.323L416.514 223.751L448.32 223.477Z" fill="#27363B"/>
<path d="M428.129 286.922L422.181 252.967L415.115 251.687L415.25 250.952L422.83 252.327L422.875 252.584L428.868 286.793L428.129 286.922Z" fill="#485E66"/>
<path d="M394.767 308.288C394.457 308.288 394.16 308.184 393.918 307.984C393.638 307.758 393.464 307.434 393.429 307.075C393.359 306.378 393.846 305.737 394.537 305.615L400.699 304.527L400.829 305.262L394.664 306.35C394.357 306.405 394.14 306.689 394.173 307C394.188 307.16 394.265 307.304 394.39 307.404C394.515 307.506 394.669 307.551 394.832 307.536L397.478 307.262L397.556 308.004L394.909 308.278C394.862 308.283 394.814 308.286 394.767 308.286V308.288Z" fill="#485E66"/>
<path d="M433.222 306.833C432.912 306.833 432.615 306.729 432.373 306.529C432.093 306.3 431.919 305.979 431.884 305.62C431.814 304.923 432.301 304.282 432.992 304.16L439.154 303.072L439.284 303.807L433.12 304.895C432.812 304.95 432.595 305.234 432.628 305.545C432.643 305.705 432.72 305.849 432.845 305.949C432.97 306.051 433.125 306.098 433.287 306.081L435.933 305.807L436.011 306.549L433.364 306.823C433.317 306.828 433.269 306.831 433.222 306.831V306.833Z" fill="#485E66"/>
<path d="M420.9 152.191L401.824 201.03L399.762 226.842L440.821 229.65L434.839 152.585L420.9 152.191Z" fill="white"/>
<path opacity="0.2" d="M400.533 195.271C403.709 195.51 406.828 195.201 409.841 194.546C412.85 193.873 415.749 192.827 418.485 191.44C419.813 190.673 421.197 189.99 422.433 189.066C423.062 188.625 423.741 188.244 424.335 187.751C424.929 187.257 425.539 186.779 426.153 186.303C426.787 185.85 427.336 185.299 427.911 184.771L429.648 183.192C430.764 182.093 431.818 180.923 432.992 179.827C432.178 181.187 431.316 182.537 430.385 183.84L428.844 185.686C428.333 186.306 427.803 186.914 427.201 187.452C424.944 189.766 422.253 191.639 419.399 193.211C416.475 194.651 413.332 195.687 410.101 196.073C406.888 196.469 403.564 196.325 400.533 195.268V195.271Z" fill="#1B1B43"/>
<path d="M420.9 152.191C420.9 152.191 413.02 163.65 405.455 246.877C405.413 247.333 404.891 247.58 404.516 247.313L391.982 238.348L402.951 167.083L420.9 152.191Z" fill="#EB4960"/>
<path d="M420.9 152.191L404.256 156.705C401.702 157.398 399.705 159.38 398.998 161.926L388.047 201.312L364.987 205.521L363.299 219.83L393.223 218.43C396.786 218.263 399.767 215.682 400.436 212.187L408.578 169.606L420.902 152.191H420.9Z" fill="#EB4960"/>
<path d="M434.84 152.585C434.84 152.585 426.084 212.793 426.333 247.169L453.798 245.923L453.851 188.124L434.84 152.585Z" fill="#EB4960"/>
<path d="M458.888 209.54L419.48 204.322C418.863 204.24 418.297 204.672 418.215 205.288L414.32 234.572C414.238 235.187 414.671 235.752 415.288 235.833L454.696 241.051C455.313 241.133 455.879 240.7 455.96 240.085L459.856 210.801C459.938 210.186 459.504 209.621 458.888 209.54Z" fill="#CBCBFF"/>
<path d="M439.286 225.011C439.268 225.011 439.251 225.011 439.233 225.009L434.17 224.339C434.065 224.324 433.972 224.271 433.908 224.187C433.843 224.102 433.815 224 433.83 223.895L434.332 220.134C434.347 220.029 434.399 219.937 434.484 219.872C434.567 219.808 434.672 219.783 434.776 219.795L439.84 220.465C439.945 220.48 440.037 220.532 440.102 220.617C440.167 220.702 440.195 220.804 440.18 220.909L439.678 224.67C439.663 224.775 439.61 224.867 439.525 224.932C439.455 224.984 439.373 225.014 439.286 225.014V225.011ZM434.339 223.858L439.193 224.501L439.665 220.946L434.811 220.303L434.339 223.858Z" fill="white"/>
<path d="M443.452 221.031L442.244 222.755C441.428 223.92 440.264 224.805 438.913 225.261C436.182 226.182 430.579 227.926 431.328 229.65C431.757 230.636 436.973 229.293 436.973 229.293C436.973 229.293 430.944 236.385 433.463 238.54C434.164 239.14 435.358 239.631 436.736 239.953C438.521 240.369 440.284 240.264 441.567 240.065C442.828 239.87 443.974 239.235 444.813 238.276C445.617 237.357 446.678 236.014 447.617 234.405C450.181 230.008 451.627 226.558 452.269 224.267L443.45 221.036L443.452 221.031Z" fill="#FF9F68"/>
<path d="M434.84 152.585L447.211 155.318C450.6 156.065 453.391 158.449 454.657 161.672L467.063 190.197C468.951 194.539 468.656 199.518 466.267 203.608L452.257 227.592L441.384 221.793L451.696 195.981L434.84 152.585Z" fill="#EB4960"/>
<path d="M426.955 161.363C423.135 161.363 420.311 159.141 420.273 159.111L420.743 158.528C420.793 158.568 425.786 162.482 431.314 159.487L431.671 160.145C430.018 161.039 428.413 161.363 426.952 161.363H426.955Z" fill="#EB4960"/>
<path d="M401.474 169.634L391.607 238.287L392.349 238.393L402.216 169.74L401.474 169.634Z" fill="white"/>
<path d="M441.728 221.94L441.039 221.646L452.727 194.357L443.965 173.579L444.657 173.288L453.54 194.359L441.728 221.94Z" fill="white"/>
<path d="M436.622 234.51L433.793 238.661L434.206 238.941L437.035 234.79L436.622 234.51Z" fill="#BC7045"/>
<path d="M439.284 235.753L436.455 239.903L436.868 240.183L439.697 236.033L439.284 235.753Z" fill="#BC7045"/>
<path d="M443.194 235.824L440.363 239.976L440.776 240.256L443.607 236.104L443.194 235.824Z" fill="#BC7045"/>
<path d="M416.998 128.903C416.998 128.903 410.861 134.151 412.789 135.9C414.716 137.649 417.348 138 417.348 138L416.998 128.903Z" fill="#925D4F"/>
<path d="M435.232 135L434.843 152.587C427.871 159.801 420.9 152.188 420.9 152.188L421.4 148.581L421.619 146.977L422.608 139.793L422.868 137.89L430.139 136.196L435.232 135Z" fill="#D28572"/>
<path d="M430.83 138.936C430.83 138.936 428.533 143.47 421.402 148.581L421.622 146.977L422.611 139.793L430.081 138.189L430.83 138.936Z" fill="#925D4F"/>
<path d="M416.648 122.78C416.648 122.78 412.616 144.474 418.051 144.123C423.487 143.774 433.656 138.174 433.656 138.174L434.884 127.852L430.325 121.029L422.435 121.203L416.648 122.778V122.78Z" fill="#D28572"/>
<path d="M429.12 133.322C429.12 133.322 433.724 141.261 436.023 140.997C438.325 140.735 442.468 126.038 437.404 119.938C432.341 113.837 420.833 117.315 419.914 117.315C418.995 117.315 413.864 117.182 410.379 117.118C410.379 117.118 413.205 127.548 424.78 124.399C424.78 124.399 426.161 129.451 428.923 130.106L429.12 133.319V133.322Z" fill="#222222"/>
<path d="M432.206 132.392C431.49 134.485 429.525 135.708 427.817 135.125C426.109 134.542 425.308 132.375 426.024 130.285C426.741 128.195 428.706 126.969 430.413 127.552C432.121 128.135 432.923 130.302 432.206 132.392Z" fill="#D28572"/>
<path opacity="0.3" d="M420.906 137.125C422.527 137.125 423.84 135.815 423.84 134.198C423.84 132.582 422.527 131.271 420.906 131.271C419.286 131.271 417.973 132.582 417.973 134.198C417.973 135.815 419.286 137.125 420.906 137.125Z" fill="#BE443D"/>
<path d="M427.656 133.541C427.644 133.486 427.334 132.181 428.058 131.092C428.52 130.395 429.287 129.954 430.333 129.785L430.453 130.522C429.621 130.657 429.025 130.988 428.683 131.506C428.138 132.325 428.383 133.354 428.383 133.367L427.656 133.544V133.541Z" fill="#1B1B43"/>
<path d="M183.032 289.411L164.191 282.209C166.274 293.287 167.392 357.847 167.547 367.43L180.635 369.901C182.845 339.448 183.035 289.411 183.035 289.411H183.032Z" fill="#FFBC96"/>
<path d="M193.909 384.06C188.094 377.043 185.565 379.287 180.596 370.122C180.609 370.053 180.621 369.973 180.636 369.901L167.548 367.43C167.56 368.202 167.568 368.625 167.568 368.625L167.193 385.46H170.756L172.819 377.884L181.35 385.46H193.005C193.727 385.46 194.373 384.615 193.914 384.06H193.909Z" fill="#FE5B52"/>
<path d="M161.278 288.945L143.673 279.108C144.133 290.37 135.911 354.416 134.68 363.92L147.274 368.246C153.863 338.429 161.278 288.942 161.278 288.942V288.945Z" fill="#FFBC96"/>
<path d="M158.364 384.169C153.625 376.389 150.796 378.245 147.203 368.463C147.226 368.396 147.251 368.319 147.273 368.249L134.679 363.922C134.58 364.689 134.525 365.108 134.525 365.108L131.721 381.713L135.246 382.226L138.382 375.027L146.474 385.275L157.26 385.427C157.974 385.531 158.739 384.787 158.361 384.171L158.364 384.169Z" fill="#FE5B52"/>
<path d="M141.131 229.649C141.131 229.649 137.193 264.72 142.819 290.534C142.819 290.534 163.912 297.268 183.034 289.411C183.034 289.411 184.722 234.138 177.13 225.721L141.133 229.649H141.131Z" fill="#27363B"/>
<path d="M162.416 284.65C151.909 284.65 142.791 283.181 142.639 283.156L142.761 282.419C143.018 282.461 168.55 286.571 183.264 280.944L183.531 281.641C177.471 283.96 169.616 284.65 162.416 284.65Z" fill="#485E66"/>
<path d="M163.05 245.223C162.821 243.511 160.801 228.486 160.801 227.736H161.55C161.55 228.266 162.891 238.425 163.794 245.123L163.053 245.223H163.05Z" fill="#485E66"/>
<path d="M179.402 303.712C179.32 303.712 177.402 303.694 176.266 302.279C175.957 301.893 176.074 301.547 176.141 301.415C176.351 300.996 176.953 300.593 179.889 300.481C181.412 300.424 182.855 300.471 182.918 300.473L182.883 301.47C180.606 301.393 177.959 301.512 177.183 301.809C178.044 302.703 179.39 302.715 179.405 302.715V303.712H179.402Z" fill="#D28572"/>
<path d="M155.434 305.705C155.351 305.705 153.434 305.687 152.298 304.273C151.988 303.886 152.105 303.54 152.173 303.408C152.382 302.99 152.984 302.586 155.92 302.474C157.443 302.417 158.887 302.464 158.949 302.467L158.914 303.463C156.637 303.386 153.99 303.505 153.214 303.802C154.075 304.696 155.421 304.708 155.436 304.708V305.705H155.434Z" fill="#D28572"/>
<path d="M171.163 165.378L177.198 172.411C179.997 175.674 181.405 179.901 181.121 184.186L179.285 211.689C179.285 211.689 179.847 225.905 181.722 228.15C183.597 230.394 178.159 232.451 170.474 233.762C162.787 235.072 138.977 234.885 137.851 231.331C136.725 227.776 142.538 225.345 140.663 216.554L144.413 176.152L149.381 167.548L162.412 166.988L171.163 165.378Z" fill="#F4837D"/>
<path d="M167.418 221.757L176.406 188.502L203.282 189.947L193.44 222.913L167.418 221.757Z" fill="#EB4960"/>
<path d="M159.598 206.642C159.598 206.642 172.769 203.274 176.424 203.977C180.079 204.679 181.627 207.203 180.923 207.905C180.219 208.608 178.673 208.466 178.673 208.466C178.673 208.466 177.969 215.059 175.44 216.041C172.908 217.022 154.16 220.295 154.16 220.295L152.098 214.917L159.598 206.64V206.642Z" fill="#FFBC96"/>
<path d="M159.603 206.642L154.157 220.3L136.7 220.435H136.642C132.4 220.435 128.588 217.819 127.092 213.859C126.293 211.726 126.226 209.392 126.912 207.215L137.149 174.725C137.194 174.568 137.252 174.411 137.307 174.254C138.195 171.987 140.086 170.248 142.448 169.563L149.376 167.556L149.296 168.071L143.469 205.892L159.6 206.645L159.603 206.642Z" fill="#F4837D"/>
<path d="M162.861 177.791C161.932 177.791 161.176 177.036 161.176 176.11C161.176 175.183 161.932 174.428 162.861 174.428C163.79 174.428 164.546 175.183 164.546 176.11C164.546 177.036 163.79 177.791 162.861 177.791ZM162.861 175.176C162.344 175.176 161.925 175.594 161.925 176.11C161.925 176.625 162.344 177.044 162.861 177.044C163.378 177.044 163.797 176.625 163.797 176.11C163.797 175.594 163.378 175.176 162.861 175.176Z" fill="white"/>
<path d="M154.412 220.674L140.699 220.637L140.702 219.889L153.902 219.924L159.058 206.991L143.001 206.241L147.578 186.923L148.307 187.095L143.938 205.536L160.144 206.293L154.412 220.674Z" fill="white"/>
<path d="M186.141 187.342L185.477 191.101L193.723 191.589L194.258 187.917L186.141 187.342Z" fill="#27363B"/>
<path d="M178.568 208.69L176.361 207.648L173.185 207.975L173.133 207.479L176.449 207.138L178.781 208.239L178.568 208.69Z" fill="#D28572"/>
<path d="M175.655 209.789L175.404 210.22L177.985 211.714L178.235 211.284L175.655 209.789Z" fill="#D28572"/>
<path d="M174.541 212.341L174.277 212.765L177.024 214.467L177.287 214.044L174.541 212.341Z" fill="#D28572"/>
<path d="M196.065 213.936C196.065 213.936 191.79 204.789 193.066 203.834C193.815 203.274 194.659 204.021 194.659 204.021C194.659 204.021 193.44 201.216 194.377 200.748C195.313 200.28 195.97 201.309 195.97 201.309C195.97 201.309 196.065 199.156 196.814 199.156C197.563 199.156 198.407 200.467 198.407 200.467C198.407 200.467 198.312 198.97 199.343 198.877C200.374 198.783 202.719 203.648 203.185 207.855C203.622 211.768 203.468 218.611 195.031 217.769L196.062 213.936H196.065Z" fill="#FFBC96"/>
<path d="M194.887 203.942L194.42 204.118L195.976 208.236L196.443 208.061L194.887 203.942Z" fill="#D28572"/>
<path d="M196.228 201.22L195.764 201.402L197.819 206.6L198.283 206.417L196.228 201.22Z" fill="#D28572"/>
<path d="M198.557 200.175L198.096 200.366L200.234 205.522L200.696 205.331L198.557 200.175Z" fill="#D28572"/>
<path d="M168.249 166.457L154.018 166.955L156.013 145.645L164.866 151.122L167.318 152.637L167.927 161.099L168.249 166.457Z" fill="#FFBC96"/>
<path d="M167.926 161.099C161.38 159.864 157.814 152.121 157.814 152.121L164.868 151.123L167.32 152.637L167.926 161.099Z" fill="#D28572"/>
<path d="M173.443 134.702C173.443 134.702 177.949 155.955 169.755 156.092C161.561 156.229 153.506 151.324 153.506 151.324L153.711 139.88L158.694 135.113L166.751 132.524L173.443 134.704V134.702Z" fill="#FFBC96"/>
<path d="M174.898 135.708C174.609 136.475 174.089 137.193 173.35 137.551C171.273 138.518 168.786 136.296 166.629 137.083C164.492 137.87 164.302 140.899 162.584 142.394C160.966 143.789 158.499 143.43 156.422 142.912L157.9 145.911C156.392 147.635 155.733 150.236 155.923 153.713C156.272 156.563 155.893 159.233 154.824 161.615C152.355 167.122 149.523 167.703 149.523 167.703L142.45 169.556C140.083 170.244 138.196 171.987 137.307 174.249C136.578 173.263 135.928 172.226 135.459 171.1C134.71 169.197 134.59 166.935 135.659 165.182C136.328 164.076 137.446 163.229 137.976 162.043C139.014 159.682 137.496 156.623 138.955 154.48C139.754 153.295 141.212 152.806 142.52 152.238C143.818 151.671 145.207 150.804 145.476 149.419C145.736 148.093 144.887 146.838 144.158 145.712C143.419 144.586 142.73 143.181 143.269 141.956C144.078 140.122 146.774 140.242 148.322 138.966C149.771 137.751 149.87 135.618 150.27 133.775C150.949 130.567 153.086 127.518 156.212 126.531C159.728 125.435 163.503 127.089 166.509 129.192C166.809 129.401 167.118 129.62 167.478 129.72C168.167 129.909 168.886 129.62 169.595 129.481C171.213 129.172 172.991 129.789 174.069 131.045C175.138 132.31 175.468 134.154 174.898 135.708Z" fill="#222222"/>
<path d="M160.2 149.163C161.932 148.06 162.324 145.585 161.076 143.634C159.828 141.683 157.413 140.996 155.681 142.099C153.949 143.202 153.557 145.677 154.804 147.628C156.052 149.578 158.468 150.266 160.2 149.163Z" fill="#FFBC96"/>
<path d="M158.491 147.324C158.491 147.309 158.424 145.951 157.562 145.194C157.113 144.8 156.514 144.631 155.777 144.691L155.715 143.946C156.664 143.866 157.455 144.1 158.062 144.636C159.163 145.607 159.238 147.224 159.24 147.294L158.491 147.324Z" fill="#1B1B43"/>
<path opacity="0.4" d="M163.006 149.04C164.028 149.04 164.857 148.213 164.857 147.194C164.857 146.175 164.028 145.348 163.006 145.348C161.985 145.348 161.156 146.175 161.156 147.194C161.156 148.213 161.985 149.04 163.006 149.04Z" fill="#FE5B52"/>
<path d="M170.35 143.993C170.824 144.332 171.251 144.716 171.656 145.134C172.058 145.553 172.435 146.001 172.739 146.537C172.814 146.674 172.881 146.818 172.934 146.98C172.984 147.142 173.034 147.324 173.004 147.55C172.986 147.662 172.941 147.79 172.861 147.894C172.782 147.999 172.677 148.073 172.579 148.121C172.482 148.168 172.38 148.193 172.297 148.206C172.22 148.218 172.145 148.228 172.07 148.235C171.473 148.29 170.901 148.268 170.322 148.193V147.924C170.879 147.829 171.448 147.76 171.978 147.65C172.043 147.635 172.107 147.62 172.17 147.603C172.225 147.585 172.265 147.573 172.292 147.555C172.347 147.513 172.335 147.518 172.345 147.463C172.347 147.408 172.332 147.304 172.292 147.199C172.255 147.092 172.197 146.98 172.137 146.865C171.888 146.409 171.546 145.964 171.211 145.52L170.17 144.187L170.355 143.993H170.35Z" fill="#D28572"/>
<path d="M167.419 144.676C167.772 144.676 168.058 144.39 168.058 144.038C168.058 143.686 167.772 143.4 167.419 143.4C167.065 143.4 166.779 143.686 166.779 144.038C166.779 144.39 167.065 144.676 167.419 144.676Z" fill="#1B1B43"/>
<path d="M173.331 144.319C173.684 144.319 173.97 144.034 173.97 143.682C173.97 143.329 173.684 143.044 173.331 143.044C172.978 143.044 172.691 143.329 172.691 143.682C172.691 144.034 172.978 144.319 173.331 144.319Z" fill="#1B1B43"/>
<path d="M167.578 142.359L165.581 142.68C165.276 142.73 164.989 142.523 164.939 142.219C164.889 141.916 165.096 141.629 165.401 141.579L167.398 141.258C167.703 141.208 167.99 141.415 168.04 141.719C168.09 142.023 167.883 142.309 167.578 142.359Z" fill="#1B1B43"/>
<path d="M173.964 142.122H172.374C172.064 142.122 171.814 141.873 171.814 141.564C171.814 141.255 172.064 141.006 172.374 141.006H173.964C174.274 141.006 174.523 141.255 174.523 141.564C174.523 141.873 174.274 142.122 173.964 142.122Z" fill="#1B1B43"/>
<path d="M166.454 148.893C166.771 149.254 167.139 149.583 167.528 149.855C167.92 150.126 168.347 150.34 168.794 150.475C169.241 150.609 169.71 150.692 170.185 150.677C170.424 150.692 170.659 150.647 170.901 150.629C171.141 150.602 171.378 150.537 171.625 150.507L171.69 150.692C171.458 150.791 171.221 150.898 170.974 150.971C170.721 151.025 170.469 151.105 170.207 151.113C169.685 151.177 169.146 151.103 168.644 150.948C168.14 150.789 167.668 150.53 167.268 150.191C166.869 149.855 166.529 149.459 166.287 148.995L166.454 148.893Z" fill="#1B1B43"/>
<path d="M162.415 166.985L157.821 173.342L149.701 167.763L149.851 167.643C152.108 165.979 153.786 163.936 154.825 161.615L162.415 166.985Z" fill="#F4837D"/>
<path d="M162.41 166.988L167.943 173.161L173.161 167.621L167.943 161.094L162.41 166.988Z" fill="#F4837D"/>
<path d="M157.908 173.863L149.164 167.859L149.589 167.244L157.728 172.831L161.883 167.077L154.43 161.951L154.854 161.335L162.939 166.895L157.908 173.863Z" fill="white"/>
<path d="M167.935 173.713L161.902 166.98L167.667 160.84L168.214 161.35L162.919 166.993L167.947 172.607L172.803 167.449L173.348 167.959L167.935 173.713Z" fill="white"/>
<path d="M572.265 385.003H1.75781V386H572.265V385.003Z" fill="#6E8F6D"/>
</svg>
