<svg width="298" height="362" viewBox="0 0 298 362" fill="none" xmlns="http://www.w3.org/2000/svg">
<g opacity="0.1">
<path d="M209.605 3.34424L3.34253 209.761C4.29745 215.659 5.53585 221.467 7.04283 227.155L227.002 7.06198C221.317 5.55398 215.513 4.31473 209.62 3.35917L209.605 3.34424Z" stroke="#260E2F" stroke-width="1.08" stroke-miterlimit="10"/>
<path d="M227.002 7.0618L7.05774 227.155C8.50504 232.605 10.1911 237.965 12.1307 243.191L243.027 12.1233C237.79 10.1823 232.448 8.51008 227.002 7.04688V7.0618Z" stroke="#260E2F" stroke-width="1.08" stroke-miterlimit="10"/>
<path d="M296.338 43.2241L43.1953 296.538C46.4032 300.346 49.7454 304.048 53.2667 307.572L307.364 53.3023C303.828 49.7936 300.143 46.4342 296.338 43.2241Z" stroke="#260E2F" stroke-width="1.08" stroke-miterlimit="10"/>
<path d="M284.431 34.0418L34.0044 284.624C36.9139 288.73 39.9577 292.701 43.1955 296.538L296.338 43.2242C292.503 39.9991 288.52 36.9383 284.431 34.0269V34.0418Z" stroke="#260E2F" stroke-width="1.08" stroke-miterlimit="10"/>
<path d="M257.858 18.394L18.3826 258.032C20.6207 262.75 23.0825 267.333 25.7235 271.798L271.615 25.7399C267.138 23.1121 262.558 20.6486 257.858 18.394Z" stroke="#260E2F" stroke-width="1.08" stroke-miterlimit="10"/>
<path d="M271.615 25.7402L25.7234 271.813C28.3046 276.217 31.0799 280.473 34.0192 284.623L284.431 34.0417C280.283 31.1003 276.016 28.3382 271.629 25.7402H271.615Z" stroke="#260E2F" stroke-width="1.08" stroke-miterlimit="10"/>
<path d="M243.027 12.1235L12.1158 243.191C13.9809 248.252 16.0847 253.194 18.3825 258.032L257.858 18.3944C253.024 16.0951 248.085 13.9899 243.027 12.1235V12.1235Z" stroke="#260E2F" stroke-width="1.08" stroke-miterlimit="10"/>
<path d="M13.3542 115.295L115.217 13.3628C68.6648 31.6081 31.5872 68.6959 13.3542 115.295V115.295Z" stroke="#260E2F" stroke-width="1.08" stroke-miterlimit="10"/>
<path d="M115.217 13.3626L13.3542 115.294C9.59423 124.91 6.5952 134.898 4.52124 145.23L145.133 4.53857C134.808 6.61394 124.811 9.60008 115.217 13.3775V13.3626Z" stroke="#260E2F" stroke-width="1.08" stroke-miterlimit="10"/>
<path d="M190.581 1.28369L1.28345 190.709C1.62662 197.159 2.3428 203.505 3.34248 209.746L209.605 3.34413C203.368 2.32884 197.012 1.6271 190.581 1.28369V1.28369Z" stroke="#260E2F" stroke-width="1.08" stroke-miterlimit="10"/>
<path d="M180.689 1C176.884 1 173.124 1.16424 169.379 1.3882L1.38794 169.493C1.14921 173.24 1 177.003 1 180.81C1 184.125 1.10445 187.425 1.28349 190.709L190.581 1.28368C187.313 1.10451 184.016 1 180.689 1V1Z" stroke="#260E2F" stroke-width="1.08" stroke-miterlimit="10"/>
<path d="M145.133 4.53856L4.52129 145.245C2.93971 153.159 1.89527 161.251 1.37305 169.493L169.379 1.38818C161.143 1.89583 153.041 2.94098 145.148 4.53856H145.133Z" stroke="#260E2F" stroke-width="1.08" stroke-miterlimit="10"/>
<path d="M357.811 150.591L150.489 358.053C156.696 359.098 162.993 359.844 169.394 360.248L359.989 169.523C359.586 163.118 358.855 156.802 357.796 150.606L357.811 150.591Z" stroke="#260E2F" stroke-width="1.08" stroke-miterlimit="10"/>
<path d="M360.377 180.81C360.377 177.018 360.213 173.255 359.989 169.508L169.394 360.232C173.124 360.471 176.884 360.621 180.689 360.621C183.941 360.621 187.164 360.531 190.372 360.352L360.109 190.5C360.273 187.29 360.377 184.065 360.377 180.81Z" stroke="#260E2F" stroke-width="1.08" stroke-miterlimit="10"/>
<path d="M360.108 190.5L190.372 360.352C198.548 359.919 206.561 358.904 214.409 357.411L357.184 214.539C358.676 206.685 359.691 198.667 360.123 190.485L360.108 190.5Z" stroke="#260E2F" stroke-width="1.08" stroke-miterlimit="10"/>
<path d="M357.184 214.554L214.409 357.425C224.48 355.514 234.268 352.767 243.683 349.243L349.008 243.848C352.529 234.441 355.259 224.647 357.184 214.554V214.554Z" stroke="#260E2F" stroke-width="1.08" stroke-miterlimit="10"/>
<path d="M349.008 243.848L243.683 349.243C292.25 331.043 330.834 292.447 349.008 243.848Z" stroke="#260E2F" stroke-width="1.08" stroke-miterlimit="10"/>
<path d="M353.991 133.301L133.196 354.245C138.851 355.798 144.611 357.067 150.474 358.052L357.796 150.591C356.796 144.723 355.528 138.96 353.991 133.301V133.301Z" stroke="#260E2F" stroke-width="1.08" stroke-miterlimit="10"/>
<path d="M326.746 76.1313L76.0803 326.967C80.1984 329.923 84.4358 332.73 88.8076 335.343L335.116 88.8672C332.505 84.4925 329.7 80.2522 326.746 76.1313Z" stroke="#260E2F" stroke-width="1.08" stroke-miterlimit="10"/>
<path d="M317.48 64.2764L64.2334 317.71C68.0381 320.965 71.9921 324.041 76.0654 326.982L326.746 76.1313C323.822 72.0553 320.733 68.0986 317.48 64.2913V64.2764Z" stroke="#260E2F" stroke-width="1.08" stroke-miterlimit="10"/>
<path d="M348.828 117.355L117.261 349.079C122.468 351.05 127.78 352.767 133.196 354.245L353.991 133.301C352.514 127.881 350.798 122.551 348.828 117.355V117.355Z" stroke="#260E2F" stroke-width="1.08" stroke-miterlimit="10"/>
<path d="M307.364 53.302L53.2518 307.572C56.7582 311.11 60.4436 314.47 64.2334 317.695L317.48 64.2761C314.257 60.4837 310.885 56.8108 307.364 53.2871V53.302Z" stroke="#260E2F" stroke-width="1.08" stroke-miterlimit="10"/>
<path d="M342.517 102.574L102.505 342.749C107.309 345.078 112.248 347.168 117.276 349.079L348.828 117.355C346.934 112.323 344.83 107.381 342.502 102.574H342.517Z" stroke="#260E2F" stroke-width="1.08" stroke-miterlimit="10"/>
<path d="M335.117 88.8672L88.8076 335.343C93.2539 338.001 97.8197 340.479 102.505 342.749L342.517 102.574C340.249 97.8853 337.772 93.3165 335.117 88.8672Z" stroke="#260E2F" stroke-width="1.08" stroke-miterlimit="10"/>
</g>
</svg>
