<svg width="483" height="374" viewBox="0 0 483 374" fill="none" xmlns="http://www.w3.org/2000/svg">
<g clip-path="url(#clip0_1248_5223)">
<path d="M293.145 371.414C293.145 371.414 340.52 348.127 348.668 335.983C356.816 323.838 344.84 323.15 344.84 323.15C344.84 323.15 365.98 302.655 363.007 294.025C360.034 285.397 349.08 293.309 349.08 293.309C349.08 293.309 362.674 263.143 356.264 260.111C344.325 254.462 327.576 286.92 327.576 286.92C327.576 286.92 331.175 272.821 322.953 273.278C310.554 273.968 311.068 305.862 311.068 305.862C311.068 305.862 309.668 293.634 302.194 297.605C288.787 304.733 293.145 371.414 293.145 371.414Z" fill="#355389"/>
<path d="M299.498 292.673C305.332 289.445 311.146 298.879 311.146 298.879C311.146 298.879 310.558 273.969 322.955 273.278C331.177 272.819 327.577 286.92 327.577 286.92C327.577 286.92 344.324 254.465 356.265 260.111L293.093 370.897C292.648 363.16 287.941 299.07 299.5 292.675L299.498 292.673Z" fill="#466EB6"/>
<path d="M294.369 371.703C294.369 371.703 333.117 376.502 343.149 372.226C353.181 367.95 345.992 362.67 345.992 362.67C345.992 362.67 367.535 358.45 369.195 351.862C370.857 345.275 360.919 345.8 360.919 345.8C360.919 345.8 381.574 332.466 378.812 327.979C373.667 319.621 349.991 333.08 349.991 333.08C349.991 333.08 357.984 325.744 352.669 322.699C344.653 318.108 331.974 338.208 331.974 338.208C331.974 338.208 332.761 333.255 326.481 332.704C315.212 331.72 294.369 371.703 294.369 371.703Z" fill="#355389"/>
<path d="M326.229 329.103C332.509 329.651 331.977 338.208 331.977 338.208C331.977 338.208 344.887 314.381 352.901 318.971C358.216 322.016 351.928 332.014 351.928 332.014C351.928 332.014 373.672 319.618 378.814 327.977L294.252 371.488C297.126 366.481 315.703 328.182 326.229 329.103Z" fill="#466EB6"/>
<path d="M193.088 370.196C193.088 370.196 145.713 346.909 137.565 334.765C129.417 322.62 141.393 321.933 141.393 321.933C141.393 321.933 120.253 301.434 123.226 292.807C126.202 284.179 137.3 292.424 137.3 292.424C137.3 292.424 123.559 261.928 129.969 258.895C141.908 253.247 158.657 285.704 158.657 285.704C158.657 285.704 155.058 271.606 163.28 272.063C175.679 272.753 175.165 304.647 175.165 304.647C175.165 304.647 176.565 292.419 184.039 296.39C197.446 303.518 193.088 370.196 193.088 370.196Z" fill="#355389"/>
<path d="M186.734 291.457C180.9 288.229 175.086 297.664 175.086 297.664C175.086 297.664 175.674 272.753 163.277 272.063C155.055 271.603 158.655 285.704 158.655 285.704C158.655 285.704 141.908 253.247 129.967 258.895L193.139 369.679C193.584 361.942 198.291 297.851 186.732 291.457H186.734Z" fill="#466EB6"/>
<path d="M191.864 370.485C191.864 370.485 153.119 375.281 143.084 371.008C133.052 366.732 140.241 361.452 140.241 361.452C140.241 361.452 118.698 357.232 117.036 350.645C115.374 344.057 125.658 344.704 125.658 344.704C125.658 344.704 104.654 331.248 107.416 326.761C112.561 318.403 136.237 331.862 136.237 331.862C136.237 331.862 128.244 324.526 133.559 321.481C141.575 316.891 154.254 336.99 154.254 336.99C154.254 336.99 153.467 332.037 159.747 331.486C171.016 330.502 191.859 370.485 191.859 370.485H191.864Z" fill="#355389"/>
<path d="M159.09 324.777C152.81 325.328 152.906 331.408 152.906 331.408C152.906 331.408 141.347 313.163 133.331 317.756C128.016 320.801 134.304 330.799 134.304 330.799C134.304 330.799 112.56 318.403 107.418 326.761L191.98 370.272C189.104 365.266 169.615 323.856 159.09 324.777Z" fill="#466EB6"/>
<path d="M418.116 257.038C419.282 254.242 420.468 251.44 423.492 250.024C425.941 248.877 428.496 249.309 430.67 250.94C436.833 255.559 431.462 260.649 438.477 269.409C440.656 272.131 443.293 274.329 444.602 277.516C446.43 281.979 444.253 284.124 440.763 286.263C424.067 296.492 415.316 275.488 415.631 270.685C415.865 267.11 417.367 258.84 418.118 257.041L418.116 257.038Z" fill="#13375B"/>
<path d="M408.062 350.18C408.884 353.893 410.18 357.138 410.355 357.521C410.439 357.704 411.206 358.359 411.3 358.546C411.058 363.116 408.24 365.923 405.572 367.945C406.087 365.629 407.316 362.946 407.128 362.441C406.827 361.637 405.644 357.96 403.23 353.37C405.499 353.035 406.26 351.629 408.064 350.183L408.062 350.18Z" fill="#F7A491"/>
<path d="M418.367 295.905L432.579 306.667C432.579 306.667 425.54 313.417 422.901 315.924C420.261 318.433 403.972 330.114 403.743 330.687C403.573 331.113 407.449 344.542 409.949 351.711C408.447 353.241 405.138 354.743 403.181 355.238C398.252 345.864 392.199 329.868 392.199 327.695C392.199 324.158 418.367 295.903 418.367 295.903V295.905Z" fill="#355389"/>
<path d="M458.237 317.375C457.771 317.827 454.686 323.818 453.513 327.025C451.794 325.947 450.756 324.66 448.834 323.935C450.349 321.75 453.304 316.492 453.546 315.238C454.121 312.27 454.798 311.831 454.798 311.831C454.798 311.831 464.784 315.198 465.449 316.142C466.113 317.086 460.103 315.558 458.237 317.373V317.375Z" fill="#F7A491"/>
<path d="M453.432 315.898C452.658 315.898 453.498 312.409 453.676 311.605C453.877 310.701 454.401 310.43 454.531 310.397C454.885 310.311 465.984 314.054 467.857 315.396C467.984 315.487 468.211 315.774 468.247 315.84C469.272 317.751 460.124 318.114 458.808 317.279C457.637 316.535 456.914 315.888 453.429 315.898H453.432Z" fill="#3C8F7C"/>
<path d="M415.33 299.082C415.33 299.082 427.734 294.086 427.737 294.086C427.689 294.109 427.811 294.588 427.821 294.626C428.984 299.143 435.193 297.4 437.756 305.243C439.566 310.785 442.218 331.512 442.218 331.512C442.218 331.512 444.097 327.949 449.934 321.392C450.387 320.885 456.137 324.82 456.137 324.82C451.861 336.122 441.358 345.306 439.938 344.656C430.331 340.264 418.792 305.596 418.807 305.599C417.715 303.477 415.333 299.08 415.333 299.08L415.33 299.082Z" fill="#466EB6"/>
<path d="M414.872 262.6C414.872 262.6 409.053 253.417 408.042 250.362C407.029 247.309 408.035 232.757 408.129 231.724C408.226 230.689 411.741 227.864 411.189 227.05C410.634 226.238 405.78 225.575 404.965 225.733C404.15 225.89 402.567 225.745 401.918 226.4C401.834 226.486 403.463 230.316 403.43 230.909C403.198 234.964 400.89 247.873 401.646 251.362C402.516 255.376 411.156 268.201 411.156 268.201L414.875 262.595L414.872 262.6Z" fill="#F7A491"/>
<path d="M436.003 267.949C436.003 267.949 451.568 268.335 454.987 268.614C458.406 268.893 470.805 267.866 471.286 267.81C471.767 267.754 474.944 262.392 475.471 262.968C475.998 263.544 473.704 265.627 474.412 266.168C475.122 266.708 482.749 265.498 482.647 266.061C482.458 267.112 478.009 266.98 478.011 267.487C478.016 267.995 482.667 267.203 482.985 268.046C483.301 268.888 478.51 268.391 478.319 268.766C478.128 269.142 482.764 269.832 482.288 270.616C482.031 271.042 478.182 269.906 478.2 270.487C478.217 271.068 481.028 272.387 480.682 272.849C480.338 273.311 478.477 271.431 476.848 271.408C475.219 271.385 474.05 270.538 471.451 271.248C468.85 271.959 459.984 275.524 454.435 275.26C448.885 274.998 436.621 274.453 436.621 274.453L436 267.954L436.003 267.949Z" fill="#F7A491"/>
<path d="M413.157 284.154C412.946 281.594 412.587 274.689 412.701 273.839C411.925 271.18 409.092 267.239 408.496 266.125C408.496 266.125 412.34 261.783 415.188 261.822C415.188 261.822 418.22 265.638 420.47 266.808C420.503 266.8 421.267 267.148 421.603 267.145C423.777 267.13 431.368 266.902 432.785 267.323L431.984 279.018C431.576 279.688 431.08 293.137 430.24 294.243C429.4 295.35 417.179 300.389 415.153 299.09C415.071 299.039 413.582 289.331 413.154 284.157L413.157 284.154Z" fill="#50BFA5"/>
<path d="M428.835 267.594C430.235 266.927 440.465 266.95 440.465 266.95C440.465 266.95 441.88 273.984 440.737 275.676C440.737 275.676 431.675 277.021 431.932 277.762L428.832 267.597L428.835 267.594Z" fill="#50BFA5"/>
<path d="M426.559 262.839C426.559 262.839 425.772 266.896 425.93 268.498C426.088 270.099 425.329 275.255 421.931 275.273C418.533 275.29 421.284 268.716 421.605 267.148C421.926 265.579 422 260.725 422 260.725L426.556 262.841L426.559 262.839Z" fill="#F7A491"/>
<path d="M421.932 263.159C421.985 261.832 422.003 260.723 422.003 260.723L426.559 262.839C426.559 262.839 426.399 263.669 426.236 264.727C424.243 265.125 422.797 264.389 421.932 263.159Z" fill="#F47458"/>
<path d="M428.223 251.641C428.223 251.641 429.979 252.613 430.621 254.716C431.262 256.82 430.531 262.253 425.995 263.562C421.459 264.874 419.494 260.573 420.428 257.211C421.363 253.849 423.394 249.591 428.223 251.641Z" fill="#F7A491"/>
<path d="M419.863 255.906C419.952 256.81 420.451 257.5 420.981 257.449C421.508 257.399 421.864 256.625 421.775 255.721C421.686 254.818 421.187 254.128 420.657 254.178C420.131 254.229 419.774 255.003 419.863 255.906Z" fill="#F7A491"/>
<path d="M410.395 357.63C410.657 356.905 413.628 359.089 414.325 359.528C415.109 360.023 415.188 360.607 415.173 360.741C415.134 361.094 408.091 370.379 405.983 371.701C405.785 371.825 405.357 371.843 405.23 371.8C404.018 371.381 405.708 363.926 407.226 362.411C408.206 361.432 409.219 360.899 410.395 357.628V357.63Z" fill="#3C8F7C"/>
<path d="M436.239 218.894L423.743 223.322C423.107 223.548 422.623 224.073 422.448 224.725L419.026 237.532C418.589 239.174 416.453 239.6 415.417 238.25L407.325 227.732C406.912 227.197 406.263 226.897 405.589 226.933L392.342 227.621C390.644 227.71 389.577 225.811 390.539 224.408L398.036 213.479C398.418 212.923 398.502 212.213 398.257 211.581L393.492 199.2C392.881 197.612 394.355 196.016 395.987 196.498L408.712 200.261C409.361 200.454 410.061 200.314 410.585 199.888L420.885 191.547C422.206 190.476 424.184 191.39 424.229 193.09L424.599 206.346C424.616 207.021 424.968 207.645 425.535 208.013L436.667 215.24C438.095 216.166 437.843 218.328 436.239 218.894Z" fill="#F7CC7F"/>
<path d="M411.105 227.182C411.571 227.864 409.046 230.026 408.346 231.219L406.76 229.065C407.541 228.912 410.573 226.4 411.105 227.179V227.182Z" fill="#F7A491"/>
<path d="M427.691 251.367C427.691 251.367 428.514 257.426 430.479 258.517C432.444 259.611 431.622 262.298 431.622 262.298C431.622 262.298 433.404 256.059 431.851 254.054C430.298 252.049 427.691 251.367 427.691 251.367Z" fill="#13375B"/>
<path d="M429.316 259.388C428.784 260.177 428.784 261.108 429.321 261.466C429.856 261.824 430.721 261.476 431.256 260.687C431.788 259.898 431.788 258.966 431.251 258.609C430.716 258.248 429.851 258.598 429.316 259.388Z" fill="#F7A491"/>
<path d="M407.289 227.689C407.302 227.704 407.315 227.717 407.325 227.732L407.9 228.478C407.478 228.364 406.671 228.138 405.887 228.671C405.887 228.671 406.146 228.118 407.289 227.689Z" fill="#F47257"/>
<path d="M65.7938 295.007C65.9466 295.07 63.7701 297.867 61.6497 299.846C59.9391 301.985 58.3354 304.518 57.7831 307.278C56.943 311.476 57.6431 332.217 56.9125 333.694C50.6378 339.809 46.094 355.159 44.8162 359.841C44.5667 360.754 44.0627 361.576 43.3652 362.216L43.6452 367.507L46.7635 370.369C46.7635 370.369 46.0711 366.058 47.4559 362.858C47.4559 362.858 63.2559 339.005 64.1927 337.181C65.9847 331.989 72.5089 305.385 72.5089 305.385L74.0235 299.27C74.0235 299.27 65.804 295.007 65.7913 295.002L65.7938 295.007Z" fill="#F7A491"/>
<path d="M39.9492 363.918C39.9492 363.918 41.922 366.951 42.0925 368.131C42.2606 369.313 43.3119 371.993 44.4752 372.16C44.7399 372.198 49.2607 372.531 49.2276 371.967C49.2022 371.536 47.5654 370.922 46.8069 370.399C45.4934 369.496 43.4544 362.129 43.4544 362.129C43.4544 362.129 40.0383 362.974 39.9518 363.918H39.9492Z" fill="#F47458"/>
<path d="M79.2989 304.198C79.2989 304.198 89.4759 325.888 89.5395 329.702C89.5955 332.971 87.7602 351.312 88.2719 366.585C88.2897 367.136 88.9897 367.869 90.0105 368.336C90.5832 368.597 93.3553 369.833 93.3553 369.833L93.7371 370.82L84.1914 370.143L84.0565 367.544C84.0565 367.544 80.2586 344.697 80.6455 338.233C80.7066 337.218 81.2004 331.141 81.2004 331.141L69.7227 309.052L76.9418 299.597L79.2964 304.198H79.2989Z" fill="#F7A491"/>
<path d="M80.2536 255.513C78.711 251.417 74.684 248.938 70.4889 249.705C69.2009 247.634 67.055 246.096 64.7208 245.596C60.1134 244.612 53.8871 246.426 54.0551 251.288C52.2681 254.554 52.1994 259.223 54.9333 261.707C53.9812 266.099 58.1075 270.345 63.4735 270.19C65.3419 273.26 68.9005 275.235 72.4388 274.813C73.289 274.712 74.5847 274.501 74.7985 274.554C74.5287 274.504 80.4827 279.056 85.5279 272.058C90.6775 264.917 87.0577 256.272 80.2561 255.51L80.2536 255.513Z" fill="#355389"/>
<path d="M79.6444 230.947C79.8939 230.361 80.1993 229.8 80.5608 229.275L80.9579 228.697C81.0063 228.595 81.0444 228.509 81.0648 228.45C81.2379 227.938 81.1055 226.291 81.1055 226.291L77.6233 227.131L76.8596 229.133C76.0858 228.775 74.7621 226.091 74.2784 226.735C73.7083 227.496 75.8592 230.798 76.0272 231.693C76.1978 232.587 74.1792 246.467 73.5937 249.223C73.0108 251.978 69.0703 259.672 69.0703 259.672L72.6722 264.229C72.6722 264.229 78.448 252.499 78.8273 248.918C78.868 248.543 78.9113 247.977 78.9597 247.279L79.6368 230.95L79.6444 230.947Z" fill="#F7A491"/>
<path d="M55.6451 274.407L51.366 270.791C51.366 270.791 47.9016 276.549 45.127 281.243C42.3753 280.251 35.2605 275.628 34.9092 275.417C34.558 275.204 33.779 269.979 33.1757 270.258C32.5725 270.535 33.639 273.017 32.9085 273.202C32.1779 273.387 26.6999 269.738 26.5879 270.225C26.3767 271.136 29.8564 272.59 29.6807 272.996C29.5051 273.402 26.1832 271.134 25.6537 271.7C25.1243 272.266 28.9909 273.545 29.0113 273.915C29.0316 274.286 25.221 273.212 25.3203 274.009C25.3737 274.44 28.7313 274.877 28.52 275.339C28.3087 275.798 25.6945 275.874 25.8039 276.366C25.9134 276.859 27.9854 275.998 29.2506 276.552C30.5157 277.105 31.7044 276.833 33.471 278.318C35.2351 279.8 43.9128 288.27 46.6186 287.542C48.9783 286.907 55.6451 274.407 55.6451 274.407Z" fill="#F7A491"/>
<path d="M55.9727 330.256C55.9727 330.256 55.9757 330.259 55.9787 330.256H55.9727Z" fill="#F47458"/>
<path d="M70.5295 269.028C70.8045 267.361 73.3933 263.187 73.8005 262.164C73.8005 262.164 70.7994 258.36 68.3633 258.649C68.3633 258.649 65.0898 264.062 63.2264 264.242C61.3657 264.425 54.816 264.707 53.668 265.402C52.52 266.097 47.6504 273.55 47.6504 273.55C47.6504 273.55 52.0261 278.006 53.7876 277.996C53.7876 277.996 54.7244 276.158 55.096 275.757C55.3608 276.61 59.4387 289.782 59.4336 292.764L59.4642 292.789C63.2773 295.872 68.8393 295.159 71.7768 291.211C71.7768 291.211 71.4307 287.105 71.6267 283.319C71.9347 277.387 73.1387 274.235 70.527 269.025L70.5295 269.028Z" fill="#F47458"/>
<path d="M91.7544 319.979L71.7797 291.213C70.5477 291.711 69.3844 292.145 68.0658 292.396C65.2021 292.947 62.3333 292.858 59.4339 292.764C59.4339 292.87 59.4288 292.967 59.4161 293.045C59.0826 295.418 55.9262 299.09 55.2771 306.286C54.5389 314.455 54.9843 328.644 55.2363 329.576C68.5163 327.967 87.9845 323.919 91.7544 319.976V319.979Z" fill="#466EB6"/>
<path d="M80.1053 228.785C80.1053 228.785 78.8504 229.623 77.7838 229.354C76.7173 229.082 76.2285 228.689 76.2285 228.689C76.2285 228.689 76.8165 229.76 77.6871 230.227C79.189 231.031 80.1053 228.785 80.1053 228.785Z" fill="#F47458"/>
<path d="M55.3378 222.853L66.9505 220.465C67.5411 220.343 68.1546 220.533 68.5873 220.97L77.0791 229.577C78.1686 230.681 79.9989 230.008 80.177 228.438L81.5618 216.199C81.6331 215.575 81.9946 215.029 82.5266 214.738L93.0014 209.005C94.3454 208.269 94.292 206.25 92.9123 205.585L82.1549 200.411C81.6076 200.147 81.2182 199.619 81.1163 199.002L79.0978 186.853C78.8381 185.295 76.9748 184.719 75.9464 185.878L67.9127 194.917C67.5029 195.376 66.9022 195.6 66.3065 195.508L54.5844 193.732C53.08 193.504 51.9828 195.168 52.7236 196.549L58.5147 207.31C58.8099 207.858 58.8278 208.523 58.5605 209.084L53.3345 220.135C52.6651 221.553 53.8487 223.157 55.3378 222.85V222.853Z" fill="#F7CC7F"/>
<path d="M59.8574 259.446C59.8574 259.446 60.56 263.217 60.42 264.706C60.28 266.193 60.9545 270.989 63.9888 271.004C67.0231 271.02 64.5641 264.909 64.279 263.45C63.9939 261.994 63.9252 257.479 63.9252 257.479L59.8574 259.446Z" fill="#F7A491"/>
<path d="M63.9868 259.743C63.9385 258.51 63.9232 257.479 63.9232 257.479L59.8555 259.446C59.8555 259.446 59.998 260.217 60.1431 261.199C61.925 261.57 63.213 260.887 63.9868 259.743Z" fill="#F47458"/>
<path d="M58.3689 249.037C58.3689 249.037 56.8009 249.941 56.2282 251.897C55.6554 253.853 56.3071 258.903 60.357 260.121C64.4069 261.339 66.1608 257.343 65.3259 254.216C64.4909 251.09 62.6785 247.132 58.3689 249.04V249.037Z" fill="#F7A491"/>
<path d="M65.8347 253.003C65.7558 253.843 65.3103 254.485 64.8394 254.437C64.3685 254.389 64.0503 253.671 64.1292 252.831C64.2081 251.991 64.6536 251.349 65.1245 251.397C65.5954 251.445 65.9136 252.163 65.8347 253.003Z" fill="#F7A491"/>
<path d="M57.3969 256.239C57.8729 256.972 57.8704 257.837 57.3918 258.172C56.9133 258.505 56.142 258.183 55.666 257.449C55.19 256.716 55.1925 255.851 55.6711 255.516C56.1496 255.183 56.9209 255.505 57.3969 256.241V256.239Z" fill="#F7A491"/>
<path d="M80.6923 224.18C79.9083 224.028 76.5838 226.628 76.6118 227.017C76.6424 227.42 79.8853 225.758 79.977 226.022C80.0483 226.23 76.3471 227.197 76.5405 227.567C76.6729 227.821 79.9948 227.123 80.0839 227.286C80.2214 227.539 77.3118 227.649 77.5002 227.928C77.7166 228.252 80.4886 228.121 80.4886 228.121C80.4886 228.121 81.0461 227.225 81.1047 226.89C81.1301 226.748 81.1301 226.547 81.1174 226.319C81.1072 226.134 81.1887 225.976 81.1632 225.768C81.0588 224.931 81.1276 224.264 80.6948 224.18H80.6923Z" fill="#F7A491"/>
<path d="M76.2635 226.169L75.0263 227.694L74.2092 227.088C74.2092 227.088 74.1405 226.961 74.2372 226.75C74.3314 226.54 76.2355 225.606 76.2635 226.172V226.169Z" fill="#F7A491"/>
<path d="M84.163 371.955H96.2212C96.6666 371.914 96.7761 371.556 96.6208 371.335C96.3026 370.879 94.8949 370.546 93.3142 369.821C90.5421 370.107 84.5016 368.219 84.0637 367.585C83.8117 368.854 83.9136 371.901 84.163 371.955Z" fill="#F47458"/>
<path d="M75.115 227.587C75.115 227.587 76.7517 228.585 77.4288 229.749C78.1059 230.914 77.7928 231.878 77.7928 231.878L74.9902 228.44L75.115 227.587Z" fill="#F7A491"/>
<path d="M314.764 91.6173C314.471 92.9799 314.209 94.3908 313.497 95.5352C312.272 97.0095 311.116 98.5295 310.019 100.09C310.775 100.037 311.534 100.001 312.303 100.001C319.855 100.001 326.881 102.653 332.086 107.464C336.742 111.765 339.303 117.279 339.303 122.991C339.303 128.703 336.74 134.215 332.086 138.518C326.878 143.332 319.853 145.981 312.303 145.981C304.753 145.981 297.763 143.345 292.56 138.554C292.18 139.673 291.804 140.782 291.427 141.898C288.881 143.185 287.092 146.215 287.092 149.747C287.092 154.446 290.256 158.258 294.158 158.258C297.228 158.258 299.832 155.898 300.807 152.604C304.399 153.797 308.265 154.454 312.303 154.454C331.104 154.454 346.344 140.366 346.344 122.989C346.344 105.612 332.415 92.782 314.767 91.6147L314.764 91.6173Z" fill="#E0973F"/>
<path d="M162.102 91.6173C162.395 92.9799 162.657 94.3908 163.369 95.5352C164.594 97.0095 165.75 98.5295 166.847 100.09C166.091 100.037 165.332 100.001 164.563 100.001C157.011 100.001 149.985 102.653 144.78 107.464C140.124 111.765 137.56 117.279 137.56 122.991C137.56 128.703 140.124 134.215 144.78 138.518C149.988 143.332 157.013 145.981 164.563 145.981C172.113 145.981 179.103 143.345 184.306 138.554C184.686 139.673 185.062 140.782 185.439 141.898C187.985 143.185 189.774 146.215 189.774 149.747C189.774 154.446 186.61 158.258 182.708 158.258C179.638 158.258 177.034 155.898 176.056 152.604C172.465 153.797 168.598 154.454 164.561 154.454C145.76 154.454 130.52 140.366 130.52 122.989C130.52 105.612 144.449 92.782 162.097 91.6147L162.102 91.6173Z" fill="#E0973F"/>
<path d="M319.662 88.0342V96.7201C319.662 135.978 287.729 167.811 248.347 167.811C230.208 167.57 217.763 169.44 200.54 161.84C175.726 150.993 157.861 126.138 157.861 96.7201V88.0342H319.665H319.662Z" fill="#F7CC7F"/>
<path d="M200.539 161.841L200.593 161.863L226.229 88.0317H199.542L178.994 147.219C185.2 153.347 192.506 158.326 200.539 161.838V161.841Z" fill="#FAE0B2"/>
<path d="M217.215 166.822L244.267 88.0317H230.862L204.918 163.609C209.22 165.188 213.257 166.19 217.218 166.819L217.215 166.822Z" fill="#FAE0B2"/>
<path d="M176.392 144.517L196.622 88.0342H190.248L171.945 139.14C173.34 141.007 174.824 142.801 176.392 144.517Z" fill="#FAE0B2"/>
<path d="M312.595 83.1089H165.329C159.953 83.1089 155.572 86.0905 155.264 89.8485H322.662C322.354 86.0905 317.971 83.1089 312.597 83.1089H312.595Z" fill="#F7CC7F"/>
<path d="M211.416 165.733L219.75 208.373H256.184L266.509 165.733H211.416Z" fill="#F7CC7F"/>
<path d="M266.511 165.736L264.182 175.358H213.299L211.418 165.736H266.511Z" fill="#B75742"/>
<path d="M266.511 261.124H211.418L215.547 239.958L219.744 218.48H256.189L261.389 239.958L266.511 261.124Z" fill="#F7CC7F"/>
<path d="M266.511 261.123H211.418L215.547 239.958H261.389L266.511 261.123Z" fill="#B75742"/>
<path d="M213.355 208.374H262.576C264.744 208.374 266.506 210.13 266.506 212.292V214.56C266.506 216.722 264.744 218.481 262.573 218.481H213.353C211.184 218.481 209.42 216.725 209.42 214.56V212.289C209.42 210.127 211.181 208.371 213.35 208.371L213.355 208.374Z" fill="#FAE0B2"/>
<path d="M207.776 244.312H268.291C269.548 244.312 270.572 245.33 270.572 246.586V258.238H205.498V246.586C205.498 245.333 206.519 244.312 207.779 244.312H207.776Z" fill="#F7CC7F"/>
<path d="M292.076 266.562V270.797H183.99V266.562C183.99 261.679 186.979 257.718 190.662 257.718H285.404C289.087 257.718 292.076 261.679 292.076 266.562Z" fill="#F7CC7F"/>
<path d="M209.437 257.718L206.018 270.797H201.508L204.926 257.718H209.437Z" fill="#FAE0B2"/>
<path d="M202.979 257.718L199.561 270.797H195.045L198.469 257.718H202.979Z" fill="#FAE0B2"/>
<path d="M215.181 257.718L211.762 270.797H207.244L210.67 257.718H215.181Z" fill="#FAE0B2"/>
<path d="M332.319 367.565V371.8H151.205V367.565C151.205 362.683 156.212 358.722 162.382 358.722H321.142C327.312 358.722 332.319 362.683 332.319 367.565Z" fill="#F7CC7F"/>
<path d="M193.844 358.722L188.114 371.8H180.557L186.287 358.722H193.844Z" fill="#FAE0B2"/>
<path d="M183.024 358.722L177.294 371.8H169.727L175.464 358.722H183.024Z" fill="#FAE0B2"/>
<path d="M203.468 358.722L197.738 371.8H190.17L195.91 358.722H203.468Z" fill="#FAE0B2"/>
<path d="M285.099 157.676V160.874C285.099 166.41 280.604 170.892 275.057 170.892H202.505C196.95 170.892 192.455 166.41 192.455 160.874V157.676H285.099Z" fill="#F7CC7F"/>
<path d="M307.189 358.722H170.895L172.557 270.799H305.362L307.189 358.722Z" fill="#3C8F7C"/>
<path d="M274.777 358.722H203.307L204.177 270.799H273.82L274.777 358.722Z" fill="#50BFA5"/>
<path d="M454.444 371.8H1.02585C0.458194 371.8 0 372.257 0 372.822C0 373.388 0.460739 373.845 1.02585 373.845H454.444C455.012 373.845 455.47 373.388 455.47 372.822C455.47 372.257 455.009 371.8 454.444 371.8Z" fill="#184655"/>
<path d="M260.965 356.078L250.157 338.487L234.275 351.708L250.618 252.511L277.307 256.881L260.965 356.078Z" fill="#B75742"/>
<path d="M310.337 351.66L294.423 338.475L283.655 356.09L267.084 256.929L293.764 252.499L310.337 351.66Z" fill="#B75742"/>
<path d="M332.319 275.344C332.319 281.074 327.251 285.938 325.565 291.107C323.819 296.466 324.993 303.358 321.737 307.819C318.448 312.326 311.489 313.325 306.968 316.604C302.493 319.849 299.405 326.158 294.029 327.898C288.841 329.578 282.648 326.338 276.898 326.338C271.147 326.338 264.954 329.576 259.766 327.898C254.39 326.158 251.302 319.849 246.827 316.604C242.309 313.325 235.347 312.323 232.058 307.819C228.803 303.358 229.976 296.466 228.23 291.107C226.545 285.935 221.477 281.074 221.477 275.344C221.477 269.614 226.545 264.75 228.23 259.581C229.976 254.222 228.803 247.33 232.058 242.869C235.347 238.365 242.307 237.362 246.827 234.084C251.302 230.838 254.39 224.53 259.766 222.789C264.954 221.109 271.147 224.35 276.895 224.35C282.643 224.35 288.839 221.112 294.026 222.792C299.403 224.533 302.49 230.841 306.965 234.086C311.484 237.365 318.446 238.367 321.734 242.871C324.99 247.332 323.817 254.224 325.563 259.583C327.248 264.755 332.316 269.617 332.316 275.346L332.319 275.344Z" fill="#F47458"/>
<path d="M290.71 324.374C288.966 324.374 286.94 323.93 284.794 323.46C282.261 322.905 279.64 322.331 276.901 322.331C274.162 322.331 271.54 322.905 269.004 323.46C266.858 323.93 264.832 324.374 263.089 324.374C262.287 324.374 261.61 324.28 261.011 324.087C258.794 323.369 256.809 321.121 254.704 318.738C253.036 316.85 251.313 314.901 249.198 313.366C247.052 311.811 244.639 310.763 242.304 309.75C239.4 308.491 236.658 307.301 235.314 305.462C233.993 303.652 233.703 300.699 233.395 297.57C233.146 295.032 232.886 292.409 232.061 289.871C231.267 287.433 229.953 285.225 228.683 283.088C227.049 280.34 225.504 277.742 225.504 275.344C225.504 272.946 227.049 270.35 228.683 267.602C229.953 265.465 231.267 263.258 232.061 260.819C232.888 258.279 233.148 255.655 233.398 253.118C233.706 249.991 233.996 247.035 235.317 245.229C236.661 243.389 239.402 242.199 242.307 240.94C244.641 239.928 247.057 238.882 249.203 237.324C251.318 235.789 253.044 233.838 254.709 231.952C256.814 229.57 258.802 227.319 261.016 226.603C261.612 226.41 262.292 226.316 263.094 226.316C264.837 226.316 266.864 226.76 269.009 227.23C271.545 227.786 274.164 228.359 276.906 228.359C279.647 228.359 282.266 227.786 284.802 227.23C286.948 226.76 288.974 226.316 290.718 226.316C291.519 226.316 292.199 226.41 292.795 226.603C295.012 227.321 297 229.572 299.103 231.955C300.77 233.84 302.493 235.792 304.609 237.327C306.754 238.882 309.168 239.93 311.502 240.943C314.406 242.201 317.148 243.391 318.492 245.231C319.813 247.04 320.103 249.994 320.411 253.123C320.661 255.66 320.92 258.284 321.745 260.822C322.539 263.26 323.853 265.47 325.123 267.604C326.757 270.353 328.302 272.951 328.302 275.346C328.302 277.742 326.757 280.34 325.123 283.091C323.853 285.225 322.539 287.435 321.745 289.874C320.918 292.414 320.658 295.038 320.409 297.572C320.101 300.699 319.81 303.655 318.489 305.464C317.145 307.306 314.404 308.494 311.499 309.753C309.165 310.765 306.749 311.811 304.603 313.369C302.488 314.904 300.765 316.855 299.097 318.74C296.992 321.123 295.004 323.374 292.79 324.09C292.194 324.282 291.514 324.376 290.713 324.376L290.71 324.374Z" fill="#F7CC7F"/>
<path d="M316.885 280.921C319.973 258.908 304.575 238.568 282.493 235.49C260.411 232.412 240.007 247.762 236.919 269.775C233.831 291.787 249.229 312.127 271.311 315.205C293.393 318.283 313.797 302.934 316.885 280.921Z" fill="#F47458"/>
<path d="M276.899 313.582C298.084 313.582 315.258 296.462 315.258 275.344C315.258 254.226 298.084 237.106 276.899 237.106C255.715 237.106 238.541 254.226 238.541 275.344C238.541 296.462 255.715 313.582 276.899 313.582Z" fill="white"/>
<path d="M311.511 278.763C313.402 259.71 299.44 242.736 280.327 240.851C261.213 238.966 244.186 252.883 242.295 271.937C240.404 290.99 254.366 307.964 273.479 309.849C292.593 311.734 309.62 297.816 311.511 278.763Z" fill="#F7CC7F"/>
<path d="M258.122 289.978L259.415 280.249H255.332V277.321H259.863L260.81 270.124H256.528V267.196H261.258L262.551 257.716H265.438L264.193 267.196H269.371L270.664 257.716H273.601L272.356 267.196H276.439V270.124H271.908L271.012 277.321H275.294V280.249H270.564L269.269 289.978H266.283L267.576 280.249H262.398L261.105 289.978H258.119H258.122ZM268.029 277.321L268.976 270.124H263.798L262.851 277.321H268.029Z" fill="white"/>
<path d="M289.989 261.788H289.889L284.264 264.816L283.416 261.489L290.485 257.718H294.219V289.98H289.989V261.788Z" fill="white"/>
<path d="M317.294 31.1101C316.914 32.6656 316.229 35.1244 316.229 35.1244C316.283 35.7994 316.484 38.6135 316.723 42.062L311.64 40.0345C311.64 40.0345 311.701 34.4165 311.474 34.0714C311.284 33.7795 310.96 34.1424 309.402 31.9195C308.952 31.2775 308.868 30.1306 308.868 30.1306C308.868 30.1306 308.776 28.7197 309.092 28.5878C309.41 28.4558 309.774 28.6664 309.889 28.91C310.003 29.1536 309.975 29.722 310.09 29.9656C310.204 30.2092 310.94 30.5036 311.25 30.4884C311.561 30.4731 311.212 26.3141 311.212 26.3141C311.212 26.3141 311.039 25.1342 310.953 24.7485C310.879 24.4186 310.578 23.4544 310.578 23.4544C310.578 23.4544 310.227 22.0537 310.662 21.9471C310.92 21.8836 311.574 23.0205 312.024 24.2283C312.508 25.5275 312.783 26.9054 312.92 26.8876C313.246 26.8445 313.073 24.5633 313.073 24.5633C313.073 24.5633 312.75 23.5178 312.757 23.0255C312.452 22.4216 312.248 21.3025 312.788 21.2087C312.887 21.1909 313.595 22.6144 313.595 22.6144C313.595 22.6144 313.872 23.6168 314.035 24.0837C314.32 24.9109 314.364 26.2152 314.514 26.7887C314.639 27.2683 314.751 27.0703 314.801 27.0906C314.842 27.1059 314.771 26.4461 314.692 25.5402C314.651 25.0835 314.705 24.5556 314.577 24.0355C314.458 23.5533 314.392 22.8631 314.361 22.447C314.275 21.267 315.018 21.3888 315.277 22.4673C315.374 22.8783 315.479 23.3275 315.58 23.7817C315.98 25.5504 315.97 27.253 316.161 27.2683C316.408 27.286 316.245 24.1852 316.245 24.1852C316.245 24.1852 316.627 22.4673 317.003 24.0608C317.444 25.9107 317.398 27.418 317.39 27.4839C317.35 27.9356 317.678 29.5495 317.299 31.105L317.294 31.1101Z" fill="#F8A492"/>
<path d="M316.962 37.9056C316.962 37.9056 311.235 36.5378 311.179 36.9971C309.975 47.0432 309.435 50.6744 309.231 50.7809C308.537 51.1362 299.334 42.7471 297.693 42.1787C296.909 41.9072 296.053 41.9529 295.236 41.9757C293.284 42.0341 292.899 42.0392 292.899 42.0392C292.843 42.0417 292.828 42.0443 292.828 42.0443L292.838 43.8738C295.038 45.8455 300.073 75.7222 300.495 75.7019C300.969 75.6791 310.919 78.176 310.744 77.3412C310.716 77.2067 303.998 71.7256 302.091 63.8162C301.452 61.1619 301.137 58.3021 300.788 55.8002C302.997 56.904 311.634 61.1416 313.001 60.5808C317.257 58.8401 316.957 37.903 316.957 37.903L316.962 37.9056Z" fill="#3C8F7C"/>
<path d="M334.1 90.9499C334.1 90.9499 343.358 98.1793 343.666 99.4607C344.111 101.306 352.588 98.8796 350.544 98.5041C350.073 98.4178 348.568 98.0372 348.444 97.9712C347.782 97.6185 339.544 87.7222 339.544 87.7222L334.1 90.9499Z" fill="#F7A491"/>
<path d="M354.519 98.504L348.609 98.0244C348.609 98.0244 346.918 99.4175 343.673 99.4835C343.673 99.4835 343.154 100.963 343.401 102.691C343.444 102.988 343.492 103.891 343.795 103.871C344.887 103.797 347.797 103.074 351.111 102.414C351.111 102.414 355.566 101.473 358.139 99.9402C360.713 98.405 354.519 98.5065 354.519 98.5065V98.504Z" fill="#B75742"/>
<path d="M292.617 72.8168C292.617 72.8168 299.396 73.9536 306.895 72.2027C315.57 70.1803 325.164 68.3076 327.974 69.9367C330.237 71.2486 344.365 92.5308 344.365 92.5308L338.91 96.4994L323.351 79.1327C323.351 79.1327 303.504 86.4331 299.047 85.6236C288.895 83.7814 288.75 75.6994 292.617 72.8142V72.8168Z" fill="#13375B"/>
<path d="M300.03 68.5234L306.814 76.5598L294.228 80.3813L292.617 72.8169L300.03 68.5234Z" fill="#13375B"/>
<path d="M313.817 105.229C313.817 105.229 313.405 116.391 313.15 118.282C312.895 120.164 317.903 125.831 317.261 123.859C317.113 123.405 316.734 121.905 316.734 121.766C316.732 121.017 318.59 108.284 318.59 108.284L313.817 105.229Z" fill="#F7A491"/>
<path d="M320.461 127.927L316.764 121.936C316.764 121.936 314.731 121.116 313.129 118.299C313.129 118.299 311.579 118.545 310.169 119.583C309.925 119.761 308.27 120.969 308.385 121.248C308.81 122.273 311.065 124.468 313.529 126.866C313.529 126.866 317.024 129.675 319.6 131.203C322.176 132.73 320.458 127.927 320.458 127.927H320.461Z" fill="#B75742"/>
<path d="M324.804 83.2234C322.434 80.0718 303.299 77.08 303.299 77.08L297.964 66.8589L286.168 74.1111C286.168 74.1111 287.347 83.4695 288.232 85.969C289.411 89.3007 297.34 89.4707 302.182 89.42C306.637 89.3743 314.775 90.2802 314.775 90.2802L312.023 114.486C312.023 114.486 317.432 115.714 318.954 115.516C319.125 115.493 327.754 87.1438 324.804 83.2259V83.2234Z" fill="#355389"/>
<path d="M292.895 42.062L286.239 42.4325C286.239 42.4325 286.086 42.4782 286.04 42.4883C285.498 42.5873 285.989 61.9232 286.475 69.145C286.959 76.3667 287.939 79.4016 287.939 79.4016C287.939 79.4016 296.965 77.803 299.735 76.7322C300.885 76.2881 303.668 72.8193 303.668 72.8193C303.668 72.8193 300.824 69.0105 299.394 62.8215C298.289 58.0484 296.927 49.5883 296.148 47.8222C294.359 43.7672 292.895 42.0646 292.895 42.0646V42.062Z" fill="#9BC1F9"/>
<path d="M286.427 36.5757L286.238 42.4349C286.238 42.4349 290.548 49.8343 292.76 48.804C294.616 47.9387 292.969 42.308 292.969 42.308C292.969 42.308 292.648 41.0164 292.202 39.5345C291.892 38.4992 291.632 37.375 291.65 36.5529C291.696 34.5508 286.429 36.5757 286.429 36.5757H286.427Z" fill="#F7A491"/>
<path d="M291.651 36.5529C291.697 34.5508 286.43 36.5757 286.43 36.5757L286.412 37.1492C286.59 37.4156 286.786 37.6415 287 37.8166C288.415 38.9635 290.465 39.4786 292.129 39.2883C291.852 38.3241 291.633 37.3116 291.651 36.5529Z" fill="#F47458"/>
<path d="M291.578 23.213C291.578 23.213 293.775 26.5118 293.938 29.2878C294.101 32.0639 293.513 33.9594 293.513 33.9594L286.467 25.5627L291.578 23.2104V23.213Z" fill="#184655"/>
<path d="M294.666 28.7222C294.765 29.6941 294.386 30.5289 293.818 30.5873C293.25 30.6457 292.711 29.9047 292.611 28.9303C292.512 27.9584 292.891 27.1236 293.459 27.0652C294.027 27.0069 294.566 27.7478 294.666 28.7222Z" fill="#F48C7F"/>
<path d="M284.185 26.9101C284.024 26.8771 284.04 34.9591 286.389 36.8597C288.739 38.7628 292.829 38.9278 294.023 37.0119C295.344 34.8931 294.087 26.3772 290.592 24.5679C287.097 22.7587 284.185 26.9101 284.185 26.9101Z" fill="#F7A491"/>
<path d="M283.589 21.8986C281.795 23.4668 280.927 24.6112 279.713 27.4C278.221 30.8282 281.181 34.3781 283.663 35.7915C286.145 37.2024 286.354 38.9102 286.354 38.9102L286.456 37.8596C286.504 37.4739 286.491 37.1618 286.423 36.8928C286.344 36.5756 286.199 36.3117 286.069 36.0402C285.857 35.5911 285.178 34.0457 284.913 33.6397C284.213 32.5664 284.076 32.3329 284.422 31.3128C284.687 30.5262 284.381 28.7956 284.791 27.4989L288.133 26.7808C288.133 26.7808 290.226 26.2784 291.282 25.0654C294.314 21.5764 288.319 17.6889 283.587 21.9062L283.589 21.8986Z" fill="#184655"/>
<path d="M285.218 32.1909C285.631 33.079 285.544 33.99 285.027 34.2285C284.511 34.467 283.757 33.9418 283.345 33.0536C282.932 32.1655 283.019 31.2545 283.536 31.016C284.052 30.7775 284.806 31.3027 285.218 32.1909Z" fill="#F7A491"/>
<path d="M262.442 9.8962C262.821 11.4517 263.506 13.9106 263.506 13.9106C263.453 14.5855 263.251 17.3996 263.012 20.8481L268.096 18.8207C268.096 18.8207 268.034 13.2026 268.261 12.8575C268.452 12.5657 268.775 12.9285 270.333 10.7057C270.784 10.0637 270.868 8.91671 270.868 8.91671C270.868 8.91671 270.959 7.50585 270.644 7.3739C270.325 7.24195 269.961 7.45256 269.847 7.69617C269.732 7.93977 269.76 8.50817 269.646 8.75178C269.531 8.99538 268.796 9.28973 268.485 9.2745C268.174 9.25928 268.523 5.10028 268.523 5.10028C268.523 5.10028 268.696 3.92034 268.783 3.53463C268.857 3.20476 269.157 2.2405 269.157 2.2405C269.157 2.2405 269.511 0.839788 269.073 0.733212C268.816 0.669774 268.162 1.80658 267.711 3.01444C267.228 4.31365 266.953 5.69153 266.815 5.67376C266.489 5.63063 266.662 3.3494 266.662 3.3494C266.662 3.3494 266.986 2.30394 266.978 1.81166C267.284 1.20773 267.487 0.0861445 266.948 -0.00520624C266.848 -0.0229689 266.141 1.40058 266.141 1.40058C266.141 1.40058 265.863 2.4029 265.7 2.8698C265.415 3.69704 265.372 5.00132 265.222 5.5748C265.097 6.05439 264.985 5.85646 264.934 5.87676C264.893 5.89199 264.965 5.23223 265.043 4.32634C265.084 3.86959 265.031 3.34178 265.158 2.82159C265.278 2.33946 265.344 1.64926 265.374 1.2331C265.461 0.0531568 264.718 0.174958 264.458 1.2534C264.361 1.66448 264.257 2.11362 264.155 2.56784C263.755 4.33649 263.766 6.03917 263.575 6.05439C263.328 6.07215 263.491 2.9713 263.491 2.9713C263.491 2.9713 263.109 1.2534 262.732 2.84697C262.292 4.69682 262.338 6.2041 262.345 6.27008C262.386 6.72176 262.058 8.33562 262.437 9.89112L262.442 9.8962Z" fill="#F8A492"/>
<path d="M286.238 42.4322C286.238 42.4322 279.64 42.1252 277.937 41.3588C276.906 40.8945 268.427 34.0838 268.427 34.0838L268.522 15.8491L262.557 15.3975C262.557 15.3975 259.465 35.553 260.536 37.7606C261.641 40.0393 274.053 49.418 276.535 53.4882C277.965 55.8328 280.946 87.7244 281.399 88.0111C284.612 89.6783 294.527 91.3404 294.295 90.3304C287.84 62.3999 286.238 42.4347 286.238 42.4347V42.4322Z" fill="#3C8F7C"/>
<path d="M167.837 124.409C168.216 125.965 168.901 128.424 168.901 128.424C168.848 129.099 168.647 131.913 168.407 135.361L173.491 133.334C173.491 133.334 173.43 127.716 173.656 127.371C173.847 127.079 174.17 127.442 175.728 125.219C176.179 124.577 176.263 123.43 176.263 123.43C176.263 123.43 176.354 122.019 176.039 121.887C175.721 121.755 175.357 121.966 175.242 122.209C175.127 122.453 175.155 123.021 175.041 123.265C174.926 123.509 174.191 123.803 173.88 123.788C173.57 123.772 173.918 119.613 173.918 119.613C173.918 119.613 174.091 118.434 174.178 118.048C174.252 117.718 174.552 116.754 174.552 116.754C174.552 116.754 174.906 115.353 174.468 115.246C174.211 115.183 173.557 116.32 173.106 117.528C172.623 118.827 172.348 120.205 172.21 120.187C171.884 120.144 172.058 117.863 172.058 117.863C172.058 117.863 172.381 116.817 172.373 116.325C172.679 115.721 172.882 114.599 172.343 114.508C172.243 114.49 171.536 115.914 171.536 115.914C171.536 115.914 171.258 116.916 171.095 117.383C170.808 118.21 170.764 119.515 170.617 120.088C170.492 120.568 170.38 120.37 170.329 120.39C170.288 120.405 170.36 119.745 170.439 118.84C170.479 118.383 170.426 117.855 170.553 117.335C170.673 116.853 170.739 116.162 170.77 115.746C170.856 114.566 170.113 114.688 169.853 115.767C169.754 116.178 169.652 116.627 169.548 117.081C169.148 118.85 169.158 120.552 168.967 120.568C168.718 120.585 168.883 117.484 168.883 117.484C168.883 117.484 168.501 115.769 168.125 117.36C167.684 119.21 167.733 120.717 167.738 120.783C167.779 121.235 167.45 122.849 167.829 124.404L167.837 124.409Z" fill="#F8A492"/>
<path d="M221.795 120.311C221.416 121.867 220.731 124.326 220.731 124.326C220.785 125.001 220.986 127.815 221.225 131.263L216.142 129.236C216.142 129.236 216.203 123.618 215.976 123.273C215.785 122.981 215.462 123.344 213.904 121.121C213.454 120.479 213.37 119.332 213.37 119.332C213.37 119.332 213.278 117.921 213.594 117.789C213.912 117.657 214.276 117.868 214.391 118.111C214.505 118.355 214.477 118.923 214.592 119.167C214.706 119.41 215.442 119.705 215.752 119.69C216.063 119.674 215.714 115.515 215.714 115.515C215.714 115.515 215.541 114.335 215.455 113.95C215.381 113.62 215.08 112.656 215.08 112.656C215.08 112.656 214.727 111.255 215.164 111.148C215.421 111.085 216.076 112.222 216.526 113.429C217.01 114.729 217.285 116.107 217.422 116.089C217.748 116.046 217.575 113.764 217.575 113.764C217.575 113.764 217.252 112.719 217.259 112.227C216.954 111.623 216.75 110.501 217.29 110.41C217.389 110.392 218.097 111.816 218.097 111.816C218.097 111.816 218.374 112.818 218.537 113.285C218.822 114.11 218.866 115.416 219.016 115.99C219.14 116.469 219.252 116.272 219.303 116.292C219.344 116.307 219.273 115.647 219.194 114.741C219.153 114.285 219.207 113.757 219.079 113.237C218.96 112.755 218.894 112.064 218.863 111.648C218.776 110.468 219.52 110.59 219.779 111.668C219.879 112.08 219.981 112.529 220.085 112.983C220.485 114.752 220.474 116.454 220.665 116.469C220.915 116.487 220.749 113.386 220.749 113.386C220.749 113.386 221.131 111.671 221.508 113.262C221.946 115.112 221.9 116.619 221.895 116.685C221.854 117.137 222.182 118.751 221.803 120.306L221.795 120.311Z" fill="#F8A492"/>
<path d="M190.072 138.569C190.072 138.569 192.658 135.849 194.74 139.158C194.74 139.158 196.344 138.259 197.469 139.858C197.469 139.858 200.366 138.988 201.069 143.306C201.069 143.306 202.56 143.027 202.756 144.793C202.952 146.559 202.054 147.737 202.054 147.737C202.054 147.737 202.891 148.364 202.512 149.988C202.189 151.368 201.043 151.579 201.043 151.579C201.043 151.579 200.733 153.906 199.722 154.606C198.709 155.306 197.332 154.971 197.332 154.971C197.332 154.971 196.965 156.233 195.784 156.121C194.603 156.009 193.139 154.888 191.818 155.393C190.497 155.898 187.066 155.365 187.066 155.365C187.066 155.365 183.212 153.654 184.365 149.729C184.365 149.729 182.339 147.907 184.113 145.72C184.113 145.72 182.82 142.299 185.378 140.282C187.936 138.264 190.074 138.571 190.074 138.571L190.072 138.569Z" fill="#07345A"/>
<path d="M207.892 252.498C207.892 252.498 210.71 255.982 211.412 256.411C212.115 256.84 211.099 261.902 209.185 262.235C208.106 262.422 207.507 261.24 207.507 261.24L207.818 259.781L203.791 255.645L207.892 252.501V252.498Z" fill="#F7A491"/>
<path d="M193.368 253.358C193.368 253.358 195.718 257.172 196.359 257.687C197.001 258.203 195.344 263.092 193.404 263.179C192.312 263.227 191.869 261.978 191.869 261.978L192.363 260.573L188.898 255.957L193.368 253.361V253.358Z" fill="#F7A491"/>
<path d="M196.217 257.538C196.217 257.538 194.868 259.253 194.132 259.936C193.182 260.816 191.963 261.679 191.963 261.679C191.963 261.679 190.583 264.173 190.207 265.044C189.369 266.982 188.425 269.139 188.562 270.225C188.606 270.573 189.39 270.943 190.044 270.743C192.767 269.908 199.729 263.559 200.608 261.856C201.621 259.89 196.217 257.54 196.217 257.54V257.538Z" fill="#07345A"/>
<path d="M176.346 199.441C176.598 198.736 176.842 198.084 177.077 197.47C179.973 198.099 183.244 198.792 186.61 199.507L187.019 211.802C187.019 210.853 184.489 231.412 184.489 231.412C184.489 231.412 191.029 245.842 195.499 254.254C193.663 256.538 192.803 257.274 190.143 258.829C183.201 250.534 174.116 235.355 173.739 232.83C173.523 231.379 173.327 207.909 176.346 199.444V199.441Z" fill="#B75742"/>
<path d="M202.194 202.996C201.308 212.575 199.343 230.891 199.506 232.366C199.999 234.203 208.751 251.151 210.327 253.617C209.077 255.495 207.14 257.525 205.057 258.086C204.648 258.198 190.204 237.71 189.418 236.083C188.527 234.246 187.045 224.218 187.017 211.804L186.607 199.51C192.213 200.702 197.367 201.87 202.194 202.999V202.996Z" fill="#F47458"/>
<path d="M183.782 159.328L190.38 160.231C190.38 160.231 195.669 160.361 196.323 160.361C196.978 160.361 201.122 184.358 202.323 193.389C203.522 202.42 202.593 204.019 202.593 204.019C202.593 204.019 194.226 205.894 188.035 205.349C181.597 204.78 174.355 201.316 174.355 201.316C174.355 201.316 179.859 183.962 180.948 178.542C182.04 173.125 183.779 159.328 183.779 159.328H183.782Z" fill="#96D9C9"/>
<path d="M167.781 130.256C167.781 130.256 167.359 148.148 168.033 149.515C169.018 151.505 180.099 165.624 180.099 165.624C180.099 165.624 174.804 187.708 172.579 195.333C172.355 196.102 171.363 201.063 171.363 201.545C171.363 202.618 176.046 203.978 176.601 203.897C177.098 203.823 181.186 182.818 183.792 172.541C184.676 169.057 186.193 165.766 188.267 162.827L190.082 160.259L176.161 146.349C176.161 146.349 174.445 130.865 174.445 129.583C174.445 129.246 168.456 128.994 167.779 130.256H167.781Z" fill="#13375B"/>
<path d="M196.087 160.328L213.448 142.694C213.448 142.694 215.866 126.02 216.039 125.391C216.207 124.775 220.519 124.44 222.258 124.272C222.815 124.219 221.965 142.032 221.135 145.019C220.153 148.546 207.031 164.619 207.031 164.619C207.031 164.619 204.678 173.325 205.246 179.709C206.188 190.316 208.723 204.904 208.268 205.361C205.447 207.132 194.619 207.323 193.934 206.221C186.366 194.072 196.09 160.325 196.09 160.325L196.087 160.328Z" fill="#13375B"/>
<path d="M190.509 157.032L190.041 160.496C190.041 160.496 188.992 165.487 190.341 166.449C191.69 167.41 196.081 160.353 196.081 160.353L195.618 151.576L190.509 157.032Z" fill="#F7A491"/>
<path d="M195.769 154.421C194.655 157.415 192 159.255 190.113 159.968L190.51 157.032L195.619 151.576L195.769 154.421Z" fill="#F47458"/>
<path d="M202.802 145.61C202.802 146.948 202.039 148.031 201.099 148.031C200.16 148.031 199.396 146.948 199.396 145.61C199.396 144.273 200.16 143.189 201.099 143.189C202.039 143.189 202.802 144.273 202.802 145.61Z" fill="#07345A"/>
<path d="M195.619 141.799C196.763 141.799 197.691 141.177 197.691 140.409C197.691 139.641 196.763 139.018 195.619 139.018C194.475 139.018 193.547 139.641 193.547 140.409C193.547 141.177 194.475 141.799 195.619 141.799Z" fill="#07345A"/>
<path d="M192.498 142.355C189.759 141.416 186.84 143.228 186.42 146.044C186.239 147.267 186.073 148.808 186.043 150.488C185.969 154.532 188.069 158.471 189.912 158.471C191.755 158.471 196.849 155.852 197.032 150.107C197.146 146.562 195.37 143.339 192.496 142.352L192.498 142.355Z" fill="#F7A491"/>
<path d="M195.678 150.564C195.678 151.457 196.271 152.18 197.004 152.18C197.737 152.18 198.33 151.457 198.33 150.564C198.33 149.67 197.737 148.947 197.004 148.947C196.271 148.947 195.678 149.67 195.678 150.564Z" fill="#F7A491"/>
<path d="M184.515 140.343C182.611 141.845 181.944 144.131 183.026 145.446C184.108 146.76 186.526 146.608 188.43 145.103C190.334 143.601 191.001 141.314 189.919 140C188.837 138.686 186.419 138.838 184.515 140.343Z" fill="#07345A"/>
<path d="M191.259 142.758C192.234 142.758 193.025 142.229 193.025 141.576C193.025 140.922 192.234 140.393 191.259 140.393C190.283 140.393 189.492 140.922 189.492 141.576C189.492 142.229 190.283 142.758 191.259 142.758Z" fill="#07345A"/>
<path d="M184.232 146.602C184.232 147.442 184.907 148.122 185.742 148.122C186.577 148.122 187.251 147.442 187.251 146.602C187.251 145.763 186.577 145.083 185.742 145.083C184.907 145.083 184.232 145.763 184.232 146.602Z" fill="#07345A"/>
<path d="M211.251 256.279C211.251 256.279 210.134 258.152 209.49 258.923C208.66 259.918 207.563 260.928 207.563 260.928C207.563 260.928 206.514 263.577 206.252 264.488C205.669 266.518 205.01 268.964 205.282 270.025C205.371 270.365 206.12 271.015 206.738 270.611C209.126 269.061 215.505 261.804 216.157 259.999C216.91 257.921 211.246 256.277 211.246 256.277L211.251 256.279Z" fill="#07345A"/>
<path d="M335.517 182.357C335.517 182.357 327.903 183.526 322.28 189.117C316.657 194.707 313.297 203.684 313.297 203.684L324.813 207.031C324.813 207.031 320.21 196.328 335.517 182.354V182.357Z" fill="#FAE0B2"/>
<path d="M337.624 187.863L336.8 181.397L330.988 178.411C330.326 178.071 330.344 177.122 331.016 176.804L336.93 174.023L337.983 167.591C338.103 166.857 339.014 166.581 339.523 167.121L344.004 171.869L350.467 170.882C351.202 170.77 351.75 171.547 351.391 172.199L348.247 177.913L351.187 183.734C351.52 184.397 350.948 185.155 350.217 185.016L343.792 183.8L339.147 188.386C338.617 188.908 337.716 188.599 337.622 187.863H337.624Z" fill="#F7CC7F"/>
<path d="M135.196 216.778C135.196 216.778 142.81 217.948 148.433 223.538C154.056 229.128 157.413 238.106 157.413 238.106L145.897 241.453C145.897 241.453 150.5 230.75 135.193 216.775L135.196 216.778Z" fill="#FAE0B2"/>
<path d="M133.084 222.284L133.909 215.819L139.72 212.832C140.382 212.492 140.364 211.543 139.692 211.226L133.779 208.445L132.725 202.012C132.606 201.279 131.694 201.002 131.185 201.543L126.705 206.29L120.242 205.303C119.506 205.192 118.959 205.968 119.318 206.62L122.462 212.335L119.522 218.156C119.186 218.818 119.761 219.577 120.492 219.437L126.914 218.222L131.559 222.807C132.089 223.33 132.99 223.02 133.084 222.284Z" fill="#F7CC7F"/>
<path d="M387.021 188.005L388.803 185.005L387.334 181.844C387.166 181.483 387.487 181.087 387.874 181.176L391.285 181.937L393.848 179.567C394.141 179.298 394.617 179.479 394.653 179.874L394.981 183.343L398.033 185.041C398.382 185.234 398.357 185.741 397.99 185.899L394.783 187.281L394.106 190.7C394.029 191.088 393.538 191.222 393.273 190.923L390.962 188.309L387.492 188.725C387.098 188.774 386.818 188.347 387.021 188.005Z" fill="#466EB6"/>
<path d="M215.184 52.3592L217.431 48.5758L215.578 44.5868C215.367 44.1326 215.772 43.6327 216.26 43.7444L220.565 44.7061L223.798 41.7169C224.167 41.3768 224.765 41.6052 224.813 42.1026L225.226 46.4798L229.077 48.6215C229.515 48.8651 229.484 49.5045 229.021 49.705L224.974 51.4483L224.121 55.7621C224.024 56.2543 223.403 56.4193 223.072 56.0437L220.157 52.7449L215.779 53.2677C215.28 53.3286 214.929 52.7906 215.186 52.3592H215.184Z" fill="#F79C8D"/>
<path d="M380.093 61.7559L374.162 65.7042L377.479 71.4466L371.807 75.5904L374.299 81.4673L370.562 85.2609L372.489 87.1463L377.486 82.0738L375.124 76.5039L381.025 72.1901L377.761 66.5442L383.137 62.9663L380.093 61.7559Z" fill="#F48C7F"/>
<path d="M389.205 156.882L385.01 151.135L379.39 154.672L375.004 149.191L369.215 151.911L365.26 148.343L363.447 150.34L368.737 155.111L374.222 152.533L378.787 158.235L384.313 154.756L388.116 159.965L389.205 156.882Z" fill="#F48C7F"/>
<path d="M192.513 37.8088L193.936 30.8433L187.527 29.095L188.624 22.1701L182.705 19.7468L182.677 14.4307L179.977 14.4434L180.015 21.5535L185.625 23.8499L184.482 31.054L190.787 32.7744L189.497 39.0877L192.513 37.8088Z" fill="#F48C7F"/>
<path d="M137.05 47.0762L139.766 52.1309L145.621 51.8036L148.263 57.6855L154.393 55.4195L157.674 61.9384L163.577 60.5453L167.762 66.303L165.576 67.8813L162.447 63.5777L156.218 65.0469L153.064 58.7792L146.83 61.0833L143.916 54.5948L138.198 54.9146L135.681 50.2278L131.97 51.2225L131.27 48.6215L137.05 47.0762Z" fill="#F7CC7F"/>
<path d="M111.79 86.9836L107.467 87.4226L105.993 80.5662L99.5939 80.4292L97.6517 75.4785L95.1367 76.4605L97.7382 83.0809L103.802 83.2103L105.334 90.3433L111.84 89.6835L111.79 86.9836Z" fill="#50BFA5"/>
<path d="M104.016 161.308L102.397 165.327L95.6234 163.447L92.5306 169.034L87.2283 168.453L86.9355 171.128L94.0248 171.904L96.9547 166.611L104.003 168.567L106.437 162.518L104.016 161.308Z" fill="#50BFA5"/>
<path d="M115.497 116.348C120.293 120.933 120.453 128.528 115.851 133.309C111.251 138.089 103.632 138.249 98.8366 133.661C94.0409 129.076 93.8805 121.481 98.4828 116.7C103.083 111.92 110.701 111.76 115.497 116.348Z" fill="#FFF3D9"/>
<path d="M115.235 126.376L110.116 127.944L108.51 133.04C108.38 133.451 107.833 133.537 107.583 133.182L104.503 128.812L99.1472 128.863C98.7145 128.868 98.465 128.376 98.7247 128.031L101.942 123.76L100.239 118.698C100.102 118.289 100.494 117.901 100.904 118.04L105.972 119.771L110.276 116.591C110.625 116.335 111.116 116.586 111.109 117.018L111.022 122.357L115.385 125.452C115.739 125.704 115.65 126.247 115.235 126.374V126.376Z" fill="#FED333"/>
<path d="M429.856 136.313C434.652 140.898 434.813 148.493 430.21 153.274C425.611 158.055 417.992 158.214 413.196 153.627C408.4 149.041 408.24 141.447 412.842 136.666C417.442 131.885 425.061 131.725 429.856 136.313Z" fill="#FFF3D9"/>
<path d="M429.594 146.341L424.473 147.91L422.866 153.005C422.737 153.416 422.189 153.502 421.942 153.147L418.862 148.777L413.507 148.828C413.074 148.833 412.824 148.341 413.084 147.996L416.302 143.725L414.599 138.663C414.461 138.254 414.853 137.866 415.263 138.006L420.331 139.736L424.633 136.557C424.982 136.3 425.473 136.552 425.465 136.983L425.379 142.322L429.742 145.42C430.096 145.671 430.007 146.215 429.592 146.341H429.594Z" fill="#FED333"/>
<path d="M375.55 121.266L377.653 124.75C377.879 125.128 378.444 125.079 378.605 124.671L380.099 120.887L384.073 119.969C384.503 119.87 384.633 119.322 384.292 119.04L381.143 116.454L381.494 112.405C381.532 111.966 381.048 111.674 380.677 111.91L377.238 114.094L373.481 112.509C373.073 112.336 372.646 112.704 372.758 113.13L373.781 117.066L371.108 120.136C370.818 120.469 371.037 120.989 371.477 121.014L375.548 121.26L375.55 121.266Z" fill="#F47458"/>
<path d="M368.168 201.058C368.168 202.4 367.076 203.489 365.73 203.489C364.383 203.489 363.291 202.4 363.291 201.058C363.291 199.716 364.383 198.627 365.73 198.627C367.076 198.627 368.168 199.716 368.168 201.058Z" fill="#50BFA5"/>
<path d="M82.8562 127.391C82.8562 128.733 81.6751 129.822 80.2165 129.822C78.7579 129.822 77.5742 128.733 77.5742 127.391C77.5742 126.049 78.7579 124.96 80.2165 124.96C81.6751 124.96 82.8562 126.049 82.8562 127.391Z" fill="#50BFA5"/>
<path d="M220.954 11.1448L224.154 11.7741C224.154 11.7741 228.833 9.59691 229.189 8.54637C229.545 7.49584 229.382 5.07758 230.067 4.92533C230.752 4.77308 232.121 4.83145 232.646 6.4377C233.025 7.60242 231.704 11.2691 232.022 11.6041C232.223 11.8122 234.051 12.2283 235.392 12.5074C236.273 12.6927 236.978 13.3575 237.218 14.238C237.38 14.8343 237.111 15.4662 236.568 15.7555L235.726 16.2046L236.12 17.0801C236.416 17.7322 236.133 18.5061 235.489 18.8132L234.832 19.1278L235.12 19.6556C235.492 20.3357 235.194 21.1934 234.486 21.4979L233.911 21.744L233.954 21.9013C234.14 22.5509 233.801 23.2412 233.178 23.4898L232.602 23.7182L224.08 22.0384C223.281 21.881 222.525 21.5588 221.855 21.0944L218.958 20.0007C218.648 19.884 218.47 19.5516 218.541 19.2217L220.16 11.6726C220.239 11.3072 220.59 11.0712 220.949 11.1423L220.954 11.1448Z" fill="#96D9C9"/>
</g>
<defs>
<clipPath id="clip0_1248_5223">
<rect width="483" height="374" fill="white"/>
</clipPath>
</defs>
</svg>
