<svg width="465" height="321" viewBox="0 0 465 321" fill="none" xmlns="http://www.w3.org/2000/svg">
<g clip-path="url(#clip0_1355_806)">
<path d="M281.324 11.3596C279.768 14.0306 279.411 17.2252 278.674 26.3537C278.591 27.4237 278.5 28.4405 278.409 29.4421C276.093 29.5939 273.033 29.9884 269.502 31.0356C272.167 24.4871 274.658 18.242 275.182 16.4057C276.655 11.223 275.804 12.8848 279.601 11.2762C281.476 10.4794 282.889 8.6962 281.332 11.3672L281.324 11.3596Z" fill="#DBA195"/>
<path d="M285.038 5.14496C285.038 5.14496 286.671 3.55146 286.732 4.3558C286.77 4.81867 285.069 5.91136 282.335 9.97859C279.746 13.8258 279.86 16.4209 279.45 18.1358C278.637 21.5049 275.486 14.9867 275.813 13.9927C277.21 9.66748 276.671 7.55039 278.068 5.61542C278.28 5.31949 279.64 4.38615 279.123 5.96448C278.615 7.52763 279.047 8.54443 279.67 8.43061C280.604 8.26367 280.748 5.06908 282.001 2.98235C283.284 0.842499 284.833 -0.599243 285.334 0.235449C285.372 0.296154 285.365 0.379624 285.334 0.447917C285.205 0.683148 284.514 1.97313 284.112 3.74875C284.112 3.74875 285.752 0.872851 286.564 1.22949C287.377 1.58613 285.752 2.95199 285.038 5.14496Z" fill="#DBA195"/>
<path d="M254.438 93.2657L255.66 89.6689C255.66 89.6689 253.86 88.3638 258.576 74.8645C261.119 67.5875 260.626 47.4942 263.04 43.2145L273.208 16.1553L281.112 18.7883L274.984 47.0844C274.984 47.0844 272.091 69.8639 271.583 73.8249C271.074 77.7935 269.403 95.8684 269.502 101.673C269.593 107.478 267.201 108.882 267.201 108.882L255.371 93.4857L254.445 93.2657H254.438Z" fill="#94B5DC"/>
<path d="M271.111 121.941L279.979 125.53C279.979 125.53 286.213 130.318 289.083 138.225C291.961 146.125 310.412 177.737 310.412 177.737C310.412 177.737 313.769 171.029 319.281 166.961C324.794 162.894 332.463 157.621 332.463 155.23C332.463 152.84 334.095 145.351 340.322 148.226C346.555 151.102 347.558 152.794 352.349 153.03C357.14 153.273 362.053 156.027 362.85 160.026C363.215 161.839 357.102 160.747 351.59 161.46C346.077 162.181 341.324 163.843 341.324 163.843C341.324 163.843 336.054 170.786 332.22 175.574C328.385 180.362 321.438 196.411 312.812 196.411C304.186 196.411 300.83 191.145 298.431 188.99C296.031 186.835 281.414 169.83 281.414 169.83L274.224 162.166L265.598 154.502L256.016 144.683L258.415 129.355L271.118 121.934L271.111 121.941Z" fill="#DBA195"/>
<g style="mix-blend-mode:multiply" opacity="0.34">
<path d="M266.822 64.5903C266.822 64.5903 262.213 81.4891 255.827 85.4652C251.097 88.4094 261.241 90.1547 261.241 90.1547L270.224 79.5996L271.317 68.8017L266.822 64.5979V64.5903Z" fill="#5B7695"/>
</g>
<path d="M263.533 142.057H256.107L254.193 144.69C254.193 144.69 256.593 140.1 254.672 150.397C252.751 160.694 249.402 171.75 252.272 185.636C255.15 199.522 254.186 207.664 260.177 209.584C266.168 211.496 274.558 211.018 284.862 214.137C295.166 217.256 303.556 219.403 303.556 219.403C303.556 219.403 305.918 221.034 306.943 223.091C307.968 225.14 311.142 229.996 312.516 233.031C314.194 236.719 317.899 228.698 315.956 222.066C313.792 214.691 316.639 212.263 315.728 209.296C314.817 206.329 312.076 206.784 310.367 206.784C308.659 206.784 305.918 207.922 301.81 206.556C297.702 205.19 288.841 198.179 280.025 196.866C272.326 195.721 269.645 196.753 269.645 196.753C269.645 196.753 271.696 186.266 272.728 179.307C273.753 172.357 275.355 163.577 274.778 157.879C274.209 152.18 263.541 142.05 263.541 142.05L263.533 142.057Z" fill="#DBA195"/>
<g style="mix-blend-mode:multiply" opacity="0.31">
<path d="M268.651 180.188L266.525 177.911C266.525 177.911 267.74 193.414 266.297 198.429L269.645 196.76L272.387 181.333L268.658 180.195L268.651 180.188Z" fill="#DBA195"/>
</g>
<path d="M254.194 144.691L256.108 142.058H263.534C263.534 142.058 274.202 152.188 274.771 157.886C275.341 163.585 273.746 172.365 272.721 179.315C272.501 180.787 272.243 182.426 271.962 184.081C267.155 183.2 257.543 181.804 251.833 183.458C250.853 170.111 250.641 167.781 251.316 156.908C251.962 146.451 254.194 144.698 254.194 144.698V144.691Z" fill="#F34E6A"/>
<path d="M277.527 61.6765L286.335 59.8174C286.335 59.8174 278.089 69.4998 279.684 78.689C281.453 88.8571 264.285 78.1958 264.285 78.1958C264.285 78.1958 271.066 70.9567 269.502 61.4185C269.152 59.271 277.527 61.6841 277.527 61.6841V61.6765Z" fill="#DBA195"/>
<g style="mix-blend-mode:multiply" opacity="0.44">
<path d="M271.969 66.123L278.408 68.5285C278.408 68.5285 276.191 75.2971 266.852 74.6066L269.646 69.0065L271.962 66.1306L271.969 66.123Z" fill="#DBA195"/>
</g>
<path d="M280.602 48.2075C276.471 45.9766 272.34 46.5154 267.982 51C265.378 53.6862 265.514 57.3664 263.662 58.6184C262.439 59.4455 261.93 59.0206 262.075 59.8098C262.272 60.8645 263.327 61.3653 263.327 61.3653C263.327 61.3653 262.272 68.3085 265.757 70.9719C268.893 73.3697 275.021 72.0798 278.962 68.9459C281.862 66.6391 290.07 53.3219 280.602 48.2075Z" fill="#DBA195"/>
<path d="M279.136 61.6459C279.136 61.6459 280.305 58.4058 279.106 59.2633C276.873 60.8644 272.932 60.4774 274.428 55.0822C275.21 52.2519 271.209 51.8649 268.604 50.7949C265.681 49.5809 265.689 44.4058 271.459 42.9716C276.418 41.7347 275.681 44.9445 278.954 44.0415C283.358 42.835 285.666 45.286 285.841 47.3803C286.015 49.4746 285.453 50.7949 288.278 51.5234C291.103 52.2443 292.211 55.9473 290.374 58.3224C288.931 60.1814 291.528 60.7354 294.261 61.9419C296.995 63.1484 298.582 66.2823 298.149 70.0612C297.716 73.84 295.765 76.7539 299.728 77.8238C305.12 79.2731 304.087 86.8309 300.67 87.4759C297.397 88.0905 295.529 89.0542 296.137 92.1426C297.337 98.251 287.944 100.748 282.712 98.8201C275.955 96.3236 275.446 88.2878 277.071 84.4255C278.696 80.5631 278.939 78.9165 276.653 77.5886C274.626 76.4124 274.178 71.5484 276.6 69.5755C280.488 66.4113 275.195 64.2942 279.121 61.6611L279.136 61.6459Z" fill="#391E21"/>
<path d="M277.617 60.2498C277.617 60.2498 278.642 58.5956 280.04 59.0964C281.437 59.5972 281.482 65.6829 277.352 64.097" fill="#DBA195"/>
<g style="mix-blend-mode:multiply" opacity="0.19">
<path d="M299.744 77.8162C295.772 76.7538 297.731 73.8324 298.164 70.0535C298.589 66.2746 297.01 63.1408 294.277 61.9342C291.543 60.7277 288.946 60.1738 290.389 58.3147C292.226 55.9396 291.118 52.2442 288.293 51.5158C285.469 50.7949 286.031 49.467 285.856 47.3726C285.681 45.2783 283.373 42.8274 278.969 44.0339C278.05 44.2843 277.45 44.2084 276.949 44.0035C276.987 45.5287 276.995 46.5455 279.341 47.1526C282.166 47.8735 283.274 51.5765 281.437 53.9515C279.994 55.8106 282.591 56.3646 285.324 57.5711C288.058 58.7776 289.645 61.9115 289.212 65.6904C288.787 69.4692 286.828 72.3831 290.791 73.453C296.182 74.9023 295.15 82.4601 291.733 83.1051C288.46 83.7197 286.592 84.6834 287.2 87.7718C288.111 92.4157 282.91 94.9729 278.058 95.0791C279.075 96.6726 280.586 98.0157 282.728 98.8125C287.967 100.747 297.352 98.251 296.152 92.1349C295.545 89.0466 297.413 88.0829 300.685 87.4682C304.11 86.8233 305.135 79.2655 299.744 77.8162Z" fill="#391E21"/>
</g>
<path d="M320.315 30.4969C318.842 30.2162 318.683 27.9245 320.049 26.8319C322.608 24.7982 325.532 22.2562 325.539 21.2318C325.554 19.6156 327.68 16.1933 328.781 14.7668C329.108 14.3418 329.913 13.3554 330.08 12.2323C330.224 11.2686 330.847 10.7071 331.097 11.7012C331.348 12.6952 331.158 13.363 330.475 14.8578C330.141 15.5863 329.966 16.1402 330.125 16.254C330.399 16.4513 331.788 14.6757 332.912 12.8849C334.066 11.041 335.372 8.95426 336.116 8.70385C336.693 8.50656 336.564 9.40955 335.888 10.6692C335.205 11.9288 333.185 14.0686 333.504 14.6302C333.831 15.1917 335.63 12.4296 336.291 11.3066C336.952 10.1835 337.331 8.59003 338.053 8.81767C338.546 8.97702 338.614 9.61443 337.878 11.1776C337.141 12.7407 334.362 15.6925 334.742 16.0416C335.122 16.3906 337.46 13.0974 337.832 12.3765C338.22 11.6329 338.911 11.6101 338.546 13.0063C338.182 14.4025 336.891 15.776 335.911 16.9521C334.932 18.1283 334.226 18.5001 334.431 18.8567C334.628 19.2058 335.41 18.7505 336.169 17.5744C336.929 16.3982 337.688 15.1234 337.931 15.7912C338.174 16.4589 337.415 18.3408 335.752 20.1619C334.081 21.9906 331.279 23.8497 329.055 24.176C329.055 24.176 324.051 29.3132 323.519 31.0964L320.323 30.4817L320.315 30.4969Z" fill="#DBA195"/>
<path d="M270.222 82.3844L275.925 76.4505C275.925 76.4505 279.289 73.0889 285.644 66.6846C291.073 61.2135 300.526 43.7761 304.543 40.9457L323.382 21.1104L329.395 26.8773L311.726 49.8238C311.726 49.8238 299.342 69.1659 297.178 72.5274C295.014 75.889 285.758 91.5053 283.351 96.7942C280.944 102.083 278.18 102.318 278.18 102.318L274.095 83.3405L270.215 82.3844H270.222Z" fill="#94B5DC"/>
<g style="mix-blend-mode:multiply" opacity="0.31">
<path d="M274.127 155.951L274.734 165.527L271.955 184.088C271.955 184.088 268.348 182.851 266.67 183.003C266.67 183.003 265.911 158.986 262.562 148.044C259.214 137.102 274.119 155.951 274.119 155.951H274.127Z" fill="#F34E6A"/>
</g>
<path d="M258.415 129.37L271.119 121.949L279.987 125.538C279.987 125.538 287.087 128.482 289.638 138.233C290.952 143.256 298.59 157.044 304.232 166.977C300.094 170.816 293.951 176.955 290.868 181.713C275.955 171.484 259.387 145.768 259.387 145.768L256.031 144.698L258.431 129.37H258.415Z" fill="#F34E6A"/>
<g style="mix-blend-mode:multiply" opacity="0.49">
<g style="mix-blend-mode:multiply" opacity="0.49">
<g style="mix-blend-mode:multiply" opacity="0.49">
<path d="M274.467 129.552C274.998 129.681 275.499 129.924 275.97 130.197C276.441 130.478 276.889 130.804 277.314 131.146L277.162 131.32C276.767 130.956 276.342 130.614 275.902 130.303C275.454 130 274.991 129.711 274.467 129.544V129.552Z" fill="#F34E6A"/>
</g>
<g style="mix-blend-mode:multiply" opacity="0.49">
<path d="M278.916 132.656C279.675 133.452 280.343 134.333 280.974 135.228L280.556 135.509C279.971 134.598 279.334 133.725 278.643 132.891L278.916 132.648V132.656Z" fill="#F34E6A"/>
</g>
<g style="mix-blend-mode:multiply" opacity="0.49">
<path d="M282.167 137.072L283.746 139.963L283.124 140.259L281.658 137.368L282.167 137.072Z" fill="#F34E6A"/>
</g>
<g style="mix-blend-mode:multiply" opacity="0.49">
<path d="M284.664 141.951C285.105 142.953 285.56 143.924 286.001 144.911L285.31 145.237C284.877 144.235 284.421 143.234 283.996 142.24L284.657 141.951H284.664Z" fill="#F34E6A"/>
</g>
<g style="mix-blend-mode:multiply" opacity="0.49">
<path d="M286.966 146.868C287.467 147.832 287.983 148.788 288.469 149.752L287.756 150.131C287.239 149.167 286.761 148.188 286.26 147.217L286.966 146.868Z" fill="#F34E6A"/>
</g>
<g style="mix-blend-mode:multiply" opacity="0.49">
<path d="M289.502 151.664L291.096 154.509L290.451 154.881L288.818 152.043L289.502 151.664Z" fill="#F34E6A"/>
</g>
<g style="mix-blend-mode:multiply" opacity="0.49">
<path d="M292.189 156.391C292.751 157.324 293.313 158.258 293.852 159.199L293.313 159.533C292.721 158.614 292.151 157.681 291.574 156.755L292.189 156.391Z" fill="#F34E6A"/>
</g>
<g style="mix-blend-mode:multiply" opacity="0.49">
<path d="M294.977 161.065L296.693 163.85L296.321 164.086L294.506 161.369L294.977 161.065Z" fill="#F34E6A"/>
</g>
<g style="mix-blend-mode:multiply" opacity="0.49">
<path d="M297.838 165.702L299.584 168.464L299.486 168.532L297.572 165.876L297.838 165.702Z" fill="#F34E6A"/>
</g>
</g>
</g>
<path d="M265.029 77.8165C265.029 77.8165 258.454 83.3559 255.826 85.4654C251.665 88.8041 245.189 94.2296 249.16 100.072C253.063 105.817 248.712 125.766 250.557 135.433C252.379 145.009 251.468 151.846 251.468 151.846L284.475 128.262C284.475 128.262 281.18 124.62 276.943 119.786C273.329 115.666 278.051 109.186 280.322 103.13C282.592 97.0752 286.632 80.4193 286.632 80.4193L275.925 76.4507C275.925 76.4507 269.312 78.8258 265.022 77.809L265.029 77.8165Z" fill="#94B5DC"/>
<path d="M303.277 165.3C303.178 165.125 303.079 164.958 302.98 164.784C303.079 164.958 303.178 165.133 303.277 165.3Z" fill="#DBA195"/>
<path d="M265.599 154.509L265.182 153.804C265.44 154.145 265.698 154.487 265.971 154.843L265.599 154.509Z" fill="#DBA195"/>
<g style="mix-blend-mode:multiply" opacity="0.51">
<path d="M311.955 180.658L310.414 177.744C310.414 177.744 313.77 171.036 319.283 166.969C320.938 165.747 322.783 164.419 324.56 163.091L325.259 162.849C325.259 162.849 314.886 170.922 311.963 180.658H311.955Z" fill="#DBA195"/>
</g>
<path d="M304.225 166.969C303.913 166.423 303.602 165.869 303.275 165.3C303.594 165.869 303.913 166.423 304.225 166.969Z" fill="#F34E6A"/>
<path d="M302.987 164.784C302.789 164.435 302.592 164.086 302.395 163.729C302.592 164.086 302.789 164.435 302.987 164.784Z" fill="#F34E6A"/>
<path d="M297.232 154.441C297.156 154.297 297.08 154.16 297.004 154.016C297.08 154.16 297.156 154.297 297.232 154.441Z" fill="#F34E6A"/>
<g style="mix-blend-mode:multiply" opacity="0.34">
<path d="M297.178 72.5273C295.014 75.8889 285.758 91.5052 283.351 96.7941C282.683 98.2662 281.984 99.3362 281.323 100.133C280.967 101.279 280.617 102.311 280.314 103.13C278.286 108.533 274.33 114.262 276.061 118.367C272.197 115.772 274.786 111.105 275.803 108.958C276.897 106.651 279.083 98.2814 279.083 95.8532C279.083 93.425 276.775 87.6049 280.663 85.541C284.55 83.477 286.631 80.419 290.01 77.1713C293.389 73.9236 293.533 72.8005 295.841 70.1371C297.033 68.7636 300.579 65.3186 303.738 62.3062C300.868 66.7907 298.104 71.1008 297.185 72.5349L297.178 72.5273Z" fill="#5B7695"/>
</g>
<path style="mix-blend-mode:multiply" opacity="0.28" d="M305.234 321.008C328.043 321.008 346.533 317.926 346.533 314.125C346.533 310.324 328.043 307.243 305.234 307.243C282.426 307.243 263.936 310.324 263.936 314.125C263.936 317.926 282.426 321.008 305.234 321.008Z" fill="url(#paint0_radial_1355_806)"/>
<path style="mix-blend-mode:multiply" opacity="0.28" d="M169.773 321.008C192.582 321.008 211.072 317.926 211.072 314.125C211.072 310.324 192.582 307.243 169.773 307.243C146.965 307.243 128.475 310.324 128.475 314.125C128.475 317.926 146.965 321.008 169.773 321.008Z" fill="url(#paint1_radial_1355_806)"/>
<path style="mix-blend-mode:multiply" opacity="0.28" d="M44.1757 321.008C66.9843 321.008 85.4744 317.926 85.4744 314.125C85.4744 310.324 66.9843 307.243 44.1757 307.243C21.367 307.243 2.87695 310.324 2.87695 314.125C2.87695 317.926 21.367 321.008 44.1757 321.008Z" fill="url(#paint2_radial_1355_806)"/>
<path d="M463.801 23.0906C462.859 24.8435 461.606 25.314 461.181 24.669C460.543 23.7053 463.224 20.9204 464.006 18.0825C464.811 15.1762 464.773 12.619 463.626 12.877C463.543 12.8922 463.474 12.9681 463.444 13.0516C463.353 13.3627 462.799 15.0397 461.576 16.876C461.576 16.876 462.715 13.044 461.735 12.6342C460.748 12.2245 460.908 14.7892 459.579 17.2402C459.579 17.2402 459.617 14.4857 458.85 15.1004C458.41 15.457 458.88 17.8548 457.605 23.637C456.398 29.108 454.029 31.1796 452.874 32.9704C452.335 33.7975 452.396 34.2831 452.798 34.5259C451.606 36.1346 450.05 38.0316 447.962 40.3688C447.104 41.3325 446.284 42.2658 445.486 43.1764C447.293 45.3314 447.863 48.4577 449.898 52.4111C453.398 44.6181 456.792 37.2273 457.962 35.2316C458.554 34.2224 459.017 33.4636 459.366 32.8717C459.442 32.8034 459.496 32.7427 459.526 32.682C462.146 27.8484 464.446 26.5508 464.97 23.7205C465.046 23.2879 464.735 21.315 463.778 23.0906H463.801Z" fill="#AF786B"/>
<path d="M339.199 41.636C336.936 39.4658 335.243 37.6978 333.921 36.1878C334.309 35.9146 334.324 35.429 333.732 34.6474C332.441 32.9476 329.912 31.0734 328.287 25.7086C326.571 20.0478 326.845 17.6121 326.382 17.2934C325.577 16.7394 325.82 19.4787 325.82 19.4787C324.309 17.134 324.263 14.5692 323.314 15.0549C322.365 15.5405 323.8 19.2739 323.8 19.2739C322.441 17.5362 321.765 15.9123 321.643 15.6088C321.613 15.5253 321.537 15.457 321.454 15.4495C320.284 15.2825 320.451 17.8321 321.476 20.6701C322.479 23.4397 325.364 26.0121 324.81 27.0137C324.438 27.6891 323.147 27.3173 322.076 25.6403C320.99 23.9481 320.831 25.9362 320.937 26.3612C321.674 29.146 324.073 30.2614 327.065 34.875C327.103 34.9281 327.164 34.9888 327.24 35.0495C327.634 35.6111 328.151 36.3319 328.827 37.2956C330.155 39.1927 334.104 46.2951 338.204 53.7922C339.928 49.687 340.254 46.5228 341.887 44.2388C341.021 43.3889 340.133 42.5238 339.199 41.6284V41.636Z" fill="#AF786B"/>
<path d="M418.97 134.257L417.96 152.931C417.96 152.931 432.554 196.6 428.059 210.472C425.645 217.931 392.713 243.966 390.534 246.143C388.355 248.321 385.629 254.316 385.082 256.311C384.536 258.307 384.171 265.03 384.171 265.03C384.171 265.03 387.991 268.483 383.989 269.386C379.995 270.296 376.905 267.936 376.722 266.115C376.54 264.302 376.54 253.223 376.176 250.863C375.811 248.503 377.087 245.051 380.17 244.322C383.26 243.594 386.35 241.234 388.53 237.425C390.709 233.608 397.793 214.546 410.155 212.543L412.334 194.931L401.43 156.975L405.067 131.555L418.97 134.249V134.257Z" fill="#AF786B"/>
<g style="mix-blend-mode:multiply" opacity="0.1">
<path d="M418.97 134.257L417.96 152.931C417.96 152.931 432.554 196.6 428.059 210.472C425.645 217.931 392.713 243.966 390.534 246.143C388.355 248.321 385.629 254.316 385.082 256.311C384.536 258.307 384.171 265.03 384.171 265.03C384.171 265.03 387.991 268.483 383.989 269.386C379.995 270.296 376.905 267.936 376.722 266.115C376.54 264.302 376.54 253.223 376.176 250.863C375.811 248.503 377.087 245.051 380.17 244.322C383.26 243.594 386.35 241.234 388.53 237.425C390.709 233.608 397.793 214.546 410.155 212.543L412.334 194.931L401.43 156.975L405.067 131.555L418.97 134.249V134.257Z" fill="#AF786B"/>
</g>
<path d="M410.587 69.9929C409.418 74.1816 399.053 79.0911 398.712 87.2559C398.362 95.4207 405.895 93.6299 399.805 96.1567C393.716 98.6836 390.701 101.681 391.445 107.053C392.189 112.426 379.091 120.492 365.279 112.319C359.752 109.049 356.388 100.99 357.466 93.4326C358.544 85.8749 368.841 83.8109 369.433 78.3171C370.025 72.8233 365.644 68.3767 374.961 63.8238C381.324 60.7127 383.313 57.5712 385.181 52.4796C387.049 47.3879 402.964 57.0324 402.964 57.0324C402.964 57.0324 414.338 56.5468 410.595 69.9929H410.587Z" fill="#391E21"/>
<g style="mix-blend-mode:multiply" opacity="0.28">
<path d="M397.785 63.0269C397.785 63.0269 393.822 67.5797 389.805 69.9169C385.788 72.254 384.034 71.9429 382.067 77.6492C380.101 83.3554 382.629 87.4151 375.742 91.5506C368.856 95.6785 364.33 117.51 378.499 115.347C392.667 113.184 393.654 110.43 395.029 106.499C396.403 102.569 405.067 83.2947 405.067 83.2947L406.836 70.1217L397.785 63.042V63.0269Z" fill="#391E21"/>
</g>
<g style="mix-blend-mode:multiply" opacity="0.37">
<path d="M410.163 213.105C410.163 213.105 418.478 214.539 421.599 207.725C424.727 200.911 414.924 202.33 414.924 202.33L409.67 208.719L410.171 213.105H410.163Z" fill="#AF786B"/>
</g>
<path d="M413.656 86.0796C413.656 86.0796 412.198 74.7202 415.22 74.1966C421.993 73.028 431.523 62.6399 431.523 62.6399C431.523 62.6399 445.274 42.0154 448.038 36.9617C451.492 30.6484 452.449 30.1021 452.449 30.1021L458.22 35.095C458.22 35.095 448.645 58.4361 444.15 65.5082C439.549 72.7473 426.177 89.8736 423.603 92.9772C421.69 95.284 413.656 86.072 413.656 86.072V86.0796Z" fill="#F6B545"/>
<g style="mix-blend-mode:multiply" opacity="0.44">
<path d="M437.386 75.1147C437.234 75.2134 437.059 75.3803 436.854 75.6459C434.363 78.8481 425.107 85.2525 425.107 85.2525C425.107 85.2525 428.312 80.0926 424.037 82.2324C419.762 84.3647 418.699 81.7012 418.699 81.7012L417.811 83.1278L422.283 93.3035C422.837 93.4325 423.3 93.3642 423.604 92.9923C425.32 90.9208 431.858 82.589 437.386 75.1299V75.1147Z" fill="#F6B545"/>
</g>
<path d="M407.916 65.5845C407.916 65.5845 405.645 72.6187 409.92 77.3233C412.206 79.835 407.84 83.4317 403.451 83.3558C399.624 83.2875 395.828 79.6908 395.828 79.6908C395.828 79.6908 398.925 74.971 395.266 67.2463L407.908 65.5845H407.916Z" fill="#AF786B"/>
<g style="mix-blend-mode:multiply" opacity="0.51">
<path d="M397.916 69.5301L397.027 73.5518C397.027 73.5518 397.043 73.7946 397.035 75.0922C397.035 75.0922 404.59 80.7605 407.627 72.922C407.627 72.922 407.088 69.6211 407.339 68.9003C407.589 68.1794 397.908 69.5301 397.908 69.5301H397.916Z" fill="#AF786B"/>
</g>
<path d="M408.896 59.2178C408.554 58.5501 408.182 57.8975 407.962 57.1842C407.658 56.1902 407.658 55.0747 407.142 54.1565C406.61 53.2004 406.587 50.9088 405.851 50.1121C404.34 48.4806 401.576 48.3896 399.306 48.2909C399.055 48.2833 398.797 48.2909 398.546 48.3137H398.486C397.984 48.3744 397.491 48.473 397.005 48.5945L396.602 48.7007C394.211 49.3153 392.601 51.4324 391.629 53.6254C391.135 54.7484 390.779 55.9397 390.536 57.1463C390.407 57.8064 390.323 58.459 390.429 59.1268C390.558 59.9387 390.9 60.7051 390.885 61.5398C390.87 62.3896 390.634 63.2243 390.68 64.0742C390.725 64.962 391.029 65.8347 391.34 66.6618C392.252 69.052 393.869 71.1084 395.82 72.7247C396.344 73.1572 396.899 73.5594 397.468 73.9388C398.797 74.8114 400.543 75.1377 402.259 74.819L402.654 74.7431C404.37 74.4244 405.874 73.4911 406.8 72.1935C409.032 69.052 410.847 64.355 409.458 60.4547C409.306 60.0297 409.108 59.6276 408.896 59.2254V59.2178Z" fill="#AF786B"/>
<g style="mix-blend-mode:multiply" opacity="0.2">
<path d="M420.034 177.076L422.593 198.937L411.371 185.309L411.082 176.082L420.034 177.076Z" fill="#AF786B"/>
</g>
<path d="M409.251 136.472L405.614 156.088C405.614 156.088 417.604 186.417 420.512 192.587C423.42 198.756 424.331 207.474 418.697 210.745C413.063 214.015 400.345 210.381 392.349 205.661C384.354 200.941 380.36 197.853 375.994 198.581C371.635 199.31 368.18 205.479 368.18 205.479C368.18 205.479 368.909 214.197 366.366 214.562C363.822 214.926 359.82 205.661 359.82 204.029C359.82 202.398 365.454 193.133 365.819 191.319C366.183 189.506 366.183 184.057 369.274 184.604C372.364 185.15 373.769 186.736 376.859 188.732C379.95 190.727 385.447 192.412 389.076 192.412C392.706 192.412 398.887 190.416 402.706 193.861C402.706 193.861 389.623 186.053 384.718 174.428C379.813 162.803 377.451 153.364 382.357 141.2C387.262 129.036 389.259 128.308 389.259 128.308L410.519 130.668L409.244 136.48L409.251 136.472Z" fill="#AF786B"/>
<g style="mix-blend-mode:multiply" opacity="0.2">
<path d="M406.282 194.817C406.282 194.817 402.683 193.019 400.284 192.42C400.284 192.42 392.577 186.342 390.603 183.602C388.636 180.863 385.637 171.704 385.637 171.704L390.777 172.304C390.777 172.304 398.826 189.339 406.282 194.817Z" fill="#AF786B"/>
</g>
<path d="M408.614 78.2105C410.216 76.3742 412.297 74.9856 414.689 74.5151C415.82 74.2951 417.02 74.2647 418.121 74.6365C422.251 76.01 421.196 84.4024 424.545 90.822C427.893 97.2415 427.62 101.149 425.942 107.288C424.264 113.427 419.518 131.289 419.518 131.289L389.26 128.3C389.26 128.3 387.126 112.312 386.845 105.338C386.564 98.3646 377.627 89.4333 377.627 89.4333L382.935 75.4788C382.935 75.4788 391.674 75.2056 394.939 77.7097C402.335 83.378 406.708 80.3959 408.614 78.2181V78.2105Z" fill="#F6B545"/>
<path d="M386.943 82.3536C386.943 82.3536 388.097 76.1617 384.346 75.623C375.804 74.3861 355.159 60.3025 355.159 60.3025L332.432 31.9609L327.527 37.2726C327.527 37.2726 338.757 61.5773 346.047 69.4993C353.503 77.6034 382.038 94.8816 382.038 94.8816L386.943 82.3536Z" fill="#F6B545"/>
<path d="M388.773 126.16L419.305 129.074L417.961 152.931C417.961 152.931 425.82 175.285 426.936 187.624C426.936 187.624 409.107 180.218 394.066 186.948C394.066 186.948 379.122 175.285 378.447 156.664C377.771 138.043 389.259 128.292 389.259 128.292L388.773 126.152V126.16Z" fill="#5B7695"/>
<path d="M388.773 126.16L420.307 129.894L417.961 152.939C417.961 152.939 425.82 175.293 426.936 187.631C426.936 187.631 409.107 180.225 394.066 186.956C394.066 186.956 379.122 175.293 378.447 156.672C377.771 138.051 389.259 128.3 389.259 128.3L388.773 126.16Z" fill="#94B5DC"/>
<g style="mix-blend-mode:multiply" opacity="0.28">
<path d="M394.066 186.956C398.621 184.915 403.435 184.179 407.931 184.133C407.407 183.875 406.822 183.708 406.161 183.678C400.163 183.405 395.804 177.41 395.804 177.41C395.804 177.41 407.528 177.956 402.076 175.779C396.624 173.601 389.267 165.155 385.447 159.434C381.628 153.712 389.533 158.887 392.805 158.887C396.078 158.887 386.533 146.086 391.712 139.007C396.89 131.927 400.71 127.564 400.71 127.564L400.755 127.298L388.773 126.152L389.259 128.292C389.259 128.292 377.771 138.043 378.447 156.664C379.122 175.285 394.066 186.948 394.066 186.948V186.956Z" fill="#5B7695"/>
</g>
<g style="mix-blend-mode:multiply" opacity="0.28">
<path d="M410.52 156.444L415.432 152.088L413.595 156.55L421.279 186.03L417.536 185.332L410.52 156.444Z" fill="#5B7695"/>
</g>
<g style="mix-blend-mode:multiply" opacity="0.44">
<path d="M395.925 125.09C395.925 125.09 400.071 124.544 395.751 123.489C386.662 121.281 399.403 110.339 396.229 109.906C389.555 109.011 388.834 104.503 390.276 96.9304C391.051 92.8783 384.225 89.0312 378.887 88.9022C374.938 88.8035 362.865 82.7861 362.865 82.7861L367.163 85.2599L382.053 94.8892L382.114 94.7222C384.392 97.8334 386.715 101.832 386.859 105.33C387.087 110.938 388.507 122.373 389.061 126.638L400.77 127.306L395.933 125.09H395.925Z" fill="#F6B545"/>
</g>
<path d="M400.733 45.6273C402.813 46.9552 403.064 49.9753 401.166 51.5612C400.596 52.0392 399.852 52.4793 398.895 52.8436C394.355 54.5661 392.623 57.7455 392.988 60.5607C393.352 63.3759 395.805 68.2778 389.806 69.9092C388.014 70.3949 385.197 72.2388 384.081 73.9006C382.312 76.5488 379.685 72.254 380.657 69.2263C380.847 68.6344 381.135 68.0426 381.538 67.4583C385.084 62.3742 384.446 61.6458 384.446 58.7395C384.446 55.8333 384.924 50.0663 387.627 47.843C390.323 45.6273 395.433 42.2354 400.733 45.6197V45.6273Z" fill="#391E21"/>
<path d="M399.98 48.3061C399.98 48.3061 399.441 50.5142 401.704 50.3928C405.614 50.1804 406.64 52.2443 407.004 55.9094C407.437 60.2043 410.102 60.0904 409.874 65.4552C409.874 65.4552 411.332 58.7473 410.33 54.6649C409.327 50.5825 405.607 42.8578 398.249 44.5879C390.891 46.3104 399.973 48.3137 399.973 48.3137L399.98 48.3061Z" fill="#391E21"/>
<path d="M403.815 47.1451L405.736 46.6367C405.736 46.6367 416.563 55.4313 410.588 69.9929C410.588 69.9929 411.4 52.305 405.834 49.7706C403.344 48.64 403.815 47.1451 403.815 47.1451Z" fill="#391E21"/>
<path style="mix-blend-mode:multiply" opacity="0.28" d="M395.79 321.008C427.644 321.008 453.467 317.926 453.467 314.125C453.467 310.324 427.644 307.243 395.79 307.243C363.936 307.243 338.113 310.324 338.113 314.125C338.113 317.926 363.936 321.008 395.79 321.008Z" fill="url(#paint3_radial_1355_806)"/>
<path d="M173.913 148.052C173.913 148.052 178.385 160.716 177.314 164.617C176.251 168.517 173.442 174.792 172.09 185.575C170.739 196.358 168.286 209.015 167.58 212.384C166.866 215.753 166.973 217.21 164.209 225.504C161.445 233.797 156.145 250.719 153.381 259.013C150.61 267.314 147.701 274.439 143.047 279.334C138.4 284.228 128.886 291.103 129.562 292.628C130.237 294.153 137.724 296.528 143.297 293.478C148.871 290.428 151.741 288.197 157.033 287.415C162.318 286.633 165.553 283.871 165.234 281.815C164.915 279.759 161.969 275.646 162.47 271.67C162.971 267.701 164.922 263.619 170.739 256.281C176.563 248.943 182.136 232.06 182.174 227.165C182.212 222.271 187.284 216.276 187.892 211.458C188.499 206.632 200.99 173.616 200.99 173.616L199.608 161.627L195.28 152.438L190.245 144.318L173.92 148.037L173.913 148.052Z" fill="#222222"/>
<path d="M172.098 185.568C170.747 196.35 168.294 209.007 167.588 212.376C166.874 215.746 166.98 217.202 164.217 225.496C162.295 231.248 159.167 241.135 156.502 249.429C160.974 249.209 166.95 249.915 172.508 253.754C177.641 245.612 182.136 231.567 182.167 227.173C182.205 222.279 187.277 216.284 187.884 211.466C188.492 206.64 200.982 173.624 200.982 173.624L199.6 161.635L195.272 152.445L190.238 144.326L173.913 148.044C173.913 148.044 178.385 160.709 177.315 164.609C176.252 168.509 173.442 174.785 172.091 185.568H172.098Z" fill="#F6B545"/>
<g style="mix-blend-mode:multiply" opacity="0.46">
<path d="M188.78 163.494L184.87 157.818L170.359 198.574L185.568 198.209L188.78 163.494Z" fill="#F6B545"/>
</g>
<path d="M200.086 70.9184L208.932 68.8696C208.932 68.8696 200.8 78.7949 202.584 88.0296C204.566 98.2508 187.041 87.8247 187.041 87.8247C187.041 87.8247 193.738 80.396 191.977 70.8046C191.582 68.642 200.078 70.9184 200.078 70.9184H200.086Z" fill="#AF786B"/>
<g style="mix-blend-mode:multiply" opacity="0.44">
<path d="M194.567 75.5093L201.112 77.8085C201.112 77.8085 199.009 84.6757 189.57 84.1597L192.281 78.4611L194.567 75.5169V75.5093Z" fill="#AF786B"/>
</g>
<path d="M203.108 58.4513C199.114 56.2204 195.075 56.6833 190.754 61.0009C188.173 63.5809 188.264 67.1776 186.434 68.3766C185.227 69.1657 184.733 68.7484 184.87 69.5148C185.052 70.5468 186.069 71.0476 186.069 71.0476C186.069 71.0476 184.938 77.801 188.309 80.4493C191.339 82.8319 197.338 81.6558 201.218 78.6509C204.073 76.4427 212.266 63.5657 203.101 58.4437L203.108 58.4513Z" fill="#AF786B"/>
<path d="M206.221 56.8578C205.477 56.5543 204.733 56.0914 203.829 55.8258C203.716 55.7879 203.602 55.7575 203.488 55.7272C203.374 55.6968 203.275 55.6589 203.161 55.6285C203.047 55.5982 202.933 55.583 202.82 55.5527C202.683 55.5223 202.539 55.492 202.394 55.4616C196.267 54.1868 193.647 55.196 191.901 56.2508C189.866 57.48 189.911 61.1072 194.93 61.1679C195.067 61.1679 195.227 61.183 195.394 61.2058C196.358 61.4486 197.117 61.7522 197.717 62.1391C198.393 62.6096 199.031 63.2925 199.479 64.2638C199.737 64.9012 199.889 65.6221 199.995 66.4416C200.367 69.4541 201.696 69.0367 203.511 69.6741L203.807 71.7912C200.602 73.066 202.508 82.2477 202.508 82.2477C202.508 82.2477 204.946 79.9788 208.294 78.1577C215.667 74.1435 214.688 60.2876 206.244 56.8502L206.221 56.8578Z" fill="#391E21"/>
<path d="M201.492 69.1276C201.492 69.1276 202.858 67.6099 204.286 68.3763C205.713 69.1427 204.795 75.4105 200.596 73.043" fill="#AF786B"/>
<path d="M208.553 61.2209C208.553 61.2209 209.35 57.5786 213.435 57.5786C217.52 57.5786 220.724 61.8963 218.606 66.5629C216.487 71.2296 209.95 69.0518 209.95 69.0518L208.545 61.2209H208.553Z" fill="#391E21"/>
<g style="mix-blend-mode:multiply" opacity="0.46">
<path d="M174.384 203.749L168.332 209.083C168.332 209.083 168.886 215.95 173.67 218.53C178.446 221.11 184.725 219.63 184.725 219.63L187.884 211.466L174.391 203.749H174.384Z" fill="#F6B545"/>
</g>
<path d="M207.109 138.21C207.109 138.21 217.344 150.009 217.967 158.539C218.59 167.068 213.138 176.484 207.23 183.177C201.315 189.87 189.827 203.308 189.827 203.308L184.459 208.385C184.459 208.385 176.425 218.53 173.593 216.83C170.761 215.123 165.142 208.673 169.645 199.772C174.14 190.871 188.787 163.501 188.787 163.501L178.058 142.057L207.117 138.218L207.109 138.21Z" fill="#F6B545"/>
<path d="M194.649 201.472C194.649 201.472 195.014 195.235 204.027 196.358C213.04 197.488 218.901 200.417 221.088 199.044C223.275 197.67 224.163 191.865 226.373 190.924C226.373 190.924 228.507 189.536 233.799 194.043C239.091 198.551 240.99 199.514 243.784 200.599C246.578 201.684 252.66 208.886 248.932 211.784L245.53 210.335C244.9 210.069 244.24 209.918 243.556 209.887C241.795 209.811 238.226 209.652 236.616 209.584C234.429 209.493 232.265 210.684 227.755 210.122C223.245 209.561 209.699 212.437 209.699 212.437C209.699 212.437 177.041 221.709 171.923 215.76C166.805 209.811 194.642 201.464 194.642 201.464L194.649 201.472Z" fill="#222222"/>
<path d="M207.269 196.881C206.236 196.684 205.158 196.502 204.026 196.358C195.013 195.227 189.949 196.896 189.949 196.896C189.949 196.896 166.813 209.819 171.931 215.768C175.674 220.116 194.14 216.33 203.799 213.977C203.799 206.678 205.591 200.789 207.269 196.881Z" fill="#F6B545"/>
<g style="mix-blend-mode:multiply" opacity="0.46">
<g style="mix-blend-mode:multiply" opacity="0.46">
<g style="mix-blend-mode:multiply" opacity="0.46">
<path d="M205.029 142.133C205.303 143.188 205.561 144.25 205.811 145.312L205.53 145.365C205.348 144.288 205.189 143.21 205.029 142.133Z" fill="#F6B545"/>
</g>
<g style="mix-blend-mode:multiply" opacity="0.46">
<path d="M206.995 146.989C207.686 147.839 208.324 148.742 208.909 149.675L208.468 149.941C207.937 149 207.337 148.097 206.691 147.232L206.995 146.989Z" fill="#F6B545"/>
</g>
<g style="mix-blend-mode:multiply" opacity="0.46">
<path d="M209.987 151.595C210.48 152.581 210.898 153.606 211.24 154.661L210.609 154.85C210.306 153.818 209.918 152.817 209.463 151.838L209.987 151.587V151.595Z" fill="#F6B545"/>
</g>
<g style="mix-blend-mode:multiply" opacity="0.46">
<path d="M211.794 156.816C212.007 157.909 212.121 159.016 212.121 160.14H211.339C211.361 159.07 211.278 158 211.096 156.945L211.794 156.816Z" fill="#F6B545"/>
</g>
<g style="mix-blend-mode:multiply" opacity="0.46">
<path d="M211.961 162.363C211.802 163.471 211.521 164.563 211.141 165.618L210.291 165.292C210.678 164.305 210.967 163.281 211.141 162.234L211.969 162.363H211.961Z" fill="#F6B545"/>
</g>
<g style="mix-blend-mode:multiply" opacity="0.46">
<path d="M210.231 167.652C209.715 168.638 209.107 169.579 208.447 170.475L207.68 169.905C208.318 169.048 208.902 168.153 209.403 167.219L210.231 167.659V167.652Z" fill="#F6B545"/>
</g>
<g style="mix-blend-mode:multiply" opacity="0.46">
<path d="M207.056 172.204C206.327 173.039 205.561 173.836 204.763 174.595L204.072 173.866C204.854 173.13 205.606 172.356 206.32 171.552L207.056 172.197V172.204Z" fill="#F6B545"/>
</g>
<g style="mix-blend-mode:multiply" opacity="0.46">
<path d="M203.139 176.082L200.61 178.191L199.965 177.379L202.471 175.315L203.139 176.082Z" fill="#F6B545"/>
</g>
<g style="mix-blend-mode:multiply" opacity="0.46">
<path d="M198.886 179.542L196.267 181.515L195.621 180.642L198.241 178.7L198.886 179.542Z" fill="#F6B545"/>
</g>
<g style="mix-blend-mode:multiply" opacity="0.46">
<path d="M194.559 182.828C193.716 183.503 192.896 184.209 192.091 184.93L191.385 184.148C192.197 183.412 193.025 182.684 193.883 181.993L194.559 182.828Z" fill="#F6B545"/>
</g>
<g style="mix-blend-mode:multiply" opacity="0.46">
<path d="M190.504 186.394L188.196 188.678L187.467 187.98L189.79 185.643L190.504 186.394Z" fill="#F6B545"/>
</g>
<g style="mix-blend-mode:multiply" opacity="0.46">
<path d="M186.708 190.257L184.574 192.7L183.822 192.078L185.979 189.589L186.708 190.257Z" fill="#F6B545"/>
</g>
<g style="mix-blend-mode:multiply" opacity="0.46">
<path d="M183.221 194.385C182.568 195.242 181.938 196.115 181.376 197.025L180.586 196.547C181.163 195.591 181.801 194.688 182.461 193.808L183.221 194.385Z" fill="#F6B545"/>
</g>
<g style="mix-blend-mode:multiply" opacity="0.46">
<path d="M180.405 198.884C180.222 199.347 180.086 199.871 180.184 200.197C180.238 200.356 180.291 200.417 180.488 200.508C180.678 200.592 180.929 200.645 181.172 200.683L181.065 201.487C180.777 201.449 180.481 201.396 180.169 201.275C179.858 201.176 179.471 200.827 179.38 200.448C179.266 200.076 179.296 199.742 179.342 199.438C179.395 199.135 179.478 198.846 179.577 198.573L180.405 198.884Z" fill="#F6B545"/>
</g>
<g style="mix-blend-mode:multiply" opacity="0.46">
<path d="M183.283 200.758C184.361 200.728 185.44 200.637 186.525 200.546L186.594 201.221C185.508 201.343 184.422 201.456 183.314 201.517L183.283 200.758Z" fill="#F6B545"/>
</g>
<g style="mix-blend-mode:multiply" opacity="0.46">
<path d="M188.689 200.341L191.954 200.053L192 200.607L188.758 200.971L188.689 200.341Z" fill="#F6B545"/>
</g>
<g style="mix-blend-mode:multiply" opacity="0.46">
<path d="M194.133 199.924C195.226 199.871 196.32 199.84 197.413 199.855V200.205C196.327 200.235 195.241 200.303 194.163 200.394L194.133 199.924Z" fill="#F6B545"/>
</g>
<g style="mix-blend-mode:multiply" opacity="0.46">
<path d="M199.607 199.954C200.7 200.045 201.794 200.19 202.849 200.493L202.819 200.615C201.763 200.372 200.678 200.258 199.592 200.212L199.607 199.947V199.954Z" fill="#F6B545"/>
</g>
<g style="mix-blend-mode:multiply" opacity="0.46">
<path d="M204.863 201.351L205.129 201.525L204.848 201.366L204.863 201.351Z" fill="#F6B545"/>
</g>
</g>
</g>
<g style="mix-blend-mode:multiply" opacity="0.46">
<path d="M208.067 182.616L207.756 181.728C207.756 181.728 193.329 193.945 187.748 196.646C187.748 196.646 193.542 195.675 195.926 195.827L208.067 182.616Z" fill="#F6B545"/>
</g>
<path d="M184.354 87.6884L176.48 81.5193L168.803 73.0813L160.512 63.9604C160.512 63.9604 164.278 33.8887 165.204 31.119C166.131 28.3494 171.097 23.2122 170.74 21.4366C170.383 19.661 164.498 16.0414 162.084 16.8989C161.013 17.2783 160.269 18.1282 159.73 19.2967C159.054 20.7688 158.697 22.7493 158.416 24.9575C157.915 28.9261 159.456 28.6681 156.898 35.2621C154.339 41.8562 147.702 62.6401 148.378 66.4721C149.054 70.3041 164.734 87.825 168.955 93.2505C173.177 98.676 172.927 107.577 172.927 107.577L184.354 87.6808V87.6884Z" fill="#AF786B"/>
<g style="mix-blend-mode:multiply" opacity="0.44">
<path d="M149.73 66.3356C148.925 64.0592 150.231 56.2358 150.231 56.2358L150.132 56.5545C148.918 61.1605 148.128 65.0305 148.378 66.4722C148.948 69.7275 160.353 82.8549 166.359 90.0637L168.371 87.7189C168.371 87.7189 150.535 68.6121 149.738 66.3356H149.73Z" fill="#AF786B"/>
</g>
<path d="M206.632 133.126C205.144 128.907 208.303 119.794 208.303 119.794L209.297 109.542C209.297 109.542 218.067 99.7462 216.648 96.1418C215.592 93.4632 208.804 92.7727 205.607 90.6404C204.066 89.616 203.185 88.2957 202.676 87.203C202.57 87.2637 202.479 87.3169 202.373 87.3776C192.562 92.8941 189.237 84.9038 189.237 84.9038C187.733 85.4426 184.962 84.9797 182.251 83.6821C178.173 81.732 176.465 81.5195 176.465 81.5195L171.848 95.3527C171.848 95.3527 170.178 101.772 168.545 107.903C166.913 114.042 171.203 116.592 170.034 125.956C168.864 135.319 170.99 152.871 170.77 154.578C170.55 156.285 179.927 155.147 187.589 153.804C195.258 152.461 210.763 143.734 210.763 143.734C210.763 143.734 208.105 137.353 206.61 133.126H206.632Z" fill="#36AAEA"/>
<g style="mix-blend-mode:multiply" opacity="0.46">
<path d="M208.303 119.786L209.297 109.535C209.297 109.535 209.502 109.299 209.852 108.897L207.991 108.556L205.22 111.636C205.22 111.636 204.028 119.991 201.492 123.55C198.568 127.647 201.363 128.156 203.603 136.495C204.423 139.553 201.795 147.566 201.636 148.628C204.506 147.149 210.793 143.719 210.793 143.719C210.793 143.719 208.136 137.337 206.64 133.111C205.151 128.892 208.31 119.778 208.31 119.778L208.303 119.786Z" fill="#36AAEA"/>
</g>
<path d="M208.136 103.806L210.687 93.8654C210.687 93.8654 217.71 93.0155 218.318 99.7158C218.925 106.416 218.956 119.968 218.849 120.818C218.743 121.668 219.108 129.985 219.108 129.985C219.108 129.985 221.629 127.17 225.805 123.922C228.151 122.101 233.094 118.254 233.086 117.055C233.071 115.62 232.927 113.678 232.927 113.678C232.927 113.678 233.064 110.4 234.279 110.552C235.493 110.703 236.913 109.231 238.03 110.195C238.03 110.195 239.244 109.246 240.247 110.058C240.247 110.058 241.446 109.246 242.023 110.142C242.601 111.037 245.334 115.499 243.967 116.561C242.601 117.624 239.738 118.504 237.946 119.65C236.154 120.796 235.311 122.063 234.415 123.74C233.519 125.409 227.376 135.744 223.8 139.622C220.786 142.892 216.556 147.862 213.079 146.056C209.593 144.25 207.771 135.782 207.452 129.567C207.133 123.353 205.326 112.555 205.326 112.555L208.136 103.798V103.806Z" fill="#AF786B"/>
<path d="M218.887 115.772C218.857 110.999 218.705 103.98 218.318 99.7158C217.718 93.0155 210.527 93.5163 210.527 93.5163L203.693 103.646L205.326 112.562C205.326 112.562 205.751 115.104 206.222 118.428C208.325 117.335 213.42 115.097 218.887 115.765V115.772Z" fill="#36AAEA"/>
<path d="M159.715 83.7502C159.715 83.7502 166.958 76.587 168.804 73.0737C168.804 73.0737 175.091 80.3659 177.596 81.709C180.11 83.0521 180.072 82.225 182.676 83.9247C185.281 85.6245 180.094 89.7069 180.094 89.7069L174.225 96.521L171.043 99.4197C171.043 99.4197 170.892 96.2402 168.796 93.7893C166.7 91.3307 159.707 83.7502 159.707 83.7502H159.715Z" fill="#36AAEA"/>
<g style="mix-blend-mode:multiply" opacity="0.46">
<path d="M159.713 83.7503L162.249 81.2007C162.249 81.2007 170.86 90.7769 175.195 90.7238L171.049 99.4197C171.049 99.4197 171.239 96.4148 168.802 93.7894C166.137 90.9135 159.713 83.7503 159.713 83.7503Z" fill="#36AAEA"/>
</g>
<g style="mix-blend-mode:multiply" opacity="0.44">
<path d="M214.65 133.194C214.65 133.194 216.488 131.115 219.153 129.909L218.826 127.807L214.643 133.194H214.65Z" fill="#AF786B"/>
</g>
<g style="mix-blend-mode:multiply" opacity="0.27">
<path d="M208.94 68.8777C207.52 73.6734 203.921 73.5747 201.939 77.0273C201.962 79.6528 202.494 82.2556 202.494 82.2556C202.494 82.2556 204.931 79.9867 208.28 78.1656C211.332 76.5038 212.949 73.1574 213.2 69.5531C215.167 69.5758 217.505 69.0219 218.614 66.5633C220.732 61.8966 217.528 57.579 213.443 57.579C211.567 57.579 210.391 58.3454 209.662 59.1801C208.705 58.2012 207.566 57.4045 206.237 56.8657C206.237 56.8657 210.573 63.4294 208.955 68.8777H208.94Z" fill="#391E21"/>
</g>
<path style="mix-blend-mode:multiply" opacity="0.28" d="M193.753 321.008C234.166 321.008 266.927 317.927 266.927 314.126C266.927 310.325 234.166 307.243 193.753 307.243C153.339 307.243 120.578 310.325 120.578 314.126C120.578 317.927 153.339 321.008 193.753 321.008Z" fill="url(#paint4_radial_1355_806)"/>
<path d="M88.9908 56.5541C86.6142 51.508 85.2854 53.2153 82.4228 50.4305C79.5602 47.6457 75.9155 44.4586 72.1038 45.6424C69.2868 46.515 67.5328 49.5654 64.6854 50.3243C61.9898 51.0451 59.226 49.482 57.0695 47.7064C54.9131 45.9307 52.863 43.8137 50.1598 43.108C47.6845 42.463 44.8902 43.2066 43.0679 45.005C41.2456 46.7958 40.4483 49.573 41.0557 52.0619C41.4809 53.8072 42.5212 55.3476 43.0223 57.0701C44.017 60.5151 42.749 64.1953 41.1393 67.4051C39.5295 70.6073 37.5325 73.726 36.9555 77.2621C36.3784 80.8057 37.73 85.0019 41.0709 86.3223C42.8933 87.0431 45.0041 86.8003 46.7885 87.6123C48.1629 88.2345 49.1955 89.4106 50.0915 90.6171C52.582 93.9483 54.4499 97.7803 57.4264 100.679C60.4105 103.578 65.0574 105.384 68.7705 103.494C71.6786 102.014 73.258 98.6909 76.0978 97.0822C80.9498 94.3429 87.4039 97.5527 92.4912 95.2838C95.7259 93.8421 97.7229 90.344 98.0645 86.8231C98.4062 83.3022 97.328 79.7737 95.7638 76.6019C94.1921 73.4073 92.0736 70.2506 92.0812 66.6918C92.0812 65.1211 92.514 63.5731 92.476 62.01C92.3546 57.108 87.943 53.5492 83.9338 50.7188" fill="#391E21"/>
<path style="mix-blend-mode:multiply" opacity="0.28" d="M73.4257 321.008C96.2344 321.008 114.724 317.926 114.724 314.125C114.724 310.324 96.2344 307.243 73.4257 307.243C50.617 307.243 32.127 310.324 32.127 314.125C32.127 317.926 50.617 321.008 73.4257 321.008Z" fill="url(#paint5_radial_1355_806)"/>
<path d="M87.01 82.43C85.4914 82.8398 83.8892 82.4072 82.9629 82.0582C82.5528 81.9064 82.2491 81.5422 82.1732 81.1097C81.7252 78.4766 81.672 75.0923 82.9021 71.3134L67.063 64.2109C67.063 64.2109 72.1427 74.5004 70.9354 81.0717C70.8443 81.14 69.3864 83.0902 66.9491 82.8018C66.2961 82.7259 65.1191 84.6761 65.1191 84.6761L71.6416 99.3363C71.6416 99.3363 82.606 99.4881 83.7981 99.3363C84.9826 99.1846 88.3919 93.7059 88.3919 93.7059C88.3919 93.7059 89.007 81.8837 87.0024 82.4224L87.01 82.43Z" fill="#FCB29A"/>
<path d="M35.7801 209.652L29.9487 205.092C29.9487 205.092 25.1271 200.531 22.3404 203.066C19.5537 205.6 18.7868 213.454 15.7496 218.022C12.7048 222.582 10.4269 232.72 12.196 237.538C13.9728 242.357 17.2682 232.978 22.0898 229.685C26.9114 226.391 33.2516 221.065 33.2516 221.065L35.7877 209.66L35.7801 209.652Z" fill="#FCB29A"/>
<path d="M71.5437 148.31L72.5611 140.198L94.8772 137.914L97.1627 150.586L100.208 159.965C100.208 159.965 108.833 177.198 112.379 191.903C115.933 206.602 115.424 212.179 111.871 214.463C108.317 216.747 76.1071 228.402 76.1071 228.402C76.1071 228.402 71.7942 230.686 69.5163 233.471C67.2308 236.256 62.1131 249.065 58.6127 247.661C56.441 246.796 53.5633 241.067 57.3674 234.731C61.1715 228.395 58.6127 223.667 58.5595 222.4C58.4304 219.221 59.6301 215.214 62.4168 215.214C65.2035 215.214 65.4616 217.749 69.0076 215.214C72.5611 212.68 80.42 204.318 91.8324 204.568C91.8324 204.568 94.3685 203.809 92.5917 200.008C90.8149 196.206 81.688 185.051 81.688 185.051L77.1246 171.62L70.5338 150.078L71.5513 148.302L71.5437 148.31Z" fill="#FCB29A"/>
<path d="M76.1069 228.402C76.1069 228.402 108.317 216.747 111.87 214.463C115.424 212.179 115.925 206.609 112.379 191.903C108.825 177.205 100.207 159.965 100.207 159.965L97.1625 150.586L94.877 137.914L72.561 140.198L71.5435 148.31L70.526 150.085L77.1168 171.628L81.6802 185.059C81.6802 185.059 90.8071 196.214 92.5839 200.015C94.3607 203.817 91.8246 204.576 91.8246 204.576C80.4122 204.325 72.5458 212.687 68.9998 215.222C68.9998 215.222 67.466 224.942 72.0598 231.051C74.072 229.472 76.1069 228.402 76.1069 228.402Z" fill="#94B5DC"/>
<path d="M90.6705 204.697C90.6705 204.697 92.0524 217.043 86.0463 220.276C80.0401 223.508 58.8555 219.706 58.8555 219.706C58.8555 219.706 62.8494 207.194 68.2405 205.092C73.6316 202.99 90.6705 204.697 90.6705 204.697Z" fill="#80A5D0"/>
<g style="mix-blend-mode:multiply" opacity="0.34">
<path d="M85.5825 190.773L91.3609 197.655L92.2872 153.113L82.3555 159.57L85.5825 190.773Z" fill="#80A5D0"/>
</g>
<path d="M69.0065 131.585L67.6245 133.02L61.6564 139.189C61.6564 139.189 54.0481 152.62 57.3435 164.283C60.6389 175.938 70.024 201.54 70.024 201.54C70.024 201.54 64.4431 200.023 54.8074 202.557C45.1718 205.092 29.9553 205.092 29.9553 205.092C29.9553 205.092 23.6151 216.496 33.2507 221.057C33.2507 221.057 44.6631 218.522 57.6017 219.539C70.5327 220.556 82.712 221.565 86.258 217.513C89.8115 213.461 90.0621 206.359 89.5534 199.264C89.0446 192.169 86.5161 166.749 84.9975 158.766C84.1775 154.479 76.1136 146.542 76.1136 146.542L69.0141 131.585H69.0065Z" fill="#94B5DC"/>
<g style="mix-blend-mode:multiply" opacity="0.49">
<g style="mix-blend-mode:multiply" opacity="0.49">
<g style="mix-blend-mode:multiply" opacity="0.49">
<path d="M63.8437 147.263C63.5172 148.302 63.2666 149.365 63.0616 150.435L62.9629 150.412C63.1983 149.349 63.4792 148.287 63.8437 147.263Z" fill="#F34E6A"/>
</g>
<g style="mix-blend-mode:multiply" opacity="0.49">
<path d="M62.7273 152.582C62.5906 153.659 62.5147 154.744 62.5071 155.83H62.2793C62.3173 154.729 62.416 153.644 62.5754 152.559L62.7273 152.582Z" fill="#F34E6A"/>
</g>
<g style="mix-blend-mode:multiply" opacity="0.49">
<path d="M62.5761 158C62.6596 159.078 62.8191 160.155 63.0772 161.202L62.7355 161.278C62.5002 160.201 62.3635 159.108 62.3027 158.015L62.5761 158Z" fill="#F34E6A"/>
</g>
<g style="mix-blend-mode:multiply" opacity="0.49">
<path d="M63.6997 163.273L64.5805 166.43L64.1326 166.544L63.3125 163.387L63.6997 163.273Z" fill="#F34E6A"/>
</g>
<g style="mix-blend-mode:multiply" opacity="0.49">
<path d="M65.1188 168.547L65.9009 171.712L65.3542 171.833L64.6328 168.661L65.1188 168.547Z" fill="#F34E6A"/>
</g>
<g style="mix-blend-mode:multiply" opacity="0.49">
<path d="M66.4111 173.829L67.1856 177L66.5477 177.152L65.834 173.965L66.4111 173.829Z" fill="#F34E6A"/>
</g>
<g style="mix-blend-mode:multiply" opacity="0.49">
<path d="M67.709 179.11L68.4835 182.282L67.8001 182.456L67.0332 179.277L67.709 179.11Z" fill="#F34E6A"/>
</g>
<g style="mix-blend-mode:multiply" opacity="0.49">
<path d="M69.0228 184.391L69.858 187.548L69.1443 187.737L68.3242 184.573L69.0228 184.391Z" fill="#F34E6A"/>
</g>
<g style="mix-blend-mode:multiply" opacity="0.49">
<path d="M70.442 189.642L71.376 192.768L70.6395 192.996L69.7207 189.847L70.442 189.642Z" fill="#F34E6A"/>
</g>
<g style="mix-blend-mode:multiply" opacity="0.49">
<path d="M72.0529 194.833C72.4022 195.857 72.7743 196.881 73.1767 197.883L72.4326 198.179C72.0302 197.154 71.6581 196.122 71.3164 195.083L72.0605 194.833H72.0529Z" fill="#F34E6A"/>
</g>
<g style="mix-blend-mode:multiply" opacity="0.49">
<path d="M74.0334 199.848C74.4966 200.812 75.0053 201.768 75.6583 202.557L75.0433 203.073C74.3068 202.178 73.7828 201.191 73.2969 200.197L74.0334 199.848Z" fill="#F34E6A"/>
</g>
<g style="mix-blend-mode:multiply" opacity="0.49">
<path d="M77.1624 204.158C77.337 204.401 77.5268 204.644 77.6103 205.046C77.6559 205.243 77.6103 205.524 77.4737 205.729C77.3294 205.926 77.1548 206.032 76.9953 206.108C76.6764 206.253 76.3803 206.298 76.0917 206.336C75.8032 206.374 75.5223 206.389 75.2337 206.397L75.2109 205.623C75.7273 205.6 76.2892 205.562 76.6612 205.395C76.7523 205.357 76.8055 205.304 76.8207 205.281C76.8359 205.258 76.8434 205.251 76.8283 205.183C76.8055 205.046 76.6764 204.826 76.5245 204.636L77.1548 204.158H77.1624Z" fill="#F34E6A"/>
</g>
<g style="mix-blend-mode:multiply" opacity="0.49">
<path d="M73.0168 206.329L69.7441 206.018L69.8277 205.274L73.0699 205.57L73.0168 206.329Z" fill="#F34E6A"/>
</g>
<g style="mix-blend-mode:multiply" opacity="0.49">
<path d="M67.5806 205.752C66.4948 205.608 65.4317 205.464 64.3535 205.411L64.3915 204.697C65.4925 204.743 66.6011 204.887 67.6717 205.024L67.5806 205.752Z" fill="#F34E6A"/>
</g>
<g style="mix-blend-mode:multiply" opacity="0.49">
<path d="M62.1956 205.365C61.1174 205.372 60.0391 205.448 58.9609 205.539L58.8926 204.864C59.986 204.743 61.087 204.682 62.188 204.659V205.365H62.1956Z" fill="#F34E6A"/>
</g>
<g style="mix-blend-mode:multiply" opacity="0.49">
<path d="M56.8043 205.782L53.5924 206.313L53.4785 205.737L56.7132 205.152L56.8043 205.782Z" fill="#F34E6A"/>
</g>
<g style="mix-blend-mode:multiply" opacity="0.49">
<path d="M51.467 206.746L48.2856 207.474L48.1641 206.989L51.3456 206.207L51.467 206.746Z" fill="#F34E6A"/>
</g>
<g style="mix-blend-mode:multiply" opacity="0.49">
<path d="M46.1669 207.983L42.9854 208.749L42.8867 208.362L46.053 207.535L46.1669 207.983Z" fill="#F34E6A"/>
</g>
<g style="mix-blend-mode:multiply" opacity="0.49">
<path d="M40.8529 209.227L37.6335 209.842L37.5879 209.592L40.777 208.894L40.8529 209.227Z" fill="#F34E6A"/>
</g>
<g style="mix-blend-mode:multiply" opacity="0.49">
<path d="M35.4679 210.153C34.3821 210.282 33.2887 210.365 32.1953 210.373V210.274C33.2811 210.221 34.3669 210.115 35.4376 209.956L35.4603 210.153H35.4679Z" fill="#F34E6A"/>
</g>
<g style="mix-blend-mode:multiply" opacity="0.49">
<path d="M30.0167 210.297L29.4473 210.236L30.0167 210.274V210.297Z" fill="#F34E6A"/>
</g>
</g>
</g>
<path d="M119.083 38.5553C117.109 39.3521 115.142 37.3867 115.94 35.4138C117.428 31.726 118.962 27.3173 118.187 26.384C116.957 24.8967 116.858 20.2679 117.079 18.1736C117.147 17.559 117.344 16.0793 116.676 14.9411C116.099 13.9622 116.41 12.9985 117.481 13.727C118.552 14.4554 118.84 15.1915 119.174 17.043C119.334 17.9384 119.562 18.5758 119.835 18.5682C120.321 18.553 120.609 15.9351 120.564 13.5069C120.518 10.9953 120.473 8.1649 121.164 7.40609C121.703 6.81422 122.242 7.72479 122.401 9.35624C122.561 10.9877 121.794 14.3947 122.614 14.6679C123.434 14.9411 123.457 11.147 123.381 9.64458C123.305 8.14214 122.523 6.42722 123.563 6.11611C124.277 5.90364 124.846 6.4424 125.18 8.39254C125.507 10.3427 124.467 15.017 125.18 15.0625C125.902 15.108 126.16 10.4337 126.054 9.51559C125.94 8.56707 126.752 8.05108 127.39 9.57629C128.028 11.1015 127.549 13.2793 127.284 15.0625C127.018 16.8381 126.464 17.6804 126.988 17.8549C127.496 18.0295 128.073 17.0506 128.073 15.4419C128.073 13.8256 127.997 12.1259 128.802 12.5508C129.607 12.9834 130.154 15.237 129.569 18.0902C128.985 20.9509 127.071 24.6539 124.656 26.5509C124.656 26.5509 122.637 34.8068 123.381 36.8176L119.076 38.5553H119.083Z" fill="#FCB29A"/>
<path d="M87.5191 91.5507L85.3398 82.5512C85.3398 82.5512 86.9724 81.9062 95.3855 75.0769C102.865 68.9988 107.048 59.8703 107.048 59.8703C107.048 59.8703 114.657 35.7933 116.935 27.4312L125.811 28.19C125.811 28.19 122.523 59.2253 118.825 67.6482C114.695 77.0498 94.5199 101.613 94.5199 101.613L87.5115 91.5507H87.5191Z" fill="#FF738B"/>
<g style="mix-blend-mode:multiply">
<path d="M77.8068 72.1782L72.2715 72.2162L72.5676 73.6124C72.5676 73.6124 73.9116 81.2612 82.226 81.1246L81.2921 75.8129L77.8144 72.1782H77.8068Z" fill="#F9AF9A"/>
</g>
<path d="M90.2754 66.9273C90.3817 67.6861 90.4196 68.4601 90.3209 69.2948C89.9944 72.1934 88.1721 74.6368 86.5016 76.9891C81.3687 84.2206 70.1233 73.7945 69.8272 66.9652C69.4931 59.3088 73.2517 53.3673 79.4856 52.4643C83.3505 51.9104 88.3923 52.7072 89.6299 59.0584C89.9868 60.8872 89.2503 62.5262 89.7894 64.6584C89.9868 65.44 90.1691 66.1837 90.2754 66.9273Z" fill="#F9AF9A"/>
<path d="M78.0423 54.2172C78.0423 54.2172 79.6292 56.6454 84.299 56.0308C88.9687 55.4162 89.4623 58.0037 89.4623 58.0037C89.4623 58.0037 90.7531 56.5468 90.2216 53.5874C89.075 47.221 80.2367 48.2681 76.8274 49.5278C73.4181 50.7874 78.0347 54.2172 78.0347 54.2172H78.0423Z" fill="#391E21"/>
<path d="M82.4542 52.6083C82.4542 52.6083 79.5689 58.3298 76.6228 60.4924C73.6767 62.655 71.5506 61.2891 72.7731 65.4854C74.0031 69.6816 70.404 78.5369 70.404 78.5369C70.404 78.5369 68.5665 74.6063 64.8611 70.8198C61.1481 67.0257 60.8368 54.2625 68.8778 50.7113C78.802 46.333 82.4542 52.6083 82.4542 52.6083Z" fill="#391E21"/>
<path d="M75.2174 61.054C75.2174 61.054 74.7011 57.8367 71.8841 59.7716C69.0746 61.7066 71.307 67.337 74.6631 66.4644" fill="#FCB29A"/>
<path d="M97.4054 112.843C100.701 107.524 99.6909 104.481 98.4229 100.93C97.1549 97.3784 96.6461 92.5676 93.3507 87.4987C90.9893 83.864 89.334 82.3615 85.3324 82.5588C85.0971 86.1025 84.8844 96.1871 79.6224 96.1871C72.9026 96.1871 69.2959 87.4001 67.8987 82.9307C66.2586 82.5285 65.1956 82.1794 65.1956 82.1794L60.1234 80.4038L51.7559 96.3692C51.7559 96.3692 54.8842 109.55 58.1796 116.645C61.475 123.74 58.3542 128.922 58.1037 136.017C57.8531 143.112 55.1348 147.483 55.1348 147.483C55.1348 147.483 69.0073 146.041 78.9011 148.833C88.7949 151.618 97.7547 150.101 97.7547 150.101C97.7547 150.101 97.0789 135.653 95.8109 128.3C94.5428 120.947 94.1176 118.162 97.413 112.835L97.4054 112.843Z" fill="#FF738B"/>
<path d="M18.5277 41.0897C20.6614 41.1428 21.8079 38.616 20.3728 37.0452C17.6773 34.1086 14.7008 30.5194 15.0956 29.3736C15.7259 27.5525 14.1921 23.1817 13.2581 21.2999C12.9772 20.7459 12.2786 19.4332 12.4988 18.128C12.6962 17.005 12.066 16.2234 11.3143 17.2706C10.5626 18.3178 10.555 19.1221 10.8891 20.9736C11.0561 21.869 11.0637 22.5443 10.8055 22.6278C10.3424 22.7796 9.15784 20.4348 8.34538 18.1432C7.50255 15.7757 6.55342 13.1123 5.64225 12.6418C4.93609 12.2776 4.73867 13.3172 5.16389 14.9031C5.5891 16.489 7.50255 19.4029 6.83436 19.9492C6.16617 20.4955 4.80701 16.9443 4.35902 15.5177C3.90343 14.0836 4.03252 12.2017 2.94671 12.2776C2.20259 12.3307 1.8533 13.0288 2.23296 14.9714C2.61261 16.914 5.22463 20.9281 4.57163 21.2164C3.91862 21.5123 2.02795 17.2251 1.80775 16.3221C1.57995 15.3887 0.638412 15.1915 0.577667 16.8457C0.516923 18.4999 1.73182 20.3741 2.60502 21.9449C3.47822 23.5156 4.29068 24.1075 3.86547 24.4565C3.44785 24.798 2.56705 24.0847 1.99757 22.5747C1.43569 21.0647 0.90417 19.4408 0.304317 20.1237C-0.295536 20.8067 -0.0145924 23.1134 1.53439 25.5796C3.08338 28.0533 6.18136 30.8533 9.10469 31.7791C9.10469 31.7791 13.8959 38.8057 13.9035 40.9455L18.5429 41.0593L18.5277 41.0897Z" fill="#FCB29A"/>
<path d="M63.9261 93.3262L60.1219 80.4036C60.1219 80.4036 55.885 78.9164 51.3216 73.3391C46.7581 67.7618 37.411 59.5515 37.411 59.5515L17.259 29.457L8.04102 34.2755L25.1558 69.029L56.3178 104.23L63.9261 93.3338V93.3262Z" fill="#FF738B"/>
<g style="mix-blend-mode:multiply" opacity="0.31">
<path d="M65.8776 114.535C57.5176 112.555 56.9937 102.607 56.9937 102.607C57.2215 95.914 57.9048 96.1264 51.9822 93.3644C46.0521 90.6023 33.6602 78.5068 33.6602 78.5068L33.7968 78.78L52.7188 100.156C52.8327 100.596 52.9618 101.074 53.0984 101.567C53.0984 101.567 53.1212 101.643 53.1288 101.681C53.2579 102.167 53.4022 102.667 53.5464 103.183C53.5768 103.282 53.5996 103.381 53.6299 103.487C53.7818 104.026 53.9413 104.58 54.1083 105.141C54.1311 105.209 54.1539 105.285 54.1691 105.354C54.3437 105.953 54.5259 106.568 54.7158 107.182V107.198C54.9056 107.812 55.103 108.427 55.3004 109.041C55.3232 109.117 55.3536 109.193 55.3764 109.277C55.5662 109.869 55.7636 110.453 55.9686 111.03C55.999 111.128 56.0369 111.219 56.0673 111.318C56.2647 111.895 56.4698 112.456 56.6748 113.01C56.7127 113.101 56.7431 113.192 56.7811 113.283C56.9937 113.837 57.2063 114.383 57.4189 114.907C57.4417 114.968 57.472 115.036 57.4948 115.097C57.7226 115.643 57.9504 116.167 58.1782 116.66C58.9223 118.269 59.3399 119.779 59.5374 121.236H59.5298C59.9702 124.514 59.2944 127.526 58.7325 130.766C58.7173 130.842 58.7021 130.918 58.6945 130.994C58.4136 132.587 58.1706 134.249 58.1023 136.032C57.8517 143.127 55.1334 147.498 55.1334 147.498C55.1334 147.498 57.2518 147.278 60.4182 147.179L60.9345 147.149C60.9345 147.149 61.8229 139.052 61.1319 133.817C61.0939 133.528 61.0636 133.24 61.0484 132.944C60.7447 127.746 63.5997 122.875 68.0872 120.219C68.3074 120.09 68.5276 119.961 68.7402 119.832C72.4836 117.631 74.2376 116.531 65.8776 114.558V114.535Z" fill="#F34E6A"/>
</g>
<path d="M95.0137 92.1198L97.3372 98.1296C103.032 91.0195 115.659 74.8644 118.826 67.6481C122.523 59.2253 125.811 28.1899 125.811 28.1899C125.811 28.1899 120.564 60.0524 118.241 64.6281C109.797 81.284 95.0137 92.1274 95.0137 92.1274V92.1198Z" fill="#F34E6A"/>
</g>
<defs>
<radialGradient id="paint0_radial_1355_806" cx="0" cy="0" r="1" gradientUnits="userSpaceOnUse" gradientTransform="translate(305.234 313.037) scale(40.2737 6.03711)">
<stop/>
<stop offset="1" stop-color="white" stop-opacity="0"/>
</radialGradient>
<radialGradient id="paint1_radial_1355_806" cx="0" cy="0" r="1" gradientUnits="userSpaceOnUse" gradientTransform="translate(169.773 313.037) scale(40.2737 6.03711)">
<stop/>
<stop offset="1" stop-color="white" stop-opacity="0"/>
</radialGradient>
<radialGradient id="paint2_radial_1355_806" cx="0" cy="0" r="1" gradientUnits="userSpaceOnUse" gradientTransform="translate(44.1757 313.037) scale(40.2737 6.03711)">
<stop/>
<stop offset="1" stop-color="white" stop-opacity="0"/>
</radialGradient>
<radialGradient id="paint3_radial_1355_806" cx="0" cy="0" r="1" gradientUnits="userSpaceOnUse" gradientTransform="translate(397.118 313.037) scale(56.3831 6.03711)">
<stop/>
<stop offset="1" stop-color="white" stop-opacity="0"/>
</radialGradient>
<radialGradient id="paint4_radial_1355_806" cx="0" cy="0" r="1" gradientUnits="userSpaceOnUse" gradientTransform="translate(193.46 265.975) scale(71.2844 6.03711)">
<stop/>
<stop offset="1" stop-color="white" stop-opacity="0"/>
</radialGradient>
<radialGradient id="paint5_radial_1355_806" cx="0" cy="0" r="1" gradientUnits="userSpaceOnUse" gradientTransform="translate(73.4257 265.975) scale(40.2737 6.03711)">
<stop/>
<stop offset="1" stop-color="white" stop-opacity="0"/>
</radialGradient>
<clipPath id="clip0_1355_806">
<rect width="465" height="321" fill="white"/>
</clipPath>
</defs>
</svg>
