<svg width="74" height="70" viewBox="0 0 74 70" fill="none" xmlns="http://www.w3.org/2000/svg">
<path d="M49.6334 0C37.2438 0 27.0228 9.52416 25.8613 21.6039L28.2616 21.6044C29.2684 21.6044 30.2747 21.7595 31.2042 21.9917C32.1333 12.6993 40.0316 5.34355 49.6334 5.34355C59.8548 5.34355 68.2174 13.7064 68.2174 23.9275C68.2174 32.91 61.7904 40.4208 53.3502 42.1244V47.0028V47.6224C64.8102 45.8415 73.6377 35.9301 73.6377 24.0052C73.5605 10.6867 62.8745 0.000858198 49.6334 0.000858198V0Z" fill="white"/>
<path d="M60.5532 23.9274C60.5532 22.456 59.3919 21.2169 57.8428 21.2169H52.3447V12.7768C52.3447 11.3055 51.1834 10.0664 49.6343 10.0664C48.0857 10.0664 46.9238 11.2277 46.9238 12.7768V23.9274C46.9238 25.3988 48.0851 26.6378 49.6343 26.6378H57.8421C59.314 26.5601 60.5529 25.3982 60.5529 23.9274H60.5532Z" fill="white"/>
<path d="M26.1731 59.0814H22.4564C19.5915 59.0814 17.2684 56.8361 17.1912 53.9707C12.1583 53.7384 7.51205 53.3511 3.17578 52.5771V65.5857C3.17578 67.986 5.11162 69.9996 7.51191 69.9996H41.0405C43.4408 69.9996 45.4545 68.0638 45.4545 65.5857L45.4534 52.5771C41.1945 53.2739 36.5489 53.7384 31.5154 53.9707C31.361 56.8361 29.0378 59.0814 26.173 59.0814H26.1731Z" fill="white"/>
<path d="M44.2146 35.8521H34.5354V32.6772C34.5354 29.27 31.7478 26.4053 28.2634 26.4053H20.2873C16.88 26.4053 14.0153 29.1929 14.0153 32.6772V35.8521H4.33613C1.93583 35.8521 0 37.788 0 40.1883V46.9248C0 47.5444 0.387277 48.0861 1.0068 48.1639C5.18792 49.0157 10.531 49.6353 17.1129 49.9447C17.1129 47.0021 19.5132 44.6795 22.456 44.6795H26.1726C29.1152 44.6795 31.4378 47.0027 31.5157 49.9447C38.0199 49.6352 43.363 48.9379 47.5444 48.0862C48.1639 48.0089 48.5512 47.4666 48.5512 46.8471V40.1106C48.5506 37.788 46.6148 35.8521 44.2145 35.8521H44.2146ZM29.1925 35.4649H19.3583V32.6773C19.3583 32.2127 19.7456 31.7482 20.2874 31.7482H28.263C28.8053 31.7482 29.192 32.1355 29.192 32.6773L29.1925 35.4649Z" fill="white"/>
<path d="M26.0946 55.2101C26.8691 55.2101 27.4881 54.5906 27.4881 53.8166V50.1772C27.4881 49.4027 26.8685 48.7837 26.0946 48.7837H22.3779C21.6033 48.7837 20.9844 49.4032 20.9844 50.1772V53.8166C20.9844 54.5911 21.6039 55.2101 22.3779 55.2101H26.0946Z" fill="white"/>
</svg>
