<svg width="67" height="70" viewBox="0 0 67 70" fill="none" xmlns="http://www.w3.org/2000/svg">
<path d="M65.9432 62.7808H55.8427C56.0218 62.4241 56.1561 62.0399 56.2144 61.6284L59.5138 37.9415C59.662 36.8526 59.3341 35.7527 58.6149 34.9173C57.8956 34.0928 56.8491 33.6167 55.7492 33.6167H11.2411C10.1413 33.6167 9.09424 34.0928 8.37544 34.9173C7.65619 35.7528 7.32883 36.8526 7.4765 37.9415L10.7759 61.6284C10.8342 62.0399 10.9685 62.424 11.1476 62.7808H1.05745C0.465212 62.7808 0 63.2569 0 63.8383V68.0469C0 68.6283 0.465212 69.1044 1.05745 69.1044H65.9426C66.5239 69.1044 67 68.6283 67 68.0469V63.8383C67.0005 63.2569 66.5244 62.7808 65.9431 62.7808H65.9432ZM33.5006 53.7083C30.3809 53.7083 27.8431 51.7096 27.8431 49.2565C27.8431 46.8029 30.3809 44.8041 33.5006 44.8041C36.6095 44.8041 39.1473 46.8028 39.1473 49.2559C39.1473 51.7095 36.6095 53.7083 33.5006 53.7083Z" fill="white"/>
<path d="M43.25 25.0717C42.8907 24.9447 42.4781 25.0294 42.1926 25.2938C39.8133 27.4825 36.7257 28.6882 33.5001 28.6882C30.2751 28.6882 27.1874 27.4825 24.7973 25.2938C24.5118 25.0294 24.1101 24.9447 23.7398 25.0717C19.7852 26.4358 16.1472 28.6246 13.0703 31.5011H53.9196C50.8531 28.6246 47.2155 26.436 43.25 25.0717Z" fill="white"/>
<path d="M45.9154 12.4142C45.9154 19.2706 40.357 24.8289 33.5007 24.8289C26.6443 24.8289 21.0859 19.2706 21.0859 12.4142C21.0859 5.55782 26.6443 0 33.5007 0C40.357 0 45.9154 5.55782 45.9154 12.4142Z" fill="white"/>
</svg>
