<svg width="48" height="66" viewBox="0 0 48 66" fill="none" xmlns="http://www.w3.org/2000/svg">
<path d="M20.087 53.685C19.1511 50.9545 17.4379 48.5572 15.1577 46.7871L9.55299 42.436C3.79822 37.9685 0.303485 31.1926 0 23.9134C0 10.7062 10.7062 0 23.9134 0C37.1206 0 47.8269 10.7062 47.8269 23.9134C47.5235 31.1931 44.0286 37.9692 38.2739 42.436L32.6691 46.7871C30.3888 48.5573 28.6757 50.9545 27.7398 53.685L27.0805 55.6075C26.6165 56.9605 25.344 57.8698 23.9136 57.8698C22.4831 57.8698 21.2106 56.9605 20.7466 55.6075L20.087 53.685ZM23.9133 66C18.6304 66 14.3479 65.3578 14.3479 64.565C14.3479 63.7726 18.6304 63.1304 23.9133 63.1304C29.1962 63.1304 33.4787 63.7726 33.4787 64.565C33.4787 65.3577 29.1962 66 23.9133 66ZM23.9133 42.5651C34.4787 42.5651 43.0441 34.0001 43.0441 23.4343C43.0441 12.8689 34.4786 4.30359 23.9133 4.30359C13.348 4.30359 4.78257 12.8686 4.78257 23.4343C4.78257 34.0001 13.348 42.5651 23.9133 42.5651ZM34.9133 25.3649V30.5322C34.9133 32.1109 33.6306 33.3908 32.0487 33.3908H15.7784C14.1965 33.3908 12.9138 32.1109 12.9138 30.5322V25.3649H21.7652V25.4707C21.7652 26.6571 22.7274 27.6189 23.9138 27.6189C25.1001 27.6189 26.0623 26.6572 26.0623 25.4707V25.3649H34.9133ZM34.9133 19.0972V23.927H26.0619C26.0619 22.8253 25.1687 21.9326 24.0675 21.9326H23.759C22.6578 21.9326 21.7646 22.8253 21.7646 23.927H12.9132V19.0972C12.9132 17.5184 14.1959 16.2381 15.7778 16.2381H17.21V13.3796C17.21 11.8009 18.4926 10.5206 20.0745 10.5206H27.7519C29.3338 10.5206 30.6165 11.8009 30.6165 13.3796V16.2381H32.0487C33.6306 16.2381 34.9132 17.5184 34.9132 19.0972H34.9133ZM19.5056 16.3519H28.3201V14.1297C28.3201 13.4046 27.729 12.813 27.0007 12.813H20.8252C20.0978 12.813 19.5058 13.4045 19.5058 14.1297L19.5056 16.3519Z" fill="white"/>
</svg>
