<svg width="80" height="73" viewBox="0 0 80 73" fill="none" xmlns="http://www.w3.org/2000/svg">
<path d="M80 36.5081C80 31.2177 73.3632 26.2039 63.1879 23.0948C65.5361 12.7417 64.4925 4.5049 59.894 1.86781C58.8341 1.24923 57.5948 0.95622 56.2413 0.95622V4.58629C56.9914 4.58629 57.5948 4.7328 58.1003 5.00953C60.318 6.27924 61.2801 11.1139 60.53 17.3322C60.3506 18.8624 60.0571 20.474 59.6983 22.1181C56.5022 21.3367 53.0126 20.7344 49.3437 20.3437C47.1423 17.3322 44.8594 14.5975 42.5601 12.2046C47.8761 7.27222 52.8659 4.57001 56.2576 4.57001V0.939941C51.7733 0.939941 45.903 4.1305 39.9674 9.66514C34.0318 4.16306 28.1614 1.00506 23.6771 1.00506V4.63513C27.0526 4.63513 32.0587 7.32106 37.3746 12.2208C35.0917 14.6138 32.8088 17.3322 30.64 20.3437C26.9548 20.7344 23.4651 21.3367 20.2691 22.1344C19.894 20.5065 19.6168 18.9275 19.4211 17.4136C18.6547 11.1953 19.6005 6.36063 21.8019 5.07464C22.2911 4.78163 22.927 4.65141 23.6771 4.65141V1.02133C22.3074 1.02133 21.0681 1.31434 19.9918 1.93292C15.4097 4.57001 14.3824 12.7906 16.7468 23.1111C6.60416 26.2365 0 31.234 0 36.5081C0 41.7986 6.63677 46.8123 16.8121 49.9215C14.4639 60.2745 15.5075 68.5114 20.106 71.1485C21.1659 71.7671 22.4052 72.0601 23.775 72.0601C28.2593 72.0601 34.1296 68.8695 40.0652 63.3349C46.0008 68.8369 51.8712 71.9949 56.3555 71.9949C57.7252 71.9949 58.9645 71.7019 60.0408 71.0834C64.6229 68.4463 65.6502 60.2257 63.2858 49.9052C73.3958 46.7961 80 41.7823 80 36.5081ZM58.7689 25.6505C58.1655 27.7504 57.4154 29.9154 56.5675 32.0804C55.8989 30.7782 55.1977 29.4759 54.4313 28.1736C53.6812 26.8714 52.8822 25.6016 52.0832 24.3645C54.3987 24.7063 56.6327 25.1296 58.7689 25.6505ZM51.3004 42.9869C50.0285 45.1845 48.724 47.2681 47.3706 49.2053C44.9409 49.4169 42.4786 49.5308 40 49.5308C37.5377 49.5308 35.0754 49.4169 32.662 49.2215C31.3086 47.2844 29.9878 45.2171 28.7159 43.0358C27.4766 40.9033 26.3514 38.7383 25.3241 36.557C26.3351 34.3757 27.4766 32.1944 28.6996 30.0619C29.9715 27.8643 31.276 25.7807 32.6294 23.8436C35.0591 23.632 37.5214 23.518 40 23.518C42.4623 23.518 44.9246 23.632 47.338 23.8273C48.6914 25.7644 50.0122 27.8318 51.2841 30.0131C52.5234 32.1455 53.6486 34.3106 54.6759 36.4919C53.6486 38.6732 52.5234 40.8545 51.3004 42.9869ZM56.5675 40.8707C57.448 43.052 58.1981 45.2333 58.8178 47.3495C56.6816 47.8704 54.4313 48.3099 52.0995 48.6518C52.8985 47.3984 53.6975 46.1124 54.4476 44.7938C55.1977 43.4916 55.8989 42.173 56.5675 40.8707ZM40.0326 58.2397C38.5161 56.677 36.9996 54.9352 35.4994 53.0307C36.967 53.0958 38.4672 53.1446 39.9837 53.1446C41.5165 53.1446 43.033 53.1121 44.5169 53.0307C43.0493 54.9352 41.5328 56.677 40.0326 58.2397ZM27.9005 48.6518C25.585 48.3099 23.351 47.8867 21.2148 47.3658C21.8182 45.2659 22.5683 43.1009 23.4162 40.9359C24.0848 42.2381 24.786 43.5404 25.5524 44.8427C26.3188 46.1449 27.1015 47.4146 27.9005 48.6518ZM39.9511 14.7765C41.4676 16.3393 42.9841 18.081 44.4843 19.9856C43.0167 19.9205 41.5165 19.8717 40 19.8717C38.4672 19.8717 36.9507 19.9042 35.4668 19.9856C36.9344 18.081 38.4509 16.3393 39.9511 14.7765ZM27.8842 24.3645C27.0852 25.6179 26.2862 26.9039 25.5361 28.2225C24.786 29.5247 24.0848 30.827 23.4162 32.1293C22.5357 29.948 21.7856 27.7667 21.1659 25.6505C23.3021 25.1459 25.5524 24.7063 27.8842 24.3645ZM13.1268 44.745C7.35426 42.287 3.62006 39.0638 3.62006 36.5081C3.62006 33.9524 7.35426 30.713 13.1268 28.2713C14.5292 27.669 16.062 27.1318 17.6437 26.6272C18.5732 29.8177 19.7962 33.1385 21.3127 36.5407C19.8125 39.9266 18.6058 43.2311 17.6926 46.4054C16.0783 45.9007 14.5455 45.3473 13.1268 44.745ZM21.8997 68.0068C19.682 66.737 18.7199 61.9024 19.47 55.684C19.6494 54.1539 19.9429 52.5423 20.3017 50.8982C23.4978 51.6796 26.9874 52.2819 30.6563 52.6725C32.8577 55.684 35.1406 58.4188 37.4399 60.8117C32.1239 65.7441 27.1341 68.4463 23.7424 68.4463C23.0086 68.43 22.3889 68.2835 21.8997 68.0068ZM60.5789 55.6026C61.3453 61.821 60.3995 66.6556 58.1981 67.9416C57.7089 68.2346 57.073 68.3649 56.3229 68.3649C52.9474 68.3649 47.9413 65.6789 42.6254 60.7792C44.9083 58.3862 47.1912 55.6678 49.36 52.6563C53.0453 52.2656 56.5349 51.6633 59.7309 50.8657C60.106 52.5098 60.3995 54.0888 60.5789 55.6026ZM66.8569 44.745C65.4546 45.3473 63.9217 45.8845 62.34 46.3891C61.4105 43.1985 60.1875 39.8778 58.671 36.4756C60.1712 33.0897 61.3779 29.7852 62.2911 26.6109C63.9054 27.1155 65.4382 27.669 66.8732 28.2713C72.6457 30.7293 76.3799 33.9524 76.3799 36.5081C76.3636 39.0638 72.6294 42.3032 66.8569 44.745Z" fill="#61DAFB"/>
<path d="M39.9833 43.9473C44.099 43.9473 47.4354 40.6166 47.4354 36.5081C47.4354 32.3995 44.099 29.0688 39.9833 29.0688C35.8677 29.0688 32.5312 32.3995 32.5312 36.5081C32.5312 40.6166 35.8677 43.9473 39.9833 43.9473Z" fill="#61DAFB"/>
</svg>
